<svg width="95" height="81" viewBox="0 0 95 81" fill="none" xmlns="http://www.w3.org/2000/svg">
<g clip-path="url(#clip0_105_19)">
<path d="M42.9123 1.69741C64.5126 1.69741 82.9254 19.2119 84.0383 40.8172C85.1512 62.4225 68.5428 79.937 46.9425 79.937C25.3421 79.937 6.92935 62.4225 5.81645 40.8172C4.70354 19.2119 21.3119 1.69741 42.9123 1.69741Z" fill="#974A8A"/>
<path opacity="0.7" d="M42.9123 1.69741C64.5126 1.69741 82.9254 19.2119 84.0383 40.8172C85.1512 62.4225 68.5428 79.937 46.9425 79.937C25.3421 79.937 6.92935 62.4225 5.81645 40.8172C4.70354 19.2119 21.3119 1.69741 42.9123 1.69741Z" fill="#FAFAFA"/>
<g opacity="0.2">
<path d="M7.71876 49.452L8.31116 48.0684L10.4829 47.8198L12.2185 46.6714L14.0369 45.6371L15.5464 43.3837L17.642 41.4998L18.6864 44.6568L17.5812 46.4769L15.7246 47.5649L14.7853 49.6102L13.2345 50.8694L11.5689 51.6214L12.1359 53.7337L12.725 56.0139L13.1455 58.5393L15.4607 58.3848L17.1804 59.8019L19.0817 60.5242L21.0117 59.8995L22.6742 58.3311L24.7219 56.8401L26.9673 55.5875L28.2317 53.3477L29.05 51.4704L30.0851 49.5025L30.1231 47.2693L30.1773 45.0395L31.104 43.1086L31.8205 46.3392L32.5498 48.297L32.5051 50.4563L33.2853 52.4712L34.244 54.8589L34.7568 57.2434L33.4255 58.1062L31.2984 58.2774L32.9576 60.42L34.4606 62.4012L36.0656 64.3186L38.0879 65.9505L40.3968 66.9747L42.626 68.16L45.2023 68.6436L47.0494 70.625L49.6288 71.0817L51.9442 72.3242L54.3257 73.3354L56.8894 73.3623L58.6793 72.4119L61.2269 72.3784L60.1187 70.2997L59.5134 68.4594L58.7715 65.8399L58.348 63.049L57.8448 60.3591L57.1443 58.1224L56.3258 55.8358L57.0838 53.3541L55.9948 50.9765L57.2303 48.9483L58.6029 47.1986L60.3705 45.7647L61.4754 43.8069L62.3161 41.8156L62.9307 39.7065L63.2426 37.4196L63.9814 34.9916L61.9879 33.0069L60.7968 30.5892L58.711 29.2192L56.7079 29.4238L54.4437 29.7062L52.2049 30.1729L49.7558 29.7532L47.8546 31.8522L45.3992 32.6683L43.2146 34.0115L41.0426 35.3916L38.8484 36.7652L37.2943 39.0688L34.9247 40.1973L32.7113 39.9386L30.5618 40.1502L28.444 40.6335L25.9024 41.4865L26.7051 38.2057L27.5012 35.4586L29.1062 34.5958L30.4277 32.7017L32.3289 31.9495L34.0996 31.1031L34.3257 29.0849L34.9181 27.07L35.3764 24.9476L37.8063 23.7354L40.3985 23.141L42.717 22.6743L44.4113 24.0007L46.6342 24.1653L49.0832 24.5582L51.8477 22.0227L50.1692 20.3166L50.2267 17.9861L49.0961 16.2163L46.4308 14.9536L44.59 12.7842L42.4372 13.2677L40.4021 14.621L37.9371 14.628L35.5998 13.654L33.1603 14.02L31.2336 12.8783L29.8897 11.1624L28.415 9.62431L26.1699 9.28857L24.0521 10.3867L21.8292 10.3933L19.7593 10.8333L19.1477 11.2328L19.1447 11.2363C9.28574 20.7869 4.75697 35.3579 7.71876 49.452Z" fill="#165B9E"/>
<path d="M42.0747 70.6992L43.1892 72.3784L45.6307 72.938L47.5415 73.6656L44.8081 74.6172H42.446L40.4823 73.0499L40.2168 71.8186L42.0747 70.6992Z" fill="#165B9E"/>
<path d="M70.6118 70.4203L70.6565 70.4439C75.4207 65.8433 78.9461 60.0706 80.9906 53.7437L80.9936 53.7336L81.1847 52.6891L81.4998 52.0411V52.0344C83.3564 45.3316 83.5697 38.0812 81.8661 30.9956L81.4043 32.7586L80.8502 35.2369L79.4458 37.5541L79.5446 40.2711L78.3472 42.642L78.0989 45.2245L77.9428 47.35L78.2327 49.4556L79.3951 51.4201L78.6628 53.9691L77.4749 56.1685L76.7457 58.0727L76.4399 60.6921L75.1724 62.5223L74.6563 64.7656L73.2361 66.5118L72.2519 68.4965L70.6118 70.4203Z" fill="#165B9E"/>
<path d="M39.4091 2.50513L40.8997 3.14312L42.8072 4.2984L44.734 5.39652L46.7083 6.36706L48.8962 6.74639L50.9505 7.44498L53.0141 6.723L55.151 6.25275L57.205 5.42656L59.3069 5.65836L61.4789 6.66584L63.2463 8.4288L64.6127 10.6655L67.068 11.6091L68.361 13.8828L69.7621 15.7566L70.1155 18.2349L71.7843 20.0215L72.5008 22.2951L73.9689 24.1859L74.555 26.2982L76.453 26.006L78.5388 25.5895L79.9719 25.0791C73.1312 8.13055 56.5075 -1.33287 39.938 0.987531L39.4091 2.50513Z" fill="#165B9E"/>
</g>
<path d="M6.39061 27.5453C12.1755 32.7404 25.143 30.7148 28.2971 29.6198C31.4513 28.5249 26.4125 29.1185 23.8757 28.5658C21.339 28.0132 20.3941 25.6776 16.5798 27.498C12.7654 29.3184 12.7791 29.8538 11.1574 27.8494C9.53593 25.8448 3.11396 24.6026 6.39061 27.5453Z" fill="#FAFAFA"/>
<path d="M82.4854 53.4786C78.8364 63.7227 62.074 70.3554 57.6189 71.2493C53.1637 72.1433 59.5554 69.3348 62.2386 66.9039C64.9219 64.4729 64.5846 61.0233 70.2838 60.5349C75.983 60.0466 76.3029 60.6958 76.9815 57.1693C77.6604 53.6431 84.5523 47.6759 82.4854 53.4786Z" fill="#FAFAFA"/>
<path d="M55.9331 27.1661C66.1228 24.9776 75.8315 18.501 76.732 14.9753C77.2629 12.8966 75.7972 15.0057 74.1397 15.6564C72.482 16.3071 68.9324 13.9984 67.9227 16.7707C66.9131 19.543 67.7783 21.0564 64.9703 22.0556C62.1439 23.0612 60.3485 21.7066 58.7422 24.0727C57.1359 26.4391 53.1501 27.764 55.9331 27.1661Z" fill="#FAFAFA"/>
<path d="M30.5849 62.8817C44.4657 61.9917 58.4697 55.3288 60.287 50.8379C61.3584 48.19 59.044 50.6939 56.7336 51.229C54.4232 51.7641 50.1319 48.0072 48.3038 51.4791C46.4756 54.9511 47.3531 57.1258 43.4576 57.8954C39.5366 58.67 37.3994 56.5221 34.8528 59.3391C32.3064 62.1558 26.7935 63.1247 30.5849 62.8817Z" fill="#FAFAFA"/>
<path d="M21.9063 74.338C27.9614 78.7485 39.7111 78.4373 41.9509 76.4436C43.2713 75.2681 40.2357 75.2612 38.7471 75.091C37.2585 74.9209 35.4021 71.7539 33.641 73.4482C31.8799 75.1426 32.9407 76.1166 30.5305 75.3824C28.1044 74.6434 27.4759 72.7877 25.2757 73.616C23.0755 74.4443 19.9279 72.8969 21.9063 74.338Z" fill="#FAFAFA"/>
<path d="M29.5083 16.1545C22.2033 18.1902 14.318 16.3754 12.9703 13.7068C12.1757 12.1333 13.6046 13.3742 14.8549 13.295C16.1053 13.2158 18.0033 9.88099 19.2655 11.8641C20.5277 13.8471 20.2653 15.4726 22.3619 15.2502C24.4721 15.0263 25.3925 13.1796 26.9701 14.5866C28.5474 15.9939 31.5039 15.5984 29.5083 16.1545Z" fill="#FAFAFA"/>
<path d="M58.0361 59.9228L64.8557 58.8325C67.3549 58.433 68.9356 55.7874 68.198 53.2377C67.4606 50.6881 64.7488 49.423 62.4634 50.5623L56.2275 53.6711C55.4579 54.0549 55.0716 54.9758 55.3199 55.8345L56.1377 58.662C56.3862 59.5207 57.1943 60.0573 58.0361 59.9228Z" fill="#666666"/>
<path opacity="0.4" d="M58.0361 59.9228L64.8557 58.8325C67.3549 58.433 68.9356 55.7874 68.198 53.2377C67.4606 50.6881 64.7488 49.423 62.4634 50.5623L56.2275 53.6711C55.4579 54.0549 55.0716 54.9758 55.3199 55.8345L56.1377 58.662C56.3862 59.5207 57.1943 60.0573 58.0361 59.9228Z" fill="#060606"/>
<path d="M60.1737 40.598C58.9127 40.8871 57.0696 41.0771 56.7271 40.4197C54.6796 36.4903 51.6683 30.2066 51.0003 28.8118C50.901 28.6046 51.024 28.4141 51.3511 28.2655L55.8222 26.234C56.7579 25.8698 57.901 26.1888 58.7536 26.5366C64.0129 28.683 73.7409 33.092 75.9805 34.8689C73.6036 37.1601 64.4679 39.6132 60.1737 40.598Z" fill="#666666"/>
<path opacity="0.2" d="M60.1737 40.598C58.9127 40.8871 57.0696 41.0771 56.7271 40.4197C54.6796 36.4903 51.6683 30.2066 51.0003 28.8118C50.901 28.6046 51.024 28.4141 51.3511 28.2655L55.8222 26.234C56.7579 25.8698 57.901 26.1888 58.7536 26.5366C64.0129 28.683 73.7409 33.092 75.9805 34.8689C73.6036 37.1601 64.4679 39.6132 60.1737 40.598Z" fill="#060606"/>
<path d="M21.7169 46.7275C21.2251 46.7403 20.6874 46.6048 21.1262 46.1197C23.7489 43.2195 27.9984 38.6192 28.9417 37.598C29.0818 37.4464 29.2559 37.3371 29.4409 37.2849L31.9671 36.5705C32.4483 36.4616 32.4423 36.8355 32.352 37.1877C31.7957 39.3599 30.4257 43.6689 29.5179 45.167C27.2327 46.3512 23.3914 46.6833 21.7169 46.7275Z" fill="#666666"/>
<path opacity="0.2" d="M21.7169 46.7275C21.2251 46.7403 20.6874 46.6048 21.1262 46.1197C23.7489 43.2195 27.9984 38.6192 28.9417 37.598C29.0818 37.4464 29.2559 37.3371 29.4409 37.2849L31.9671 36.5705C32.4483 36.4616 32.4423 36.8355 32.352 37.1877C31.7957 39.3599 30.4257 43.6689 29.5179 45.167C27.2327 46.3512 23.3914 46.6833 21.7169 46.7275Z" fill="#060606"/>
<path d="M63.8023 27.6725C64.5152 27.5086 65.2189 27.3558 65.894 27.2185L65.8505 26.98C65.1737 27.1177 64.468 27.2707 63.7534 27.4352L63.8023 27.6725Z" fill="#666666"/>
<path d="M67.5725 26.898C70.3884 26.3962 72.9169 26.1416 75.088 26.1416C76.1684 26.1416 77.1885 26.2021 78.1196 26.3214L78.1475 26.0801C77.2069 25.9597 76.1776 25.8984 75.088 25.8984C72.9042 25.8984 70.3626 26.154 67.5342 26.6583L67.5725 26.898Z" fill="#666666"/>
<path d="M83.2924 28.688C72.4122 21.6342 42.9844 35.8183 27.1362 39.5184C19.7773 41.2365 24.2818 47.5492 27.8082 48.3736C31.3346 49.1981 74.5389 52.2518 88.7464 45.4581C102.954 38.6643 88.3903 31.9931 83.2924 28.688Z" fill="#666666"/>
<path d="M28.7153 48.5244C24.602 48.2037 21.5467 45.2987 20.3444 41.7599C19.1424 38.2211 18.2908 35.6858 18.2908 35.6858C20.2021 34.5296 22.5322 34.446 24.5135 35.4628L32.666 39.6471L28.7153 48.5244Z" fill="#666666"/>
<path opacity="0.2" d="M29.1096 43.5566C28.5641 44.9923 26.9887 46.6987 25.8256 47.823C24.5588 47.2859 23.4522 46.4777 22.5505 45.4915L29.1096 43.5566Z" fill="#060606"/>
<path opacity="0.2" d="M24.4395 44.6931C25.8977 44.85 27.3697 44.876 28.8392 44.8547C30.3089 44.8287 31.7783 44.7026 33.2435 44.5432C34.7085 44.3744 36.1667 44.1415 37.6206 43.8779C43.4358 42.7775 49.1248 40.9996 54.7327 38.9698C56.137 38.4636 57.5367 37.9408 58.9477 37.4154C59.66 37.1564 60.3563 36.8926 61.1115 36.6502C61.5058 36.5431 61.8958 36.4126 62.2971 36.3293L62.9034 36.213C63.1041 36.1748 63.3068 36.1321 63.5121 36.1202C65.1483 35.9181 66.832 36.0582 68.4277 36.5076C69.219 36.7525 70.0011 37.0376 70.7403 37.4132C71.4796 37.7839 72.1942 38.2119 72.868 38.6943L73.3683 39.0675L73.8553 39.4619L74.3151 39.8637C74.4503 39.9825 74.5855 40.1013 74.7254 40.2179C75.2752 40.6838 75.85 41.133 76.436 41.568C77.6125 42.4333 78.8387 43.2366 80.0919 43.959C81.345 44.6793 82.6344 45.3257 83.9214 45.8059C84.5639 46.0435 85.2084 46.2432 85.8148 46.3525C85.9951 46.3858 86.1732 46.412 86.3423 46.4261C84.6201 47.0156 82.6367 47.51 80.4616 47.9212C79.8101 47.5719 79.1769 47.1964 78.5524 46.8089C77.2158 45.9745 75.9355 45.0667 74.7003 44.0851C74.0804 43.593 73.474 43.0821 72.8813 42.5426C72.7325 42.4095 72.586 42.2693 72.4395 42.1313L72.0495 41.7653L71.6618 41.4279L71.2584 41.1045C70.7152 40.6838 70.1382 40.3131 69.5455 39.9852C68.9504 39.6548 68.3262 39.4029 67.695 39.1794C66.4238 38.773 65.0896 38.6091 63.7595 38.7206C63.5927 38.723 63.4282 38.7538 63.2614 38.7801L62.7634 38.8537C62.4321 38.9105 62.1052 39.0106 61.7763 39.0842C61.0979 39.272 60.3833 39.512 59.6779 39.7401C58.2603 40.2082 56.8311 40.6836 55.3999 41.1424C49.668 42.9796 43.8281 44.5721 37.8617 45.4729C36.3697 45.6866 34.873 45.8698 33.3695 45.9886C31.8638 46.093 30.3559 46.1669 28.8435 46.1382C27.331 46.1049 25.8187 46.0219 24.3176 45.8008C23.727 45.7153 23.1366 45.613 22.5505 45.4918C22.1877 45.1019 21.8608 44.6836 21.5657 44.2415C22.5146 44.4412 23.4747 44.5884 24.4395 44.6931Z" fill="#FAFAFA"/>
<path opacity="0.2" d="M50.2474 48.5244C50.2474 48.5244 61.0525 48.4646 71.3186 47.4308C71.5542 47.407 72.211 46.1768 72.9136 45.87C72.9903 46.7246 72.8461 47.2697 73.2543 47.2231C79.1939 46.5441 86.3819 44.9924 89.1909 43.4239C90.6185 38.0365 93.7685 36.416 93.7685 36.416C95.7353 39.1886 95.3292 42.3101 88.7463 45.4578C74.539 52.2514 31.3344 49.198 27.8081 48.3735L50.2474 48.5244Z" fill="#060606"/>
<path d="M71.3174 43.9437C72.8427 43.9152 73.5347 45.9375 72.3465 46.9463C65.2442 52.9757 51.977 62.5859 48.6897 64.9527C48.2016 65.3042 47.6234 65.5568 47.0327 65.6775L38.9629 67.3267C37.9963 67.5242 37.6146 66.9523 38.021 66.1357C40.5278 61.0969 46.3002 50.8592 49.6505 47.3858C57.1454 44.6452 66.1237 44.0403 71.3174 43.9437Z" fill="#666666"/>
<path opacity="0.2" d="M49.7035 62.9297L71.4127 45.1412C72.1202 44.5614 73.1559 45.2918 72.8629 46.1848C72.771 46.4651 72.6023 46.7292 72.3466 46.9461C65.2443 52.9755 51.9771 62.5857 48.6896 64.9524C48.2015 65.3039 47.6235 65.5565 47.0326 65.6773L38.9628 67.3262C38.4795 67.425 38.1425 67.3315 37.9771 67.111L45.2208 65.2218C46.8509 64.7967 48.378 64.0157 49.7035 62.9297Z" fill="#060606"/>
<path d="M29.7472 42.2692C30.2761 42.3418 30.4173 43.0788 29.9573 43.3635C27.2074 45.0651 22.151 47.6721 20.899 48.3131C20.7131 48.4084 20.5007 48.4645 20.2906 48.4742L17.4191 48.6083C17.0752 48.6243 16.9708 48.4059 17.1512 48.1453C18.2634 46.5379 20.7578 43.3088 22.0856 42.2884C24.811 41.7457 27.946 42.0219 29.7472 42.2692Z" fill="#666666"/>
<path opacity="0.2" d="M21.3477 47.6679L29.7218 42.6884C29.9948 42.5261 30.3175 42.8349 30.1726 43.1278C30.1272 43.2199 30.056 43.302 29.957 43.3632C27.2072 45.0648 22.1507 47.6718 20.8987 48.3126C20.7128 48.4078 20.5006 48.4639 20.2903 48.4736L17.4189 48.6077C17.247 48.6157 17.1348 48.5652 17.0883 48.48L19.6858 48.2181C20.2703 48.1596 20.8365 47.972 21.3477 47.6679Z" fill="#060606"/>
<path d="M82.7408 28.3599C82.9301 28.4619 83.1149 28.5712 83.2929 28.6878C83.9737 29.1299 84.8235 29.6313 85.7498 30.1851C85.3194 31.4923 83.9601 33.0182 82.2335 34.3778L79.0442 31.7991C80.6424 30.7344 82.0015 29.5125 82.7408 28.3599Z" fill="#FAFAFA"/>
<path d="M77.9062 32.5073L80.7505 35.4498C80.0216 35.9312 79.2605 36.3721 78.5005 36.7508C77.4923 37.2532 76.2916 36.7438 75.8876 35.6477C75.5234 34.6598 75.9431 33.5465 76.8477 33.0847C77.2045 32.9028 77.5584 32.7094 77.9062 32.5073Z" fill="#FAFAFA"/>
<path d="M15.8643 41.4261C10.4448 42.6346 -3.53536 45.0636 3.61437 36.0293C-4.65538 44.9214 4.13223 46.2662 11.6692 46.7275C13.0919 46.8145 14.4752 46.2106 15.4216 45.0871C16.0587 44.3307 16.5464 43.6124 16.9129 42.9925C17.373 42.2146 16.715 41.2364 15.8643 41.4261Z" fill="#666666"/>
<path opacity="0.2" d="M15.8643 41.4261C10.4448 42.6346 -3.53536 45.0636 3.61437 36.0293C-4.65538 44.9214 4.13223 46.2662 11.6692 46.7275C13.0919 46.8145 14.4752 46.2106 15.4216 45.0871C16.0587 44.3307 16.5464 43.6124 16.9129 42.9925C17.373 42.2146 16.715 41.2364 15.8643 41.4261Z" fill="#FAFAFA"/>
</g>
<defs>
<clipPath id="clip0_105_19">
<rect width="95" height="80" fill="white" transform="matrix(-1 0 0 1 95 0.200195)"/>
</clipPath>
</defs>
</svg>
