<svg width="61" height="60" viewBox="0 0 61 60" fill="none" xmlns="http://www.w3.org/2000/svg">
<path d="M17.375 9.375C17.375 8.87772 17.5726 8.40081 17.9242 8.04918C18.2758 7.69754 18.7527 7.5 19.25 7.5H41.75C42.2473 7.5 42.7242 7.69754 43.0758 8.04918C43.4275 8.40081 43.625 8.87772 43.625 9.375C43.625 9.87228 43.4275 10.3492 43.0758 10.7008C42.7242 11.0525 42.2473 11.25 41.75 11.25H19.25C18.7527 11.25 18.2758 11.0525 17.9242 10.7008C17.5726 10.3492 17.375 9.87228 17.375 9.375ZM54.732 31.1578C54.5902 30.8152 54.3499 30.5223 54.0416 30.3162C53.7333 30.1101 53.3709 30.0001 53 30H43.625V24.375C43.625 23.8777 43.4275 23.4008 43.0758 23.0492C42.7242 22.6975 42.2473 22.5 41.75 22.5H19.25C18.7527 22.5 18.2758 22.6975 17.9242 23.0492C17.5726 23.4008 17.375 23.8777 17.375 24.375V30H8.00001C7.62896 29.9997 7.26616 30.1095 6.95755 30.3155C6.64893 30.5215 6.40838 30.8145 6.26634 31.1573C6.12431 31.5001 6.08717 31.8773 6.15964 32.2412C6.23211 32.6051 6.41093 32.9393 6.67345 33.2016L29.1735 55.7016C29.3476 55.8759 29.5544 56.0142 29.782 56.1086C30.0096 56.2029 30.2536 56.2515 30.5 56.2515C30.7464 56.2515 30.9904 56.2029 31.218 56.1086C31.4456 56.0142 31.6524 55.8759 31.8266 55.7016L54.3266 33.2016C54.5887 32.9392 54.7672 32.605 54.8393 32.2412C54.9115 31.8774 54.8742 31.5004 54.732 31.1578ZM19.25 18.75H41.75C42.2473 18.75 42.7242 18.5525 43.0758 18.2008C43.4275 17.8492 43.625 17.3723 43.625 16.875C43.625 16.3777 43.4275 15.9008 43.0758 15.5492C42.7242 15.1975 42.2473 15 41.75 15H19.25C18.7527 15 18.2758 15.1975 17.9242 15.5492C17.5726 15.9008 17.375 16.3777 17.375 16.875C17.375 17.3723 17.5726 17.8492 17.9242 18.2008C18.2758 18.5525 18.7527 18.75 19.25 18.75Z" fill="#242424"/>
</svg>
