<svg width="60" height="60" viewBox="0 0 60 60" fill="none" xmlns="http://www.w3.org/2000/svg">
<path d="M32.0625 30.0002C32.0625 25.1665 35.8837 21.2515 40.5937 21.2515C45.3075 21.2515 49.125 25.1627 49.125 30.0002C49.125 34.834 45.3075 38.749 40.5937 38.749C35.8875 38.749 32.0625 34.8377 32.0625 30.0002Z" fill="#1ABCFE"/>
<path d="M15 47.501C15 42.6673 18.8213 38.7485 23.5313 38.7485H32.0625V47.501C32.0625 52.331 28.2413 56.2498 23.5313 56.2498C18.8213 56.2498 15 52.331 15 47.501Z" fill="#0ACF83"/>
<path d="M32.0625 3.75V21.2512H40.5937C45.3075 21.2512 49.125 17.3325 49.125 12.4987C49.125 7.66875 45.3075 3.75 40.5937 3.75H32.0625Z" fill="#FF7262"/>
<path d="M15 12.4987C15 17.3325 18.8213 21.2512 23.5313 21.2512H32.0625V3.75H23.5313C18.8213 3.75 15 7.66875 15 12.4987Z" fill="#F24E1E"/>
<path d="M15 30.0002C15 34.834 18.8213 38.749 23.5313 38.749H32.0625V21.2515H23.5313C18.8213 21.2515 15 25.1627 15 30.0002Z" fill="#A259FF"/>
</svg>
