<svg width="60" height="60" viewBox="0 0 60 60" fill="none" xmlns="http://www.w3.org/2000/svg">
<g clip-path="url(#clip0_77_15)">
<path d="M3.6102 2.58803L36.81 0.135827C40.8882 -0.213973 41.9358 0.0218273 44.5002 1.88603L55.098 9.35183C56.8458 10.6358 57.4278 10.9856 57.4278 12.3836V53.3294C57.4278 55.8956 56.496 57.4136 53.2338 57.6452L14.6802 59.9804C12.2322 60.0962 11.0664 59.7464 9.7842 58.1126L1.98 47.9642C0.5802 46.0964 0 44.6984 0 43.064V6.66803C0 4.56983 0.9318 2.82023 3.6102 2.58803Z" fill="#FAFAFA"/>
<path fill-rule="evenodd" clip-rule="evenodd" d="M36.81 0.136427L3.6102 2.58863C0.9318 2.82023 0 4.57043 0 6.66803V43.064C0 44.6978 0.5802 46.0958 1.98 47.9642L9.7842 58.112C11.0664 59.7458 12.2322 60.0962 14.6802 59.9798L53.2344 57.6458C56.4942 57.4136 57.4284 55.8956 57.4284 53.33V12.3842C57.4284 11.0582 56.9046 10.676 55.3626 9.54443L44.5002 1.88603C41.9364 0.0218273 40.8882 -0.213973 36.81 0.135827V0.136427ZM15.552 11.714C12.4038 11.9258 11.6898 11.9738 9.9018 10.52L5.3562 6.90443C4.8942 6.43643 5.1264 5.85263 6.2904 5.73623L38.2062 3.40403C40.8864 3.17003 42.282 4.10423 43.3302 4.92023L48.804 8.88623C49.038 9.00443 49.62 9.70223 48.9198 9.70223L15.96 11.6864L15.552 11.714ZM11.8818 52.9802V18.2204C11.8818 16.7024 12.348 16.0022 13.7436 15.8846L51.6 13.6682C52.884 13.5524 53.4642 14.3684 53.4642 15.884V50.4122C53.4642 51.9302 53.2302 53.2142 51.1344 53.33L14.9082 55.43C12.8124 55.5458 11.8824 54.848 11.8824 52.9802H11.8818ZM47.6418 20.084C47.874 21.134 47.6418 22.184 46.5918 22.304L44.8458 22.6502V48.314C43.3296 49.13 41.934 49.5962 40.7676 49.5962C38.9034 49.5962 38.4378 49.0124 37.0416 47.264L25.6236 29.3V46.6802L29.2356 47.498C29.2356 47.498 29.2356 49.598 26.3214 49.598L18.2874 50.0642C18.0534 49.5962 18.2874 48.4304 19.1016 48.1982L21.1998 47.6162V24.6362L18.288 24.4004C18.054 23.3504 18.636 21.8342 20.268 21.7166L28.8882 21.1364L40.7682 39.3326V23.2346L37.74 22.8866C37.506 21.6008 38.4378 20.6666 39.6018 20.5526L47.6418 20.084Z" fill="#060606"/>
</g>
<defs>
<clipPath id="clip0_77_15">
<rect width="60" height="60" fill="white"/>
</clipPath>
</defs>
</svg>
