<svg width="60" height="60" viewBox="0 0 60 60" fill="none" xmlns="http://www.w3.org/2000/svg">
<g clip-path="url(#clip0_75_55)">
<path d="M26.4382 59.9618C20.8219 59.557 15.2709 58.1433 11.8665 56.2508C9.92738 55.1728 8.45003 53.848 7.87031 52.6673L7.52539 51.9648V29.9293V7.89381L7.79832 7.33963C9.01801 4.86334 12.9106 2.63095 18.3444 1.2915C20.1889 0.836782 22.8518 0.383958 25.0242 0.155615C27.2424 -0.0776139 33.1221 -0.0421299 35.3349 0.218184C41.2159 0.909127 46.2204 2.45598 49.3044 4.53618C50.4937 5.33838 51.7141 6.62198 52.1275 7.50552L52.482 8.26305L52.4517 30.2319L52.4213 52.2008L52.1368 52.7789C51.9803 53.0968 51.5076 53.7224 51.0863 54.1688C48.5219 56.8873 43.0213 58.8982 35.8063 59.755C34.3357 59.9297 27.947 60.0706 26.4382 59.9618ZM36.7882 41.0804C36.7666 41.0241 35.927 40.2761 34.9225 39.4182C33.9179 38.5603 33.0527 37.818 32.9998 37.7687C32.9469 37.7194 33.1325 37.545 33.4123 37.381C33.692 37.217 34.2279 36.7608 34.6032 36.3673C35.7008 35.2164 36.2186 33.7947 36.2186 31.9325C36.2186 30.0993 35.6602 28.6201 34.5415 27.491C33.4141 26.3529 32.1196 25.8639 30.2344 25.8639C27.3287 25.8639 25.097 27.5594 24.3848 30.3083C24.1397 31.2538 24.141 33.1643 24.3873 34.0027C25.0297 36.1896 26.7791 37.7779 28.9564 38.1508C29.6932 38.277 29.793 38.3314 30.2953 38.8806C30.5939 39.207 31.2065 39.8585 31.6567 40.3284L32.4753 41.1827H34.6514C35.8483 41.1827 36.8098 41.1367 36.7882 41.0804ZM29.3255 34.9874C28.8016 34.7142 28.6035 34.5023 28.3048 33.8949C28.074 33.4259 28.0346 33.1591 28.032 32.0504C28.0294 30.9238 28.0653 30.6804 28.3062 30.1912C28.7003 29.3908 29.2435 29.0118 30.0838 28.951C31.2534 28.8662 31.9285 29.4402 32.2824 30.8197C32.7162 32.511 32.2391 34.3092 31.1983 34.9059C30.6522 35.219 29.8377 35.2545 29.3255 34.9874ZM19.6799 38.1268C21.9615 37.6941 23.2566 36.3673 23.2566 34.4626C23.2566 32.7729 22.4205 31.7883 20.1095 30.7566C18.7866 30.166 18.3074 29.7954 18.3074 29.3622C18.3074 29.0033 18.7622 28.6099 19.2915 28.5111C19.8084 28.4146 21.1793 28.6527 21.9888 28.9797L22.6674 29.2538V27.7518V26.2496L21.9309 26.0862C21.4758 25.9853 20.5193 25.9247 19.4269 25.9278C17.8795 25.9278 17.5765 25.9655 16.9942 26.1967C15.2932 26.872 14.4861 28.0223 14.499 29.7526C14.5111 31.3724 15.3656 32.3828 17.4923 33.2918C18.7472 33.8281 19.2502 34.2365 19.2502 34.7191C19.2502 35.7447 17.5413 35.8709 15.7321 34.979C15.2367 34.7347 14.7915 34.5149 14.7429 34.4906C14.6943 34.4663 14.6545 35.1679 14.6545 36.0499C14.6545 37.6462 14.6562 37.6539 14.9452 37.764C16.0336 38.1778 18.4392 38.3621 19.6799 38.1268ZM45.7635 36.646V35.2909H43.7013H41.6391V30.6363V25.9818H39.8127H37.9862V31.9914V38.0011H41.8748H45.7635V36.646ZM33.0371 12.8988C36.6666 12.6471 39.3873 12.1718 41.7814 11.3713C44.1666 10.5738 45.5755 9.60885 45.8907 8.55696C46.0121 8.15162 46.0034 7.99787 45.8337 7.55344C45.0728 5.56101 40.8221 4.03021 34.3266 3.40956C31.5482 3.14401 26.4952 3.2301 23.8459 3.58795C19.8036 4.13412 16.5231 5.14862 15.0644 6.30362C12.1137 8.64019 15.2341 11.2101 22.4907 12.4197C25.6371 12.9442 29.7136 13.1294 33.0371 12.8988Z" fill="#00BCF2"/>
</g>
<defs>
<clipPath id="clip0_75_55">
<rect width="60" height="60" fill="white"/>
</clipPath>
</defs>
</svg>
