<svg width="60" height="60" fill="none" xmlns="http://www.w3.org/2000/svg"><path fill-rule="evenodd" clip-rule="evenodd" d="M19.322 27.997a1.493 1.493 0 0 0-2.54.276L3.912 54.022a1.54 1.54 0 0 0 1.376 2.228h17.92a1.483 1.483 0 0 0 1.376-.851c3.866-7.994 1.523-20.148-5.262-27.402Z" fill="url('#paint0_linear_75_61')"/><path fill-rule="evenodd" clip-rule="evenodd" d="M28.762 4.576a33.984 33.984 0 0 0-1.982 33.531l8.64 17.291c.26.522.793.851 1.375.851h17.917a1.538 1.538 0 0 0 1.376-2.227S31.983 5.773 31.378 4.566a1.453 1.453 0 0 0-2.616.01Z" fill="#2684FF"/><defs><linearGradient id="paint0_linear_75_61" x1="26.375" y1="31.971" x2="8.324" y2="51.347" gradientUnits="userSpaceOnUse"><stop stop-color="#0052CC"/><stop offset=".923" stop-color="#2684FF"/></linearGradient></defs></svg>