<svg width="40" height="40" fill="none" xmlns="http://www.w3.org/2000/svg"><path fill-rule="evenodd" clip-rule="evenodd" d="M12.881 18.664a.996.996 0 0 0-1.693.184l-8.58 17.166a1.027 1.027 0 0 0 .917 1.486h11.947c.391.009.75-.214.917-.568 2.577-5.329 1.015-13.431-3.508-18.268Z" fill="url('#paint0_linear_80_7612')"/><path fill-rule="evenodd" clip-rule="evenodd" d="M19.174 3.05a22.656 22.656 0 0 0-1.32 22.355l5.759 11.527c.174.348.529.567.917.567h11.945a1.025 1.025 0 0 0 .917-1.485S21.322 3.85 20.918 3.044a.969.969 0 0 0-1.744.007Z" fill="#2684FF"/><defs><linearGradient id="paint0_linear_80_7612" x1="17.583" y1="21.314" x2="5.549" y2="34.231" gradientUnits="userSpaceOnUse"><stop stop-color="#0052CC"/><stop offset=".923" stop-color="#2684FF"/></linearGradient></defs></svg>