<svg width="390" height="32" fill="none" xmlns="http://www.w3.org/2000/svg"><g clip-path="url('#clip0_158_163')"><path d="M390 2.757v-.123c-32.5-.368-65-.471-97.5-.599-32.499-.095-65 .028-97.5.08L0 2.459v.123l195 .52c32.499.08 64.999.233 97.5.167 32.499-.098 65-.172 97.5-.512Z" fill="url('#paint0_linear_158_163')"/><path d="M375 12.043v-.124c-30-.368-60-.471-90-.599-30-.095-60 .028-90 .08l-180 .344v.124l180 .52c30 .08 59.999.232 90 .166 30-.098 60-.173 90-.511Z" fill="url('#paint1_linear_158_163')"/><path d="M365 21.328v-.123c-28.333-.368-56.666-.472-85-.599-28.333-.095-56.666.028-85 .08L25 21.03v.123l170 .52c28.333.08 56.666.233 85 .167 28.333-.098 56.666-.173 85-.512Z" fill="url('#paint2_linear_158_163')"/><path d="M390 30.613v-.123c-32.5-.368-65-.471-97.5-.599-32.499-.095-65 .028-97.5.08L0 30.315v.123l195 .52c32.499.08 64.999.233 97.5.167 32.499-.098 65-.172 97.5-.512Z" fill="url('#paint3_linear_158_163')"/><path opacity=".5" d="M390 0H0v32h390V0Z" fill="#242424"/></g><defs><linearGradient id="paint0_linear_158_163" x1="195" y1="2" x2="195" y2="3.285" gradientUnits="userSpaceOnUse"><stop stop-color="#4A90E2"/><stop offset="1" stop-color="#974A8A" stop-opacity=".9"/></linearGradient><linearGradient id="paint1_linear_158_163" x1="195" y1="11.285" x2="195" y2="12.57" gradientUnits="userSpaceOnUse"><stop stop-color="#4A90E2"/><stop offset="1" stop-color="#974A8A" stop-opacity=".9"/></linearGradient><linearGradient id="paint2_linear_158_163" x1="195" y1="20.571" x2="195" y2="21.856" gradientUnits="userSpaceOnUse"><stop stop-color="#4A90E2"/><stop offset="1" stop-color="#974A8A" stop-opacity=".9"/></linearGradient><linearGradient id="paint3_linear_158_163" x1="195" y1="29.856" x2="195" y2="31.141" gradientUnits="userSpaceOnUse"><stop stop-color="#4A90E2"/><stop offset="1" stop-color="#974A8A" stop-opacity=".9"/></linearGradient><clipPath id="clip0_158_163"><path fill="#fff" d="M0 0h390v32H0z"/></clipPath></defs></svg>