<svg width="60" height="60" viewBox="0 0 60 60" fill="none" xmlns="http://www.w3.org/2000/svg">
<path d="M16.2 22.0665L6.67974 30.0001L16.2 37.9337C16.3947 38.0895 16.5563 38.2825 16.6754 38.5016C16.7945 38.7206 16.8688 38.9612 16.8938 39.2092C16.9188 39.4573 16.8941 39.7078 16.8212 39.9462C16.7482 40.1846 16.6284 40.4061 16.4688 40.5976C16.3092 40.7892 16.113 40.947 15.8917 41.0618C15.6704 41.1766 15.4284 41.2461 15.1799 41.2663C14.9314 41.2864 14.6813 41.2568 14.4444 41.1792C14.2075 41.1016 13.9884 40.9774 13.8 40.8141L2.55005 31.4391C2.33895 31.2632 2.16912 31.0429 2.05257 30.7941C1.93602 30.5452 1.87561 30.2737 1.87561 29.9989C1.87561 29.7241 1.93602 29.4526 2.05257 29.2037C2.16912 28.9548 2.33895 28.7346 2.55005 28.5587L13.8 19.1837C14.1823 18.8654 14.6754 18.712 15.1707 18.7573C15.6661 18.8026 16.1232 19.0428 16.4415 19.4251C16.7597 19.8073 16.9131 20.3004 16.8678 20.7958C16.8225 21.2911 16.5823 21.7482 16.2 22.0665ZM57.45 28.5587L46.2 19.1837C46.0108 19.0261 45.7923 18.9073 45.5571 18.8342C45.3219 18.761 45.0746 18.7349 44.8293 18.7573C44.5841 18.7797 44.3456 18.8502 44.1276 18.9648C43.9096 19.0794 43.7162 19.2358 43.5586 19.4251C43.2404 19.8073 43.087 20.3004 43.1323 20.7958C43.1776 21.2911 43.4178 21.7482 43.8 22.0665L53.3204 30.0001L43.8 37.9337C43.6054 38.0895 43.4438 38.2825 43.3247 38.5016C43.2056 38.7206 43.1313 38.9612 43.1063 39.2092C43.0813 39.4573 43.106 39.7078 43.1789 39.9462C43.2519 40.1846 43.3717 40.4061 43.5313 40.5976C43.6909 40.7892 43.8871 40.947 44.1084 41.0618C44.3297 41.1766 44.5717 41.2461 44.8202 41.2663C45.0687 41.2864 45.3188 41.2568 45.5557 41.1792C45.7926 41.1016 46.0117 40.9774 46.2 40.8141L57.45 31.4391C57.6611 31.2632 57.831 31.0429 57.9475 30.7941C58.0641 30.5452 58.1245 30.2737 58.1245 29.9989C58.1245 29.7241 58.0641 29.4526 57.9475 29.2037C57.831 28.9548 57.6611 28.7346 57.45 28.5587ZM38.1399 7.61256C37.9084 7.52853 37.6627 7.49091 37.4167 7.50185C37.1707 7.51279 36.9293 7.57208 36.7062 7.67633C36.4831 7.78058 36.2828 7.92775 36.1166 8.10943C35.9504 8.29112 35.8216 8.50376 35.7375 8.73522L20.7375 49.9852C20.6532 50.2168 20.6153 50.4628 20.626 50.709C20.6368 50.9553 20.696 51.197 20.8003 51.4203C20.9045 51.6437 21.0518 51.8443 21.2337 52.0107C21.4156 52.177 21.6285 52.3059 21.8602 52.3899C22.0656 52.4629 22.282 52.5002 22.5 52.5001C22.8851 52.5001 23.2608 52.3815 23.5762 52.1605C23.8915 51.9396 24.1311 51.6268 24.2625 51.2649L39.2626 10.0149C39.3466 9.78345 39.3842 9.53771 39.3733 9.29172C39.3623 9.04573 39.303 8.8043 39.1988 8.58122C39.0945 8.35814 38.9474 8.15777 38.7657 7.99157C38.584 7.82537 38.3713 7.69658 38.1399 7.61256Z" fill="#CBCBCB"></path>
</svg>
