<svg width="100" height="100" fill="none" xmlns="http://www.w3.org/2000/svg"><path d="M95 79.833V68.577H5v11.256h28.125v9.375h-7.5v3.75h48.75v-3.75h-7.5v-9.375H95ZM5 8v54.37h90V8H5Zm43.125 5.62H57.5v3.75h-9.375v-3.75Zm-1.875 9.374h7.5v3.75h-7.5v-3.75ZM40.625 36.12v-3.75h22.5v3.75h-22.5Zm18.75 5.626v3.75h-3.75v-3.75h3.75Zm-18.75-28.126h3.75v3.75h-3.75v-3.75Zm-7.5 0h3.75v3.75h-3.75v-3.75Zm-18.75 9.375H42.5v3.75H14.375v-3.75Zm7.888 29.612-2.651 2.651-7.888-7.888 7.888-7.888 2.651 2.651-5.237 5.237 5.237 5.237Zm4.166 4.834-3.483-1.391 7.5-18.75 3.483 1.391-7.5 18.75Zm10.834-2.182-2.651-2.652 5.237-5.236-5.237-5.237 2.651-2.652 7.889 7.889-7.889 7.888Zm10.862-13.514h3.75v3.75h-3.75v-3.75Zm37.5 13.126H50v-3.75h35.625v3.75Zm0-9.375h-22.5v-3.75h22.5v3.75Zm0-9.376h-18.75v-3.75h18.75v3.75Zm0-9.375H57.5v-3.75h28.125v3.75Zm0-9.375H61.25v-3.75h24.375v3.75Z" fill="#FAFAFA"/></svg>