<svg width="100" height="100" fill="none" xmlns="http://www.w3.org/2000/svg"><path d="M73.268 34.842c0-19.237-15.6-34.84-34.843-34.84-19.243 0-34.84 15.603-34.84 34.84 0 4.018.472 6.634 1.801 10.656 2.59 7.466 16.162-6.583 22 1.702 5.84 8.29-13.17 15.564-.423 20.54 5.803 1.405 7.444 1.938 11.462 1.938 19.243.003 34.843-15.59 34.843-34.836Zm-3.55-2.052c0 3.38-3.222 6.125-7.196 6.125-3.97 0-7.194-2.741-7.194-6.125 0-3.383 3.22-6.127 7.194-6.127 3.974.003 7.196 2.747 7.196 6.127Zm-14.39-21.175c3.971 0 7.194 2.744 7.194 6.128 0 3.383-3.217 6.127-7.194 6.127s-7.193-2.744-7.193-6.127c0-3.384 3.22-6.128 7.193-6.128Zm-40.63 25.422c-3.974 0-7.193-2.741-7.193-6.124 0-3.384 3.22-6.128 7.193-6.128 3.974 0 7.193 2.744 7.193 6.128 0 3.383-3.22 6.124-7.193 6.124Zm8.426-14.104c-3.974 0-7.193-2.741-7.193-6.125 0-3.383 3.22-6.127 7.193-6.127 3.974 0 7.196 2.744 7.196 6.127 0 3.384-3.222 6.125-7.196 6.125Zm8.77-13.112c0-3.384 3.222-6.128 7.196-6.128 3.973 0 7.196 2.744 7.196 6.128 0 3.383-3.22 6.124-7.196 6.124-3.974 0-7.197-2.741-7.197-6.124Zm12.338 54.933c-3.977 0-7.197-2.741-7.197-6.127 0-3.384 3.22-6.125 7.197-6.125 3.97 0 7.193 2.741 7.193 6.125 0 3.383-3.222 6.127-7.193 6.127Zm7.193-16.61c0-3.384 3.22-6.128 7.194-6.128 3.973 0 7.196 2.744 7.196 6.127 0 3.383-3.223 6.128-7.197 6.128-3.973 0-7.193-2.745-7.193-6.128ZM95.468 54.637c1.203-1.166 1.27-3.092.131-4.375-1.146-1.281-3.075-1.429-4.362-.363l-.006-.01-29.772 26.607c-4.17-3.534-8.092-2.706-12.598 1.326-3.762 3.36-4.472 8.958-6.597 13.96-.706 1.47-2.121 3.883-3.174 5.17-.758.925-.819 1.608-.389 2.09 1.092 1.223 5.37 1.152 9.684.462v-.003c5.525-.883 11.806-2.963 14.426-5.749 4.522-4.818 5.129-8.4 2.767-12.374L95.48 54.653l-.013-.016ZM47.426 97.138c-.09.37-.18.729-.26 1.063-4.147.58-6.42.298-7.158-.013.048-.077.118-.177.218-.302.848-1.036 1.9-2.731 2.693-4.179 1.506.613 3.342.88 5.133.751-.183.86-.414 1.827-.626 2.68Z" fill="#FAFAFA"/></svg>