<svg width="142" height="60" fill="none" xmlns="http://www.w3.org/2000/svg"><g clip-path="url('#clip0_103_2786')"><path d="M20.084 29.944c0-5.426 4.467-9.813 10.053-9.813 5.624 0 10.092 4.39 10.092 9.813 0 5.385-4.468 9.854-10.092 9.854-5.586 0-10.053-4.474-10.053-9.854Zm15.319 0c0-2.712-2.354-5.106-5.266-5.106-2.872 0-5.226 2.394-5.226 5.106 0 2.752 2.354 5.146 5.226 5.146 2.917 0 5.266-2.394 5.266-5.146Zm86.052.16c0-5.944 4.827-9.973 9.216-9.973 2.991 0 4.707.917 5.863 2.673l.46-2.317h4.487v18.95h-4.487l-.579-1.95c-1.316 1.436-2.953 2.317-5.744 2.317-4.309-.006-9.216-3.797-9.216-9.7Zm15.318-.04c-.011-2.87-2.374-5.224-5.244-5.224-2.876 0-5.244 2.367-5.244 5.244v.02c0 2.633 2.354 4.986 5.227 4.986 2.909 0 5.261-2.353 5.261-5.027Zm-20.831-7.381v-2.195h-4.907v18.95h4.907V29.227c0-3.072 1.517-4.667 4.146-4.667.174 0 .34.012.502.028l.91-4.575c-2.557.014-4.411.89-5.558 2.67Zm-49.302.001V20.49l-4.906.011.042 18.948 4.906-.011-.027-10.21c-.007-3.07 1.506-4.67 4.138-4.676.168 0 .335.01.502.028L72.2 20c-2.56.02-4.417.901-5.56 2.684Zm-24.71 9.414V20.489h4.904V31.5c0 2.433 1.356 3.87 3.71 3.87 2.633 0 4.146-1.597 4.146-4.669V20.49h4.908v18.949h-4.904v-2.195c-1.156 1.795-3.032 2.673-5.624 2.673-4.388.001-7.14-3.19-7.14-7.818Zm47.773-2.132c.01-5.306 3.808-9.847 9.831-9.835 5.586.01 9.526 4.485 9.512 9.756a9.656 9.656 0 0 1-.122 1.556l-14.44-.027c.554 2.274 2.426 3.913 5.259 3.92 1.714 0 3.551-.632 4.671-2.066l3.346 2.682c-1.721 2.43-4.756 3.861-7.986 3.855-5.7-.02-10.081-4.296-10.072-9.841Zm14.404-1.968c-.275-1.915-2.267-3.396-4.62-3.4-2.275 0-4.111 1.35-4.833 3.383l9.453.017Zm-31.878 7.31 4.361-2.284c.721 1.563 2.162 2.483 4.205 2.483 1.882 0 2.603-.6 2.603-1.441 0-3.049-10.33-1.201-10.33-8.17 0-3.845 3.363-5.886 7.526-5.886 3.163 0 5.966 1.401 7.488 4.003L83.76 26.3c-.64-1.282-1.842-2.002-3.364-2.002-1.48 0-2.202.52-2.202 1.4 0 2.964 10.33 1.082 10.33 8.172 0 3.684-3.002 5.925-7.847 5.925-4.125-.004-7.007-1.364-8.448-4.488ZM.603 29.943c0-5.465 4.467-9.854 10.052-9.854a10.131 10.131 0 0 1 8.496 4.512l-4.188 2.43a5.24 5.24 0 0 0-4.308-2.234c-2.872 0-5.226 2.394-5.226 5.146s2.354 5.146 5.226 5.146a5.183 5.183 0 0 0 4.428-2.439l4.146 2.473a10.124 10.124 0 0 1-8.576 4.669c-5.583.005-10.05-4.469-10.05-9.85Z" fill="#CBCBCB"/></g><defs><clipPath id="clip0_103_2786"><path fill="#fff" transform="translate(.603 20)" d="M0 0h140.854v20H0z"/></clipPath></defs></svg>