<svg width="60" height="60" viewBox="0 0 60 60" fill="none" xmlns="http://www.w3.org/2000/svg">
<g clip-path="url('#clip0_75_76')">
<path d="M30 60C46.5685 60 60 46.5685 60 30C60 13.4315 46.5685 0 30 0C13.4315 0 0 13.4315 0 30C0 46.5685 13.4315 60 30 60Z" fill="#5865F2"></path>
<path d="M40.3963 20.4491C38.4512 19.5564 36.3986 18.9198 34.2897 18.5553C34.2705 18.5517 34.2506 18.5542 34.2329 18.5625C34.2152 18.5708 34.2006 18.5845 34.1912 18.6016C33.9112 19.1092 33.657 19.6306 33.4295 20.1637C31.1564 19.8185 28.8442 19.8185 26.5711 20.1637C26.3426 19.6292 26.0848 19.1077 25.7988 18.6016C25.789 18.5849 25.7744 18.5715 25.7568 18.5632C25.7392 18.555 25.7196 18.5522 25.7004 18.5553C23.5921 18.9192 21.5401 19.5558 19.5961 20.4491C19.5794 20.4561 19.5652 20.4682 19.5557 20.4837C15.6668 26.2944 14.6016 31.9622 15.1242 37.5585C15.1257 37.5722 15.13 37.5855 15.1367 37.5976C15.1435 37.6097 15.1526 37.6203 15.1635 37.6288C17.428 39.3063 19.9612 40.5868 22.6547 41.4157C22.6737 41.4214 22.694 41.4211 22.7128 41.4149C22.7317 41.4088 22.7482 41.397 22.7602 41.3811C23.3385 40.5938 23.851 39.7601 24.2924 38.8886C24.2984 38.8766 24.3018 38.8635 24.3024 38.8501C24.303 38.8367 24.3008 38.8234 24.2959 38.8109C24.291 38.7985 24.2835 38.7872 24.2739 38.7779C24.2643 38.7685 24.2528 38.7613 24.2402 38.7567C23.432 38.448 22.6495 38.0757 21.9 37.6434C21.8864 37.6354 21.875 37.6242 21.8668 37.6107C21.8585 37.5973 21.8537 37.582 21.8528 37.5662C21.8519 37.5505 21.8548 37.5348 21.8614 37.5204C21.868 37.5061 21.8781 37.4936 21.8906 37.4841C22.0477 37.3669 22.2053 37.2438 22.3553 37.1196C22.3686 37.1087 22.3847 37.1017 22.4018 37.0994C22.4189 37.0971 22.4362 37.0997 22.452 37.1067C27.3615 39.3485 32.6772 39.3485 37.5287 37.1067C37.5446 37.0991 37.5622 37.0962 37.5796 37.0983C37.5971 37.1004 37.6136 37.1074 37.6272 37.1184C37.7772 37.2421 37.9348 37.3663 38.0959 37.4841C38.1085 37.4935 38.1186 37.5059 38.1253 37.5202C38.132 37.5345 38.1351 37.5502 38.1343 37.5659C38.1335 37.5817 38.1288 37.597 38.1207 37.6105C38.1126 37.624 38.1012 37.6353 38.0877 37.6434C37.3392 38.0799 36.5552 38.4523 35.744 38.7567C35.7313 38.7615 35.7198 38.7689 35.7102 38.7784C35.7007 38.788 35.6932 38.7994 35.6884 38.812C35.6836 38.8247 35.6815 38.8382 35.6823 38.8517C35.6831 38.8652 35.6867 38.8783 35.693 38.8903C36.1417 39.7571 36.6535 40.5898 37.224 41.3817C37.2356 41.398 37.252 41.4103 37.271 41.4167C37.2899 41.4231 37.3104 41.4234 37.3295 41.4175C40.0267 40.591 42.5631 39.3103 44.8295 37.6305C44.8406 37.6225 44.8499 37.6122 44.8566 37.6002C44.8634 37.5883 44.8675 37.5751 44.8688 37.5614C45.4945 31.0903 43.8211 25.4688 40.4332 20.486C40.4256 20.4697 40.4126 20.4567 40.3963 20.4491ZM25.0248 34.1512C23.5465 34.1512 22.3295 32.7942 22.3295 31.1278C22.3295 29.4614 23.5236 28.1044 25.0248 28.1044C26.5383 28.1044 27.7447 29.4731 27.7201 31.1278C27.7213 32.7942 26.5266 34.1512 25.0248 34.1512ZM34.9934 34.1512C33.5151 34.1512 32.2981 32.7942 32.2981 31.1278C32.2981 29.4614 33.4922 28.1044 34.9934 28.1044C36.5068 28.1044 37.7133 29.4731 37.6887 31.1278C37.6893 32.7942 36.5068 34.1512 34.9934 34.1512Z" fill="#FAFAFA"></path>
</g>
<defs>
<clipPath id="clip0_75_76">
<rect width="60" height="60" fill="white"></rect>
</clipPath>
</defs>
</svg>
