<svg width="60" height="60" fill="none" xmlns="http://www.w3.org/2000/svg"><g clip-path="url('#clip0_75_76')"><path d="M30 60c16.569 0 30-13.431 30-30C60 13.431 46.569 0 30 0 13.431 0 0 13.431 0 30c0 16.569 13.431 30 30 30Z" fill="#5865F2"/><path d="M40.396 20.45a24.743 24.743 0 0 0-6.106-1.895.093.093 0 0 0-.099.047 17.26 17.26 0 0 0-.762 1.562 22.84 22.84 0 0 0-6.858 0 15.795 15.795 0 0 0-.772-1.562.096.096 0 0 0-.099-.047c-2.108.364-4.16 1-6.104 1.894a.087.087 0 0 0-.04.035c-3.89 5.81-4.954 11.478-4.432 17.075a.104.104 0 0 0 .04.07 24.878 24.878 0 0 0 7.49 3.787.097.097 0 0 0 .106-.035 17.784 17.784 0 0 0 1.532-2.492.096.096 0 0 0-.052-.132 16.386 16.386 0 0 1-2.34-1.114.095.095 0 0 1-.047-.077.097.097 0 0 1 .038-.082c.157-.117.314-.24.464-.364a.093.093 0 0 1 .097-.013c4.91 2.242 10.225 2.242 15.077 0a.092.092 0 0 1 .098.011c.15.124.308.248.469.366a.096.096 0 0 1-.008.16c-.749.436-1.533.808-2.344 1.113a.097.097 0 0 0-.056.055.096.096 0 0 0 .005.078c.449.867.96 1.7 1.531 2.492a.095.095 0 0 0 .106.035 24.796 24.796 0 0 0 7.5-3.787.096.096 0 0 0 .04-.07c.625-6.47-1.049-12.091-4.437-17.074a.076.076 0 0 0-.037-.037ZM25.025 34.15c-1.478 0-2.695-1.357-2.695-3.023 0-1.667 1.194-3.024 2.695-3.024 1.513 0 2.72 1.37 2.695 3.024.001 1.666-1.193 3.023-2.695 3.023Zm9.968 0c-1.478 0-2.695-1.357-2.695-3.023 0-1.667 1.194-3.024 2.695-3.024 1.514 0 2.72 1.37 2.696 3.024 0 1.666-1.182 3.023-2.696 3.023Z" fill="#FAFAFA"/></g><defs><clipPath id="clip0_75_76"><path fill="#fff" d="M0 0h60v60H0z"/></clipPath></defs></svg>