<svg width="40" height="40" fill="none" xmlns="http://www.w3.org/2000/svg"><g clip-path="url('#clip0_80_7622')"><path d="M20 40c11.046 0 20-8.954 20-20S31.046 0 20 0 0 8.954 0 20s8.954 20 20 20Z" fill="#5865F2"/><path d="M26.93 13.633a16.495 16.495 0 0 0-4.07-1.263.062.062 0 0 0-.066.031c-.187.338-.356.686-.508 1.042a15.229 15.229 0 0 0-4.572 0 10.54 10.54 0 0 0-.515-1.042.064.064 0 0 0-.065-.03 16.448 16.448 0 0 0-4.07 1.262.058.058 0 0 0-.027.023c-2.593 3.874-3.303 7.652-2.954 11.383a.069.069 0 0 0 .026.047 16.586 16.586 0 0 0 4.994 2.524.065.065 0 0 0 .07-.023c.386-.524.728-1.08 1.022-1.661a.064.064 0 0 0-.035-.088 10.92 10.92 0 0 1-1.56-.742.063.063 0 0 1-.031-.052.065.065 0 0 1 .025-.055c.104-.078.21-.16.31-.243a.062.062 0 0 1 .064-.008c3.273 1.494 6.817 1.494 10.051 0a.062.062 0 0 1 .066.008c.1.082.205.165.312.243a.063.063 0 0 1 .026.055.064.064 0 0 1-.031.052c-.5.29-1.022.539-1.563.742a.063.063 0 0 0-.04.063c0 .01.002.018.006.026.3.578.64 1.133 1.021 1.66a.063.063 0 0 0 .07.025 16.527 16.527 0 0 0 5-2.525.063.063 0 0 0 .027-.046c.417-4.314-.699-8.062-2.958-11.384a.05.05 0 0 0-.024-.024Zm-10.247 9.134c-.985 0-1.797-.904-1.797-2.015 0-1.111.796-2.016 1.797-2.016 1.01 0 1.814.913 1.797 2.016 0 1.11-.796 2.015-1.797 2.015Zm6.646 0c-.986 0-1.797-.904-1.797-2.015 0-1.111.796-2.016 1.797-2.016 1.009 0 1.813.913 1.797 2.016 0 1.11-.788 2.015-1.797 2.015Z" fill="#FAFAFA"/></g><defs><clipPath id="clip0_80_7622"><path fill="#fff" d="M0 0h40v40H0z"/></clipPath></defs></svg>