<svg width="40" height="40" fill="none" xmlns="http://www.w3.org/2000/svg"><path d="M21.375 20c0-3.223 2.547-5.832 5.688-5.832 3.142 0 5.687 2.607 5.687 5.832 0 3.223-2.545 5.832-5.688 5.832-3.137 0-5.687-2.607-5.687-5.832Z" fill="#71B7FB"/><path d="M10 31.668c0-3.223 2.547-5.835 5.688-5.835h5.687v5.835c0 3.22-2.547 5.832-5.688 5.832-3.14 0-5.687-2.612-5.687-5.832Z" fill="#0ACF83"/><path d="M21.375 2.5v11.668h5.688c3.142 0 5.687-2.613 5.687-5.835 0-3.22-2.545-5.833-5.688-5.833h-5.687Z" fill="#FF7262"/><path d="M10 8.332c0 3.223 2.547 5.835 5.688 5.835h5.687V2.5h-5.688C12.547 2.5 10 5.112 10 8.332Z" fill="#F24E1E"/><path d="M10 20c0 3.223 2.547 5.832 5.688 5.832h5.687V14.168h-5.688C12.547 14.168 10 16.776 10 20Z" fill="#A259FF"/></svg>