<svg width="40" height="40" fill="none" xmlns="http://www.w3.org/2000/svg"><path fill-rule="evenodd" clip-rule="evenodd" d="M11.404 9.725c-.138-1.195.938-.688.8.032-.201.192-.574.035-.8-.032Zm1.28-.224c.272-.027.53-.068.609-.288-.375-.23-.935.34-.704.608.127-.01.014-.262.096-.32Zm-3.585.737c.226-.105.596-.066.704-.289-.671-.233-1.88-.06-2.08.385.511-.032.94-.438 1.376-.096Zm-1.505.128c-.145-.03-.201.134-.128.224.114-.004.13-.106.128-.224Zm-.352.64c-.02-.305-.76-.55-.832-.128.064.24.66.393.832.128Zm-1.248-.288c-.153.007-.231.09-.32.16.116.068.373.043.32-.16Zm-.384.864c.563-.04.735.48 1.216.416.09-.558-1.057-1.325-1.216-.416Zm7.619 2.785c-.168-.558.347-1.037.032-1.473-.436.035-.813 2.058-.192 2.05.445-.006.602-1.23.64-1.633-.326.186-.184.84-.48 1.056Zm-5.347-.224c.01-.084-.044-.105-.128-.096.003.086.074.154.128.096Zm1.57.929c.005-.199-.002-.383-.16-.416-.121-.014-.114.1-.193.128.044.169.133.293.352.288Zm-1.537 1.024c.613.07 1.024.512 1.6.512-.459-.309-.936-.6-1.665-.64-.023.087.064.065.065.128Zm4.834.48a1.398 1.398 0 0 0-.256-.544c.041.225.099.434.256.544Zm-3.522.705c-.402-.538-1.042-1.006-1.76-1.12.1.858 1.055.864 1.76 1.12Zm-1.088.192c-.275-.462-.745-.728-1.313-.896.32.396.612.987 1.313.896Zm-1.473-.448c.11.19.384.383.32.64-.28-.082-.417-.309-.704-.384.152.212.734 1.15 1.088 1.12.226-.02.328-.268.288-.672-.173-.371-.724-.535-.992-.704Zm1.633.832c.07.196.096.437.352.448a.607.607 0 0 0-.352-.448Zm-.224.096c-.12-.013-.188.026-.192.128.035.007.05.035.063.064.103-.004.142-.072.129-.192Zm5.474.736c.033-.18.067-.53 0-.704-.041.18-.196.584 0 .704Zm-2.241-.672c.024.19-.067.494.096.545.007-.14.04-.456-.096-.545Zm1.505.736c-.093-.082-.227.043-.289-.031-.065-.212-.038-.517-.223-.609h-.064c-.264.546-.238 1.72.223 2.017.088.148.096.374.32.384.185-.146.23-.431.257-.736-.4-.084-.028-.775-.224-1.025Zm.96.352c.04-.283.282-.695.096-.992-.061.28-.177.676-.096.992Zm-5.634.257c.05-.146.01-.395-.096-.48-.075.14-.119.462.096.48Zm.576.128c.13.084.14.287.32.32.225-.288-.202-.794-.32-.32Zm5.474.64c0 .098-.128.232-.032.32.019-.08.116-.244.032-.32Zm.288 1.248c-.001-.147.018-.316-.064-.384-.014.114-.098.367.064.384Zm-4.065 1.313c.019.12.038.24.16.256.078-.11.02-.304-.16-.256Zm1.44.16c.045.085.173.253.256.192-.074-.054-.16-.265-.256-.191Zm3.041.353c-.09.38.123.728.289.96.067-.372.061-.904-.289-.96Zm.801 2.464c.048-.096.065-.395-.032-.447-.084.115-.16.392.032.447Zm1.44 1.537c-.046-.235-.23-.489-.416-.48.065.234.076.522.416.48Zm.289.448c.001.149-.018.318.064.384.004-.153.002-.3-.064-.384Zm-10.565.033c0 .117.063.171.128.224-.013-.105-.028-.207-.128-.224Zm11.717 1.76c-.078-.604-.396-.97-.8-1.248.058.625.364 1.002.8 1.248Zm5.155 3.17c-.02-.019-.152-.075-.16 0 .048.037.134.112.16 0Zm16.231 2.369v.352c-.052.108-.069.251-.096.384-.89.572-2.563.361-3.298 1.089-1.289-.695-2.486.399-3.841.512-.224.018-.473-.019-.705 0-.8.065-1.582.252-2.4.32-.84.07-1.681.121-2.562.16h-.96c-3.97-.208-7.897-.742-10.821-2.049a19.828 19.828 0 0 1-4.034-2.401c-1.2-.925-2.433-1.953-3.298-3.105-.92-1.228-1.84-2.421-2.657-3.778a33.637 33.637 0 0 1-2.177-4.226c-.644-1.516-1.103-3.016-1.536-4.866-.284-1.21-.583-2.58-1.089-3.714-.197-.441-.426-.803-.448-1.216v-.288c.158-1.345 1.204-2.126 2.433-2.498.308-.093.607-.182.896-.352.02-.01.204-.03.129-.128-.548-.132-.999.675-1.601.448-.535-.2-.227-1.029.352-1.28.27-.118.807-.148 1.056-.288.43-.242.625-.752.545-1.217-.048-.274-.333-.419-.32-.64.017-.309.569-.577.832-.769.322-.234.703-.526.672-.896-.032-.386-.486-.509-.704-.8-.343-.458-.397-1.141.16-1.41.584-.28 1.671-.127 1.793.61.107.648-.354.895-.16 1.376.36.894 3.156-.521 2.465 1.345.615.964 3.019.139 3.073 1.664 1.003.02 1.464.781 2.273 1.089.217.082.476.082.705.16 1.365.464 3.057.962 3.617 2.273-.506.341-1.197.113-1.793-.096-.517-.182-1.272-.542-1.792-.32-.516.22-.489 1.101-.417 1.984.193 2.352.305 4.778.64 6.883.469 2.94 1.47 5.294 2.882 7.14 1.367 1.786 2.972 3.656 5.058 4.962 1.76 1.102 3.739 1.972 6.243 2.53.372.082.82.263 1.024.223.303-.058.954-.937 1.185-1.152.551-.512 1.292-1.229 2.08-.609-.106.854-.871 1.05-1.056 1.826.475.301.978.028 1.57.063.688.041 1.216.436 1.792.352.368-.053.553-.327.833-.512.636.93 3.088-.28 3.457.865Zm-6.947-2.37c-.014-.103.042-.276-.064-.287-.093.047-.184.34.064.288ZM16.91 10.078c.313.188.59.414.864.641.165-.487-.31-.798-.864-.768v.128Zm8.611 23.595c.123.026.211.05.225-.096-.114-.007-.192.021-.224.096Zm-4.418-2.817c-.01.15.294.153.353.128-.05-.1-.202-.23-.353-.128Zm-.768-.608c.053.053.188.025.288.032.01-.118-.036-.178-.064-.257-.168-.018-.215.085-.224.225Zm-6.147-13.095c-.087-.073-.15.062-.192 0 .104-.794.272-2.017-.064-2.688-.083-.073-.214.025-.256-.033.224-.533.375-1.646.288-2.305-.03-.232-.15-.644-.288-.736-.344-.23-.658.123-.896.192-.15.044-.317.013-.48.032-.646.078-1.331.27-1.761.48.224.15.542.205.64.48-.558-.04-.993-.201-1.473-.32.051.723-.834.496-1.376.545.187.004.217.094.224.224.022.425-1.376.928-1.857.608-.686.553.302 1.118.256 1.825-.135.1-.197.272-.32.384-.682.017-1.399.154-1.28.864-.093-.053-.238-.09-.353-.032-.174.45.118.936.512 1.025.1-.029.123-.134.256-.128.89.17 1.204.76 1.153 1.889-.009.194.01.447-.128.576-.505-.035-.974-1.282-.16-1.313-.195-.287-.343-.715-.705-.704-.414.012-.6.667-.896.896.427.236 1.428.887.608 1.313.406.06.633.222.8.448.28.378.271.943.48 1.249.425.619.65-.555 1.153-.064.12.04-.052-.116-.064-.128-.432-.467-1.092-.85-1.344-1.409.194-.089.454.008.64.032.073-.376-.188-.802-.096-1.089.066-.206.188-.115.32-.192.078-.045.017-.213.16-.16 0 .44-.265 1.18.032 1.505.434.078.56-.67.929-.672.206-.002.4.36.544.544.172.22.407.49.352.736-.115.517-.984.123-1.28-.096.18.718 1.293.83 1.344 1.761.006.104-.047.237-.032.352.063.492.521.858.992.545.07.176.079.412.257.48.156-.132.1-.476.192-.673.558.117.85.386 1.024.833.086.22.064.63.416.64.054-.546-.374-.884-.448-1.409.287.463 1.322.964 1.28 1.697-.027.484-.601.536-1.152.608.525.18.745.768 1.313.96.152.053.349.008.512.065.416.144 1.08.997.896 1.537-.885.446-1.576-.76-2.56-.737.414.53 1.093.706 1.664.96.614.275 1.23.556 1.825.833 1.404.653 2.379 1.508 3.297 2.593-.637.348-2.57-.23-1.408-.64-.404-.014-.832-.267-1.185-.128.187 1.222 1.794 1.023 3.01 1.216-.111.21-.267.374-.385.577.094.055.223.075.385.064-.078.124-.28.125-.289.32.156.207.464.262.673.416.822-.59.915.748 1.44.768.497.019.592-.695 1.089-.768-.125.26-.37.4-.48.672.486-.117.625-.38 1.024-.48 1.43-.362 2.601.829 3.778.96.423.048.843.285 1.216.353.483.087.78-.072 1.153-.256-.569-.531-1.874-.324-2.337-.961.018-.11.093-.163.16-.224-1.498.33-2.442-.569-3.073-1.408-1.85-.478-3.47-1.183-4.259-2.722-.037-.145.142-.071.097-.224-.65-.723-1.3-1.457-1.825-2.305-.182-.293-.306-.66-.512-.896-.131-.15-.35-.232-.48-.385-.143-.167-.162-.377-.385-.448-.086.128-.028.399-.096.544-.154-.618-.497-1.205-1.152-1.216-.013-.45.35-.524.544-.768-.254-.306-.316-.691-.448-1.153-.323-1.122-.59-2.293-.865-3.33-.365.137-.462.542-.64.865.018-.462.04-.921.288-1.153.114.014.127.13.192.192.06-.218.267-.421.16-.704-.083-.128-.324-.068-.384-.064.158-.386.29-1.088.096-1.537Zm12.87 18.985c.277-.118.526-.263.64-.544-.3.075-.725.189-.64.544Zm.032-.64c-.185.103-.393.183-.512.352.265.016.576-.25.512-.352Zm-.992.48c.181-.048.375-.235.352-.384-.21.021-.536.171-.352.384Zm.128-.736c-.288-.091-.524.134-.545.416a.82.82 0 0 0 .545-.416Zm-.897.064c-.281.05-.492.169-.576.416.344.136.52-.16.576-.416Zm-.448.832c.08.005.155.006.16-.064-.048-.05-.182-.047-.16.064Zm.512-1.377c-.447-.034-.983.257-.704.64.298-.15.6-.295.704-.64Zm-2.209.61c.28.038.353-.282.545-.225.11.07.043.319.224.32.418-.085.57-.657.32-1.057-.565.1-1.081.41-1.089.961Zm.128-.833c-.17.086-.35.16-.448.32.21-.01.522-.24.448-.32Zm-.896.16c.018.085-.132.163-.032.224.026-.04.195-.199.032-.224Zm-.576.768c-.01.043-.046.06-.032.128h.128c.009-.084-.012-.138-.096-.128Zm-.48-.16c-.162.01-.223.119-.224.288.139-.031.266-.075.224-.288Zm-3.234-1.633c-.197-.009-.258.022-.032.065.215.04.594.06.736 0-.168-.003-.605-.06-.704-.065Zm.96-.512c-.167-.127-.504-.035-.672.032.097.266.573.148.673-.032Zm-1.024 2.401c.799.418 1.898.875 3.041.736-.83-.406-2.066-.58-3.04-.736Zm-1.184-.352c.076.105.257.105.384.16.236-.228-.284-.357-.384-.16Zm-3.01-2.593c-.216.018-.451.018-.512.192.206.076.504.029.512-.192Zm-.608.832c.075.068.213.15.256 0-.033-.034-.229-.066-.256 0Zm.384-2.721c.03-.134-.226-.185-.256-.064.07.036.13.082.256.064Zm.416 1.088a.15.15 0 0 1 .032-.096c-.095-.098-.288-.116-.448-.064.026.154.282.218.416.16Zm.032 2.05c.041.043.151.043.192 0 .015-.101-.04-.132-.096-.161-.028.057-.077.093-.096.16Zm.993-3.682c-.104-.302-.444-.222-.673-.32-.366-.158-.679-.535-1.152-.545h-.064c.412.485.956 1.006 1.889.865Zm-1.665-1.185c-.299-.203-.626-.377-1.057-.448.137.343.67.462 1.057.448Zm.992 1.505c.225.234.506.412.993.384-.187-.251-.634-.412-.993-.384Zm1.217 1.44c-.33-.228-.848-.599-1.28-.512.25.326.752.57 1.28.512Zm-1.217 1.217c-.007.046-.052.054-.064.096.08.103.198-.074.064-.096Zm.737.96c.027.123.144.154.256.193.043-.075.128-.107.096-.257-.078-.046-.358-.073-.352.065Zm.608-1.408c-.1-.06-.46-.129-.544 0 .155.063.46.226.544 0Zm.096-1.089c.032-.238-.237-.24-.352-.16.01.16.223.12.352.16Zm.352-1.729c-.144-.218-.546-.179-.832-.256-.21-.263-.71-.358-1.153-.288.506.337 1.082.604 1.985.544Zm-.064 3.074c.138.118.353.159.544.224.01-.075.05-.12.032-.224-.093-.108-.497-.163-.576 0Zm-2.721-5.187c.032-.15-.056-.178-.192-.16-.048.166.111.124.192.16Zm.768.385c-.093-.024-.062-.173-.192-.16-.118.108.095.272.192.16Zm-2.209.224c-.106-.235-.345-.337-.512-.512.312-.453-.384-.638-.512-.96-.002-.098.067-.125.096-.193-.27-.158-.58-.274-.736-.544.123-.09.453.027.576-.064-.194-.084-.404-.152-.48-.353.112-.26.568-.178.672-.448-.552-.121-1.1-.414-1.697-.384.007.228.21.26.288.416-.177-.078-.32-.192-.576-.192-.02.158.083.195.064.352-.175.015-.263-.057-.448-.031.132.294.47.383.576.704-.13.033-.309-.052-.352 0 .338.28.831.577 1.024.896-.314-.058-.494-.252-.8-.32.256.507.88.612 1.345.864.476.258.903.674 1.472.769Zm-.704.384c.134.073.4.305.576.128-.148-.066-.382-.215-.576-.128Zm-.256-.16c-.09-.146-.55-.224-.672-.128.209.06.405.222.672.128Zm-.576.096c-.01.043-.046.06-.032.128.056-.018.188.038.192-.032-.05-.036-.067-.104-.16-.096Zm-.417-4.258c-.087-.301-.204-.63-.448-.864-.131-.126-.259-.124-.352-.289-.247-.435-.129-1.05-.448-1.504-.076-.025-.221-.063-.288 0 .006.21.493.708.16.96-.736.03-1.02-.557-1.729-.448-.16.414.405.626.256.928 1.019.327 1.827 1.036 2.85 1.217Zm-2.305.96c.188.143.46.373.705.352-.194-.137-.372-.46-.705-.352Zm-.352-.288c-.083-.258-.227-.455-.544-.48.064.277.365.318.544.48Zm-.544.833c.171.117.342.405.512.416-.125-.164-.277-.47-.512-.416Zm.224-2.21c.017-.047.047-.08.064-.128-.082-.113-.284-.05-.32.065.063.043.183.03.256.064Zm4.962 1.281a.353.353 0 0 0-.544-.288c.074.204.297.258.544.288Zm-3.01-4.193c.006-.053-.196-.053-.191 0 .044.01.193.144.192 0Zm-1.247-.129h-.129c-.044.041-.031.14-.032.224.059.009.18.116.224.033-.079-.028.01-.223-.063-.257Zm-2.402-.032c.106.242.536.224.609-.032-.183-.07-.451-.021-.609.032Zm.096-.896a.806.806 0 0 0-.32.032c.025.14.32.115.32-.032Zm.288-5.154c-.164.076-.507-.077-.672 0 .146.576 1.226.266 1.153-.193-.062-.388-1.09-.292-1.44-.256.272.197.705.233.96.449Zm-1.28.608c.06.089.226.073.32.128.019-.067.08-.091.064-.192-.084-.045-.386-.08-.384.064Zm1.633-.128c-.018.07-.078.207.032.224.076-.054.06-.178-.032-.224Zm.896-1.921c-.008-.094.072-.098.064-.192-.13-.013-.223.011-.224.128.06.014.08.069.16.064Zm-.032-7.107c-.127.78.577 1.726 1.409 1.44.038-.295-.096-.416-.096-.672.212-.051.337.152.448.096-.312-.563-1.14-.61-1.76-.864Zm-.352-.737c.281.056.723.028.832-.192-.212-.142-.85-.18-.832.192ZM5.833 3.1c.062-.623-.698-.966-1.152-.545-.284.263-.407.899.032 1.12-.05-.163-.195-.23-.16-.48.334-.19.946.094 1.28-.096ZM5.61 5.146c.081-.046.203-.052.192-.192-.099.01-.267.116-.192.192Zm-.673 2.37c.4.009.7-.216 1.089-.225.336-.007.656.093 1.056.064-.286-.838-1.674-.106-2.145.16ZM4.33 8.988c.755-.096 1.808-.593 2.817-.48.38.042.714.257.929.416-.11-.116-.239-.595 0-.672.525.1.542 1.093 1.184.96.327-.067.426-.701.256-1.088.245.172.37.462.705.544-.077-.308-.298-.47-.449-.704.095-.12.218-.21.192-.449-.916-.088-1.729.407-2.593.577-.67.132-1.17.262-1.76.416-.445.115-.94.196-1.281.48Zm-2.69 6.627c-.043.04-.055.191.033.192.026-.023.086-.221-.032-.192Zm1.121-3.81c-1.404.223.092 1.716.929 1.345.105-.162.073-.312.064-.544.487.047.853-.19 1.28-.096.07.149-.061.275-.096.416 1.453-.092 2.172-1.234 3.746-1.409.195-.022.418.013.64 0 .663-.039 1.397-.161 2.081-.288.671-.124 1.285-.37 1.857-.512.718-.178 1.81-.646 1.665-1.6-.017-.11-.092-.207-.16-.321-3.816-.369-6.668 1.127-9.669 1.729-.36.072-.798.024-1.088.32.105.258.473.252.64.448-.084.098-.29.073-.32.224.07.271.472.21.512.512-.637.45-1.973-.123-1.665-1.024-.963.211-2.365.42-2.369 1.505-.002.477.283.92.608 1.184-.22-1.008.155-2.5 1.345-1.889Zm1.185 5.987c.029-.217-.328-.369-.448-.224.118.106.302.145.448.224Zm-1.12.416c.226.787.3 1.728.896 2.145-.09-.924-.418-1.61-.897-2.145Zm1.344-.832c.1-.452-.564-.63-.608-.32-.04.269.384.237.608.32Zm.128-.865c-.145-.158-.507-.256-.768-.192.092.227.658.562.768.192Zm-.384-1.408c.144-.09.298-.172.32-.385-.186-.139-.63-.158-.672.065-.032.168.194.237.352.32Zm.416.544c.014-.11-.013-.18-.032-.256-.164-.004-.241.08-.256.224.08.027.171.042.288.032Zm-2.241-.16c-.025-.082-.032-.181-.096-.224-.08.086-.083.24.096.224Zm.32-2.177c-.144-.056-.356.004-.416.128.067.06.164.092.256.128.032-.106.177-.1.16-.256Zm.352 4.13c-.083-.184-.093-.44-.256-.544-.438.062-.004.692.256.544Zm.608 3.457c.313.756.643 1.573 1.313 1.921-.501-.557-.62-1.48-.96-2.145-.118-.23-.307-.408-.417-.64-.258-.547-.378-1.185-.896-1.44.204.804.642 1.533.96 2.304Zm8.805 12.006c-.194-.66-.714-.994-1.441-1.12-.18-.43-.698-.519-.8-1.025-.017-.104.198-.14.128-.192-.975.184-1.01-.848-1.473-1.28-1.17.02-.953-1.428-1.6-2.178-.186-.214-.37-.263-.577-.48-.32-.991-1.155-1.494-1.633-2.369-.424-.777-.514-1.653-1.216-2.209.556 1.883 1.747 3.474 2.817 5.059.857 1.268 1.439 2.475 2.401 3.489.327.344.696.574 1.089.896.668.548 1.127 1.564 2.304 1.409Zm-.129-2.177c-.034-.137-.281-.23-.416-.16.124.068.26.123.416.16Zm1.185-.833c-.217-.252-.671-.349-1.089-.512-.518-.203-1.256-.394-1.632-.16.038.314.288.416.448.608.445.069.7.286 1.12.32.497.041.96.02 1.153-.256Zm15.27 7.3c-.968-.442-2.389.055-3.425-.192-.196-.047-.368-.182-.544-.193-.175-.01-.378.082-.544.097-.888.079-1.698-.01-2.53-.129-.583-.084-1.204-.116-1.728-.256-.502-.133-1.021-.44-1.537-.64-.523-.202-1.068-.404-1.569-.608-.988-.403-2.038-1.1-3.073-1.377.698.742 1.901.98 2.721 1.601-1.159-.324-2.034-.933-3.073-1.377.81.726 1.94 1.165 3.073 1.633 1.129.466 2.355.861 3.682 1.056 2.634.389 5.724.965 8.548.385Zm.833-.096c-.164.006-.37-.028-.384.128.14.12.374.107.384-.128Zm1.729-3.778c.045.236.389.166.352-.096-.174-.025-.25.05-.352.096Zm2.657 1.665c-.86-.021-1.922-.318-2.818-.288-.343.011-.76.093-.864.447.264.108.547.043.864.033 1.039-.035 2.308.431 2.818-.192Zm.864-.064c-.15 0-.193.105-.224.223.042.045.14.033.225.033-.016-.142.043-.16 0-.256Zm1.89-.128c-.157-.024-.215.17-.16.256.1.015.124-.046.192-.064.023-.098-.056-.094-.033-.192Zm2.656.192a8.367 8.367 0 0 0-2.016.064c.35.33 1.61.12 2.016-.064ZM8.331 15.52c.315.175.607.545 1.024.512-.113-.154-.272-.26-.384-.416.119-.01.22-.036.256-.128-.39-.272-.889-.605-1.088-.96.131.255.333.662.192.992Zm4.098.256c-.069-.07-.038-.24-.129-.288-.02.14.07.334.129.288Zm-2.946 2.786c.05.527.386.766.416 1.312-.374-.426-.583-1.018-.832-1.569-.024.667.177 1.08.352 1.537.135.351.261.764.608.864.163-.03.154-.231.32-.256.179.026.271.305.385.288-.086-.096-.112-.25-.128-.416.03-.118.2-.098.256-.192a3.864 3.864 0 0 0-1.377-1.568Z" fill="#FAFAFA"/></svg>