<svg width="218" height="80" fill="none" xmlns="http://www.w3.org/2000/svg"><path d="M166.459 51.563h5.837V32.705h.075l11.562 18.858h7.633V25.071h-5.837v18.41h-.074l-11.263-18.41h-7.933v26.492Z" fill="#FAFAFA"/><mask id="mask0_111_4235" style="mask-type:luminance" maskUnits="userSpaceOnUse" x="6" y="19" width="206" height="44"><path d="M6.272 62.33h205.63V19.705H6.272V62.33Z" fill="#fff"/></mask><g mask="url('#mask0_111_4235')"><path d="M136.103 38.318c0 8.493 6.024 13.919 14.294 13.919 8.269 0 14.293-5.426 14.293-13.92s-6.024-13.919-14.293-13.919c-8.27 0-14.294 5.425-14.294 13.92Zm6.062 0c0-4.94 3.255-8.532 8.232-8.532 4.976 0 8.232 3.592 8.232 8.532 0 4.939-3.256 8.531-8.232 8.531-4.977 0-8.232-3.592-8.232-8.531ZM211.864 27.167c-2.245-1.984-5.126-2.77-8.119-2.77-5.201 0-10.103 2.957-10.103 8.607 0 8.83 12.423 6.211 12.423 11.075 0 1.871-2.133 2.77-4.042 2.77-1.945 0-3.891-.936-5.088-2.508l-4.154 4.565c2.508 2.32 5.501 3.33 8.906 3.33 5.463 0 10.215-2.806 10.215-8.718 0-9.28-12.198-6.174-12.198-11 0-1.984 2.282-2.732 3.929-2.732 1.421 0 3.292.561 4.228 1.759l4.003-4.378Z" fill="#FAFAFA"/><path d="M38.789 38.328c0 8.494 6.023 13.92 14.293 13.92 8.269 0 14.293-5.426 14.293-13.92 0-8.493-6.024-13.919-14.293-13.919-8.27 0-14.293 5.426-14.293 13.919Zm6.06 0c0-4.939 3.256-8.53 8.233-8.53 4.976 0 8.232 3.591 8.232 8.53 0 4.939-3.256 8.531-8.232 8.531-4.977 0-8.232-3.592-8.232-8.531ZM68.442 38.318c0 8.493 6.024 13.919 14.293 13.919 8.27 0 14.294-5.426 14.294-13.92s-6.024-13.919-14.294-13.919c-8.269 0-14.293 5.425-14.293 13.92Zm6.062 0c0-4.94 3.255-8.532 8.231-8.532 4.977 0 8.232 3.592 8.232 8.532 0 4.939-3.255 8.531-8.232 8.531-4.976 0-8.231-3.592-8.231-8.531ZM20.483 51.563l.008-21.32a5.213 5.213 0 0 1 4.997-5.168l13.061-.004v5.389l-9.837-.002c-1.34 0-2.387 1.047-2.387 2.338l-.005 3.052h10.065v5.388H26.32v10.327h-5.837Z" fill="#FAFAFA" fill-opacity=".6"/><path d="M10.593 19.704H9.156s-2.77 5.683-2.882 17.523c-.11 11.73 3.914 19.296 5.936 22.792 3.412 5.437.704-.423.704-.423S8.011 50.624 7.968 38.87c-.042-11.417 2.625-19.167 2.625-19.167Z" fill="#D2D804"/><path d="M120.102 38.317c0 4.94 3.255 8.53 8.232 8.53 2.451 0 4.485-.87 5.918-2.346a15.24 15.24 0 0 0 2.971 5.083c-2.392 1.71-5.447 2.652-8.889 2.652-5.962 0-10.756-2.819-12.968-7.575.984-1.776 1.544-3.884 1.544-6.31 0-2.617-.52-4.793-1.451-6.575 2.253-4.636 6.996-7.378 12.875-7.378 3.442 0 6.495.94 8.887 2.651a15.284 15.284 0 0 0-2.97 5.083c-1.433-1.475-3.467-2.346-5.917-2.346-4.977 0-8.232 3.592-8.232 8.531Z" fill="#FAFAFA"/><path d="M93.822 25.072h7.411c8.531 0 15.678 3.63 15.678 13.32 0 8.568-6.997 13.171-14.893 13.171h-8.095a14.96 14.96 0 0 0 4.374-5.389h3.048c5.426 0 9.504-2.057 9.504-8.082 0-5.2-4.153-7.633-9.092-7.633h-3.498a14.969 14.969 0 0 0-4.438-5.387Z" fill="#FAFAFA" fill-opacity=".6"/></g></svg>