<svg width="60" height="60" fill="none" xmlns="http://www.w3.org/2000/svg"><path fill-rule="evenodd" clip-rule="evenodd" d="M30 0c16.569 0 30 13.77 30 30.759 0 13.587-8.586 25.113-20.499 29.184-1.521.303-2.061-.658-2.061-1.477 0-1.014.036-4.326.036-8.442 0-2.868-.96-4.74-2.037-5.693 6.681-.762 13.701-3.364 13.701-15.178 0-3.36-1.164-6.101-3.09-8.255.312-.777 1.341-3.906-.294-8.142 0 0-2.514-.824-8.241 3.154-2.397-.681-4.965-1.024-7.515-1.036-2.55.012-5.115.355-7.509 1.036-5.733-3.978-8.253-3.154-8.253-3.154-1.629 4.236-.6 7.364-.291 8.142-1.917 2.154-3.09 4.895-3.09 8.255 0 11.784 7.005 14.425 13.668 15.203-.858.767-1.635 2.122-1.905 4.111-1.71.786-6.054 2.147-8.73-2.554 0 0-1.587-2.956-4.599-3.172 0 0-2.925-.039-.204 1.87 0 0 1.965.944 3.33 4.5 0 0 1.761 5.49 10.107 3.63.015 2.57.042 4.993.042 5.725 0 .813-.552 1.765-2.049 1.48C8.595 55.88 0 44.349 0 30.759 0 13.769 13.434 0 30 0Z" fill="#FAFAFA"/></svg>