<svg width="60" height="60" fill="none" xmlns="http://www.w3.org/2000/svg"><path d="M55.875 30.604c0-1.785-.146-3.578-.454-5.332h-24.9v10.106H44.78a12.15 12.15 0 0 1-5.277 7.976v6.563h8.51c4.994-4.575 7.863-11.325 7.863-19.313Z" fill="#4285F4"/><path d="M30.525 56.25c7.117 0 13.121-2.325 17.494-6.337l-8.505-6.559c-2.367 1.601-5.423 2.509-8.982 2.509-6.884 0-12.723-4.62-14.82-10.83H6.939v6.761A26.415 26.415 0 0 0 30.524 56.25Z" fill="#34A853"/><path d="M15.701 35.032a15.636 15.636 0 0 1 0-10.05v-6.76H6.934a26.138 26.138 0 0 0 0 23.572l8.767-6.762Z" fill="#FBBC04"/><path d="M30.525 14.138a14.388 14.388 0 0 1 10.125 3.937l7.538-7.496a25.448 25.448 0 0 0-17.663-6.825A26.407 26.407 0 0 0 6.938 18.22l8.76 6.754c2.084-6.217 7.934-10.837 14.82-10.837h.007Z" fill="#EA4335"/></svg>