<svg width="25" height="24" fill="none" xmlns="http://www.w3.org/2000/svg"><path d="M17.188 3.75c-1.936 0-3.631.832-4.688 2.24-1.057-1.408-2.752-2.24-4.688-2.24A5.82 5.82 0 0 0 2 9.563c0 6.562 9.73 11.874 10.145 12.093a.75.75 0 0 0 .71 0C13.27 21.436 23 16.125 23 9.563a5.819 5.819 0 0 0-5.813-5.813ZM12.5 20.137c-1.712-.997-9-5.541-9-10.575A4.318 4.318 0 0 1 7.813 5.25c1.823 0 3.354.971 3.993 2.531a.75.75 0 0 0 1.388 0c.64-1.563 2.17-2.531 3.993-2.531A4.318 4.318 0 0 1 21.5 9.563c0 5.025-7.29 9.576-9 10.574Z" fill="url('#paint0_linear_58_82')"/><defs><linearGradient id="paint0_linear_58_82" x1="2" y1="12.748" x2="23" y2="12.748" gradientUnits="userSpaceOnUse"><stop stop-color="#4A90E2"/><stop offset="1" stop-color="#974A8A" stop-opacity=".9"/></linearGradient></defs></svg>