<svg width="58" height="80" viewBox="0 0 58 80" fill="none" xmlns="http://www.w3.org/2000/svg">
<g clip-path="url('#clip0_111_4236')">
<path d="M57.98 46.1856C57.9917 62.0987 45.0796 74.9992 29.1665 74.9992C13.2533 74.9992 0.363745 62.0996 0.352058 46.1856C0.335363 23.6637 29.1656 5 29.1656 5C29.1656 5 57.9633 23.6637 57.9792 46.1856H57.98Z" fill="#FAFAFA"></path>
<path d="M49.8311 57.5114H45.6298L36.6577 48.5477L45.4403 39.7651H49.6492L40.8674 48.5477L49.8311 57.5114Z" fill="#DC2328"></path>
<path fill-rule="evenodd" clip-rule="evenodd" d="M7.10205 42.6762H9.78081V57.4314H12.9571V39.6877H7.10205V42.677V42.6762ZM26.6272 39.7186H16.2269V57.4239H19.4157V42.6436H25.8492C25.8492 42.6436 26.5571 42.5718 27.0003 43.0251C27.4611 43.4967 27.376 44.167 27.376 44.167V57.4314H30.5514V43.6403C30.5514 43.6403 30.6741 42.1678 29.3919 40.8831C28.1248 39.6126 26.628 39.7186 26.628 39.7186H26.6272ZM33.4698 31.7207V57.4607H36.6452V31.7215H33.4698V31.7207Z" fill="#060606"></path>
</g>
<defs>
<clipPath id="clip0_111_4236">
<rect width="57.628" height="70" fill="white" transform="translate(0.352051 5)"></rect>
</clipPath>
</defs>
</svg>
