<svg width="185" height="60" fill="none" xmlns="http://www.w3.org/2000/svg"><g clip-path="url('#clip0_103_2789')" fill="#CBCBCB"><path d="M.456 30.044C.367 13.422 13.802 0 30.441-.089c16.638-.089 30.073 13.333 30.162 29.956C60.693 46.489 47.257 59.91 30.62 60h-.09C13.98 60 .546 46.578.457 30.044Zm.89 0c0 16.09 13.08 29.156 29.184 29.156s29.184-13.067 29.184-29.156C59.714 13.956 46.724.978 30.619.89h-.09C14.426.889 1.347 13.956 1.347 30.044Z"/><path d="M21.81 20.8c.89-.356 1.78-.889 2.492-1.6.267 1.244.8 2.4 1.601 3.467-.712.266-1.423.622-1.957 1.155-.356-1.155-1.157-2.222-2.136-3.022Zm10.143-5.333c-1.067-.09-2.135.088-3.203.444a9.507 9.507 0 0 0-1.78-4.622c.09-.09 2.581-1.067 4.183-.8 1.601.266.89 3.644.8 4.978Zm1.513 29.866.979.623h-8.186c.8-.445 1.513-.8 1.602-1.156.355-1.511.355-3.2 0-4.711-.712-1.422-1.958-2.49-3.47-3.022-.534.089-1.068.355-1.602.622l.89.622c-.801.533-1.513 1.245-1.958 2.133-.445-.533-.978-.977-1.512-1.422.445-.889 1.156-1.6 2.046-2.133l.445.444c.356-.266.712-.533 1.157-.622-1.513-.533-3.114-.978-4.716-1.155v1.6c-1.78-.178-3.47 0-5.16.622 0-.178-.534-2.667.088-4.178.623-1.511 4.004.089 5.428.355-.089.356-.178.8-.267 1.156 1.157-.178 2.224-.267 3.381-.178a4.854 4.854 0 0 0-2.224-1.777 9.951 9.951 0 0 1-2.58-1.69l-1.335.712c-.267-1.69-1.157-3.378-2.314-4.622 1.335-.267 2.58-.8 3.737-1.423.178 1.245.445 3.823 1.335 4.978-.534 0-.979.178-1.424.444.89.623 1.958 1.067 3.026 1.334a3.362 3.362 0 0 1 0-1.334h-.623c-.09-.8-.09-1.51.089-2.31.623-.09 1.245 0 1.78.177a4.815 4.815 0 0 0-.535 2.222h-.711c0 .534.088.978.355 1.423 1.157.355 2.225 1.155 2.848 2.222l2.402.622c0-.444-.089-.889-.267-1.244l-.623.177c-.178-.8-.534-1.51-1.067-2.044.533-.267 1.156-.533 1.779-.622.356.71.534 1.422.623 2.222h-.712c.267.444.445.889.534 1.422l1.424.622c.177-2.133-.534-4.177-1.869-5.777l-1.424 1.155c-.444-1.866-3.203-4.267-3.203-4.267a11.266 11.266 0 0 0 2.936-2.133c1.691.889 2.937 3.467 3.204 4.178l-1.335.711 1.601 1.333.623.89c.356-.267.623-.623.89-1.067l-.89-.267c.623-.889.98-1.867 1.157-2.933a4.494 4.494 0 0 0 2.046.8c-.088 1.066-.444 2.133-1.067 3.022l-.89-.445c-.178.534-.445 1.067-.89 1.512.534 1.155.89 2.488 1.424 3.733 3.203-2.667 2.313-7.734 1.69-10.045L30.62 28a11.997 11.997 0 0 0-4.182-4c.089-.089 1.957-2.4 3.737-2.845 1.78-.444 2.67 3.467 3.47 4.978l-1.157.623c.801 1.244 1.424 2.577 1.69 4l1.424-1.156-.622-.267c.444-.889 1.156-1.6 2.046-2.133.445.533.979.978 1.513 1.333-.801.534-1.513 1.245-1.958 2.134l-.8-.8c-.623.8-1.157 1.777-1.513 2.755.089 1.067 0 2.222-.267 3.289.89-.533 1.868-.8 2.936-.889.267-1.066.89-1.866 1.868-2.4l-.978-1.155c1.068-1.067 3.114-3.023 4.27-3.29a9.367 9.367 0 0 1 2.403 3.467 10.355 10.355 0 0 0-4.627 2.312l-.8-1.156c-.534.622-.89 1.333-.98 2.133 1.335-.089 2.759 0 4.093.178.09-.533.178-.978.09-1.511.711-.089 3.559 0 5.16 1.155-.356 1.156-.623 2.4-.623 3.645 0 0-3.292-1.422-5.16-1.067.178-.533.356-1.155.445-1.689a11.77 11.77 0 0 0-5.517.8l1.78.356c.089-.178.178-.444.178-.622.978.178 1.868.71 2.58 1.422-.534.444-.89 1.067-1.068 1.689-.712-.622-1.601-1.067-2.58-1.334l.623-.977c-.801-.09-1.602-.178-2.403-.09l-1.423.979c-.534.533-.979 1.155-1.246 1.866.267.356.356.8.356 1.245.089.71-.267 1.333-.89 1.689 0 .977.356 1.955.979 2.666Zm-.89-4.533c.09-.356-.089-.711-.445-.889-.355.089-.534.444-.534.8-.088.356.09.711.445.889.356-.089.623-.444.534-.8Zm-.623-1.6c-.622.178-.89.889-.711 1.867-.09-.623.178-1.245.622-1.69.267-.177.09-.266.09-.266v.089Zm-5.427-18.756c-.8-1.6-1.957-3.022-3.381-4.088.089-.09 2.046-1.867 3.648-2.223 1.601-.355 2.135 3.467 2.58 4.8l-1.512.622a2.465 2.465 0 0 1 0 1.6c-.09-.444-.178-.977-.356-1.422l-.979.711Zm-12.012 8.978c-.355.445-.444 2.4-.355 3.734-1.691-.534-3.47-.712-5.25-.623.356-1.244.534-2.489.356-3.733.8.622 4.004.711 5.25.622Zm8.097-4.267c-1.246.09-2.402.534-3.47 1.156-.089-1.689-1.69-4.089-2.491-5.333 1.601-.09 4.449-1.511 4.449-1.511-.356 1.6.533 4.088 1.512 5.689Zm13.346-7.822a6.75 6.75 0 0 0-2.669 0c-.178-1.155-.356-3.555.089-4.533a7.69 7.69 0 0 1 3.47.267c-.623 1.333-.979 2.755-.89 4.266ZM21.1 18.756s-1.513-2.223-2.759-2.667a7.406 7.406 0 0 0 1.78-1.956 6.43 6.43 0 0 1 2.669 2.667c-.712.533-1.246 1.244-1.69 1.956Zm17.35 6.133c1.69-.89 3.38-4.09 3.38-4.09.801.979 1.691 1.779 2.759 2.49-.534 1.866-2.67 3.733-3.292 4.089-.267-.356-.534-.711-.89-.978-.712.711-1.246 1.689-1.512 2.667.177-1.067.622-2.045 1.156-2.934L38.45 24.89Zm8.007 9.155c.178-.622-.623-2.666-1.334-4.088 2.046-.178 4.004-.8 5.783-1.867.178 1.422.623 2.844 1.335 4.089-1.068-.178-4.538 1.155-5.784 1.866Zm-2.758-7.555c1.424-.89 3.381-2.756 3.826-4.267a13.678 13.678 0 0 0 3.203 3.2c-1.245.711-3.737 2.222-4.538 3.556a6.69 6.69 0 0 0-2.49-2.49Zm-7.118-7.111c.534-1.067 1.69-4.09 1.602-4.978 1.067.622 2.313.978 3.559 1.155-.801 1.512-1.335 3.2-1.513 4.89-1.157-.623-3.025-1.334-3.559-1.156l-.089.089Zm-1.157 5.333A9.219 9.219 0 0 1 33.911 28c.534-1.067.8-2.222.89-3.467l-1.424-.355c.89-1.156 1.068-3.734 1.157-4.978 1.245.622 2.491 1.067 3.826 1.244-1.068.89-1.78 3.2-1.958 4.8l-.979-.533Zm-5.25-7.022c.89 0 1.691-.178 2.492-.534 0 1.245.267 2.4.712 3.556-.89 0-1.69.178-2.491.533 0-1.244-.267-2.4-.712-3.555Zm16.995.8c-.89.71-1.69 1.6-2.135 2.666a5.56 5.56 0 0 0-1.958-.888c.356-.89.979-2.667 1.602-3.2.89.266 1.78.71 2.491 1.333v.089Zm-32.654 6.844c-.534-1.422-2.758-3.11-2.758-3.11.8-.534 1.513-1.067 2.136-1.779 1.245.712 2.224 1.69 2.847 2.934-.801.533-1.602 1.155-2.225 1.955Z"/><path d="M15.137 45.6h30.697v.445H15.137V45.6Zm-1.78 3.022h-.177c-4.538-4.177-7.296-9.866-7.919-16 .089-.177.178-.177.356-.177l.089.088c.623 5.956 3.38 11.556 7.83 15.645a.27.27 0 0 1 0 .355h-.178v.09Zm34.256 0h-.178a.27.27 0 0 1 0-.355c4.449-4.09 7.207-9.69 7.83-15.734-.09-.177 0-.266.178-.355.178-.089.267 0 .356.178 0 .089 0 .177-.09.266a25.532 25.532 0 0 1-7.918 16h-.178ZM73.06 27.378h-3.292v-.356h.356c.178 0 .267 0 .356-.089.089 0 .178-.089.266-.177.09-.09.09-.178.09-.356v-5.244c0-.09 0-.178-.09-.267 0-.089-.088-.178-.266-.178-.09 0-.267-.089-.356-.089-.09 0-.267-.089-.356-.089v-.355h3.292v.355h-.356c-.178 0-.267.09-.356.09-.089 0-.178.088-.267.177 0 .089-.089.178-.089.267v5.244c0 .089 0 .178.09.267.088.089.088.178.266.178.09 0 .178.088.356.088s.267.09.445.09l-.09.444Zm8.275-6.845c-.09 0-.267 0-.445.09-.178.088-.356.088-.445.177-.09.089-.178.267-.267.444 0 .267-.09.534-.09.89v5.244h-.444l-4.36-5.867v3.733c0 .445 0 .712.09.978.088.267.088.356.266.445a.68.68 0 0 0 .445.177c.267.09.445.09.445.09v.444h-2.936v-.356c.089 0 .267 0 .445-.089s.355-.089.445-.177c.089-.09.177-.267.266-.445 0-.178.09-.533.09-.978v-3.555c0-.178 0-.267-.09-.445-.089-.177-.089-.266-.177-.355-.09-.09-.267-.178-.534-.267-.178-.089-.356-.089-.534-.089v-.355h2.046l4.093 5.51v-3.466c0-.444 0-.711-.089-.978-.089-.266-.089-.355-.267-.444-.089-.089-.267-.089-.445-.178s-.356-.089-.534-.089v-.355h2.937l.089.266Zm6.495 1.6h-.356c0-.089-.09-.266-.178-.444-.09-.178-.178-.356-.267-.445-.089-.177-.178-.266-.356-.444-.089-.089-.267-.178-.356-.178H85.25V26.4c0 .089 0 .178.09.267.088.088.088.177.266.177.09 0 .178.09.356.09s.356.088.445.088v.356h-3.38v-.356h.444c.178 0 .356-.089.445-.089.089 0 .178-.089.267-.177.089-.09.089-.178.089-.356v-5.778h-1.068c-.089 0-.267.09-.356.178-.089.089-.267.267-.356.444-.089.178-.178.356-.267.445-.089.178-.089.355-.178.444h-.534v-1.955h6.318v1.955Zm6.584 3.111-.178 2.134h-5.961v-.356h.444c.178 0 .267-.089.356-.089.09-.089.178-.089.267-.177 0-.09.09-.178.09-.267v-5.245c0-.088 0-.177-.09-.266 0-.09-.089-.178-.267-.178-.089 0-.178-.089-.356-.089-.177 0-.266-.089-.355-.089v-.355h5.605v1.777h-.356c-.089-.266-.178-.533-.445-.8-.267-.266-.445-.444-.623-.444H90.5v2.844h.8c.268 0 .446 0 .535-.088.089-.09.266-.09.355-.267.09-.089.178-.267.178-.356.09-.177.09-.355.09-.444h.355v2.844h-.356c0-.177-.089-.355-.089-.533-.089-.178-.089-.356-.178-.356-.088-.088-.266-.177-.355-.266-.09 0-.267-.09-.534-.09h-.801v2.134c0 .178 0 .356.089.534.089.177.089.177.178.266.089.09.178.09.356.09h1.512c.09 0 .267 0 .356-.09.178 0 .267-.089.267-.178.178-.177.356-.444.534-.71l.356-.712h.267v-.178Zm7.83 2.134h-1.958c-.445-.711-.8-1.245-1.157-1.778a17.072 17.072 0 0 0-1.156-1.511h-.712V26.4c0 .089 0 .267.089.356 0 .088.089.177.267.177.089 0 .178.09.356.09h.356v.355h-3.025v-.356h.355c.178 0 .267 0 .356-.089a.191.191 0 0 0 .178-.177c.09-.09.09-.178.09-.356v-5.244c0-.09 0-.267-.09-.356 0-.089-.089-.178-.267-.178-.088 0-.177-.089-.356-.089-.177 0-.266 0-.355-.089v-.355h3.292c.267 0 .622 0 .89.089.266.089.533.177.711.266l.534.534c.089.177.178.444.178.8 0 .266 0 .533-.089.71-.089.179-.178.356-.356.534-.178.178-.356.267-.534.356a6.145 6.145 0 0 1-.712.266c.356.445.623.89.89 1.156.267.355.534.711.89 1.155.178.178.267.356.445.445.178.089.267.178.356.267.089.088.178.088.356.088h.356v.623h-.178Zm-2.67-5.334c0-.444-.089-.8-.355-1.066-.267-.267-.623-.356-1.068-.356h-.89v3.111h.623c.445 0 .89-.178 1.157-.444.356-.356.533-.8.533-1.245Z"/><path d="M109.184 27.378h-3.026v-.356c.267 0 .445-.089.623-.089.178-.089.267-.089.267-.177v-.178l-.623-1.6h-2.491c-.089.266-.178.444-.267.622-.089.178-.089.356-.178.444 0 .178-.089.267-.089.356v.267c0 .177.089.266.356.355.178.09.445.09.712.09v.266h-2.758v-.356c.089 0 .178 0 .356-.089s.267-.089.356-.089c.177-.088.266-.177.355-.266a.679.679 0 0 0 .178-.445c.356-.889.801-1.955 1.157-3.022.445-1.155.801-2.133 1.157-3.022h.445l2.402 6.222c.089.089.089.267.178.356l.267.266c.089.09.178.09.267.09.089 0 .267.088.356.088v.267Zm-2.848-2.934-1.067-2.755-1.068 2.755h2.135Zm6.318 3.112c-.445 0-.801-.09-1.246-.267-.445-.178-.712-.445-1.068-.711-.267-.356-.534-.711-.712-1.156a4.168 4.168 0 0 1-.266-1.51c0-.534.089-1.068.266-1.6.178-.445.445-.89.712-1.245.267-.356.712-.623 1.068-.8.445-.178.89-.267 1.335-.267.355 0 .711 0 .978.089s.534.178.801.355l.178-.355h.445l.089 2.578h-.445l-.267-.8c-.089-.267-.267-.534-.356-.711-.178-.267-.356-.445-.534-.534-.267-.089-.445-.178-.8-.178-.356 0-.623.09-.89.178-.267.178-.534.356-.712.622a2.965 2.965 0 0 0-.445 1.067c-.089.445-.178.889-.178 1.422 0 .445.089.89.178 1.245.089.355.267.71.534.978.178.266.445.533.801.71.267.178.623.267.978.267.267 0 .534 0 .801-.089.267-.088.445-.177.623-.355s.356-.356.445-.533c.089-.178.267-.356.356-.623l.356.178c-.267.711-.712 1.245-1.157 1.511-.623.356-1.246.534-1.868.534Zm9.342-5.423h-.356c0-.089-.089-.266-.178-.444s-.178-.356-.267-.445c-.089-.177-.178-.266-.356-.444s-.267-.178-.356-.178h-1.067V26.4c0 .089 0 .178.089.267.089.089.089.177.267.177.089 0 .178.09.356.09.177 0 .355.088.444.088v.356h-3.381v-.356h.445c.178 0 .356-.089.445-.089.089 0 .178-.089.267-.177.089-.09.089-.178.089-.356v-5.778h-1.068c-.089 0-.267.09-.356.178-.089.089-.267.267-.356.444-.088.178-.177.356-.266.445-.089.178-.089.355-.178.444h-.356v-1.955h6.317v1.955h-.178Zm3.737 5.245h-3.292v-.356h.356c.178 0 .267 0 .356-.089.089 0 .178-.089.267-.177.089-.09.089-.178.089-.356v-5.244c0-.09 0-.178-.089-.267-.089-.089-.089-.178-.267-.178-.089 0-.267-.089-.356-.089-.089 0-.267-.089-.356-.089v-.355h3.292v.355h-.356c-.089 0-.267.09-.356.09-.089 0-.178.088-.267.177-.089.089-.089.178-.089.267v5.244c0 .089 0 .178.089.267.089.089.089.178.267.178.089 0 .178.088.356.088s.267.09.445.09v.444h-.089Zm6.762-6.311c.356.355.534.71.712 1.244.178.445.267.978.267 1.6 0 .533-.089 1.067-.267 1.6-.178.445-.445.889-.801 1.156-.356.355-.712.533-1.068.71a3.57 3.57 0 0 1-1.334.267c-.534 0-.979-.088-1.424-.266a2.43 2.43 0 0 1-1.068-.8c-.267-.356-.533-.711-.711-1.156a4.147 4.147 0 0 1-.267-1.51c0-.623.089-1.068.267-1.6.178-.445.444-.89.8-1.156a4.18 4.18 0 0 1 1.068-.8c.445-.178.89-.267 1.335-.267.445 0 .889.089 1.334.267.445.088.801.355 1.157.71Zm-.801 5.066c.178-.266.356-.622.445-1.066.089-.356.089-.8.089-1.334 0-.533-.089-.977-.178-1.333a2.965 2.965 0 0 0-.445-1.067 2.708 2.708 0 0 0-.712-.71c-.266-.179-.622-.267-.978-.267-.445 0-.712.088-1.068.266a2.708 2.708 0 0 0-.712.711c-.178.267-.267.623-.356 1.067-.089.444-.089.8-.089 1.244 0 .445.089.89.089 1.334.089.355.267.71.445 1.066.178.267.445.534.712.712.267.177.623.266.979.266s.712-.089.978-.266c.445-.09.623-.356.801-.623Zm10.143-5.6c-.089 0-.267 0-.445.09-.177.088-.355.088-.444.177-.089.089-.178.267-.267.444-.089.178-.089.534-.089.89v5.244h-.445l-4.36-5.867v3.733c0 .445 0 .712.089.978.089.267.178.356.267.445a.68.68 0 0 0 .445.177c.267.09.445.09.445.09v.444h-2.936v-.356c.089 0 .266 0 .444-.089s.356-.089.445-.177c.089-.09.178-.267.267-.445.089-.178.089-.533.089-.978v-3.555c0-.178 0-.267-.089-.445-.089-.177-.089-.266-.178-.355-.089-.09-.267-.178-.534-.267-.178-.089-.355-.089-.533-.089v-.355h2.046l4.093 5.51v-3.466c0-.444 0-.711-.089-.978-.089-.266-.089-.355-.267-.444-.089-.089-.267-.089-.445-.178s-.356-.089-.534-.089v-.355h2.936v.266h.089Zm9.966 3.29c0 .621-.089 1.155-.356 1.6-.267.444-.534.8-.89 1.066-.356.267-.801.533-1.246.622-.445.089-.978.178-1.423.178h-3.025v-.356h.355c.178 0 .267 0 .356-.089.089 0 .178-.088.178-.177.089-.09.089-.178.089-.356v-5.155c0-.09 0-.178-.089-.267 0-.089-.089-.178-.267-.178-.089-.089-.178-.089-.356-.089-.089 0-.266 0-.355-.089v-.355h3.114c.445 0 .889.089 1.245.178.356.088.801.355 1.068.533.445.267.801.711.979 1.155.178.445.623 1.156.623 1.778Zm-1.246 0c0-.445-.089-.89-.178-1.334-.089-.356-.356-.711-.534-.978-.267-.267-.534-.533-.89-.622-.356-.089-.711-.267-1.156-.267h-.801v5.511c0 .267.089.534.267.623.178.088.445.177.801.177.444 0 .8-.089 1.156-.266.356-.178.623-.356.801-.623.178-.266.356-.622.445-.977.089-.356.089-.8.089-1.245Zm8.186 1.421-.178 2.134h-5.962v-.356h.445c.178 0 .267-.089.356-.089.089-.089.178-.089.267-.177 0-.09.089-.178.089-.267v-5.245c0-.088 0-.177-.089-.266 0-.09-.089-.178-.267-.178-.089 0-.178-.089-.356-.089s-.267-.089-.356-.089v-.355h5.606v1.777h-.356c-.089-.266-.178-.533-.445-.8-.267-.266-.445-.444-.623-.444h-2.046v2.844h.8c.267 0 .445 0 .534-.088.089-.09.267-.09.356-.267.089-.089.178-.267.178-.356.089-.177.089-.355.089-.444h.356v2.844h-.356c0-.177-.089-.355-.089-.533-.089-.178-.089-.356-.178-.356-.089-.088-.267-.177-.356-.266-.089 0-.267-.09-.534-.09h-.8v2.134c0 .178 0 .356.089.534.089.177.089.177.178.266.089.09.178.09.356.09h1.512c.089 0 .267 0 .356-.09.089-.089.267-.089.267-.178.178-.177.356-.444.534-.71l.356-.712h.267v-.178Zm5.249-1.155c.178.178.267.355.356.533.089.178.089.445.089.711 0 .623-.267 1.156-.712 1.6-.445.445-1.068.623-1.779.623-.356 0-.623-.09-.979-.178-.356-.09-.623-.178-.801-.356l-.178.356h-.445l-.089-2.49h.445c.089.268.178.623.267.8.089.268.267.445.445.712.178.178.356.356.623.444.267.09.534.178.801.178s.445 0 .622-.089c.178-.089.356-.177.445-.266.089-.09.178-.267.267-.356.089-.178.089-.355.089-.533 0-.267-.089-.534-.267-.8a1.386 1.386 0 0 0-.711-.534c-.178-.088-.445-.177-.801-.266-.267-.09-.534-.178-.712-.267-.445-.178-.712-.444-.979-.711-.267-.267-.356-.711-.356-1.156 0-.266.089-.533.178-.8.089-.266.267-.444.445-.622s.445-.355.712-.444c.267-.09.534-.178.801-.178.356 0 .623.089.889.178.267.089.534.178.712.355l.178-.355h.445v2.4h-.445l-.267-.8a2.659 2.659 0 0 0-.356-.711c-.178-.178-.355-.356-.533-.445a1.779 1.779 0 0 0-.801-.178c-.356 0-.623.09-.801.267-.267.178-.356.445-.356.8 0 .356.089.533.178.8.178.178.356.356.623.533.267.09.534.178.712.267.267.089.445.178.711.267.178.089.356.178.623.266.445.178.534.267.712.445Zm4.538 3.289h-3.203v-.356h.356c.178 0 .267 0 .356-.089.089 0 .177-.089.266-.177.089-.09.089-.178.089-.356v-5.244c0-.09 0-.178-.089-.267 0-.089-.089-.178-.266-.178-.089 0-.267-.089-.356-.089-.178 0-.267-.089-.356-.089v-.355h3.292v.355h-.356c-.178 0-.267.09-.356.09-.089 0-.178.088-.267.177 0 .089-.089.178-.089.267v5.244c0 .089 0 .178.089.267.089.089.178.178.267.178.089 0 .178.088.356.088s.267.09.445.09v.444h-.178Zm7.83-2.845c-.089 0-.178 0-.356.09-.178 0-.267.088-.356.088-.089.089-.178.089-.178.178s-.089.178-.089.355v1.69c-.445.177-.89.355-1.335.444-.445.089-.889.178-1.334.178-.445 0-.89-.09-1.335-.267-.445-.178-.801-.445-1.157-.711-.356-.356-.534-.711-.8-1.156a4.147 4.147 0 0 1-.267-1.51c0-.534.089-1.068.267-1.512.178-.444.444-.889.8-1.244.356-.356.712-.623 1.157-.8.445-.178.89-.267 1.424-.267.444 0 .8.089 1.067.178.267.089.534.177.801.355l.178-.355h.445l.089 2.489h-.445l-.267-.8a1.935 1.935 0 0 0-.445-.712c-.178-.177-.356-.355-.623-.533-.267-.089-.533-.178-.889-.178s-.712.09-.979.178c-.267.178-.534.356-.712.622a2.965 2.965 0 0 0-.445 1.067c-.089.444-.178.889-.178 1.422 0 .445.089.89.178 1.334.089.444.267.8.445 1.066a2.1 2.1 0 0 0 .801.711c.356.178.712.267 1.068.267.267 0 .533-.089.8-.178s.445-.178.534-.266v-1.334c0-.178 0-.266-.089-.355 0-.09-.089-.178-.267-.267-.089-.089-.267-.089-.445-.089s-.355 0-.444-.089v-.355h3.203v.266h.178Zm8.007-4c-.089 0-.267 0-.445.09-.177.088-.355.088-.444.177-.089.089-.178.267-.267.444 0 .267-.089.534-.089.89v5.244h-.445l-4.36-5.867v3.733c0 .445 0 .712.089.978.089.267.089.356.267.445a.68.68 0 0 0 .445.177c.178 0 .445.09.445.09v.444h-2.936v-.356c.089 0 .266 0 .444-.089s.356-.089.445-.177c.089-.09.178-.267.267-.445.089-.178.089-.533.089-.978v-3.555c0-.178 0-.267-.089-.445-.089-.177-.089-.266-.178-.355-.089-.09-.267-.178-.534-.267-.178-.089-.355-.089-.533-.089v-.355h2.046l4.093 5.51v-3.466c0-.444 0-.711-.089-.978-.089-.266-.089-.355-.267-.444-.089-.089-.267-.089-.445-.178s-.356-.089-.534-.089v-.355h2.936v.266h.089ZM79.288 35.111h-.623c-.089-.444-.356-.889-.712-1.422-.356-.533-.711-.8-1.067-.8-.178 0-.356 0-.623-.089h-2.758v4.711h1.334c.445 0 .712 0 .979-.089s.445-.177.623-.355c.089-.09.178-.267.267-.534.089-.266.178-.533.178-.8h.623v4.623h-.623c0-.267-.09-.534-.178-.8a6.138 6.138 0 0 0-.267-.712c-.178-.177-.356-.355-.623-.444-.267-.089-.534-.089-.89-.089h-1.334v4c0 .178 0 .356.089.445a.695.695 0 0 0 .355.355c.09 0 .267.089.534.178s.445.089.623.089v.533h-5.071v-.622c.178 0 .356 0 .623-.089.266 0 .444-.089.533-.089a.694.694 0 0 0 .356-.355c.09-.178.09-.267.09-.534v-8.444c0-.178 0-.356-.09-.445a.694.694 0 0 0-.356-.355c-.178-.09-.356-.178-.623-.178-.266-.089-.444-.089-.622-.089v-.622h9.164l.09 3.022Zm10.5-1.511c.533.533.889 1.156 1.245 1.956.267.8.445 1.6.445 2.489a7.29 7.29 0 0 1-.445 2.488 5.649 5.649 0 0 1-1.246 1.956c-.534.533-1.068.978-1.78 1.244-.711.267-1.423.445-2.135.445-.8 0-1.601-.178-2.224-.445-.712-.266-1.246-.71-1.78-1.244-.533-.533-.89-1.156-1.156-1.956-.267-.8-.445-1.6-.445-2.489 0-.977.178-1.777.445-2.577a5.65 5.65 0 0 1 1.245-1.956c.534-.533 1.157-.978 1.78-1.244.712-.267 1.423-.445 2.135-.445.801 0 1.513.178 2.225.445.622.355 1.245.8 1.69 1.333Zm-1.247 8.267c.267-.534.534-1.067.712-1.69.178-.621.178-1.333.178-2.133s-.089-1.51-.267-2.222c-.178-.71-.356-1.244-.712-1.689-.266-.444-.711-.8-1.156-1.066-.445-.267-.979-.356-1.602-.356-.623 0-1.245.178-1.69.445-.445.266-.801.71-1.157 1.244-.267.444-.445 1.067-.623 1.689-.178.622-.178 1.333-.178 2.044 0 .8.09 1.511.178 2.134.178.622.356 1.244.712 1.689a3.59 3.59 0 0 0 1.157 1.155c.445.267.978.445 1.601.445s1.157-.178 1.602-.445c.623-.355.978-.711 1.245-1.244Zm16.194-9.067c-.178 0-.356 0-.712.089a3.015 3.015 0 0 0-.712.267c-.178.089-.356.355-.356.8 0 .444-.089.888-.089 1.422v5.066c0 .623-.178 1.245-.444 1.69-.267.444-.623.888-1.068 1.155-.445.267-.89.533-1.335.622-.445.089-.979.178-1.423.178-.712 0-1.335-.089-1.869-.267-.534-.178-.979-.444-1.424-.71a4.18 4.18 0 0 1-.8-1.068c-.178-.444-.267-.8-.267-1.244v-6.933c0-.178 0-.356-.09-.445-.088-.089-.177-.266-.355-.355-.178-.09-.356-.178-.534-.178-.178-.089-.356-.089-.534-.089v-.622h4.894v.622c-.178 0-.356 0-.623.089-.267 0-.445.089-.534.089-.178.089-.356.178-.356.355-.089.178-.089.356-.089.534v6.489c0 .355 0 .622.09.977.088.356.177.623.444.978.178.267.534.533.89.711.356.178.89.267 1.513.267.622 0 1.156-.089 1.512-.267.445-.178.712-.444.979-.8.267-.266.356-.622.445-.889.089-.355.178-.622.178-.977v-4.8c0-.623 0-1.067-.089-1.511-.089-.356-.178-.623-.356-.8-.178-.178-.445-.267-.801-.356-.356-.089-.623-.089-.801-.089v-.622h4.805l-.089.622Zm12.99 0c-.178 0-.356.089-.712.089-.356.089-.533.178-.711.267-.178.177-.356.444-.356.8-.089.355-.089.888-.089 1.51V44h-.712l-7.118-9.6v6.044c0 .712 0 1.156.089 1.6.089.356.178.623.356.8.089.09.356.267.801.356.355.089.622.178.8.178v.533h-4.804v-.622c.178 0 .356-.089.712-.178.355-.089.533-.178.622-.267.178-.177.356-.355.356-.71 0-.356.089-.89.089-1.6v-5.778c0-.267 0-.534-.089-.8-.089-.267-.178-.445-.356-.623a1.723 1.723 0 0 0-.8-.444c-.356-.089-.623-.178-.801-.178v-.622h3.381l6.584 8.889v-5.6c0-.711 0-1.245-.089-1.6-.089-.356-.178-.622-.356-.711a6.136 6.136 0 0 0-.712-.267c-.267-.089-.623-.178-.8-.178V32h4.804l-.089.8Zm12.19 5.333c0 .978-.178 1.867-.534 2.578a5.71 5.71 0 0 1-1.424 1.778c-.623.444-1.245.8-2.046 1.067-.801.266-1.513.355-2.313.355h-4.894v-.622c.178 0 .356 0 .623-.089.267 0 .445-.089.534-.089a.689.689 0 0 0 .355-.355c.089-.178.089-.267.089-.534v-8.444c0-.178 0-.356-.089-.533a.689.689 0 0 0-.355-.356c-.178-.089-.356-.178-.534-.178-.178 0-.356-.089-.534-.089V32h5.16c.712 0 1.424.089 2.047.356.712.177 1.246.533 1.779.889.712.533 1.246 1.155 1.602 1.955.356.889.534 1.867.534 2.933Zm-2.047 0c0-.8-.089-1.51-.356-2.133-.178-.622-.533-1.156-.889-1.689a3.54 3.54 0 0 0-1.424-1.066c-.534-.267-1.157-.356-1.868-.356h-1.424v8.978c0 .533.178.889.445 1.066.267.178.712.267 1.335.267.711 0 1.334-.089 1.868-.356.534-.266.979-.622 1.246-1.066a3.29 3.29 0 0 0 .711-1.6c.089-.622.356-1.245.356-2.045Zm14.414 5.778h-4.893v-.622c.445 0 .8-.089 1.067-.178.267-.089.445-.178.445-.267v-.177c0-.09 0-.178-.089-.178l-.978-2.578h-4.093c-.178.356-.267.711-.356.978l-.267.8c-.089.267-.089.444-.178.622v.356c0 .177.178.355.534.533.356.089.712.178 1.156.178v.533h-4.448v-.622c.178 0 .356 0 .534-.089.177-.089.355-.089.533-.178.178-.178.356-.266.534-.444.089-.178.267-.356.356-.711a200.939 200.939 0 0 0 1.958-4.978c.711-1.867 1.334-3.467 1.868-4.889h.623l3.915 10.133.267.534c.089.177.267.266.445.355.089.09.266.178.533.178s.356.089.534.089v.622Zm-4.715-4.8-1.78-4.533-1.779 4.533h3.559Zm14.68-3.733h-.533a6.119 6.119 0 0 1-.267-.711c-.089-.267-.267-.534-.445-.8-.178-.267-.356-.445-.534-.622-.178-.178-.356-.267-.534-.356-.178 0-.356 0-.623-.089h-1.156v9.333c0 .178 0 .356.089.534.089.177.178.266.444.355.089 0 .267.09.623.178.356.089.534.089.712.089v.622h-5.516v-.622c.178 0 .356 0 .711-.089.356-.089.534-.089.623-.089.178-.089.356-.178.445-.267.089-.088.089-.355.089-.533V32.89h-1.068c-.267 0-.533 0-.711.089-.178 0-.356.089-.534.355-.178.178-.356.445-.534.623-.178.266-.267.533-.445.8-.178.266-.178.533-.267.71h-.534v-3.2h10.232v3.112h-.267Zm6.051 8.533h-5.25v-.622c.178 0 .356 0 .623-.089.267 0 .445-.089.623-.089.178-.089.356-.178.356-.267.089-.088.089-.266.089-.533v-8.444c0-.178 0-.356-.089-.445-.089-.089-.178-.266-.445-.355-.178-.09-.356-.09-.623-.178-.267-.089-.445-.089-.623-.089v-.622h5.25v.622c-.178 0-.356 0-.623.089-.267 0-.445.089-.623.178s-.356.178-.445.355c-.089.178-.089.356-.089.534V42.4c0 .178 0 .356.089.444.089.178.178.267.445.356.089 0 .267.089.534.178s.445.089.623.089v.444h.178ZM169.153 33.6c.534.533.889 1.156 1.245 1.956.267.8.445 1.6.445 2.489a7.29 7.29 0 0 1-.445 2.488 5.646 5.646 0 0 1-1.245 1.956c-.534.533-1.068.978-1.78 1.244-.712.267-1.423.445-2.135.445a5.838 5.838 0 0 1-2.225-.445c-.711-.266-1.245-.71-1.779-1.244-.534-.533-.89-1.156-1.157-1.956s-.445-1.6-.445-2.489c0-.977.178-1.777.445-2.577a5.648 5.648 0 0 1 1.246-1.956c.534-.533 1.157-.978 1.779-1.244.712-.267 1.424-.445 2.136-.445.801 0 1.512.178 2.224.445.712.266 1.246.8 1.691 1.333Zm-1.157 8.267c.267-.534.534-1.067.712-1.69.178-.621.178-1.333.178-2.133s-.089-1.51-.267-2.222c-.178-.71-.356-1.244-.712-1.689-.267-.444-.712-.8-1.157-1.066-.445-.267-.978-.356-1.601-.356s-1.246.178-1.691.445c-.445.266-.801.71-1.156 1.244-.267.444-.445 1.067-.623 1.689-.178.622-.178 1.333-.178 2.044 0 .8.089 1.511.178 2.134.178.622.356 1.244.712 1.689.266.444.711.888 1.156 1.155.445.267.979.445 1.602.445.623 0 1.156-.178 1.601-.445.534-.355.89-.711 1.246-1.244Zm16.371-9.067c-.178 0-.356.089-.711.089-.356.089-.534.178-.712.267-.178.177-.356.444-.356.8-.089.355-.089.888-.089 1.51V44h-.712l-7.207-9.511v6.044c0 .712 0 1.156.089 1.6.089.356.178.623.356.8.089.09.356.267.801.356.356.089.623.178.801.178v.444h-4.805v-.622c.178 0 .356-.089.712-.178s.534-.178.623-.267c.177-.177.355-.355.355-.71 0-.356.089-.89.089-1.6v-5.778c0-.267 0-.534-.089-.8-.089-.267-.178-.445-.355-.623a1.721 1.721 0 0 0-.801-.444c-.356-.089-.623-.178-.801-.178v-.622h3.381l6.584 8.889v-5.6c0-.711 0-1.245-.089-1.6-.089-.356-.178-.622-.356-.711a6.136 6.136 0 0 0-.712-.267c-.266-.089-.622-.178-.8-.178V32h4.804v.8ZM18.654 53.023v-4.8h2.897v.515h-2.315v1.622H21.4v.516h-2.165v1.63h2.353v.517h-2.934Zm6.42-2.794-.497.14a.924.924 0 0 0-.138-.241.67.67 0 0 0-.244-.197.884.884 0 0 0-.396-.077c-.22 0-.404.05-.55.152-.146.1-.219.227-.219.382 0 .138.05.246.15.326.1.08.256.146.469.2l.534.13c.322.079.562.198.72.359.158.16.237.365.237.616 0 .207-.06.391-.178.553a1.18 1.18 0 0 1-.493.385c-.21.094-.456.14-.736.14-.367 0-.67-.08-.911-.239a1.06 1.06 0 0 1-.457-.698l.525-.131a.73.73 0 0 0 .283.436c.14.096.325.145.551.145.258 0 .462-.055.614-.164.153-.111.23-.244.23-.398a.419.419 0 0 0-.132-.315c-.087-.085-.221-.15-.403-.192l-.6-.14c-.33-.079-.572-.2-.726-.364a.88.88 0 0 1-.23-.62c0-.204.057-.384.171-.54.116-.156.273-.279.471-.368.2-.089.427-.133.68-.133.356 0 .636.078.84.234.204.156.35.362.435.619Zm2.464-.806v.468h-1.866v-.468h1.866Zm-1.322-.863h.553v3.431c0 .157.023.274.068.352a.353.353 0 0 0 .178.154c.074.026.151.038.232.038.061 0 .111-.003.15-.01l.094-.018.113.497a1.158 1.158 0 0 1-.413.066c-.156 0-.31-.034-.46-.101a.913.913 0 0 1-.37-.308.882.882 0 0 1-.145-.52V48.56Zm2.557 4.5a.406.406 0 0 1-.298-.124.406.406 0 0 1-.124-.298c0-.115.042-.215.124-.298a.406.406 0 0 1 .298-.124c.116 0 .215.042.298.124a.406.406 0 0 1 .124.298.438.438 0 0 1-.21.366.402.402 0 0 1-.212.056ZM18.57 61.022v-.421l1.584-1.735c.186-.203.34-.38.46-.53.12-.151.21-.293.267-.426.06-.134.09-.275.09-.422a.778.778 0 0 0-.45-.724 1.063 1.063 0 0 0-.47-.1.977.977 0 0 0-.482.114.79.79 0 0 0-.317.316.992.992 0 0 0-.11.478h-.553c0-.28.065-.528.194-.74a1.35 1.35 0 0 1 .53-.497c.225-.119.477-.178.757-.178.281 0 .53.06.748.178.217.119.387.279.51.48.124.202.186.426.186.673 0 .177-.032.35-.096.518a2.288 2.288 0 0 1-.328.56c-.155.205-.37.455-.645.75l-1.078 1.153v.038h2.231v.516H18.57Zm5.562.066a1.43 1.43 0 0 1-.902-.288c-.249-.194-.439-.474-.57-.842-.131-.368-.197-.814-.197-1.335 0-.52.066-.962.197-1.33.133-.368.323-.65.572-.843.25-.196.55-.293.9-.293s.65.098.897.293c.25.194.441.475.572.844.133.367.2.81.2 1.329 0 .521-.066.967-.197 1.335s-.321.648-.57.842a1.43 1.43 0 0 1-.902.288Zm0-.516c.35 0 .622-.168.816-.506.193-.337.29-.819.29-1.444 0-.415-.044-.77-.133-1.061-.088-.292-.215-.515-.38-.668a.838.838 0 0 0-.593-.23c-.347 0-.618.171-.813.513-.196.341-.293.823-.293 1.447 0 .415.043.768.13 1.059.088.29.214.512.378.663a.854.854 0 0 0 .598.227Zm4.125.516a1.43 1.43 0 0 1-.902-.288c-.249-.194-.439-.474-.57-.842-.131-.368-.197-.814-.197-1.335 0-.52.066-.962.197-1.33.133-.368.323-.65.572-.843.25-.196.55-.293.9-.293s.65.098.897.293c.25.194.441.475.572.844.133.367.2.81.2 1.329 0 .521-.066.967-.197 1.335s-.321.648-.57.842a1.43 1.43 0 0 1-.902.288Zm0-.516c.35 0 .622-.168.816-.506.193-.337.29-.819.29-1.444 0-.415-.044-.77-.133-1.061-.088-.292-.215-.515-.38-.668a.838.838 0 0 0-.593-.23c-.347 0-.618.171-.813.513-.196.341-.293.823-.293 1.447 0 .415.043.768.13 1.059.088.29.214.512.378.663a.854.854 0 0 0 .598.227Zm2.56.45v-.421l1.584-1.735c.185-.203.339-.38.459-.53.12-.151.21-.293.267-.426.06-.134.09-.275.09-.422a.778.778 0 0 0-.45-.724c-.14-.067-.296-.1-.47-.1a.977.977 0 0 0-.482.114.791.791 0 0 0-.317.316.992.992 0 0 0-.11.478h-.553c0-.28.065-.528.194-.74a1.35 1.35 0 0 1 .53-.497c.225-.119.477-.178.757-.178.281 0 .53.06.748.178.217.119.387.279.51.48.124.202.186.426.186.673 0 .177-.032.35-.096.518a2.288 2.288 0 0 1-.328.56c-.155.205-.37.455-.645.75l-1.078 1.153v.038h2.231v.516h-3.028ZM4.114 30.188l2.909-.056.006.352-2.908.056-.007-.352ZM4.404 26.086l2.895.288-.034.34-2.43 1.35-.004.029 2.273.226-.035.35-2.895-.288.034-.339 2.437-1.356.003-.028-2.279-.227.035-.345ZM4.89 25.209l-.305-.069.477-2.129.305.068-.2.893 2.534.566-.077.344-2.534-.566-.2.893ZM8.085 23.09l-2.735-.96.58-1.65.294.104-.464 1.319.924.324.434-1.234.293.103-.433 1.234.93.326.47-1.34.294.102-.587 1.672ZM9.01 20.53l-2.618-1.279.433-.884c.1-.205.217-.355.351-.453a.746.746 0 0 1 .428-.152.981.981 0 0 1 .459.107.963.963 0 0 1 .364.295.741.741 0 0 1 .14.428c.003.163-.045.346-.144.549l-.35.716-.287-.14.346-.706a.875.875 0 0 0 .103-.367.431.431 0 0 0-.082-.272.65.65 0 0 0-.243-.19.678.678 0 0 0-.303-.076.447.447 0 0 0-.274.099.846.846 0 0 0-.232.31l-.273.557 2.338 1.141-.155.317Zm-.573-1.806 1.492-.07-.18.368-1.487.06.175-.358ZM10.427 17.89l-.2.31-1.863-2.476.197-.306 3.024.683-.2.31-2.53-.6-.012.02 1.584 2.058Zm-.88-.732.809-1.25.262.17-.809 1.25-.262-.17ZM11.85 12.627l-.225.271a.734.734 0 0 0-.545-.066.8.8 0 0 0-.247.111.973.973 0 0 0-.21.189.887.887 0 0 0-.203.454.929.929 0 0 0 .086.513c.08.175.217.343.41.504.195.16.385.265.572.312a.933.933 0 0 0 .52-.01.89.89 0 0 0 .41-.283.971.971 0 0 0 .148-.24.815.815 0 0 0 .064-.262.748.748 0 0 0-.165-.524l.226-.271c.097.115.169.238.214.367a1.089 1.089 0 0 1-.018.782c-.05.126-.121.246-.215.359a1.221 1.221 0 0 1-.564.393 1.251 1.251 0 0 1-.69.02 1.775 1.775 0 0 1-.72-.38 1.774 1.774 0 0 1-.506-.637 1.248 1.248 0 0 1-.106-.682 1.22 1.22 0 0 1 .284-.626 1.31 1.31 0 0 1 .314-.277 1.13 1.13 0 0 1 .369-.15c.13-.028.262-.032.397-.01.135.02.268.068.4.143ZM11.689 11.889l-.22-.226 1.58-1.534.22.226-.663.643 1.828 1.878-.256.248-1.827-1.878-.662.643ZM14.077 9.453l1.8 2.262-.274.218-1.8-2.263.274-.217ZM18.283 8.297c.166.257.263.51.291.758.028.248-.006.475-.103.681-.097.207-.25.377-.458.511a1.22 1.22 0 0 1-.655.206c-.228.003-.45-.06-.664-.188a1.773 1.773 0 0 1-.57-.578 1.772 1.772 0 0 1-.292-.759 1.246 1.246 0 0 1 .103-.681c.097-.206.25-.377.458-.511a1.22 1.22 0 0 1 .655-.206c.228-.002.45.06.664.188.214.128.404.32.57.579Zm-.287.184a1.45 1.45 0 0 0-.452-.467.917.917 0 0 0-.499-.147.881.881 0 0 0-.473.146.887.887 0 0 0-.33.371.927.927 0 0 0-.073.515c.024.19.104.391.241.603.137.212.287.368.45.468a.93.93 0 0 0 .5.147.888.888 0 0 0 .474-.147.88.88 0 0 0 .33-.37.915.915 0 0 0 .071-.514 1.45 1.45 0 0 0-.239-.605ZM20.401 5.613l1.244 2.63-.308.145-2.41-1.387-.026.012.977 2.064-.319.15-1.244-2.629.308-.145 2.418 1.39.026-.012-.98-2.07.314-.148ZM24.483 7.347l-.871.224-.728-2.822.91-.234c.273-.07.522-.074.746-.012.224.062.415.185.573.369.157.182.274.42.35.712.075.294.088.56.038.8-.05.238-.16.44-.332.605-.17.165-.4.284-.686.358Zm-.608-.167.508-.13c.233-.061.415-.156.545-.285a.86.86 0 0 0 .244-.473 1.478 1.478 0 0 0-.04-.623 1.466 1.466 0 0 0-.264-.56.851.851 0 0 0-.431-.294 1.09 1.09 0 0 0-.587.009l-.546.14.572 2.216ZM26.58 6.894l-.38-2.877 1.737-.229.04.31-1.387.182.128.972 1.298-.17.04.308-1.297.171.128.978 1.41-.186.041.31-1.758.23ZM30.828 4.384a.446.446 0 0 0-.214-.332.796.796 0 0 0-.448-.11.848.848 0 0 0-.337.07.54.54 0 0 0-.22.176.412.412 0 0 0-.016.449c.039.054.088.1.148.135.059.035.121.063.186.086.065.021.125.038.179.052l.297.073c.076.019.16.044.254.078.095.033.185.079.272.138a.664.664 0 0 1 .308.57.766.766 0 0 1-.115.428.841.841 0 0 1-.352.31c-.155.077-.344.118-.567.123a1.334 1.334 0 0 1-.543-.09.862.862 0 0 1-.364-.274.803.803 0 0 1-.155-.416l.364-.008c.012.11.05.2.116.27a.6.6 0 0 0 .25.155c.102.032.21.047.325.045a.953.953 0 0 0 .361-.073.621.621 0 0 0 .25-.19c.062-.08.091-.174.089-.28a.342.342 0 0 0-.086-.234.594.594 0 0 0-.216-.144 2.246 2.246 0 0 0-.287-.093l-.36-.095c-.229-.061-.41-.15-.546-.27a.615.615 0 0 1-.208-.471.705.705 0 0 1 .124-.43.877.877 0 0 1 .352-.29c.149-.072.316-.109.502-.113.188-.003.355.027.502.091a.865.865 0 0 1 .352.266.68.68 0 0 1 .144.39l-.34.008ZM32.326 3.742l-.188 2.903-.352-.023.189-2.903.351.023ZM35.786 5.058a1.034 1.034 0 0 0-.078-.276.796.796 0 0 0-.638-.478.868.868 0 0 0-.489.053.929.929 0 0 0-.4.332c-.112.158-.19.362-.232.611-.043.25-.037.467.017.653a.926.926 0 0 0 .273.448.91.91 0 0 0 .458.214.891.891 0 0 0 .454-.03.76.76 0 0 0 .347-.251.959.959 0 0 0 .186-.442l.103.04-.867-.147.053-.31 1.098.187-.053.31c-.04.237-.127.435-.258.593-.13.158-.292.27-.486.337a1.273 1.273 0 0 1-.633.04A1.266 1.266 0 0 1 34 6.647a1.231 1.231 0 0 1-.362-.59 1.82 1.82 0 0 1-.026-.815c.04-.228.105-.427.197-.599.093-.172.207-.313.342-.422.134-.11.284-.185.45-.228.165-.042.34-.047.525-.016.152.026.29.074.414.142a1.156 1.156 0 0 1 .608 1l-.36-.061ZM39.487 5.175l-.851 2.782-.326-.1-.848-2.647-.027-.008-.668 2.184-.337-.103.851-2.781.326.1.852 2.653.027.009.67-2.19.331.101ZM40.522 8.815l1.338-2.591 1.554.801-.144.278-1.24-.639-.452.875 1.124.58-.144.278-1.124-.58-.599 1.16-.313-.162ZM45.614 10.153a1.773 1.773 0 0 1-.583.566c-.217.123-.44.181-.667.174a1.22 1.22 0 0 1-.651-.22 1.219 1.219 0 0 1-.447-.52 1.246 1.246 0 0 1-.09-.683 1.77 1.77 0 0 1 .308-.752c.172-.255.366-.444.583-.567a1.25 1.25 0 0 1 .668-.173c.228.007.444.08.65.219.206.138.355.312.447.52.093.209.122.437.09.684a1.772 1.772 0 0 1-.308.752Zm-.283-.19c.141-.21.225-.41.252-.6a.914.914 0 0 0-.061-.516.88.88 0 0 0-.321-.377.888.888 0 0 0-.472-.157.93.93 0 0 0-.502.136c-.166.097-.32.25-.46.46a1.464 1.464 0 0 0-.253.598.927.927 0 0 0 .061.515c.069.154.176.28.322.378.146.099.303.151.47.157a.918.918 0 0 0 .502-.137c.167-.096.321-.249.462-.458ZM48.57 10.819l.264.232-1.272 1.444a.985.985 0 0 1-.995.323 1.266 1.266 0 0 1-.536-.293 1.265 1.265 0 0 1-.36-.494.993.993 0 0 1-.053-.536c.034-.179.116-.342.248-.492l1.272-1.444.264.233-1.253 1.422a.757.757 0 0 0-.18.347.67.67 0 0 0 .028.37.87.87 0 0 0 .252.347.87.87 0 0 0 .375.205.66.66 0 0 0 .372-.02.758.758 0 0 0 .32-.222l1.254-1.422ZM51.222 13.62l-2.19 1.916-.224-.257.674-2.696-.019-.021-1.719 1.504-.232-.265 2.19-1.915.224.256-.675 2.704.019.021 1.723-1.507.229.26ZM49.994 16.927l-.502-.744 2.412-1.626.525.777c.158.234.244.467.26.698.017.231-.035.452-.155.662-.12.209-.304.398-.553.566a1.75 1.75 0 0 1-.74.303 1.155 1.155 0 0 1-.68-.11 1.51 1.51 0 0 1-.567-.526Zm-.046-.627.292.434c.135.199.285.338.45.417a.86.86 0 0 0 .527.072c.186-.031.377-.113.573-.245a1.46 1.46 0 0 0 .438-.435.847.847 0 0 0 .133-.504 1.087 1.087 0 0 0-.204-.549l-.315-.466-1.894 1.276ZM51.165 18.842l-.166-.33 3.08-.352.163.325-2.119 2.26-.166-.33 1.797-1.876-.01-.02-2.58.323Zm1.077-.388.669 1.33-.28.14-.669-1.33.28-.14ZM54.65 20.215l.293-.107.743 2.051-.294.106-.311-.86-2.441.882-.12-.33 2.44-.883-.31-.86ZM55.96 23.343l-2.814.738-.09-.341 2.815-.738.089.34ZM55.356 27.689a1.773 1.773 0 0 1-.811-.044 1.249 1.249 0 0 1-.58-.373 1.219 1.219 0 0 1-.28-.627 1.22 1.22 0 0 1 .08-.682c.09-.209.237-.385.441-.529.204-.143.458-.238.761-.284.304-.046.574-.032.812.044.238.076.431.2.58.373.15.172.242.381.28.626a1.22 1.22 0 0 1-.08.682c-.09.21-.237.386-.441.529a1.772 1.772 0 0 1-.762.285Zm-.051-.337a1.45 1.45 0 0 0 .611-.222.916.916 0 0 0 .338-.395.88.88 0 0 0 .06-.492.888.888 0 0 0-.205-.453.929.929 0 0 0-.44-.276 1.464 1.464 0 0 0-.65-.027 1.464 1.464 0 0 0-.611.22.929.929 0 0 0-.338.395.888.888 0 0 0-.06.493.881.881 0 0 0 .205.452c.11.128.256.22.44.276.184.057.4.067.65.029ZM56.903 30.691l-2.908.066-.008-.34 2.247-1.637v-.029l-2.284.052-.008-.352 2.908-.066.008.341-2.253 1.642v.029l2.29-.052.008.346Z"/></g><defs><clipPath id="clip0_103_2789"><path fill="#fff" transform="translate(.456)" d="M0 0h184v60H0z"/></clipPath></defs></svg>