<svg width="60" height="60" fill="none" xmlns="http://www.w3.org/2000/svg"><mask id="path-1-inside-1_75_53" fill="#fff"><path d="m19.026 39.047 3.603.015.04 7.02-3.35.06-.179-2.175-.015-2.453-.1-2.467Zm26.93-.178v7.63l-3.022.219-.122-4.037-.37-3.73 3.514-.082ZM9.93 38.844l5.06.263-.453 3.006v2.855l.32 1.226-4.897.23-.03-7.58Zm23.957-.196 2.947.19-.116 4.542.43 3.608-3.141-.107-.116-8.233h-.004ZM24.482 18.73l-.101.62.466.547-.033.907.412.632-.11.769.058.082-4.328.173.047-.356-1.53-.83-.05-.807.678-.034.068-1.4 4.423-.303Zm12.137-1.08-.023 1.232.955.04-.038.75-1.849 1.213-.2.604-4.358.21.023-.432.262-.422.023-.36.002-.534.157-.366.073-.375v-.215l.188-.758 4.785-.587ZM57.456 3.448l-.188.094c-5.572 2.698-12.045 4.85-18.827 6.135l-.49.077c-4.343.562-10.67 1.127-16.317 1.453-2.539.155-5.08.246-7.624.274a24.452 24.452 0 0 1-4.706-.276l.137.017a46.507 46.507 0 0 1-5.948-1.824l.324.108-.59-.234.81 2.747-2.156 1.897.58 1.022 1.032.077 2.466.308.378 1.203 1.49.134.744 2.525.215.015s3.135.27 4.129.27c.855 0 2.179-.094 2.513-.118l.056.928.673.126v.739l-1.875 1.663.367.065c-.328.023-.532.043-1.171.07-.334.02-.726.031-1.118.031-.598 0-1.19-.026-1.776-.08l.075.006a15.283 15.283 0 0 0-1.61-.2l-.053-.003h-.131l-.285.304-.107 1.044h.356l.13 2.603 6.872-.265-.48 8.627-.047.814-5.254-.298-.047-1.783h1.26l.133-.985 1.088-.25.523-.73-4.946-1.195-3.996 1.185 1.09.91h.387l.059.782 1.156.065v1.789l-1.432.367.444.947.246.16v1.933h.804v7.723l-1.325.2.228 2.922.782.131-.129 5.488 4.224.077-.75-5.396 4.645-.113-.328 2.547-.585 2.418 6.112.077.064-5.342 3.097-.281-.168 3.032-.148 2.32h3.826l-.123-5.39.412.064.158-3.26h-.57l-.135-.797-.308-3.023.115-3.195h.691v-2.77l-.853.065.094-1.889 1.007-.1.054-.826.403-.058 1.195-.911-4.28-.88-4.008.89.67 1.098.56-.047.126-.01.079 1.036.96-.047.009 1.579-3.576-.083.124-2.055.139-2.17v-2.842l.112-2.7 8.166-.416 9.735-.563.077 1.58-.356 4.567-.148 3.967-3.094-.054-.015-2.385 1.344-.049.066-.874.632-.095-.029-.133.357-.023.678-.91-4.71-1.104-4.653.998.604 1.054.328-.025v.208h.575v.942l1.228.018-.015 2.007h-1.235l-.034 1.183.439.05-.049 2.292.92.046-.102 8.47-1.227.253.038.992h.412v2.308h.677l-.163 2.824-.262 3.078 5.084.134-.163-2.747-.322-1.988-.05-1.39 3.104-.055-.093 2.347-.021 3.116 2.42.192 2.935-.117 1.249-.367-.585-1.781-.124-2.344-.188-1.367 2.89-.105-.133 1.738-.015 3.55 1.728.16 1.48-.037.975-.303-.439-3.336-.114-2.02.585-.063.015-2.096.187-.04-.064-1.007h-.71l-.115-1.235-.054-6.308.52-.015v-2.113l.224.032v-1.08l-.781-.064.014-1.96 1.335-.12-.076-.847.609-.049-.056-.273 1.36-.679-4.818-.967-4.404.89.542 1.013.523-.047.032.18h.476l.026.997 1.283-.015.082 1.812-3.913-.029-.497-3.414-.416-1.935-.34-3.443.177-1.747 9.013-.686.028-3.085.47-.116-.054-.89-.56-.323h-.086l-.837.116-1.858.272c-1.267.185-2.537.354-3.808.506l-.444.047-.036-.416-1.84-.96.016-.645.635-.019.047-1.575c.21-.015.825-.056 1.806-.144a28.489 28.489 0 0 0 3.37-.452l-.18.03c1.398-.328 3.4-.656 3.4-.656l.178-.03.957-2.597 1.886-.548.154-.43 4.17-1.154.716-.59-1.68-3.664.11-.553.807-.422.695-2.123-.59-.523.004.011Z"/></mask><path d="m19.026 39.047 3.603.015.04 7.02-3.35.06-.179-2.175-.015-2.453-.1-2.467Zm26.93-.178v7.63l-3.022.219-.122-4.037-.37-3.73 3.514-.082ZM9.93 38.844l5.06.263-.453 3.006v2.855l.32 1.226-4.897.23-.03-7.58Zm23.957-.196 2.947.19-.116 4.542.43 3.608-3.141-.107-.116-8.233h-.004ZM24.482 18.73l-.101.62.466.547-.033.907.412.632-.11.769.058.082-4.328.173.047-.356-1.53-.83-.05-.807.678-.034.068-1.4 4.423-.303Zm12.137-1.08-.023 1.232.955.04-.038.75-1.849 1.213-.2.604-4.358.21.023-.432.262-.422.023-.36.002-.534.157-.366.073-.375v-.215l.188-.758 4.785-.587ZM57.456 3.448l-.188.094c-5.572 2.698-12.045 4.85-18.827 6.135l-.49.077c-4.343.562-10.67 1.127-16.317 1.453-2.539.155-5.08.246-7.624.274a24.452 24.452 0 0 1-4.706-.276l.137.017a46.507 46.507 0 0 1-5.948-1.824l.324.108-.59-.234.81 2.747-2.156 1.897.58 1.022 1.032.077 2.466.308.378 1.203 1.49.134.744 2.525.215.015s3.135.27 4.129.27c.855 0 2.179-.094 2.513-.118l.056.928.673.126v.739l-1.875 1.663.367.065c-.328.023-.532.043-1.171.07-.334.02-.726.031-1.118.031-.598 0-1.19-.026-1.776-.08l.075.006a15.283 15.283 0 0 0-1.61-.2l-.053-.003h-.131l-.285.304-.107 1.044h.356l.13 2.603 6.872-.265-.48 8.627-.047.814-5.254-.298-.047-1.783h1.26l.133-.985 1.088-.25.523-.73-4.946-1.195-3.996 1.185 1.09.91h.387l.059.782 1.156.065v1.789l-1.432.367.444.947.246.16v1.933h.804v7.723l-1.325.2.228 2.922.782.131-.129 5.488 4.224.077-.75-5.396 4.645-.113-.328 2.547-.585 2.418 6.112.077.064-5.342 3.097-.281-.168 3.032-.148 2.32h3.826l-.123-5.39.412.064.158-3.26h-.57l-.135-.797-.308-3.023.115-3.195h.691v-2.77l-.853.065.094-1.889 1.007-.1.054-.826.403-.058 1.195-.911-4.28-.88-4.008.89.67 1.098.56-.047.126-.01.079 1.036.96-.047.009 1.579-3.576-.083.124-2.055.139-2.17v-2.842l.112-2.7 8.166-.416 9.735-.563.077 1.58-.356 4.567-.148 3.967-3.094-.054-.015-2.385 1.344-.049.066-.874.632-.095-.029-.133.357-.023.678-.91-4.71-1.104-4.653.998.604 1.054.328-.025v.208h.575v.942l1.228.018-.015 2.007h-1.235l-.034 1.183.439.05-.049 2.292.92.046-.102 8.47-1.227.253.038.992h.412v2.308h.677l-.163 2.824-.262 3.078 5.084.134-.163-2.747-.322-1.988-.05-1.39 3.104-.055-.093 2.347-.021 3.116 2.42.192 2.935-.117 1.249-.367-.585-1.781-.124-2.344-.188-1.367 2.89-.105-.133 1.738-.015 3.55 1.728.16 1.48-.037.975-.303-.439-3.336-.114-2.02.585-.063.015-2.096.187-.04-.064-1.007h-.71l-.115-1.235-.054-6.308.52-.015v-2.113l.224.032v-1.08l-.781-.064.014-1.96 1.335-.12-.076-.847.609-.049-.056-.273 1.36-.679-4.818-.967-4.404.89.542 1.013.523-.047.032.18h.476l.026.997 1.283-.015.082 1.812-3.913-.029-.497-3.414-.416-1.935-.34-3.443.177-1.747 9.013-.686.028-3.085.47-.116-.054-.89-.56-.323h-.086l-.837.116-1.858.272c-1.267.185-2.537.354-3.808.506l-.444.047-.036-.416-1.84-.96.016-.645.635-.019.047-1.575c.21-.015.825-.056 1.806-.144a28.489 28.489 0 0 0 3.37-.452l-.18.03c1.398-.328 3.4-.656 3.4-.656l.178-.03.957-2.597 1.886-.548.154-.43 4.17-1.154.716-.59-1.68-3.664.11-.553.807-.422.695-2.123-.59-.523.004.011Z" fill="#FAFAFA" stroke="#060606" stroke-width="2" mask="url('#path-1-inside-1_75_53')"/></svg>