<svg width="77" height="80" fill="none" xmlns="http://www.w3.org/2000/svg"><g clip-path="url('#clip0_111_4233')"><path fill-rule="evenodd" clip-rule="evenodd" d="M72.873 5.85c-1.392.548-1.731 2.5-.615 3.544 1.832 1.713 4.625-.319 3.52-2.562-.493-1-1.764-1.43-2.905-.981ZM56.96 9.536c-.552.17-1.256.788-1.556 1.365-.192.37-1.452 4.017-2.17 6.286-.166.523-.334.95-.374.95-.04 0-.538-.061-1.108-.136-9.192-1.196-17.056 2.086-20.476 8.546-.777 1.466-.935 2.216-.613 2.906.702 1.508 3.106 1.04 3.743-.729 1.625-4.511 7.744-7.423 14.407-6.854.877.075 2.546.269 2.674.31.057.02.01.255-.156.775-.498 1.566-1.505 5.016-2.668 9.146-.587 2.08-1.931 7.161-2.095 7.915-.066.304-.27 1.191-.455 1.97-.184.78-.42 1.848-.525 2.373l-.19.956-.591.43a52.088 52.088 0 0 1-2.215 1.507c-.554.338-2.836 1.286-2.834 1.177 0-.026.065-.25.143-.497.079-.248.531-1.74 1.006-3.319.474-1.577 1.079-3.556 1.343-4.397.264-.84.48-1.581.48-1.647 0-.195 2.18-6.72 2.832-8.473 1.195-3.215 1.297-3.759.859-4.564-.768-1.41-3.196-.87-4.479.998-.246.358-1.628 3.95-2.357 6.124-1.333 3.98-2.477 6.857-3.98 10.013-2.065 4.331-6.993 10.46-7.814 9.717-.46-.416.648-5.33 2.433-10.789.723-2.211.733-2.702.068-3.348-1.397-1.355-3.756.067-4.826 2.91-1.871 4.97-2.866 10.147-2.33 12.132.89 3.307 3.808 3.912 7.116 1.477 1.215-.895 1.54-1.195 2.792-2.583.24-.266.418-.421.397-.346-.13.452-.815 3.366-.935 3.975-.606 3.092-.857 4.674-1.332 8.4-.666 5.216.47 9.233 2.957 10.448l.545.267h1.141c1.643 0 2.523-.513 3.437-2.005l.55-.896c3.194-5.213 3.79-14.804 1.226-19.732-.245-.471-.438-.861-.427-.866.01-.005.267-.114.572-.24 1.099-.46 1.254-.533 1.935-.898.38-.203.982-.553 1.338-.776.356-.224.655-.407.664-.407.01 0 .038.246.063.547.457 5.472 4.968 7.629 9.99 4.776 2.56-1.455 7.644-6.957 8.718-9.436.066-.153.307-.588.535-.968 1.308-2.177 2.84-5.821 2.763-6.57-.25-2.43-3.515-2.063-4.336.487-.382 1.188-2.225 4.854-3.056 6.083-2.776 4.1-6.122 7.128-8.04 7.273-2.152.165-2.871-2.912-1.82-7.791.404-1.885 1.966-7.902 2.904-11.2.19-.665.4-1.458.468-1.762.175-.777 1.964-6.737 2.273-7.569l.064-.171 1.997-.008c4.013-.014 7.393-1.027 9.986-2.993.207-.156.4-.285.431-.285.153 0 1.285-.955 2.053-1.73 3.245-3.273 4.178-6.042 2.226-6.61-1.097-.318-2.084.208-2.774 1.48-1.723 3.173-5.364 5.538-9.287 6.032-.649.081-3.108.074-3.192-.01-.037-.037 1.173-3.656 2.03-6.064.279-.789.35-1.079.35-1.418-.005-1.3-1.167-2.074-2.498-1.664ZM20.401 14.79c-2.953.343-5.325 2.392-7.075 6.11-.619 1.314-2.005 5.113-2.183 5.98a26.32 26.32 0 0 1-.338 1.244c-2.193 7.526-2.942 15.79-2.081 22.97l.068.574-.622.775c-.341.426-.734.915-.873 1.086a38.51 38.51 0 0 1-1.237 1.348c-.543.57-1.294 1.367-1.67 1.772-.376.404-1.248 1.236-1.939 1.848C.611 60.13.428 60.397.37 61.528c-.074 1.43 1.177 2.274 2.635 1.777.589-.2 3.079-2.505 5.714-5.289l1.14-1.205.28.658c1.527 3.586 3.75 5.582 6.889 6.189 4.277.826 9.174-1.706 8.564-4.428-.33-1.474-2.021-1.79-3.525-.66-1.01.76-2.644.979-3.966.533-2.313-.78-3.507-2.366-4.37-5.802l-.241-.956.467-.669c.256-.368.497-.72.535-.782.038-.062.276-.404.529-.76.252-.356.746-1.099 1.096-1.65.35-.552.722-1.127.826-1.28.28-.41.696-1.142 1.178-2.073.235-.456.537-1.01.67-1.23.542-.897 2.717-5.52 2.717-5.776 0-.045.19-.556.42-1.135 2.876-7.208 4.29-15.476 3.236-18.912-.68-2.215-2.596-3.538-4.762-3.287Zm-.055 4.523c1.57.436.732 7.53-1.718 14.545a21.962 21.962 0 0 0-.374 1.145c-.168.681-1.425 3.556-2.444 5.59-1.007 2.01-1.704 3.352-1.8 3.465-.048.058-.317.492-.598.966l-.511.861-.05-.62c-.18-2.231.255-7.578.884-10.85 1.52-7.914 3.839-14.054 5.614-14.869.218-.1.442-.208.5-.24.14-.077.198-.076.497.007Zm9.058 12.542c-2.093.975-1.39 4.253.913 4.253 1.653 0 2.69-1.735 1.95-3.263-.494-1.022-1.813-1.479-2.863-.99Zm9.21 23.764c1.19 3.572.554 9.797-1.46 14.27-.535 1.187-.515 1.17-.738.637-.64-1.524-.685-3.246-.179-6.8.291-2.042 1.595-8.274 1.902-9.09.056-.15.19.129.475.983Z" fill="#FAFAFA"/></g><defs><clipPath id="clip0_111_4233"><path fill="#fff" transform="translate(.02 5)" d="M0 0h76.238v70H0z"/></clipPath></defs></svg>