<svg width="178" height="80" fill="none" xmlns="http://www.w3.org/2000/svg"><g clip-path="url('#clip0_111_4243')"><path d="M25.9 6.289h20.41c6.768 0 10.153 0 13.796 1.152a14.327 14.327 0 0 1 8.56 8.56c1.153 3.643 1.153 7.028 1.153 13.796v20.41c0 6.767 0 10.152-1.153 13.795a14.327 14.327 0 0 1-8.56 8.56c-3.643 1.153-7.028 1.153-13.796 1.153H25.9c-6.767 0-10.152 0-13.795-1.153a14.327 14.327 0 0 1-8.56-8.56c-1.152-3.643-1.152-7.028-1.152-13.796V29.794c0-6.768 0-10.154 1.152-13.796a14.327 14.327 0 0 1 8.56-8.56c3.643-1.15 7.028-1.15 13.796-1.15Z" fill="#365BB0" stroke="#FAFAFA" stroke-width="3.274" stroke-miterlimit="10"/><path d="M120.028 62.248h-1.593l4.402-9.242h.122l4.248 9.242h-1.654l-.721-1.593h-4.068l-.736 1.593Zm1.313-2.87h2.931l-1.451-3.34-1.48 3.34ZM130.293 62.612h-.122l-4.061-9.317h1.673l2.501 5.877 2.507-5.877h1.58l-4.078 9.317ZM135.326 62.248v-8.95h1.581v8.95h-1.581ZM139.414 62.248h-1.593l4.402-9.242h.122l4.248 9.242h-1.654l-.721-1.593h-4.068l-.736 1.593Zm1.316-2.87h2.931l-1.451-3.34-1.48 3.34ZM150.094 54.66v7.585h-1.58V54.66h-3.025v-1.365h7.611v1.365h-3.006ZM154.284 62.248v-8.95h1.581v8.95h-1.581ZM157.512 57.772c0-.557.077-1.081.232-1.574.154-.492.383-.95.689-1.37a4.387 4.387 0 0 1 1.557-1.343 4.289 4.289 0 0 1 3.682-.125 4.274 4.274 0 0 1 1.438 1.01c.425.454.747.969.969 1.545.222.576.335 1.194.335 1.857s-.113 1.28-.335 1.857a4.569 4.569 0 0 1-2.42 2.552 4.139 4.139 0 0 1-1.699.357 4.222 4.222 0 0 1-1.7-.35 4.368 4.368 0 0 1-1.438-1.015 4.662 4.662 0 0 1-.982-1.541 5.258 5.258 0 0 1-.328-1.86Zm1.619 0c0 .927.273 1.7.817 2.317.544.618 1.217.93 2.015.93.801 0 1.477-.309 2.024-.93.547-.621.821-1.393.821-2.317 0-.93-.271-1.703-.815-2.32-.543-.618-1.219-.927-2.03-.927-.808 0-1.48.309-2.021.927-.541.614-.811 1.39-.811 2.32ZM168.019 62.248v-9.242h.168l5.766 5.982v-5.693h1.532v9.243h-.167l-5.777-5.983v5.693h-1.522Z" fill="#365BB0"/><path d="M12.597 62.01 21 19.657h.48l14.655 30.018 14.6-30.018h.454l8.348 42.353h-7.048l-4.47-23.17-11.601 24.557h-.621L23.745 38.84l-4.47 23.17h-6.678Z" fill="#FAFAFA"/><path d="M74.697 49.028V26.65H87.72v3.44h-9.197v5.51h7.9v3.411h-7.9v6.543h9.352v3.472H74.697v.003ZM92.4 49.028V25.925h.415l14.414 14.955V26.65h3.826v23.102h-.415L96.194 34.798v14.227H92.4v.003ZM114.775 49.028l12.486-18.996h-10.925l.541-3.38h16.776L121.26 45.557h12.145l-.602 3.472h-18.028ZM137.54 49.028V26.65h3.952v22.376h-3.952v.003ZM147.153 49.028V26.65h13.023v3.44h-9.197v5.51h7.9v3.411h-7.9v6.543h9.352v3.472h-13.178v.003ZM163.591 44.056c1.213.782 2.327 1.358 3.334 1.729 1.007.37 1.966.556 2.87.556 1.172 0 2.124-.29 2.855-.872.73-.582 1.094-1.335 1.094-2.262 0-.773-.245-1.464-.734-2.076-.489-.611-1.338-1.278-2.555-1.998l-1.683-1.02c-1.709-1.008-2.919-1.999-3.633-2.97-.715-.973-1.072-2.086-1.072-3.341 0-1.748.628-3.17 1.883-4.267 1.255-1.095 2.89-1.645 4.907-1.645.979 0 1.928.11 2.848.332.921.222 1.851.563 2.787 1.026l-.122 3.566c-1.11-.608-2.092-1.052-2.938-1.336-.85-.283-1.609-.425-2.275-.425-1.03 0-1.841.229-2.43.686-.592.457-.888 1.081-.888 1.876 0 .618.215 1.178.647 1.683.431.505 1.235 1.1 2.407 1.79l1.622.942c1.873 1.11 3.205 2.215 3.997 3.312.791 1.094 1.187 2.352 1.187 3.772 0 1.995-.702 3.607-2.108 4.83-1.403 1.223-3.273 1.837-5.609 1.837-1.068 0-2.111-.109-3.125-.331a13.445 13.445 0 0 1-2.909-.994l-.357-4.4Z" fill="#365BB0"/></g><defs><clipPath id="clip0_111_4243"><path fill="#fff" transform="translate(.482 5)" d="M0 0h177.283v70H0z"/></clipPath></defs></svg>