<svg width="60" height="60" fill="none" xmlns="http://www.w3.org/2000/svg"><path d="M48.75 9.375h-37.5A5.625 5.625 0 0 0 5.625 15v26.25a5.625 5.625 0 0 0 5.625 5.625h16.875v3.75H22.5a1.875 1.875 0 1 0 0 3.75h15a1.875 1.875 0 1 0 0-3.75h-5.625v-3.75H48.75a5.625 5.625 0 0 0 5.625-5.625V15a5.625 5.625 0 0 0-5.625-5.625Zm-37.5 3.75h37.5A1.875 1.875 0 0 1 50.625 15v18.75H9.375V15a1.875 1.875 0 0 1 1.875-1.875Zm37.5 30h-37.5a1.875 1.875 0 0 1-1.875-1.875V37.5h41.25v3.75a1.875 1.875 0 0 1-1.875 1.875Z" fill="#CBCBCB"/></svg>