<svg width="40" height="40" fill="none" xmlns="http://www.w3.org/2000/svg"><g clip-path="url('#clip0_80_7660')"><path d="M2.407 1.725 24.54.09c2.719-.233 3.417-.076 5.127 1.167l7.065 4.977c1.165.856 1.553 1.09 1.553 2.022v27.297c0 1.71-.621 2.723-2.796 2.877L9.787 39.987c-1.632.077-2.41-.156-3.264-1.245L1.32 31.976C.387 30.731 0 29.799 0 28.709V4.445c0-1.399.621-2.565 2.407-2.72Z" fill="#FAFAFA"/><path fill-rule="evenodd" clip-rule="evenodd" d="M24.54.09 2.407 1.727C.62 1.88 0 3.046 0 4.446v24.263c0 1.09.387 2.021 1.32 3.267l5.203 6.765c.855 1.09 1.632 1.323 3.264 1.245L35.49 38.43c2.173-.154 2.796-1.166 2.796-2.877V8.256c0-.884-.35-1.139-1.378-1.893l-7.241-5.106C27.957.014 27.259-.143 24.54.09ZM10.368 7.81c-2.099.14-2.575.172-3.767-.797l-3.03-2.41c-.308-.312-.153-.701.623-.779L25.47 2.269c1.787-.156 2.717.467 3.416 1.011l3.649 2.644c.156.079.544.544.077.544L10.64 7.791l-.272.018ZM7.921 35.32V12.147c0-1.012.311-1.479 1.241-1.557L34.4 9.112c.856-.077 1.243.467 1.243 1.477v23.019c0 1.012-.156 1.868-1.553 1.945l-24.151 1.4c-1.397.077-2.017-.388-2.017-1.633Zm23.84-21.93c.155.7 0 1.4-.7 1.48l-1.164.23v17.11c-1.01.543-1.941.854-2.719.854-1.242 0-1.553-.39-2.484-1.555l-7.612-11.976V31.12l2.408.545s0 1.4-1.942 1.4l-5.356.311c-.156-.312 0-1.09.542-1.244l1.4-.388v-15.32l-1.942-.157c-.156-.7.232-1.711 1.32-1.79l5.747-.386 7.92 12.13V15.49l-2.019-.232c-.156-.858.465-1.48 1.241-1.556l5.36-.313Z" fill="#060606"/></g><defs><clipPath id="clip0_80_7660"><path fill="#fff" d="M0 0h40v40H0z"/></clipPath></defs></svg>