<svg width="40" height="40" fill="none" xmlns="http://www.w3.org/2000/svg"><path fill-rule="evenodd" clip-rule="evenodd" d="M16.27 2.5c-2.746 0-4.972 2.156-4.972 4.815v3.333h8.606v.926H7.473c-2.747 0-4.973 2.156-4.973 4.815v7.222c0 2.66 2.226 4.815 4.973 4.815h2.869v-4.074c0-2.66 2.226-4.815 4.972-4.815h9.18c2.324 0 4.208-1.824 4.208-4.074V7.315c0-2.66-2.226-4.815-4.973-4.815H16.27Zm-1.147 5.926c.95 0 1.721-.746 1.721-1.667 0-.92-.77-1.666-1.721-1.666-.95 0-1.721.746-1.721 1.666 0 .92.77 1.667 1.721 1.667Z" fill="url('#paint0_linear_80_7346')"/><path fill-rule="evenodd" clip-rule="evenodd" d="M23.73 37.5c2.746 0 4.972-2.156 4.972-4.815v-3.333h-8.607v-.926h12.432c2.746 0 4.973-2.156 4.973-4.815V16.39c0-2.66-2.227-4.815-4.973-4.815h-2.869v4.074c0 2.66-2.226 4.815-4.972 4.815h-9.18c-2.325 0-4.208 1.824-4.208 4.074v8.148c0 2.66 2.226 4.815 4.972 4.815h7.46Zm1.147-5.926c-.95 0-1.721.746-1.721 1.667 0 .92.77 1.666 1.72 1.666.951 0 1.722-.746 1.722-1.666 0-.92-.77-1.667-1.721-1.667Z" fill="url('#paint1_linear_80_7346')"/><defs><linearGradient id="paint0_linear_80_7346" x1="15.601" y1="2.5" x2="15.601" y2="28.426" gradientUnits="userSpaceOnUse"><stop stop-color="#327EBD"/><stop offset="1" stop-color="#1565A7"/></linearGradient><linearGradient id="paint1_linear_80_7346" x1="24.399" y1="11.574" x2="24.399" y2="37.5" gradientUnits="userSpaceOnUse"><stop stop-color="#FFDA4B"/><stop offset="1" stop-color="#F9C600"/></linearGradient></defs></svg>