<svg width="60" height="60" fill="none" xmlns="http://www.w3.org/2000/svg"><path d="M29.99 34.487a5.355 5.355 0 1 0 0-10.71 5.355 5.355 0 0 0 0 10.71Z" fill="#00D8FF"/><path d="M29.99 19.523c6.92 0 13.493.976 18.49 2.696 5.551 1.91 8.937 4.736 8.937 6.912 0 2.319-3.657 5.33-9.594 7.296-4.726 1.566-11.05 2.42-17.834 2.42-7.126 0-13.521-.837-18.193-2.434-2.924-1-5.34-2.299-6.995-3.716-1.488-1.275-2.239-2.54-2.239-3.566 0-2.184 3.256-4.97 8.687-6.863 5-1.743 11.734-2.745 18.74-2.745Zm0-2.562c-7.279 0-14.296 1.044-19.584 2.888C4.056 22.063 0 25.532 0 29.13c0 3.718 4.354 7.446 10.968 9.706 4.971 1.7 11.635 2.572 19.021 2.572 7.04 0 13.63-.89 18.64-2.55 6.876-2.278 11.35-5.96 11.35-9.728 0-3.612-4.186-7.105-10.664-9.335-5.283-1.818-12.136-2.835-19.326-2.835Zm-8.37 7.397c3.457-5.995 7.586-11.202 11.573-14.671 4.428-3.854 8.566-5.376 10.452-4.288 2.009 1.158 2.79 5.83 1.528 11.955-1.005 4.877-3.425 10.781-6.814 16.658-3.56 6.173-7.48 11.295-11.197 14.544-2.327 2.034-4.659 3.477-6.714 4.203-1.847.652-3.318.671-4.207.158-1.892-1.09-2.678-5.303-1.605-10.953.987-5.202 3.483-11.537 6.984-17.606Zm-2.22-1.28c-3.636 6.305-6.237 12.905-7.282 18.408-1.254 6.607-.274 11.853 2.843 13.651 3.22 1.857 8.625-.052 13.888-4.652 3.955-3.458 8.04-8.795 11.73-15.193 3.517-6.098 6.038-12.251 7.103-17.421 1.462-7.095.506-12.81-2.757-14.692-3.129-1.804-8.246.077-13.414 4.575-4.215 3.667-8.52 9.096-12.111 15.324Zm2.228 10.948c-3.467-5.99-5.917-12.167-6.931-17.354-1.128-5.761-.379-10.106 1.505-11.197 2.006-1.162 6.443.495 11.12 4.647 3.724 3.306 7.63 8.351 11.03 14.222 3.57 6.168 6.05 12.121 7.008 16.964.6 3.032.686 5.773.288 7.916-.357 1.926-1.075 3.21-1.963 3.724-1.89 1.094-5.933-.328-10.292-4.08-4.013-3.453-8.255-8.779-11.765-14.843Zm-2.218 1.283c3.647 6.3 8.066 11.849 12.311 15.502 5.098 4.386 10.132 6.158 13.247 4.355 3.217-1.863 4.263-7.498 2.906-14.355-1.02-5.154-3.605-11.358-7.305-17.75-3.527-6.093-7.599-11.35-11.546-14.855-5.416-4.81-10.845-6.836-14.105-4.948-3.126 1.81-4.052 7.182-2.736 13.906 1.073 5.483 3.626 11.923 7.228 18.145Z" fill="#00D8FF"/></svg>