<svg width="60" height="60" fill="none" xmlns="http://www.w3.org/2000/svg"><path d="M48.956 32.948c-1.649.002-3.275.379-4.757 1.102a10.018 10.018 0 0 1-1.065-2.463 6.618 6.618 0 0 1-.095-2.063c.16-.757.368-1.504.622-2.235-.01-.096-.114-.548-1.17-.563-1.056-.014-1.965.201-2.062.48a11.57 11.57 0 0 0-.441 1.564 36.906 36.906 0 0 1-3.212 6.177 5.974 5.974 0 0 1-.825-3.874c.16-.758.368-1.504.623-2.235-.01-.096-.115-.548-1.17-.563-1.056-.015-1.965.2-2.063.48-.097.28-.221.938-.44 1.564-.22.626-2.781 6.349-3.452 7.824-.345.75-.644 1.362-.854 1.774a.438.438 0 0 1-.037.077c-.188.354-.287.547-.287.547v.01c-.144.259-.298.499-.375.499a3.208 3.208 0 0 1 .019-1.63c.375-1.985 1.294-5.072 1.284-5.178 0-.059.173-.595-.594-.872a.953.953 0 0 0-1.084.187c-.067 0-.114.163-.114.163s.834-3.47-1.592-3.47a7.227 7.227 0 0 0-4.64 3.155c-.653.355-2.043 1.112-3.53 1.928-.562.317-1.15.634-1.696.937-.038-.037-.077-.086-.115-.123C12.881 33 7.453 30.78 7.687 26.57c.087-1.534.613-5.561 10.423-10.453 8.074-3.979 14.5-2.876 15.612-.431 1.592 3.49-3.443 9.973-11.785 10.912a6.284 6.284 0 0 1-5.274-1.333c-.44-.48-.508-.508-.671-.413-.268.145-.096.576 0 .825a4.924 4.924 0 0 0 3.011 2.369c3.282.709 6.703.37 9.782-.97 5.062-1.956 9-7.393 7.845-11.947-1.16-4.622-8.831-6.147-16.091-3.563A36.561 36.561 0 0 0 8.173 18.66c-4 3.74-4.631 6.99-4.373 8.353.938 4.834 7.596 7.979 10.26 10.313-.135.077-.258.144-.363.2-1.333.662-6.415 3.32-7.688 6.128-1.438 3.188.23 5.466 1.333 5.773a8.2 8.2 0 0 0 8.832-3.577 8.86 8.86 0 0 0 .793-8.162.2.2 0 0 0-.038-.058l1.045-.614c.68-.403 1.351-.776 1.927-1.083a12.634 12.634 0 0 0-.68 3.491 7.286 7.286 0 0 0 1.563 5.063 1.726 1.726 0 0 0 1.266.412c1.125 0 1.64-.938 2.205-2.051.69-1.361 1.312-2.944 1.312-2.944s-.776 4.277 1.333 4.277c.767 0 1.544-.998 1.89-1.5v.01s.02-.029.059-.096l.123-.201v-.019c.308-.536.998-1.755 2.023-3.778 1.324-2.608 2.6-5.869 2.6-5.869.122.717.292 1.425.507 2.12.31.84.674 1.66 1.093 2.453a17.46 17.46 0 0 1-.498.672l.01.01c-.25.325-.518.68-.816 1.025a30.56 30.56 0 0 0-2.464 3.088.838.838 0 0 0 .23 1.125c.395.205.845.28 1.285.212a5.899 5.899 0 0 0 1.927-.44 6.468 6.468 0 0 0 1.66-.873 3.713 3.713 0 0 0 1.591-3.27 6.6 6.6 0 0 0-.603-2.312c.095-.135.187-.268.277-.403a43.92 43.92 0 0 0 2.876-4.967c.123.717.293 1.425.509 2.12.254.727.568 1.432.937 2.109A9.114 9.114 0 0 0 39.31 39c-.604 1.746-.135 2.532.75 2.713.485.034.969-.065 1.4-.287a6.373 6.373 0 0 0 1.775-.91 3.986 3.986 0 0 0 1.955-3.243 6.13 6.13 0 0 0-.44-1.918 10.043 10.043 0 0 1 5.092-.585c4.564.536 5.466 3.385 5.293 4.585a3.033 3.033 0 0 1-1.447 2.05c-.317.201-.422.269-.394.413.038.212.187.201.46.163a3.563 3.563 0 0 0 2.497-3.168c.144-2.813-2.54-5.897-7.288-5.869l-.006.004ZM13.744 44.813c-1.515 1.65-3.625 2.272-4.536 1.745-.979-.562-.594-3 1.266-4.747a24.158 24.158 0 0 1 3.562-2.657c.221-.135.548-.326.938-.563l.105-.058.23-.144a6.55 6.55 0 0 1-1.565 6.424Zm11.026-7.5c-.526 1.284-1.629 4.575-2.3 4.391-.576-.154-.938-2.648-.115-5.111a11.612 11.612 0 0 1 1.793-3.289c.825-.92 1.736-1.228 1.956-.853-.2 1.678-.65 3.316-1.334 4.862Zm9.1 4.353c-.221.115-.431.188-.527.136-.068-.038.096-.188.096-.188s1.142-1.228 1.592-1.783c.258-.326.562-.709.892-1.142v.124c0 1.466-1.42 2.454-2.051 2.857l-.002-.004Zm7.02-1.6c-.163-.115-.135-.5.412-1.698a6.39 6.39 0 0 1 1.564-2.013c.1.283.152.582.154.883a2.9 2.9 0 0 1-2.128 2.83l-.002-.003Z" fill="#CD6799"/></svg>