<svg width="61" height="60" viewBox="0 0 61 60" fill="none" xmlns="http://www.w3.org/2000/svg">
<path d="M29.1734 42.5766L10.4234 23.8266C10.2492 23.6524 10.111 23.4456 10.0167 23.218C9.92241 22.9904 9.87389 22.7464 9.87389 22.5001C9.87389 22.2537 9.92241 22.0097 10.0167 21.7821C10.111 21.5545 10.2492 21.3477 10.4234 21.1735C10.5976 20.9993 10.8044 20.8611 11.032 20.7668C11.2596 20.6725 11.5036 20.624 11.7499 20.624C11.9963 20.624 12.2402 20.6725 12.4679 20.7668C12.6955 20.8611 12.9023 20.9993 13.0765 21.1735L30.4999 38.5993L47.9234 21.1735C48.2752 20.8217 48.7524 20.624 49.2499 20.624C49.7475 20.624 50.2247 20.8217 50.5765 21.1735C50.9283 21.5253 51.126 22.0025 51.126 22.5001C51.126 22.9976 50.9283 23.4748 50.5765 23.8266L31.8265 42.5766C31.6524 42.751 31.4456 42.8893 31.2179 42.9836C30.9903 43.078 30.7463 43.1265 30.4999 43.1265C30.2535 43.1265 30.0095 43.078 29.7819 42.9836C29.5543 42.8893 29.3475 42.751 29.1734 42.5766Z" fill="#3D3D3D"></path>
</svg>
