<svg width="281" height="80" viewBox="0 0 281 80" fill="none" xmlns="http://www.w3.org/2000/svg">
<g clip-path="url('#clip0_111_4232')">
<path d="M8.56786 47.7112C8.56786 48.9469 8.98819 49.7007 13.5994 49.7007H16.4799C20.337 49.7007 21.3013 49.4041 21.3013 48.0942C21.3013 46.7844 20.6708 46.3148 17.7903 46.3148H10.175C2.59674 46.3148 0.35911 44.6219 0.35911 38.7029C0.35911 33.3276 4.67365 32.5244 10.2492 32.5244H15.9236C26.543 32.5244 28.4098 34.0073 28.4963 39.086H20.3741C19.9538 37.8503 19.1379 37.6031 14.3165 37.6031C9.49505 37.6031 8.72857 37.7267 8.72857 39.2095C8.72857 40.1363 9.35906 40.4452 13.5994 40.4452H19.2615C29.0032 40.4452 29.7202 43.7075 29.7202 47.5505C29.7202 53.2595 27.4332 54.7423 18.1612 54.7423H10.4346C2.94289 54.7423 0.186035 53.0123 0.186035 47.6741H8.56786V47.7112Z" fill="#FAFAFA"></path>
<path d="M33.9233 41.0633C33.9233 33.958 38.7077 32.5122 42.8491 32.5122H55.0015C59.1554 32.5122 63.9273 33.9456 63.9273 41.0633V46.2285C63.9273 53.3338 59.143 54.7795 55.0015 54.7795H42.8491C38.6953 54.7795 33.9233 53.3461 33.9233 46.2285V41.0633ZM42.0456 44.6592C42.0456 47.7484 43.8628 48.6752 47.5963 48.6752H49.5496C54.8037 48.6752 55.8175 47.9956 55.8175 45.1164V42.1507C55.8175 39.2715 54.8037 38.5919 49.5496 38.5919H47.5963C43.8876 38.5919 42.0456 39.5186 42.0456 42.6079V44.6345V44.6592Z" fill="#FAFAFA"></path>
<path d="M68.9712 32.8582H76.5865V36.9607H76.6731C77.6003 33.5378 80.9011 32.5122 84.5851 32.5122C90.5068 32.5122 92.8433 35.0454 92.8433 41.0138C92.8433 41.5699 92.8433 42.1507 92.7568 42.9168H85.7348C85.7348 40.1612 85.1044 38.8514 81.8406 38.8514C79.0467 38.8514 77.1058 39.9141 77.1058 42.4843V54.4212H68.9712V32.8582Z" fill="#FAFAFA"></path>
<path d="M96.8245 32.8583H104.564V37.0844H104.65C105.07 33.9951 107.864 32.5123 111.845 32.5123H114.936C116.63 32.3967 118.317 32.8213 119.754 33.7251C121.192 34.6288 122.305 35.9651 122.934 37.5416C124.294 33.6491 126.025 32.5123 130.636 32.5123H133.109C140.526 32.5123 143.184 36.1082 143.184 42.2867V54.4336H135.05V42.8427C135.05 39.8771 134.283 38.8638 129.548 38.8638C125.654 38.8638 124.047 39.7041 124.047 42.5709V54.4583H115.925V42.2249C115.925 39.5558 114.948 38.8762 110.04 38.8762C106.566 38.8762 104.922 39.7164 104.922 43.0652V54.446H96.7998V32.8583H96.8245Z" fill="#FAFAFA"></path>
<path d="M147.066 46.8587C147.066 40.9768 151.133 40.6802 159.008 40.6802C163.446 40.6802 165.906 40.8038 167.477 42.4102V40.5072C167.477 38.3942 166.846 37.628 163.669 37.628H158.885C156.511 37.628 155.831 37.8381 155.757 39.358H147.832C147.832 33.5132 150.713 32.5493 157.574 32.5493H167.019C172.607 32.5493 175.574 35.2184 175.574 40.2972V54.4707H167.872V51.9993C165.635 54.3224 164.781 54.7919 160.714 54.7919H155.25C150.305 54.7919 147.128 53.7292 147.128 48.6134V46.834L147.066 46.8587ZM161.542 49.6885C167.13 49.6885 167.637 48.8482 167.637 47.4024C167.637 45.9567 167.167 45.2029 162.692 45.2029H159.082C155.658 45.2029 154.929 45.969 154.929 47.7361C154.929 49.1324 156.029 49.6885 159.206 49.6885H161.53H161.542Z" fill="#FAFAFA"></path>
<path d="M179.79 42.4593C179.79 34.2914 183.857 32.5737 189.778 32.5737H198.927C204.935 32.5737 208.619 34.7733 208.619 39.7285V41.6808H200.744C200.744 39.4813 199.607 38.6781 196.046 38.6781H192.919C189.531 38.6781 187.974 39.6049 187.974 41.9774V44.8566C187.974 47.6493 189.754 48.4896 192.288 48.4896H196.442C198.729 48.4896 200.806 47.9829 200.806 46.0182V45.5115H208.681V47.328C208.681 53.1234 203.859 54.7422 199.199 54.7422H190.903C185.526 54.7422 179.851 53.7289 179.851 44.4983V42.4223L179.79 42.4593Z" fill="#FAFAFA"></path>
<path d="M253.075 32.191H280.186V26.0125H253.075C248.91 25.9774 244.757 26.4631 240.712 27.4583C237.004 28.3925 233.448 29.8531 230.155 31.7956V43.473H278.702C275.493 45.2326 272.051 46.5306 268.479 47.3284C264.808 48.1843 261.047 48.5992 257.278 48.5641H230.13V54.7426H257.241C261.406 54.7779 265.559 54.2922 269.604 53.2968C273.312 52.3629 276.868 50.9023 280.161 48.9595V37.2821H231.638C234.851 35.5206 238.297 34.2226 241.874 33.4267C245.545 32.5706 249.305 32.1558 253.075 32.191Z" fill="#FF7800"></path>
</g>
<defs>
<clipPath id="clip0_111_4232">
<rect width="280" height="28.7671" fill="white" transform="translate(0.186035 26)"></rect>
</clipPath>
</defs>
</svg>
