<svg width="60" height="60" fill="none" xmlns="http://www.w3.org/2000/svg"><g clip-path="url('#clip0_75_55')"><path d="M26.438 59.962c-5.616-.405-11.167-1.819-14.571-3.711-1.94-1.078-3.417-2.403-3.997-3.584l-.345-.702V7.894l.273-.554c1.22-2.477 5.113-4.709 10.546-6.048C20.19.837 22.852.384 25.024.156c2.218-.234 8.098-.198 10.31.062 5.882.691 10.886 2.238 13.97 4.318 1.19.802 2.41 2.086 2.823 2.97l.355.757-.03 21.969-.03 21.969-.285.578c-.157.318-.63.943-1.05 1.39-2.565 2.718-8.066 4.73-15.28 5.586-1.471.175-7.86.316-9.369.207Zm10.35-18.882c-.021-.056-.861-.804-1.865-1.662-1.005-.858-1.87-1.6-1.923-1.65-.053-.049.133-.223.412-.387.28-.164.816-.62 1.191-1.014 1.098-1.15 1.616-2.572 1.616-4.434 0-1.834-.559-3.313-1.678-4.442-1.127-1.138-2.421-1.627-4.307-1.627-2.905 0-5.137 1.695-5.85 4.444-.244.946-.243 2.856.003 3.695.643 2.187 2.392 3.775 4.57 4.148.736.126.836.18 1.338.73.299.326.911.977 1.362 1.447l.818.855h2.176c1.197 0 2.159-.046 2.137-.103Zm-7.462-6.093c-.524-.273-.723-.485-1.021-1.092-.231-.47-.27-.736-.273-1.845-.003-1.126.033-1.37.274-1.859.394-.8.938-1.18 1.778-1.24 1.17-.085 1.845.49 2.198 1.869.434 1.691-.043 3.49-1.084 4.086-.546.313-1.36.349-1.872.081Zm-9.646 3.14c2.282-.433 3.577-1.76 3.577-3.664 0-1.69-.837-2.675-3.148-3.706-1.322-.591-1.802-.962-1.802-1.395 0-.359.455-.752.985-.85.516-.097 1.887.14 2.697.468l.678.274V26.25l-.736-.164c-.455-.1-1.412-.161-2.504-.158-1.547 0-1.85.037-2.433.269-1.7.675-2.508 1.825-2.495 3.556.012 1.62.867 2.63 2.993 3.539 1.255.536 1.758.944 1.758 1.427 0 1.026-1.709 1.152-3.518.26l-.99-.488c-.048-.025-.088.677-.088 1.559 0 1.596.002 1.604.291 1.714 1.089.414 3.494.598 4.735.363Zm26.084-1.481v-1.355h-4.125V25.982h-3.653v12.02h7.778v-1.356ZM33.037 12.899c3.63-.252 6.35-.727 8.744-1.528 2.386-.797 3.794-1.762 4.11-2.814.121-.405.112-.56-.057-1.004-.761-1.992-5.012-3.523-11.507-4.143-2.779-.266-7.832-.18-10.481.178-4.042.546-7.323 1.56-8.782 2.716-2.95 2.336.17 4.906 7.427 6.116 3.146.524 7.223.71 10.546.479Z" fill="#00BCF2"/></g><defs><clipPath id="clip0_75_55"><path fill="#fff" d="M0 0h60v60H0z"/></clipPath></defs></svg>