<svg width="100" height="100" viewBox="0 0 100 100" fill="none" xmlns="http://www.w3.org/2000/svg">
<g clip-path="url('#clip0_41_5492')">
<path d="M98.7963 35.2379L54.5439 14.868C53.1086 14.2069 51.5797 13.8733 50 13.8733C48.4203 13.8733 46.8918 14.2069 45.4561 14.868L1.20371 35.2379C0.472266 35.576 0 36.3129 0 37.1182C0 37.9235 0.472266 38.6604 1.20371 38.9985L45.4561 59.3684C46.8914 60.0295 48.4203 60.3647 50 60.3647C51.5797 60.3647 53.1086 60.0295 54.5443 59.3684L89.4686 43.293V59.4807C88.0826 59.637 87.0018 60.8166 87.0018 62.242C87.0018 63.484 87.8236 64.5592 88.9951 64.9018L86.6334 80.486H97.5076L95.1463 64.9018C96.3174 64.5592 97.1393 63.484 97.1393 62.242C97.1393 60.8166 96.0584 59.637 94.6725 59.4807V40.8971L98.7967 38.9985C99.5279 38.6604 100 37.9235 100 37.1182C100 36.3129 99.5277 35.576 98.7963 35.2379Z" fill="#FAFAFA"></path>
<path d="M49.9999 67.7404C47.8034 67.7404 45.6751 67.2734 43.6745 66.3529L22.0298 56.3887V76.2398C22.0298 80.598 35.1989 86.1268 49.9999 86.1268C64.8011 86.1268 77.9704 80.5979 77.9704 76.2398V56.3887L56.3245 66.3529C54.3251 67.2734 52.1972 67.7404 49.9999 67.7404Z" fill="#FAFAFA"></path>
</g>
<defs>
<clipPath id="clip0_41_5492">
<rect width="100" height="100" fill="white"></rect>
</clipPath>
</defs>
</svg>
