<svg width="60" height="60" fill="none" xmlns="http://www.w3.org/2000/svg"><g clip-path="url('#clip0_75_65')"><path fill="#FAFAFA" d="M3.5 2.5H55V54H3.5z"/><path fill-rule="evenodd" clip-rule="evenodd" d="M7.5 11.25V45a3.749 3.749 0 0 0 3.75 3.75H22.5A3.749 3.749 0 0 0 26.25 45V11.25A3.749 3.749 0 0 0 22.5 7.5H11.25a3.749 3.749 0 0 0-3.75 3.75Zm26.25 0V30a3.749 3.749 0 0 0 3.75 3.75h11.25A3.749 3.749 0 0 0 52.5 30V11.25a3.749 3.749 0 0 0-3.75-3.75H37.5a3.749 3.749 0 0 0-3.75 3.75ZM7.5 0C3.358 0 0 3.36 0 7.5v45C0 56.642 3.36 60 7.5 60h45c4.142 0 7.5-3.36 7.5-7.5v-45C60 3.358 56.64 0 52.5 0h-45Z" fill="#007AC2"/></g><defs><clipPath id="clip0_75_65"><path fill="#fff" d="M0 0h60v60H0z"/></clipPath></defs></svg>