<svg width="40" height="40" viewBox="0 0 40 40" fill="none" xmlns="http://www.w3.org/2000/svg">
<g clip-path="url('#clip0_80_7643')">
<path d="M0 20V40H20H40V20V0H20H0V20Z" fill="#007ACC"></path>
<path d="M10.4684 20.0264L10.4572 21.4757H12.7603H15.0635L15.0635 28.0201V34.5645H16.6926H18.3216V28.0201V21.4757H20.6248H22.928L22.928 20.0545C22.928 19.2681 22.9111 18.6108 22.8887 18.594C22.8718 18.5715 20.0687 18.5603 16.6701 18.5659L10.4853 18.5827L10.4684 20.0264Z" fill="#FAFAFA"></path>
<path d="M31.1579 18.9121C32.0374 19.132 32.7081 19.5223 33.3238 20.1599C33.6426 20.5008 34.1153 21.1219 34.1538 21.2704C34.1648 21.3143 32.6586 22.3258 31.7461 22.892C31.7131 22.914 31.5811 22.7711 31.4327 22.5512C30.9874 21.9025 30.5202 21.6222 29.8056 21.5727C28.7556 21.5013 28.0794 22.051 28.0849 22.969C28.0849 23.2384 28.1234 23.3978 28.2334 23.6177C28.4642 24.0959 28.893 24.3818 30.2398 24.9645C32.7191 26.0309 33.78 26.7346 34.4397 27.7351C35.1763 28.851 35.3412 30.6321 34.841 31.9569C34.2913 33.3972 32.928 34.3757 31.0094 34.7C30.4157 34.8044 29.0085 34.7879 28.3708 34.6725C26.98 34.4251 25.6607 33.738 24.8471 32.8364C24.5283 32.4846 23.9071 31.5666 23.9456 31.5006C23.962 31.4786 24.105 31.3907 24.2644 31.2972C24.4183 31.2093 25.001 30.874 25.5507 30.5551L26.5457 29.9779L26.7546 30.2858C27.046 30.731 27.6836 31.3412 28.0684 31.5446C29.1734 32.1273 30.6906 32.0449 31.4382 31.3742C31.7571 31.0828 31.889 30.7805 31.889 30.3352C31.889 29.9339 31.8395 29.758 31.6306 29.4557C31.3613 29.0709 30.8115 28.7465 29.2503 28.0704C27.4638 27.3008 26.6941 26.8225 25.9905 26.0639C25.5837 25.6241 25.1989 24.9205 25.0395 24.3323C24.9076 23.8431 24.8746 22.6172 24.979 22.1224C25.3473 20.3963 26.6502 19.1924 28.5302 18.8351C29.1404 18.7197 30.5587 18.7637 31.1579 18.9121Z" fill="#FAFAFA"></path>
</g>
<defs>
<clipPath id="clip0_80_7643">
<rect width="40" height="40" rx="8" fill="white"></rect>
</clipPath>
</defs>
</svg>
