<svg width="40" height="40" fill="none" xmlns="http://www.w3.org/2000/svg"><g clip-path="url('#clip0_80_7609')"><path d="M20 40c11.046 0 20-8.954 20-20S31.046 0 20 0 0 8.954 0 20s8.954 20 20 20Z" fill="#4353FF"/><path d="M15.608 19.32c0-.445-.432-.917-1.181-.917-.84 0-1.764.617-1.905 1.847-.144 1.243.629 1.795 1.406 1.795.777 0 1.187-.304 1.605-.709-.36-.45-.82-.242-.912-.195a.933.933 0 0 1-.481.117c-.3 0-.608-.135-.608-.696 1.929-.193 2.076-.796 2.076-1.242Zm-.954.074c-.012.138-.068.374-1.043.508.205-.73.598-.786.78-.786a.254.254 0 0 1 .263.278Zm-3.264.12-.449 1.405c-.011-.108-.316-2.442-.316-2.442-.705 0-1.083.503-1.282 1.034l-.547 1.414c-.003-.101-.078-1.399-.078-1.399-.043-.65-.639-1.046-1.12-1.046l.582 3.538c.74-.003 1.139-.503 1.347-1.034 0 0 .445-1.15.464-1.203.003.05.319 2.237.319 2.237.742 0 1.141-.47 1.356-.982l1.04-2.556c-.73 0-1.117.5-1.316 1.034Zm6.942-1.116c-.457 0-.807.249-1.101.614v-.003l.263-2.126c-.607 0-1.101.527-1.196 1.313l-.46 3.795c.351 0 .721-.101.92-.36a1.018 1.018 0 0 0 .84.415c1.025 0 1.728-1.19 1.728-2.307-.006-1.02-.498-1.34-.994-1.34Zm-.095 1.826c-.107.622-.453 1.046-.788 1.046-.334 0-.481-.15-.481-.15.064-.547.104-.88.227-1.17.122-.287.414-.748.718-.748.297-.001.432.394.325 1.02v.002Zm3.648-1.743h-.713l.003-.037c.05-.466.16-.711.525-.751.248-.025.359-.154.386-.295.022-.11.09-.493.09-.493-1.436-.01-1.887.61-2.004 1.555l-.003.022h-.015c-.235 0-.491.263-.535.598l-.015.123h.479l-.402 3.32-.123.595c.015 0 .034.004.05.004.671-.025 1.101-.556 1.196-1.326l.312-2.593h.224c.22 0 .479-.22.525-.588l.02-.134Zm3.718-.061c-.825 0-1.604.607-1.843 1.562-.24.956.122 2.084 1.337 2.084 1.215 0 1.912-1.175 1.912-2.154 0-.975-.66-1.494-1.405-1.494v.002Zm.335 1.773c-.043.433-.235 1.09-.755 1.09s-.451-.767-.399-1.133c.056-.391.274-.945.743-.945.42-.001.46.499.41.987v.001Zm5.148-.68-.448 1.407c-.012-.11-.316-2.445-.316-2.445-.706 0-1.083.503-1.282 1.034l-.547 1.414c-.003-.101-.078-1.399-.078-1.399-.043-.65-.639-1.046-1.12-1.046l.58 3.538c.739-.003 1.137-.503 1.346-1.034 0 0 .445-1.15.46-1.203.006.05.32 2.237.32 2.237.742 0 1.14-.47 1.355-.982l1.04-2.555c-.727 0-1.114.501-1.31 1.035Zm-8.526-2.61-.601 4.85-.123.599.05.003c.646-.01 1.107-.577 1.192-1.292l.347-2.782c.105-.85-.402-1.378-.865-1.378Z" fill="#FAFAFA"/></g><defs><clipPath id="clip0_80_7609"><path fill="#fff" d="M0 0h40v40H0z"/></clipPath></defs></svg>