<svg width="151" height="80" viewBox="0 0 151 80" fill="none" xmlns="http://www.w3.org/2000/svg">
<path d="M102.431 54.6163C105.271 54.6163 107.576 53.7132 109.382 52.2351C109.287 56.7603 106.608 58.9497 101.26 59.8023C100.504 59.9158 100.08 60.5086 100.428 61.2779C101.535 63.765 103.533 65.2002 105.849 65.2002C110.081 65.2002 115.461 62.0069 116.458 55.2166L116.735 27.0869C116.735 26.3655 116.347 25.967 115.62 25.967C113.31 25.967 111.224 26.7994 110.116 28.0354C108.608 26.4917 105.574 25.2002 102.431 25.2002C98.5299 25.2002 94.7888 26.7498 92.0305 29.5081C89.2723 32.2664 87.7227 36.0074 87.7227 39.9082C87.7227 43.809 89.2723 47.5501 92.0305 50.3084C94.7888 53.0667 98.5299 54.6163 102.431 54.6163ZM102.431 32.336C106.58 32.336 109.768 35.7337 109.768 39.9032C109.768 44.0727 106.58 47.4703 102.431 47.4703C100.424 47.4703 98.499 46.6731 97.0799 45.254C95.6608 43.8349 94.8635 41.9101 94.8635 39.9032C94.8635 37.8962 95.6608 35.9715 97.0799 34.5524C98.499 33.1333 100.424 32.336 102.431 32.336Z" fill="#A87ECE"></path>
<path d="M135.711 54.6163C138.62 54.6163 141.464 53.7536 143.883 52.1373C146.301 50.5211 148.187 48.2239 149.3 45.5362C150.413 42.8485 150.704 39.8911 150.136 37.0379C149.568 34.1848 148.167 31.564 146.11 29.5072C144.053 27.4503 141.432 26.0497 138.579 25.4825C135.726 24.9153 132.768 25.2069 130.081 26.3205C127.393 27.4341 125.096 29.3197 123.48 31.7387C121.865 34.1578 121.002 37.0017 121.003 39.9108C121.002 41.8423 121.382 43.7551 122.121 45.5397C122.86 47.3243 123.944 48.9458 125.309 50.3115C126.675 51.6772 128.297 52.7603 130.082 53.499C131.867 54.2376 133.779 54.6173 135.711 54.6163ZM135.711 32.336C137.21 32.3255 138.678 32.7604 139.929 33.5855C141.181 34.4106 142.159 35.5887 142.74 36.9705C143.321 38.3522 143.478 39.8754 143.192 41.3467C142.906 42.8181 142.19 44.1714 141.133 45.235C140.077 46.2986 138.729 47.0245 137.26 47.3208C135.79 47.6171 134.266 47.4704 132.88 46.8993C131.495 46.3281 130.31 45.3583 129.476 44.1127C128.642 42.8672 128.197 41.4021 128.197 39.9032C128.191 37.9036 128.979 35.9834 130.388 34.5645C131.797 33.1456 133.711 32.344 135.711 32.336Z" fill="#A87ECE"></path>
<path d="M9.94728 51.9377C10.5854 53.5596 10.9562 53.885 12.7219 53.885C14.4876 53.885 15.8295 53.0879 16.7855 50.8859L20.5691 42.1534L24.8218 51.9377C25.5003 53.5117 25.8308 53.885 27.5964 53.885C29.3394 53.885 30.5627 53.1283 31.5994 50.8859L42.4634 27.4277C42.8518 26.5978 42.2893 25.9823 41.5704 25.9823H38.7428C36.2381 25.9823 34.707 27.0266 33.5619 29.5439L28.1059 41.659L24.8949 34.3188C24.741 33.9833 24.6614 33.6185 24.6614 33.2493C24.6614 32.8802 24.741 32.5154 24.8949 32.1798L25.5785 30.6008C26.6783 28.0784 27.6898 27.3217 29.2208 26.9787C29.0998 26.222 28.5827 25.9697 27.3795 25.9697H23.4294C21.0004 25.9697 19.2549 26.9787 18.2409 29.5313L13.4484 41.6514L9.24102 29.5439C8.39602 27.0796 6.61521 25.9773 4.10796 25.9773H1.28289C0.54635 25.9773 0.0494399 26.5726 0.37735 27.4226L9.94728 51.9377Z" fill="#A87ECE"></path>
<path d="M58.5107 53.8394H61.4064C63.3613 53.8394 64.7486 52.4445 64.7486 50.4922V37.1235C64.7486 33.9932 66.4916 32.3638 70.3609 32.3638C74.2302 32.3638 75.9455 33.9806 75.9455 37.1109V52.7194C75.9455 53.4434 76.3364 53.8394 77.0553 53.8394H79.9535C81.9059 53.8394 83.2982 52.4445 83.2982 50.4922V36.2331C83.2982 28.9838 77.6178 25.2002 70.371 25.2002C63.1242 25.2002 57.4009 28.9838 57.4009 36.2331V52.7194C57.4009 53.4509 57.7843 53.8394 58.5107 53.8394Z" fill="#A87ECE"></path>
<path d="M46.0905 53.8395H48.9811C50.9334 53.8395 52.3258 52.4446 52.3258 50.4923V27.0946C52.3258 26.3758 51.9399 25.9848 51.2134 25.9848H49.4326C48.8449 25.9767 48.2616 26.0864 47.717 26.3074C47.1724 26.5285 46.6777 26.8565 46.262 27.2719C45.8463 27.6874 45.518 28.182 45.2967 28.7264C45.0753 29.2709 44.9652 29.8542 44.973 30.4419V52.7196C44.973 53.4511 45.3615 53.8395 46.0905 53.8395Z" fill="#A87ECE"></path>
</svg>
