<svg width="40" height="40" viewBox="0 0 40 40" fill="none" xmlns="http://www.w3.org/2000/svg">
<path fill-rule="evenodd" clip-rule="evenodd" d="M12.8812 18.6642C12.6696 18.3873 12.3289 18.2412 11.9827 18.2788C11.6364 18.3164 11.3351 18.5324 11.1879 18.8484L2.60824 36.0145C2.44933 36.3327 2.46632 36.7104 2.65314 37.0128C2.83997 37.3154 3.17 37.4996 3.52538 37.4996H15.4722C15.863 37.5087 16.2227 37.2863 16.3894 36.9323C18.9664 31.6033 17.4045 23.5006 12.8812 18.6642Z" fill="url(#paint0_linear_80_7612)"/>
<path fill-rule="evenodd" clip-rule="evenodd" d="M19.1743 3.0507C14.825 9.74742 14.323 18.2417 17.8532 25.4047L23.613 36.9322C23.7865 37.2798 24.1416 37.4995 24.53 37.4995H36.4746C36.83 37.4995 37.16 37.3153 37.3469 37.0128C37.5337 36.7102 37.5507 36.3325 37.3918 36.0144C37.3918 36.0144 21.3222 3.84879 20.9184 3.04425C20.7554 2.71009 20.4159 2.49864 20.0443 2.50001C19.6727 2.50139 19.3347 2.71533 19.1743 3.0507Z" fill="#2684FF"/>
<defs>
<linearGradient id="paint0_linear_80_7612" x1="17.5831" y1="21.3136" x2="5.54905" y2="34.2315" gradientUnits="userSpaceOnUse">
<stop stop-color="#0052CC"/>
<stop offset="0.923" stop-color="#2684FF"/>
</linearGradient>
</defs>
</svg>
