<svg width="40" height="40" viewBox="0 0 40 40" fill="none" xmlns="http://www.w3.org/2000/svg">
<path d="M21.375 20C21.375 16.7775 23.9225 14.1675 27.0625 14.1675C30.205 14.1675 32.75 16.775 32.75 20C32.75 23.2225 30.205 25.8325 27.0625 25.8325C23.925 25.8325 21.375 23.225 21.375 20Z" fill="#71B7FB"/>
<path d="M10 31.6675C10 28.445 12.5475 25.8325 15.6875 25.8325H21.375V31.6675C21.375 34.8875 18.8275 37.5 15.6875 37.5C12.5475 37.5 10 34.8875 10 31.6675Z" fill="#0ACF83"/>
<path d="M21.375 2.5V14.1675H27.0625C30.205 14.1675 32.75 11.555 32.75 8.3325C32.75 5.1125 30.205 2.5 27.0625 2.5H21.375Z" fill="#FF7262"/>
<path d="M10 8.3325C10 11.555 12.5475 14.1675 15.6875 14.1675H21.375V2.5H15.6875C12.5475 2.5 10 5.1125 10 8.3325Z" fill="#F24E1E"/>
<path d="M10 20C10 23.2225 12.5475 25.8325 15.6875 25.8325H21.375V14.1675H15.6875C12.5475 14.1675 10 16.775 10 20Z" fill="#A259FF"/>
</svg>
