<svg width="40" height="40" viewBox="0 0 40 40" fill="none" xmlns="http://www.w3.org/2000/svg">
<g clip-path="url(#clip0_80_7609)">
<path d="M20 40C31.0457 40 40 31.0457 40 20C40 8.9543 31.0457 0 20 0C8.9543 0 0 8.9543 0 20C0 31.0457 8.9543 40 20 40Z" fill="#4353FF"/>
<path d="M15.6082 19.3203C15.6082 18.8754 15.1758 18.4031 14.427 18.4031C13.5863 18.4031 12.6629 19.0199 12.5219 20.25C12.3777 21.4926 13.1508 22.0449 13.9281 22.0449C14.7055 22.0449 15.1152 21.741 15.5328 21.3363C15.1738 20.8852 14.7125 21.0941 14.6215 21.141C14.4744 21.2228 14.308 21.2633 14.1398 21.2582C13.8391 21.2582 13.5324 21.123 13.5324 20.5617C15.4609 20.3695 15.6082 19.7656 15.6082 19.3203ZM14.6539 19.3937C14.6418 19.5316 14.5863 19.768 13.6109 19.9016C13.8164 19.1715 14.2094 19.116 14.3902 19.116C14.4265 19.1145 14.4627 19.1208 14.4964 19.1345C14.53 19.1481 14.5604 19.1688 14.5854 19.1951C14.6104 19.2215 14.6295 19.2529 14.6414 19.2872C14.6533 19.3215 14.6577 19.358 14.6543 19.3941L14.6539 19.3937ZM11.3895 19.5133C11.3895 19.5133 10.9754 20.8141 10.9414 20.9195C10.9297 20.8113 10.625 18.4766 10.625 18.4766C9.91953 18.4766 9.54219 18.9797 9.34258 19.5105C9.34258 19.5105 8.83945 20.8145 8.7957 20.925C8.79258 20.8238 8.71758 19.5262 8.71758 19.5262C8.67461 18.8758 8.0793 18.4801 7.59766 18.4801L8.18047 22.0176C8.91992 22.0145 9.31875 21.5145 9.52734 20.9836C9.52734 20.9836 9.97227 19.8332 9.99062 19.7809C9.99375 19.8301 10.3098 22.0176 10.3098 22.0176C11.052 22.0176 11.4512 21.5488 11.6656 21.0359L12.7055 18.4805C11.9758 18.4797 11.5891 18.9801 11.3898 19.5137L11.3895 19.5133ZM18.3324 18.3984C17.8754 18.3984 17.5254 18.6469 17.2309 19.0121V19.009L17.4945 16.8828C16.8871 16.8828 16.393 17.4105 16.298 18.1957L15.8379 21.9906C16.1895 21.9906 16.559 21.8895 16.7582 21.6316C16.855 21.7629 16.9818 21.869 17.1281 21.941C17.2744 22.0131 17.4358 22.049 17.5988 22.0457C18.6234 22.0457 19.3262 20.8555 19.3262 19.7387C19.3203 18.7191 18.8281 18.3984 18.3324 18.3984ZM18.2375 20.2238C18.1301 20.8465 17.7836 21.2699 17.4492 21.2699C17.1148 21.2699 16.9676 21.1195 16.9676 21.1195C17.032 20.5727 17.0719 20.2391 17.1945 19.9508C17.3172 19.6625 17.6086 19.2023 17.9125 19.2023C18.2098 19.2008 18.3449 19.5965 18.2375 20.2223V20.2238ZM21.8852 18.4812H21.1719L21.175 18.4445C21.2242 17.9781 21.3344 17.7328 21.6996 17.693C21.948 17.6684 22.0586 17.5395 22.0863 17.3984C22.1078 17.2879 22.1754 16.9047 22.1754 16.9047C20.7395 16.8953 20.2887 17.5152 20.1719 18.4602L20.1688 18.4816H20.1535C19.9191 18.4816 19.6625 18.7453 19.6195 19.0801L19.6043 19.2027H20.0828L19.6809 22.523L19.5582 23.1184C19.5734 23.1184 19.5918 23.1215 19.6074 23.1215C20.2793 23.0969 20.709 22.566 20.8039 21.7961L21.1164 19.2035H21.3402C21.5609 19.2035 21.8188 18.9828 21.8648 18.6145L21.8852 18.4812ZM25.6035 18.4199C24.7781 18.4199 23.9988 19.0273 23.7598 19.9824C23.5207 20.9375 23.8824 22.0656 25.0973 22.0656C26.3121 22.0656 27.0086 20.8906 27.0086 19.9121C27.0086 18.9371 26.3492 18.4184 25.6035 18.4184V18.4199ZM25.9379 20.1934C25.8949 20.6258 25.7035 21.2824 25.1832 21.2824C24.6629 21.2824 24.732 20.5156 24.7844 20.1496C24.8395 19.759 25.0578 19.2047 25.5266 19.2047C25.9473 19.2039 25.9871 19.7039 25.9375 20.1918L25.9379 20.1934ZM31.0859 19.5137C31.0859 19.5137 30.6719 20.8145 30.6379 20.9199C30.6258 20.8094 30.3219 18.4746 30.3219 18.4746C29.6164 18.4746 29.2391 18.9777 29.0395 19.5086C29.0395 19.5086 28.5363 20.8125 28.4926 20.923C28.4895 20.8219 28.4145 19.5242 28.4145 19.5242C28.3715 18.8738 27.7762 18.4781 27.2945 18.4781L27.8742 22.0156C28.6137 22.0125 29.0125 21.5125 29.2211 20.9816C29.2211 20.9816 29.666 19.8312 29.6813 19.7789C29.6875 19.8281 30.0004 22.0156 30.0004 22.0156C30.7426 22.0156 31.1418 21.5469 31.3563 21.034L32.3961 18.4785C31.6688 18.4797 31.2824 18.9801 31.0859 19.5137ZM22.5602 16.9027L21.959 21.7535L21.8359 22.3516C21.8512 22.3516 21.8695 22.3547 21.8852 22.3547C22.5324 22.3453 22.9926 21.7777 23.0785 21.0629L23.4254 18.2812C23.5297 17.4305 23.0234 16.9027 22.5602 16.9027Z" fill="#FAFAFA"/>
</g>
<defs>
<clipPath id="clip0_80_7609">
<rect width="40" height="40" fill="white"/>
</clipPath>
</defs>
</svg>
