<svg width="77" height="80" viewBox="0 0 77 80" fill="none" xmlns="http://www.w3.org/2000/svg">
<g clip-path="url(#clip0_111_4233)">
<path fill-rule="evenodd" clip-rule="evenodd" d="M72.8726 5.85054C71.4806 6.39846 71.1417 8.34997 72.2579 9.39354C74.0899 11.1074 76.8826 9.07541 75.778 6.83231C75.2853 5.83105 74.014 5.40135 72.8726 5.85054ZM56.9602 9.53456C56.4085 9.7042 55.7038 10.3226 55.404 10.9C55.2119 11.27 53.9522 14.9171 53.2334 17.1855C53.068 17.7085 52.9 18.1361 52.8601 18.1357C52.8207 18.1357 52.3218 18.0747 51.7515 18.0005C42.5601 16.8039 34.6956 20.086 31.2758 26.5457C30.4993 28.0123 30.3413 28.7618 30.6627 29.452C31.3649 30.9605 33.7685 30.4926 34.406 28.7232C36.0307 24.2117 42.1503 21.3004 48.8132 21.8691C49.6904 21.9438 51.3591 22.1379 51.4872 22.1798C51.5437 22.1984 51.4964 22.434 51.3309 22.9537C50.8331 24.5195 49.8265 27.97 48.6626 32.1003C48.0762 34.18 46.7319 39.2614 46.568 40.0154C46.5021 40.3195 46.2976 41.2062 46.1134 41.9856C45.9293 42.765 45.6929 43.8326 45.5879 44.3581L45.3975 45.3137L44.8069 45.7447C44.2565 46.1466 42.9856 47.011 42.5916 47.2512C42.0375 47.5892 39.7562 48.537 39.7583 48.4283C39.7587 48.4017 39.8234 48.1778 39.9014 47.9306C39.9798 47.6833 40.4323 46.1906 40.9068 44.6124C41.3813 43.0346 41.986 41.0561 42.2498 40.2154C42.514 39.375 42.7301 38.6338 42.7301 38.5683C42.7301 38.3725 44.9106 31.8485 45.5622 30.0953C46.7568 26.88 46.8592 26.3362 46.4208 25.5311C45.653 24.1209 43.2254 24.6618 41.9421 26.5287C41.6961 26.8866 40.3137 30.479 39.5853 32.6532C38.2522 36.6334 37.1083 39.5102 35.6043 42.6658C33.5396 46.9973 28.6117 53.126 27.7908 52.3827C27.3308 51.9667 28.4391 47.0529 30.2243 41.5941C30.9473 39.3829 30.9572 38.8922 30.2919 38.2464C28.895 36.8914 26.5365 38.3132 25.466 41.1561C23.5946 46.1267 22.5999 51.3031 23.1354 53.2882C24.0268 56.5952 26.9443 57.2003 30.2521 54.7648C31.4674 53.8701 31.7913 53.5702 33.0435 52.182C33.2837 51.9161 33.462 51.7606 33.4405 51.8365C33.3106 52.2877 32.6258 55.2024 32.5064 55.8112C31.9004 58.9026 31.6495 60.4853 31.1737 64.2104C30.5076 69.4266 31.6449 73.4441 34.1311 74.659L34.6765 74.9257H35.8171C37.46 74.9257 38.3398 74.4126 39.2543 72.9207C39.3012 72.8448 39.548 72.4416 39.8035 72.0252C42.9977 66.8123 43.5941 57.2211 41.03 52.2931C40.7848 51.8215 40.5924 51.4317 40.6028 51.4267C40.6131 51.4217 40.8703 51.3134 41.1747 51.1861C42.2735 50.7265 42.4294 50.6544 43.1101 50.2894C43.49 50.0857 44.0923 49.7361 44.4477 49.5125C44.8036 49.2889 45.1026 49.106 45.1122 49.106C45.1217 49.106 45.1503 49.352 45.1752 49.6531C45.6315 55.1248 50.143 57.2816 55.1646 54.4288C57.7246 52.9742 62.8089 47.4718 63.8832 44.9927C63.9491 44.8405 64.1897 44.405 64.4182 44.025C65.7264 41.8479 67.2586 38.2037 67.1814 37.4542C66.9305 35.0253 63.6662 35.3924 62.8454 37.9416C62.463 39.1295 60.6202 42.7961 59.7885 44.025C57.0125 48.1259 53.6669 51.1525 51.749 51.2985C49.5971 51.4628 48.8779 48.3864 49.9281 43.5066C50.3333 41.6218 51.8946 35.6047 52.8332 32.3077C53.0227 31.6424 53.2334 30.8489 53.3015 30.5449C53.4757 29.768 55.2646 23.8082 55.5736 22.9761L55.6375 22.8048L57.6346 22.7974C61.648 22.7828 65.0284 21.7695 67.6211 19.8039C67.8277 19.6476 68.0218 19.519 68.0525 19.519C68.2047 19.5182 69.3366 18.5642 70.1052 17.7894C73.3504 14.5164 74.2832 11.747 72.3313 11.1796C71.2342 10.861 70.2475 11.3869 69.5569 12.6586C67.8339 15.8317 64.1926 18.1971 60.2701 18.6907C59.6214 18.7724 57.1618 18.7649 57.078 18.6811C57.0407 18.6438 58.251 15.0253 59.1071 12.6167C59.387 11.8283 59.4588 11.5383 59.4575 11.1995C59.453 9.89956 58.2912 9.12477 56.9602 9.53456ZM20.4012 14.7914C17.4476 15.1344 15.0755 17.183 13.3256 20.9014C12.7072 22.215 11.321 26.0139 11.1435 26.8808C11.1124 27.033 10.9601 27.593 10.805 28.1251C8.6117 35.6512 7.86303 43.9147 8.72369 51.0957L8.79213 51.6685L8.17038 52.4437C7.82861 52.8701 7.43582 53.3591 7.29728 53.53C7.15875 53.7013 6.60171 54.3077 6.0596 54.878C5.51707 55.4483 4.76551 56.2455 4.38972 56.6499C4.01435 57.0539 3.14208 57.8855 2.45148 58.4977C0.610305 60.1307 0.427805 60.3966 0.369321 61.5277C0.295492 62.9578 1.54645 63.8019 3.00355 63.305C3.59294 63.1042 6.08283 60.8001 8.7183 58.0162L9.85892 56.8113L10.1389 57.4695C11.6653 61.0552 13.8872 63.0511 17.0266 63.6579C21.3038 64.4842 26.2006 61.9524 25.5913 59.2298C25.2615 57.7561 23.5697 57.4396 22.0661 58.5703C21.0566 59.3294 19.4224 59.5488 18.0996 59.1029C15.7869 58.3227 14.5927 56.7374 13.7292 53.3006L13.489 52.345L13.9556 51.676C14.212 51.3081 14.453 50.9563 14.4907 50.8941C14.5289 50.8319 14.7665 50.4897 15.0195 50.1338C15.2721 49.7775 15.7657 49.0351 16.1162 48.4839C16.4667 47.9322 16.8383 47.3569 16.942 47.2047C17.2228 46.7937 17.638 46.062 18.1196 45.1308C18.3551 44.6746 18.6571 44.1213 18.7902 43.901C19.3324 43.0043 21.5074 38.3808 21.5074 38.1253C21.5074 38.0801 21.6966 37.5691 21.9276 36.9901C24.8032 29.7817 26.2176 21.5145 25.1632 18.0781C24.4834 15.8628 22.5668 14.5396 20.4012 14.7914ZM20.3465 19.3141C21.916 19.75 21.0781 26.8431 18.6285 33.8594C18.4551 34.3554 18.2867 34.8706 18.2539 35.0037C18.086 35.6852 16.8292 38.5604 15.8097 40.5949C14.8026 42.6049 14.1062 43.9462 14.0104 44.0595C13.9623 44.1167 13.6931 44.551 13.4119 45.0247L12.9009 45.8865L12.8507 45.2669C12.6703 43.0346 13.1058 37.6881 13.7346 34.416C15.2551 26.5017 17.5737 20.3622 19.3489 19.5472C19.5667 19.4472 19.7911 19.3394 19.8483 19.3079C19.9881 19.2303 20.0474 19.2311 20.3465 19.3141ZM29.4043 31.856C27.3105 32.8311 28.014 36.1095 30.3168 36.1095C31.9697 36.1095 33.0062 34.3745 32.2671 32.8457C31.7731 31.8237 30.4541 31.3674 29.4043 31.856ZM38.6143 55.6196C39.8047 59.1921 39.1676 65.4166 37.1531 69.8903C36.6189 71.0766 36.6388 71.0596 36.4156 70.5274C35.776 69.0031 35.7308 67.2806 36.2373 63.7268C36.5284 61.6849 37.8321 55.4533 38.139 54.6362C38.195 54.4873 38.3298 54.7656 38.6143 55.6196Z" fill="#FAFAFA"/>
</g>
<defs>
<clipPath id="clip0_111_4233">
<rect width="76.2376" height="70" fill="white" transform="translate(0.0200195 5)"/>
</clipPath>
</defs>
</svg>
