<svg width="1440" height="300" viewBox="0 0 1440 300" fill="none" xmlns="http://www.w3.org/2000/svg">
<path d="M112.97 115.587C112.548 115.532 112.133 115.48 111.711 115.424C111.366 115.403 111.022 115.382 110.678 115.36C111.442 115.435 112.206 115.512 112.97 115.587ZM1091.02 104.314L1089.91 104.432L1091.25 104.353L1092.3 104.268L1091.02 104.314ZM123.088 116.575C121.535 116.329 119.995 116.09 118.438 115.841C117.204 115.765 115.969 115.688 114.734 115.611C116.382 115.824 118.031 116.037 119.682 116.252C120.82 116.362 121.951 116.467 123.088 116.575ZM127.342 117.243L126.249 117.071L125.387 116.99C126.038 117.074 126.693 117.16 127.342 117.243ZM1080.41 105.181L1079.26 105.334L1080.58 105.226L1081.74 105.102L1080.41 105.181ZM1085.36 104.52C1084.57 104.624 1083.78 104.73 1082.99 104.835C1083.9 104.781 1084.81 104.729 1085.72 104.676C1086.53 104.59 1087.33 104.504 1088.13 104.419L1085.36 104.52ZM131.013 117.324C129.064 116.966 127.127 116.615 125.171 116.253C123.648 116.162 122.122 116.067 120.598 115.975C122.553 116.283 124.496 116.584 126.451 116.893C127.973 117.037 129.494 117.182 131.013 117.324ZM137.684 118.538L133.27 117.735C132.054 117.621 130.832 117.504 129.613 117.389C131.112 117.625 132.613 117.862 134.108 118.094C135.303 118.244 136.491 118.389 137.684 118.538ZM141.618 119.253L141.188 119.175L140.687 119.113C141 119.161 141.307 119.206 141.618 119.253ZM1070.14 106.288C1069.75 106.353 1069.36 106.418 1068.96 106.483L1070.34 106.334L1071.5 106.175L1070.14 106.288ZM1074.94 105.505L1072.59 105.889L1075.25 105.667C1076.05 105.559 1076.86 105.451 1077.66 105.343L1074.94 105.505ZM1079.71 104.729C1078.73 104.886 1077.76 105.044 1076.79 105.202L1080.25 104.997C1081.24 104.865 1082.23 104.731 1083.22 104.599L1079.71 104.729ZM138.52 118.025C136.287 117.564 134.068 117.11 131.824 116.643C130.17 116.546 128.518 116.45 126.861 116.352C129.081 116.761 131.274 117.152 133.491 117.558C135.168 117.714 136.847 117.872 138.52 118.025ZM146.147 119.587C144.177 119.184 142.208 118.781 140.234 118.376C138.738 118.24 137.248 118.108 135.748 117.969C137.643 118.315 139.538 118.66 141.424 119.001C142.997 119.195 144.58 119.396 146.147 119.587ZM152.63 120.914C151.286 120.642 149.926 120.362 148.57 120.083C147.358 119.937 146.143 119.787 144.928 119.639C146.326 119.89 147.711 120.134 149.101 120.382C150.277 120.559 151.458 120.739 152.63 120.914ZM1060.32 107.634L1059.13 107.871L1060.33 107.705C1060.76 107.633 1061.19 107.562 1061.62 107.491L1060.32 107.634ZM1064.88 106.731C1064.11 106.882 1063.34 107.034 1062.57 107.185C1063.45 107.089 1064.32 106.992 1065.2 106.896L1067.56 106.504C1066.66 106.58 1065.77 106.656 1064.88 106.731ZM1069.48 105.832C1068.53 106.017 1067.58 106.201 1066.64 106.386C1067.74 106.294 1068.84 106.202 1069.94 106.11C1070.93 105.948 1071.92 105.787 1072.91 105.626C1071.76 105.694 1070.62 105.763 1069.48 105.832ZM1074.08 104.938C1073.02 105.142 1071.96 105.348 1070.9 105.553C1072.19 105.476 1073.47 105.399 1074.76 105.323C1075.84 105.146 1076.92 104.968 1078.01 104.792C1076.7 104.841 1075.39 104.889 1074.08 104.938ZM145.724 118.673C143.322 118.127 140.937 117.59 138.521 117.036C136.784 116.937 135.038 116.831 133.298 116.73C135.702 117.228 138.071 117.706 140.466 118.2C142.222 118.36 143.972 118.516 145.724 118.673ZM153.843 120.506C151.621 120.005 149.401 119.505 147.174 119C145.511 118.852 143.846 118.702 142.181 118.551C144.398 119.007 146.613 119.461 148.818 119.911C150.5 120.114 152.166 120.306 153.843 120.506ZM161.393 122.21C159.521 121.794 157.622 121.361 155.728 120.932C154.205 120.751 152.688 120.574 151.161 120.39C153.144 120.794 155.118 121.192 157.086 121.587C158.531 121.8 159.952 121.999 161.393 122.21ZM168.524 123.775C167.056 123.452 165.598 123.135 164.136 122.815C163.085 122.662 162.04 122.514 160.987 122.359C162.584 122.675 164.184 122.992 165.781 123.308C166.7 123.467 167.606 123.618 168.524 123.775ZM1050.85 109.228C1050.45 109.321 1050.06 109.414 1049.66 109.506C1050.11 109.43 1050.56 109.353 1051 109.277L1052.14 109.047L1050.85 109.228ZM1055.22 108.199L1053.01 108.721C1053.84 108.605 1054.66 108.488 1055.49 108.373C1056.27 108.218 1057.04 108.064 1057.82 107.909C1056.95 108.006 1056.09 108.103 1055.22 108.199ZM1059.62 107.176C1058.69 107.39 1057.77 107.603 1056.84 107.818C1057.92 107.699 1059 107.58 1060.08 107.46C1061.02 107.273 1061.96 107.085 1062.91 106.898C1061.81 106.991 1060.71 107.083 1059.62 107.176ZM1064.01 106.161L1060.95 106.868C1062.19 106.763 1063.42 106.659 1064.65 106.555C1065.72 106.346 1066.78 106.138 1067.85 105.93L1064.01 106.161ZM1068.44 105.151C1067.34 105.4 1066.24 105.649 1065.14 105.9C1066.52 105.817 1067.9 105.734 1069.27 105.651C1070.4 105.431 1071.52 105.211 1072.65 104.992C1071.25 105.044 1069.85 105.098 1068.44 105.151ZM152.914 119.32C150.32 118.68 147.747 118.052 145.138 117.403C143.37 117.305 141.606 117.21 139.836 117.109C142.379 117.691 144.885 118.25 147.419 118.825C149.249 118.989 151.088 119.16 152.914 119.32ZM161.42 121.405C158.999 120.812 156.58 120.221 154.151 119.623C152.394 119.47 150.629 119.31 148.868 119.153C151.247 119.692 153.622 120.229 155.989 120.76C157.8 120.975 159.615 121.193 161.42 121.405ZM169.497 123.384C167.359 122.867 165.182 122.328 163.017 121.796C161.31 121.597 159.587 121.388 157.873 121.186C160.062 121.678 162.246 122.167 164.415 122.648C166.112 122.895 167.806 123.14 169.497 123.384ZM177.531 125.296C175.587 124.831 173.657 124.374 171.719 123.913C170.224 123.699 168.717 123.478 167.217 123.261C169.174 123.689 171.131 124.117 173.089 124.546C174.574 124.798 176.051 125.047 177.531 125.296ZM184.404 126.932C183.147 126.634 181.881 126.332 180.62 126.031C179.539 125.851 178.449 125.665 177.367 125.482C178.632 125.759 179.903 126.04 181.158 126.312C182.244 126.521 183.321 126.724 184.404 126.932ZM1041.78 111.068C1041.41 111.173 1041.03 111.28 1040.65 111.385L1041.79 111.152C1042.21 111.051 1042.63 110.95 1043.05 110.85L1041.78 111.068ZM1045.98 109.91C1045.26 110.109 1044.53 110.308 1043.81 110.508C1044.6 110.372 1045.39 110.237 1046.18 110.101C1046.93 109.924 1047.66 109.746 1048.41 109.57C1047.6 109.683 1046.79 109.796 1045.98 109.91ZM1050.13 108.768C1049.25 109.009 1048.38 109.25 1047.5 109.491C1048.52 109.348 1049.54 109.205 1050.56 109.063C1051.49 108.845 1052.41 108.627 1053.34 108.41C1052.27 108.529 1051.2 108.648 1050.13 108.768ZM1054.36 107.625C1053.36 107.892 1052.37 108.159 1051.38 108.428C1052.57 108.295 1053.77 108.162 1054.96 108.029C1055.98 107.789 1057.01 107.549 1058.03 107.31C1056.81 107.415 1055.58 107.52 1054.36 107.625ZM1058.55 106.493C1057.5 106.774 1056.46 107.056 1055.42 107.338C1056.74 107.226 1058.05 107.113 1059.37 107.002C1060.47 106.748 1061.56 106.495 1062.66 106.243C1061.29 106.326 1059.92 106.409 1058.55 106.493ZM1062.82 105.363C1061.71 105.656 1060.6 105.947 1059.5 106.242C1060.93 106.155 1062.36 106.068 1063.79 105.982C1064.93 105.719 1066.08 105.458 1067.22 105.197C1065.76 105.252 1064.29 105.307 1062.82 105.363ZM159.92 119.921C157.205 119.202 154.516 118.499 151.783 117.772C149.976 117.674 148.162 117.571 146.351 117.471C149.054 118.141 151.712 118.786 154.402 119.449C156.247 119.61 158.079 119.762 159.92 119.921ZM168.827 122.262C166.232 121.58 163.635 120.899 161.026 120.211C159.228 120.057 157.434 119.907 155.632 119.75C158.191 120.379 160.744 121.005 163.287 121.626C165.139 121.842 166.981 122.05 168.827 122.262ZM177.447 124.523C175.046 123.901 172.603 123.254 170.171 122.615C168.404 122.413 166.653 122.221 164.88 122.016C167.265 122.598 169.645 123.178 172.007 123.747C173.822 124.006 175.64 124.268 177.447 124.523ZM186.134 126.746C183.819 126.151 181.523 125.568 179.207 124.973C177.547 124.74 175.897 124.513 174.231 124.276C176.462 124.809 178.686 125.336 180.916 125.868C182.652 126.158 184.407 126.46 186.134 126.746ZM194.124 128.79C192.226 128.307 190.313 127.816 188.402 127.326C186.936 127.084 185.476 126.847 184.005 126.603C185.806 127.033 187.612 127.466 189.394 127.885C190.966 128.184 192.559 128.496 194.124 128.79ZM200.711 130.469C199.576 130.183 198.431 129.892 197.282 129.598C196.337 129.421 195.404 129.251 194.457 129.073C195.714 129.365 196.955 129.648 198.212 129.94C199.043 130.115 199.884 130.296 200.711 130.469ZM1033.14 113.159L1032.11 113.495C1032.45 113.412 1032.79 113.332 1033.12 113.25C1033.5 113.143 1033.87 113.036 1034.24 112.93L1033.14 113.159ZM1037.08 111.881C1036.4 112.101 1035.72 112.322 1035.03 112.543C1035.8 112.384 1036.56 112.224 1037.33 112.065L1039.46 111.47L1037.08 111.881ZM1041.08 110.604C1040.23 110.874 1039.39 111.145 1038.54 111.415C1039.51 111.247 1040.48 111.079 1041.46 110.911C1042.34 110.664 1043.23 110.418 1044.13 110.172C1043.11 110.316 1042.1 110.46 1041.08 110.604ZM1045.07 109.337C1044.12 109.636 1043.18 109.935 1042.24 110.234C1043.38 110.072 1044.52 109.909 1045.67 109.748L1048.62 108.937C1047.43 109.07 1046.25 109.204 1045.07 109.337ZM1049.09 108.076C1048.08 108.392 1047.07 108.708 1046.07 109.024C1047.32 108.882 1048.58 108.741 1049.84 108.6C1050.9 108.312 1051.96 108.026 1053.02 107.739C1051.71 107.851 1050.4 107.963 1049.09 108.076ZM1053.12 106.825C1052.06 107.151 1051.01 107.479 1049.95 107.807C1051.33 107.689 1052.71 107.57 1054.09 107.452C1055.18 107.156 1056.28 106.86 1057.37 106.565L1053.12 106.825ZM1057.18 105.58C1056.09 105.914 1055 106.249 1053.91 106.584L1058.3 106.315C1059.44 106.01 1060.59 105.708 1061.74 105.404C1060.22 105.463 1058.7 105.521 1057.18 105.58ZM166.946 120.521C164.09 119.719 161.267 118.936 158.392 118.123C156.57 118.027 154.751 117.933 152.926 117.835C155.736 118.582 158.494 119.299 161.289 120.037C163.174 120.198 165.064 120.363 166.946 120.521ZM176.138 123.089C173.418 122.331 170.695 121.571 167.958 120.804C166.109 120.649 164.249 120.486 162.395 120.328C165.087 121.039 167.773 121.745 170.447 122.445C172.348 122.662 174.244 122.876 176.138 123.089ZM185.094 125.583C182.538 124.879 179.938 124.15 177.349 123.427C175.5 123.22 173.646 123.009 171.792 122.798C174.371 123.474 176.948 124.147 179.501 124.808C181.372 125.071 183.23 125.325 185.094 125.583ZM194.114 128.04C191.615 127.358 189.138 126.688 186.636 126.003C184.846 125.756 183.056 125.509 181.26 125.258C183.749 125.897 186.22 126.527 188.703 127.162C190.516 127.461 192.308 127.747 194.114 128.04ZM202.679 130.373C200.48 129.778 198.259 129.171 196.041 128.565C194.351 128.291 192.666 128.02 190.969 127.742C193.182 128.31 195.402 128.882 197.589 129.436C199.297 129.755 200.978 130.058 202.679 130.373ZM210.734 132.547C208.878 132.05 207.023 131.553 205.151 131.046C203.661 130.772 202.178 130.501 200.682 130.224C202.72 130.735 204.72 131.224 206.755 131.734C208.092 132.011 209.402 132.273 210.734 132.547ZM218.068 134.492C216.851 134.169 215.636 133.846 214.426 133.526C213.56 133.349 212.699 133.174 211.832 132.996C213.19 133.333 214.557 133.675 215.911 134.01C216.636 134.175 217.344 134.329 218.068 134.492ZM1024.92 115.499C1024.58 115.627 1024.24 115.755 1023.9 115.883L1024.91 115.592L1025.97 115.241C1025.62 115.327 1025.27 115.413 1024.92 115.499ZM1028.65 114.094C1028 114.336 1027.36 114.579 1026.72 114.821L1028.78 114.315C1029.48 114.085 1030.18 113.857 1030.88 113.628C1030.14 113.784 1029.39 113.938 1028.65 114.094ZM1032.43 112.689C1031.61 112.989 1030.8 113.289 1029.99 113.591C1030.92 113.397 1031.85 113.205 1032.78 113.012C1033.62 112.738 1034.45 112.464 1035.3 112.19C1034.34 112.357 1033.38 112.522 1032.43 112.689ZM1036.19 111.297C1035.3 111.625 1034.41 111.955 1033.52 112.284C1034.59 112.098 1035.67 111.913 1036.74 111.727C1037.69 111.422 1038.64 111.118 1039.59 110.814C1038.46 110.975 1037.32 111.135 1036.19 111.297ZM1040.02 109.908C1039.04 110.258 1038.07 110.608 1037.11 110.96C1038.32 110.788 1039.54 110.616 1040.75 110.444C1041.75 110.125 1042.75 109.804 1043.76 109.485C1042.51 109.626 1041.26 109.767 1040.02 109.908ZM1043.82 108.531C1042.82 108.892 1041.82 109.255 1040.82 109.616C1042.13 109.468 1043.44 109.32 1044.76 109.172C1045.82 108.838 1046.88 108.507 1047.94 108.175C1046.57 108.293 1045.19 108.412 1043.82 108.531ZM1047.69 107.159C1046.64 107.529 1045.58 107.9 1044.54 108.273C1045.96 108.15 1047.38 108.028 1048.8 107.905C1049.89 107.566 1050.97 107.227 1052.06 106.889C1050.61 106.979 1049.15 107.069 1047.69 107.159ZM1051.55 105.797C1050.48 106.172 1049.42 106.549 1048.35 106.924C1049.85 106.832 1051.35 106.74 1052.85 106.648C1053.97 106.304 1055.09 105.961 1056.21 105.617C1054.66 105.677 1053.1 105.737 1051.55 105.797ZM173.866 121.093C170.936 120.227 167.988 119.35 165.035 118.47C163.179 118.375 161.321 118.277 159.463 118.179C162.41 119.011 165.297 119.808 168.228 120.631C170.111 120.788 171.986 120.939 173.866 121.093ZM183.395 123.904C180.537 123.066 177.658 122.216 174.771 121.362C172.925 121.211 171.09 121.068 169.24 120.914C172.046 121.701 174.846 122.483 177.632 123.258C179.552 123.473 181.481 123.693 183.395 123.904ZM192.836 126.656C190.06 125.849 187.28 125.04 184.484 124.222C182.607 124.016 180.725 123.806 178.843 123.596C181.55 124.35 184.255 125.101 186.934 125.838C188.899 126.109 190.88 126.39 192.836 126.656ZM202.012 129.321C199.417 128.573 196.791 127.808 194.166 127.044C192.28 126.789 190.371 126.519 188.477 126.258C191.111 126.979 193.722 127.687 196.347 128.402C198.234 128.708 200.134 129.021 202.012 129.321ZM211.139 131.93C208.671 131.225 206.206 130.523 203.728 129.812C201.921 129.524 200.087 129.219 198.273 128.927C200.677 129.583 203.088 130.245 205.464 130.886C207.356 131.234 209.257 131.588 211.139 131.93ZM219.731 134.387C217.604 133.785 215.439 133.161 213.282 132.543C211.513 132.223 209.714 131.885 207.936 131.559C210.225 132.172 212.467 132.759 214.75 133.368C216.411 133.709 218.078 134.052 219.731 134.387ZM228.109 136.736C226.289 136.225 224.476 135.719 222.658 135.21C221.263 134.928 219.842 134.632 218.441 134.347C220.263 134.831 222.091 135.317 223.907 135.797C225.308 136.111 226.714 136.426 228.109 136.736ZM234.979 138.66C234.048 138.401 233.107 138.136 232.171 137.873C231.258 137.672 230.327 137.46 229.412 137.257C230.312 137.496 231.211 137.733 232.101 137.966C233.062 138.198 234.02 138.429 234.979 138.66ZM1017.07 118.113C1016.76 118.249 1016.45 118.384 1016.14 118.52L1017.03 118.223C1017.38 118.088 1017.73 117.954 1018.08 117.819C1017.74 117.917 1017.41 118.015 1017.07 118.113ZM1020.62 116.566C1020.03 116.826 1019.43 117.086 1018.83 117.346C1019.47 117.161 1020.11 116.978 1020.75 116.794C1021.4 116.546 1022.04 116.298 1022.69 116.052C1022 116.223 1021.31 116.395 1020.62 116.566ZM1024.16 115.037C1023.4 115.362 1022.65 115.688 1021.9 116.013C1022.77 115.796 1023.64 115.578 1024.52 115.362C1025.32 115.06 1026.12 114.758 1026.92 114.456C1026 114.649 1025.08 114.843 1024.16 115.037ZM1027.74 113.508C1026.89 113.87 1026.04 114.232 1025.19 114.595C1026.22 114.38 1027.24 114.164 1028.26 113.95C1029.16 113.614 1030.06 113.28 1030.96 112.945C1029.89 113.133 1028.82 113.321 1027.74 113.508ZM1031.33 111.993C1030.41 112.376 1029.5 112.761 1028.6 113.145C1029.75 112.943 1030.9 112.74 1032.06 112.539C1033.02 112.185 1033.97 111.83 1034.93 111.477C1033.73 111.649 1032.53 111.821 1031.33 111.993ZM1034.95 110.484C1033.99 110.882 1033.03 111.28 1032.08 111.679C1033.33 111.499 1034.59 111.319 1035.84 111.14C1036.85 110.771 1037.87 110.403 1038.88 110.036C1037.57 110.185 1036.26 110.334 1034.95 110.484ZM1038.58 108.985C1037.59 109.392 1036.6 109.799 1035.61 110.208C1036.97 110.053 1038.33 109.899 1039.69 109.745C1040.72 109.37 1041.76 108.994 1042.79 108.62C1041.39 108.742 1039.99 108.863 1038.58 108.985ZM1042.25 107.496C1041.23 107.908 1040.21 108.322 1039.2 108.736C1040.63 108.611 1042.07 108.487 1043.51 108.362C1044.58 107.979 1045.65 107.599 1046.73 107.218L1042.25 107.496ZM1045.94 106.016C1044.89 106.433 1043.85 106.85 1042.81 107.268C1044.34 107.173 1045.87 107.078 1047.4 106.984C1048.48 106.6 1049.57 106.215 1050.66 105.832C1049.08 105.892 1047.51 105.955 1045.94 106.016ZM180.779 121.654C177.736 120.71 174.687 119.764 171.617 118.805C169.769 118.713 167.921 118.619 166.07 118.524C169.069 119.418 172.067 120.31 175.038 121.189C176.954 121.345 178.868 121.501 180.779 121.654ZM190.572 124.677C187.608 123.766 184.629 122.845 181.639 121.919C179.744 121.768 177.844 121.612 175.944 121.458C178.898 122.33 181.837 123.194 184.763 124.051C186.706 124.264 188.635 124.468 190.572 124.677ZM200.271 127.647C197.381 126.766 194.484 125.88 191.568 124.985C189.663 124.78 187.763 124.578 185.853 124.369C188.731 125.211 191.6 126.048 194.455 126.877C196.405 127.141 198.329 127.388 200.271 127.647ZM209.866 130.561C207.079 129.717 204.279 128.867 201.469 128.011C199.559 127.758 197.662 127.512 195.745 127.253C198.518 128.058 201.282 128.858 204.028 129.648C205.987 129.96 207.917 130.254 209.866 130.561ZM219.297 133.403C216.638 132.605 213.971 131.803 211.289 130.993C209.415 130.699 207.563 130.419 205.68 130.12C208.324 130.879 210.96 131.632 213.586 132.381C215.5 132.728 217.392 133.061 219.297 133.403ZM228.57 136.169C226.083 135.429 223.585 134.684 221.081 133.935C219.272 133.612 217.491 133.306 215.673 132.978C218.114 133.674 220.548 134.366 222.963 135.048C224.84 135.426 226.702 135.796 228.57 136.169ZM237.484 138.813C235.254 138.155 233.016 137.493 230.766 136.824C229.117 136.497 227.498 136.187 225.843 135.855C228.054 136.475 230.266 137.095 232.469 137.711C234.145 138.08 235.817 138.448 237.484 138.813ZM246.023 141.314C244.168 140.771 242.305 140.225 240.445 139.68C239.065 139.379 237.713 139.095 236.328 138.791C238.077 139.28 239.819 139.766 241.548 140.244C243.038 140.6 244.54 140.962 246.023 141.314ZM252.893 143.327C251.927 143.046 250.945 142.756 249.967 142.469C249.281 142.308 248.609 142.154 247.922 141.992C249.006 142.288 250.098 142.589 251.183 142.885C251.748 143.03 252.33 143.183 252.893 143.327ZM1009.69 120.979C1009.44 121.11 1009.18 121.242 1008.93 121.373L1009.56 121.124C1009.89 120.979 1010.22 120.834 1010.54 120.69L1009.69 120.979ZM1013.03 119.296C1012.46 119.58 1011.89 119.864 1011.33 120.15C1011.95 119.938 1012.56 119.726 1013.19 119.515C1013.77 119.256 1014.35 118.997 1014.94 118.737C1014.3 118.923 1013.66 119.109 1013.03 119.296ZM1016.34 117.633C1015.64 117.985 1014.94 118.338 1014.24 118.69C1015.04 118.455 1015.84 118.22 1016.64 117.985C1017.41 117.652 1018.17 117.319 1018.94 116.986C1018.07 117.202 1017.2 117.417 1016.34 117.633ZM1019.71 115.972C1018.9 116.368 1018.09 116.763 1017.29 117.16C1018.26 116.917 1019.24 116.675 1020.21 116.433C1021.05 116.068 1021.88 115.702 1022.72 115.338C1021.72 115.549 1020.71 115.76 1019.71 115.972ZM1023.06 114.33C1022.21 114.745 1021.36 115.162 1020.52 115.578C1021.59 115.35 1022.68 115.124 1023.76 114.897C1024.67 114.505 1025.59 114.115 1026.51 113.724C1025.36 113.926 1024.21 114.128 1023.06 114.33ZM1026.48 112.688C1025.57 113.123 1024.65 113.557 1023.75 113.993C1024.95 113.782 1026.16 113.572 1027.36 113.361C1028.31 112.959 1029.25 112.555 1030.2 112.153C1028.96 112.332 1027.72 112.509 1026.48 112.688ZM1029.88 111.062C1028.95 111.505 1028.03 111.949 1027.1 112.392C1028.38 112.207 1029.67 112.023 1030.96 111.839C1031.95 111.425 1032.94 111.012 1033.94 110.599C1032.58 110.754 1031.23 110.908 1029.88 111.062ZM1033.35 109.442C1032.38 109.893 1031.4 110.344 1030.44 110.798C1031.82 110.639 1033.21 110.481 1034.6 110.323C1035.61 109.904 1036.62 109.485 1037.64 109.067C1036.21 109.191 1034.78 109.317 1033.35 109.442ZM1036.8 107.836C1035.82 108.289 1034.84 108.746 1033.87 109.201C1035.33 109.073 1036.79 108.946 1038.25 108.818C1039.29 108.394 1040.33 107.972 1041.37 107.55C1039.85 107.645 1038.32 107.74 1036.8 107.836ZM1040.33 106.236C1039.31 106.694 1038.29 107.151 1037.29 107.611C1038.84 107.515 1040.39 107.418 1041.93 107.322C1042.99 106.897 1044.04 106.472 1045.1 106.049C1043.51 106.111 1041.92 106.173 1040.33 106.236ZM187.692 122.205C184.532 121.184 181.372 120.163 178.187 119.128C176.324 119.037 174.462 118.946 172.596 118.853C175.72 119.827 178.814 120.786 181.911 121.745C183.839 121.899 185.77 122.055 187.692 122.205ZM197.767 125.452C194.69 124.465 191.59 123.465 188.482 122.461C186.58 122.312 184.677 122.163 182.77 122.011C185.809 122.952 188.842 123.89 191.851 124.814C193.822 125.026 195.803 125.244 197.767 125.452ZM207.754 128.638C204.751 127.683 201.743 126.723 198.714 125.754C196.767 125.549 194.801 125.331 192.847 125.122C195.836 126.04 198.798 126.942 201.762 127.845C203.761 128.11 205.762 128.378 207.754 128.638ZM217.604 131.763C214.702 130.847 211.783 129.921 208.853 128.989C206.897 128.734 204.924 128.469 202.961 128.209C205.846 129.088 208.728 129.964 211.586 130.828C213.596 131.142 215.603 131.455 217.604 131.763ZM227.359 134.829C224.561 133.953 221.752 133.07 218.931 132.18C216.964 131.878 214.984 131.568 213.008 131.26C215.816 132.106 218.595 132.937 221.38 133.771C223.379 134.128 225.37 134.479 227.359 134.829ZM236.922 137.815C234.271 136.991 231.611 136.163 228.936 135.325C227.019 134.988 225.091 134.645 223.164 134.303C225.804 135.094 228.445 135.884 231.062 136.66C233.024 137.05 234.972 137.432 236.922 137.815ZM246.305 140.717C243.849 139.96 241.379 139.195 238.904 138.428C237.028 138.061 235.142 137.688 233.256 137.315C235.767 138.058 238.244 138.782 240.737 139.515C242.603 139.921 244.45 140.317 246.305 140.717ZM255.301 143.481C253.123 142.815 250.943 142.148 248.746 141.472C247.067 141.112 245.382 140.747 243.695 140.381C245.879 141.023 248.069 141.667 250.235 142.298C251.933 142.698 253.612 143.086 255.301 143.481ZM263.787 146.061C262.068 145.54 260.34 145.013 258.616 144.489C257.16 144.15 255.697 143.808 254.234 143.466C256.094 144.004 257.92 144.523 259.773 145.057C261.12 145.397 262.446 145.725 263.787 146.061ZM270.815 148.195C269.954 147.935 269.088 147.673 268.217 147.409C267.545 147.241 266.868 147.071 266.193 146.902C267.119 147.168 268.056 147.439 268.977 147.703C269.59 147.867 270.204 148.032 270.815 148.195ZM1002.8 124.092L1002.13 124.484C1002.34 124.392 1002.54 124.299 1002.74 124.207C1002.98 124.08 1003.22 123.953 1003.47 123.826L1002.8 124.092ZM1005.86 122.287C1005.34 122.591 1004.82 122.895 1004.3 123.199C1004.86 122.978 1005.42 122.757 1005.98 122.536C1006.54 122.248 1007.1 121.961 1007.66 121.673C1007.06 121.878 1006.46 122.082 1005.86 122.287ZM1008.97 120.49C1008.32 120.867 1007.66 121.244 1007.02 121.621C1007.76 121.367 1008.5 121.114 1009.24 120.86C1009.95 120.499 1010.67 120.137 1011.38 119.777C1010.58 120.014 1009.77 120.252 1008.97 120.49ZM1012.08 118.703C1011.34 119.125 1010.6 119.548 1009.87 119.97C1010.77 119.703 1011.68 119.437 1012.59 119.171C1013.38 118.773 1014.17 118.375 1014.97 117.978C1014 118.219 1013.04 118.461 1012.08 118.703ZM1015.24 116.921C1014.44 117.371 1013.64 117.823 1012.84 118.274C1013.87 118.017 1014.89 117.759 1015.91 117.502C1016.77 117.078 1017.63 116.655 1018.49 116.231C1017.41 116.461 1016.32 116.691 1015.24 116.921ZM1018.41 115.151C1017.56 115.62 1016.72 116.09 1015.88 116.561C1017.02 116.319 1018.16 116.077 1019.3 115.836C1020.19 115.397 1021.08 114.959 1021.98 114.521C1020.79 114.731 1019.6 114.941 1018.41 115.151ZM1021.62 113.39C1020.74 113.871 1019.86 114.352 1018.99 114.834C1020.21 114.618 1021.43 114.402 1022.66 114.186C1023.59 113.733 1024.53 113.283 1025.48 112.832C1024.19 113.018 1022.9 113.204 1021.62 113.39ZM1024.85 111.64C1023.94 112.129 1023.03 112.619 1022.13 113.109C1023.45 112.919 1024.77 112.727 1026.1 112.537C1027.05 112.08 1028 111.623 1028.96 111.167C1027.59 111.325 1026.22 111.483 1024.85 111.64ZM1028.1 109.901C1027.17 110.395 1026.25 110.89 1025.33 111.384C1026.72 111.224 1028.11 111.064 1029.51 110.904C1030.49 110.44 1031.49 109.979 1032.48 109.518C1031.02 109.646 1029.56 109.773 1028.1 109.901ZM1031.39 108.174C1030.44 108.671 1029.49 109.168 1028.54 109.667C1030.03 109.536 1031.51 109.406 1033 109.277C1033.99 108.813 1034.98 108.349 1035.98 107.887L1031.39 108.174ZM1034.71 106.459C1033.74 106.956 1032.78 107.455 1031.82 107.955C1033.36 107.858 1034.91 107.76 1036.46 107.664C1037.48 107.195 1038.51 106.732 1039.55 106.267C1037.93 106.33 1036.32 106.395 1034.71 106.459ZM194.499 122.727C191.298 121.654 188.028 120.545 184.781 119.448C182.905 119.36 181.024 119.266 179.145 119.175C182.365 120.221 185.564 121.256 188.755 122.287C190.674 122.436 192.585 122.581 194.499 122.727ZM204.893 126.19C201.682 125.121 198.488 124.061 195.255 122.98C193.353 122.835 191.452 122.691 189.544 122.542C192.713 123.565 195.865 124.579 199.002 125.584C200.974 125.792 202.927 125.987 204.893 126.19ZM215.126 129.594C212.035 128.573 208.888 127.52 205.757 126.477C203.814 126.277 201.884 126.086 199.933 125.882C203.02 126.87 206.092 127.851 209.149 128.823C211.147 129.084 213.137 129.339 215.126 129.594ZM225.36 132.956C222.292 131.949 219.228 130.946 216.136 129.926C214.173 129.675 212.22 129.43 210.249 129.174C213.259 130.131 216.25 131.075 219.233 132.017C221.277 132.331 223.326 132.648 225.36 132.956ZM235.4 136.247C232.467 135.291 229.493 134.313 226.524 133.339C224.539 133.039 222.553 132.739 220.559 132.434C223.463 133.349 226.363 134.262 229.239 135.162C231.291 135.522 233.361 135.893 235.4 136.247ZM245.402 139.486C242.542 138.562 239.677 137.634 236.795 136.698C234.809 136.356 232.812 136.006 230.816 135.657C233.63 136.536 236.415 137.399 239.206 138.265C241.264 138.668 243.357 139.091 245.402 139.486ZM255.118 142.619C252.444 141.762 249.747 140.891 247.044 140.018C245.102 139.644 243.141 139.258 241.187 138.878C243.814 139.693 246.442 140.508 249.043 141.308C251.061 141.741 253.112 142.194 255.118 142.619ZM264.686 145.672C262.204 144.883 259.71 144.086 257.212 143.287C255.314 142.886 253.39 142.47 251.482 142.062C253.971 142.825 256.421 143.566 258.897 144.32C260.82 144.767 262.775 145.232 264.686 145.672ZM273.806 148.568C271.647 147.886 269.481 147.2 267.3 146.507C265.614 146.12 263.902 145.719 262.207 145.327C264.301 145.966 266.403 146.608 268.475 147.234C270.246 147.675 272.045 148.132 273.806 148.568ZM282.467 151.289C280.781 150.76 279.082 150.225 277.39 149.693C275.994 149.35 274.579 148.996 273.177 148.649C275.054 149.211 276.919 149.767 278.792 150.328C280.03 150.655 281.236 150.964 282.467 151.289ZM289.717 153.561C288.823 153.283 287.926 153.003 287.024 152.72C286.42 152.562 285.818 152.405 285.214 152.247C286.105 152.512 287.006 152.785 287.889 153.046C288.493 153.215 289.113 153.393 289.717 153.561ZM996.337 127.472L995.734 127.886L996.223 127.625L996.927 127.2L996.337 127.472ZM999.13 125.556C998.676 125.866 998.228 126.176 997.774 126.486C998.25 126.267 998.73 126.047 999.208 125.828C999.732 125.514 1000.26 125.201 1000.79 124.888C1000.24 125.11 999.686 125.333 999.13 125.556ZM1002.03 123.61C1001.43 124.013 1000.82 124.416 1000.22 124.819C1000.92 124.542 1001.62 124.264 1002.32 123.986C1002.96 123.608 1003.59 123.228 1004.24 122.85C1003.5 123.103 1002.77 123.357 1002.03 123.61ZM1004.9 121.694C1004.22 122.143 1003.55 122.595 1002.88 123.044C1003.72 122.755 1004.55 122.464 1005.4 122.175C1006.13 121.746 1006.87 121.318 1007.61 120.89C1006.71 121.158 1005.8 121.426 1004.9 121.694ZM1007.85 119.768C1007.1 120.255 1006.35 120.742 1005.6 121.23C1006.57 120.944 1007.54 120.657 1008.51 120.371C1009.3 119.916 1010.09 119.46 1010.88 119.006C1009.87 119.26 1008.86 119.513 1007.85 119.768ZM1010.77 117.872C1009.99 118.374 1009.22 118.878 1008.45 119.38C1009.51 119.112 1010.58 118.845 1011.64 118.577C1012.48 118.1 1013.32 117.624 1014.17 117.147C1013.04 117.389 1011.9 117.63 1010.77 117.872ZM1013.77 115.973C1012.95 116.492 1012.12 117.011 1011.31 117.532C1012.47 117.283 1013.64 117.035 1014.81 116.788C1015.68 116.3 1016.55 115.812 1017.42 115.326C1016.2 115.541 1014.99 115.757 1013.77 115.973ZM1016.75 114.094C1015.91 114.619 1015.08 115.147 1014.25 115.673C1015.49 115.452 1016.75 115.231 1018 115.01C1018.89 114.513 1019.8 114.017 1020.7 113.522C1019.39 113.712 1018.07 113.903 1016.75 114.094ZM1019.81 112.219C1018.94 112.753 1018.06 113.287 1017.19 113.823C1018.53 113.628 1019.87 113.435 1021.21 113.241C1022.13 112.74 1023.05 112.24 1023.98 111.74C1022.59 111.9 1021.2 112.059 1019.81 112.219ZM1022.85 110.364C1021.97 110.898 1021.1 111.436 1020.22 111.972C1021.63 111.809 1023.05 111.647 1024.46 111.484C1025.4 110.979 1026.34 110.475 1027.29 109.972C1025.81 110.103 1024.33 110.233 1022.85 110.364ZM1025.98 108.515C1025.06 109.054 1024.15 109.592 1023.24 110.133L1027.73 109.738C1028.69 109.232 1029.65 108.727 1030.61 108.224L1025.98 108.515ZM1029.08 106.683C1028.16 107.22 1027.26 107.76 1026.34 108.299L1031.03 108.004C1032.01 107.498 1032.98 106.993 1033.96 106.489C1032.34 106.553 1030.71 106.618 1029.08 106.683ZM201.396 123.255C198.051 122.095 194.689 120.926 191.31 119.748C189.44 119.662 187.573 119.579 185.701 119.491C188.987 120.6 192.294 121.722 195.533 122.806C197.486 122.955 199.448 123.11 201.396 123.255ZM211.979 126.914C208.712 125.789 205.418 124.649 202.115 123.504C200.181 123.36 198.234 123.207 196.294 123.059C199.563 124.152 202.801 125.228 206.045 126.307C208.025 126.511 210.006 126.715 211.979 126.914ZM222.503 130.525C219.278 129.421 216.053 128.317 212.798 127.197C210.84 127 208.873 126.796 206.908 126.595C210.092 127.655 213.286 128.72 216.431 129.759C218.462 130.018 220.481 130.271 222.503 130.525ZM232.905 134.078C229.778 133.015 226.614 131.931 223.451 130.849C221.451 130.598 219.449 130.346 217.44 130.09C220.585 131.127 223.707 132.152 226.825 133.174C228.862 133.481 230.879 133.776 232.905 134.078ZM243.261 137.58C240.173 136.538 237.103 135.505 233.99 134.448C231.992 134.153 229.997 133.859 227.988 133.556C231.037 134.556 234.082 135.553 237.097 136.534C239.165 136.891 241.204 137.23 243.261 137.58ZM253.415 141.004C250.486 140.022 247.51 139.015 244.544 138.013C242.527 137.671 240.519 137.334 238.491 136.986C241.455 137.949 244.408 138.906 247.344 139.854C249.384 140.247 251.388 140.618 253.415 141.004ZM263.553 144.381C260.678 143.424 257.822 142.478 254.929 141.511C252.947 141.136 250.978 140.768 248.985 140.386C251.843 141.307 254.679 142.217 257.508 143.123C259.541 143.553 261.532 143.958 263.553 144.381ZM273.368 147.644C270.726 146.771 268.043 145.876 265.368 144.984C263.425 144.58 261.498 144.185 259.544 143.773C262.232 144.633 264.921 145.493 267.581 146.338C269.53 146.785 271.432 147.204 273.368 147.644ZM283.129 150.846C280.633 150.028 278.137 149.21 275.632 148.386C273.773 147.966 271.931 147.556 270.062 147.13C272.611 147.937 275.124 148.724 277.656 149.52C279.5 149.974 281.296 150.399 283.129 150.846ZM292.485 153.908C290.303 153.198 288.098 152.476 285.889 151.752C284.239 151.352 282.606 150.961 280.948 150.555C283.08 151.226 285.219 151.901 287.326 152.559C289.046 153.009 290.776 153.465 292.485 153.908ZM301.269 156.748C299.632 156.219 297.99 155.687 296.353 155.158C294.976 154.803 293.563 154.427 292.18 154.068C293.919 154.607 295.651 155.141 297.387 155.677C298.683 156.036 299.978 156.393 301.269 156.748ZM308.369 159.043C307.707 158.831 307.032 158.611 306.364 158.395C305.797 158.24 305.214 158.077 304.643 157.921C305.472 158.176 306.304 158.434 307.125 158.685C307.544 158.807 307.952 158.922 308.369 159.043ZM990.294 131.151C990.127 131.284 989.958 131.417 989.792 131.55L990.17 131.318L990.788 130.884C990.622 130.973 990.459 131.062 990.294 131.151ZM992.9 129.072L991.694 130.034C992.11 129.811 992.533 129.589 992.95 129.366C993.413 129.044 993.878 128.721 994.347 128.399L992.9 129.072ZM995.538 126.998C994.985 127.427 994.433 127.856 993.887 128.286C994.537 127.984 995.181 127.681 995.833 127.38L997.59 126.174C996.906 126.449 996.22 126.723 995.538 126.998ZM998.196 124.937C997.575 125.418 996.954 125.899 996.335 126.38C997.101 126.072 997.868 125.764 998.638 125.456C999.32 124.993 1000.01 124.531 1000.7 124.069C999.866 124.358 999.03 124.648 998.196 124.937ZM1000.88 122.888C1000.2 123.404 999.516 123.921 998.84 124.439C999.74 124.126 1000.65 123.815 1001.55 123.503C1002.28 123.014 1003.01 122.524 1003.75 122.034C1002.79 122.319 1001.84 122.604 1000.88 122.888ZM1003.59 120.849C1002.87 121.387 1002.16 121.926 1001.45 122.465C1002.44 122.169 1003.43 121.874 1004.43 121.579C1005.21 121.064 1006 120.551 1006.79 120.037C1005.72 120.307 1004.66 120.579 1003.59 120.849ZM1006.35 118.818C1005.59 119.374 1004.82 119.931 1004.07 120.489C1005.18 120.208 1006.28 119.927 1007.39 119.646C1008.2 119.124 1008.99 118.6 1009.8 118.079C1008.65 118.325 1007.5 118.571 1006.35 118.818ZM1009.12 116.802C1008.33 117.367 1007.56 117.933 1006.79 118.499C1007.96 118.247 1009.14 117.995 1010.32 117.743C1011.16 117.205 1012.01 116.67 1012.86 116.134C1011.61 116.357 1010.36 116.579 1009.12 116.802ZM1011.93 114.796C1011.12 115.369 1010.31 115.942 1009.51 116.517C1010.78 116.29 1012.06 116.062 1013.34 115.835C1014.19 115.296 1015.04 114.756 1015.9 114.218C1014.57 114.41 1013.25 114.603 1011.93 114.796ZM1014.76 112.804C1013.94 113.38 1013.12 113.957 1012.3 114.535C1013.65 114.339 1014.99 114.144 1016.33 113.949C1017.21 113.401 1018.11 112.857 1019 112.313C1017.59 112.476 1016.18 112.641 1014.76 112.804ZM1017.65 110.824C1016.79 111.403 1015.94 111.982 1015.1 112.564C1016.54 112.398 1017.97 112.232 1019.41 112.066C1020.3 111.522 1021.18 110.975 1022.07 110.432C1020.6 110.563 1019.12 110.693 1017.65 110.824ZM1020.54 108.86C1019.68 109.438 1018.83 110.018 1017.98 110.598C1019.47 110.466 1020.97 110.334 1022.46 110.203C1023.37 109.654 1024.3 109.108 1025.23 108.563L1020.54 108.86ZM1023.5 106.907C1022.61 107.486 1021.73 108.064 1020.86 108.646L1025.6 108.346C1026.52 107.802 1027.43 107.255 1028.36 106.711C1026.74 106.776 1025.12 106.842 1023.5 106.907ZM208.19 123.748C204.738 122.513 201.32 121.296 197.845 120.048C195.968 119.965 194.085 119.875 192.206 119.789C195.62 120.979 199.011 122.157 202.392 123.329C204.332 123.473 206.256 123.607 208.19 123.748ZM219.035 127.622C215.68 126.429 212.272 125.208 208.872 123.992C206.949 123.852 205.033 123.718 203.104 123.575C206.447 124.734 209.783 125.89 213.088 127.027C215.073 127.227 217.058 127.427 219.035 127.622ZM229.879 131.454C226.527 130.27 223.191 129.095 219.809 127.895C217.844 127.702 215.879 127.508 213.907 127.31C217.21 128.447 220.474 129.562 223.748 130.682C225.789 130.938 227.847 131.205 229.879 131.454ZM240.54 135.212C237.301 134.076 234.027 132.92 230.749 131.762C228.74 131.516 226.712 131.258 224.695 131.006C227.904 132.105 231.122 133.207 234.291 134.284C236.372 134.592 238.47 134.911 240.54 135.212ZM251.146 138.918C247.97 137.81 244.789 136.7 241.583 135.577C239.529 135.278 237.441 134.959 235.377 134.655C238.559 135.733 241.689 136.784 244.845 137.849C246.945 138.205 249.058 138.569 251.146 138.918ZM261.619 142.559C258.542 141.493 255.451 140.42 252.342 139.336C250.286 138.993 248.195 138.631 246.127 138.281C249.172 139.309 252.224 140.342 255.229 141.348C257.36 141.751 259.502 142.162 261.619 142.559ZM271.976 146.133C269.014 145.114 266.028 144.083 263.036 143.047C260.962 142.661 258.854 142.254 256.768 141.86C259.748 142.855 262.704 143.836 265.662 144.82C267.769 145.258 269.884 145.703 271.976 146.133ZM282.212 149.639C279.355 148.663 276.506 147.692 273.624 146.702C271.59 146.285 269.522 145.848 267.476 145.423C270.302 146.362 273.12 147.297 275.915 148.219C278.017 148.694 280.126 149.173 282.212 149.639ZM292.196 153.042C289.56 152.148 286.891 151.236 284.224 150.325C282.225 149.88 280.189 149.414 278.177 148.961C280.846 149.838 283.511 150.713 286.158 151.579C288.174 152.069 290.195 152.561 292.196 153.042ZM302.145 156.397C299.631 155.551 297.142 154.719 294.614 153.864C292.73 153.413 290.81 152.942 288.915 152.484C291.51 153.331 294.074 154.161 296.647 154.995C298.498 155.474 300.305 155.926 302.145 156.397ZM311.53 159.553C309.395 158.84 307.227 158.108 305.064 157.379C303.416 156.958 301.78 156.545 300.123 156.119C302.311 156.828 304.507 157.541 306.674 158.238C308.305 158.683 309.91 159.114 311.53 159.553ZM320.547 162.547L315.355 160.825C314.072 160.479 312.799 160.139 311.509 159.789C313.23 160.338 314.935 160.879 316.652 161.426C317.947 161.798 319.258 162.179 320.547 162.547ZM327.601 164.887C326.99 164.685 326.367 164.477 325.752 164.273C325.287 164.141 324.833 164.015 324.368 163.883C325.007 164.086 325.658 164.296 326.293 164.496C326.733 164.628 327.163 164.755 327.601 164.887ZM984.713 135.112C984.593 135.226 984.476 135.34 984.356 135.454L984.595 135.283C984.764 135.144 984.935 135.006 985.103 134.868L984.713 135.112ZM987.13 132.859C986.768 133.197 986.404 133.535 986.043 133.873C986.437 133.627 986.826 133.382 987.221 133.137C987.613 132.817 987.998 132.497 988.392 132.178C987.972 132.405 987.55 132.632 987.13 132.859ZM989.492 130.663C989.008 131.108 988.534 131.553 988.053 131.998C988.627 131.689 989.198 131.379 989.773 131.07C990.313 130.636 990.86 130.203 991.405 129.769C990.767 130.067 990.129 130.365 989.492 130.663ZM991.936 128.456C991.371 128.964 990.806 129.472 990.248 129.981C990.959 129.648 991.677 129.315 992.392 128.982C993.007 128.495 993.617 128.008 994.238 127.521C993.467 127.832 992.704 128.144 991.936 128.456ZM994.361 126.275C993.748 126.82 993.146 127.366 992.539 127.911C993.372 127.575 994.203 127.238 995.038 126.901C995.708 126.378 996.384 125.856 997.061 125.334C996.158 125.647 995.26 125.961 994.361 126.275ZM996.864 124.088C996.201 124.664 995.539 125.24 994.885 125.817C995.825 125.489 996.763 125.161 997.705 124.833C998.414 124.288 999.123 123.743 999.84 123.2C998.848 123.496 997.853 123.792 996.864 124.088ZM999.355 121.926C998.667 122.517 997.989 123.109 997.308 123.7C998.338 123.392 999.37 123.084 1000.4 122.776C1001.15 122.214 1001.89 121.652 1002.64 121.09C1001.55 121.369 1000.45 121.648 999.355 121.926ZM1001.92 119.769C1001.19 120.374 1000.47 120.978 999.762 121.584C1000.88 121.299 1002 121.015 1003.12 120.73C1003.89 120.156 1004.67 119.582 1005.45 119.01C1004.27 119.263 1003.09 119.516 1001.92 119.769ZM1004.47 117.632C1003.73 118.242 1003 118.854 1002.27 119.466C1003.48 119.207 1004.68 118.949 1005.89 118.691C1006.68 118.111 1007.48 117.531 1008.28 116.952C1007.01 117.178 1005.74 117.405 1004.47 117.632ZM1007.1 115.501C1006.33 116.118 1005.57 116.736 1004.81 117.355C1006.1 117.126 1007.38 116.896 1008.67 116.667C1009.48 116.081 1010.3 115.497 1011.13 114.913L1007.1 115.501ZM1009.73 113.389C1008.95 114.007 1008.18 114.628 1007.41 115.248C1008.77 115.049 1010.13 114.851 1011.5 114.652C1012.33 114.065 1013.16 113.479 1014 112.893C1012.57 113.059 1011.15 113.223 1009.73 113.389ZM1012.42 111.288C1011.62 111.908 1010.82 112.529 1010.03 113.152C1011.46 112.986 1012.9 112.819 1014.34 112.653C1015.18 112.064 1016.04 111.476 1016.9 110.89C1015.41 111.022 1013.92 111.155 1012.42 111.288ZM1015.12 109.204C1014.31 109.823 1013.51 110.445 1012.71 111.066C1014.22 110.932 1015.72 110.798 1017.24 110.664C1018.1 110.077 1018.96 109.49 1019.83 108.905L1015.12 109.204ZM1017.89 107.133C1017.06 107.752 1016.23 108.371 1015.41 108.993L1020.14 108.691C1021.02 108.104 1021.91 107.52 1022.8 106.935L1017.89 107.133ZM214.985 124.238C211.457 122.941 207.932 121.646 204.371 120.33C202.487 120.249 200.609 120.172 198.723 120.088C202.229 121.347 205.674 122.572 209.154 123.817C211.098 123.958 213.045 124.101 214.985 124.238ZM226.069 128.302C222.613 127.039 219.137 125.765 215.643 124.48C213.712 124.344 211.771 124.201 209.837 124.061C213.272 125.29 216.709 126.52 220.1 127.725C222.095 127.921 224.08 128.111 226.069 128.302ZM237.089 132.319C233.682 131.081 230.255 129.832 226.811 128.573C224.834 128.383 222.857 128.193 220.873 127.998C224.287 129.21 227.663 130.4 231.046 131.594C233.071 131.843 235.072 132.076 237.089 132.319ZM248.041 136.285C244.678 135.07 241.316 133.855 237.92 132.622C235.917 132.381 233.926 132.148 231.916 131.902C235.256 133.081 238.585 134.254 241.888 135.413C243.954 135.713 245.985 135.991 248.041 136.285ZM258.869 140.191C255.604 139.018 252.296 137.823 248.991 136.628C246.955 136.338 244.939 136.06 242.893 135.764C246.161 136.909 249.412 138.045 252.647 139.172C254.735 139.52 256.794 139.85 258.869 140.191ZM269.662 144.047C266.425 142.892 263.21 141.749 259.945 140.579C257.902 140.245 255.887 139.928 253.833 139.587C257.022 140.697 260.183 141.792 263.341 142.885C265.46 143.28 267.555 143.66 269.662 144.047ZM280.262 147.826C277.175 146.732 274.039 145.61 270.913 144.494C268.854 144.116 266.827 143.758 264.757 143.373C267.825 144.435 270.893 145.497 273.926 146.539C276.049 146.975 278.153 147.399 280.262 147.826ZM290.847 151.559C287.815 150.49 284.787 149.425 281.733 148.345C279.673 147.929 277.645 147.531 275.573 147.108C278.578 148.138 281.536 149.142 284.517 150.159C286.637 150.632 288.742 151.095 290.847 151.559ZM301.2 155.197C298.336 154.194 295.447 153.179 292.549 152.158C290.534 151.716 288.554 151.294 286.525 150.844C289.326 151.8 292.133 152.761 294.896 153.696C297.006 154.201 299.106 154.701 301.2 155.197ZM311.474 158.775C308.747 157.828 306.006 156.872 303.256 155.912C301.298 155.451 299.38 155.011 297.409 154.541C300.07 155.438 302.721 156.329 305.369 157.219C307.404 157.738 309.453 158.265 311.474 158.775ZM321.432 162.222C318.964 161.371 316.501 160.522 314.01 159.659C312.121 159.183 310.185 158.682 308.282 158.199C310.759 159.03 313.22 159.853 315.671 160.67C317.593 161.188 319.523 161.711 321.432 162.222ZM330.927 165.488C328.852 164.777 326.753 164.053 324.659 163.332C322.969 162.882 321.237 162.408 319.536 161.952C321.714 162.675 323.898 163.402 326.061 164.116C327.694 164.58 329.304 165.03 330.927 165.488ZM340.088 168.613C338.348 168.021 336.635 167.444 334.888 166.848C333.611 166.49 332.325 166.126 331.042 165.764C332.801 166.342 334.526 166.902 336.277 167.476C337.541 167.851 338.831 168.241 340.088 168.613ZM347.212 171.03C346.628 170.833 346.037 170.631 345.452 170.433C345.043 170.313 344.639 170.195 344.229 170.075C344.868 170.283 345.52 170.498 346.156 170.705C346.51 170.815 346.858 170.921 347.212 171.03ZM1012.26 107.362C1011.49 108.02 1010.72 108.681 1009.95 109.341L1014.71 109.037C1015.54 108.409 1016.38 107.785 1017.22 107.16L1012.26 107.362ZM979.664 139.32L979.401 139.615L979.531 139.506L979.903 139.145L979.664 139.32ZM981.795 136.943C981.477 137.295 981.16 137.647 980.843 137.999C981.199 137.74 981.551 137.481 981.908 137.222C982.261 136.884 982.614 136.546 982.965 136.208C982.576 136.453 982.183 136.698 981.795 136.943ZM983.932 134.601C983.503 135.067 983.077 135.532 982.653 135.998C983.161 135.678 983.676 135.357 984.187 135.037C984.678 134.572 985.18 134.108 985.681 133.644C985.094 133.962 984.515 134.282 983.932 134.601ZM986.104 132.261C985.604 132.795 985.107 133.328 984.613 133.862C985.276 133.501 985.943 133.14 986.609 132.779C987.156 132.269 987.7 131.759 988.249 131.249C987.533 131.586 986.818 131.923 986.104 132.261ZM988.312 129.927C987.759 130.507 987.208 131.087 986.661 131.668C987.434 131.304 988.202 130.94 988.977 130.577C989.585 130.019 990.207 129.463 990.826 128.906C989.989 129.246 989.147 129.586 988.312 129.927ZM990.549 127.609C989.956 128.217 989.367 128.827 988.783 129.436C989.662 129.078 990.546 128.72 991.429 128.362C992.068 127.785 992.702 127.206 993.347 126.629C992.413 126.956 991.479 127.282 990.549 127.609ZM992.815 125.304C992.192 125.932 991.572 126.56 990.958 127.188C991.922 126.85 992.894 126.512 993.861 126.174C994.542 125.571 995.237 124.969 995.93 124.367C994.888 124.679 993.854 124.992 992.815 125.304ZM995.117 123.011C994.466 123.653 993.819 124.296 993.178 124.939C994.242 124.619 995.306 124.299 996.374 123.98C997.072 123.371 997.761 122.761 998.466 122.154C997.348 122.439 996.233 122.725 995.117 123.011ZM997.453 120.731C996.778 121.382 996.108 122.035 995.443 122.688C996.586 122.396 997.727 122.103 998.873 121.811C999.6 121.188 1000.34 120.569 1001.08 119.948C999.872 120.209 998.662 120.47 997.453 120.731ZM999.825 118.465C999.129 119.122 998.439 119.781 997.755 120.44C998.983 120.175 1000.21 119.91 1001.44 119.645C1002.18 119.022 1002.92 118.397 1003.67 117.775C1002.39 118.005 1001.11 118.235 999.825 118.465ZM1002.23 116.213C1001.52 116.874 1000.81 117.536 1000.11 118.199C1001.41 117.966 1002.71 117.732 1004.01 117.499C1004.78 116.868 1005.56 116.241 1006.34 115.612C1004.97 115.812 1003.6 116.013 1002.23 116.213ZM1004.68 113.977C1003.95 114.639 1003.22 115.303 1002.5 115.967C1003.88 115.765 1005.26 115.562 1006.65 115.36C1007.43 114.731 1008.2 114.101 1008.99 113.475C1007.55 113.641 1006.12 113.809 1004.68 113.977ZM1007.17 111.755C1006.42 112.418 1005.67 113.081 1004.94 113.746C1006.39 113.577 1007.84 113.407 1009.29 113.238C1010.09 112.607 1010.9 111.979 1011.71 111.351C1010.2 111.486 1008.68 111.62 1007.17 111.755ZM1007.82 111.175L1007.41 111.537C1008.94 111.401 1010.47 111.266 1011.99 111.13C1012.8 110.502 1013.61 109.874 1014.43 109.248L1009.71 109.55C1009.08 110.091 1008.44 110.631 1007.82 111.175ZM221.738 124.709C218.153 123.357 214.531 121.986 210.901 120.61C209.013 120.531 207.122 120.449 205.232 120.367C208.82 121.693 212.377 123.001 215.929 124.306C217.868 124.443 219.803 124.576 221.738 124.709ZM233.118 128.984C229.541 127.643 225.974 126.306 222.364 124.946C220.438 124.813 218.517 124.684 216.587 124.548C220.114 125.844 223.617 127.127 227.107 128.403C229.107 128.595 231.123 128.797 233.118 128.984ZM244.334 133.188C240.864 131.893 237.338 130.568 233.821 129.248C231.839 129.062 229.838 128.864 227.849 128.673C231.323 129.943 234.787 131.207 238.222 132.455C240.259 132.699 242.305 132.949 244.334 133.188ZM255.534 137.347C252.068 136.061 248.63 134.79 245.132 133.486C243.114 133.249 241.078 133 239.052 132.758C242.492 134.007 245.89 135.233 249.298 136.463C251.38 136.76 253.462 137.057 255.534 137.347ZM266.59 141.443C263.236 140.206 259.837 138.944 256.441 137.684C254.386 137.397 252.314 137.1 250.248 136.806C253.594 138.015 256.949 139.229 260.252 140.415C262.371 140.761 264.484 141.104 266.59 141.443ZM277.608 145.491C274.294 144.276 270.977 143.059 267.631 141.826C265.541 141.49 263.437 141.147 261.335 140.804C264.656 141.994 267.925 143.156 271.218 144.33C273.356 144.722 275.484 145.108 277.608 145.491ZM288.493 149.473C285.277 148.3 282.041 147.117 278.787 145.924C276.689 145.547 274.58 145.162 272.469 144.776C275.672 145.919 278.872 147.06 282.035 148.181C284.197 148.618 286.345 149.045 288.493 149.473ZM299.268 153.39C296.153 152.261 293.013 151.119 289.865 149.972C287.753 149.552 285.631 149.127 283.505 148.7C286.634 149.806 289.742 150.901 292.842 151.993C294.995 152.465 297.129 152.926 299.268 153.39ZM309.942 157.242C306.915 156.152 303.896 155.067 300.841 153.962C298.75 153.51 296.649 153.053 294.543 152.592C297.56 153.653 300.554 154.7 303.54 155.744C305.687 156.251 307.811 156.745 309.942 157.242ZM320.481 161.031C317.619 160.007 314.711 158.959 311.812 157.914C309.747 157.434 307.673 156.948 305.593 156.459C308.514 157.48 311.437 158.501 314.326 159.503C316.399 160.024 318.423 160.518 320.481 161.031ZM330.908 164.74C328.153 163.761 325.411 162.789 322.638 161.801C320.653 161.309 318.687 160.826 316.687 160.325C319.476 161.289 322.218 162.227 324.987 163.181C326.981 163.712 328.927 164.217 330.908 164.74ZM341.03 168.33C338.539 167.451 336.017 166.555 333.493 165.658C331.644 165.172 329.808 164.692 327.946 164.199C330.382 165.038 332.821 165.879 335.224 166.7C337.158 167.242 339.11 167.795 341.03 168.33ZM350.684 171.719C348.541 170.968 346.389 170.211 344.238 169.456C342.632 169.011 341.052 168.581 339.437 168.13C341.551 168.847 343.671 169.568 345.779 170.283C347.421 170.765 349.053 171.242 350.684 171.719ZM359.819 174.914C358.179 174.343 356.544 173.774 354.89 173.195C353.614 172.824 352.314 172.44 351.032 172.066C352.748 172.646 354.43 173.205 356.133 173.778C357.355 174.153 358.603 174.542 359.819 174.914ZM367.122 177.444L365.464 176.87C365.132 176.769 364.803 176.67 364.469 176.569C365.118 176.785 365.776 177.007 366.422 177.222C366.657 177.297 366.888 177.369 367.122 177.444ZM975.115 143.794L974.929 144.047L974.957 144.019L975.251 143.678L975.115 143.794ZM976.972 141.3C976.705 141.655 976.44 142.01 976.175 142.364L977.019 141.643C977.336 141.281 977.654 140.92 977.973 140.558C977.636 140.805 977.306 141.053 976.972 141.3ZM978.863 138.808C978.496 139.287 978.131 139.766 977.767 140.245C978.218 139.913 978.677 139.582 979.13 139.251C979.55 138.778 979.972 138.305 980.396 137.833C979.883 138.158 979.374 138.483 978.863 138.808ZM980.789 136.32C980.349 136.882 979.914 137.443 979.481 138.005C980.076 137.627 980.665 137.249 981.263 136.871C981.75 136.333 982.238 135.795 982.731 135.258C982.084 135.612 981.433 135.966 980.789 136.32ZM982.744 133.849C982.257 134.459 981.773 135.069 981.294 135.679C981.996 135.294 982.699 134.91 983.404 134.524C983.944 133.938 984.488 133.351 985.035 132.764C984.271 133.126 983.506 133.488 982.744 133.849ZM984.73 131.392C984.208 132.032 983.689 132.672 983.174 133.312C983.974 132.933 984.782 132.555 985.585 132.175C986.163 131.558 986.746 130.942 987.333 130.326C986.462 130.681 985.598 131.037 984.73 131.392ZM986.752 128.945C986.197 129.609 985.645 130.274 985.099 130.94C986 130.571 986.897 130.203 987.801 129.834C988.408 129.2 989.019 128.565 989.634 127.931C988.672 128.268 987.712 128.607 986.752 128.945ZM988.81 126.51C988.228 127.19 987.652 127.871 987.08 128.553C988.067 128.205 989.054 127.858 990.044 127.51C990.677 126.86 991.314 126.211 991.956 125.563C990.908 125.878 989.856 126.194 988.81 126.51ZM990.902 124.091C990.297 124.782 989.7 125.473 989.106 126.165C990.174 125.842 991.248 125.52 992.319 125.197C992.976 124.537 993.637 123.878 994.303 123.219C993.168 123.51 992.033 123.8 990.902 124.091ZM993.032 121.686C992.407 122.383 991.788 123.082 991.174 123.781C992.324 123.486 993.478 123.191 994.629 122.896C995.306 122.229 995.989 121.563 996.676 120.898C995.46 121.161 994.245 121.423 993.032 121.686ZM995.202 119.296C994.556 119.998 993.916 120.701 993.283 121.406C994.513 121.139 995.744 120.874 996.976 120.608C997.671 119.937 998.372 119.267 999.078 118.599C997.784 118.831 996.493 119.064 995.202 119.296ZM997.41 116.922C996.746 117.626 996.089 118.332 995.438 119.038C996.744 118.803 998.05 118.568 999.358 118.333C1000.07 117.661 1000.79 116.989 1001.51 116.319L997.41 116.922ZM999.659 114.563C998.978 115.268 998.304 115.974 997.637 116.681C999.017 116.478 1000.4 116.276 1001.78 116.073C1002.51 115.4 1003.24 114.729 1003.98 114.058C1002.54 114.227 1001.1 114.395 999.659 114.563ZM1001.95 112.222C1001.25 112.925 1000.56 113.63 999.879 114.336C1001.33 114.166 1002.79 113.997 1004.24 113.827C1004.98 113.156 1005.73 112.485 1006.49 111.816C1004.97 111.951 1003.46 112.087 1001.95 112.222ZM1004.28 109.898C1003.57 110.599 1002.86 111.302 1002.16 112.007C1003.69 111.87 1005.21 111.734 1006.74 111.598C1006.92 111.434 1007.1 111.271 1007.29 111.108C1007.87 110.601 1008.46 110.097 1009.05 109.592L1004.28 109.898ZM1006.66 107.591C1005.93 108.29 1005.21 108.989 1004.49 109.691L1009.29 109.384C1010.06 108.718 1010.83 108.052 1011.62 107.388L1006.66 107.591ZM228.469 125.165C224.821 123.758 221.104 122.313 217.404 120.877C215.52 120.801 213.635 120.725 211.748 120.646C215.399 122.031 219.046 123.412 222.651 124.771C224.592 124.904 226.531 125.035 228.469 125.165ZM240.058 129.62C236.402 128.215 232.768 126.823 229.078 125.4C227.147 125.271 225.212 125.14 223.277 125.007C226.917 126.378 230.51 127.724 234.117 129.077C236.107 129.264 238.076 129.438 240.058 129.62ZM251.54 134.025C247.97 132.66 244.348 131.268 240.733 129.879C238.759 129.699 236.795 129.524 234.815 129.339C238.366 130.672 241.934 132.013 245.437 133.32C247.48 133.56 249.507 133.791 251.54 134.025ZM262.983 138.383C259.436 137.035 255.881 135.682 252.296 134.313C250.277 134.081 248.272 133.857 246.245 133.62C249.774 134.935 253.253 136.223 256.75 137.519C258.832 137.81 260.912 138.099 262.983 138.383ZM274.326 142.686C270.847 141.37 267.344 140.041 263.824 138.703C261.771 138.423 259.72 138.143 257.657 137.856C261.1 139.133 264.539 140.408 267.94 141.663C270.07 142.004 272.21 142.352 274.326 142.686ZM285.579 146.932C282.171 145.65 278.728 144.349 275.28 143.046C273.187 142.716 271.085 142.381 268.981 142.045C272.372 143.294 275.74 144.532 279.096 145.762C281.255 146.15 283.435 146.552 285.579 146.932ZM296.768 151.125C293.404 149.867 290.046 148.612 286.647 147.335C284.534 146.961 282.401 146.577 280.274 146.195C283.594 147.411 286.887 148.613 290.171 149.809C292.365 150.245 294.59 150.699 296.768 151.125ZM307.786 155.242C304.557 154.042 301.267 152.808 297.992 151.583C295.856 151.166 293.694 150.733 291.542 150.307C294.754 151.478 297.966 152.648 301.139 153.797C303.346 154.274 305.595 154.775 307.786 155.242ZM318.778 159.309C315.59 158.131 312.414 156.959 309.199 155.767C307.054 155.31 304.874 154.835 302.711 154.369C305.869 155.509 308.975 156.622 312.103 157.748C314.319 158.263 316.579 158.804 318.778 159.309ZM329.534 163.277C326.517 162.169 323.468 161.043 320.413 159.914C318.283 159.426 316.117 158.917 313.971 158.419C316.98 159.502 319.989 160.585 322.957 161.645C325.15 162.19 327.358 162.743 329.534 163.277ZM340.247 167.198C337.354 166.142 334.444 165.076 331.524 164.006C329.42 163.491 327.268 162.948 325.147 162.424C328.049 163.457 330.94 164.485 333.819 165.506C335.961 166.07 338.122 166.644 340.247 167.198ZM350.662 170.987C347.954 170.005 345.25 169.025 342.515 168.028C340.494 167.503 338.435 166.956 336.398 166.423C339.141 167.394 341.855 168.351 344.569 169.306C346.609 169.872 348.637 170.43 350.662 170.987ZM360.86 174.677C358.412 173.796 355.93 172.895 353.454 171.997C351.572 171.482 349.664 170.952 347.768 170.429C350.263 171.307 352.763 172.188 355.231 173.05C357.117 173.598 358.987 174.137 360.86 174.677ZM370.71 178.21C368.525 177.428 366.361 176.656 364.165 175.869C362.559 175.407 360.971 174.956 359.355 174.489C361.519 175.241 363.662 175.982 365.817 176.729C367.453 177.226 369.084 177.719 370.71 178.21ZM379.792 181.457C378.268 180.916 376.717 180.358 375.175 179.806C373.929 179.432 372.653 179.042 371.401 178.665C372.986 179.214 374.566 179.759 376.135 180.299C377.347 180.682 378.585 181.078 379.792 181.457ZM387.313 184.118L385.742 183.563L385.024 183.339C385.698 183.569 386.381 183.804 387.054 184.034L387.313 184.118ZM971.058 148.565L970.987 148.682L971.105 148.515L971.058 148.565ZM972.652 145.933C972.435 146.285 972.222 146.638 972.007 146.991C972.24 146.755 972.476 146.519 972.709 146.284C972.973 145.92 973.237 145.556 973.503 145.192C973.218 145.439 972.935 145.686 972.652 145.933ZM974.293 143.287C973.98 143.786 973.67 144.284 973.361 144.783C973.765 144.433 974.166 144.084 974.572 143.735C974.929 143.25 975.288 142.766 975.649 142.282C975.196 142.617 974.743 142.952 974.293 143.287ZM975.962 140.658C975.585 141.243 975.212 141.83 974.841 142.415C975.371 142.022 975.9 141.629 976.432 141.235C976.858 140.669 977.286 140.103 977.717 139.537C977.132 139.91 976.544 140.284 975.962 140.658ZM977.657 138.048C977.238 138.684 976.825 139.32 976.414 139.956C977.048 139.551 977.689 139.145 978.326 138.739C978.8 138.121 979.279 137.503 979.76 136.885C979.055 137.273 978.359 137.661 977.657 138.048ZM979.393 135.446C978.938 136.119 978.486 136.794 978.04 137.468C978.778 137.061 979.516 136.654 980.257 136.246C980.765 135.598 981.277 134.95 981.792 134.303C980.991 134.683 980.191 135.065 979.393 135.446ZM981.16 132.855C980.676 133.555 980.198 134.255 979.723 134.956C980.554 134.56 981.383 134.164 982.217 133.768C982.754 133.097 983.296 132.427 983.841 131.757C982.948 132.123 982.05 132.489 981.16 132.855ZM982.968 130.28C982.458 130.997 981.954 131.715 981.455 132.433C982.37 132.057 983.291 131.68 984.21 131.304C984.773 130.615 985.34 129.928 985.912 129.24C984.929 129.587 983.948 129.934 982.968 130.28ZM984.81 127.721C984.278 128.45 983.752 129.179 983.231 129.91C984.231 129.556 985.236 129.202 986.24 128.849C986.825 128.149 987.414 127.45 988.009 126.752C986.94 127.075 985.877 127.397 984.81 127.721ZM986.693 125.174C986.141 125.912 985.594 126.651 985.052 127.39C986.136 127.062 987.218 126.734 988.306 126.406C988.909 125.7 989.519 124.994 990.134 124.288C988.985 124.584 987.839 124.879 986.693 125.174ZM988.617 122.643C988.044 123.387 987.475 124.132 986.914 124.878C988.077 124.578 989.238 124.278 990.404 123.979C991.028 123.267 991.658 122.556 992.293 121.846C991.067 122.112 989.842 122.377 988.617 122.643ZM990.58 120.129C989.989 120.875 989.405 121.623 988.827 122.371L992.543 121.566C993.184 120.852 993.833 120.138 994.486 119.425C993.184 119.66 991.88 119.894 990.58 120.129ZM992.59 117.631C991.98 118.379 991.376 119.128 990.78 119.877L994.723 119.167C995.38 118.452 996.044 117.737 996.714 117.024L992.59 117.631ZM994.637 115.152C994.011 115.899 993.394 116.647 992.782 117.396L996.941 116.783C997.615 116.069 998.294 115.355 998.981 114.642C997.532 114.812 996.085 114.982 994.637 115.152ZM996.735 112.689C996.091 113.434 995.454 114.181 994.826 114.929C996.285 114.758 997.742 114.586 999.202 114.415C999.89 113.703 1000.59 112.991 1001.29 112.281C999.77 112.417 998.252 112.553 996.735 112.689ZM998.873 110.246C998.214 110.988 997.563 111.731 996.918 112.476L1001.5 112.066C1002.2 111.355 1002.92 110.647 1003.64 109.939L998.873 110.246ZM1001.06 107.821C1000.39 108.559 999.718 109.299 999.057 110.041L1003.85 109.732C1004.57 109.026 1005.29 108.32 1006.03 107.617L1001.06 107.821ZM235.218 125.617C231.481 124.144 227.678 122.635 223.891 121.135C222.005 121.061 220.118 120.986 218.229 120.91C221.954 122.355 225.697 123.81 229.366 125.226C231.317 125.356 233.271 125.49 235.218 125.617ZM247.014 130.255C243.295 128.796 239.563 127.328 235.806 125.847C233.867 125.721 231.923 125.591 229.98 125.462C233.69 126.892 237.353 128.297 241.03 129.709C243.025 129.891 245.025 130.077 247.014 130.255ZM258.714 134.839C255.058 133.411 251.368 131.964 247.669 130.513C245.689 130.336 243.693 130.15 241.705 129.968C245.351 131.368 248.998 132.769 252.599 134.145C254.642 134.379 256.679 134.61 258.714 134.839ZM270.341 139.374C266.736 137.973 263.092 136.55 259.445 135.125C257.42 134.898 255.388 134.666 253.354 134.433C256.966 135.812 260.556 137.179 264.129 138.538C266.208 138.822 268.271 139.097 270.341 139.374ZM281.906 143.859C278.335 142.477 274.761 141.093 271.151 139.69C269.094 139.415 267.037 139.139 264.969 138.857C268.53 140.21 272.065 141.549 275.585 142.88C277.705 143.214 279.799 143.533 281.906 143.859ZM293.344 148.282C289.874 146.945 286.338 145.574 282.821 144.212C280.729 143.889 278.642 143.57 276.538 143.24C280.023 144.558 283.51 145.877 286.952 147.171C289.098 147.55 291.211 147.91 293.344 148.282ZM304.762 152.659C301.303 151.335 297.863 150.02 294.37 148.677C292.254 148.31 290.148 147.949 288.018 147.573C291.471 148.87 294.875 150.14 298.293 151.418C300.468 151.843 302.603 152.244 304.762 152.659ZM316.02 156.964C312.684 155.694 309.303 154.399 305.924 153.104C303.788 152.695 301.668 152.294 299.517 151.875C302.855 153.124 306.2 154.376 309.494 155.6C311.691 156.067 313.84 156.507 316.02 156.964ZM327.217 161.216C323.947 159.977 320.661 158.729 317.356 157.472C315.206 157.022 313.077 156.583 310.911 156.124C314.193 157.342 317.448 158.545 320.698 159.745C322.894 160.249 325.038 160.722 327.217 161.216ZM338.358 165.423C335.163 164.22 331.959 163.012 328.728 161.789C326.586 161.305 324.468 160.835 322.31 160.342C325.508 161.522 328.684 162.691 331.844 163.85C334.037 164.387 336.182 164.896 338.358 165.423ZM349.275 169.527C346.239 168.391 343.16 167.231 340.085 166.072C337.964 165.561 335.863 165.061 333.726 164.54C336.774 165.658 339.823 166.776 342.834 167.874C345.002 168.436 347.125 168.974 349.275 169.527ZM360.161 173.585C357.192 172.48 354.248 171.389 351.252 170.27C349.168 169.736 347.093 169.207 344.992 168.664C347.948 169.739 350.856 170.788 353.787 171.849C355.923 172.434 358.043 173.01 360.161 173.585ZM370.709 177.504C367.995 176.5 365.241 175.475 362.488 174.45C360.505 173.915 358.555 173.396 356.557 172.851C359.218 173.815 361.877 174.779 364.501 175.722C366.572 176.317 368.654 176.918 370.709 177.504ZM381.077 181.319C378.617 180.416 376.145 179.505 373.671 178.594C371.776 178.056 369.837 177.494 367.926 176.948C370.465 177.857 373.005 178.767 375.527 179.667C377.394 180.227 379.225 180.767 381.077 181.319ZM390.931 184.93C388.796 184.151 386.661 183.372 384.504 182.58C382.876 182.098 381.259 181.62 379.619 181.131C381.796 181.906 383.934 182.659 386.091 183.423C387.71 183.929 389.323 184.431 390.931 184.93ZM400.227 188.312C398.71 187.762 397.175 187.202 395.65 186.647C394.445 186.275 393.21 185.886 391.999 185.511C393.509 186.044 395.032 186.585 396.527 187.111C397.755 187.508 399.004 187.918 400.227 188.312ZM407.339 190.889C406.966 190.754 406.603 190.625 406.229 190.49L405.826 190.361L407.339 190.889ZM968.849 150.835C968.681 151.181 968.516 151.526 968.35 151.872L968.937 151.161C969.142 150.81 969.349 150.459 969.557 150.108L968.849 150.835ZM970.23 148.039C969.972 148.557 969.714 149.074 969.46 149.592C969.809 149.234 970.153 148.876 970.504 148.518C970.805 148.015 971.109 147.512 971.414 147.008C971.021 147.352 970.621 147.696 970.23 148.039ZM971.626 145.281C971.314 145.886 971.007 146.491 970.701 147.096C971.167 146.69 971.636 146.283 972.103 145.877C972.467 145.283 972.834 144.689 973.204 144.095C972.674 144.491 972.154 144.886 971.626 145.281ZM973.067 142.521C972.717 143.184 972.369 143.847 972.026 144.51C972.598 144.082 973.174 143.654 973.749 143.225C974.153 142.582 974.559 141.939 974.97 141.296C974.333 141.705 973.7 142.113 973.067 142.521ZM974.542 139.771C974.157 140.478 973.778 141.185 973.401 141.892C974.074 141.459 974.744 141.026 975.42 140.592C975.857 139.913 976.297 139.234 976.742 138.555C976.009 138.961 975.272 139.366 974.542 139.771ZM976.054 137.041C975.642 137.775 975.233 138.509 974.831 139.244C975.591 138.822 976.356 138.4 977.119 137.978C977.585 137.27 978.055 136.563 978.53 135.856C977.703 136.251 976.878 136.646 976.054 137.041ZM977.601 134.324C977.166 135.077 976.736 135.83 976.311 136.583C977.158 136.178 978.01 135.772 978.86 135.367C979.35 134.641 979.844 133.916 980.343 133.192C979.426 133.569 978.515 133.946 977.601 134.324ZM979.191 131.619C978.732 132.387 978.277 133.156 977.83 133.927C978.765 133.541 979.696 133.155 980.634 132.769C981.145 132.031 981.663 131.294 982.184 130.558C981.186 130.911 980.188 131.265 979.191 131.619ZM980.823 128.928C980.343 129.707 979.87 130.486 979.402 131.266C980.416 130.907 981.431 130.547 982.447 130.188C982.978 129.441 983.513 128.694 984.055 127.949C982.978 128.275 981.897 128.602 980.823 128.928ZM982.492 126.257C981.994 127.042 981.503 127.827 981.016 128.613C982.107 128.282 983.203 127.951 984.297 127.619C984.847 126.866 985.404 126.113 985.966 125.361C984.807 125.66 983.649 125.959 982.492 126.257ZM984.21 123.601C983.692 124.389 983.181 125.179 982.677 125.97C983.844 125.668 985.017 125.366 986.188 125.065C986.755 124.308 987.329 123.552 987.91 122.796C986.675 123.064 985.443 123.333 984.21 123.601ZM985.966 120.963C985.43 121.753 984.905 122.545 984.383 123.337C985.628 123.066 986.872 122.795 988.119 122.525C988.704 121.766 989.295 121.009 989.892 120.253C988.582 120.49 987.275 120.726 985.966 120.963ZM987.774 118.342C987.221 119.133 986.673 119.924 986.133 120.717C987.452 120.479 988.769 120.24 990.09 120.002C990.692 119.243 991.302 118.486 991.918 117.73L987.774 118.342ZM989.624 115.74C989.054 116.529 988.492 117.319 987.937 118.111L992.109 117.495C992.727 116.738 993.348 115.983 993.98 115.229C992.528 115.399 991.074 115.569 989.624 115.74ZM991.523 113.157C990.935 113.943 990.355 114.731 989.783 115.52L994.168 115.006C994.802 114.251 995.444 113.498 996.092 112.746L991.523 113.157ZM993.472 110.595C992.867 111.377 992.27 112.161 991.681 112.947C993.213 112.809 994.742 112.671 996.275 112.534C996.923 111.783 997.578 111.034 998.241 110.287L993.472 110.595ZM995.465 108.052C994.844 108.83 994.234 109.61 993.629 110.391L998.425 110.082C999.089 109.335 999.762 108.59 1000.44 107.846L995.465 108.052ZM241.909 126.041C238.091 124.504 234.234 122.947 230.371 121.387C228.484 121.315 226.594 121.241 224.704 121.167C228.513 122.675 232.333 124.19 236.092 125.672C238.036 125.798 239.97 125.918 241.909 126.041ZM253.922 130.865C250.134 129.348 246.314 127.813 242.482 126.271C240.548 126.149 238.618 126.028 236.679 125.903C240.462 127.394 244.225 128.873 247.966 130.342C249.957 130.52 251.938 130.692 253.922 130.865ZM265.882 135.645C262.12 134.144 258.349 132.639 254.546 131.116C252.571 130.944 250.604 130.776 248.622 130.6C252.35 132.063 256.062 133.517 259.747 134.957C261.792 135.186 263.846 135.422 265.882 135.645ZM277.737 140.371C274.051 138.907 270.306 137.411 266.573 135.921C264.548 135.699 262.511 135.47 260.478 135.242C264.153 136.678 267.828 138.114 271.457 139.525C273.546 139.804 275.658 140.097 277.737 140.371ZM289.531 145.039C285.862 143.588 282.213 142.149 278.507 140.677C276.44 140.407 274.344 140.118 272.266 139.841C275.913 141.258 279.518 142.651 283.126 144.047C285.259 144.377 287.411 144.717 289.531 145.039ZM301.199 149.647C297.638 148.245 294.022 146.814 290.412 145.387C288.306 145.069 286.16 144.727 284.041 144.401C287.595 145.777 291.17 147.164 294.675 148.513C296.849 148.89 299.04 149.278 301.199 149.647ZM312.828 154.207C309.297 152.825 305.761 151.44 302.193 150.036C300.051 149.672 297.869 149.284 295.712 148.911C299.241 150.267 302.732 151.602 306.226 152.94C308.426 153.363 310.643 153.794 312.828 154.207ZM324.34 158.704C320.893 157.362 317.426 156.008 313.938 154.642C311.773 154.234 309.567 153.803 307.387 153.385C310.826 154.702 314.254 156.013 317.651 157.306C319.882 157.772 322.127 158.248 324.34 158.704ZM335.746 163.139C332.393 161.839 329.002 160.519 325.606 159.197C323.42 158.747 321.19 158.272 318.986 157.813C322.345 159.091 325.694 160.364 329.015 161.621C331.259 162.127 333.519 162.642 335.746 163.139ZM347.16 167.546C343.838 166.265 340.527 164.992 337.17 163.692C334.975 163.205 332.736 162.692 330.524 162.194C333.841 163.448 337.118 164.681 340.399 165.915C342.654 166.46 344.925 167.013 347.16 167.546ZM358.372 171.862C355.205 170.648 351.984 169.405 348.77 168.166C346.578 167.645 344.335 167.096 342.123 166.564C345.286 167.755 348.461 168.953 351.577 170.118C353.838 170.697 356.129 171.294 358.372 171.862ZM369.448 176.089C366.362 174.913 363.272 173.735 360.159 172.545C357.993 171.998 355.799 171.434 353.615 170.877C356.696 172.026 359.757 173.164 362.814 174.3C365.031 174.899 367.251 175.501 369.448 176.089ZM380.315 180.22C377.417 179.121 374.502 178.015 371.568 176.898C369.444 176.331 367.278 175.741 365.136 175.164C368.109 176.268 371.061 177.36 373.998 178.445C376.125 179.048 378.206 179.626 380.315 180.22ZM391.117 184.3C388.363 183.263 385.578 182.209 382.793 181.155C380.786 180.593 378.782 180.033 376.757 179.461C379.463 180.458 382.172 181.458 384.846 182.438C386.935 183.058 389.046 183.69 391.117 184.3ZM401.52 188.201C399.005 187.26 396.518 186.335 393.985 185.383C392.105 184.832 390.205 184.27 388.311 183.71C390.895 184.654 393.439 185.577 396.003 186.51C397.859 187.083 399.678 187.635 401.52 188.201ZM411.365 191.881C409.309 191.116 407.215 190.331 405.129 189.55C403.519 189.058 401.915 188.57 400.294 188.072C402.398 188.837 404.495 189.599 406.571 190.349C408.177 190.864 409.771 191.372 411.365 191.881ZM420.821 195.379L416.281 193.701C415.128 193.335 413.947 192.954 412.787 192.584C414.307 193.13 415.84 193.684 417.354 194.227C418.508 194.61 419.672 194.999 420.821 195.379ZM427.683 197.915L427.118 197.707L426.827 197.612L427.683 197.915ZM468.851 212.576C692.821 292.534 804.209 310.304 864.903 294.64C917.595 281.04 932.186 242.229 949.163 197.072C953.11 186.57 957.189 175.726 961.905 164.775C957.179 173.61 952.858 182.36 948.647 190.886C927.4 233.915 908.959 271.26 855.407 285.302C793.321 301.582 684.125 286.498 468.851 212.576ZM448.04 205.09C448.363 205.207 448.676 205.319 448.997 205.436C677.397 285.316 791.262 301.881 855.054 285.154C908.431 271.157 926.855 233.845 948.084 190.856C953.177 180.541 958.433 169.899 964.372 159.174L964.422 159.06C958.588 167.783 953.198 176.435 947.945 184.872C922.585 225.587 900.355 261.279 846.357 275.683C780.888 293.147 668.812 279.288 448.04 205.09ZM433.758 199.878C435.317 200.447 436.869 201.015 438.424 201.583C665.489 278.637 779.759 293.205 846.001 275.535C899.839 261.173 922.049 225.513 947.385 184.834C953.171 175.544 959.12 165.993 965.646 156.374C965.813 156.013 965.981 155.653 966.151 155.292C959.656 163.311 953.566 171.273 947.615 179.055C918.361 217.303 892.456 251.176 838.292 265.896C769.803 284.51 656.202 272.46 433.758 199.878ZM421.217 195.258C423.308 196.032 425.41 196.812 427.478 197.573C654.013 272.013 768.965 284.493 837.93 265.749C891.947 251.069 917.831 217.225 947.06 179.008C953.427 170.683 959.952 162.151 966.963 153.563C967.207 153.047 967.453 152.532 967.701 152.016C960.737 159.234 954.123 166.407 947.645 173.434C914.81 209.05 885.427 240.922 831.457 255.892C759.799 275.769 644.88 265.823 421.217 195.258ZM409.092 190.761C411.634 191.709 414.148 192.642 416.663 193.574C643.265 265.471 759.111 275.712 831.091 255.746C884.934 240.812 914.292 208.966 947.1 173.379C953.927 165.974 960.912 158.405 968.29 150.794C968.589 150.181 968.889 149.567 969.193 148.954C961.9 155.367 954.899 161.748 948.028 168.013C912.057 200.81 879.522 230.474 826.201 245.598C751.006 266.926 634.561 259.314 409.092 190.761ZM397.243 186.331C400.002 187.364 402.753 188.393 405.497 189.417C633.24 259 750.402 266.848 825.83 245.453C879.037 230.362 911.547 200.72 947.491 167.948C954.684 161.39 962.013 154.706 969.676 147.989C970.009 147.322 970.346 146.655 970.686 145.988C963.173 151.636 955.9 157.259 948.746 162.792C910.274 192.552 875.087 219.769 823.02 234.905C743.768 257.944 625.481 252.961 397.243 186.331ZM385.613 181.947C388.533 183.053 391.462 184.163 394.337 185.244C624.41 252.705 743.215 257.852 822.644 234.763C874.611 219.656 909.774 192.457 948.22 162.717C955.664 156.959 963.236 151.104 971.074 145.225C971.441 144.513 971.811 143.801 972.185 143.089C964.551 148.018 957.112 152.929 949.779 157.773C909.719 184.231 872.654 208.71 822.668 223.641C738.61 248.751 618.079 246.84 385.613 181.947ZM373.947 177.53C377.036 178.704 380.086 179.857 383.141 181.014C617.131 246.597 738.091 248.651 822.285 223.5C872.194 208.592 909.234 184.129 949.269 157.687C956.872 152.666 964.59 147.572 972.519 142.46C972.911 141.717 973.309 140.975 973.711 140.233C966.041 144.501 958.527 148.754 951.102 152.957C910.823 175.762 873.097 197.121 826.369 211.509C736.351 239.227 613.016 241.068 373.947 177.53ZM362.263 173.07C365.496 174.307 368.717 175.536 371.913 176.754C612.227 240.859 735.864 239.119 825.981 211.37C872.649 197 910.355 175.653 950.611 152.861C958.286 148.516 966.056 144.118 973.997 139.705C974.411 138.944 974.831 138.184 975.256 137.424C967.624 141.083 960.114 144.734 952.683 148.348C914.37 166.98 878.004 184.665 836.365 197.928C738.515 229.099 611.623 235.835 362.263 173.07ZM350.636 168.606C353.938 169.878 357.233 171.146 360.491 172.394C610.927 235.654 738.041 228.988 835.97 197.792C877.565 184.542 913.914 166.864 952.211 148.241C959.88 144.511 967.63 140.743 975.514 136.966C975.949 136.19 976.391 135.414 976.838 134.639C969.298 137.754 961.852 140.863 954.473 143.946C922.132 157.456 890.958 170.479 857.758 181.468C748.442 217.654 617.263 231.772 350.636 168.606ZM338.892 164.081C342.326 165.408 345.7 166.704 349.099 168.014C616.653 231.611 747.98 217.539 857.355 181.334C890.529 170.353 921.694 157.334 954.025 143.828C961.626 140.653 969.295 137.45 977.067 134.242C977.522 133.455 977.983 132.667 978.45 131.881C971.035 134.514 963.696 137.143 956.407 139.754C807.081 193.246 678.573 239.288 338.892 164.081ZM327.178 159.525C330.622 160.867 334.072 162.211 337.469 163.527C678.06 239.176 806.603 193.138 955.989 139.625C963.483 136.94 971.033 134.236 978.662 131.529C979.136 130.734 979.618 129.94 980.105 129.147C972.817 131.361 965.587 133.574 958.398 135.774C798.664 184.657 658.684 227.5 327.178 159.525ZM315.357 154.915C318.899 156.301 322.411 157.67 325.912 159.033C658.193 227.38 798.213 184.536 958.01 135.635C965.391 133.376 972.814 131.104 980.3 128.83C980.791 128.032 981.287 127.235 981.792 126.438C974.59 128.299 967.432 130.158 960.308 132.009C790.261 176.195 638.538 215.628 315.357 154.915ZM303.499 150.263C307.104 151.681 310.684 153.085 314.249 154.48C638.073 215.498 789.844 176.063 959.958 131.86C967.257 129.963 974.593 128.057 981.976 126.151C982.486 125.349 983.004 124.549 983.527 123.749C976.301 125.322 969.108 126.894 961.944 128.461C781.757 167.866 618.089 203.667 303.499 150.263ZM291.585 145.564C295.241 147.009 298.897 148.454 302.506 149.874C617.642 203.53 781.37 167.724 961.631 128.303C968.955 126.701 976.31 125.093 983.7 123.485C984.227 122.684 984.759 121.883 985.299 121.084C977.836 122.434 970.401 123.785 962.991 125.132C772.947 159.674 597.23 191.615 291.585 145.564ZM279.576 140.814C283.326 142.302 287.014 143.756 290.725 145.224C596.818 191.475 772.592 159.522 962.718 124.965C970.273 123.592 977.854 122.215 985.465 120.838C986.007 120.037 986.561 119.238 987.119 118.439C979.035 119.633 970.975 120.829 962.937 122.022C763.474 151.628 575.789 179.483 279.576 140.814ZM267.569 136.028C271.328 137.528 275.105 139.038 278.815 140.511C575.397 179.338 763.15 151.468 962.703 121.849C970.873 120.636 979.063 119.421 987.281 118.207C987.84 117.409 988.407 116.611 988.982 115.815C979.589 116.92 970.222 118.027 960.873 119.132C752.747 143.731 553.524 167.272 267.569 136.028ZM255.471 131.195C259.299 132.729 263.089 134.241 266.877 135.752C553.139 167.119 752.452 143.565 960.684 118.953C970.148 117.834 979.631 116.713 989.141 115.596C989.717 114.8 990.299 114.007 990.891 113.214C978.919 114.292 966.975 115.374 955.051 116.456C739.552 135.997 529.849 155.004 255.471 131.195ZM243.348 126.326C247.199 127.875 251.041 129.42 254.846 130.944C529.474 154.842 739.286 135.825 954.899 116.273C966.927 115.182 978.974 114.09 991.049 113.004C991.641 112.213 992.242 111.423 992.85 110.635C975.732 111.742 958.651 112.862 941.585 113.982C721.262 128.436 503.598 142.709 243.348 126.326ZM231.171 121.416C235.058 122.986 238.933 124.55 242.775 126.096C503.23 142.538 721.022 128.259 941.476 113.796C958.629 112.671 975.8 111.544 993.008 110.431C993.617 109.645 994.23 108.86 994.854 108.077C966.503 109.251 938.196 110.464 909.891 111.678C690.685 121.078 471.485 130.474 231.171 121.416ZM1002.69 105.429L997.516 105.531C996.879 106.304 996.247 107.078 995.625 107.855L1000.62 107.648C1001.3 106.907 1001.99 106.167 1002.69 105.429ZM1008.46 105.315C1006.74 105.348 1005.02 105.383 1003.3 105.416C1002.6 106.15 1001.92 106.886 1001.24 107.623L1006.23 107.417C1006.97 106.715 1007.71 106.014 1008.46 105.315ZM1014.25 105.204C1012.52 105.237 1010.8 105.269 1009.08 105.303C1008.33 105.998 1007.6 106.694 1006.87 107.392L1011.86 107.188C1012.65 106.524 1013.44 105.864 1014.25 105.204ZM1020.01 105.093C1018.3 105.125 1016.59 105.158 1014.87 105.191C1014.08 105.847 1013.29 106.503 1012.51 107.161L1017.49 106.959C1018.33 106.336 1019.16 105.712 1020.01 105.093ZM1025.79 104.984C1024.08 105.016 1022.38 105.048 1020.67 105.08C1019.83 105.695 1019 106.314 1018.16 106.932L1023.11 106.732C1024 106.149 1024.89 105.565 1025.79 104.984ZM1031.57 104.876L1026.46 104.971C1025.57 105.547 1024.69 106.126 1023.81 106.704C1025.44 106.638 1027.08 106.572 1028.72 106.506C1029.66 105.96 1030.62 105.419 1031.57 104.876ZM1037.34 104.769L1032.27 104.863C1031.33 105.401 1030.38 105.937 1029.44 106.478C1031.08 106.412 1032.72 106.347 1034.36 106.282C1035.35 105.776 1036.34 105.273 1037.34 104.769ZM1043.08 104.665C1041.41 104.695 1039.73 104.726 1038.06 104.756C1037.07 105.254 1036.08 105.752 1035.11 106.252C1036.74 106.187 1038.37 106.122 1040.01 106.058C1041.03 105.594 1042.05 105.127 1043.08 104.665ZM1048.86 104.561C1047.19 104.591 1045.51 104.622 1043.83 104.652C1042.81 105.108 1041.8 105.569 1040.79 106.027C1042.41 105.963 1044.02 105.901 1045.64 105.837C1046.71 105.411 1047.78 104.986 1048.86 104.561ZM1054.62 104.46C1052.96 104.489 1051.31 104.517 1049.65 104.547C1048.59 104.965 1047.53 105.385 1046.47 105.805C1048.07 105.742 1049.67 105.679 1051.26 105.617C1052.37 105.23 1053.5 104.846 1054.62 104.46ZM1060.35 104.36C1058.72 104.388 1057.09 104.417 1055.46 104.446C1054.36 104.825 1053.25 105.202 1052.16 105.583C1053.75 105.521 1055.34 105.461 1056.92 105.399C1058.06 105.052 1059.2 104.705 1060.35 104.36ZM1066.06 104.262C1064.46 104.289 1062.86 104.317 1061.26 104.344C1060.13 104.683 1059.01 105.022 1057.89 105.362C1059.46 105.302 1061.02 105.241 1062.58 105.181C1063.74 104.875 1064.9 104.567 1066.06 104.262ZM1071.77 104.166L1067.05 104.246C1065.91 104.543 1064.79 104.843 1063.66 105.141C1065.18 105.083 1066.71 105.025 1068.23 104.968C1069.41 104.7 1070.59 104.433 1071.77 104.166ZM1077.45 104.072C1075.92 104.097 1074.4 104.123 1072.87 104.148C1071.73 104.405 1070.59 104.664 1069.45 104.922C1070.93 104.866 1072.41 104.81 1073.89 104.754C1075.07 104.526 1076.26 104.299 1077.45 104.072ZM1083.05 103.981C1081.6 104.005 1080.15 104.028 1078.7 104.052C1077.57 104.268 1076.44 104.484 1075.31 104.701C1076.72 104.649 1078.13 104.597 1079.54 104.545C1080.71 104.356 1081.88 104.169 1083.05 103.981ZM1088.58 103.892C1087.22 103.914 1085.87 103.936 1084.51 103.958C1083.42 104.132 1082.34 104.307 1081.25 104.481C1082.57 104.433 1083.89 104.383 1085.22 104.335C1086.34 104.187 1087.46 104.04 1088.58 103.892ZM1093.93 103.809C1092.74 103.827 1091.54 103.845 1090.34 103.864C1089.35 103.994 1088.36 104.125 1087.37 104.256C1088.54 104.213 1089.72 104.171 1090.89 104.129L1093.93 103.809ZM1098.95 103.732L1096.15 103.775C1095.36 103.858 1094.57 103.941 1093.78 104.024C1094.71 103.991 1095.64 103.957 1096.57 103.923C1097.36 103.859 1098.15 103.795 1098.95 103.732ZM1103.21 103.667L1102 103.685L1100.96 103.767L1102.23 103.722L1103.21 103.667ZM98.0467 114.285L96.388 114.242C97.5145 114.317 98.6376 114.389 99.7627 114.463C99.1919 114.404 98.6183 114.343 98.0467 114.285ZM104.459 114.448C103.172 114.416 101.885 114.382 100.598 114.35C102.123 114.506 103.65 114.663 105.169 114.815C106.464 114.899 107.759 114.985 109.051 115.067C107.522 114.861 105.989 114.653 104.459 114.448ZM110.819 114.6C109.316 114.564 107.813 114.529 106.309 114.492C108.159 114.74 110.028 114.998 111.871 115.241C113.425 115.339 114.974 115.433 116.526 115.529C114.63 115.223 112.72 114.909 110.819 114.6ZM117.2 114.751C115.58 114.715 113.96 114.675 112.34 114.636C114.429 114.975 116.538 115.326 118.618 115.659C120.305 115.763 121.998 115.871 123.682 115.972C121.531 115.571 119.359 115.158 117.2 114.751ZM123.547 114.893C121.869 114.856 120.192 114.819 118.514 114.781C120.795 115.209 123.098 115.65 125.367 116.072C127.102 116.175 128.83 116.275 130.563 116.376C128.237 115.889 125.884 115.387 123.547 114.893ZM129.913 115.034C128.189 114.997 126.463 114.958 124.738 114.92C127.167 115.432 129.621 115.958 132.036 116.463C133.828 116.568 135.623 116.675 137.413 116.778C134.928 116.205 132.411 115.614 129.913 115.034ZM136.251 115.165C134.503 115.129 132.756 115.094 131.008 115.057C133.584 115.655 136.187 116.268 138.747 116.856C140.554 116.959 142.354 117.056 144.157 117.157C141.541 116.503 138.884 115.828 136.251 115.165ZM142.602 115.296C140.83 115.261 139.055 115.223 137.281 115.187C139.974 115.863 142.697 116.558 145.371 117.224C147.209 117.326 149.049 117.429 150.886 117.529C148.146 116.798 145.36 116.038 142.602 115.296ZM148.929 115.417C147.146 115.383 145.364 115.35 143.579 115.315C146.39 116.071 149.238 116.848 152.028 117.593C153.878 117.693 155.723 117.79 157.57 117.888C154.716 117.079 151.804 116.238 148.929 115.417ZM155.224 115.537C153.439 115.504 151.653 115.469 149.868 115.435C152.785 116.268 155.747 117.125 158.641 117.944C160.512 118.043 162.381 118.141 164.25 118.237C161.254 117.344 158.249 116.446 155.224 115.537ZM161.55 115.648C159.741 115.616 157.931 115.586 156.121 115.553C159.197 116.477 162.241 117.384 165.286 118.291C167.156 118.387 169.025 118.484 170.892 118.578C167.794 117.61 164.675 116.631 161.55 115.648ZM167.873 115.758C166.058 115.728 164.242 115.695 162.426 115.663C165.586 116.656 168.743 117.649 171.872 118.626C173.746 118.72 175.617 118.81 177.488 118.902C174.305 117.866 171.087 116.811 167.873 115.758ZM174.151 115.859C172.342 115.83 170.533 115.802 168.723 115.772C171.976 116.837 175.225 117.9 178.447 118.948C180.338 119.04 182.235 119.137 184.123 119.226C180.799 118.104 177.506 116.999 174.151 115.859ZM180.481 115.96C178.648 115.932 176.814 115.901 174.98 115.872C178.368 117.023 181.689 118.136 185.043 119.268C186.924 119.357 188.801 119.441 190.679 119.527C187.296 118.347 183.9 117.16 180.481 115.96ZM186.782 116.052C184.953 116.025 183.126 116 181.297 115.973C184.741 117.181 188.168 118.38 191.575 119.568C193.462 119.655 195.352 119.744 197.237 119.828C193.785 118.587 190.273 117.314 186.782 116.052ZM193.078 116.143C191.246 116.118 189.414 116.09 187.582 116.064C191.096 117.334 194.639 118.619 198.116 119.869C200.007 119.953 201.893 120.032 203.783 120.113C200.242 118.805 196.656 117.472 193.078 116.143ZM199.354 116.226C197.525 116.201 195.696 116.179 193.867 116.154C197.471 117.493 201.077 118.832 204.643 120.15C206.54 120.233 208.436 120.315 210.33 120.394C206.687 119.013 203.034 117.626 199.354 116.226ZM205.632 116.307C203.798 116.284 201.965 116.26 200.13 116.236C203.836 117.646 207.508 119.039 211.177 120.43C213.071 120.51 214.963 120.587 216.854 120.664C213.118 119.214 209.404 117.776 205.632 116.307ZM211.896 116.381C210.062 116.359 208.231 116.339 206.396 116.317C210.191 117.795 213.923 119.239 217.68 120.697C219.573 120.773 221.464 120.848 223.356 120.922C219.542 119.412 215.755 117.916 211.896 116.381ZM218.174 116.453C216.334 116.433 214.492 116.411 212.651 116.39C216.528 117.932 220.338 119.438 224.169 120.955C226.063 121.029 227.959 121.105 229.851 121.177C225.975 119.611 222.098 118.045 218.174 116.453ZM817.087 109.5C619.053 114.068 420.306 118.653 218.925 116.462C222.864 118.059 226.761 119.634 230.652 121.206C471.136 130.299 690.473 120.896 909.819 111.49C938.201 110.273 966.583 109.056 995.012 107.88C995.636 107.099 996.272 106.32 996.914 105.542C937.001 106.734 877.077 108.116 817.087 109.5ZM0.258166 110.951C29.254 112.084 58.1818 113.028 87.0483 113.806C58.424 111.854 29.4746 109.617 0.152799 107.055L0.298144 106.871C31.1618 109.568 61.6189 111.909 91.7118 113.932C93.0088 113.966 94.3054 113.998 95.6019 114.032C64.4347 110.813 32.6397 107.147 0.122646 102.969L0.327959 102.792C33.6608 107.075 66.2375 110.821 98.1534 114.097C99.6774 114.136 101.202 114.176 102.726 114.214C69.491 109.737 35.3304 104.657 0.0992684 98.8834L0.351675 98.7134C36.153 104.58 70.8506 109.732 104.591 114.261C106.21 114.301 107.829 114.338 109.448 114.377C74.2809 108.647 37.888 102.157 0.081312 94.7976L0.369292 94.6341C38.6192 102.08 75.4206 108.636 110.969 114.413C112.661 114.453 114.355 114.495 116.046 114.535C78.9875 107.553 40.4073 99.6566 0.0664048 90.7122L0.383861 90.5548C41.0904 99.58 80.0039 107.539 117.367 114.565C119.093 114.605 120.816 114.642 122.541 114.68C83.6254 106.45 42.8914 97.1503 0.0552244 86.6271L0.395719 86.475C43.5456 97.0751 84.5615 106.434 123.731 114.707C125.492 114.746 127.252 114.787 129.012 114.825C88.2476 105.346 45.3701 94.6434 0.047432 82.5425L0.405205 82.3947C46.004 94.5694 89.1281 105.328 130.111 114.848C131.883 114.886 133.655 114.921 135.428 114.958C92.8329 104.233 47.8284 92.1321 0.0393008 78.458L0.412659 78.3143C48.4498 92.06 93.6725 104.215 136.459 114.979C138.252 115.016 140.047 115.055 141.84 115.091C97.4149 103.12 50.2861 89.6208 0.0332024 74.3737L0.418079 74.2336C50.8983 89.5495 98.2253 103.102 142.82 115.11C144.62 115.146 146.418 115.179 148.216 115.213C101.973 102 52.7312 87.1051 0.0277816 70.2894L0.4235 70.1527C53.3366 87.035 102.758 101.981 149.155 115.231C150.954 115.265 152.753 115.301 154.552 115.334C106.514 100.885 55.1428 84.578 0.0230384 66.2058L0.427905 66.0722C55.7404 84.5082 107.278 100.866 155.453 115.351C157.272 115.384 159.09 115.414 160.907 115.446C111.056 99.7571 57.5808 82.0583 0.0199892 62.1222L0.431631 61.9909C58.1764 81.9909 111.804 99.7368 161.785 115.462C163.61 115.494 165.436 115.527 167.261 115.558C115.598 98.6284 60.0168 79.5377 0.01694 58.0386L0.434681 57.9094C60.6073 79.4703 116.333 98.6094 168.114 115.572C169.932 115.603 171.749 115.63 173.567 115.659C120.116 97.4987 62.4185 77.0041 0.0132132 53.9551L0.438069 53.8279C63.0036 76.9368 120.839 97.4789 174.397 115.673C176.235 115.702 178.073 115.733 179.911 115.761C124.646 96.3608 64.8558 74.4827 0.0111804 49.8715L0.44044 49.7469C65.444 74.4182 125.361 96.3405 180.729 115.774C182.564 115.802 184.399 115.827 186.234 115.854C129.162 95.217 67.2857 71.958 0.0088088 45.7884L0.442812 45.6652C67.8688 71.8933 129.866 95.1961 187.034 115.866C188.871 115.892 190.709 115.92 192.546 115.945C133.673 94.074 69.703 69.4286 0.0064372 41.7052L0.444845 41.5832C70.2861 69.364 134.372 94.0535 193.334 115.957C195.17 115.982 197.004 116.005 198.838 116.029C138.173 92.9268 72.1089 66.8937 0.0047432 37.622L0.447216 37.5015C72.6886 66.8291 138.864 92.9058 199.614 116.039C201.452 116.063 203.291 116.088 205.129 116.11C142.674 91.779 74.5113 64.3559 0.0030492 33.5387L0.447894 33.4199C75.0883 64.2918 143.359 91.7587 205.893 116.12C207.73 116.143 209.568 116.164 211.404 116.185C147.165 90.6268 76.9059 61.8141 0.0023716 29.4556L0.449588 29.3384C77.4802 61.7505 147.842 90.606 212.157 116.194C214.002 116.215 215.846 116.237 217.69 116.258C151.653 89.4677 79.3175 59.28 0 25.3729L0.451621 25.2561C79.8972 59.2184 152.329 89.4462 218.441 116.266C419.969 118.47 618.866 113.883 817.049 109.311C877.105 107.925 937.095 106.542 997.074 105.349C1004.31 96.5992 1012.62 88.0714 1022.3 79.9018C1101.55 13.0079 1018.38 -29.8881 1440 25.2262L1439.79 25.4029C1018.6 -29.6561 1101.97 13.173 1022.83 79.971C1013.18 88.1145 1004.9 96.6152 997.677 105.338L1002.87 105.235C1008.11 99.683 1013.81 94.2256 1020.04 88.9012C1099.89 20.6741 1013.52 -25.7611 1440 29.3088L1439.79 29.4855C1013.75 -25.5287 1100.31 20.8373 1020.57 88.9694C1014.37 94.2679 1008.7 99.6984 1003.48 105.223C1005.21 105.189 1006.94 105.154 1008.67 105.121C1010.85 103.087 1013.1 101.067 1015.41 99.0621C1096.2 29.1201 1006.03 -21.9139 1440 33.3906L1439.79 33.5682C1006.26 -21.6807 1096.62 29.2812 1015.95 99.1294C1013.66 101.108 1011.44 103.102 1009.29 105.109C1011.02 105.075 1012.75 105.042 1014.48 105.009C1098.77 35.7279 1006.94 -16.9392 1440 37.4729L1439.8 37.6504C1007.35 -16.6841 1099.32 35.8467 1015.11 104.997C1016.83 104.964 1018.56 104.93 1020.28 104.897C1110.49 39.3233 1020.25 -10.3837 1439.99 41.5554L1439.8 41.7329C1020.76 -10.1183 1111.1 39.4395 1020.94 104.885C1022.66 104.852 1024.37 104.82 1026.09 104.788C1122.22 42.9187 1033.61 -3.82355 1439.99 45.6375L1439.8 45.8159C1034.11 -3.55934 1122.83 43.0329 1026.76 104.776L1031.92 104.68C1133.98 46.5159 1046.97 2.73769 1439.99 49.72L1439.8 49.8984C1047.48 3.00003 1134.6 46.628 1032.61 104.666L1037.73 104.572C1145.72 50.1121 1060.32 9.29756 1439.99 53.8022L1439.8 53.9809C1060.83 9.55889 1146.35 50.223 1038.45 104.559C1040.14 104.528 1041.83 104.498 1043.53 104.467C1157.43 53.7089 1073.66 15.8563 1439.99 57.8845L1439.8 58.0636C1074.19 16.1164 1158.09 53.8177 1044.28 104.454C1045.98 104.423 1047.67 104.392 1049.37 104.362C1169.2 57.3078 1087.02 22.4168 1439.99 61.9669L1439.81 62.1465C1087.55 22.6759 1169.86 57.4146 1050.16 104.348C1051.84 104.318 1053.52 104.289 1055.2 104.26C1180.94 60.9078 1100.37 28.9754 1439.98 66.049L1439.81 66.2293C1100.92 29.2345 1181.64 61.013 1056.04 104.245C1057.7 104.217 1059.36 104.187 1061.02 104.158C1192.68 64.5071 1113.72 35.5335 1439.98 70.131L1439.81 70.3113C1114.29 35.7925 1193.43 64.6104 1061.93 104.142C1063.57 104.114 1065.2 104.087 1066.84 104.059C1204.41 68.107 1127.05 42.0909 1439.98 74.2131L1439.81 74.3943C1127.65 42.3504 1205.21 68.2092 1067.84 104.042L1072.68 103.961C1216.16 71.709 1140.4 48.649 1439.98 78.2951L1439.81 78.4772C1141.03 48.9095 1217.03 71.809 1073.78 103.943C1075.36 103.916 1076.95 103.89 1078.53 103.864C1227.92 75.3118 1153.74 55.2064 1439.97 82.3771L1439.82 82.5597C1154.43 55.4687 1228.88 75.4104 1079.78 103.844L1084.37 103.77C1239.66 78.9151 1167.08 61.7634 1439.97 86.4595L1439.82 86.6421C1167.84 62.028 1240.76 79.0128 1085.83 103.746C1087.29 103.723 1088.76 103.699 1090.22 103.676C1251.42 82.5185 1180.42 68.3202 1439.97 90.5415L1439.83 90.7251C1181.28 68.5897 1252.71 82.616 1091.98 103.649C1093.34 103.628 1094.69 103.607 1096.05 103.586C1263.14 86.1238 1193.74 74.8752 1439.96 94.6236L1439.83 94.8081C1194.77 75.1526 1264.76 86.2211 1098.28 103.552C1099.49 103.534 1100.71 103.514 1101.92 103.496C1274.91 89.7298 1207.08 81.4317 1439.96 98.7059L1439.83 98.8908C1208.38 81.7222 1277.06 89.8278 1104.96 103.45C1105.89 103.436 1106.83 103.423 1107.76 103.409C1286.65 93.3367 1220.4 87.9864 1439.95 102.788L1439.84 102.974C1222.25 88.3044 1289.88 93.4377 1112.41 103.341L1113.62 103.324C1298.4 96.9443 1233.73 94.5412 1439.95 106.87L1439.85 107.056C1237.21 94.9413 1304.86 97.0561 1123.11 103.19C1312.57 100.56 1248.28 101.158 1439.94 110.952L1439.85 111.14C1245.04 101.184 1306.23 100.733 1113.64 103.513C1109.87 103.644 1106.1 103.776 1102.33 103.909C1098.67 104.117 1095.01 104.328 1091.35 104.54C1087.81 104.827 1084.28 105.116 1080.75 105.407C1077.34 105.774 1073.93 106.142 1070.52 106.513C1067.2 106.965 1063.88 107.42 1060.58 107.876C1057.47 108.396 1054.37 108.919 1051.28 109.443C1048.22 110.062 1045.16 110.684 1042.12 111.308C1039.23 112.002 1036.35 112.697 1033.49 113.395C1030.75 114.17 1028.02 114.949 1025.31 115.729C1022.68 116.6 1020.06 117.473 1017.46 118.349C1014.96 119.31 1012.48 120.274 1010.02 121.239C1007.73 122.263 1005.46 123.289 1003.21 124.317C1001.03 125.447 998.874 126.579 996.732 127.713C994.701 128.939 992.689 130.167 990.694 131.396C988.818 132.716 986.959 134.038 985.12 135.36C983.416 136.766 981.729 138.172 980.062 139.579C978.525 141.074 977.011 142.57 975.512 144.066C974.147 145.65 972.803 147.235 971.477 148.82C970.278 150.504 969.102 152.188 967.943 153.87C966.922 155.645 965.923 157.419 964.942 159.19C959.15 172.042 954.352 184.803 949.731 197.095C932.738 242.295 918.133 281.142 865.254 294.79C802.567 310.969 686.179 291.684 448.463 205.504C441.754 203.158 434.941 200.755 428.037 198.301C421.34 196.008 414.533 193.655 407.637 191.252C400.778 188.957 393.797 186.593 386.729 184.182C379.945 181.965 373.062 179.692 366.087 177.369C359.423 175.245 352.678 173.078 345.841 170.859C339.31 168.836 332.717 166.778 326.026 164.666C319.686 162.762 313.287 160.826 306.794 158.837C300.46 156.999 294.064 155.126 287.58 153.205C281.353 151.465 275.052 149.683 268.692 147.868C262.849 146.304 256.943 144.704 250.991 143.078C244.637 141.457 238.256 139.821 231.761 138.12C226.411 136.826 221.02 135.508 215.591 134.169C209.749 132.846 203.837 131.482 197.891 130.099C192.252 128.912 186.598 127.715 180.871 126.477C175.78 125.496 170.642 124.489 165.493 123.473C159.978 122.523 154.426 121.548 148.834 120.551C143.874 119.803 138.902 119.048 133.894 118.271C129.112 117.672 124.303 117.054 119.486 116.431C114.684 115.966 109.867 115.488 105.032 115C100.573 114.714 96.1084 114.422 91.6332 114.121C61.2242 113.32 30.7461 112.334 0.193116 111.14L0.258166 110.951Z" fill="url(#paint0_linear_112_4290)"/>
<defs>
<linearGradient id="paint0_linear_112_4290" x1="-5.73415" y1="69.9665" x2="1653.95" y2="382.23" gradientUnits="userSpaceOnUse">
<stop stop-color="#165B9E"/>
<stop offset="0.371" stop-color="#477BE4"/>
<stop offset="0.6469" stop-color="#974A8A"/>
<stop offset="1" stop-color="#974A8A"/>
</linearGradient>
</defs>
</svg>
