<svg width="40" height="40" viewBox="0 0 40 40" fill="none" xmlns="http://www.w3.org/2000/svg">
<path d="M18.125 11.25V25C18.1229 26.9885 17.3321 28.8949 15.926 30.301C14.5199 31.7071 12.6135 32.4979 10.625 32.5C10.2935 32.5 9.97554 32.3683 9.74112 32.1339C9.5067 31.8995 9.375 31.5815 9.375 31.25C9.375 30.9185 9.5067 30.6005 9.74112 30.3661C9.97554 30.1317 10.2935 30 10.625 30C11.9511 30 13.2229 29.4732 14.1605 28.5355C15.0982 27.5979 15.625 26.3261 15.625 25V23.75H6.25C5.58696 23.75 4.95107 23.4866 4.48223 23.0178C4.01339 22.5489 3.75 21.913 3.75 21.25V11.25C3.75 10.587 4.01339 9.95107 4.48223 9.48223C4.95107 9.01339 5.58696 8.75 6.25 8.75H15.625C16.288 8.75 16.9239 9.01339 17.3928 9.48223C17.8616 9.95107 18.125 10.587 18.125 11.25ZM33.75 8.75H24.375C23.712 8.75 23.0761 9.01339 22.6072 9.48223C22.1384 9.95107 21.875 10.587 21.875 11.25V21.25C21.875 21.913 22.1384 22.5489 22.6072 23.0178C23.0761 23.4866 23.712 23.75 24.375 23.75H33.75V25C33.75 26.3261 33.2232 27.5979 32.2855 28.5355C31.3479 29.4732 30.0761 30 28.75 30C28.4185 30 28.1005 30.1317 27.8661 30.3661C27.6317 30.6005 27.5 30.9185 27.5 31.25C27.5 31.5815 27.6317 31.8995 27.8661 32.1339C28.1005 32.3683 28.4185 32.5 28.75 32.5C30.7385 32.4979 32.6449 31.7071 34.051 30.301C35.4571 28.8949 36.2479 26.9885 36.25 25V11.25C36.25 10.587 35.9866 9.95107 35.5178 9.48223C35.0489 9.01339 34.413 8.75 33.75 8.75Z" fill="#CBCBCB"/>
</svg>
