<svg width="80" height="80" viewBox="0 0 80 80" fill="none" xmlns="http://www.w3.org/2000/svg">
<g clip-path="url(#clip0_105_134)">
<path d="M77.7221 53.8494C77.8699 53.6228 77.7793 52.3511 77.1221 51.5325C76.5602 50.8325 75.9257 49.9702 75.9948 49.2925C75.61 49.3633 75.2136 49.4007 74.8508 49.2988C74.1649 49.1062 72.2508 47.981 72.0366 47.8005C71.8222 47.6202 71.2744 50.5452 71.2744 50.5452C71.8509 50.6447 74.623 51.368 75.6794 52.3233C76.4308 53.003 76.9604 53.5934 77.349 54.0867C77.4977 54.0657 77.6284 53.9932 77.7221 53.8494Z" fill="url(#paint0_linear_105_134)"/>
<path d="M78.6222 55.8053C79.0365 55.9718 79.4794 55.8747 79.5508 55.0006C79.6222 54.1265 78.4335 49.3656 77.508 49.1043C77.1374 48.9996 76.5798 49.1847 75.9949 49.2921C75.9258 49.9699 76.5603 50.8321 77.1223 51.5321C77.7794 52.3507 77.8701 53.6226 77.7223 53.8491C77.6286 53.993 77.4978 54.0653 77.3492 54.0864C78.1422 55.0934 78.3441 55.6934 78.6222 55.8053Z" fill="#66666C"/>
<path d="M60.9079 29.4172C60.2222 30.5826 57.0033 41.2008 57.689 44.697C58.3746 48.1932 62.4509 48.8036 67.3649 49.7841C71.4934 50.6076 71.8507 50.6443 71.8507 50.6443C71.8507 50.6443 72.3211 49.7478 72.7077 48.2857C73.0358 47.0454 73.1384 46.3063 73.0791 46.0936C72.982 45.7454 70.4218 44.401 68.3077 44.3455C66.1934 44.2899 63.3649 43.513 63.3649 43.1246C63.3649 42.7362 66.6221 34.4118 66.2793 30.7492C64.6552 28.7576 60.9079 29.4172 60.9079 29.4172Z" fill="url(#paint1_linear_105_134)"/>
<path d="M76.0985 66.007C76.3584 65.2876 76.2034 63.7263 76.737 63.0438C76.601 62.9519 76.4854 62.8523 76.4077 62.7423C76.0077 62.1733 74.6507 58.5523 74.5221 58.1362C74.3934 57.7199 71.9507 59.3986 71.9507 59.3986C72.2649 59.8982 74.3045 63.2104 74.4792 64.4626C74.6083 65.3873 74.63 66.3613 74.6116 67.2406C75.1572 67.102 75.8343 66.7395 76.0985 66.007Z" fill="url(#paint2_linear_105_134)"/>
<path d="M74.4934 70.1788C74.5777 70.6287 74.9407 70.7642 75.1269 70.6875C75.8792 70.3777 78.5172 65.3784 78.2887 64.0095C78.2333 63.6781 77.3044 63.427 76.7369 63.0439C76.2033 63.7264 76.3582 65.2876 76.0984 66.0071C75.8341 66.7397 75.157 67.1023 74.6116 67.2408C74.5809 68.6966 74.44 69.8934 74.4934 70.1788Z" fill="#66666C"/>
<path d="M69.8563 28.9005C70.1079 30.3332 71.6924 32.7307 71.9747 34.8376C72.3079 37.3256 71.0793 43.1804 71.1937 44.207C71.308 45.2336 72.0507 45.9829 72.1651 47.1483C72.2794 48.3137 71.9366 49.6178 72.3365 50.8664C72.7366 52.1151 74.3936 53.6967 75.0223 54.5846C75.6507 55.4726 76.1365 56.7767 76.0794 57.1374C76.0224 57.4981 75.1682 58.2487 74.3366 58.8578C73.5578 59.428 72.2366 60.0786 71.9795 59.8567C71.7223 59.6346 69.9937 57.0541 68.8223 55.1951C67.6509 53.3359 65.9223 50.6398 64.9938 47.4257C63.8795 43.5687 63.1938 34.6894 63.2509 30.4163C65.3577 28.7029 69.8563 28.9005 69.8563 28.9005Z" fill="#71B7FB"/>
<path d="M71.1335 16.1863C70.4789 15.7715 69.8749 15.4559 69.2429 15.2142C68.683 15.8685 67.5399 16.5118 65.8136 16.5118C65.7862 16.5118 65.7592 16.5117 65.7316 16.5113C63.8034 16.4888 62.8712 15.3968 62.4967 14.7773C61.6815 14.971 60.8508 15.2899 60.0334 15.7932C57.9014 17.1062 59.089 20.3995 59.2794 22.1753C59.4699 23.9512 60.569 29.9309 60.569 29.9309C60.569 29.9309 62.1367 30.9622 64.8795 31.2211C67.6224 31.4802 69.9007 29.5532 69.8563 28.9005C69.8422 28.6784 69.8308 28.4561 69.8224 28.2337C69.7652 26.8278 71.5367 21.2782 71.9368 20.1683C72.3367 19.0584 72.7175 17.19 71.1335 16.1863Z" fill="#66666C"/>
<path d="M65.7313 16.5112C65.759 16.5116 65.786 16.5117 65.8134 16.5117C67.5397 16.5117 68.6828 15.8683 69.2427 15.214C69.0508 15.1407 68.8562 15.0743 68.6593 15.0149C68.1402 15.5165 67.1711 15.9736 65.7385 15.9563C64.2455 15.9389 63.4595 15.1829 63.0923 14.6567C62.8951 14.69 62.6962 14.7299 62.4966 14.7773C62.871 15.3966 63.8032 16.4886 65.7313 16.5112Z" fill="#FAFAFA"/>
<path d="M60.0467 9.15467C59.8701 9.40855 59.9177 9.86455 60.2986 10.0588C60.634 10.2297 61.0934 10.2573 61.27 10.0033C61.4467 9.74938 61.2487 9.2735 60.9349 9.06761C60.6211 8.86185 60.2235 8.90079 60.0467 9.15467Z" fill="url(#paint3_linear_105_134)"/>
<path d="M67.8632 14.8131C67.6236 12.7841 66.9453 9.67183 66.6043 8.96289C66.6043 8.96289 63.88 11.3579 64.1079 12.6299C64.2263 13.291 64.2223 13.977 64.1818 14.5362C63.8166 14.5567 63.4529 14.5969 63.0923 14.6567C63.4595 15.1828 64.2454 15.9388 65.7384 15.9562C67.171 15.9735 68.1401 15.5164 68.6592 15.0148C68.3971 14.9362 68.1315 14.869 67.8632 14.8131Z" fill="url(#paint4_linear_105_134)"/>
<path d="M67.4017 8.43487C67.2319 8.19064 66.8584 8.1477 66.5508 8.32758C66.5884 7.64887 66.624 6.59487 66.308 6.24793C65.87 5.76699 64.5082 4.42581 61.9557 5.14734C59.4033 5.86876 60.2223 7.99605 60.2223 7.99605C60.3557 8.73605 61.5365 13.1017 64.0508 12.9213C65.8866 12.7896 66.3867 10.41 66.4991 9.35664C66.6935 9.43134 66.9418 9.40629 67.1533 9.26746C67.4673 9.06158 67.5785 8.68876 67.4017 8.43487Z" fill="url(#paint5_linear_105_134)"/>
<path d="M61.8205 9.46218C61.8237 9.48996 61.8211 9.51807 61.8131 9.5449C61.805 9.57172 61.7915 9.59674 61.7735 9.61852C61.7555 9.6403 61.7332 9.65841 61.7079 9.67181C61.6827 9.68522 61.655 9.69366 61.6264 9.69665C61.5977 9.69969 61.5688 9.69722 61.5412 9.68938C61.5136 9.68154 61.4878 9.66849 61.4654 9.65098C61.4429 9.63346 61.4243 9.61182 61.4105 9.5873C61.3967 9.56277 61.388 9.53585 61.3849 9.50806L61.3357 9.06677C61.3295 9.01067 61.3464 8.95445 61.3829 8.91049C61.4193 8.86653 61.4722 8.83842 61.53 8.83236C61.5878 8.82629 61.6456 8.84275 61.6909 8.87813C61.7362 8.91351 61.7651 8.9649 61.7714 9.021L61.8205 9.46218ZM65.0228 8.8123C65.0259 8.84007 65.0234 8.86818 65.0153 8.89499C65.0072 8.92181 64.9938 8.94682 64.9757 8.96859C64.9577 8.99036 64.9354 9.00847 64.9102 9.02189C64.885 9.0353 64.8573 9.04375 64.8287 9.04677C64.8001 9.04978 64.7711 9.04729 64.7435 9.03944C64.7159 9.0316 64.6901 9.01855 64.6677 9.00103C64.6453 8.98352 64.6267 8.96189 64.6128 8.93738C64.599 8.91287 64.5903 8.88596 64.5872 8.85818L64.538 8.417C64.5342 8.38887 64.5362 8.36028 64.5439 8.33292C64.5516 8.30555 64.5649 8.27996 64.5829 8.25764C64.601 8.23533 64.6235 8.21674 64.649 8.20298C64.6746 8.18922 64.7027 8.18056 64.7317 8.1775C64.7608 8.17445 64.7902 8.17707 64.8181 8.18521C64.8461 8.19335 64.8722 8.20684 64.8947 8.22489C64.9172 8.24294 64.9358 8.26519 64.9494 8.29032C64.963 8.31545 64.9712 8.34296 64.9737 8.37124L65.0228 8.8123Z" fill="#7F3E3B"/>
<path d="M63.0699 8.49561C62.9652 8.70843 62.4318 10.2253 62.5652 10.4009C62.6985 10.5767 63.3674 10.4774 63.396 10.4218C63.4246 10.3664 63.2911 9.97396 63.2127 9.41125C63.1358 8.8589 63.0699 8.49561 63.0699 8.49561Z" fill="url(#paint6_linear_105_134)"/>
<path d="M61.0152 8.58394C61.0017 8.58395 60.9884 8.58104 60.9762 8.57542C60.964 8.56981 60.9533 8.56163 60.9448 8.55148C60.9362 8.54133 60.9302 8.52947 60.9269 8.51675C60.9237 8.50403 60.9235 8.49077 60.9262 8.47794C60.9625 8.30582 61.1397 8.14865 61.3672 8.08677C61.6369 8.01324 61.9023 8.08747 62.0961 8.28994C62.1047 8.29835 62.1114 8.30833 62.1159 8.3193C62.1204 8.33027 62.1226 8.34201 62.1223 8.35381C62.122 8.36561 62.1193 8.37725 62.1143 8.38802C62.1094 8.39879 62.1022 8.40848 62.0933 8.41652C62.0844 8.42456 62.0739 8.43079 62.0625 8.43482C62.0511 8.43886 62.039 8.44063 62.0268 8.44003C62.0147 8.43942 62.0028 8.43646 61.9918 8.43131C61.9809 8.42617 61.9711 8.41894 61.9631 8.41006C61.7561 8.19383 61.5119 8.23077 61.4162 8.25665C61.2577 8.29982 61.1264 8.40782 61.1041 8.51347C61.0999 8.53336 61.0888 8.55123 61.0726 8.56407C61.0564 8.57691 61.0361 8.58392 61.0152 8.58394ZM64.2032 8.01959C64.1871 8.01958 64.1713 8.01542 64.1574 8.00752C64.1435 7.99962 64.132 7.98827 64.1241 7.97463C64.1162 7.96099 64.1121 7.94556 64.1124 7.92991C64.1127 7.91427 64.1172 7.89897 64.1256 7.88559C64.2697 7.65465 64.5038 7.53312 64.7676 7.55347C65.0104 7.57182 65.2396 7.7103 65.3125 7.88265C65.3174 7.89342 65.32 7.90503 65.3202 7.9168C65.3203 7.92857 65.3181 7.94025 65.3136 7.95116C65.309 7.96208 65.3023 7.972 65.2938 7.98035C65.2852 7.9887 65.2751 7.9953 65.2639 7.99977C65.2526 8.00425 65.2406 8.0065 65.2285 8.0064C65.2164 8.00629 65.2044 8.00383 65.1933 7.99917C65.1822 7.9945 65.1721 7.98772 65.1637 7.97923C65.1554 7.97074 65.1488 7.9607 65.1445 7.94971C65.1034 7.85277 64.9459 7.74383 64.7534 7.72935C64.6399 7.72088 64.4278 7.74159 64.281 7.977C64.2729 7.99002 64.2615 8.00079 64.2479 8.00826C64.2343 8.01572 64.2189 8.01963 64.2032 8.01959Z" fill="#BE4118"/>
<path d="M62.708 11.3816C62.9153 11.3885 63.1778 11.378 63.5652 11.2913C63.9271 11.2104 64.3129 10.8774 64.3129 10.8774C64.3129 10.8774 64.309 11.7776 63.8224 11.881C63.2129 12.0105 62.708 11.3816 62.708 11.3816Z" fill="#FAFAFA"/>
<path d="M68.1152 8.39856C68.0153 7.40656 67.4415 7.14538 67.3367 6.85856C67.2319 6.57173 67.6461 6.28973 67.4747 5.60526C67.2696 4.7862 66.0938 4.63409 66.2319 4.15773C66.3146 3.87279 67.1383 4.1562 67.7177 3.8155C68.2366 3.5102 67.9753 2.73197 67.4605 2.70562C67.0082 2.68244 66.608 2.9275 66.5747 2.65938C66.5369 2.3542 66.9936 2.44197 67.1841 1.92397C67.3432 1.49114 66.9033 0.948204 66.4365 1.07773C66.0467 1.18597 65.8175 1.37373 65.6319 1.2535C65.3552 1.0742 65.6032 0.592086 65.2412 0.245263C64.9247 -0.0581491 64.2937 0.0834984 63.965 0.559734C63.6036 1.08385 63.6903 1.81762 63.4413 1.89162C63.2079 1.96103 63.2366 1.69044 62.9507 1.66267C62.3595 1.60526 62.0923 2.17832 62.4473 2.6755C62.7339 3.07714 63.4294 3.17844 63.2699 3.5935C63.1731 3.8455 62.245 4.03938 61.4699 4.27797C60.5008 4.5762 59.7795 5.07562 59.5653 5.83185C59.3346 6.6462 59.7698 7.19479 59.7507 7.51856C59.7317 7.84232 59.2128 7.81114 59.1557 8.25515C59.1071 8.63244 59.5947 9.00903 60.0113 9.21609C60.0215 9.19503 60.033 9.17444 60.0466 9.15467C60.14 9.02044 60.2959 8.9482 60.4678 8.93856C60.4226 8.7995 60.3706 8.63079 60.3483 8.52526C60.1728 7.69585 61.0605 6.85856 61.6033 6.37762C62.146 5.89679 62.2984 5.51738 62.2984 5.51738C62.2984 5.51738 62.508 5.91515 63.3842 6.69209C64.2602 7.46903 64.5652 7.08973 65.508 7.32103C66.2724 7.50844 66.442 7.89044 66.5397 8.33373C66.8492 8.1462 67.2298 8.18785 67.4016 8.43491C67.5784 8.68879 67.4672 9.06173 67.1533 9.26762C67.0387 9.34379 66.9052 9.38868 66.7667 9.39762C66.8457 9.64514 66.9328 9.95973 67.0228 10.3194C67.8021 10.0204 68.2013 9.25244 68.1152 8.39856Z" fill="#8D5C5A"/>
<path d="M64.9305 16.8735L34.5853 14.4116C34.5853 14.4116 36.0995 23.5881 33.4042 33.5881C32.4551 37.1028 31.2404 40.5448 29.77 43.886L53.6537 44.1963L53.6646 44.196C55.0274 44.1568 55.3 46.2646 55.8451 47.5293C56.3902 48.794 57.0085 50.2202 58.9721 50.0737C60.687 49.9459 61.6638 47.7737 62.0514 46.6707C62.8792 43.8634 63.8003 42.5083 65.0518 34.294C66.4572 25.0689 64.9305 16.8735 64.9305 16.8735Z" fill="url(#paint7_linear_105_134)"/>
<path d="M56.6084 36.1468C58.2524 30.4959 58.5958 25.0719 58.5756 21.3592L47.6707 20.1675C47.7179 23.8142 47.4288 28.7723 46.0707 33.9457C45.1216 37.5541 43.9069 41.0878 42.4365 44.5181L53.5621 44.6665C54.5932 42.2489 55.6685 39.3779 56.6084 36.1468Z" fill="#C68BBC"/>
<path d="M52.4776 32.2847C54.7356 32.2847 56.566 30.4596 56.566 28.2083C56.566 25.9569 54.7356 24.1318 52.4776 24.1318C50.2196 24.1318 48.3892 25.9569 48.3892 28.2083C48.3892 30.4596 50.2196 32.2847 52.4776 32.2847Z" fill="#EFEEEF"/>
<path d="M55.226 35.2821C55.206 35.4329 55.1266 35.5696 55.0055 35.6621C54.8843 35.7547 54.7313 35.7954 54.58 35.7754L48.1254 34.9217C48.0505 34.9118 47.9783 34.8873 47.9129 34.8495C47.8475 34.8118 47.7902 34.7616 47.7442 34.7018C47.6514 34.581 47.6106 34.4284 47.6306 34.2776C47.6507 34.1267 47.73 33.99 47.8512 33.8975C47.9724 33.805 48.1254 33.7643 48.2767 33.7843L54.7313 34.638C54.8826 34.658 55.0197 34.7371 55.1125 34.8579C55.2052 34.9787 55.2461 35.1313 55.226 35.2821ZM54.4575 38.2455C54.4476 38.3202 54.423 38.3922 54.3852 38.4574C54.3473 38.5226 54.297 38.5798 54.237 38.6256C54.177 38.6714 54.1086 38.705 54.0355 38.7244C53.9625 38.7438 53.8864 38.7487 53.8115 38.7388L47.3569 37.8851C47.2814 37.8759 47.2084 37.8519 47.1423 37.8144C47.0761 37.777 47.0181 37.7268 46.9715 37.6668C46.9249 37.6068 46.8907 37.5383 46.8709 37.465C46.8511 37.3918 46.8461 37.3154 46.8561 37.2402C46.8661 37.165 46.8909 37.0925 46.9292 37.027C46.9675 36.9614 47.0184 36.9041 47.0791 36.8583C47.1397 36.8125 47.2089 36.7791 47.2825 36.7601C47.3562 36.7412 47.4329 36.7369 47.5082 36.7477L53.9628 37.6014C54.0377 37.6113 54.1099 37.6358 54.1754 37.6735C54.2408 37.7112 54.2981 37.7614 54.344 37.8212C54.39 37.8811 54.4237 37.9493 54.4431 38.0221C54.4626 38.0949 54.4675 38.1708 54.4575 38.2455Z" fill="#E3DDE4"/>
<path d="M62.4516 23.0893L32.584 19.91L32.5864 16.1567L62.4541 18.912L62.4516 23.0893Z" fill="#974A8A"/>
<path d="M51.4291 20.7029C51.4251 20.7029 51.4211 20.7027 51.4171 20.7023C50.8021 20.6435 50.5204 20.265 50.2719 19.9311C50.0321 19.609 49.8057 19.3048 49.2995 19.2563C48.7929 19.2078 48.5101 19.4632 48.2105 19.7337C47.8997 20.0141 47.5475 20.3318 46.9323 20.2729C46.3177 20.2141 46.0361 19.8357 45.7877 19.5018C45.5481 19.1797 45.3218 18.8756 44.8158 18.8271C44.3077 18.7785 44.0262 19.0341 43.7265 19.3045C43.4158 19.5848 43.064 19.9025 42.4487 19.8437C41.8338 19.7849 41.5523 19.4064 41.3038 19.0725C41.0642 18.7504 40.8378 18.4463 40.3317 18.3978C39.8261 18.3491 39.5424 18.6048 39.2427 18.8752C38.9319 19.1556 38.5797 19.4732 37.9649 19.4144C37.3501 19.3556 37.0687 18.9771 36.8203 18.6433C36.5806 18.3212 36.3542 18.0171 35.8482 17.9686C35.3412 17.9197 35.0588 18.1755 34.7591 18.4461C34.4484 18.7263 34.0966 19.0441 33.4813 18.9852C33.4493 18.9822 33.4199 18.9669 33.3996 18.9428C33.3792 18.9187 33.3695 18.8877 33.3727 18.8566C33.3742 18.8413 33.3788 18.8263 33.3863 18.8127C33.3938 18.799 33.404 18.787 33.4163 18.7772C33.4286 18.7674 33.4428 18.76 33.458 18.7556C33.4732 18.7511 33.4892 18.7496 33.5051 18.7511C34.0113 18.7991 34.2944 18.5441 34.5942 18.2737C34.9049 17.9935 35.2575 17.6758 35.872 17.7346C36.4868 17.7935 36.7682 18.1718 37.0166 18.5057C37.2562 18.8277 37.4825 19.1319 37.9886 19.1804C38.4942 19.2285 38.778 18.9735 39.0777 18.703C39.3884 18.4228 39.7413 18.1055 40.3555 18.1638C40.9702 18.2226 41.2518 18.601 41.5002 18.9349C41.7399 19.257 41.9662 19.5612 42.4725 19.6097C42.9788 19.6579 43.2618 19.4028 43.5615 19.1323C43.8722 18.8519 44.2243 18.5342 44.8395 18.5931C45.4542 18.6519 45.7357 19.0303 45.9842 19.3642C46.2238 19.6863 46.4501 19.9904 46.9561 20.0389C47.4642 20.0875 47.7458 19.8318 48.0455 19.5615C48.3562 19.2812 48.7078 18.9632 49.3233 19.0224C49.9381 19.0812 50.2198 19.4597 50.4682 19.7936C50.708 20.1157 50.9345 20.4199 51.4407 20.4684C51.4716 20.4714 51.5001 20.4858 51.5203 20.5086C51.5406 20.5314 51.551 20.5609 51.5495 20.591C51.548 20.6211 51.5347 20.6495 51.5123 20.6703C51.4899 20.6911 51.4601 20.7028 51.4291 20.7029Z" fill="#FAFAFA"/>
<path d="M60.2312 20.9741C60.2249 20.9742 60.2186 20.9738 60.2124 20.9732L54.8692 20.44C54.8455 20.4376 54.8224 20.4307 54.8014 20.4197C54.7804 20.4087 54.7619 20.3938 54.7468 20.3758C54.7318 20.3578 54.7205 20.3371 54.7137 20.3149C54.7068 20.2927 54.7046 20.2694 54.707 20.2463C54.7095 20.2233 54.7165 20.2009 54.7279 20.1805C54.7392 20.1601 54.7546 20.1421 54.7731 20.1275C54.7916 20.1128 54.8129 20.1019 54.8358 20.0953C54.8587 20.0886 54.8827 20.0864 54.9064 20.0888L60.2496 20.622C60.2961 20.6264 60.3391 20.648 60.3697 20.6824C60.4002 20.7168 60.4159 20.7612 60.4136 20.8066C60.4112 20.8519 60.3909 20.8947 60.3569 20.9259C60.323 20.9571 60.2779 20.9743 60.2312 20.9741Z" fill="#71B7FB"/>
<path d="M60.2176 21.7795C60.7681 21.7795 61.2144 21.3461 61.2144 20.8114C61.2144 20.2767 60.7681 19.8433 60.2176 19.8433C59.667 19.8433 59.2207 20.2767 59.2207 20.8114C59.2207 21.3461 59.667 21.7795 60.2176 21.7795Z" fill="#FAFAFA"/>
<path d="M44.7356 57.5V57.4998L44.5429 57.4941L44.5067 57.516L43.4206 57.6545L40.1575 59.1471L39.4609 66.2549H49.7072C46.8877 66.2549 48.0029 57.4621 44.7356 57.5ZM55.8449 47.5294C55.2998 46.2647 55.0273 44.1568 53.6645 44.1961L53.6534 44.1965L53.5297 44.1948L53.5169 44.2054L50.0909 44.8432L48.2334 50.0836H58.6853L58.6852 50.0832C56.9469 50.0756 56.3625 48.7302 55.8449 47.5294Z" fill="#EFEEEF"/>
<path d="M53.6537 44.1965L23.317 43.8022C22.2751 45.4362 21.7403 49.1864 21.8456 51.8432C21.8938 53.0604 21.7948 54.9535 21.6074 56.822L44.7357 57.4998V57.5C48.0031 57.4621 46.8879 66.255 49.7074 66.255C50.9591 66.255 52.2109 65.8235 51.1813 55.353C50.1551 44.9188 52.6252 44.2302 53.6537 44.1965Z" fill="url(#paint8_linear_105_134)"/>
<path d="M41.3365 79.8171C41.3411 79.8126 41.3442 79.8085 41.3488 79.804C43.7715 77.4902 43.2502 71.0139 43.022 67.6599C42.7807 64.1146 41.7729 57.9805 44.4176 57.5294C44.5281 57.5106 44.634 57.5013 44.7357 57.5001V57.4999L19.9291 56.7729C13.4267 59.4288 13.4869 62.7845 13.6081 66.4707C13.6931 69.0588 13.0427 72.5884 12.437 73.3726L41.3365 79.8171Z" fill="#E3DDE4"/>
<path d="M23.6026 56.8804C21.6132 57.9743 21.0168 59.9521 20.8999 62.256L35.6012 63.3137C35.5393 59.3857 36.6819 58.2412 37.9199 57.2999L23.6026 56.8804Z" fill="#FAFAFA"/>
<path d="M35.7807 65.9279L20.9043 64.5366C20.9906 66.7456 21.2299 69.0747 20.957 71.1178C20.7474 72.6871 20.3047 74.0363 19.8892 75.0345L35.3028 78.4717C36.1318 76.874 36.8325 73.4254 35.948 67.2354C35.8824 66.7771 35.8269 66.3417 35.7807 65.9279Z" fill="#C68BBC"/>
<path d="M32.5103 68.2715C32.5044 68.2715 32.4985 68.2713 32.4926 68.2707L23.0577 67.3884C23.0339 67.3861 23.0109 67.3794 22.9898 67.3685C22.9687 67.3576 22.9501 67.3428 22.9349 67.325C22.9197 67.3071 22.9083 67.2865 22.9013 67.2643C22.8943 67.2421 22.8919 67.2188 22.8942 67.1958C22.8964 67.1727 22.9034 67.1503 22.9146 67.1298C22.9258 67.1093 22.941 67.0912 22.9594 67.0765C22.9779 67.0617 22.9991 67.0506 23.0219 67.0439C23.0447 67.0371 23.0687 67.0347 23.0925 67.0369L32.5274 67.9193C32.574 67.9234 32.6173 67.9448 32.6481 67.9791C32.6789 68.0134 32.6949 68.0579 32.6927 68.1034C32.6904 68.1488 32.6702 68.1917 32.6363 68.223C32.6023 68.2544 32.5571 68.2717 32.5103 68.2715ZM32.6727 70.4248C32.6664 70.4248 32.66 70.4245 32.6536 70.4239L23.1263 69.4555C23.0783 69.4507 23.0344 69.4275 23.004 69.3911C22.9737 69.3547 22.9595 69.3081 22.9645 69.2616C22.9695 69.215 22.9934 69.1723 23.0308 69.1429C23.0683 69.1134 23.1163 69.0996 23.1642 69.1045L32.6915 70.0728C32.7378 70.0775 32.7805 70.0993 32.8108 70.1336C32.8411 70.168 32.8566 70.2123 32.8542 70.2575C32.8518 70.3027 32.8316 70.3452 32.7979 70.3763C32.7641 70.4075 32.7193 70.4248 32.6727 70.4248ZM32.7053 72.4459C32.6987 72.4459 32.692 72.4455 32.6854 72.4448L23.0773 71.4335C23.0533 71.4315 23.0299 71.4247 23.0085 71.4138C22.9872 71.4028 22.9683 71.3878 22.9529 71.3697C22.9376 71.3516 22.9262 71.3306 22.9193 71.3082C22.9124 71.2857 22.9102 71.2621 22.9128 71.2388C22.9154 71.2154 22.9227 71.1928 22.9344 71.1723C22.9461 71.1518 22.9619 71.1337 22.9809 71.1192C22.9998 71.1047 23.0216 71.094 23.0449 71.0877C23.0682 71.0814 23.0925 71.0797 23.1165 71.0827L32.7246 72.094C32.7707 72.0989 32.8132 72.1208 32.8432 72.1552C32.8733 72.1895 32.8886 72.2338 32.8862 72.2788C32.8837 72.3238 32.8636 72.3662 32.83 72.3973C32.7963 72.4283 32.7517 72.4457 32.7053 72.4459ZM32.5286 74.9466C32.5192 74.9466 32.5098 74.9459 32.5005 74.9445L22.8599 73.4904C22.8363 73.4868 22.8137 73.4788 22.7933 73.4667C22.7729 73.4547 22.7551 73.4388 22.7411 73.4201C22.727 73.4014 22.7168 73.3802 22.7112 73.3576C22.7056 73.3351 22.7045 73.3117 22.7082 73.2888C22.7159 73.2427 22.742 73.2014 22.7808 73.1739C22.8196 73.1463 22.868 73.1347 22.9156 73.1415L32.5562 74.5957C32.6015 74.6023 32.6426 74.6254 32.6711 74.6603C32.6997 74.6951 32.7136 74.7392 32.7101 74.7836C32.7066 74.828 32.6859 74.8694 32.6523 74.8997C32.6186 74.9299 32.5744 74.9467 32.5286 74.9466Z" fill="#EFEEEF"/>
<path d="M26.1061 60.8217C26.2985 59.685 26.6817 58.6743 27.3913 57.8723L23.7276 57.7246C23.0447 58.5094 22.6695 59.491 22.4766 60.5926L26.1061 60.8217Z" fill="#C68BBC"/>
<path d="M35.6332 48.2277C35.2468 52.488 35.1455 54.8087 35.1455 54.8087L45.2859 55.098C45.2859 55.098 45.3877 52.7864 45.7669 48.4481C45.9302 46.5801 46.3243 45.141 46.7198 44.1063L36.5845 43.9746C36.1942 44.97 35.8014 46.3743 35.6332 48.2277Z" fill="#FAFAFA"/>
<path d="M44.3065 46.2943H37.9467C37.8985 46.2943 37.8523 46.2758 37.8182 46.2427C37.7841 46.2096 37.765 46.1647 37.765 46.1179C37.765 46.0711 37.7841 46.0262 37.8182 45.9931C37.8523 45.96 37.8985 45.9414 37.9467 45.9414H44.3065C44.3547 45.9414 44.4009 45.96 44.4349 45.9931C44.469 46.0262 44.4882 46.0711 44.4882 46.1179C44.4882 46.1647 44.469 46.2096 44.4349 46.2427C44.4009 46.2758 44.3547 46.2943 44.3065 46.2943ZM43.663 49.6878H43.6612L37.3014 49.6289C37.2775 49.6287 37.2539 49.6239 37.2319 49.6149C37.21 49.6058 37.1901 49.5926 37.1733 49.576C37.1566 49.5595 37.1434 49.5399 37.1345 49.5184C37.1256 49.4969 37.1211 49.4739 37.1214 49.4507C37.1216 49.4275 37.1265 49.4046 37.1358 49.3833C37.1451 49.362 37.1587 49.3426 37.1758 49.3264C37.1928 49.3102 37.213 49.2974 37.2351 49.2887C37.2572 49.2801 37.2809 49.2757 37.3048 49.276L43.6645 49.3348C43.6884 49.3349 43.712 49.3396 43.734 49.3485C43.756 49.3575 43.776 49.3706 43.7928 49.387C43.8096 49.4035 43.8229 49.423 43.8319 49.4445C43.841 49.4659 43.8456 49.4889 43.8455 49.5121C43.8454 49.5352 43.8406 49.5582 43.8313 49.5795C43.8221 49.6009 43.8086 49.6203 43.7917 49.6366C43.7747 49.6529 43.7547 49.6658 43.7326 49.6746C43.7105 49.6834 43.6868 49.6879 43.663 49.6878ZM43.3678 53.0885H43.3642L37.0045 52.9708C36.9563 52.9699 36.9104 52.9505 36.877 52.9168C36.8436 52.883 36.8253 52.8378 36.8262 52.791C36.8271 52.7442 36.8471 52.6997 36.8819 52.6672C36.9166 52.6347 36.9632 52.617 37.0114 52.6179L43.3711 52.7355C43.4715 52.7374 43.5513 52.8179 43.5495 52.9153C43.5485 52.9615 43.5289 53.0055 43.495 53.0378C43.461 53.0702 43.4153 53.0884 43.3678 53.0885Z" fill="#E3DDE4"/>
<path d="M37.9465 46.7943C38.3312 46.7943 38.6431 46.4915 38.6431 46.1179C38.6431 45.7443 38.3312 45.4414 37.9465 45.4414C37.5619 45.4414 37.25 45.7443 37.25 46.1179C37.25 46.4915 37.5619 46.7943 37.9465 46.7943Z" fill="#BE4118"/>
<path d="M37.3025 50.1308C37.6872 50.1308 37.9991 49.8279 37.9991 49.4543C37.9991 49.0807 37.6872 48.7778 37.3025 48.7778C36.9178 48.7778 36.606 49.0807 36.606 49.4543C36.606 49.8279 36.9178 50.1308 37.3025 50.1308Z" fill="#EA971D"/>
<path d="M36.9973 53.4672C37.382 53.4672 37.6939 53.1643 37.6939 52.7907C37.6939 52.4171 37.382 52.1143 36.9973 52.1143C36.6126 52.1143 36.3008 52.4171 36.3008 52.7907C36.3008 53.1643 36.6126 53.4672 36.9973 53.4672Z" fill="#6A74EF"/>
<path d="M78.4362 24.5199C78.4078 23.9689 77.1542 21.9546 75.3046 19.8892C73.7362 20.302 72.8227 21.9757 72.6496 22.4985C73.8707 23.6288 75.0551 24.838 75.0982 25.0332C75.1553 25.2921 74.9425 26.9877 74.2376 28.745C73.5331 30.5023 72.2906 32.585 71.9763 32.696C71.8322 32.747 71.7619 32.6737 71.562 32.5905C71.3622 32.5072 70.6667 32.5442 70.6667 32.5442V34.1166C70.6667 34.1166 70.0476 34.653 69.6667 34.9028C69.2857 35.1526 68.5142 35.6659 68.5809 35.8185C68.6958 36.0807 69.619 35.5873 69.619 35.5873C69.619 35.5873 69.2 35.9619 68.9142 36.1561C68.6286 36.3503 68.4952 36.5307 68.5332 36.6417C68.5802 36.7779 69.1238 36.6509 69.1238 36.6509C69.1238 36.6509 68.9903 36.8267 69.1522 36.8914C69.3143 36.9561 69.7618 36.8452 70.2285 36.6139C70.6953 36.3827 71.019 36.1329 71.019 36.1329C71.019 36.1329 70.8998 36.4267 70.6189 36.762C70.4781 36.9301 70.0569 37.2452 70.1713 37.377C70.394 37.6339 71.7997 36.3087 72.2712 35.7537C72.7427 35.1988 73.1046 34.5329 73.3332 33.9408C73.5618 33.3489 74.9028 32.3892 76.4398 29.9462C77.973 27.5097 78.4695 25.1652 78.4362 24.5199Z" fill="url(#paint9_linear_105_134)"/>
<path d="M70.6097 34.1372C70.6718 34.089 70.7283 34.028 70.7838 33.969C70.8388 33.909 70.8917 33.8473 70.9423 33.7838C71.0411 33.6573 71.1383 33.5227 71.1921 33.3828L71.1928 33.381C71.1958 33.3737 71.2002 33.3672 71.2059 33.3617C71.2115 33.3561 71.2183 33.3517 71.2257 33.3487C71.2331 33.3458 71.241 33.3442 71.249 33.3442C71.257 33.3443 71.265 33.3458 71.2724 33.3488C71.2797 33.3518 71.2865 33.3562 71.2921 33.3618C71.2977 33.3673 71.3021 33.3739 71.3051 33.3811C71.3081 33.3884 71.3096 33.3961 71.3095 33.4039C71.3094 33.4117 71.3077 33.4193 71.3045 33.4265C71.2276 33.5861 71.1179 33.7119 71.0061 33.8355C70.9496 33.8964 70.8909 33.9553 70.8301 34.0121C70.7684 34.0685 70.7084 34.1247 70.6359 34.1728C70.6311 34.176 70.6252 34.1772 70.6195 34.1763C70.6138 34.1753 70.6087 34.1723 70.6052 34.1678C70.6018 34.1633 70.6002 34.1576 70.6009 34.152C70.6016 34.1465 70.6045 34.1413 70.609 34.1378L70.6097 34.1372ZM69.5824 35.5847C69.6804 35.5173 69.7773 35.4485 69.8731 35.3781L70.016 35.272C70.0626 35.2365 70.1113 35.1997 70.1515 35.1638L70.1523 35.163C70.1641 35.1523 70.1798 35.1467 70.1959 35.1474C70.212 35.148 70.2272 35.1548 70.2381 35.1662C70.249 35.1777 70.2548 35.193 70.2542 35.2086C70.2535 35.2242 70.2465 35.2389 70.2347 35.2495C70.2332 35.2507 70.2319 35.252 70.2303 35.2531C70.1779 35.292 70.128 35.3225 70.0766 35.3551L69.9229 35.4491C69.8201 35.5111 69.7164 35.5716 69.6117 35.6305C69.6053 35.634 69.5977 35.635 69.5906 35.6331C69.5835 35.6313 69.5775 35.6268 69.5738 35.6206C69.5705 35.6146 69.5695 35.6077 69.5711 35.6011C69.5727 35.5945 69.5767 35.5887 69.5824 35.5847ZM69.0903 36.6446C69.2243 36.5865 69.353 36.5088 69.4802 36.4338C69.6071 36.3574 69.7314 36.2772 69.8531 36.1933C69.9745 36.1102 70.0918 36.0215 70.2044 35.9275C70.3147 35.8335 70.4231 35.7326 70.4976 35.6198L70.4984 35.6186C70.5071 35.6055 70.5208 35.5962 70.5365 35.5929C70.5522 35.5896 70.5686 35.5924 70.5821 35.6008C70.5956 35.6093 70.6052 35.6226 70.6086 35.6378C70.612 35.6531 70.6091 35.669 70.6004 35.6821L70.5985 35.6848C70.5033 35.8128 70.3856 35.9088 70.2667 36.001C70.147 36.0909 70.0229 36.1752 69.8948 36.2535C69.7677 36.332 69.6381 36.4065 69.5062 36.4771C69.3734 36.5465 69.2428 36.6171 69.0999 36.6707C69.0965 36.6719 69.0927 36.6717 69.0894 36.6703C69.0861 36.6688 69.0835 36.6662 69.0821 36.663C69.0807 36.6597 69.0807 36.6561 69.082 36.6528C69.0833 36.6495 69.0858 36.6468 69.0891 36.6453L69.0903 36.6446Z" fill="#B07D7C"/>
<path d="M75.305 19.8894L75.2651 19.8446C75.1133 19.6763 74.9583 19.5108 74.8002 19.3481C73.3575 19.8751 72.4755 21.2286 72.1196 22.0153C72.2976 22.1751 72.4744 22.3362 72.65 22.4986C72.823 21.976 73.7365 20.3021 75.305 19.8894Z" fill="#FAFAFA"/>
<path d="M71.1448 16.1938C71.1639 16.2064 71.1825 16.2194 71.2012 16.2321C70.5541 17.0069 69.9505 18.2044 69.4634 19.5056C69.9063 20.2408 70.7645 20.8441 71.4792 21.4538C71.695 21.6384 71.9084 21.8255 72.1195 22.0151C72.4754 21.2284 73.3574 19.875 74.8 19.348C73.6554 18.1678 72.0606 16.7869 71.1448 16.1938Z" fill="#66666C"/>
<path d="M71.0705 16.1467C71.0479 16.1326 71.0236 16.1165 71.0021 16.1035L71.0015 16.1036L71.0705 16.1467Z" fill="url(#paint10_linear_105_134)"/>
<path d="M57.8847 16.3018C57.7378 16.0145 56.9655 15.2057 55.4816 15.0586C53.9976 14.9115 53.4054 15.3686 53.2254 15.4998C52.9831 15.6763 52.4986 16.419 52.7408 16.4778C52.9831 16.5366 53.3847 15.9368 53.6342 16.0586C53.7626 16.1213 53.1572 16.6837 53.2708 17.0292C53.3424 17.2472 53.7251 16.9777 53.7251 16.9777C53.7251 16.9777 53.5723 17.2859 53.7162 17.4035C53.8602 17.5212 54.3384 17.1688 54.3384 17.1688C54.3384 17.1688 54.3081 17.4998 54.611 17.4557C54.9138 17.4115 56.017 16.2153 56.3058 16.1738L57.8847 16.3018Z" fill="url(#paint11_linear_105_134)"/>
<path d="M54.3249 17.1552C54.416 17.0397 54.496 16.8984 54.5835 16.771C54.6696 16.6401 54.76 16.5119 54.8546 16.3866C54.9503 16.2616 55.0514 16.1397 55.1666 16.0276C55.2835 15.9192 55.4095 15.8055 55.5928 15.7656C55.6085 15.7622 55.6249 15.7649 55.6385 15.7733C55.6521 15.7817 55.6617 15.7949 55.6652 15.8102C55.6687 15.8254 55.6659 15.8414 55.6573 15.8546C55.6487 15.8678 55.635 15.8771 55.6193 15.8805L55.6159 15.8811L55.6128 15.8816C55.4793 15.9025 55.3494 15.999 55.2364 16.0983C55.122 16.2003 55.0176 16.3155 54.9182 16.4344C54.8191 16.5545 54.7241 16.6775 54.6331 16.8035C54.5381 16.929 54.4601 17.0583 54.3518 17.1832C54.3485 17.1868 54.344 17.1891 54.339 17.1895C54.3341 17.1899 54.3292 17.1885 54.3253 17.1855C54.3214 17.1825 54.3188 17.1781 54.3182 17.1734C54.3175 17.1686 54.3187 17.1637 54.3216 17.1598L54.3249 17.1552ZM53.7027 16.9699C53.7487 16.859 53.812 16.7652 53.8735 16.6674C53.936 16.5709 54.0019 16.4764 54.0709 16.3839C54.1401 16.2907 54.2142 16.201 54.2928 16.1151C54.3752 16.0306 54.4536 15.9435 54.5824 15.8862C54.5896 15.883 54.5974 15.8812 54.6054 15.8809C54.6134 15.8806 54.6213 15.8818 54.6288 15.8845C54.6362 15.8872 54.6431 15.8913 54.6489 15.8966C54.6548 15.9019 54.6595 15.9082 54.6628 15.9152C54.6661 15.9223 54.668 15.9299 54.6683 15.9376C54.6686 15.9453 54.6673 15.9531 54.6645 15.9603C54.6617 15.9676 54.6575 15.9742 54.6521 15.9799C54.6467 15.9856 54.6401 15.9901 54.6329 15.9934L54.6292 15.9949L54.6243 15.9966C54.5367 16.0286 54.4467 16.1079 54.3673 16.1841C54.2866 16.2635 54.21 16.347 54.138 16.4341C54.0651 16.5214 53.9952 16.6111 53.9286 16.703C53.8636 16.7949 53.7939 16.8892 53.7475 16.9864L53.7465 16.9884C53.744 16.9941 53.7393 16.9985 53.7334 17.0008C53.7275 17.003 53.7209 17.0029 53.7151 17.0005C53.7093 16.998 53.7047 16.9934 53.7024 16.9877C53.7 16.982 53.7001 16.9756 53.7027 16.9699Z" fill="#B07D7C"/>
<path d="M3.53516 43.4531H15.071V54.0557H3.53516V43.4531Z" fill="#FAFAFA"/>
<path d="M6.5166 46.9503C6.5166 46.7111 6.61445 46.4817 6.78863 46.3125C6.96281 46.1434 7.19905 46.0483 7.44537 46.0483H11.1603C11.4067 46.0483 11.6429 46.1434 11.8171 46.3125C11.9913 46.4817 12.0891 46.7111 12.0891 46.9503V50.5581C12.0891 50.7973 11.9913 51.0268 11.8171 51.1959C11.6429 51.3651 11.4067 51.4601 11.1603 51.4601H7.44537C7.19905 51.4601 6.96281 51.3651 6.78863 51.1959C6.61445 51.0268 6.5166 50.7973 6.5166 50.5581V46.9503Z" fill="#974A8A"/>
<path d="M10.851 47.4188C10.8179 47.3964 10.7805 47.3805 10.741 47.3721C10.7015 47.3637 10.6607 47.363 10.6209 47.3699C10.5811 47.3769 10.5431 47.3914 10.5091 47.4126C10.475 47.4338 10.4457 47.4613 10.4226 47.4935L9.28594 49.0802L8.02525 48.0309C7.97907 47.9926 7.91982 47.9725 7.85914 47.9745C7.79845 47.9764 7.74072 48.0004 7.69729 48.0416C7.65386 48.0828 7.62786 48.1383 7.62442 48.1972C7.62097 48.256 7.64032 48.314 7.67867 48.3598L9.05795 49.9976C9.10012 50.0477 9.15426 50.0869 9.21564 50.112C9.27703 50.137 9.3438 50.1471 9.41011 50.1412C9.47642 50.1354 9.54025 50.114 9.59604 50.0787C9.65183 50.0434 9.69788 49.9954 9.73015 49.9388L9.73766 49.9258L10.9447 47.809C10.9812 47.7442 10.9919 47.6686 10.9746 47.5966C10.9573 47.5246 10.9133 47.4613 10.851 47.4188Z" fill="#FAFAFA"/>
<path d="M17.3947 28.5498C15.2459 29.5811 11.4806 32.7365 10.5792 34.1962C9.27805 36.3033 7.84074 40.2797 8.20415 43.4562C9.02693 43.4562 9.65043 43.4511 9.65043 43.4511C9.65043 43.4511 9.8927 43.5835 9.90785 44.3187C9.91996 44.9069 9.92662 45.2355 10.1905 45.206C10.453 45.1766 10.8012 44.2393 10.6902 43.3457C10.5842 42.4927 10.028 42.2871 10.145 41.4118C10.4479 39.1471 12.4046 36.5716 12.9312 36C13.2803 35.6211 16.1001 33.2438 17.9888 32.5295C17.4413 31.3106 17.292 29.3849 17.3947 28.5498Z" fill="url(#paint12_linear_105_134)"/>
<path d="M16.612 28.9766C16.384 29.8678 16.596 31.5295 17.3095 32.8347C18.2918 32.3139 19.576 32.0642 20.3008 32.0295C22.6619 31.9164 23.0885 26.7471 23.0885 26.7471C21.8911 26.7611 19.3338 27.346 16.612 28.9766Z" fill="#66666C"/>
<path d="M17.3095 32.9227C17.293 32.9227 17.2768 32.9183 17.2627 32.9101C17.2485 32.9018 17.237 32.89 17.2292 32.8759C16.4732 31.4931 16.3015 29.8237 16.5237 28.9551C16.5295 28.9324 16.5444 28.9129 16.565 28.9008C16.5753 28.8948 16.5866 28.8909 16.5984 28.8892C16.6102 28.8874 16.6222 28.888 16.6338 28.8908C16.6454 28.8936 16.6563 28.8986 16.6659 28.9055C16.6755 28.9123 16.6836 28.921 16.6898 28.9309C16.6959 28.9409 16.7 28.9519 16.7018 28.9633C16.7035 28.9748 16.703 28.9865 16.7001 28.9977C16.483 29.8463 16.6815 31.498 17.3897 32.7933C17.397 32.8067 17.4006 32.8217 17.4002 32.8369C17.3997 32.8521 17.3953 32.8669 17.3872 32.8799C17.3791 32.893 17.3678 32.9037 17.3541 32.9112C17.3405 32.9187 17.3252 32.9226 17.3095 32.9227Z" fill="#6A74EF"/>
<path d="M17.9862 32.6113C17.9683 32.6113 17.9508 32.6062 17.9359 32.5966C17.9211 32.587 17.9094 32.5734 17.9025 32.5574C17.3339 31.2495 17.1174 29.086 17.3089 28.5221C17.3164 28.4999 17.3327 28.4814 17.3542 28.4709C17.3758 28.4603 17.4007 28.4585 17.4236 28.4658C17.4465 28.4732 17.4654 28.489 17.4763 28.5099C17.4872 28.5308 17.489 28.555 17.4815 28.5773C17.3209 29.0502 17.4919 31.1591 18.0699 32.4887C18.0757 32.5021 18.078 32.5167 18.0766 32.5312C18.0753 32.5457 18.0702 32.5597 18.0619 32.5718C18.0536 32.5839 18.0424 32.5939 18.0291 32.6008C18.0159 32.6077 18.0012 32.6113 17.9862 32.6113Z" fill="#EA971D"/>
<path d="M17.9688 40.5098C17.6454 41.0911 17.1557 42.6795 16.7574 44.0392C16.4265 45.1691 16.2491 45.9708 15.6268 47.3529C14.9502 48.8556 13.9511 50.2942 13.3252 51.4511C12.6993 52.6079 12.1744 53.8039 11.9119 54.6471C11.6494 55.4902 11.6696 56.0393 11.3465 56.6667C11.0234 57.2941 10.5793 58.0588 9.18625 59.1176C7.79316 60.1765 7.63168 60.8432 7.61145 61.1176C7.59122 61.3921 7.55343 61.7647 7.29092 62.1176C7.02841 62.4706 5.37038 63.5685 4.76469 64.7842C4.159 66 4.38105 68.2548 4.38105 68.2548L6.62211 69.9412C6.62211 69.9412 6.95149 69.724 7.34894 69.5392C7.78177 69.3379 8.51188 69.1338 8.92375 68.6862C9.51939 68.0392 10.7206 65.6177 11.5282 64.6078C12.8261 62.9847 13.1233 60.5884 15.3038 58.5491C17.4843 56.5098 18.4534 54.1961 19.7859 52.4314C21.1184 50.6667 21.9866 48.2647 22.774 46.8235C23.5614 45.3824 24.8334 41.2059 24.8334 41.2059L17.9688 40.5098Z" fill="#71B7FB"/>
<path d="M3.93871 74.2178L3.93908 74.2192C3.92563 74.0836 3.92357 73.9686 3.93678 73.8826C4.07051 73.0136 5.33617 70.8459 6.80001 69.8312C6.79492 69.4636 6.30661 68.8311 5.69208 68.3938C4.9495 67.8655 4.35265 67.8164 4.35265 67.8164C4.12006 68.2436 2.4074 71.4856 1.93799 71.765C2.42266 71.8384 3.45598 72.4795 3.93871 74.2178Z" fill="url(#paint13_linear_105_134)"/>
<path d="M0.13622 72.9999C-0.0922479 73.6759 0.469351 74.9264 1.74131 76.9705C3.01326 79.0146 4.45179 80.0979 4.83034 79.9705C5.35112 79.7952 5.27965 79.1564 5.19885 78.7349C5.12907 78.3709 4.05893 75.4288 3.93925 74.2189L3.93889 74.2175C3.45603 72.4792 2.42271 71.8382 1.93816 71.7646C1.46875 72.0441 0.295275 72.5294 0.13622 72.9999Z" fill="#66666C"/>
<path d="M3.88627 77.9117C3.37143 77.3039 2.97773 76.7058 2.41238 75.1861C1.84703 73.6665 1.27925 73.1322 0.749267 72.9998C0.429097 72.9198 0.205718 73.0641 0.0874862 73.2934C0.0662869 74.0149 0.634549 75.1919 1.74115 76.9704C3.01311 79.0145 4.45163 80.0978 4.83019 79.9704C4.88269 79.9526 4.93245 79.9279 4.9781 79.8971C5.31971 79.5985 4.39857 78.5164 3.88627 77.9117Z" fill="#66666C"/>
<path d="M27.5795 41.1374C27.9026 42.0198 30.7148 52.818 29.8811 54.7845C29.2098 56.3678 24.9231 58.1494 23.9453 58.4903C23.0281 58.81 22.0475 58.9022 21.462 59.3531C20.8765 59.804 20.2506 60.4707 19.0998 60.5884C17.949 60.706 16.7578 60.4314 16.2127 59.7844C15.6676 59.1373 14.3378 56.7646 15.9907 55.5687C17.0203 54.8237 18.2828 55.0771 18.9182 54.9609C19.7082 54.8163 21.8908 53.6091 23.1783 53.1374C24.2356 52.7502 24.9548 52.706 24.9548 52.706C24.9548 52.706 24.329 51.0785 23.4002 49.3923C22.4715 47.706 19.7055 43.3923 20.6746 40.255C24.8639 39.3825 27.5795 41.1374 27.5795 41.1374Z" fill="#71B7FB"/>
<path d="M17.2774 58.2941C17.0502 57.3382 16.1877 56.9177 16.007 56.9361C15.7193 56.9655 14.1429 58.0686 13.5069 58.2059C13.4489 58.2184 13.3774 58.2242 13.2954 58.2261C13.6237 58.5108 13.8387 58.9611 13.6483 59.8825C13.5033 60.5844 13.4149 61.1006 13.3854 61.4422C13.6466 60.9633 13.9328 60.599 14.1883 60.4853C14.9033 60.1674 16.8382 60.1324 16.9745 60.0735C17.1108 60.0147 17.5045 59.25 17.2774 58.2941Z" fill="url(#paint14_linear_105_134)"/>
<path d="M13.2955 58.2262C12.725 58.2392 11.6428 58.0586 10.9631 58.603C9.95948 59.4069 10.1606 65.7207 10.1757 66.1766C10.1909 66.6324 10.3852 67.241 11.0085 67.1913C12.0534 67.108 12.3865 64.8824 12.6136 63.6177C12.7426 62.8996 13.0423 62.0719 13.3855 61.4423C13.415 61.1008 13.5034 60.5844 13.6484 59.8826C13.8388 58.9611 13.6239 58.5109 13.2955 58.2262Z" fill="#66666C"/>
<path d="M11.3265 63.8235C11.4066 62.6548 11.9398 60.1323 11.8035 59.3382C11.6993 58.7314 11.2034 58.6864 10.8186 58.7684C9.97963 60.0374 10.1613 65.7439 10.1756 66.1765C10.1882 66.555 10.3252 67.0374 10.7279 67.1623C11.3756 66.8994 11.2561 64.8503 11.3265 63.8235Z" fill="#66666C"/>
<path d="M24.7962 52.6408C24.9269 52.6192 25.0584 52.6026 25.1904 52.591C25.3231 52.5793 25.4562 52.5734 25.5895 52.5732C25.8562 52.5741 26.1267 52.5964 26.3918 52.6737C26.4032 52.6771 26.4138 52.6826 26.4231 52.6899C26.4323 52.6972 26.44 52.7063 26.4457 52.7165C26.4513 52.7267 26.4548 52.7379 26.456 52.7495C26.4572 52.761 26.4561 52.7727 26.4526 52.7838C26.4492 52.7949 26.4435 52.8052 26.436 52.8142C26.4284 52.8232 26.4191 52.8306 26.4086 52.8361C26.3981 52.8416 26.3865 52.845 26.3746 52.8462C26.3628 52.8474 26.3507 52.8462 26.3393 52.8429L26.3353 52.8416L26.3342 52.8412C26.0996 52.7601 25.8428 52.7251 25.5861 52.7124C25.457 52.7064 25.3277 52.7061 25.1985 52.7114C25.0688 52.7166 24.9393 52.7267 24.8104 52.7418C24.7969 52.7432 24.7834 52.7394 24.7727 52.7314C24.762 52.7233 24.755 52.7115 24.753 52.6985C24.751 52.6854 24.7543 52.6722 24.7622 52.6615C24.77 52.6507 24.7818 52.6434 24.7952 52.6409L24.7962 52.6408Z" fill="#51A7FA"/>
<path d="M30.7617 18.7041C31.1025 19.4632 31.8142 19.8969 31.8899 20.1469C31.9656 20.3969 31.4508 20.7867 31.163 20.8749C30.8753 20.9632 30.7617 18.7041 30.7617 18.7041Z" fill="url(#paint15_linear_105_134)"/>
<path d="M29.6485 16.8237C30.9962 18.0149 31.9415 22.2529 30.8448 23.7502C29.7181 25.2884 28.1888 24.5943 28.1888 24.5943C28.1888 24.5943 25.4203 22.1757 25.7721 20.3237C26.3475 17.2943 29.6485 16.8237 29.6485 16.8237Z" fill="url(#paint16_linear_105_134)"/>
<path d="M27.4783 22.8629C28.0032 23.0785 28.9773 23.2357 29.1566 24.7453C29.3359 26.255 29.1541 27.0002 29.1541 27.0002C29.1541 27.0002 27.6601 27.9217 26.2671 27.6864C24.874 27.4511 24.8335 27.0786 24.8335 27.0786C24.8335 27.0786 25.8026 24.8237 25.7824 23.4708C25.7621 22.1178 27.4783 22.8629 27.4783 22.8629Z" fill="url(#paint17_linear_105_134)"/>
<path d="M30.5565 19.4927C30.5893 19.6361 30.5566 19.7542 30.4351 19.7895C30.3767 19.8065 30.3137 19.8002 30.26 19.7721C30.2063 19.744 30.1663 19.6963 30.1488 19.6396L29.9613 18.9709C29.9438 18.9142 29.9503 18.853 29.9792 18.8009C30.0082 18.7488 30.0573 18.7099 30.1157 18.693C30.1741 18.676 30.2371 18.6822 30.2908 18.7104C30.3444 18.7385 30.3844 18.7862 30.4019 18.8429L30.5565 19.4927Z" fill="#5C60D5"/>
<path d="M30.9244 22.6303C30.7293 22.6303 30.5982 22.5653 30.5247 22.5133C30.3845 22.4143 30.2984 22.2575 30.305 22.1138C30.3053 22.102 30.308 22.0904 30.3129 22.0796C30.3178 22.0689 30.3249 22.0592 30.3338 22.0512C30.3426 22.0431 30.3531 22.0369 30.3644 22.0328C30.3758 22.0287 30.3879 22.0269 30.4 22.0274C30.4121 22.028 30.424 22.0308 30.4349 22.0359C30.4459 22.041 30.4557 22.0481 30.4637 22.0569C30.4718 22.0657 30.478 22.0759 30.4819 22.0871C30.4858 22.0982 30.4874 22.11 30.4865 22.1218C30.4832 22.1923 30.5267 22.2966 30.6314 22.3705C30.7789 22.4746 30.9995 22.4813 31.2521 22.3892C31.2747 22.3809 31.2997 22.3817 31.3216 22.3914C31.3436 22.4011 31.3606 22.4188 31.3691 22.4407C31.3776 22.4626 31.3768 22.4869 31.3668 22.5082C31.3569 22.5295 31.3386 22.5461 31.3161 22.5543C31.1644 22.6098 31.0343 22.6303 30.9244 22.6303Z" fill="#BE4118"/>
<path d="M27.2663 20.1274C27.4225 19.9205 27.8417 19.8333 28.084 20.1177C28.3263 20.402 28.3969 20.6079 28.5685 20.5392C28.7402 20.4705 29.2651 20.1765 29.1642 19.4804C29.0795 18.8966 29.0649 18.463 29.1945 18.0784C29.3722 17.551 30.4664 17.3161 31.1933 15.6103C31.9201 13.9044 31.8659 12.4737 31.5264 12.397C31.2008 12.3234 31.1251 12.8456 31.0191 12.7867C30.9131 12.7279 30.966 12.2426 30.436 12.2793C29.6885 12.3312 29.1535 13.496 28.5356 13.7573C28.0662 13.9559 27.1326 13.8067 26.3854 14.4926C25.6963 15.125 25.9386 15.5367 25.5449 15.9485C25.1512 16.3603 23.404 17.2853 23.501 19.1912C23.6019 21.1765 24.5259 21.7357 24.9647 22.4216C25.3341 22.9992 25.4519 23.5464 25.6487 23.6199C25.8456 23.6934 27.8107 23.6257 27.9527 22.7157C28.0209 22.279 27.8821 21.6813 27.4581 21.2254C27.0341 20.7696 27.0602 20.4006 27.2663 20.1274Z" fill="#060606"/>
<path d="M53.8849 22.1777C53.6209 22.3935 52.7859 22.7451 52.6498 22.6178C52.5521 22.5266 52.8163 22.2943 53.1192 21.8972C53.422 21.5002 53.7502 20.7992 53.4977 20.7502C53.303 20.7124 52.8315 21.1913 52.5892 21.3972C52.3469 21.6031 51.9483 21.7746 51.5646 22.1375C51.2074 22.4753 51.2213 22.6865 50.8176 22.9904C50.4368 23.277 46.2749 25.0002 42.2773 25.8237C41.0755 26.0712 39.7546 26.1867 38.4434 26.2331C38.8682 27.1306 39.1428 28.6106 38.717 29.9672C40.3844 29.589 42.257 29.093 44.054 28.4316C48.4756 26.8042 51.2819 24.608 51.9481 24.3336C52.6144 24.0591 53.2201 23.9904 54.1892 23.6277C54.8328 23.3869 55.9376 22.6773 56.3061 22.4355L53.8849 22.1777Z" fill="url(#paint18_linear_105_134)"/>
<path d="M38.4436 26.2328C35.3934 26.3407 32.3959 26.072 31.0722 26.2057C29.5357 26.3609 29.176 26.884 26.3478 26.8528C25.7598 26.8463 23.7955 26.6789 23.1095 26.7211C22.5622 26.7548 22.0979 27.0293 21.6436 27.843C20.8773 29.216 19.4833 34.3136 17.7268 36.745C16.4853 38.4636 15.5923 40.8995 15.7078 41.1764C15.7936 41.3823 16.5048 41.1254 17.1615 41.098C18.8069 41.0294 20.1697 41.4264 22.9358 41.7254C25.7003 42.0243 27.8621 41.9215 27.9428 41.4509C28.0235 40.9803 29.3561 38.5882 31.2943 35.4509C33.2326 32.3136 32.8691 31.4117 33.394 31.098C33.7223 30.9018 35.9334 30.5985 38.7174 29.967C39.143 28.6103 38.8684 27.1303 38.4436 26.2328Z" fill="#66666C"/>
<path d="M37.8535 30.2453C37.8378 30.2453 37.8223 30.2413 37.8086 30.2337C37.7949 30.2261 37.7835 30.2152 37.7754 30.202C37.7674 30.1888 37.7631 30.1739 37.7628 30.1586C37.7625 30.1433 37.7664 30.1282 37.7739 30.1147C38.4476 28.9176 37.8008 26.651 37.5039 26.3119C37.4959 26.3031 37.4897 26.2929 37.4858 26.2818C37.4819 26.2706 37.4803 26.2589 37.4812 26.2472C37.482 26.2354 37.4853 26.224 37.4907 26.2135C37.4962 26.203 37.5037 26.1937 37.5129 26.1861C37.5221 26.1785 37.5328 26.1727 37.5443 26.1692C37.5559 26.1656 37.568 26.1643 37.5801 26.1654C37.5921 26.1665 37.6038 26.1699 37.6145 26.1754C37.6252 26.1809 37.6346 26.1884 37.6423 26.1976C38.0214 26.6307 38.6246 28.9706 37.9332 30.1994C37.9254 30.2133 37.9139 30.2249 37.8999 30.233C37.8858 30.2411 37.8698 30.2453 37.8535 30.2453Z" fill="#EA971D"/>
<path d="M19.7782 32.6178C19.1761 34.1476 18.4854 35.6949 17.7268 36.745C16.4853 38.4636 15.5923 40.8995 15.7078 41.1765C15.7936 41.3823 16.4442 41.5372 17.1009 41.5098C18.7463 41.4412 20.1091 41.8382 22.8752 42.1372C25.6397 42.4361 27.8016 42.3333 27.8822 41.8627C27.9629 41.3921 29.3561 38.5882 31.2944 35.4509C31.8786 34.5053 32.2528 33.764 32.5061 33.1794C30.0175 33.1223 26.1695 31.9875 24.1068 31.9019C22.1411 31.8202 20.5399 32.2949 19.7782 32.6178Z" fill="#66666C"/>
<path d="M38.7171 30.0554C38.7029 30.0554 38.6889 30.0522 38.6762 30.046C38.6635 30.0398 38.6525 30.0308 38.644 30.0197C38.6356 30.0086 38.6299 29.9957 38.6275 29.9821C38.6251 29.9685 38.626 29.9546 38.6302 29.9414C39.0623 28.5646 38.7552 27.103 38.3607 26.2699C38.352 26.2488 38.3519 26.2253 38.3606 26.2042C38.3692 26.1831 38.3858 26.166 38.4071 26.1565C38.4283 26.147 38.4525 26.1459 38.4746 26.1532C38.4967 26.1606 38.5151 26.1759 38.5259 26.1961C38.9335 27.0575 39.2509 28.5687 38.8039 29.9928C38.7982 30.0109 38.7868 30.0267 38.7712 30.038C38.7555 30.0493 38.7366 30.0554 38.7171 30.0554ZM32.5059 33.2677H32.5037C31.1581 33.2368 29.4435 32.898 27.7853 32.5702C26.3784 32.2922 25.0495 32.0295 24.1026 31.9902C21.8929 31.8977 20.2614 32.5094 19.8143 32.6988C19.7923 32.7077 19.7675 32.7079 19.7454 32.6992C19.7233 32.6906 19.7056 32.6738 19.696 32.6526C19.6865 32.6314 19.686 32.6073 19.6945 32.5857C19.7031 32.5641 19.72 32.5466 19.7417 32.537C20.1978 32.3437 21.8598 31.7204 24.1105 31.8139C25.0717 31.8537 26.4075 32.1177 27.8217 32.3973C29.4721 32.7235 31.1785 33.0608 32.508 33.0913C32.52 33.0914 32.5318 33.0938 32.5427 33.0984C32.5537 33.103 32.5636 33.1096 32.572 33.1179C32.5803 33.1261 32.5869 33.136 32.5913 33.1467C32.5957 33.1575 32.598 33.169 32.5978 33.1806C32.5977 33.1921 32.5952 33.2036 32.5905 33.2142C32.5858 33.2249 32.579 33.2345 32.5704 33.2426C32.5619 33.2507 32.5518 33.2571 32.5407 33.2614C32.5296 33.2657 32.5178 33.2679 32.5059 33.2677Z" fill="#6A74EF"/>
<path d="M32.7104 32.7659L32.703 32.7657C31.6041 32.6798 29.8648 32.3447 28.1827 32.0206C26.6921 31.7334 25.2843 31.4621 24.5032 31.4018C22.4541 31.2439 20.7355 31.8669 20.1708 32.0718C20.1118 32.0932 20.0652 32.11 20.0323 32.121C20.0097 32.1279 19.9851 32.126 19.964 32.1156C19.9428 32.1052 19.9266 32.0872 19.9189 32.0654C19.9113 32.0435 19.9127 32.0197 19.9229 31.9989C19.9331 31.9781 19.9513 31.962 19.9735 31.954C20.0054 31.9434 20.0502 31.9271 20.1073 31.9065C20.6814 31.6981 22.4278 31.0639 24.5177 31.2259C25.3095 31.2872 26.7224 31.5593 28.2182 31.8475C29.8952 32.1706 31.6291 32.5046 32.7177 32.5898C32.7409 32.5918 32.7625 32.6024 32.7779 32.6194C32.7933 32.6364 32.8013 32.6586 32.8004 32.6812C32.7995 32.7038 32.7896 32.7252 32.7729 32.741C32.7561 32.7568 32.7338 32.7657 32.7104 32.7659Z" fill="#EA971D"/>
</g>
<defs>
<linearGradient id="paint0_linear_105_134" x1="71.2743" y1="50.9394" x2="77.7833" y2="50.9394" gradientUnits="userSpaceOnUse">
<stop stop-color="#EAAEA4"/>
<stop offset="0.313" stop-color="#E8A89D"/>
<stop offset="0.782" stop-color="#E39688"/>
<stop offset="1" stop-color="#E08C7C"/>
</linearGradient>
<linearGradient id="paint1_linear_105_134" x1="73.3333" y1="49.333" x2="60" y2="45.6663" gradientUnits="userSpaceOnUse">
<stop stop-color="#71B7FB"/>
<stop offset="0.5" stop-color="#1971C7"/>
<stop offset="1" stop-color="#71B7FB"/>
</linearGradient>
<linearGradient id="paint2_linear_105_134" x1="71.9508" y1="62.6551" x2="76.7371" y2="62.6551" gradientUnits="userSpaceOnUse">
<stop stop-color="#EAAEA4"/>
<stop offset="0.313" stop-color="#E8A89D"/>
<stop offset="0.782" stop-color="#E39688"/>
<stop offset="1" stop-color="#E08C7C"/>
</linearGradient>
<linearGradient id="paint3_linear_105_134" x1="59.9481" y1="9.56314" x2="61.3363" y2="9.56314" gradientUnits="userSpaceOnUse">
<stop stop-color="#EAAEA4"/>
<stop offset="0.313" stop-color="#E8A89D"/>
<stop offset="0.782" stop-color="#E39688"/>
<stop offset="1" stop-color="#E08C7C"/>
</linearGradient>
<linearGradient id="paint4_linear_105_134" x1="63.0923" y1="12.4598" x2="68.6592" y2="12.4598" gradientUnits="userSpaceOnUse">
<stop stop-color="#EAAEA4"/>
<stop offset="0.313" stop-color="#E8A89D"/>
<stop offset="0.782" stop-color="#E39688"/>
<stop offset="1" stop-color="#E08C7C"/>
</linearGradient>
<linearGradient id="paint5_linear_105_134" x1="60.0973" y1="8.93264" x2="67.4858" y2="8.93264" gradientUnits="userSpaceOnUse">
<stop stop-color="#FCC3BB"/>
<stop offset="0.459" stop-color="#F6BCB4"/>
<stop offset="1" stop-color="#EAAEA4"/>
</linearGradient>
<linearGradient id="paint6_linear_105_134" x1="62.4131" y1="9.61149" x2="63.245" y2="9.46046" gradientUnits="userSpaceOnUse">
<stop stop-color="#E25AB8"/>
<stop offset="1" stop-color="#F6BCB4"/>
</linearGradient>
<linearGradient id="paint7_linear_105_134" x1="29.77" y1="32.2479" x2="65.6463" y2="32.2479" gradientUnits="userSpaceOnUse">
<stop stop-color="#B5A8AE"/>
<stop offset="1" stop-color="#E3DDE4"/>
</linearGradient>
<linearGradient id="paint8_linear_105_134" x1="37.6306" y1="66.255" x2="37.6306" y2="43.8022" gradientUnits="userSpaceOnUse">
<stop stop-color="#B5A8AE"/>
<stop offset="1" stop-color="#E3DDE4"/>
</linearGradient>
<linearGradient id="paint9_linear_105_134" x1="68.527" y1="28.6495" x2="78.4378" y2="28.6495" gradientUnits="userSpaceOnUse">
<stop stop-color="#EAAEA4"/>
<stop offset="0.313" stop-color="#E8A89D"/>
<stop offset="0.782" stop-color="#E39688"/>
<stop offset="1" stop-color="#E08C7C"/>
</linearGradient>
<linearGradient id="paint10_linear_105_134" x1="71.0013" y1="16.1252" x2="71.0705" y2="16.1252" gradientUnits="userSpaceOnUse">
<stop stop-color="#F2D265"/>
<stop offset="1" stop-color="#DCBB60"/>
</linearGradient>
<linearGradient id="paint11_linear_105_134" x1="52.6748" y1="16.2447" x2="57.8847" y2="16.2447" gradientUnits="userSpaceOnUse">
<stop stop-color="#EAAEA4"/>
<stop offset="0.313" stop-color="#E8A89D"/>
<stop offset="0.782" stop-color="#E39688"/>
<stop offset="1" stop-color="#E08C7C"/>
</linearGradient>
<linearGradient id="paint12_linear_105_134" x1="10.6319" y1="33.8978" x2="16.0931" y2="39.5211" gradientUnits="userSpaceOnUse">
<stop stop-color="#EAAEA4"/>
<stop offset="0.313" stop-color="#E8A89D"/>
<stop offset="0.782" stop-color="#E39688"/>
<stop offset="1" stop-color="#E08C7C"/>
</linearGradient>
<linearGradient id="paint13_linear_105_134" x1="1.93811" y1="71.0177" x2="6.80013" y2="71.0177" gradientUnits="userSpaceOnUse">
<stop stop-color="#EAAEA4"/>
<stop offset="0.313" stop-color="#E8A89D"/>
<stop offset="0.782" stop-color="#E39688"/>
<stop offset="1" stop-color="#E08C7C"/>
</linearGradient>
<linearGradient id="paint14_linear_105_134" x1="13.2954" y1="59.189" x2="17.3465" y2="59.189" gradientUnits="userSpaceOnUse">
<stop stop-color="#EAAEA4"/>
<stop offset="0.313" stop-color="#E8A89D"/>
<stop offset="0.782" stop-color="#E39688"/>
<stop offset="1" stop-color="#E08C7C"/>
</linearGradient>
<linearGradient id="paint15_linear_105_134" x1="30.7617" y1="19.7908" x2="31.8974" y2="19.7908" gradientUnits="userSpaceOnUse">
<stop stop-color="#E08C7C"/>
<stop offset="1" stop-color="#E25AB8"/>
</linearGradient>
<linearGradient id="paint16_linear_105_134" x1="25.7412" y1="20.7871" x2="31.3249" y2="20.7871" gradientUnits="userSpaceOnUse">
<stop stop-color="#EAAEA4"/>
<stop offset="0.313" stop-color="#E8A89D"/>
<stop offset="0.782" stop-color="#E39688"/>
<stop offset="1" stop-color="#E08C7C"/>
</linearGradient>
<linearGradient id="paint17_linear_105_134" x1="25.0486" y1="23.9326" x2="28.9169" y2="27.2749" gradientUnits="userSpaceOnUse">
<stop stop-color="#EAAEA4"/>
<stop offset="0.313" stop-color="#E8A89D"/>
<stop offset="0.782" stop-color="#E39688"/>
<stop offset="1" stop-color="#E08C7C"/>
</linearGradient>
<linearGradient id="paint18_linear_105_134" x1="42.9939" y1="21.8139" x2="49.7661" y2="28.787" gradientUnits="userSpaceOnUse">
<stop stop-color="#EAAEA4"/>
<stop offset="0.313" stop-color="#E8A89D"/>
<stop offset="0.782" stop-color="#E39688"/>
<stop offset="1" stop-color="#E08C7C"/>
</linearGradient>
<clipPath id="clip0_105_134">
<rect width="80" height="80" fill="white"/>
</clipPath>
</defs>
</svg>
