<svg width="142" height="60" viewBox="0 0 142 60" fill="none" xmlns="http://www.w3.org/2000/svg">
<g clip-path="url(#clip0_103_2786)">
<path d="M20.0842 29.9439C20.0842 24.5183 24.5513 20.1305 30.1367 20.1305C35.7611 20.1305 40.2294 24.5207 40.2294 29.9439C40.2294 35.3293 35.7611 39.7976 30.1367 39.7976C24.5513 39.7976 20.0842 35.3244 20.0842 29.9439ZM35.4025 29.9439C35.4025 27.2317 33.0489 24.8378 30.1367 24.8378C27.2647 24.8378 24.9111 27.2317 24.9111 29.9439C24.9111 32.6963 27.2647 35.0902 30.1367 35.0902C33.0538 35.0902 35.4025 32.6963 35.4025 29.9439ZM121.455 30.1037C121.455 24.1598 126.282 20.1305 130.671 20.1305C133.662 20.1305 135.378 21.0476 136.534 22.8037L136.994 20.4866H141.481V39.4378H136.994L136.415 37.4866C135.099 38.9232 133.462 39.8037 130.671 39.8037C126.362 39.7976 121.455 36.0073 121.455 30.1037ZM136.773 30.0634C136.762 27.1943 134.399 24.8396 131.529 24.8396C128.653 24.8396 126.285 27.2068 126.285 30.0835V30.1037C126.285 32.7366 128.639 35.0902 131.512 35.0902C134.421 35.0902 136.773 32.7366 136.773 30.0634ZM115.942 22.6829V20.4878H111.035V39.4378H115.942V29.2268C115.942 26.1549 117.459 24.5598 120.088 24.5598C120.262 24.5598 120.428 24.572 120.59 24.5878L121.5 20.0134C118.943 20.0268 117.089 20.9037 115.942 22.6829ZM66.6403 22.6841V20.489L61.7342 20.5L61.7757 39.4476L66.6818 39.4366L66.655 29.2268C66.6477 26.1561 68.1611 24.5573 70.7928 24.5512C70.9606 24.5517 71.1284 24.5611 71.2952 24.5793L72.2001 20C69.6391 20.0207 67.783 20.9012 66.6403 22.6841ZM41.9294 32.0976V20.489H46.8342V31.5C46.8342 33.9329 48.1903 35.3695 50.544 35.3695C53.1769 35.3695 54.6903 33.7732 54.6903 30.7012V20.489H59.5977V39.4378H54.694V37.2427C53.5379 39.0378 51.6623 39.9159 49.0696 39.9159C44.6818 39.9171 41.9294 36.7256 41.9294 32.0976ZM89.7025 29.9659C89.7135 24.6598 93.5111 20.1195 99.5342 20.1305C105.12 20.1415 109.06 24.6159 109.046 29.8866C109.048 30.4077 109.006 30.928 108.924 31.4427L94.4842 31.4159C95.0379 33.6902 96.9099 35.3293 99.7428 35.3354C101.457 35.3354 103.294 34.7037 104.414 33.2695L107.76 35.9524C106.039 38.3829 103.004 39.8134 99.7745 39.8073C94.0733 39.7878 89.6928 35.511 89.7025 29.9659ZM104.107 27.9976C103.832 26.0829 101.84 24.6024 99.4867 24.5988C97.2123 24.5988 95.3757 25.9476 94.6538 27.9805L104.107 27.9976ZM72.2294 35.3073L76.5903 33.0244C77.3111 34.5866 78.7525 35.5073 80.7952 35.5073C82.6769 35.5073 83.3977 34.9073 83.3977 34.0659C83.3977 31.0171 73.0672 32.8646 73.0672 25.8951C73.0672 22.0512 76.4306 20.0098 80.594 20.0098C83.7574 20.0098 86.5599 21.411 88.0818 24.0134L83.7599 26.3C83.1196 25.0183 81.9184 24.2976 80.3964 24.2976C78.9159 24.2976 78.194 24.8183 78.194 25.6988C78.194 28.6622 88.5245 26.7805 88.5245 33.8695C88.5245 37.5537 85.522 39.7951 80.6769 39.7951C76.5525 39.7915 73.6696 38.4305 72.2294 35.3073ZM0.602539 29.9439C0.602539 24.4793 5.06961 20.0902 10.655 20.0902C14.0631 20.0663 17.2625 21.7655 19.1513 24.6024L14.9635 27.0317C14.4787 26.3395 13.8337 25.7748 13.0835 25.3858C12.3332 24.9968 11.5001 24.795 10.655 24.7976C7.78303 24.7976 5.42937 27.1915 5.42937 29.9439C5.42937 32.6963 7.78303 35.0902 10.655 35.0902C11.5399 35.0955 12.4114 34.8741 13.1865 34.4472C13.9616 34.0202 14.6145 33.402 15.083 32.6512L19.2294 35.1244C17.3627 38.0457 14.1194 39.8111 10.6525 39.7927C5.06961 39.7976 0.602539 35.3244 0.602539 29.9439Z" fill="#CBCBCB"/>
</g>
<defs>
<clipPath id="clip0_103_2786">
<rect width="140.854" height="20" fill="white" transform="translate(0.602539 20)"/>
</clipPath>
</defs>
</svg>
