<svg width="40" height="40" viewBox="0 0 40 40" fill="none" xmlns="http://www.w3.org/2000/svg">
<path fill-rule="evenodd" clip-rule="evenodd" d="M11.4041 9.7253C11.2662 8.53007 12.3419 9.03671 12.2044 9.75733C12.0026 9.94936 11.6297 9.79186 11.4041 9.7253ZM12.6846 9.50116C12.9555 9.47351 13.2138 9.43288 13.293 9.21311C12.9182 8.9821 12.3582 9.5521 12.5886 9.82147C12.7165 9.81061 12.6033 9.55882 12.6846 9.50116ZM9.09905 10.2375C9.32468 10.1326 9.69538 10.1722 9.80342 9.94944C9.13186 9.71554 7.92249 9.88819 7.72233 10.3336C8.23428 10.3019 8.66241 9.89569 9.09905 10.2375ZM7.59428 10.3657C7.44882 10.3351 7.39272 10.5004 7.46632 10.5897C7.57999 10.5859 7.59514 10.4837 7.59428 10.3657ZM7.2421 11.006C7.22163 10.7006 6.48288 10.4568 6.40983 10.878C6.47374 11.1171 7.0696 11.2709 7.2421 11.006ZM5.99366 10.718C5.84108 10.7251 5.76264 10.8072 5.67342 10.878C5.78952 10.9456 6.04671 10.9214 5.99366 10.718ZM5.6096 11.5822C6.1735 11.5426 6.34514 12.0611 6.82592 11.9983C6.91553 11.4402 5.7685 10.6725 5.6096 11.5822ZM13.2288 14.3673C13.0607 13.8093 13.5755 13.3304 13.2608 12.8945C12.825 12.9293 12.4481 14.9519 13.0687 14.9437C13.5144 14.9376 13.6715 13.7142 13.7089 13.3111C13.3826 13.4966 13.5248 14.1511 13.2288 14.3673ZM7.88249 14.1434C7.89218 14.0588 7.83811 14.0382 7.75444 14.0471C7.75655 14.1335 7.82757 14.2011 7.88249 14.1434ZM9.45124 15.0718C9.45741 14.8734 9.4496 14.6892 9.29124 14.6556C9.17069 14.6419 9.17788 14.7557 9.09905 14.7838C9.14303 14.953 9.23241 15.0773 9.45124 15.0718ZM7.91452 16.0963C8.52835 16.1654 8.93936 16.6082 9.51522 16.6083C9.056 16.2992 8.57889 16.0081 7.85046 15.9682C7.82725 16.0555 7.91405 16.0326 7.91452 16.0963ZM12.7487 16.5765C12.7009 16.3573 12.6058 16.1855 12.4926 16.0321C12.5343 16.2571 12.5917 16.4664 12.7487 16.5765ZM9.22702 17.2807C8.82522 16.743 8.18507 16.2745 7.46632 16.1601C7.5678 17.019 8.52249 17.0251 9.22702 17.2807ZM8.13866 17.4726C7.86428 17.0108 7.39389 16.7448 6.82592 16.5765C7.14514 16.9732 7.43757 17.5644 8.13866 17.4726ZM6.66592 17.0247C6.77522 17.2144 7.04999 17.4084 6.98616 17.6649C6.70546 17.5829 6.56897 17.3564 6.28178 17.2808C6.43428 17.4926 7.01631 18.4315 7.37014 18.4015C7.596 18.3819 7.69811 18.1326 7.65827 17.7291C7.48522 17.3576 6.93436 17.1937 6.66592 17.0247ZM8.29866 17.857C8.36983 18.0527 8.39483 18.2944 8.65092 18.3051C8.60733 18.082 8.47702 17.9454 8.29866 17.857ZM8.07452 17.9532C7.95514 17.9401 7.88678 17.9785 7.88257 18.081C7.91843 18.088 7.93241 18.1165 7.94647 18.145C8.04881 18.141 8.08757 18.0726 8.07452 17.9532ZM13.549 18.6894C13.5823 18.5084 13.6162 18.1598 13.549 17.985C13.5079 18.1648 13.3533 18.5694 13.549 18.6894ZM11.308 18.017C11.3325 18.2062 11.241 18.511 11.4041 18.5616C11.4112 18.4215 11.4438 18.106 11.308 18.017ZM12.8126 18.7534C12.7198 18.6711 12.5865 18.7955 12.5245 18.7216C12.4591 18.5096 12.4862 18.2051 12.3005 18.1132C12.2793 18.1132 12.2578 18.1132 12.2366 18.1132C11.9729 18.6593 11.9989 19.8325 12.4605 20.1299C12.5477 20.2776 12.5562 20.5039 12.7807 20.5143C12.9652 20.3678 13.0105 20.0827 13.0369 19.7777C12.6362 19.6936 13.0094 19.0029 12.8126 18.7534ZM13.7732 19.1054C13.8126 18.8219 14.055 18.4097 13.8692 18.1132C13.8079 18.3937 13.6918 18.7891 13.7732 19.1054ZM8.13866 19.3619C8.18968 19.2155 8.1496 18.9673 8.04257 18.8816C7.96788 19.0217 7.92444 19.3445 8.13866 19.3619ZM8.71483 19.4898C8.84413 19.5739 8.85405 19.7773 9.03507 19.8099C9.2603 19.5224 8.83303 19.0157 8.71483 19.4898ZM14.1893 20.1299C14.1895 20.228 14.0609 20.3623 14.1573 20.45C14.1758 20.3707 14.2733 20.2057 14.1893 20.1299ZM14.4773 21.3785C14.476 21.2307 14.4954 21.0621 14.4134 20.9945C14.3991 21.1085 14.3146 21.3609 14.4773 21.3785ZM10.4116 22.6913C10.4306 22.8105 10.4501 22.9301 10.5716 22.9473C10.6501 22.8375 10.5922 22.643 10.4116 22.6913ZM11.8523 22.8515C11.8968 22.936 12.0248 23.1039 12.1083 23.0432C12.0342 22.9886 11.9487 22.7775 11.8523 22.8515ZM14.8935 23.2037C14.8036 23.5848 15.0165 23.9321 15.1817 24.1641C15.2494 23.7924 15.243 23.2602 14.8935 23.2037ZM15.6941 25.6683C15.7424 25.5715 15.7595 25.2732 15.662 25.2206C15.5777 25.3362 15.5026 25.613 15.6941 25.6683ZM17.1344 27.2053C17.088 26.9701 16.9037 26.716 16.7183 26.7248C16.7832 26.9587 16.7944 27.2466 17.1344 27.2053ZM17.4228 27.6534C17.4241 27.8015 17.4049 27.9705 17.4867 28.0373C17.4908 27.8843 17.4887 27.7368 17.4228 27.6534ZM6.85796 27.6855C6.85842 27.8027 6.92116 27.857 6.98616 27.9096C6.97335 27.8047 6.95835 27.7027 6.85796 27.6855ZM18.5753 29.446C18.4965 28.8423 18.179 28.4769 17.775 28.1978C17.8328 28.8226 18.139 29.1998 18.5753 29.446ZM23.7297 32.6156C23.7102 32.5975 23.5776 32.5409 23.5695 32.6156C23.6176 32.6526 23.7044 32.728 23.7297 32.6156ZM39.961 34.9847C39.961 35.1023 39.961 35.2193 39.961 35.3369C39.909 35.4451 39.8921 35.588 39.8648 35.7209C38.9746 36.2926 37.3021 36.0822 36.5673 36.8096C35.2784 36.1153 34.0806 37.2089 32.7258 37.322C32.502 37.3405 32.2531 37.3032 32.0211 37.322C31.2206 37.3866 30.4389 37.5738 29.6202 37.642C28.7808 37.7119 27.9396 37.7632 27.0592 37.8022C26.7388 37.8022 26.4189 37.8022 26.0988 37.8022C22.1281 37.5937 18.2022 37.0595 15.2779 35.7531C13.82 35.1017 12.478 34.3026 11.2441 33.3519C10.0433 32.4273 8.81077 31.3994 7.94647 30.2467C7.02632 29.0193 6.10569 27.8257 5.28928 26.4692C4.50171 25.1599 3.76553 23.7808 3.11241 22.2431C2.46811 20.7269 2.00905 19.2265 1.57553 17.3769C1.29217 16.1673 0.993112 14.7976 0.487096 13.6633C0.290065 13.2216 0.0606897 12.8601 0.0389709 12.4466C0.0389709 12.3508 0.0389709 12.2544 0.0389709 12.1586C0.196862 10.8139 1.24264 10.0333 2.47202 9.66132C2.77983 9.56827 3.07913 9.47936 3.36842 9.30913C3.38725 9.29827 3.57171 9.27944 3.49663 9.18116C2.94889 9.04936 2.49827 9.85577 1.89592 9.62936C1.36116 9.42827 1.66905 8.6003 2.24811 8.34882C2.51842 8.2314 3.05514 8.20085 3.30444 8.06069C3.73428 7.81913 3.92936 7.30874 3.84881 6.84413C3.80108 6.5696 3.51616 6.42507 3.52866 6.20382C3.54616 5.8953 4.0978 5.62702 4.36092 5.43546C4.68288 5.20116 5.06397 4.9085 5.03327 4.53905C5.00092 4.15311 4.54702 4.03015 4.32889 3.73874C3.98647 3.2814 3.93217 2.5978 4.48889 2.32991C5.07257 2.04905 6.15999 2.2021 6.28178 2.93827C6.38913 3.5871 5.9285 3.83429 6.12155 4.31483C6.48124 5.20905 9.2785 3.79358 8.58686 5.65952C9.20202 6.62382 11.606 5.7989 11.6602 7.32429C12.6629 7.34444 13.1237 8.1053 13.9332 8.4128C14.1501 8.49515 14.4085 8.49515 14.6376 8.5728C16.0029 9.03686 17.6948 9.53468 18.2551 10.8458C17.7487 11.187 17.0576 10.9586 16.4625 10.7498C15.9448 10.568 15.1901 10.208 14.6696 10.4296C14.1536 10.6494 14.1812 11.531 14.2534 12.4144C14.4456 14.7661 14.5583 17.1918 14.8936 19.2975C15.3618 22.2368 16.3626 24.5909 17.7751 26.4369C19.1415 28.2227 20.7467 30.0928 22.8331 31.3992C24.5937 32.5012 26.5716 33.3706 29.0761 33.9281C29.4475 34.011 29.8965 34.1919 30.1005 34.1523C30.4029 34.0941 31.0537 33.2147 31.2853 32.9999C31.836 32.4879 32.577 31.7715 33.3658 32.3914C33.2587 33.2449 32.4939 33.4409 32.3094 34.2166C32.7837 34.5184 33.2866 34.2451 33.8783 34.2802C34.5667 34.3212 35.0946 34.7159 35.6713 34.6324C36.0394 34.5791 36.2236 34.305 36.5036 34.1204C37.1397 35.0503 39.5922 33.8398 39.961 34.9847ZM33.0136 32.6156C33 32.5123 33.0559 32.3388 32.9497 32.3278C32.8573 32.3746 32.7661 32.6689 33.0136 32.6156ZM16.9107 10.0775C17.2243 10.2653 17.5004 10.4909 17.775 10.718C17.9403 10.2312 17.4658 9.91983 16.9107 9.94952C16.9107 9.99202 16.9107 10.0348 16.9107 10.0775ZM25.5225 33.6721C25.6446 33.6978 25.733 33.7222 25.7466 33.5762C25.6326 33.5688 25.555 33.5974 25.5225 33.6721ZM21.1044 30.8547C21.0936 31.0055 21.3977 31.0084 21.4569 30.9827C21.4068 30.8826 21.2551 30.7527 21.1044 30.8547ZM20.336 30.2466C20.3893 30.3005 20.5241 30.2719 20.6241 30.2787C20.6348 30.1614 20.5884 30.1007 20.5601 30.0223C20.3919 30.0039 20.3454 30.1065 20.336 30.2466ZM14.1893 17.1525C14.1024 17.0789 14.0394 17.2137 13.9972 17.1525C14.1015 16.3583 14.2691 15.1355 13.9332 14.4636C13.8501 14.3911 13.7187 14.4891 13.6772 14.4314C13.9007 13.8978 14.0516 12.7849 13.9652 12.1264C13.9348 11.8943 13.8143 11.4815 13.6772 11.3901C13.3326 11.1607 13.0191 11.5132 12.7806 11.5822C12.6305 11.6259 12.4637 11.5947 12.3005 11.6141C11.6549 11.6919 10.9699 11.8844 10.5398 12.0942C10.764 12.2437 11.0818 12.2992 11.1799 12.5744C10.6221 12.5349 10.1869 12.3726 9.70718 12.2544C9.75835 12.9766 8.87257 12.7503 8.33069 12.7987C8.51788 12.8028 8.54788 12.8933 8.55483 13.0227C8.5771 13.4476 7.17882 13.9512 6.69796 13.6312C6.0121 14.1842 6.99975 14.7491 6.95405 15.4561C6.81921 15.556 6.75694 15.7283 6.63389 15.8399C5.95225 15.8565 5.2353 15.9936 5.35311 16.7044C5.261 16.6507 5.11569 16.6148 5.00092 16.6723C4.82671 17.1211 5.11921 17.6083 5.51335 17.6969C5.61264 17.668 5.63577 17.5633 5.76944 17.5689C6.65975 17.7391 6.97319 18.3296 6.92202 19.4575C6.91311 19.6517 6.93241 19.9051 6.79397 20.034C6.28874 19.9994 5.8203 18.7523 6.63382 18.7215C6.43874 18.4344 6.291 18.0062 5.92944 18.0169C5.51499 18.0293 5.32897 18.6843 5.03303 18.9134C5.4596 19.1491 6.46139 19.7996 5.64124 20.226C6.04725 20.2869 6.27382 20.4479 6.44155 20.674C6.72108 21.0515 6.71217 21.6171 6.92186 21.9228C7.34616 22.5417 7.57014 21.3676 8.07421 21.8585C8.19327 21.8994 8.02178 21.7429 8.01022 21.7308C7.5778 21.2639 6.91827 20.8812 6.66569 20.3221C6.85983 20.2331 7.12007 20.3302 7.30585 20.354C7.37928 19.9779 7.11796 19.5523 7.20983 19.2652C7.276 19.0594 7.39811 19.1501 7.53007 19.0733C7.60764 19.0282 7.54694 18.8601 7.69022 18.9133C7.68936 19.3529 7.42452 20.0926 7.72202 20.418C8.15647 20.4959 8.28194 19.7488 8.65061 19.7457C8.85655 19.7439 9.05116 20.1064 9.19475 20.2899C9.36725 20.5101 9.60171 20.7808 9.54694 21.0261C9.43163 21.5433 8.56303 21.1495 8.26639 20.93C8.44718 21.6476 9.5596 21.7591 9.61092 22.6912C9.61678 22.7951 9.56428 22.928 9.57897 23.043C9.64186 23.5349 10.1005 23.9005 10.5713 23.5876C10.6405 23.764 10.6496 24.0005 10.8276 24.0677C10.9836 23.9359 10.9282 23.592 11.0196 23.3952C11.5782 23.5122 11.8698 23.7812 12.044 24.2276C12.1302 24.4484 12.108 24.8578 12.4601 24.8679C12.5141 24.3221 12.0864 23.9839 12.0121 23.4592C12.2991 23.9222 13.3341 24.4231 13.2927 25.1561C13.2652 25.6395 12.6907 25.6921 12.1401 25.7643C12.6648 25.9446 12.8846 26.5323 13.4527 26.7246C13.6054 26.7766 13.8015 26.7321 13.9649 26.7889C14.3806 26.9335 15.0453 27.7857 14.8615 28.3256C13.9757 28.772 13.2846 27.5655 12.3002 27.5894C12.7153 28.1187 13.3943 28.2948 13.965 28.5498C14.5792 28.8241 15.1942 29.105 15.7898 29.3821C17.1939 30.0351 18.1685 30.8896 19.0874 31.9753C18.4498 32.323 16.5173 31.7447 17.6787 31.3347C17.2748 31.321 16.8472 31.0676 16.4941 31.207C16.6812 32.4286 18.2884 32.2301 19.5036 32.4234C19.393 32.6329 19.237 32.7973 19.1193 32.9997C19.213 33.0549 19.3424 33.0751 19.5036 33.0637C19.4258 33.1884 19.2232 33.1887 19.2153 33.3837C19.3709 33.5909 19.679 33.6458 19.8876 33.7998C20.7104 33.2098 20.8026 34.5484 21.3283 34.5682C21.825 34.5867 21.9202 33.873 22.417 33.7998C22.2922 34.0594 22.0479 34.1991 21.9369 34.4723C22.4233 34.3548 22.5619 34.0929 22.9608 33.9919C24.3904 33.6302 25.5623 34.8209 26.7386 34.9526C27.1616 34.9997 27.582 35.2372 27.9552 35.3048C28.4377 35.3918 28.7344 35.233 29.1076 35.0487C28.5391 34.5179 27.2337 34.7246 26.7708 34.088C26.7887 33.978 26.864 33.9253 26.9309 33.8642C25.4325 34.1933 24.4891 33.2954 23.8575 32.4555C22.0089 31.978 20.3871 31.2733 19.5994 29.7344C19.5616 29.5894 19.7413 29.6629 19.6957 29.5101C19.0458 28.7869 18.3962 28.0527 17.8708 27.2051C17.6893 26.9124 17.565 26.5446 17.3585 26.3087C17.2277 26.1593 17.0083 26.077 16.8783 25.9244C16.7361 25.757 16.7167 25.5475 16.494 25.4764C16.4083 25.6041 16.4658 25.8747 16.3981 26.0205C16.2441 25.4023 15.9011 24.8152 15.2456 24.8039C15.2334 24.3543 15.5966 24.2802 15.7898 24.0355C15.5355 23.7298 15.4743 23.3448 15.3416 22.8832C15.0191 21.7614 14.7526 20.5895 14.4771 19.5535C14.1119 19.6898 14.0151 20.0946 13.8369 20.418C13.8545 19.9555 13.8762 19.4967 14.1251 19.2652C14.239 19.2795 14.2515 19.3952 14.3171 19.4574C14.3773 19.2393 14.5837 19.0358 14.4771 18.7532C14.3944 18.6255 14.1528 18.6851 14.0931 18.6892C14.2511 18.3026 14.3837 17.6008 14.1893 17.1525ZM27.0591 36.1374C27.3359 36.0191 27.5851 35.8736 27.6991 35.5929C27.3983 35.6683 26.9741 35.7819 27.0591 36.1374ZM27.091 35.497C26.9058 35.5996 26.6976 35.6799 26.579 35.8492C26.8444 35.8651 27.1553 35.5987 27.091 35.497ZM26.0987 35.9772C26.28 35.9288 26.474 35.7416 26.4509 35.5929C26.2405 35.614 25.9149 35.7641 26.0987 35.9772ZM26.2268 35.2407C25.9387 35.1497 25.7034 35.3752 25.6823 35.6572C25.939 35.5935 26.1127 35.447 26.2268 35.2407ZM25.3301 35.305C25.0487 35.3541 24.8383 35.4739 24.7538 35.7209C25.0978 35.8573 25.2739 35.5617 25.3301 35.305ZM24.8821 36.1374C24.9614 36.1419 25.0373 36.1432 25.0423 36.0731C24.9942 36.0223 24.8597 36.0262 24.8821 36.1374ZM25.3944 34.7605C24.9465 34.7262 24.4107 35.0169 24.6901 35.4009C24.9883 35.2508 25.2905 35.1049 25.3944 34.7605ZM23.1852 35.3691C23.465 35.4083 23.5381 35.0883 23.7298 35.1445C23.8409 35.2147 23.7733 35.4639 23.9536 35.4649C24.3723 35.3798 24.5231 34.8083 24.2737 34.4084C23.7093 34.5077 23.193 34.8183 23.1852 35.3691ZM23.3132 34.5366C23.1433 34.6227 22.9623 34.6975 22.8652 34.8566C23.0747 34.8476 23.3866 34.6166 23.3132 34.5366ZM22.4172 34.6968C22.4351 34.7819 22.2853 34.8596 22.3847 34.9206C22.4113 34.8804 22.5797 34.7221 22.4172 34.6968ZM21.8408 35.4648C21.8308 35.5084 21.7951 35.5259 21.8091 35.5929C21.8513 35.5929 21.8942 35.5929 21.9371 35.5929C21.9458 35.5091 21.925 35.4554 21.8408 35.4648ZM21.3607 35.305C21.1989 35.3141 21.1377 35.4236 21.1365 35.5929C21.2758 35.5619 21.4029 35.5181 21.3607 35.305ZM18.1269 33.6721C17.9296 33.6634 17.8694 33.6939 18.0951 33.7365C18.31 33.7761 18.6891 33.7969 18.8315 33.7365C18.6625 33.7345 18.2258 33.6767 18.1269 33.6721ZM19.0876 33.1601C18.9201 33.0327 18.5833 33.125 18.4153 33.1919C18.5123 33.4584 18.9883 33.3401 19.0876 33.1601ZM18.0633 35.561C18.8617 35.9794 19.9611 36.4362 21.1044 36.2973C20.2736 35.8905 19.0381 35.7169 18.0633 35.561ZM16.8786 35.2088C16.9551 35.3138 17.1357 35.3144 17.2626 35.3691C17.4989 35.1406 16.9794 35.0119 16.8786 35.2088ZM13.8691 32.6156C13.653 32.6344 13.4179 32.6338 13.3569 32.808C13.5628 32.8843 13.8607 32.8369 13.8691 32.6156ZM13.2608 33.448C13.336 33.5162 13.4744 33.5974 13.5169 33.448C13.4838 33.4141 13.2884 33.382 13.2608 33.448ZM13.645 30.7267C13.6741 30.5929 13.4191 30.5423 13.389 30.6628C13.4591 30.6991 13.5199 30.7452 13.645 30.7267ZM14.0613 31.8151C14.0598 31.7712 14.0764 31.7449 14.0933 31.7192C13.9979 31.6207 13.805 31.6032 13.645 31.6552C13.6706 31.8092 13.927 31.8735 14.0613 31.8151ZM14.0933 33.8644C14.1343 33.908 14.2444 33.908 14.2854 33.8644C14.3005 33.7637 14.2454 33.7335 14.1894 33.704C14.1606 33.7609 14.112 33.7975 14.0933 33.8644ZM15.0858 30.1826C14.9816 29.8811 14.6415 29.9606 14.4134 29.8625C14.0469 29.7046 13.7341 29.3277 13.2608 29.3184C13.2396 29.3184 13.2181 29.3184 13.197 29.3184C13.6086 29.8034 14.1533 30.3245 15.0858 30.1826ZM13.4209 28.9984C13.1221 28.7953 12.7948 28.6208 12.3644 28.5501C12.5012 28.8934 13.0337 29.0117 13.4209 28.9984ZM14.4133 30.5026C14.6378 30.7372 14.9195 30.9145 15.4058 30.8866C15.2189 30.6358 14.7722 30.4749 14.4133 30.5026ZM15.6299 31.9434C15.3003 31.715 14.7819 31.3444 14.3494 31.431C14.5995 31.7573 15.1024 32.0016 15.6299 31.9434ZM14.4133 33.1601C14.4056 33.2056 14.3607 33.2137 14.3494 33.2556C14.4283 33.3586 14.547 33.1816 14.4133 33.1601ZM15.1497 34.1205C15.1769 34.2426 15.2944 34.2744 15.4058 34.3125C15.4492 34.2384 15.5344 34.2062 15.5019 34.0565C15.4241 34.0097 15.1442 33.9827 15.1497 34.1205ZM15.758 32.7118C15.6589 32.6511 15.2973 32.5832 15.2137 32.7118C15.369 32.7748 15.6741 32.938 15.758 32.7118ZM15.8541 31.623C15.8861 31.3849 15.6167 31.3839 15.5019 31.4629C15.5126 31.623 15.7245 31.5822 15.8541 31.623ZM16.2062 29.8944C16.0616 29.676 15.6599 29.715 15.3738 29.6383C15.1643 29.3752 14.6633 29.2797 14.2213 29.3502C14.7275 29.6874 15.3032 29.9544 16.2062 29.8944ZM16.1422 32.9677C16.2797 33.0864 16.4952 33.1269 16.6864 33.1919C16.6966 33.1166 16.7369 33.0717 16.7183 32.9677C16.6251 32.8602 16.2207 32.8047 16.1422 32.9677ZM13.4209 27.7813C13.453 27.6319 13.3651 27.6026 13.2288 27.6215C13.1805 27.7872 13.3402 27.7446 13.4209 27.7813ZM14.1893 28.1657C14.0958 28.1419 14.1273 27.9932 13.9972 28.0055C13.8792 28.1137 14.0917 28.2784 14.1893 28.1657ZM11.9803 28.3898C11.8741 28.1549 11.6346 28.0526 11.4681 27.8775C11.7803 27.4252 11.0837 27.2401 10.9558 26.9171C10.9544 26.8197 11.0234 26.7926 11.0519 26.7248C10.7829 26.5672 10.4723 26.4509 10.3155 26.1809C10.4393 26.0913 10.7694 26.2076 10.8916 26.1166C10.6977 26.0331 10.4883 25.9652 10.4115 25.7644C10.5237 25.5032 10.9801 25.5864 11.0837 25.3164C10.5323 25.1946 9.98436 24.9016 9.38686 24.9321C9.39366 25.1601 9.59663 25.1919 9.67499 25.3483C9.49788 25.2696 9.3546 25.1562 9.09881 25.1562C9.07967 25.3141 9.18194 25.3505 9.16296 25.5084C8.98835 25.5227 8.89983 25.4513 8.7146 25.4766C8.84663 25.7712 9.18522 25.8596 9.291 26.181C9.16007 26.2141 8.98233 26.129 8.93882 26.181C9.27678 26.4617 9.77038 26.7576 9.96311 27.077C9.64866 27.0186 9.46866 26.8249 9.16296 26.757C9.41889 27.2638 10.0421 27.3694 10.5075 27.6215C10.9839 27.8794 11.4108 28.2953 11.9803 28.3898ZM11.2759 28.7739C11.4098 28.847 11.6762 29.0792 11.8523 28.9023C11.7038 28.8365 11.4703 28.6871 11.2759 28.7739ZM11.0199 28.6137C10.9298 28.4678 10.4702 28.3901 10.3477 28.4856C10.5566 28.5458 10.7535 28.7079 11.0199 28.6137ZM10.4436 28.7098C10.4335 28.7534 10.3981 28.7709 10.4116 28.8382C10.468 28.8197 10.5997 28.8765 10.6037 28.806C10.5541 28.7703 10.5369 28.702 10.4436 28.7098ZM10.0274 24.4519C9.94007 24.151 9.82342 23.8213 9.57928 23.5876C9.4478 23.4616 9.32046 23.4642 9.2271 23.2991C8.97968 22.8638 9.09827 22.2492 8.77889 21.7949C8.70335 21.7703 8.55764 21.7316 8.49077 21.7949C8.49678 22.0048 8.98397 22.5026 8.651 22.7553C7.91475 22.7845 7.63132 22.1984 6.92225 22.3069C6.76257 22.7205 7.3271 22.933 7.17819 23.2355C8.19663 23.5624 9.00546 24.2706 10.0274 24.4519ZM7.72233 25.4123C7.91046 25.5555 8.18241 25.7846 8.42671 25.7644C8.23319 25.6273 8.05514 25.3044 7.72233 25.4123ZM7.37014 25.1244C7.2871 24.8661 7.14311 24.6686 6.82592 24.6443C6.89046 24.921 7.19116 24.962 7.37014 25.1244ZM6.82592 25.9568C6.99733 26.0741 7.16757 26.3616 7.33819 26.373C7.21342 26.2095 7.06139 25.9032 6.82592 25.9568ZM7.05014 23.7476C7.06671 23.7001 7.09733 23.667 7.11413 23.6195C7.03202 23.5065 6.8296 23.5682 6.79405 23.6838C6.85702 23.7274 6.97686 23.7144 7.05014 23.7476ZM12.0124 25.0282C12.0079 24.7527 11.7019 24.5929 11.4681 24.7403C11.5422 24.9437 11.7654 24.9977 12.0124 25.0282ZM9.0028 20.8347C9.00819 20.7817 8.80569 20.7817 8.81085 20.8347C8.85475 20.8444 9.00397 20.9792 9.0028 20.8347ZM7.75452 20.7063C7.71178 20.7063 7.66905 20.7063 7.62632 20.7063C7.58233 20.7475 7.59467 20.8457 7.59428 20.9301C7.6528 20.9389 7.77382 21.0458 7.8185 20.9626C7.73928 20.9347 7.82772 20.7398 7.75452 20.7063ZM5.35319 20.6741C5.45928 20.9155 5.88874 20.8976 5.96155 20.6423C5.77936 20.5718 5.511 20.6208 5.35319 20.6741ZM5.44944 19.7777C5.32561 19.7716 5.21342 19.7767 5.12905 19.8099C5.15397 19.9496 5.44858 19.9248 5.44944 19.7777ZM5.73741 14.6236C5.57288 14.6996 5.22975 14.5474 5.06522 14.6236C5.21092 15.2004 6.29085 14.8898 6.2178 14.4314C6.15577 14.0425 5.12882 14.1388 4.7771 14.1754C5.04967 14.3723 5.48296 14.4085 5.73741 14.6236ZM4.45694 15.2318C4.51717 15.321 4.68272 15.3048 4.7771 15.3598C4.79561 15.2931 4.85655 15.2686 4.84108 15.1678C4.7571 15.1234 4.45491 15.0885 4.45694 15.2318ZM6.08975 15.1038C6.07249 15.1737 6.0121 15.3109 6.12155 15.328C6.1978 15.2742 6.18186 15.1502 6.08975 15.1038ZM6.98616 13.1829C6.97772 13.0893 7.05842 13.0848 7.05014 12.9908C6.91999 12.9781 6.82694 13.0025 6.82592 13.1188C6.88686 13.1327 6.90631 13.1878 6.98616 13.1829ZM6.95413 6.07569C6.82663 6.85694 7.53053 7.80202 8.36264 7.51624C8.40147 7.2214 8.26694 7.09991 8.26663 6.84405C8.47897 6.79257 8.60397 6.99647 8.71475 6.94007C8.40335 6.37655 7.57499 6.32991 6.95413 6.07569ZM6.60178 5.33936C6.88319 5.39507 7.32483 5.36686 7.43428 5.14725C7.22171 5.00522 6.58389 4.96718 6.60178 5.33936ZM5.83342 3.09827C5.89499 2.47647 5.13514 2.13288 4.68108 2.55413C4.39725 2.81725 4.27397 3.45272 4.71303 3.67468C4.66319 3.51093 4.51764 3.44319 4.55303 3.19452C4.88671 3.00374 5.4985 3.28757 5.83342 3.09827ZM5.6096 5.14718C5.691 5.10069 5.81327 5.09515 5.80163 4.95515C5.70319 4.96507 5.53546 5.07116 5.6096 5.14718ZM4.9371 7.51624C5.33632 7.52569 5.63733 7.30054 6.02561 7.29225C6.36171 7.28515 6.68202 7.38515 7.0821 7.35624C6.79639 6.51772 5.40819 7.24999 4.9371 7.51624ZM4.32889 8.98897C5.08428 8.89296 6.13671 8.39593 7.14616 8.50882C7.52694 8.55132 7.86046 8.76561 8.07452 8.92499C7.96538 8.80851 7.83608 8.33046 8.07452 8.2528C8.59991 8.35288 8.61741 9.34554 9.25905 9.21319C9.58593 9.14577 9.68546 8.51171 9.51522 8.12468C9.75952 8.29655 9.88538 8.58686 10.2196 8.66897C10.1433 8.361 9.92171 8.19843 9.77147 7.9646C9.86585 7.84569 9.98944 7.75569 9.96342 7.51624C9.04725 7.42819 8.23405 7.92272 7.37022 8.09257C6.69983 8.2246 6.20092 8.35538 5.60967 8.50874C5.16514 8.62397 4.67053 8.70483 4.32889 8.98897ZM1.63967 15.6161C1.59569 15.6569 1.58389 15.8073 1.67163 15.8081C1.69796 15.7849 1.75756 15.5866 1.63967 15.6161ZM2.75999 11.8064C1.35616 12.0291 2.85249 13.5221 3.68858 13.1511C3.79444 12.9885 3.76155 12.8395 3.75257 12.6066C4.23967 12.6543 4.60616 12.417 5.03327 12.5107C5.10217 12.6595 4.97186 12.7855 4.93717 12.9267C6.38975 12.8346 7.10897 11.6933 8.68272 11.5182C8.87827 11.4964 9.10116 11.531 9.32319 11.5182C9.98592 11.4795 10.7201 11.3567 11.4041 11.23C12.0753 11.1059 12.689 10.8591 13.2608 10.718C13.9786 10.5405 15.0705 10.0718 14.9258 9.1171C14.9092 9.00843 14.8338 8.91077 14.7656 8.79694C10.9505 8.42804 8.09796 9.92366 5.09733 10.5258C4.73686 10.598 4.29858 10.55 4.00874 10.8458C4.11358 11.1037 4.48202 11.0982 4.64889 11.294C4.56546 11.3918 4.35913 11.3668 4.32889 11.5182C4.39952 11.789 4.80092 11.7287 4.84108 12.0305C4.20381 12.4798 2.86757 11.9068 3.17632 11.006C2.21342 11.217 0.811471 11.4267 0.80733 12.5107C0.805377 12.9884 1.09014 13.4303 1.41546 13.6952C1.19506 12.6866 1.56967 11.1952 2.75999 11.8064ZM3.94467 17.793C3.97381 17.5762 3.61749 17.4244 3.49655 17.5691C3.61452 17.6751 3.79921 17.7142 3.94467 17.793ZM2.82413 18.2092C3.05053 18.9964 3.12421 19.9368 3.72053 20.3542C3.63077 19.4301 3.30288 18.7443 2.82413 18.2092ZM4.16874 17.3769C4.26842 16.9249 3.60538 16.7479 3.56053 17.0566C3.52139 17.3255 3.94538 17.2943 4.16874 17.3769ZM4.29686 16.5123C4.15233 16.3543 3.7896 16.2563 3.52858 16.3203C3.62069 16.5469 4.18741 16.8823 4.29686 16.5123ZM3.91272 15.1038C4.05733 15.0137 4.21077 14.9321 4.23272 14.7194C4.04694 14.5804 3.60217 14.5608 3.56053 14.7838C3.52905 14.9524 3.75499 15.0208 3.91272 15.1038ZM4.32889 15.648C4.34288 15.538 4.31624 15.4687 4.29686 15.3918C4.13264 15.3877 4.056 15.4711 4.04077 15.6161C4.12046 15.643 4.21225 15.6579 4.32889 15.648ZM2.08788 15.488C2.06319 15.4059 2.05585 15.3065 1.99186 15.2639C1.91225 15.3501 1.90921 15.5048 2.08788 15.488ZM2.40803 13.3111C2.26436 13.2551 2.05171 13.3148 1.99186 13.4391C2.05905 13.4997 2.15577 13.5313 2.24796 13.5669C2.2803 13.461 2.42506 13.4669 2.40803 13.3111ZM2.75999 17.4408C2.67717 17.2569 2.66678 17.0006 2.50405 16.8967C2.06569 16.9591 2.49999 17.5888 2.75999 17.4408ZM3.36835 20.8983C3.68092 21.654 4.01085 22.4708 4.68108 22.8191C4.17991 22.2615 4.06163 21.3389 3.72053 20.6741C3.60257 20.4448 3.41436 20.2664 3.30436 20.0341C3.04553 19.4869 2.92624 18.8486 2.40803 18.5933C2.61225 19.3984 3.04967 20.127 3.36835 20.8983ZM12.1725 32.9038C11.9787 32.244 11.4587 31.9099 10.7318 31.7833C10.5521 31.3548 10.0335 31.2654 9.93147 30.7589C9.91491 30.6549 10.1298 30.6182 10.0597 30.5669C9.0853 30.7514 9.05093 29.7187 8.58694 29.2862C7.41608 29.3073 7.63389 27.8587 6.98624 27.1094C6.80124 26.8951 6.6178 26.8456 6.40991 26.6293C6.08999 25.6378 5.25506 25.1348 4.77717 24.2603C4.35272 23.4832 4.26342 22.6066 3.56069 22.0511C4.11671 23.9335 5.30788 25.5248 6.37796 27.1095C7.23452 28.3775 7.81702 29.5851 8.77897 30.5988C9.10585 30.9428 9.47491 31.1732 9.86757 31.4951C10.5355 32.0428 10.9954 33.0587 12.1725 32.9038ZM12.0443 30.7267C12.0098 30.5896 11.7629 30.4971 11.6281 30.5669C11.7523 30.6351 11.8887 30.6904 12.0443 30.7267ZM13.2288 29.8944C13.0119 29.6416 12.5579 29.5454 12.1404 29.3823C11.6225 29.1795 10.8836 28.9876 10.5077 29.2221C10.5455 29.5362 10.7958 29.6383 10.9558 29.8303C11.4006 29.8988 11.6551 30.1159 12.0762 30.1503C12.5726 30.1913 13.0361 30.1692 13.2288 29.8944ZM28.4997 37.1939C27.5309 36.7521 26.1101 37.2491 25.0741 37.0016C24.8785 36.9548 24.7056 36.8203 24.5299 36.8095C24.3551 36.7988 24.1517 36.8911 23.9857 36.9057C23.0984 36.9846 22.2884 36.8969 21.4568 36.7773C20.8733 36.6935 20.2518 36.6607 19.7277 36.5213C19.2258 36.3881 18.7066 36.0808 18.191 35.881C17.6678 35.6786 17.1231 35.4769 16.6223 35.2728C15.6344 34.8703 14.5844 34.1737 13.5489 33.8963C14.2474 34.6384 15.45 34.8768 16.2703 35.497C15.1111 35.1728 14.2364 34.5643 13.1969 34.1205C14.0068 34.8456 15.1369 35.2848 16.2703 35.753C17.399 36.2195 18.6255 36.6142 19.9517 36.8094C22.5862 37.1975 25.6761 37.7738 28.4997 37.1939ZM29.332 37.0977C29.1676 37.1043 28.9629 37.0701 28.948 37.2258C29.0873 37.3453 29.3216 37.3329 29.332 37.0977ZM31.0608 33.3199C31.1062 33.5565 31.4497 33.4859 31.4133 33.2238C31.2387 33.1991 31.1631 33.2732 31.0608 33.3199ZM33.718 34.9847C32.8573 34.9639 31.7957 34.6666 30.9005 34.6968C30.5571 34.7082 30.1397 34.7904 30.0363 35.1444C30.3005 35.2516 30.5834 35.1873 30.9005 35.1769C31.9389 35.1419 33.2076 35.6084 33.718 34.9847ZM34.5825 34.9206C34.4327 34.9203 34.3886 35.0259 34.3583 35.1444C34.3995 35.1886 34.4973 35.1766 34.5825 35.1769C34.5673 35.0353 34.6264 35.0175 34.5825 34.9206ZM36.4714 34.7927C36.3151 34.769 36.2569 34.9633 36.3112 35.049C36.4119 35.0642 36.4363 35.0032 36.5035 34.9847C36.5266 34.8869 36.4483 34.8905 36.4714 34.7927ZM39.1283 34.9847C38.473 34.9148 37.7076 34.958 37.1117 35.049C37.4626 35.3794 38.7228 35.1685 39.1283 34.9847ZM8.33069 15.5198C8.64647 15.6952 8.93788 16.0649 9.35522 16.0321C9.24249 15.8781 9.08264 15.7711 8.97085 15.6161C9.08975 15.6067 9.19077 15.5799 9.22702 15.488C8.83764 15.2155 8.33827 14.8828 8.13858 14.5273C8.27038 14.7826 8.4721 15.1895 8.33069 15.5198ZM12.4286 15.7762C12.3601 15.706 12.3909 15.5361 12.3004 15.488C12.28 15.6273 12.3701 15.8221 12.4286 15.7762ZM9.48319 18.5616C9.53225 19.0887 9.86913 19.3276 9.89936 19.8741C9.52514 19.448 9.31624 18.8563 9.06702 18.3051C9.04257 18.9719 9.24413 19.385 9.41921 19.8421C9.55397 20.1933 9.6803 20.6056 10.0274 20.7064C10.1895 20.6762 10.1805 20.4747 10.3478 20.4501C10.5258 20.4757 10.6184 20.7551 10.7318 20.7385C10.6463 20.6424 10.6197 20.4877 10.6037 20.3223C10.6347 20.2037 10.8042 20.2239 10.8598 20.13C10.5378 19.4704 10.0763 18.9499 9.48319 18.5616Z" fill="#FAFAFA"/>
</svg>
