<svg width="40" height="40" viewBox="0 0 40 40" fill="none" xmlns="http://www.w3.org/2000/svg">
<mask id="path-1-inside-1_80_7352" fill="white">
<path d="M12.6838 26.031L15.0863 26.041L15.1125 30.721L12.8788 30.761L12.76 29.311L12.75 27.676L12.6838 26.031ZM30.6375 25.9123V30.9985L28.6225 31.1448L28.5413 28.4535L28.295 25.9673L30.6375 25.9123ZM6.62 25.896L9.99375 26.071L9.69125 28.0748V29.9785L9.905 30.796L6.64 30.9485L6.62 25.896ZM22.5913 25.7648L24.5563 25.8923L24.4788 28.9198L24.765 31.3248L22.6712 31.2535L22.5938 25.7648H22.5913ZM16.3213 12.4873L16.2538 12.8998L16.565 13.2648L16.5425 13.8698L16.8175 14.291L16.7438 14.8035L16.7825 14.8585L13.8975 14.9735L13.9288 14.736L12.9088 14.1835L12.875 13.6448L13.3275 13.6223L13.3725 12.6885L16.3213 12.4873ZM24.4125 11.7673L24.3975 12.5885L25.0338 12.6148L25.0088 13.1148L23.7763 13.9235L23.6425 14.326L20.7375 14.466L20.7525 14.1785L20.9275 13.8973L20.9425 13.6573L20.9438 13.301L21.0488 13.0573L21.0975 12.8073V12.6635L21.2225 12.1585L24.4125 11.7673ZM38.3037 2.29852L38.1787 2.36102C34.4637 4.15977 30.1488 5.59477 25.6275 6.45102L25.3013 6.50227C22.405 6.87727 18.1875 7.25352 14.4225 7.47102C12.73 7.57435 11.0358 7.63518 9.34 7.65352C9.1575 7.66102 8.9425 7.66477 8.72625 7.66477C7.8675 7.66477 7.025 7.59852 6.2025 7.46977L6.29375 7.48102C4.795 7.12227 3.54375 6.72977 2.32875 6.26477L2.545 6.33727L2.15125 6.18102L2.69125 8.01227L1.25375 9.27727L1.64125 9.95852L2.32875 10.0098L3.9725 10.2148L4.225 11.0173L5.2175 11.106L5.71375 12.7898L5.8575 12.7998C5.8575 12.7998 7.9475 12.9798 8.61 12.9798C9.18 12.9798 10.0625 12.9173 10.285 12.901L10.3225 13.5198L10.7713 13.6035V14.096L9.52125 15.2048L9.76625 15.2485C9.5475 15.2635 9.41125 15.2773 8.985 15.2948C8.7625 15.3085 8.50125 15.316 8.24 15.316C7.84125 15.316 7.44625 15.2985 7.05625 15.2623L7.10625 15.266C6.79875 15.2098 6.41875 15.161 6.0325 15.1335L5.9975 15.131H5.91L5.72 15.3335L5.64875 16.0298H5.88625L5.9725 17.7648L10.5538 17.5885L10.2338 23.3398L10.2025 23.8823L6.7 23.6835L6.66875 22.4948H7.50875L7.5975 21.8385L8.3225 21.6723L8.67125 21.1848L5.37375 20.3885L2.71 21.1785L3.43625 21.7848H3.695L3.73375 22.306L4.505 22.3498V23.5423L3.55 23.7873L3.84625 24.4185L4.01 24.5248V25.8135H4.54625V30.9623L3.6625 31.096L3.815 33.0435L4.33625 33.131L4.25 36.7898L7.06625 36.841L6.56625 33.2435L9.6625 33.1685L9.44375 34.866L9.05375 36.4785L13.1288 36.5298L13.1713 32.9685L15.2363 32.781L15.1238 34.8023L15.025 36.3485H17.5763L17.4938 32.756L17.7688 32.7985L17.8738 30.6248H17.4938L17.4038 30.0935L17.1988 28.0785L17.275 25.9485H17.7363V24.1023L17.1675 24.1448L17.23 22.886L17.9013 22.8185L17.9375 22.2685L18.2063 22.2298L19.0025 21.6223L16.1488 21.036L13.4775 21.6285L13.9238 22.361L14.2975 22.3298L14.3813 22.3235L14.4338 23.0135L15.0738 22.9823L15.08 24.0348L12.6963 23.9798L12.7788 22.6098L12.8713 21.1635V19.2685L12.9463 17.4685L18.39 17.191L24.88 16.816L24.9313 17.8685L24.6938 20.9135L24.595 23.5585L22.5325 23.5223L22.5225 21.9323L23.4188 21.8998L23.4625 21.3173L23.8838 21.2535L23.865 21.1648L24.1025 21.1498L24.555 20.5435L21.415 19.8073L18.3125 20.4723L18.715 21.1748L18.9338 21.1585V21.2973H19.3175V21.9248L20.1363 21.9373L20.1263 23.2748H19.3025L19.28 24.0635L19.5725 24.0973L19.54 25.6248L20.1538 25.656L20.085 31.3023L19.2675 31.471L19.2925 32.1323H19.5675V33.671H20.0188L19.91 35.5535L19.735 37.606L23.125 37.6948L23.0163 35.8635L22.8013 34.5385L22.7675 33.6123L24.8375 33.5748L24.775 35.1398L24.7613 37.2173L26.375 37.3448L28.3313 37.2673L29.1637 37.0223L28.7738 35.8348L28.6912 34.2723L28.5663 33.361L30.4925 33.291L30.4038 34.4498L30.3938 36.816L31.5462 36.9235L32.5325 36.8985L33.1825 36.696L32.89 34.4723L32.8137 33.126L33.2038 33.0835L33.2137 31.686L33.3387 31.6598L33.2962 30.9885H32.8225L32.7463 30.1648L32.71 25.9598L33.0562 25.9498V24.541L33.2063 24.5623V23.8423L32.685 23.7998L32.695 22.4935L33.585 22.4135L33.5337 21.8485L33.94 21.816L33.9025 21.6335L34.8088 21.181L31.5975 20.536L28.6613 21.1298L29.0225 21.8048L29.3713 21.7735L29.3925 21.8935H29.71L29.7275 22.5585L30.5825 22.5485L30.6375 23.756L28.0288 23.7373L27.6975 21.461L27.42 20.171L27.1938 17.876L27.3113 16.711L33.32 16.2535L33.3387 14.1973L33.6525 14.1198L33.6162 13.526L33.2425 13.311H33.185L32.6275 13.3885L31.3888 13.5698C30.5438 13.6931 29.6975 13.8056 28.85 13.9073L28.5538 13.9385L28.53 13.661L27.3038 13.021L27.3138 12.591L27.7375 12.5785L27.7688 11.5285C27.9088 11.5185 28.3188 11.491 28.9725 11.4323C29.7775 11.371 30.505 11.271 31.2188 11.131L31.0988 11.151C32.0312 10.9323 33.3663 10.7135 33.3663 10.7135L33.485 10.6935L34.1225 8.96227L35.38 8.59727L35.4825 8.30976L38.2625 7.54102L38.74 7.14727L37.62 4.70477L37.6938 4.33602L38.2312 4.05477L38.695 2.63977L38.3013 2.29102L38.3037 2.29852Z"/>
</mask>
<path d="M12.6838 26.031L15.0863 26.041L15.1125 30.721L12.8788 30.761L12.76 29.311L12.75 27.676L12.6838 26.031ZM30.6375 25.9123V30.9985L28.6225 31.1448L28.5413 28.4535L28.295 25.9673L30.6375 25.9123ZM6.62 25.896L9.99375 26.071L9.69125 28.0748V29.9785L9.905 30.796L6.64 30.9485L6.62 25.896ZM22.5913 25.7648L24.5563 25.8923L24.4788 28.9198L24.765 31.3248L22.6712 31.2535L22.5938 25.7648H22.5913ZM16.3213 12.4873L16.2538 12.8998L16.565 13.2648L16.5425 13.8698L16.8175 14.291L16.7438 14.8035L16.7825 14.8585L13.8975 14.9735L13.9288 14.736L12.9088 14.1835L12.875 13.6448L13.3275 13.6223L13.3725 12.6885L16.3213 12.4873ZM24.4125 11.7673L24.3975 12.5885L25.0338 12.6148L25.0088 13.1148L23.7763 13.9235L23.6425 14.326L20.7375 14.466L20.7525 14.1785L20.9275 13.8973L20.9425 13.6573L20.9438 13.301L21.0488 13.0573L21.0975 12.8073V12.6635L21.2225 12.1585L24.4125 11.7673ZM38.3037 2.29852L38.1787 2.36102C34.4637 4.15977 30.1488 5.59477 25.6275 6.45102L25.3013 6.50227C22.405 6.87727 18.1875 7.25352 14.4225 7.47102C12.73 7.57435 11.0358 7.63518 9.34 7.65352C9.1575 7.66102 8.9425 7.66477 8.72625 7.66477C7.8675 7.66477 7.025 7.59852 6.2025 7.46977L6.29375 7.48102C4.795 7.12227 3.54375 6.72977 2.32875 6.26477L2.545 6.33727L2.15125 6.18102L2.69125 8.01227L1.25375 9.27727L1.64125 9.95852L2.32875 10.0098L3.9725 10.2148L4.225 11.0173L5.2175 11.106L5.71375 12.7898L5.8575 12.7998C5.8575 12.7998 7.9475 12.9798 8.61 12.9798C9.18 12.9798 10.0625 12.9173 10.285 12.901L10.3225 13.5198L10.7713 13.6035V14.096L9.52125 15.2048L9.76625 15.2485C9.5475 15.2635 9.41125 15.2773 8.985 15.2948C8.7625 15.3085 8.50125 15.316 8.24 15.316C7.84125 15.316 7.44625 15.2985 7.05625 15.2623L7.10625 15.266C6.79875 15.2098 6.41875 15.161 6.0325 15.1335L5.9975 15.131H5.91L5.72 15.3335L5.64875 16.0298H5.88625L5.9725 17.7648L10.5538 17.5885L10.2338 23.3398L10.2025 23.8823L6.7 23.6835L6.66875 22.4948H7.50875L7.5975 21.8385L8.3225 21.6723L8.67125 21.1848L5.37375 20.3885L2.71 21.1785L3.43625 21.7848H3.695L3.73375 22.306L4.505 22.3498V23.5423L3.55 23.7873L3.84625 24.4185L4.01 24.5248V25.8135H4.54625V30.9623L3.6625 31.096L3.815 33.0435L4.33625 33.131L4.25 36.7898L7.06625 36.841L6.56625 33.2435L9.6625 33.1685L9.44375 34.866L9.05375 36.4785L13.1288 36.5298L13.1713 32.9685L15.2363 32.781L15.1238 34.8023L15.025 36.3485H17.5763L17.4938 32.756L17.7688 32.7985L17.8738 30.6248H17.4938L17.4038 30.0935L17.1988 28.0785L17.275 25.9485H17.7363V24.1023L17.1675 24.1448L17.23 22.886L17.9013 22.8185L17.9375 22.2685L18.2063 22.2298L19.0025 21.6223L16.1488 21.036L13.4775 21.6285L13.9238 22.361L14.2975 22.3298L14.3813 22.3235L14.4338 23.0135L15.0738 22.9823L15.08 24.0348L12.6963 23.9798L12.7788 22.6098L12.8713 21.1635V19.2685L12.9463 17.4685L18.39 17.191L24.88 16.816L24.9313 17.8685L24.6938 20.9135L24.595 23.5585L22.5325 23.5223L22.5225 21.9323L23.4188 21.8998L23.4625 21.3173L23.8838 21.2535L23.865 21.1648L24.1025 21.1498L24.555 20.5435L21.415 19.8073L18.3125 20.4723L18.715 21.1748L18.9338 21.1585V21.2973H19.3175V21.9248L20.1363 21.9373L20.1263 23.2748H19.3025L19.28 24.0635L19.5725 24.0973L19.54 25.6248L20.1538 25.656L20.085 31.3023L19.2675 31.471L19.2925 32.1323H19.5675V33.671H20.0188L19.91 35.5535L19.735 37.606L23.125 37.6948L23.0163 35.8635L22.8013 34.5385L22.7675 33.6123L24.8375 33.5748L24.775 35.1398L24.7613 37.2173L26.375 37.3448L28.3313 37.2673L29.1637 37.0223L28.7738 35.8348L28.6912 34.2723L28.5663 33.361L30.4925 33.291L30.4038 34.4498L30.3938 36.816L31.5462 36.9235L32.5325 36.8985L33.1825 36.696L32.89 34.4723L32.8137 33.126L33.2038 33.0835L33.2137 31.686L33.3387 31.6598L33.2962 30.9885H32.8225L32.7463 30.1648L32.71 25.9598L33.0562 25.9498V24.541L33.2063 24.5623V23.8423L32.685 23.7998L32.695 22.4935L33.585 22.4135L33.5337 21.8485L33.94 21.816L33.9025 21.6335L34.8088 21.181L31.5975 20.536L28.6613 21.1298L29.0225 21.8048L29.3713 21.7735L29.3925 21.8935H29.71L29.7275 22.5585L30.5825 22.5485L30.6375 23.756L28.0288 23.7373L27.6975 21.461L27.42 20.171L27.1938 17.876L27.3113 16.711L33.32 16.2535L33.3387 14.1973L33.6525 14.1198L33.6162 13.526L33.2425 13.311H33.185L32.6275 13.3885L31.3888 13.5698C30.5438 13.6931 29.6975 13.8056 28.85 13.9073L28.5538 13.9385L28.53 13.661L27.3038 13.021L27.3138 12.591L27.7375 12.5785L27.7688 11.5285C27.9088 11.5185 28.3188 11.491 28.9725 11.4323C29.7775 11.371 30.505 11.271 31.2188 11.131L31.0988 11.151C32.0312 10.9323 33.3663 10.7135 33.3663 10.7135L33.485 10.6935L34.1225 8.96227L35.38 8.59727L35.4825 8.30976L38.2625 7.54102L38.74 7.14727L37.62 4.70477L37.6938 4.33602L38.2312 4.05477L38.695 2.63977L38.3013 2.29102L38.3037 2.29852Z" fill="#FAFAFA" stroke="#060606" stroke-width="2" mask="url(#path-1-inside-1_80_7352)"/>
</svg>
