<svg width="100" height="100" viewBox="0 0 100 100" fill="none" xmlns="http://www.w3.org/2000/svg">
<path d="M73.2683 34.8415C73.2683 15.6048 57.6684 0.00170898 38.4253 0.00170898C19.1822 0.00170898 3.58545 15.6048 3.58545 34.8415C3.58545 38.8603 4.0573 41.4763 5.38618 45.4983C7.97654 52.9644 21.5478 38.9149 27.3866 47.1995C33.2253 55.4906 14.2165 62.7641 26.9629 67.7394C32.7663 69.1453 34.4065 69.6782 38.4253 69.6782C57.6684 69.6814 73.2683 54.0879 73.2683 34.8415ZM69.7182 32.7904C69.7182 36.1704 66.4955 38.9149 62.5217 38.9149C58.5511 38.9149 55.3284 36.1736 55.3284 32.7904C55.3284 29.4072 58.5479 26.6628 62.5217 26.6628C66.4955 26.666 69.7182 29.4105 69.7182 32.7904ZM55.3284 11.615C59.299 11.615 62.5217 14.3594 62.5217 17.7426C62.5217 21.1258 59.3054 23.8702 55.3284 23.8702C51.3514 23.8702 48.1351 21.1258 48.1351 17.7426C48.1351 14.3594 51.3546 11.615 55.3284 11.615ZM14.698 37.0371C10.7242 37.0371 7.50469 34.2959 7.50469 30.9127C7.50469 27.5295 10.7242 24.785 14.698 24.785C18.6718 24.785 21.8913 27.5295 21.8913 30.9127C21.8913 34.2959 18.6718 37.0371 14.698 37.0371ZM23.1239 22.933C19.1501 22.933 15.9306 20.1917 15.9306 16.8085C15.9306 13.4253 19.1501 10.6809 23.1239 10.6809C27.0977 10.6809 30.3204 13.4253 30.3204 16.8085C30.3204 20.1917 27.0977 22.933 23.1239 22.933ZM31.8932 9.82067C31.8932 6.43748 35.1159 3.69305 39.0897 3.69305C43.0635 3.69305 46.2862 6.43748 46.2862 9.82067C46.2862 13.2039 43.0667 15.9451 39.0897 15.9451C35.1159 15.9451 31.8932 13.2039 31.8932 9.82067ZM44.2319 64.7542C40.2549 64.7542 37.0354 62.013 37.0354 58.6266C37.0354 55.2434 40.2549 52.5022 44.2319 52.5022C48.2025 52.5022 51.4252 55.2434 51.4252 58.6266C51.4252 62.0098 48.2025 64.7542 44.2319 64.7542ZM51.4252 48.1432C51.4252 44.76 54.6447 42.0156 58.6185 42.0156C62.5923 42.0156 65.815 44.76 65.815 48.1432C65.815 51.5264 62.5923 54.2708 58.6185 54.2708C54.6447 54.2708 51.4252 51.5264 51.4252 48.1432Z" fill="#FAFAFA"/>
<path d="M95.4678 54.6366C96.6715 53.4715 96.7389 51.5455 95.5994 50.2616C94.4534 48.9809 92.5243 48.8332 91.2372 49.8989L91.2307 49.8893L61.4593 76.4958C57.2897 72.9617 53.3672 73.7899 48.8606 77.8215C45.0986 81.1822 44.3892 86.7802 42.2643 91.7811C41.5581 93.2513 40.1426 95.6651 39.0898 96.9522C38.3322 97.8767 38.2713 98.5604 38.7014 99.0419C39.7927 100.265 44.0715 100.194 48.3855 99.5041V99.5009C53.9097 98.6181 60.1914 96.5382 62.8106 93.752C67.3333 88.934 67.94 85.3518 65.5775 81.378L95.4806 54.6527L95.4678 54.6366ZM47.4258 97.1384C47.3359 97.5075 47.246 97.867 47.1658 98.2009C43.0186 98.7819 40.7461 98.4994 40.0078 98.188C40.0559 98.111 40.1265 98.0115 40.2261 97.8863C41.0735 96.8495 42.1263 95.1547 42.9191 93.7071C44.4246 94.3201 46.2606 94.5866 48.0517 94.4582C47.8687 95.3184 47.6376 96.2846 47.4258 97.1384Z" fill="#FAFAFA"/>
</svg>
