<svg width="40" height="40" viewBox="0 0 40 40" fill="none" xmlns="http://www.w3.org/2000/svg">
<path d="M28.3843 20.8846L15.8843 33.3846C15.7682 33.5007 15.6303 33.5928 15.4786 33.6557C15.3268 33.7186 15.1642 33.7509 15 33.7509C14.8357 33.7509 14.6731 33.7186 14.5213 33.6557C14.3696 33.5928 14.2317 33.5007 14.1156 33.3846C13.9994 33.2684 13.9073 33.1306 13.8445 32.9788C13.7816 32.8271 13.7493 32.6645 13.7493 32.5002C13.7493 32.336 13.7816 32.1733 13.8445 32.0216C13.9073 31.8698 13.9994 31.732 14.1156 31.6158L25.7328 20.0002L14.1156 8.38458C13.881 8.15003 13.7493 7.83191 13.7493 7.50021C13.7493 7.1685 13.881 6.85038 14.1156 6.61583C14.3501 6.38128 14.6683 6.24951 15 6.24951C15.3317 6.24951 15.6498 6.38128 15.8843 6.61583L28.3843 19.1158C28.5006 19.2319 28.5928 19.3698 28.6557 19.5215C28.7186 19.6733 28.7509 19.8359 28.7509 20.0002C28.7509 20.1645 28.7186 20.3271 28.6557 20.4789C28.5928 20.6306 28.5006 20.7685 28.3843 20.8846Z" fill="#71B7FB"/>
</svg>
