<svg width="40" height="40" viewBox="0 0 40 40" fill="none" xmlns="http://www.w3.org/2000/svg">
<path d="M21.509 18.0424V17.9805C21.496 18.0014 21.4823 18.0223 21.4685 18.0424H21.509Z" fill="#71B7FB"/>
<path d="M37.0428 0H2.95478C1.32322 0 0 1.28353 0 2.86541V37.1354C0 38.7165 1.32322 40 2.95478 40H37.0428C38.6768 40 40 38.7157 40 37.1354V2.86541C40 1.28272 38.676 0 37.0428 0ZM12.1242 33.4851H6.08275V15.4232H12.1242V33.4851ZM9.1039 12.9559H9.06343C7.03692 12.9559 5.72585 11.5686 5.72585 9.83554C5.72585 8.06385 7.07739 6.71519 9.14355 6.71519C11.2105 6.71519 12.4819 8.06385 12.5224 9.83554C12.5224 11.5686 11.2097 12.9559 9.1039 12.9559ZM33.91 33.4851H27.8685V23.82C27.8685 21.3929 26.9944 19.7362 24.8085 19.7362C23.1397 19.7362 22.1459 20.8533 21.708 21.9325C21.5486 22.3177 21.5098 22.8566 21.5098 23.397V33.4843H15.4683C15.4683 33.4843 15.5476 17.1153 15.4683 15.4224H21.5098V17.979C22.3126 16.7486 23.7483 14.9962 26.9556 14.9962C30.9301 14.9962 33.9108 17.5785 33.9108 23.1268L33.91 33.4851Z" fill="#71B7FB"/>
</svg>
