<svg width="60" height="60" viewBox="0 0 60 60" fill="none" xmlns="http://www.w3.org/2000/svg">
<path d="M48.75 9.375H11.25C9.75816 9.375 8.32742 9.96763 7.27252 11.0225C6.21763 12.0774 5.625 13.5082 5.625 15V41.25C5.625 42.7418 6.21763 44.1726 7.27252 45.2275C8.32742 46.2824 9.75816 46.875 11.25 46.875H28.125V50.625H22.5C22.0027 50.625 21.5258 50.8225 21.1742 51.1742C20.8225 51.5258 20.625 52.0027 20.625 52.5C20.625 52.9973 20.8225 53.4742 21.1742 53.8258C21.5258 54.1775 22.0027 54.375 22.5 54.375H37.5C37.9973 54.375 38.4742 54.1775 38.8258 53.8258C39.1775 53.4742 39.375 52.9973 39.375 52.5C39.375 52.0027 39.1775 51.5258 38.8258 51.1742C38.4742 50.8225 37.9973 50.625 37.5 50.625H31.875V46.875H48.75C50.2418 46.875 51.6726 46.2824 52.7275 45.2275C53.7824 44.1726 54.375 42.7418 54.375 41.25V15C54.375 13.5082 53.7824 12.0774 52.7275 11.0225C51.6726 9.96763 50.2418 9.375 48.75 9.375ZM11.25 13.125H48.75C49.2473 13.125 49.7242 13.3225 50.0758 13.6742C50.4275 14.0258 50.625 14.5027 50.625 15V33.75H9.375V15C9.375 14.5027 9.57254 14.0258 9.92418 13.6742C10.2758 13.3225 10.7527 13.125 11.25 13.125ZM48.75 43.125H11.25C10.7527 43.125 10.2758 42.9275 9.92418 42.5758C9.57254 42.2242 9.375 41.7473 9.375 41.25V37.5H50.625V41.25C50.625 41.7473 50.4275 42.2242 50.0758 42.5758C49.7242 42.9275 49.2473 43.125 48.75 43.125Z" fill="#CBCBCB"/>
</svg>
