<svg width="60" height="60" viewBox="0 0 60 60" fill="none" xmlns="http://www.w3.org/2000/svg">
<path d="M48.5297 18.9071C46.0992 16.4712 43.2106 14.5404 40.0303 13.2262C36.85 11.9121 33.4411 11.2404 30 11.2501H29.9062C15.4852 11.2993 3.75 23.2032 3.75 37.7649V43.1251C3.75 44.1197 4.14509 45.0735 4.84835 45.7768C5.55161 46.48 6.50544 46.8751 7.5 46.8751H52.5C53.4946 46.8751 54.4484 46.48 55.1516 45.7768C55.8549 45.0735 56.25 44.1197 56.25 43.1251V37.5001C56.2596 34.044 55.5821 30.6204 54.2567 27.4285C52.9313 24.2365 50.9846 21.3399 48.5297 18.9071ZM52.5 43.1251H28.057L40.8914 25.4767C41.1842 25.0745 41.3052 24.5725 41.2278 24.0811C41.1505 23.5897 40.8811 23.1491 40.4789 22.8564C40.0767 22.5636 39.5747 22.4426 39.0833 22.5199C38.5919 22.5973 38.1514 22.8667 37.8586 23.2689L23.4187 43.1251H7.5V37.7649C7.5 37.0431 7.53516 36.3306 7.60078 35.6251H13.125C13.6223 35.6251 14.0992 35.4276 14.4508 35.0759C14.8025 34.7243 15 34.2474 15 33.7501C15 33.2528 14.8025 32.7759 14.4508 32.4243C14.0992 32.0726 13.6223 31.8751 13.125 31.8751H8.26641C10.6852 22.7673 18.5789 15.8814 28.125 15.0798V20.6251C28.125 21.1224 28.3225 21.5993 28.6742 21.9509C29.0258 22.3026 29.5027 22.5001 30 22.5001C30.4973 22.5001 30.9742 22.3026 31.3258 21.9509C31.6775 21.5993 31.875 21.1224 31.875 20.6251V15.0774C36.5265 15.4689 40.9417 17.2953 44.5104 20.3044C48.0791 23.3134 50.6252 27.3566 51.7969 31.8751H46.875C46.3777 31.8751 45.9008 32.0726 45.5492 32.4243C45.1975 32.7759 45 33.2528 45 33.7501C45 34.2474 45.1975 34.7243 45.5492 35.0759C45.9008 35.4276 46.3777 35.6251 46.875 35.6251H52.4227C52.4719 36.2462 52.5 36.8696 52.5 37.5001V43.1251Z" fill="#CBCBCB"/>
</svg>
