<svg width="40" height="40" viewBox="0 0 40 40" fill="none" xmlns="http://www.w3.org/2000/svg">
<path d="M25.8844 31.6158C26.0005 31.732 26.0926 31.8698 26.1555 32.0216C26.2184 32.1733 26.2507 32.336 26.2507 32.5002C26.2507 32.6645 26.2184 32.8271 26.1555 32.9788C26.0926 33.1306 26.0005 33.2684 25.8844 33.3846C25.7682 33.5007 25.6304 33.5928 25.4786 33.6557C25.3269 33.7186 25.1643 33.7509 25 33.7509C24.8358 33.7509 24.6731 33.7186 24.5214 33.6557C24.3696 33.5928 24.2318 33.5007 24.1156 33.3846L11.6156 20.8846C11.4994 20.7685 11.4072 20.6306 11.3443 20.4789C11.2814 20.3271 11.249 20.1645 11.249 20.0002C11.249 19.8359 11.2814 19.6733 11.3443 19.5215C11.4072 19.3698 11.4994 19.2319 11.6156 19.1158L24.1156 6.61583C24.3502 6.38128 24.6683 6.24951 25 6.24951C25.3317 6.24951 25.6498 6.38128 25.8844 6.61583C26.1189 6.85038 26.2507 7.1685 26.2507 7.50021C26.2507 7.83191 26.1189 8.15003 25.8844 8.38458L14.2672 20.0002L25.8844 31.6158Z" fill="#71B7FB"/>
</svg>
