<svg width="40" height="40" viewBox="0 0 40 40" fill="none" xmlns="http://www.w3.org/2000/svg">
<path fill-rule="evenodd" clip-rule="evenodd" d="M6.1775 28.2949C7.15179 28.2923 8.08539 27.9039 8.77408 27.2148C9.46278 26.5256 9.85052 25.5917 9.8525 24.6174V20.9424H6.1775C5.20364 20.9444 4.27016 21.3318 3.58106 22.02C2.89197 22.7081 2.5033 23.6411 2.5 24.6149C2.5025 26.6424 4.1475 28.2874 6.175 28.2899L6.1775 28.2949ZM15.3825 20.9399C14.4082 20.9426 13.4746 21.331 12.7859 22.0201C12.0972 22.7093 11.7095 23.6431 11.7075 24.6174V33.8249C11.7125 35.8524 13.3575 37.4949 15.3825 37.4999C16.3564 37.4973 17.2896 37.1093 17.9782 36.4206C18.6668 35.732 19.0549 34.7988 19.0575 33.8249V24.6149C19.0549 23.6411 18.6668 22.7079 17.9782 22.0192C17.2896 21.3306 16.3564 20.9426 15.3825 20.9399Z" fill="#E01E5A"/>
<path fill-rule="evenodd" clip-rule="evenodd" d="M11.7075 6.1775C11.71 8.205 13.355 9.85 15.3825 9.8525H19.0575V6.1775C19.0555 5.20364 18.6681 4.27016 17.98 3.58106C17.2918 2.89197 16.3589 2.5033 15.385 2.5C14.4111 2.50264 13.4779 2.89067 12.7893 3.5793C12.1007 4.26792 11.7126 5.20114 11.71 6.175L11.7075 6.1775ZM19.0575 15.3825C19.0549 14.4086 18.6668 13.4754 17.9782 12.7868C17.2896 12.0982 16.3564 11.7101 15.3825 11.7075H6.175C5.20114 11.7101 4.26792 12.0982 3.5793 12.7868C2.89067 13.4754 2.50264 14.4086 2.5 15.3825C2.505 17.4125 4.15 19.055 6.175 19.0575H15.385C16.3589 19.0549 17.2921 18.6668 17.9807 17.9782C18.6693 17.2896 19.0549 16.3564 19.0575 15.3825Z" fill="#36C5F0"/>
<path fill-rule="evenodd" clip-rule="evenodd" d="M24.6174 19.06C25.5913 19.0574 26.5245 18.6693 27.2131 17.9807C27.9018 17.2921 28.2898 16.3589 28.2924 15.385V6.175C28.2898 5.20157 27.9021 4.26873 27.214 3.58018C26.5259 2.89162 25.5934 2.5033 24.6199 2.5C23.6461 2.50264 22.7129 2.89067 22.0242 3.5793C21.3356 4.26792 20.9476 5.20114 20.9449 6.175V15.385C20.9499 17.41 22.5899 19.055 24.6174 19.06ZM33.8224 11.7075C32.8486 11.7101 31.9154 12.0982 31.2267 12.7868C30.5381 13.4754 30.1501 14.4086 30.1474 15.3825V19.0575H33.8224C34.7963 19.0555 35.7298 18.6681 36.4189 17.98C37.108 17.2918 37.4966 16.3589 37.4999 15.385C37.4973 14.4111 37.1093 13.4779 36.4206 12.7893C35.732 12.1007 34.7988 11.7126 33.8249 11.71L33.8224 11.7075Z" fill="#2EB67D"/>
<path fill-rule="evenodd" clip-rule="evenodd" d="M20.9425 24.6173C20.9475 26.6448 22.59 28.2898 24.6175 28.2923H33.825C34.7984 28.2897 35.7313 27.902 36.4198 27.2139C37.1084 26.5258 37.4967 25.5932 37.5 24.6198C37.4974 23.646 37.1093 22.7127 36.4207 22.0241C35.7321 21.3355 34.7989 20.9475 33.825 20.9448H24.6175C23.6436 20.9475 22.7104 21.3355 22.0218 22.0241C21.3332 22.7127 20.9451 23.6435 20.9425 24.6173ZM28.2925 33.8223C28.2899 32.8485 27.9018 31.9152 27.2132 31.2266C26.5246 30.538 25.5914 30.15 24.6175 30.1473H20.9425V33.8223C20.9475 35.8523 22.59 37.4948 24.6175 37.4973C25.5914 37.4947 26.5246 37.1067 27.2132 36.418C27.9018 35.7294 28.2899 34.7962 28.2925 33.8223Z" fill="#ECB22E"/>
</svg>
