<svg width="600" height="32" viewBox="0 0 600 32" fill="none" xmlns="http://www.w3.org/2000/svg">
<path d="M595 2.75742V2.63416C545.834 2.26594 496.667 2.1625 447.501 2.03522C398.334 1.93983 349.167 2.06278 300.001 2.11481L5.00003 2.45919V2.58245L299.999 3.1018C349.166 3.18294 398.332 3.3353 447.499 3.26902C496.666 3.17085 545.833 3.09653 595 2.75742Z" fill="url(#paint0_linear_161_170)"/>
<path d="M480 12.0426V11.9193C450 11.5514 420 11.4477 390 11.3204C360 11.225 330 11.3479 300 11.4L120 11.7443V11.8679L300 12.3873C330 12.4684 359.999 12.6205 390 12.5542C420 12.456 450 12.3814 480 12.0426Z" fill="url(#paint1_linear_161_170)"/>
<path d="M470 21.3282V21.205C441.667 20.8371 413.334 20.7333 385 20.606C356.667 20.5106 328.334 20.6336 300 20.6856L130 21.03V21.1532L300 21.6726C328.333 21.7537 356.666 21.9058 385 21.8398C413.333 21.7417 441.666 21.667 470 21.3282Z" fill="url(#paint2_linear_161_170)"/>
<path d="M570 30.6134V30.5517V30.4901C525 30.1219 480 30.0185 435.001 29.8912C390.001 29.7958 345 29.9187 300.001 29.9708L30 30.3151V30.4384L299.999 30.9578C344.999 31.0389 389.999 31.1909 434.999 31.125C479.999 31.0268 525 30.9525 570 30.6134Z" fill="url(#paint3_linear_161_170)"/>
<path opacity="0.5" d="M600 0H0V32H600V0Z" fill="#242424"/>
<defs>
<linearGradient id="paint0_linear_161_170" x1="300" y1="2" x2="300" y2="3.28529" gradientUnits="userSpaceOnUse">
<stop stop-color="#4A90E2"/>
<stop offset="1" stop-color="#974A8A" stop-opacity="0.9"/>
</linearGradient>
<linearGradient id="paint1_linear_161_170" x1="300" y1="11.2852" x2="300" y2="12.5705" gradientUnits="userSpaceOnUse">
<stop stop-color="#4A90E2"/>
<stop offset="1" stop-color="#974A8A" stop-opacity="0.9"/>
</linearGradient>
<linearGradient id="paint2_linear_161_170" x1="300" y1="20.5708" x2="300" y2="21.856" gradientUnits="userSpaceOnUse">
<stop stop-color="#4A90E2"/>
<stop offset="1" stop-color="#974A8A" stop-opacity="0.9"/>
</linearGradient>
<linearGradient id="paint3_linear_161_170" x1="300" y1="29.856" x2="300" y2="31.1411" gradientUnits="userSpaceOnUse">
<stop stop-color="#4A90E2"/>
<stop offset="1" stop-color="#974A8A" stop-opacity="0.9"/>
</linearGradient>
</defs>
</svg>
