<svg width="1440" height="32" viewBox="0 0 1440 32" fill="none" xmlns="http://www.w3.org/2000/svg">
<g clip-path="url(#clip0_84_3851)">
<path d="M1120 3.61631V3.49305C1053.33 3.12483 986.667 3.02138 920.001 2.8941C853.334 2.79872 786.667 2.92167 720.001 2.9737L320 3.31807V3.44133L719.999 3.96068C786.666 4.04182 853.332 4.19418 919.999 4.12791C986.666 4.02974 1053.33 3.95542 1120 3.61631Z" fill="url(#paint0_linear_84_3851)"/>
<path d="M1440 12.9015V12.7782C1320 12.4103 1200 12.3065 1080 12.1793C960.002 12.0839 840.001 12.2068 720.001 12.2589L0 12.6032V12.7268L719.999 13.2461C839.998 13.3273 959.998 13.4793 1080 13.4131C1200 13.3149 1320 13.2403 1440 12.9015Z" fill="url(#paint1_linear_84_3851)"/>
<path d="M1320 22.1871V22.0639C1220 21.6959 1120 21.5922 1020 21.4649C920.002 21.3695 820.001 21.4925 720.001 21.5445L120 21.8889V22.0121L719.999 22.5315C819.998 22.6126 919.998 22.7647 1020 22.6987C1120 22.6005 1220 22.5259 1320 22.1871Z" fill="url(#paint2_linear_84_3851)"/>
<path d="M1220 31.4723V31.4106V31.349C1136.67 30.9808 1053.33 30.8773 970.001 30.7501C886.668 30.6547 803.334 30.7776 720.001 30.8297L220 31.174V31.2973L719.999 31.8166C803.332 31.8978 886.665 32.0498 969.999 31.9839C1053.33 31.8857 1136.67 31.8114 1220 31.4723Z" fill="url(#paint3_linear_84_3851)"/>
<path opacity="0.5" d="M1440 2H0V32H1440V2Z" fill="#242424"/>
</g>
<defs>
<linearGradient id="paint0_linear_84_3851" x1="719.999" y1="2.85888" x2="719.999" y2="4.14418" gradientUnits="userSpaceOnUse">
<stop stop-color="#4A90E2"/>
<stop offset="1" stop-color="#974A8A" stop-opacity="0.9"/>
</linearGradient>
<linearGradient id="paint1_linear_84_3851" x1="719.999" y1="12.144" x2="719.999" y2="13.4294" gradientUnits="userSpaceOnUse">
<stop stop-color="#4A90E2"/>
<stop offset="1" stop-color="#974A8A" stop-opacity="0.9"/>
</linearGradient>
<linearGradient id="paint2_linear_84_3851" x1="719.999" y1="21.4297" x2="719.999" y2="22.7149" gradientUnits="userSpaceOnUse">
<stop stop-color="#4A90E2"/>
<stop offset="1" stop-color="#974A8A" stop-opacity="0.9"/>
</linearGradient>
<linearGradient id="paint3_linear_84_3851" x1="719.999" y1="30.7148" x2="719.999" y2="32" gradientUnits="userSpaceOnUse">
<stop stop-color="#4A90E2"/>
<stop offset="1" stop-color="#974A8A" stop-opacity="0.9"/>
</linearGradient>
<clipPath id="clip0_84_3851">
<rect width="1440" height="32" fill="white"/>
</clipPath>
</defs>
</svg>
