<svg width="186" height="60" viewBox="0 0 186 60" fill="none" xmlns="http://www.w3.org/2000/svg">
<g clip-path="url(#clip0_103_2826)">
<path d="M55.3325 38.2426C54.0247 38.2426 52.9224 38.0963 51.9966 37.7888C51.0708 37.4813 50.3211 37.1151 49.7333 36.6613C49.1454 36.2074 48.7194 35.7535 48.4255 35.2993C48.1462 34.8454 47.9844 34.4645 47.9697 34.1717C47.955 33.9373 48.0137 33.7472 48.1756 33.6008C48.337 33.454 48.5135 33.3957 48.7194 33.3957H51.3056C51.3941 33.3957 51.4674 33.4104 51.5262 33.4251C51.5849 33.4394 51.6733 33.5128 51.7907 33.6151C52.07 33.8496 52.3639 34.0987 52.6872 34.3622C52.9958 34.6256 53.3781 34.8454 53.8042 35.0208C54.2449 35.2116 54.774 35.2993 55.4356 35.2993C56.2877 35.2993 56.9933 35.1382 57.5665 34.8014C58.1396 34.4645 58.4336 33.9813 58.4336 33.3664C58.4336 32.9125 58.3158 32.5459 58.0663 32.2678C57.8164 31.9897 57.3606 31.7259 56.6847 31.5065C56.0084 31.2867 55.0533 31.0379 53.8188 30.7741C52.5991 30.496 51.5995 30.1298 50.7915 29.7053C49.9831 29.2657 49.3953 28.7388 48.9986 28.0795C48.6016 27.4352 48.4108 26.6738 48.4108 25.8101C48.4108 24.9603 48.6603 24.1696 49.1748 23.3936C49.6892 22.6319 50.4385 21.9876 51.4528 21.5044C52.4666 21.0065 53.7161 20.7573 55.2151 20.7573C56.3908 20.7573 57.4046 20.9041 58.2717 21.1969C59.1388 21.4897 59.8592 21.8555 60.4323 22.2808C61.0055 22.72 61.4462 23.1445 61.7548 23.5987C62.0634 24.0379 62.2252 24.4188 62.2399 24.7552C62.2546 24.9897 62.1959 25.1801 62.0487 25.3265C61.902 25.4733 61.7255 25.5316 61.5343 25.5316H59.1242C59.0214 25.5316 58.9183 25.5169 58.8302 25.4729C58.7422 25.4289 58.6541 25.3705 58.5657 25.3118C58.3305 25.0921 58.0663 24.8726 57.787 24.6382C57.477 24.3786 57.1303 24.1665 56.7581 24.0086C56.3614 23.8181 55.8323 23.7301 55.1857 23.7301C54.3627 23.7301 53.7308 23.9062 53.3044 24.272C52.8637 24.6235 52.6578 25.0774 52.6578 25.6193C52.6578 25.9855 52.7606 26.308 52.9664 26.5715C53.1723 26.8349 53.5836 27.0983 54.2155 27.3328C54.8478 27.5673 55.8029 27.816 57.0814 28.0799C58.5363 28.3433 59.6827 28.7242 60.5498 29.2367C61.4022 29.7493 62.0194 30.3349 62.372 30.9792C62.7246 31.6382 62.9012 32.3706 62.9012 33.1612C62.9012 34.1277 62.6072 35.0065 62.0341 35.7825C61.4609 36.5589 60.6085 37.1738 59.4915 37.613C58.3602 38.0232 56.9786 38.2426 55.3325 38.2426Z" fill="#CBCBCB"/>
<path d="M73.7616 35.0354C74.908 35.0354 75.8044 34.6693 76.422 33.9516C77.0539 33.2343 77.3918 32.1651 77.4652 30.759C77.5039 29.92 77.5039 29.0796 77.4652 28.2405C77.4065 26.8639 77.0539 25.7947 76.422 25.0627C75.7897 24.3303 74.908 23.9642 73.7616 23.9642C72.6153 23.9642 71.7188 24.3303 71.1016 25.0627C70.4697 25.7947 70.1318 26.8492 70.0584 28.2405C70.0197 29.0796 70.0197 29.92 70.0584 30.759C70.1171 32.1651 70.4697 33.2343 71.1016 33.9516C71.7188 34.6839 72.6153 35.0354 73.7616 35.0354ZM73.7616 38.2426C72.0274 38.2426 70.5729 37.9352 69.3821 37.3345C68.2064 36.7343 67.2953 35.8702 66.6781 34.7716C66.0609 33.6735 65.7082 32.3849 65.6202 30.9205C65.6013 30.4472 65.5915 29.9735 65.5908 29.4998C65.5908 28.9432 65.6055 28.46 65.6202 28.0795C65.7082 26.5854 66.0755 25.2968 66.7074 24.2133C67.3544 23.1294 68.2508 22.28 69.4412 21.6654C70.6169 21.0648 72.0572 20.7573 73.7469 20.7573C75.4371 20.7573 76.8774 21.0648 78.0531 21.6651C79.2288 22.2657 80.1399 23.1147 80.7865 24.2129C81.4187 25.3118 81.786 26.6001 81.8741 28.0795C81.8929 28.5527 81.9027 29.0262 81.9035 29.4998C81.9035 30.0564 81.8888 30.5396 81.8741 30.9205C81.786 32.3845 81.4334 33.6735 80.8158 34.7716C80.1986 35.8702 79.3022 36.7343 78.1118 37.3345C76.9508 37.9495 75.4958 38.2426 73.7616 38.2426Z" fill="#CBCBCB"/>
<path d="M100.965 35.0354C102.111 35.0354 103.007 34.6693 103.625 33.9516C104.257 33.2343 104.595 32.1651 104.668 30.759C104.707 29.92 104.707 29.0796 104.668 28.2405C104.609 26.8639 104.257 25.7947 103.625 25.0627C102.993 24.3303 102.111 23.9642 100.965 23.9642C99.8182 23.9642 98.9217 24.3303 98.3045 25.0627C97.6726 25.7947 97.3347 26.8492 97.2613 28.2405C97.2226 29.0796 97.2226 29.92 97.2613 30.759C97.32 32.1651 97.6726 33.2343 98.3045 33.9516C98.9217 34.6839 99.8035 35.0354 100.965 35.0354ZM100.965 38.2426C99.2303 38.2426 97.7757 37.9352 96.585 37.3345C95.4093 36.7343 94.4982 35.8702 93.881 34.7716C93.2638 33.6735 92.9111 32.3849 92.8231 30.9205C92.8042 30.4472 92.7944 29.9735 92.7937 29.4998C92.7937 28.9432 92.8084 28.46 92.8231 28.0795C92.9111 26.5854 93.2784 25.2968 93.9103 24.2133C94.5572 23.1294 95.4537 22.28 96.6441 21.6654C97.8198 21.0648 99.26 20.7573 100.95 20.7573C102.64 20.7573 104.08 21.0648 105.256 21.6651C106.432 22.2657 107.343 23.1147 107.989 24.2129C108.622 25.3118 108.989 26.6001 109.077 28.0795C109.096 28.5527 109.106 29.0262 109.106 29.4998C109.106 30.0564 109.092 30.5396 109.077 30.9205C108.989 32.3845 108.636 33.6735 108.019 34.7716C107.401 35.8702 106.505 36.7343 105.315 37.3345C104.154 37.9495 102.699 38.2426 100.965 38.2426Z" fill="#CBCBCB"/>
<path d="M124.39 28.0357H131.577V27.933C131.577 27.084 131.43 26.3516 131.151 25.7366C130.871 25.1066 130.46 24.6087 129.916 24.2426C129.372 23.8768 128.726 23.6863 127.962 23.6863C127.197 23.6863 126.551 23.8768 126.007 24.2429C125.463 24.6087 125.052 25.1066 124.787 25.7366C124.522 26.3663 124.376 27.0983 124.376 27.933V28.0357H124.39ZM127.962 38.2426C125.551 38.2426 123.641 37.5539 122.245 36.1629C120.834 34.7862 120.07 32.8097 119.967 30.2614C119.948 29.9884 119.938 29.7147 119.938 29.441C119.938 29.1042 119.952 28.8407 119.967 28.6507C120.055 27.0249 120.422 25.6189 121.084 24.4326C121.745 23.2468 122.656 22.3386 123.832 21.6943C125.008 21.05 126.374 20.7422 127.962 20.7422C129.725 20.7422 131.195 21.1084 132.385 21.8261C133.575 22.5437 134.472 23.5542 135.089 24.8428C135.692 26.1314 136.001 27.6105 136.001 29.295V29.9686C136.001 30.188 135.927 30.3638 135.78 30.5249C135.633 30.6713 135.427 30.7447 135.192 30.7447H124.39V31.0081C124.405 31.7694 124.552 32.4578 124.831 33.1021C125.096 33.7468 125.507 34.2593 126.037 34.6398C126.565 35.035 127.198 35.2258 127.932 35.2258C128.535 35.2258 129.049 35.1377 129.461 34.9473C129.872 34.7569 130.21 34.5521 130.475 34.3177C130.739 34.0832 130.915 33.8932 131.033 33.7321C131.224 33.4686 131.386 33.3219 131.503 33.2635C131.621 33.2048 131.797 33.1755 132.047 33.1755H134.84C135.06 33.1755 135.236 33.2342 135.383 33.3659C135.53 33.4976 135.589 33.6587 135.56 33.8491C135.53 34.2006 135.354 34.6105 135.016 35.1084C134.678 35.6063 134.193 36.0895 133.575 36.5731C132.944 37.0416 132.165 37.4368 131.224 37.759C130.254 38.0958 129.181 38.2426 127.962 38.2426Z" fill="#CBCBCB"/>
<path d="M147.567 35.1378L145.568 35.2549C144.275 35.3282 143.172 34.3031 143.172 32.9998C143.172 31.8723 144.01 30.9205 145.127 30.7594L149.169 30.2175V33.439C149.169 34.3324 148.463 35.0795 147.567 35.1378ZM153.107 24.5795C152.853 23.8343 152.431 23.1577 151.873 22.6022C151.314 22.0459 150.55 21.5921 149.609 21.2549C148.669 20.9184 147.508 20.7573 146.141 20.7573C144.877 20.7573 143.804 20.9184 142.922 21.2406C142.026 21.5627 141.306 21.9579 140.748 22.4268C140.189 22.8953 139.777 23.3786 139.513 23.8618C139.249 24.3597 139.116 24.7842 139.087 25.121C139.087 25.3408 139.145 25.5166 139.263 25.6336C139.381 25.7653 139.557 25.824 139.807 25.824H142.379C142.702 25.824 142.952 25.6776 143.128 25.3995C143.361 24.8872 143.74 24.4544 144.216 24.1546C144.701 23.8471 145.333 23.686 146.112 23.686C147.214 23.686 147.993 23.9352 148.448 24.4327C148.904 24.9306 149.124 25.6336 149.124 26.5417V27.6252L143.437 28.0648C140.777 28.2695 138.719 30.4809 138.719 33.1462C138.719 35.9579 141.012 38.2426 143.834 38.2426H149.036C151.49 38.2426 153.474 36.2657 153.474 33.8199V26.9662C153.489 26.1315 153.372 25.3261 153.107 24.5795Z" fill="#CBCBCB"/>
<path d="M113.118 14.9141H115.999C116.089 14.9138 116.179 14.9313 116.263 14.9658C116.347 15.0002 116.423 15.0508 116.487 15.1147C116.551 15.1786 116.602 15.2546 116.637 15.3382C116.672 15.4218 116.69 15.5115 116.69 15.602V37.2467C116.69 37.3373 116.672 37.4269 116.637 37.5105C116.602 37.5942 116.551 37.6701 116.487 37.734C116.423 37.7979 116.347 37.8485 116.263 37.883C116.179 37.9174 116.089 37.935 115.999 37.9347H113.118C113.028 37.9349 112.938 37.9173 112.854 37.8828C112.771 37.8484 112.695 37.7978 112.63 37.7339C112.566 37.67 112.515 37.5941 112.481 37.5105C112.446 37.4269 112.428 37.3372 112.428 37.2467V15.602C112.428 15.5115 112.446 15.4219 112.481 15.3383C112.515 15.2547 112.566 15.1787 112.63 15.1149C112.695 15.051 112.771 15.0003 112.854 14.9659C112.938 14.9314 113.028 14.9138 113.118 14.9141Z" fill="#CBCBCB"/>
<path d="M85.9156 14.9141H88.7957C88.8863 14.9138 88.976 14.9313 89.0598 14.9658C89.1436 15.0002 89.2197 15.0508 89.2839 15.1147C89.3481 15.1786 89.3991 15.2546 89.4339 15.3382C89.4686 15.4218 89.4866 15.5115 89.4867 15.602V37.2467C89.4866 37.3373 89.4686 37.4269 89.4339 37.5105C89.3991 37.5942 89.3481 37.6701 89.2839 37.734C89.2197 37.7979 89.1436 37.8485 89.0598 37.883C88.976 37.9174 88.8863 37.935 88.7957 37.9347H85.9156C85.825 37.935 85.7353 37.9174 85.6515 37.883C85.5677 37.8485 85.4916 37.7979 85.4274 37.734C85.3632 37.6701 85.3123 37.5942 85.2775 37.5105C85.2427 37.4269 85.2247 37.3373 85.2246 37.2467V15.602C85.2247 15.5115 85.2427 15.4218 85.2775 15.3382C85.3123 15.2546 85.3632 15.1786 85.4274 15.1147C85.4916 15.0508 85.5677 15.0002 85.6515 14.9658C85.7353 14.9313 85.825 14.9138 85.9156 14.9141Z" fill="#CBCBCB"/>
<path d="M157.78 38.0081C157.584 38.0095 157.395 37.9361 157.252 37.803C157.171 37.7222 157.108 37.6262 157.065 37.5206C157.022 37.415 157.001 37.302 157.002 37.1881V25.1793C157.002 22.7338 158.985 20.7565 161.44 20.7565C162.968 20.7565 164.173 20.7565 166.378 20.7275C166.848 20.7275 167.245 21.108 167.245 21.5769V23.0409C167.245 23.2666 167.155 23.4829 166.995 23.6422C166.835 23.8015 166.618 23.8909 166.393 23.8907H163.1C162.16 23.8907 161.396 24.6521 161.396 25.5895V37.2317C161.396 37.4511 161.322 37.6269 161.175 37.7737C161.028 37.9197 160.837 37.9931 160.602 37.9931H157.78V38.0081Z" fill="#CBCBCB"/>
<path d="M168.391 27.3325V37.1588C168.392 37.3844 168.482 37.6006 168.642 37.7598C168.801 37.9191 169.018 38.0084 169.244 38.0082H171.963C172.188 38.0084 172.405 37.9191 172.565 37.7598C172.724 37.6006 172.814 37.3844 172.815 37.1588V27.2738C172.815 25.2968 174.417 23.7007 176.401 23.7007C178.385 23.7007 179.987 25.2968 179.987 27.2738V37.1588C179.987 37.3844 180.077 37.6007 180.237 37.7599C180.397 37.9192 180.613 38.0085 180.839 38.0082H183.558C183.783 38.0085 184 37.9192 184.16 37.7599C184.32 37.6007 184.41 37.3844 184.41 37.1588V27.3325C184.41 23.7007 181.456 20.7427 177.797 20.7427H174.99C171.36 20.7427 168.391 23.7007 168.391 27.3325Z" fill="#CBCBCB"/>
<path d="M24.0148 19.8494C27.7771 19.8494 31.1575 21.4895 33.4498 24.1107C34.2288 24.9895 35.6838 24.3892 35.5663 23.2177C35.4892 22.4347 35.3415 21.6603 35.1253 20.9039C33.9642 16.7739 30.643 13.5524 26.4844 12.4685C18.122 10.2718 10.5974 16.5105 10.5974 24.4916C10.5974 25.0042 10.6268 25.5168 10.6859 26.0147C10.8326 27.1716 12.3907 27.4643 12.9492 26.4396C14.0262 24.4438 15.6239 22.7771 17.5724 21.6167C19.5209 20.4564 21.747 19.8456 24.0148 19.8494Z" fill="#FFA30F"/>
<path d="M8.33442 23.5254C8.33023 21.7431 8.71002 19.9808 9.44795 18.3584C10.1859 16.7361 11.2646 15.2917 12.6108 14.1236C13.493 13.3476 12.8901 11.8983 11.7144 12.0149C10.9353 12.0883 10.1563 12.2347 9.37765 12.4398C5.23334 13.6114 2.00017 16.9063 0.912538 21.0506C-1.27703 29.3979 4.98345 36.8958 12.9932 36.8958C13.5073 36.8958 14.0217 36.8664 14.5211 36.8077C15.6825 36.6613 15.9765 35.1093 14.9475 34.5527C11.0091 32.4437 8.33404 28.2994 8.33404 23.5258L8.33442 23.5254Z" fill="#149EF2"/>
<path d="M12.0228 39.1508C8.26049 39.1508 4.88017 37.5107 2.58786 34.8894C1.80883 34.0107 0.353879 34.6109 0.471298 35.7825C0.548455 36.5655 0.696078 37.3399 0.912373 38.0963C2.07339 42.2263 5.39463 45.4478 9.55361 46.5316C17.9307 48.7137 25.4553 42.475 25.4553 34.4939C25.4553 33.9813 25.4255 33.4687 25.3668 32.9708C25.2201 31.814 23.662 31.5212 23.1035 32.5463C20.9726 36.4855 16.8137 39.1508 12.0228 39.1508Z" fill="#F20057"/>
<path d="M27.7036 35.4749C27.7077 37.2572 27.3279 39.0196 26.5899 40.6419C25.8519 42.2643 24.7731 43.7087 23.4268 44.8767C22.545 45.6528 23.1476 47.1024 24.3236 46.9854C25.0876 46.9124 25.8667 46.7656 26.6457 46.5462C30.7896 45.3893 34.0228 42.0797 35.11 37.9354C37.3004 29.5878 31.0395 22.0898 23.0301 22.0898C22.5194 22.0894 22.0091 22.1187 21.5018 22.1775C20.3408 22.3243 20.0469 23.8764 21.0754 24.4326C25.0289 26.5571 27.7036 30.701 27.7036 35.4749Z" fill="#8252DE"/>
</g>
<defs>
<clipPath id="clip0_103_2826">
<rect width="184.032" height="35" fill="white" transform="translate(0.456299 12)"/>
</clipPath>
</defs>
</svg>
