<svg width="60" height="60" viewBox="0 0 60 60" fill="none" xmlns="http://www.w3.org/2000/svg">
<path fill-rule="evenodd" clip-rule="evenodd" d="M17.1063 14.588C16.8994 12.7951 18.5129 13.5551 18.3068 14.636C18.004 14.924 17.4447 14.6878 17.1063 14.588ZM19.027 14.2517C19.4334 14.2103 19.8209 14.1493 19.9396 13.8197C19.3774 13.4731 18.5374 14.3281 18.883 14.7322C19.0748 14.7159 18.9052 14.3382 19.027 14.2517ZM13.6487 15.3562C13.9871 15.1989 14.5432 15.2583 14.7053 14.9242C13.6979 14.5733 11.8839 14.8323 11.5836 15.5004C12.3516 15.4529 12.9938 14.8435 13.6487 15.3562ZM11.3916 15.5485C11.1734 15.5027 11.0892 15.7506 11.1996 15.8845C11.3701 15.8789 11.3929 15.7256 11.3916 15.5485ZM10.8633 16.509C10.8326 16.0509 9.72445 15.6852 9.61488 16.3169C9.71074 16.6756 10.6045 16.9064 10.8633 16.509ZM8.99063 16.0769C8.76176 16.0876 8.6441 16.2108 8.51027 16.3169C8.68441 16.4184 9.0702 16.3821 8.99063 16.0769ZM8.41453 17.3733C9.26039 17.3139 9.51785 18.0916 10.239 17.9975C10.3734 17.1603 8.65289 16.0087 8.41453 17.3733ZM19.8434 21.5509C19.5912 20.7139 20.3634 19.9956 19.8913 19.3418C19.2376 19.3939 18.6723 22.4278 19.6032 22.4156C20.2717 22.4064 20.5073 20.5713 20.5635 19.9666C20.0741 20.2448 20.2873 21.2266 19.8434 21.5509ZM11.8239 21.2151C11.8384 21.0882 11.7573 21.0573 11.6318 21.0706C11.635 21.2003 11.7415 21.3016 11.8239 21.2151ZM14.177 22.6077C14.1863 22.3101 14.1745 22.0338 13.937 21.9834C13.7562 21.9629 13.767 22.1335 13.6487 22.1757C13.7147 22.4296 13.8488 22.616 14.177 22.6077ZM11.8719 24.1445C12.7927 24.2481 13.4092 24.9123 14.273 24.9125C13.5841 24.4488 12.8685 24.0122 11.7758 23.9523C11.741 24.0833 11.8712 24.049 11.8719 24.1445ZM19.1231 24.8647C19.0515 24.536 18.9089 24.2782 18.7391 24.0481C18.8016 24.3856 18.8877 24.6996 19.1231 24.8647ZM13.8407 25.921C13.238 25.1146 12.2777 24.4118 11.1996 24.2402C11.3518 25.5285 12.7839 25.5377 13.8407 25.921ZM12.2081 26.209C11.7966 25.5163 11.091 25.1171 10.239 24.8647C10.7179 25.4598 11.1565 26.3467 12.2081 26.209ZM9.99902 25.537C10.163 25.8217 10.5751 26.1126 10.4794 26.4974C10.0583 26.3743 9.85359 26.0346 9.42281 25.9212C9.65156 26.2389 10.5246 27.6472 11.0554 27.6022C11.3941 27.5729 11.5473 27.199 11.4875 26.5937C11.228 26.0365 10.4017 25.7906 9.99902 25.537ZM12.4481 26.7855C12.5549 27.0791 12.5924 27.4415 12.9765 27.4576C12.9111 27.123 12.7157 26.9181 12.4481 26.7855ZM12.1119 26.9298C11.9329 26.9102 11.8303 26.9678 11.824 27.1215C11.8778 27.1321 11.8988 27.1747 11.9198 27.2175C12.0734 27.2115 12.1315 27.1089 12.1119 26.9298ZM20.3236 28.034C20.3736 27.7626 20.4245 27.2397 20.3236 26.9775C20.262 27.2472 20.03 27.854 20.3236 28.034ZM16.9622 27.0255C16.9989 27.3094 16.8616 27.7665 17.1062 27.8423C17.1169 27.6322 17.1659 27.159 16.9622 27.0255ZM19.2191 28.1301C19.0798 28.0066 18.8798 28.1933 18.7869 28.0823C18.6887 27.7644 18.7294 27.3077 18.4508 27.1698C18.4191 27.1698 18.3868 27.1698 18.355 27.1698C17.9595 27.9889 17.9985 29.7487 18.6909 30.1949C18.8217 30.4165 18.8345 30.7558 19.1712 30.7714C19.448 30.5517 19.5159 30.1241 19.5554 29.6666C18.9544 29.5404 19.5143 28.5043 19.2191 28.1301ZM20.6599 28.6581C20.7191 28.2329 21.0826 27.6145 20.8039 27.1698C20.712 27.5906 20.5378 28.1837 20.6599 28.6581ZM12.2081 29.0428C12.2846 28.8233 12.2245 28.451 12.064 28.3223C11.952 28.5326 11.8868 29.0168 12.2081 29.0428ZM13.0724 29.2346C13.2663 29.3608 13.2812 29.6659 13.5527 29.7149C13.8906 29.2836 13.2497 28.5235 13.0724 29.2346ZM21.2841 30.1949C21.2844 30.3421 21.0915 30.5434 21.2361 30.675C21.2639 30.556 21.41 30.3085 21.2841 30.1949ZM21.7161 32.0678C21.7141 31.846 21.7432 31.5931 21.6203 31.4918C21.5987 31.6628 21.472 32.0414 21.7161 32.0678ZM15.6176 34.037C15.6461 34.2158 15.6752 34.3952 15.8576 34.421C15.9754 34.2562 15.8884 33.9644 15.6176 34.037ZM17.7785 34.2772C17.8453 34.404 18.0373 34.6558 18.1625 34.5648C18.0514 34.4829 17.9232 34.1662 17.7785 34.2772ZM22.3404 34.8055C22.2055 35.3773 22.5248 35.8981 22.7727 36.2461C22.8742 35.6886 22.8647 34.8903 22.3404 34.8055ZM23.5412 38.5024C23.6138 38.3572 23.6394 37.9098 23.4932 37.8309C23.3667 38.0044 23.254 38.4196 23.5412 38.5024ZM25.7017 40.808C25.6322 40.4551 25.3557 40.074 25.0777 40.0872C25.1749 40.438 25.1918 40.8698 25.7017 40.808ZM26.1343 41.48C26.1363 41.7022 26.1075 41.9557 26.2302 42.056C26.2364 41.8264 26.2331 41.6052 26.1343 41.48ZM10.2871 41.5282C10.2878 41.7041 10.3819 41.7855 10.4794 41.8644C10.4602 41.707 10.4377 41.5541 10.2871 41.5282ZM27.8631 44.169C27.7448 43.2635 27.2686 42.7154 26.6626 42.2967C26.7493 43.2339 27.2086 43.7996 27.8631 44.169ZM35.5947 48.9234C35.5655 48.8962 35.3666 48.8114 35.3544 48.9234C35.4266 48.979 35.5567 49.0921 35.5947 48.9234ZM59.9416 52.477C59.9416 52.6535 59.9416 52.8289 59.9416 53.0053C59.8636 53.1676 59.8383 53.3821 59.7974 53.5814C58.462 54.439 55.9533 54.1233 54.851 55.2144C52.9178 54.173 51.1211 55.8133 49.0889 55.983C48.7532 56.0107 48.3798 55.9548 48.0318 55.983C46.8311 56.0799 45.6585 56.3607 44.4305 56.463C43.1713 56.5679 41.9095 56.6448 40.5889 56.7033C40.1084 56.7033 39.6285 56.7033 39.1484 56.7033C33.1923 56.3905 27.3034 55.5893 22.917 53.6297C20.7301 52.6526 18.7172 51.4539 16.8663 50.0279C15.0652 48.641 13.2163 47.099 11.9198 45.3701C10.5396 43.5289 9.15867 41.7385 7.93406 39.7038C6.7527 37.7399 5.64844 35.6712 4.66875 33.3647C3.70231 31.0903 3.01371 28.8397 2.36344 26.0654C1.9384 24.2509 1.4898 22.1965 0.730781 20.495C0.435234 19.8324 0.0911719 19.2901 0.0585938 18.6699C0.0585938 18.5262 0.0585938 18.3817 0.0585938 18.2379C0.29543 16.2208 1.8641 15.05 3.70816 14.492C4.16988 14.3524 4.61883 14.219 5.05277 13.9637C5.08102 13.9474 5.3577 13.9192 5.24508 13.7717C4.42348 13.574 3.74754 14.7837 2.84402 14.444C2.04188 14.1424 2.50371 12.9005 3.3723 12.5232C3.77777 12.3471 4.58285 12.3013 4.9568 12.091C5.60156 11.7287 5.89418 10.9631 5.77336 10.2662C5.70176 9.8544 5.27438 9.6376 5.29313 9.30573C5.31938 8.84295 6.14684 8.44053 6.54152 8.15319C7.02445 7.80174 7.59609 7.36276 7.55004 6.80858C7.50152 6.22967 6.82066 6.04522 6.49348 5.60811C5.97984 4.92209 5.8984 3.8967 6.73348 3.49487C7.60898 3.07358 9.24012 3.30315 9.42281 4.40741C9.58383 5.38065 8.89289 5.75143 9.18246 6.47225C9.72199 7.81358 13.9179 5.69037 12.8804 8.48928C13.8032 9.93573 17.4091 8.69834 17.4905 10.9864C18.9945 11.0167 19.6856 12.158 20.8999 12.6192C21.2254 12.7427 21.6129 12.7427 21.9565 12.8592C24.0045 13.5553 26.5423 14.302 27.3829 16.2688C26.6232 16.7805 25.5866 16.4379 24.6939 16.1247C23.9173 15.8521 22.7852 15.3121 22.0045 15.6444C21.2305 15.974 21.2719 17.2965 21.3803 18.6215C21.6686 22.1491 21.8377 25.7877 22.3405 28.9462C23.0428 33.3552 24.544 36.8864 26.6627 39.6553C28.7123 42.3341 31.1202 45.1392 34.2498 47.0988C36.8906 48.7517 39.8576 50.0559 43.6143 50.8922C44.1714 51.0165 44.8448 51.2879 45.1508 51.2284C45.6045 51.1412 46.5806 49.822 46.9281 49.4999C47.7541 48.7318 48.8657 47.6572 50.0489 48.5871C49.8881 49.8674 48.741 50.1613 48.4642 51.3248C49.1756 51.7775 49.9301 51.3677 50.8175 51.4203C51.8502 51.4817 52.642 52.0739 53.5071 51.9486C54.0592 51.8687 54.3355 51.4575 54.7555 51.1806C55.7097 52.5755 59.3884 50.7596 59.9416 52.477ZM49.5205 48.9234C49.5001 48.7685 49.5839 48.5082 49.4247 48.4917C49.2861 48.5619 49.1493 49.0033 49.5205 48.9234ZM25.3662 15.1162C25.8366 15.398 26.2507 15.7364 26.6626 16.0771C26.9106 15.3469 26.1989 14.8797 25.3662 14.9243C25.3662 14.988 25.3662 15.0521 25.3662 15.1162ZM38.2839 50.5082C38.467 50.5467 38.5996 50.5833 38.6201 50.3644C38.449 50.3532 38.3326 50.3961 38.2839 50.5082ZM31.6567 46.282C31.6405 46.5082 32.0967 46.5125 32.1854 46.4741C32.1103 46.324 31.8827 46.1291 31.6567 46.282ZM30.5041 45.3698C30.5841 45.4507 30.7862 45.4078 30.9363 45.418C30.9524 45.2421 30.8827 45.151 30.8404 45.0335C30.5879 45.0058 30.5182 45.1597 30.5041 45.3698ZM21.2841 25.7287C21.1538 25.6183 21.0592 25.8206 20.9959 25.7287C21.1523 24.5374 21.4037 22.7032 20.8999 21.6954C20.7754 21.5866 20.5782 21.7336 20.5159 21.6471C20.8512 20.8467 21.0776 19.1774 20.948 18.1896C20.9024 17.8414 20.7216 17.2222 20.5159 17.0851C19.9991 16.741 19.5288 17.2698 19.1711 17.3733C18.9459 17.4389 18.6956 17.392 18.4508 17.4211C17.4825 17.5378 16.455 17.8265 15.8098 18.1413C16.1461 18.3655 16.6228 18.4488 16.77 18.8615C15.9333 18.8024 15.2805 18.5589 14.5609 18.3815C14.6377 19.4649 13.309 19.1255 12.4962 19.1981C12.777 19.2042 12.822 19.3399 12.8324 19.5341C12.8658 20.1715 10.7684 20.9269 10.0471 20.4469C9.01828 21.2763 10.4998 22.1236 10.4312 23.1841C10.2289 23.334 10.1355 23.5925 9.95098 23.7599C8.92852 23.7847 7.85309 23.9904 8.0298 25.0567C7.89164 24.976 7.67367 24.9222 7.50152 25.0084C7.2402 25.6816 7.67895 26.4124 8.27016 26.5454C8.4191 26.5021 8.45379 26.3449 8.6543 26.3533C9.98977 26.6087 10.4599 27.4944 10.3832 29.1862C10.3698 29.4776 10.3988 29.8577 10.1911 30.051C9.43324 29.999 8.73059 28.1285 9.95086 28.0822C9.65824 27.6517 9.43664 27.0094 8.8943 27.0254C8.27262 27.0439 7.99359 28.0264 7.54969 28.3701C8.18953 28.7237 9.69223 29.6994 8.46199 30.339C9.07102 30.4303 9.41086 30.6718 9.66246 31.011C10.0818 31.5772 10.0684 32.4256 10.3829 32.8842C11.0194 33.8126 11.3554 32.0515 12.1114 32.7878C12.29 32.8492 12.0328 32.6143 12.0155 32.5962C11.3668 31.8958 10.3775 31.3219 9.99867 30.4831C10.2899 30.3497 10.6802 30.4953 10.9589 30.531C11.0691 29.9668 10.6771 29.3284 10.8149 28.8978C10.9141 28.5892 11.0973 28.7251 11.2952 28.61C11.4116 28.5423 11.3205 28.2901 11.5355 28.37C11.5342 29.0293 11.1369 30.1389 11.5832 30.6269C12.2348 30.7439 12.423 29.6232 12.9761 29.6185C13.285 29.6158 13.5769 30.1596 13.7923 30.4349C14.051 30.7652 14.4027 31.1712 14.3205 31.5391C14.1476 32.3149 12.8447 31.7243 12.3997 31.395C12.6709 32.4715 14.3395 32.6386 14.4165 34.0367C14.4253 34.1927 14.3466 34.3919 14.3686 34.5646C14.4629 35.3024 15.1509 35.8507 15.8571 35.3814C15.9609 35.646 15.9745 36.0007 16.2416 36.1016C16.4755 35.9038 16.3924 35.388 16.5295 35.0928C17.3674 35.2683 17.8049 35.6717 18.0661 36.3414C18.1955 36.6726 18.1621 37.2867 18.6904 37.3018C18.7712 36.4832 18.1297 35.9758 18.0183 35.1888C18.4487 35.8833 20.0013 36.6347 19.9392 37.7341C19.898 38.4593 19.0362 38.5382 18.2104 38.6464C18.9974 38.9169 19.327 39.7984 20.1792 40.0869C20.4082 40.1649 20.7023 40.0981 20.9475 40.1833C21.5711 40.4003 22.5681 41.6785 22.2923 42.4884C20.9637 43.158 19.927 41.3482 18.4505 41.3842C19.0731 42.178 20.0916 42.4421 20.9476 42.8248C21.8689 43.2361 22.7914 43.6575 23.6849 44.0731C25.791 45.0527 27.2529 46.3344 28.6313 47.963C27.6749 48.4844 24.7761 47.617 26.5182 47.002C25.9123 46.9815 25.2709 46.6015 24.7412 46.8105C25.022 48.6429 27.4328 48.3451 29.2555 48.635C29.0896 48.9493 28.8557 49.1959 28.6791 49.4995C28.8196 49.5824 29.0138 49.6126 29.2555 49.5955C29.1388 49.7826 28.8349 49.7831 28.8231 50.0755C29.0565 50.3864 29.5186 50.4688 29.8316 50.6997C31.0657 49.8148 31.2041 51.8225 31.9925 51.8523C32.7376 51.8801 32.8805 50.8094 33.6257 50.6997C33.4384 51.0892 33.072 51.2987 32.9054 51.7085C33.635 51.5321 33.843 51.1393 34.4414 50.9878C36.5857 50.4453 38.3435 52.2314 40.108 52.4289C40.7425 52.4995 41.3732 52.8558 41.933 52.9571C42.6567 53.0877 43.1017 52.8494 43.6616 52.5731C42.8088 51.7768 40.8507 52.0869 40.1563 51.1321C40.1831 50.9669 40.2961 50.888 40.3965 50.7963C38.1489 51.29 36.7337 49.9431 35.7864 48.6833C33.0135 47.9671 30.5808 46.9099 29.3992 44.6015C29.3425 44.3842 29.6121 44.4943 29.5437 44.2652C28.5688 43.1804 27.5944 42.0791 26.8064 40.8076C26.5341 40.3686 26.3476 39.8169 26.0379 39.4631C25.8417 39.2389 25.5125 39.1155 25.3177 38.8865C25.1043 38.6355 25.0752 38.3212 24.7411 38.2146C24.6127 38.4061 24.6988 38.812 24.5973 39.0308C24.3663 38.1035 23.8518 37.2228 22.8686 37.2058C22.8503 36.5314 23.3951 36.4203 23.6848 36.0533C23.3034 35.5948 23.2116 35.0173 23.0126 34.3248C22.5288 32.6421 22.1291 30.8843 21.7158 29.3303C21.1681 29.5347 21.0229 30.1419 20.7556 30.6269C20.7819 29.9332 20.8144 29.2451 21.1879 28.8978C21.3586 28.9193 21.3773 29.0928 21.4758 29.1861C21.566 28.8589 21.8756 28.5538 21.7158 28.1298C21.5918 27.9383 21.2293 28.0276 21.1398 28.0338C21.3768 27.4539 21.5757 26.4013 21.2841 25.7287ZM40.5888 54.2061C41.004 54.0287 41.3777 53.8104 41.5488 53.3893C41.0975 53.5024 40.4612 53.6729 40.5888 54.2061ZM40.6366 53.2455C40.3589 53.3994 40.0465 53.5199 39.8686 53.7738C40.2667 53.7976 40.7331 53.398 40.6366 53.2455ZM39.1482 53.9658C39.4201 53.8932 39.7111 53.6124 39.6765 53.3893C39.3608 53.421 38.8725 53.6461 39.1482 53.9658ZM39.3403 52.861C38.9081 52.7245 38.5553 53.0628 38.5235 53.4858C38.9086 53.3903 39.1692 53.1705 39.3403 52.861ZM37.9954 52.9575C37.5732 53.0311 37.2575 53.2108 37.1309 53.5813C37.6468 53.786 37.911 53.3426 37.9954 52.9575ZM37.3233 54.2061C37.4422 54.2129 37.5561 54.2148 37.5635 54.1097C37.4914 54.0335 37.2896 54.0394 37.3233 54.2061ZM38.0918 52.1408C37.4198 52.0892 36.6162 52.5253 37.0352 53.1013C37.4827 52.8762 37.9358 52.6574 38.0918 52.1408ZM34.778 53.0536C35.1976 53.1125 35.3073 52.6325 35.5948 52.7168C35.7615 52.822 35.6602 53.1958 35.9305 53.1974C36.5586 53.0696 36.7848 52.2125 36.4106 51.6126C35.5641 51.7616 34.7896 52.2275 34.778 53.0536ZM34.9699 51.8049C34.715 51.9341 34.4436 52.0462 34.298 52.2849C34.6121 52.2714 35.0801 51.9248 34.9699 51.8049ZM33.6259 52.0452C33.6527 52.1729 33.4281 52.2894 33.5771 52.3809C33.6171 52.3206 33.8697 52.0831 33.6259 52.0452ZM32.7614 53.1973C32.7463 53.2626 32.6927 53.2889 32.7137 53.3893C32.7771 53.3893 32.8414 53.3893 32.9058 53.3893C32.9188 53.2636 32.8876 53.1831 32.7614 53.1973ZM32.0412 52.9575C31.7985 52.9711 31.7067 53.1354 31.7048 53.3893C31.9139 53.3429 32.1045 53.2772 32.0412 52.9575ZM27.1904 50.5082C26.8945 50.4951 26.8043 50.5408 27.1427 50.6047C27.4651 50.6641 28.0338 50.6953 28.2473 50.6047C27.9939 50.6018 27.3389 50.5151 27.1904 50.5082ZM28.6315 49.7401C28.3802 49.5491 27.8752 49.6875 27.6231 49.7879C27.7685 50.1875 28.4827 50.0101 28.6315 49.7401ZM27.095 53.3415C28.2927 53.9692 29.9418 54.6544 31.6567 54.4459C30.4105 53.8357 28.5573 53.5754 27.095 53.3415ZM25.318 52.8132C25.4327 52.9707 25.7037 52.9717 25.894 53.0536C26.2485 52.7109 25.4693 52.5179 25.318 52.8132ZM20.8038 48.9234C20.4797 48.9517 20.127 48.9507 20.0355 49.2119C20.3443 49.3264 20.7912 49.2553 20.8038 48.9234ZM19.8913 50.1719C20.0041 50.2742 20.2117 50.3961 20.2755 50.1719C20.2259 50.1212 19.9328 50.073 19.8913 50.1719ZM20.4676 46.0901C20.5112 45.8893 20.1288 45.8134 20.0836 45.9942C20.1888 46.0486 20.28 46.1178 20.4676 46.0901ZM21.0921 47.7226C21.0898 47.6567 21.1147 47.6174 21.14 47.5788C20.997 47.431 20.7076 47.4048 20.4676 47.4828C20.5061 47.7138 20.8907 47.8103 21.0921 47.7226ZM21.1402 50.7967C21.2016 50.8621 21.3668 50.8621 21.4282 50.7967C21.4508 50.6456 21.3682 50.6003 21.2842 50.556C21.2411 50.6413 21.1682 50.6962 21.1402 50.7967ZM22.6289 45.2738C22.4725 44.8216 21.9623 44.9409 21.6203 44.7937C21.0705 44.5569 20.6012 43.9916 19.8914 43.9775C19.8595 43.9775 19.8273 43.9775 19.7957 43.9775C20.413 44.705 21.23 45.4868 22.6289 45.2738ZM20.1315 43.4975C19.6833 43.193 19.1923 42.9313 18.5468 42.8251C18.752 43.3401 19.5507 43.5176 20.1315 43.4975ZM21.6202 45.7539C21.9568 46.1058 22.3794 46.3718 23.1089 46.3299C22.8285 45.9537 22.1584 45.7124 21.6202 45.7539ZM23.445 47.9151C22.9506 47.5725 22.1729 47.0165 21.5242 47.1465C21.8994 47.6359 22.6538 48.0023 23.445 47.9151ZM21.6202 49.7401C21.6086 49.8084 21.5412 49.8206 21.5242 49.8834C21.6425 50.0379 21.8207 49.7723 21.6202 49.7401ZM22.7247 51.1807C22.7654 51.3638 22.9418 51.4117 23.1089 51.4687C23.1739 51.3576 23.3018 51.3094 23.2529 51.0847C23.1362 51.0145 22.7164 50.9741 22.7247 51.1807ZM23.6372 49.0677C23.4885 48.9766 22.9461 48.8748 22.8206 49.0677C23.0536 49.1623 23.5112 49.4069 23.6372 49.0677ZM23.7812 47.4346C23.8293 47.0774 23.4252 47.0758 23.2529 47.1943C23.2691 47.4346 23.5869 47.3733 23.7812 47.4346ZM24.3094 44.8415C24.0925 44.514 23.49 44.5725 23.0609 44.4575C22.7466 44.0628 21.995 43.9195 21.3321 44.0253C22.0914 44.5311 22.9549 44.9317 24.3094 44.8415ZM24.2134 49.4516C24.4197 49.6296 24.743 49.6904 25.0297 49.7879C25.0451 49.6748 25.1054 49.6076 25.0777 49.4516C24.9379 49.2903 24.3312 49.207 24.2134 49.4516ZM20.1315 41.672C20.1796 41.4479 20.0477 41.404 19.8434 41.4322C19.7709 41.6808 20.0105 41.6169 20.1315 41.672ZM21.2841 42.2485C21.1438 42.2129 21.191 41.9898 20.9959 42.0083C20.8189 42.1706 21.1377 42.4176 21.2841 42.2485ZM17.9706 42.5848C17.8112 42.2324 17.452 42.079 17.2023 41.8162C17.6706 41.1378 16.6257 40.8601 16.4339 40.3756C16.4317 40.2295 16.5353 40.189 16.5779 40.0871C16.1745 39.8508 15.7085 39.6764 15.4733 39.2714C15.6591 39.137 16.1542 39.3114 16.3376 39.1749C16.0467 39.0497 15.7327 38.9478 15.6173 38.6467C15.7857 38.2548 16.4704 38.3796 16.6257 37.9746C15.7985 37.7919 14.9767 37.3523 14.0804 37.3981C14.0906 37.7402 14.3951 37.7879 14.5126 38.0224C14.247 37.9044 14.032 37.7344 13.6484 37.7344C13.6196 37.9712 13.773 38.0258 13.7446 38.2626C13.4827 38.2841 13.3499 38.177 13.072 38.2149C13.2701 38.6569 13.778 38.7894 13.9366 39.2715C13.7402 39.3212 13.4736 39.1935 13.4084 39.2715C13.9153 39.6926 14.6557 40.1365 14.9448 40.6155C14.4731 40.5279 14.2031 40.2374 13.7446 40.1355C14.1285 40.8957 15.0633 41.0542 15.7614 41.4322C16.476 41.819 17.1163 42.443 17.9706 42.5848ZM16.914 43.1608C17.1148 43.2705 17.5144 43.6188 17.7785 43.3534C17.5559 43.2547 17.2056 43.0306 16.914 43.1608ZM16.53 42.9205C16.3949 42.7017 15.7055 42.5852 15.5217 42.7284C15.8351 42.8187 16.1304 43.0618 16.53 42.9205ZM15.6655 43.0648C15.6504 43.13 15.5973 43.1563 15.6176 43.2573C15.7021 43.2295 15.8996 43.3147 15.9057 43.209C15.8312 43.1555 15.8055 43.053 15.6655 43.0648ZM15.0413 36.6778C14.9102 36.2265 14.7353 35.732 14.3691 35.3815C14.1718 35.1924 13.9808 35.1963 13.8408 34.9487C13.4696 34.2957 13.6475 33.3738 13.1685 32.6924C13.0552 32.6555 12.8366 32.5973 12.7363 32.6924C12.7453 33.0072 13.4761 33.7539 12.9766 34.133C11.8723 34.1768 11.4471 33.2976 10.3835 33.4604C10.144 34.0808 10.9908 34.3996 10.7674 34.8533C12.2951 35.3436 13.5083 36.4059 15.0413 36.6778ZM11.5836 38.1184C11.8658 38.3333 12.2738 38.6769 12.6402 38.6467C12.3499 38.441 12.0829 37.9567 11.5836 38.1184ZM11.0554 37.6867C10.9308 37.2991 10.7148 37.0029 10.239 36.9664C10.3358 37.3815 10.7869 37.443 11.0554 37.6867ZM10.239 38.9352C10.4961 39.1111 10.7515 39.5423 11.0074 39.5594C10.8203 39.3143 10.5922 38.8548 10.239 38.9352ZM10.5754 35.6214C10.6002 35.5502 10.6461 35.5005 10.6713 35.4293C10.5482 35.2597 10.2445 35.3523 10.1912 35.5257C10.2857 35.5911 10.4654 35.5717 10.5754 35.6214ZM18.0188 37.5423C18.012 37.1291 17.5529 36.8893 17.2023 37.1105C17.3134 37.4156 17.6482 37.4966 18.0188 37.5423ZM13.5043 31.252C13.5124 31.1726 13.2087 31.1726 13.2164 31.252C13.2823 31.2665 13.5061 31.4688 13.5043 31.252ZM11.6319 31.0595C11.5678 31.0595 11.5037 31.0595 11.4396 31.0595C11.3736 31.1212 11.3921 31.2685 11.3916 31.3952C11.4793 31.4083 11.6609 31.5687 11.7279 31.4439C11.6091 31.402 11.7417 31.1096 11.6319 31.0595ZM8.02992 31.0112C8.18906 31.3733 8.83324 31.3465 8.94246 30.9635C8.66918 30.8577 8.26664 30.9313 8.02992 31.0112ZM8.1743 29.6666C7.98855 29.6573 7.82027 29.6651 7.69371 29.7149C7.73109 29.9244 8.17301 29.8871 8.1743 29.6666ZM8.60625 21.9354C8.35945 22.0494 7.84477 21.8211 7.59797 21.9354C7.81652 22.8006 9.43641 22.3347 9.32684 21.6471C9.23379 21.0637 7.69336 21.2082 7.16578 21.2631C7.57465 21.5584 8.22457 21.6128 8.60625 21.9354ZM6.68555 22.8477C6.7759 22.9815 7.02422 22.9571 7.16578 23.0397C7.19355 22.9397 7.28496 22.9029 7.26176 22.7517C7.13578 22.6851 6.6825 22.6328 6.68555 22.8477ZM9.13477 22.6557C9.10887 22.7605 9.01828 22.9664 9.18246 22.9919C9.29684 22.9113 9.27293 22.7253 9.13477 22.6557ZM10.4794 19.7743C10.4667 19.6339 10.5878 19.6271 10.5754 19.4863C10.3801 19.4672 10.2405 19.5037 10.239 19.6782C10.3304 19.6991 10.3596 19.7817 10.4794 19.7743ZM10.4313 9.11354C10.2401 10.2854 11.2959 11.703 12.5441 11.2744C12.6023 10.8321 12.4005 10.6499 12.4001 10.2661C12.7186 10.1889 12.9061 10.4947 13.0723 10.4101C12.6052 9.56483 11.3626 9.49487 10.4313 9.11354ZM9.90281 8.00905C10.3249 8.0926 10.9874 8.0503 11.1516 7.72088C10.8327 7.50784 9.87598 7.45077 9.90281 8.00905ZM8.75027 4.64741C8.84262 3.71471 7.70285 3.19932 7.02176 3.83119C6.59602 4.22588 6.41109 5.17909 7.06969 5.51201C6.99492 5.26639 6.7766 5.16479 6.82969 4.79178C7.3302 4.50561 8.24789 4.93135 8.75027 4.64741ZM8.41453 7.72077C8.53664 7.65104 8.72004 7.64272 8.70258 7.43272C8.55492 7.4476 8.30332 7.60674 8.41453 7.72077ZM7.40578 11.2744C8.00461 11.2885 8.45613 10.9508 9.03856 10.9384C9.5427 10.9277 10.0232 11.0777 10.6233 11.0344C10.1947 9.77659 8.11242 10.875 7.40578 11.2744ZM6.49348 13.4835C7.62656 13.3394 9.2052 12.5939 10.7194 12.7632C11.2905 12.827 11.7908 13.1484 12.1119 13.3875C11.9482 13.2128 11.7543 12.4957 12.1119 12.3792C12.9 12.5293 12.9263 14.0183 13.8887 13.8198C14.379 13.7187 14.5283 12.7676 14.273 12.187C14.6394 12.4448 14.8282 12.8803 15.3295 13.0035C15.2152 12.5415 14.8827 12.2976 14.6573 11.9469C14.7989 11.7685 14.9843 11.6335 14.9453 11.2744C13.571 11.1423 12.3512 11.8841 11.0555 12.1389C10.0499 12.3369 9.30152 12.5331 8.41465 12.7631C7.74785 12.936 7.00594 13.0572 6.49348 13.4835ZM2.45965 23.4241C2.39367 23.4853 2.37598 23.711 2.50758 23.7122C2.54707 23.6774 2.63648 23.3798 2.45965 23.4241ZM4.14012 17.7096C2.03437 18.0437 4.27887 20.2831 5.53301 19.7266C5.6918 19.4828 5.64246 19.2593 5.62898 18.9098C6.35965 18.9814 6.90938 18.6255 7.55004 18.766C7.6534 18.9893 7.45793 19.1783 7.4059 19.3901C9.58477 19.2519 10.6636 17.5399 13.0242 17.2773C13.3175 17.2446 13.6519 17.2965 13.9849 17.2773C14.979 17.2193 16.0802 17.0351 17.1063 16.845C18.1131 16.6589 19.0336 16.2887 19.8914 16.0769C20.968 15.8108 22.6058 15.1077 22.3888 13.6756C22.3639 13.5126 22.2509 13.3662 22.1486 13.1954C16.4258 12.6421 12.1471 14.8855 7.64613 15.7887C7.10543 15.8971 6.44801 15.825 6.01324 16.2687C6.17051 16.6556 6.72316 16.6473 6.97348 16.941C6.84832 17.0877 6.53883 17.0502 6.49348 17.2773C6.59941 17.6835 7.20152 17.593 7.26176 18.0458C6.30586 18.7196 4.30148 17.8602 4.76461 16.509C3.32027 16.8255 1.21734 17.1401 1.21113 18.766C1.2082 19.4826 1.63535 20.1455 2.12332 20.5428C1.79273 19.0299 2.35465 16.7928 4.14012 17.7096ZM5.91715 26.6896C5.96086 26.3644 5.42637 26.1367 5.24496 26.3536C5.42191 26.5126 5.69895 26.5713 5.91715 26.6896ZM4.23633 27.3138C4.57594 28.4946 4.68645 29.9052 5.58094 30.5313C5.44629 29.1452 4.95445 28.1164 4.23633 27.3138ZM6.25324 26.0653C6.40277 25.3874 5.4082 25.1218 5.34094 25.5849C5.28223 25.9883 5.9182 25.9414 6.25324 26.0653ZM6.44543 24.7685C6.22863 24.5314 5.68453 24.3845 5.29301 24.4805C5.43117 24.8204 6.28125 25.3235 6.44543 24.7685ZM5.86922 22.6557C6.08613 22.5205 6.31629 22.3981 6.34922 22.0792C6.07055 21.8706 5.4034 21.8412 5.34094 22.1757C5.29371 22.4286 5.63262 22.5312 5.86922 22.6557ZM6.49348 23.4719C6.51445 23.3069 6.47449 23.203 6.44543 23.0877C6.1991 23.0816 6.08414 23.2066 6.06129 23.4241C6.18082 23.4644 6.31852 23.4868 6.49348 23.4719ZM3.13195 23.2319C3.09492 23.1089 3.08391 22.9597 2.98793 22.8958C2.86852 23.0251 2.86395 23.2572 3.13195 23.2319ZM3.61219 19.9666C3.39668 19.8826 3.0777 19.9722 2.98793 20.1586C3.08871 20.2495 3.23379 20.297 3.37207 20.3504C3.42059 20.1915 3.63773 20.2003 3.61219 19.9666ZM4.14012 26.1613C4.0159 25.8854 4.00031 25.5009 3.75621 25.3451C3.09867 25.4386 3.75012 26.3832 4.14012 26.1613ZM5.05266 31.3474C5.52152 32.481 6.01641 33.7062 7.02176 34.2286C6.27 33.3922 6.09258 32.0083 5.58094 31.0112C5.40398 30.6671 5.12168 30.3996 4.95668 30.0511C4.56844 29.2304 4.38949 28.2729 3.61219 27.89C3.91852 29.0976 4.57465 30.1905 5.05266 31.3474ZM18.2589 49.3557C17.9682 48.366 17.1881 47.8649 16.0978 47.6749C15.8283 47.0321 15.0504 46.8981 14.8973 46.1383C14.8725 45.9824 15.1948 45.9273 15.0897 45.8503C13.6281 46.1271 13.5765 44.578 12.8805 43.9292C11.1243 43.961 11.451 41.788 10.4795 40.6642C10.202 40.3426 9.92684 40.2684 9.615 39.9439C9.13512 38.4567 7.88273 37.7023 7.1659 36.3905C6.52922 35.2248 6.39527 33.9099 5.34117 33.0766C6.1752 35.9003 7.96195 38.2871 9.56707 40.6643C10.8519 42.5662 11.7257 44.3777 13.1686 45.8982C13.6589 46.4142 14.2125 46.7598 14.8015 47.2427C15.8033 48.0642 16.4932 49.5881 18.2589 49.3557ZM18.0666 46.0901C18.0149 45.8844 17.6445 45.7456 17.4423 45.8503C17.6285 45.9527 17.8331 46.0356 18.0666 46.0901ZM19.8434 44.8415C19.518 44.4624 18.837 44.3181 18.2107 44.0734C17.4339 43.7693 16.3255 43.4813 15.7617 43.8331C15.8184 44.3044 16.1938 44.4574 16.4339 44.7455C17.1011 44.8482 17.4829 45.1738 18.1145 45.2255C18.859 45.287 19.5543 45.2538 19.8434 44.8415ZM42.7496 55.7908C41.2965 55.1281 39.1654 55.8737 37.6112 55.5023C37.3179 55.4321 37.0586 55.2305 36.795 55.2143C36.5329 55.1982 36.2277 55.3366 35.9787 55.3585C34.6478 55.4769 33.4328 55.3454 32.1853 55.166C31.31 55.0403 30.3778 54.991 29.5917 54.782C28.8388 54.5822 28.0601 54.1212 27.2866 53.8215C26.5018 53.5179 25.6848 53.2153 24.9336 52.9092C23.4517 52.3055 21.8767 51.2606 20.3235 50.8445C21.3713 51.9575 23.1751 52.3152 24.4056 53.2455C22.6668 52.7592 21.3547 51.8464 19.7954 51.1807C21.0103 52.2684 22.7055 52.9272 24.4056 53.6294C26.0986 54.3293 27.9383 54.9213 29.9277 55.2142C33.8794 55.7962 38.5143 56.6607 42.7496 55.7908ZM43.9982 55.6466C43.7516 55.6564 43.4445 55.6051 43.4222 55.8387C43.6311 56.018 43.9826 55.9993 43.9982 55.6466ZM46.5913 49.9799C46.6595 50.3347 47.1747 50.2289 47.12 49.8357C46.8582 49.7986 46.7448 49.9098 46.5913 49.9799ZM50.5771 52.477C49.2861 52.4458 47.6937 51.9999 46.3509 52.0452C45.8358 52.0623 45.2097 52.1856 45.0546 52.7167C45.4508 52.8774 45.8753 52.781 46.3509 52.7654C47.9085 52.7128 49.8116 53.4126 50.5771 52.477ZM51.8739 52.3809C51.6492 52.3805 51.583 52.5389 51.5377 52.7167C51.5994 52.7829 51.7461 52.7649 51.8739 52.7654C51.851 52.553 51.9397 52.5262 51.8739 52.3809ZM54.7072 52.1891C54.4729 52.1535 54.3856 52.4449 54.467 52.5735C54.618 52.5963 54.6546 52.5048 54.7554 52.477C54.7901 52.3303 54.6725 52.3357 54.7072 52.1891ZM58.6927 52.477C57.7096 52.3722 56.5615 52.4371 55.6677 52.5735C56.194 53.069 58.0843 52.7528 58.6927 52.477ZM12.4962 23.2796C12.9698 23.5428 13.407 24.0974 14.033 24.0481C13.8639 23.8172 13.6241 23.6566 13.4564 23.4241C13.6348 23.4101 13.7863 23.3699 13.8407 23.2319C13.2566 22.8233 12.5075 22.3242 12.208 21.7909C12.4057 22.174 12.7083 22.7843 12.4962 23.2796ZM18.643 23.6642C18.5402 23.559 18.5865 23.3041 18.4507 23.2321C18.4201 23.441 18.5554 23.7331 18.643 23.6642ZM14.2249 27.8423C14.2985 28.633 14.8038 28.9915 14.8492 29.8111C14.2879 29.1719 13.9745 28.2845 13.6007 27.4576C13.564 28.4578 13.8663 29.0775 14.1289 29.7631C14.3311 30.29 14.5206 30.9084 15.0413 31.0596C15.2844 31.0142 15.2708 30.712 15.5218 30.6751C15.7888 30.7135 15.9278 31.1326 16.0978 31.1078C15.9696 30.9636 15.9297 30.7316 15.9057 30.4835C15.9522 30.3056 16.2064 30.3358 16.2898 30.195C15.8068 29.2056 15.1146 28.4249 14.2249 27.8423Z" fill="#FAFAFA"/>
</svg>
