<svg width="60" height="60" viewBox="0 0 60 60" fill="none" xmlns="http://www.w3.org/2000/svg">
<g clip-path="url(#clip0_75_18)">
<path d="M60 0H0V60H60V0Z" fill="#F1DC50"/>
<path d="M30.5909 26.6665C30.5909 36.1649 30.5909 41.4982 30.5909 42.6665C30.5909 44.4189 29.5346 46.6665 26.5505 46.6665C21.7316 46.6665 21.5 42.6665 21.5 42.6665M48.3484 31.6986C47.1361 29.6772 45.5291 28.6665 43.5273 28.6665C40.4017 28.6665 38.6717 30.6665 38.6717 32.6665C38.6717 34.6665 39.6818 36.6665 43.7392 37.6665C46.3211 38.3028 48.7727 39.6665 48.7727 42.6665C48.7727 45.6665 46.1152 46.6665 43.7222 46.6665C40.664 46.6665 38.6438 45.3332 37.6616 42.6665" stroke="#333333" stroke-width="4"/>
</g>
<defs>
<clipPath id="clip0_75_18">
<rect width="60" height="60" rx="8" fill="white"/>
</clipPath>
</defs>
</svg>
