<svg width="60" height="60" viewBox="0 0 60 60" fill="none" xmlns="http://www.w3.org/2000/svg">
<path d="M29.9898 34.4873C32.9473 34.4873 35.3448 32.0898 35.3448 29.1323C35.3448 26.1749 32.9473 23.7773 29.9898 23.7773C27.0323 23.7773 24.6348 26.1749 24.6348 29.1323C24.6348 32.0898 27.0323 34.4873 29.9898 34.4873Z" fill="#00D8FF"/>
<path d="M29.9894 19.5229C36.9095 19.5229 43.4831 20.4985 48.4806 22.219C54.031 24.1297 57.4166 26.9547 57.4166 29.1314C57.4166 31.45 53.7602 34.4601 47.8233 36.4272C43.0968 37.9931 36.7731 38.8467 29.9894 38.8467C22.863 38.8467 16.4679 38.0098 11.7963 36.413C8.87167 35.4133 6.45642 34.1142 4.80093 32.6965C3.31332 31.4225 2.56228 30.1577 2.56228 29.1314C2.56228 26.9474 5.81835 24.1616 11.249 22.2682C16.2486 20.5252 22.9831 19.5229 29.9894 19.5229ZM29.9894 16.9606C22.711 16.9606 15.6944 18.005 10.4055 19.8488C4.05536 22.0627 0 25.5323 0 29.1314C0 32.8486 4.35351 36.5768 10.9676 38.8375C15.9392 40.5369 22.6031 41.409 29.9894 41.409C37.0289 41.409 43.6186 40.5195 48.6292 38.8594C55.5051 36.5812 59.9789 32.8982 59.9789 29.1314C59.9789 25.5193 55.7927 22.0263 49.3147 19.7962C44.0322 17.9776 37.1793 16.9606 29.9894 16.9606ZM21.6196 24.358C25.0766 18.3634 29.2057 13.1563 33.1928 9.6865C37.6208 5.83297 41.7594 4.31139 43.645 5.39876C45.6536 6.55703 46.4345 11.2283 45.1726 17.3539C44.1679 22.2306 41.7482 28.1351 38.3593 34.0116C34.7991 40.185 30.8794 45.3067 27.1622 48.5559C24.8352 50.5901 22.5032 52.0333 20.448 52.7592C18.6013 53.4114 17.1304 53.4301 16.2413 52.9174C14.3494 51.8263 13.5628 47.614 14.6357 41.9638C15.6233 36.7621 18.1193 30.4275 21.6196 24.358ZM19.3999 23.0779C15.7637 29.3833 13.1631 35.9832 12.1184 41.4858C10.8639 48.0927 11.8435 53.339 14.9612 55.137C18.1814 56.994 23.586 55.0853 28.8485 50.4851C32.8044 47.0272 36.8889 41.6902 40.5789 35.2916C44.0956 29.1936 46.6171 23.0407 47.6822 17.8709C49.1437 10.7764 48.1882 5.06086 44.925 3.17911C41.796 1.3747 36.6788 3.25607 31.5107 7.75365C27.2963 11.4213 22.9917 16.8497 19.3999 23.0779ZM21.6276 34.0255C18.1606 28.0368 15.7114 21.8588 14.6966 16.6718C13.5694 10.911 14.318 6.56551 16.2018 5.47499C18.2084 4.31329 22.6455 5.96959 27.3221 10.1221C31.0455 13.428 34.9524 18.473 38.3512 24.344C41.9217 30.5115 44.4014 36.4653 45.36 41.3084C45.9602 44.3404 46.046 47.0815 45.6484 49.2245C45.2912 51.1502 44.5728 52.4339 43.6846 52.9481C41.7944 54.0423 37.7522 52.6201 33.3928 48.8687C29.3796 45.4153 25.138 40.0892 21.6276 34.0255ZM19.4101 35.3093C23.0569 41.6086 27.4761 47.1577 31.7215 50.8109C36.819 55.1974 41.8535 56.9687 44.9683 55.1655C48.1854 53.3032 49.2308 47.6676 47.8736 40.8109C46.8533 35.6567 44.2693 29.4526 40.5687 23.0603C37.0417 16.968 32.9705 11.7106 29.0234 8.20609C23.607 3.39676 18.1781 1.3702 14.9181 3.2575C11.7921 5.06714 10.8664 10.4402 12.182 17.1638C13.2547 22.6466 15.8079 29.087 19.4101 35.3093Z" fill="#00D8FF"/>
</svg>
