<svg width="60" height="60" viewBox="0 0 60 60" fill="none" xmlns="http://www.w3.org/2000/svg">
<g clip-path="url(#clip0_75_35)">
<path d="M30 60C46.5685 60 60 46.5685 60 30C60 13.4315 46.5685 0 30 0C13.4315 0 0 13.4315 0 30C0 46.5685 13.4315 60 30 60Z" fill="#4353FF"/>
<path d="M23.4123 28.9805C23.4123 28.3131 22.7637 27.6047 21.6404 27.6047C20.3795 27.6047 18.9943 28.5299 18.7828 30.375C18.5666 32.2389 19.7262 33.0674 20.8922 33.0674C22.0582 33.0674 22.6729 32.6115 23.2992 32.0045C22.7607 31.3277 22.0687 31.6412 21.9322 31.7115C21.7117 31.8342 21.462 31.8949 21.2098 31.8873C20.7586 31.8873 20.2986 31.6846 20.2986 30.8426C23.1914 30.5543 23.4123 29.6484 23.4123 28.9805ZM21.9809 29.0906C21.9627 29.2975 21.8795 29.652 20.4164 29.8523C20.7246 28.7572 21.3141 28.674 21.5854 28.674C21.6398 28.6718 21.6941 28.6812 21.7446 28.7017C21.7951 28.7221 21.8406 28.7532 21.8781 28.7927C21.9156 28.8322 21.9443 28.8793 21.9621 28.9308C21.9799 28.9823 21.9865 29.037 21.9814 29.0912L21.9809 29.0906ZM17.0842 29.2699C17.0842 29.2699 16.4631 31.2211 16.4121 31.3793C16.3945 31.217 15.9375 27.7148 15.9375 27.7148C14.8793 27.7148 14.3133 28.4695 14.0139 29.2658C14.0139 29.2658 13.2592 31.2217 13.1936 31.3875C13.1889 31.2357 13.0764 29.2893 13.0764 29.2893C13.0119 28.3137 12.1189 27.7201 11.3965 27.7201L12.2707 33.0264C13.3799 33.0217 13.9781 32.2717 14.291 31.4754C14.291 31.4754 14.9584 29.7498 14.9859 29.6713C14.9906 29.7451 15.4646 33.0264 15.4646 33.0264C16.5779 33.0264 17.1768 32.3232 17.4984 31.5539L19.0582 27.7207C17.9637 27.7195 17.3836 28.4701 17.0848 29.2705L17.0842 29.2699ZM27.4986 27.5977C26.8131 27.5977 26.2881 27.9703 25.8463 28.5182V28.5135L26.2418 25.3242C25.3307 25.3242 24.5895 26.1158 24.4471 27.2936L23.7568 32.9859C24.2842 32.9859 24.8385 32.8342 25.1373 32.4475C25.2825 32.6443 25.4727 32.8034 25.6922 32.9115C25.9116 33.0196 26.1537 33.0734 26.3982 33.0686C27.9352 33.0686 28.9893 31.2832 28.9893 29.608C28.9805 28.0787 28.2422 27.5977 27.4986 27.5977ZM27.3563 30.3357C27.1951 31.2697 26.6754 31.9049 26.1738 31.9049C25.6723 31.9049 25.4514 31.6793 25.4514 31.6793C25.548 30.859 25.6078 30.3586 25.7918 29.9262C25.9758 29.4937 26.4129 28.8035 26.8687 28.8035C27.3146 28.8012 27.5174 29.3947 27.3563 30.3334V30.3357ZM32.8277 27.7219H31.7578L31.7625 27.6668C31.8363 26.9672 32.0016 26.5992 32.5494 26.5395C32.9221 26.5025 33.0879 26.3092 33.1295 26.0977C33.1617 25.9318 33.2631 25.357 33.2631 25.357C31.1092 25.343 30.433 26.2729 30.2578 27.6902L30.2531 27.7225H30.2303C29.8787 27.7225 29.4938 28.118 29.4293 28.6201L29.4064 28.8041H30.1242L29.5213 33.7846L29.3373 34.6775C29.3602 34.6775 29.3877 34.6822 29.4111 34.6822C30.4189 34.6453 31.0635 33.849 31.2059 32.6941L31.6746 28.8053H32.0104C32.3414 28.8053 32.7281 28.4742 32.7973 27.9217L32.8277 27.7219ZM38.4053 27.6299C37.1672 27.6299 35.9982 28.541 35.6396 29.9736C35.2811 31.4062 35.8236 33.0984 37.6459 33.0984C39.4682 33.0984 40.5129 31.3359 40.5129 29.8682C40.5129 28.4057 39.5238 27.6275 38.4053 27.6275V27.6299ZM38.9068 30.29C38.8424 30.9387 38.5553 31.9236 37.7748 31.9236C36.9943 31.9236 37.098 30.7734 37.1766 30.2244C37.2592 29.6385 37.5867 28.807 38.2898 28.807C38.9209 28.8059 38.9807 29.5559 38.9062 30.2877L38.9068 30.29ZM46.6289 29.2705C46.6289 29.2705 46.0078 31.2217 45.9568 31.3799C45.9387 31.2141 45.4828 27.7119 45.4828 27.7119C44.4246 27.7119 43.8586 28.4666 43.5592 29.2629C43.5592 29.2629 42.8045 31.2187 42.7389 31.3846C42.7342 31.2328 42.6217 29.2863 42.6217 29.2863C42.5572 28.3107 41.6643 27.7172 40.9418 27.7172L41.8113 33.0234C42.9205 33.0187 43.5187 32.2687 43.8316 31.4725C43.8316 31.4725 44.499 29.7469 44.5219 29.6684C44.5312 29.7422 45.0006 33.0234 45.0006 33.0234C46.1139 33.0234 46.7127 32.3203 47.0344 31.551L48.5941 27.7178C47.5031 27.7195 46.9236 28.4701 46.6289 29.2705ZM33.8402 25.3541L32.9385 32.6303L32.7539 33.5273C32.7768 33.5273 32.8043 33.532 32.8277 33.532C33.7986 33.518 34.4889 32.6666 34.6178 31.5943L35.1381 27.4219C35.2945 26.1457 34.5352 25.3541 33.8402 25.3541Z" fill="#FAFAFA"/>
</g>
<defs>
<clipPath id="clip0_75_35">
<rect width="60" height="60" fill="white"/>
</clipPath>
</defs>
</svg>
