<svg width="390" height="32" viewBox="0 0 390 32" fill="none" xmlns="http://www.w3.org/2000/svg">
<g clip-path="url(#clip0_158_163)">
<path d="M390 2.75742V2.63416C357.5 2.26594 325 2.1625 292.5 2.03522C260.001 1.93983 227.5 2.06278 195 2.11481L1.43051e-05 2.45919V2.58245L195 3.1018C227.499 3.18294 259.999 3.3353 292.5 3.26902C324.999 3.17085 357.5 3.09653 390 2.75742Z" fill="url(#paint0_linear_158_163)"/>
<path d="M375 12.0426V11.9193C345 11.5514 315 11.4477 285 11.3204C255 11.225 225 11.3479 195 11.4L15 11.7443V11.8679L195 12.3873C225 12.4684 254.999 12.6205 285 12.5542C315 12.456 345 12.3814 375 12.0426Z" fill="url(#paint1_linear_158_163)"/>
<path d="M365 21.3282V21.205C336.667 20.8371 308.334 20.7333 280 20.606C251.667 20.5106 223.334 20.6336 195 20.6856L25 21.03V21.1532L195 21.6726C223.333 21.7537 251.666 21.9058 280 21.8398C308.333 21.7417 336.666 21.667 365 21.3282Z" fill="url(#paint2_linear_158_163)"/>
<path d="M390 30.6134V30.5517V30.4901C357.5 30.1219 325 30.0185 292.5 29.8912C260.001 29.7958 227.5 29.9187 195 29.9708L1.43051e-05 30.3151V30.4384L195 30.9578C227.499 31.0389 259.999 31.1909 292.5 31.125C324.999 31.0268 357.5 30.9525 390 30.6134Z" fill="url(#paint3_linear_158_163)"/>
<path opacity="0.5" d="M390 0H0V32H390V0Z" fill="#242424"/>
</g>
<defs>
<linearGradient id="paint0_linear_158_163" x1="195" y1="2" x2="195" y2="3.28529" gradientUnits="userSpaceOnUse">
<stop stop-color="#4A90E2"/>
<stop offset="1" stop-color="#974A8A" stop-opacity="0.9"/>
</linearGradient>
<linearGradient id="paint1_linear_158_163" x1="195" y1="11.2852" x2="195" y2="12.5705" gradientUnits="userSpaceOnUse">
<stop stop-color="#4A90E2"/>
<stop offset="1" stop-color="#974A8A" stop-opacity="0.9"/>
</linearGradient>
<linearGradient id="paint2_linear_158_163" x1="195" y1="20.5708" x2="195" y2="21.856" gradientUnits="userSpaceOnUse">
<stop stop-color="#4A90E2"/>
<stop offset="1" stop-color="#974A8A" stop-opacity="0.9"/>
</linearGradient>
<linearGradient id="paint3_linear_158_163" x1="195" y1="29.856" x2="195" y2="31.1411" gradientUnits="userSpaceOnUse">
<stop stop-color="#4A90E2"/>
<stop offset="1" stop-color="#974A8A" stop-opacity="0.9"/>
</linearGradient>
<clipPath id="clip0_158_163">
<rect width="390" height="32" fill="white"/>
</clipPath>
</defs>
</svg>
