<svg width="60" height="60" viewBox="0 0 60 60" fill="none" xmlns="http://www.w3.org/2000/svg">
<path fill-rule="evenodd" clip-rule="evenodd" d="M19.3218 27.9966C19.0044 27.5812 18.4934 27.362 17.9741 27.4184C17.4546 27.4749 17.0027 27.7988 16.7819 28.2729L3.91236 54.0219C3.67399 54.4993 3.69947 55.0658 3.97971 55.5195C4.25995 55.9734 4.755 56.2497 5.28807 56.2497H23.2083C23.7946 56.2632 24.334 55.9297 24.584 55.3988C28.4495 47.4052 26.1067 35.2511 19.3218 27.9966Z" fill="url('#paint0_linear_75_61')"></path>
<path fill-rule="evenodd" clip-rule="evenodd" d="M28.7616 4.57605C22.2376 14.6211 21.4847 27.3626 26.7799 38.1071L35.4196 55.3983C35.6799 55.9197 36.2126 56.2492 36.7951 56.2492H54.7121C55.2452 56.2492 55.7403 55.9729 56.0205 55.5192C56.3007 55.0653 56.3263 54.4988 56.0878 54.0217C56.0878 54.0217 31.9835 5.77319 31.3778 4.56638C31.1332 4.06514 30.624 3.74795 30.0666 3.75001C29.5093 3.75209 29.0022 4.07299 28.7616 4.57605Z" fill="#2684FF"></path>
<defs>
<linearGradient id="paint0_linear_75_61" x1="26.3747" y1="31.9706" x2="8.32357" y2="51.3475" gradientUnits="userSpaceOnUse">
<stop stop-color="#0052CC"></stop>
<stop offset="0.923" stop-color="#2684FF"></stop>
</linearGradient>
</defs>
</svg>
