<svg width="600" height="32" fill="none" xmlns="http://www.w3.org/2000/svg"><path d="M595 2.757v-.123c-49.166-.368-98.333-.471-147.499-.599-49.167-.095-98.334.028-147.5.08L5 2.459v.123l294.999.52c49.167.08 98.333.233 147.5.167 49.167-.098 98.334-.172 147.501-.512Z" fill="url('#paint0_linear_161_170')"/><path d="M480 12.043v-.124c-30-.368-60-.471-90-.599-30-.095-60 .028-90 .08l-180 .344v.124l180 .52c30 .08 59.999.232 90 .166 30-.098 60-.173 90-.511Z" fill="url('#paint1_linear_161_170')"/><path d="M470 21.328v-.123c-28.333-.368-56.666-.472-85-.599-28.333-.095-56.666.028-85 .08l-170 .344v.123l170 .52c28.333.08 56.666.233 85 .167 28.333-.098 56.666-.173 85-.512Z" fill="url('#paint2_linear_161_170')"/><path d="M570 30.613v-.123c-45-.368-90-.471-134.999-.599-45-.095-90.001.028-135 .08L30 30.315v.123l269.999.52c45 .08 90 .233 135 .167 45-.098 90.001-.172 135.001-.512Z" fill="url('#paint3_linear_161_170')"/><path opacity=".5" d="M600 0H0v32h600V0Z" fill="#242424"/><defs><linearGradient id="paint0_linear_161_170" x1="300" y1="2" x2="300" y2="3.285" gradientUnits="userSpaceOnUse"><stop stop-color="#4A90E2"/><stop offset="1" stop-color="#974A8A" stop-opacity=".9"/></linearGradient><linearGradient id="paint1_linear_161_170" x1="300" y1="11.285" x2="300" y2="12.57" gradientUnits="userSpaceOnUse"><stop stop-color="#4A90E2"/><stop offset="1" stop-color="#974A8A" stop-opacity=".9"/></linearGradient><linearGradient id="paint2_linear_161_170" x1="300" y1="20.571" x2="300" y2="21.856" gradientUnits="userSpaceOnUse"><stop stop-color="#4A90E2"/><stop offset="1" stop-color="#974A8A" stop-opacity=".9"/></linearGradient><linearGradient id="paint3_linear_161_170" x1="300" y1="29.856" x2="300" y2="31.141" gradientUnits="userSpaceOnUse"><stop stop-color="#4A90E2"/><stop offset="1" stop-color="#974A8A" stop-opacity=".9"/></linearGradient></defs></svg>