<svg width="1440" height="32" fill="none" xmlns="http://www.w3.org/2000/svg"><g clip-path="url('#clip0_84_3851')"><path d="M1120 3.616v-.123c-66.67-.368-133.333-.472-199.999-.599-66.667-.095-133.334.028-200 .08L320 3.318v.123l399.999.52c66.667.08 133.333.233 200 .167 66.667-.098 133.331-.173 200.001-.512Z" fill="url('#paint0_linear_84_3851')"/><path d="M1440 12.902v-.124c-120-.368-240-.472-360-.599-119.998-.095-239.999.028-359.999.08L0 12.603v.124l719.999.52c119.999.08 239.999.232 360.001.166 120-.098 240-.173 360-.511Z" fill="url('#paint1_linear_84_3851')"/><path d="M1320 22.187v-.123c-100-.368-200-.472-300-.6-99.998-.095-199.999.029-299.999.08L120 21.89v.123l599.999.52c99.999.08 199.999.233 300.001.167 100-.099 200-.173 300-.512Z" fill="url('#paint2_linear_84_3851')"/><path d="M1220 31.472v-.123c-83.33-.368-166.67-.472-249.999-.599-83.333-.095-166.667.028-250 .08L220 31.174v.123l499.999.52c83.333.08 166.666.233 250 .167 83.331-.098 166.671-.173 250.001-.512Z" fill="url('#paint3_linear_84_3851')"/><path opacity=".5" d="M1440 2H0v30h1440V2Z" fill="#242424"/></g><defs><linearGradient id="paint0_linear_84_3851" x1="719.999" y1="2.859" x2="719.999" y2="4.144" gradientUnits="userSpaceOnUse"><stop stop-color="#4A90E2"/><stop offset="1" stop-color="#974A8A" stop-opacity=".9"/></linearGradient><linearGradient id="paint1_linear_84_3851" x1="719.999" y1="12.144" x2="719.999" y2="13.429" gradientUnits="userSpaceOnUse"><stop stop-color="#4A90E2"/><stop offset="1" stop-color="#974A8A" stop-opacity=".9"/></linearGradient><linearGradient id="paint2_linear_84_3851" x1="719.999" y1="21.43" x2="719.999" y2="22.715" gradientUnits="userSpaceOnUse"><stop stop-color="#4A90E2"/><stop offset="1" stop-color="#974A8A" stop-opacity=".9"/></linearGradient><linearGradient id="paint3_linear_84_3851" x1="719.999" y1="30.715" x2="719.999" y2="32" gradientUnits="userSpaceOnUse"><stop stop-color="#4A90E2"/><stop offset="1" stop-color="#974A8A" stop-opacity=".9"/></linearGradient><clipPath id="clip0_84_3851"><path fill="#fff" d="M0 0h1440v32H0z"/></clipPath></defs></svg>