<svg width="60" height="60" viewBox="0 0 60 60" fill="none" xmlns="http://www.w3.org/2000/svg">
<path d="M30 5.625C25.1791 5.625 20.4664 7.05457 16.458 9.73293C12.4495 12.4113 9.32533 16.2181 7.48045 20.6721C5.63556 25.126 5.15285 30.027 6.09337 34.7553C7.03388 39.4836 9.35538 43.8268 12.7643 47.2357C16.1732 50.6446 20.5164 52.9661 25.2447 53.9066C29.973 54.8472 34.874 54.3644 39.3279 52.5196C43.7819 50.6747 47.5887 47.5505 50.2671 43.542C52.9454 39.5336 54.375 34.8209 54.375 30C54.3682 23.5374 51.7979 17.3415 47.2282 12.7718C42.6585 8.20209 36.4626 5.63182 30 5.625ZM30 50.625C25.9208 50.625 21.9331 49.4154 18.5414 47.1491C15.1496 44.8828 12.5061 41.6616 10.945 37.8928C9.38394 34.1241 8.97549 29.9771 9.77131 25.9763C10.5671 21.9754 12.5315 18.3004 15.4159 15.4159C18.3004 12.5315 21.9754 10.5671 25.9763 9.7713C29.9771 8.97548 34.1241 9.38393 37.8929 10.945C41.6616 12.506 44.8828 15.1496 47.1491 18.5414C49.4154 21.9331 50.625 25.9208 50.625 30C50.6188 35.4682 48.4438 40.7106 44.5772 44.5772C40.7106 48.4438 35.4682 50.6188 30 50.625ZM45 30C45 30.4973 44.8025 30.9742 44.4508 31.3258C44.0992 31.6775 43.6223 31.875 43.125 31.875H30C29.5027 31.875 29.0258 31.6775 28.6742 31.3258C28.3226 30.9742 28.125 30.4973 28.125 30V16.875C28.125 16.3777 28.3226 15.9008 28.6742 15.5492C29.0258 15.1975 29.5027 15 30 15C30.4973 15 30.9742 15.1975 31.3258 15.5492C31.6775 15.9008 31.875 16.3777 31.875 16.875V28.125H43.125C43.6223 28.125 44.0992 28.3225 44.4508 28.6742C44.8025 29.0258 45 29.5027 45 30Z" fill="#CBCBCB"></path>
</svg>
