<svg width="60" height="60" fill="none" xmlns="http://www.w3.org/2000/svg"><path d="M16.2 22.067 6.68 30l9.52 7.934a1.873 1.873 0 0 1 .269 2.664 1.874 1.874 0 0 1-2.669.216L2.55 31.44a1.875 1.875 0 0 1 0-2.88l11.25-9.375a1.875 1.875 0 1 1 2.4 2.883Zm41.25 6.492L46.2 19.184a1.873 1.873 0 0 0-2.641.241 1.875 1.875 0 0 0 .241 2.642L53.32 30l-9.52 7.934a1.874 1.874 0 1 0 2.4 2.88l11.25-9.375a1.874 1.874 0 0 0 0-2.88ZM38.14 7.613a1.875 1.875 0 0 0-2.403 1.122l-15 41.25a1.878 1.878 0 0 0 1.123 2.405 1.875 1.875 0 0 0 2.402-1.125l15-41.25a1.876 1.876 0 0 0-1.122-2.402Z" fill="#CBCBCB"/></svg>