<svg width="100" height="100" viewBox="0 0 100 100" fill="none" xmlns="http://www.w3.org/2000/svg">
<path d="M95 79.8327V68.5771H5V79.8327H33.125V89.2077H25.6251V92.9577H74.3751V89.2077H66.875V79.8327H95Z" fill="#FAFAFA"></path>
<path d="M5 8V62.3694H95V8H5ZM48.1251 13.6194H57.5002V17.3693H48.1251V13.6194ZM46.25 22.9944H53.75V26.7444H46.25V22.9944ZM40.625 36.1194V32.3695H63.1251V36.1194H40.625ZM59.375 41.7445V45.4945H55.625V41.7445H59.375ZM40.625 13.6194H44.375V17.3693H40.625V13.6194ZM33.125 13.6194H36.8749V17.3693H33.125V13.6194ZM14.3751 22.9944H42.5V26.7444H14.3751V22.9944ZM22.2632 52.6061L19.6119 55.2574L11.7237 47.3693L19.6119 39.4809L22.2632 42.1323L17.0264 47.3691L22.2632 52.6061ZM26.4289 57.4402L22.9463 56.0487L30.4464 37.2986L33.929 38.6901L26.4289 57.4402ZM37.2632 55.2576L34.6118 52.6061L39.8487 47.3695L34.612 42.1326L37.2632 39.4813L45.1516 47.3697L37.2632 55.2576ZM48.1251 41.7445H51.8751V45.4945H48.1251V41.7445ZM85.6251 54.8695H50.0001V51.1196H85.6251V54.8695ZM85.6251 45.4945H63.1251V41.7445H85.6251V45.4945ZM85.6251 36.1194H66.875V32.3695H85.6251V36.1194ZM85.6251 26.7444H57.5V22.9944H85.625V26.7444H85.6251ZM85.6251 17.3695H61.2501V13.6194H85.6251V17.3695Z" fill="#FAFAFA"></path>
</svg>
