<svg width="40" height="40" viewBox="0 0 40 40" fill="none" xmlns="http://www.w3.org/2000/svg">
<g clip-path="url('#clip0_80_7622')">
<path d="M20 40C31.0457 40 40 31.0457 40 20C40 8.9543 31.0457 0 20 0C8.9543 0 0 8.9543 0 20C0 31.0457 8.9543 40 20 40Z" fill="#5865F2"></path>
<path d="M26.9308 13.6327C25.6341 13.0376 24.2657 12.6132 22.8597 12.3702C22.8469 12.3678 22.8337 12.3695 22.8219 12.375C22.8101 12.3806 22.8004 12.3897 22.7941 12.4011C22.6074 12.7395 22.4379 13.087 22.2863 13.4425C20.7709 13.2124 19.2294 13.2124 17.714 13.4425C17.5617 13.0862 17.3898 12.7385 17.1992 12.4011C17.1926 12.3899 17.1829 12.381 17.1712 12.3755C17.1594 12.37 17.1463 12.3681 17.1336 12.3702C15.728 12.6128 14.3601 13.0372 13.064 13.6327C13.0529 13.6374 13.0434 13.6455 13.0371 13.6558C10.4445 17.5296 9.73434 21.3081 10.0828 25.039C10.0838 25.0482 10.0866 25.057 10.0911 25.0651C10.0956 25.0731 10.1017 25.0802 10.109 25.0859C11.6187 26.2042 13.3074 27.0579 15.1031 27.6105C15.1158 27.6143 15.1293 27.6141 15.1419 27.61C15.1544 27.6058 15.1654 27.598 15.1734 27.5874C15.559 27.0625 15.9006 26.5067 16.1949 25.9257C16.1989 25.9177 16.2012 25.909 16.2016 25.9001C16.202 25.8912 16.2005 25.8823 16.1972 25.874C16.1939 25.8657 16.1889 25.8581 16.1825 25.8519C16.1761 25.8457 16.1685 25.8409 16.1601 25.8378C15.6213 25.632 15.0996 25.3838 14.6 25.0956C14.5909 25.0903 14.5833 25.0828 14.5778 25.0738C14.5723 25.0649 14.5691 25.0547 14.5685 25.0442C14.5679 25.0337 14.5699 25.0232 14.5743 25.0136C14.5787 25.0041 14.5853 24.9957 14.5937 24.9894C14.6984 24.9112 14.8035 24.8292 14.9035 24.7464C14.9124 24.7391 14.9231 24.7345 14.9345 24.7329C14.9459 24.7314 14.9575 24.7331 14.9679 24.7378C18.241 26.2323 21.7847 26.2323 25.0191 24.7378C25.0297 24.7328 25.0414 24.7308 25.0531 24.7322C25.0647 24.7336 25.0757 24.7382 25.0847 24.7456C25.1847 24.828 25.2898 24.9109 25.3972 24.9894C25.4057 24.9957 25.4124 25.0039 25.4169 25.0135C25.4213 25.023 25.4234 25.0335 25.4228 25.044C25.4223 25.0545 25.4192 25.0647 25.4138 25.0737C25.4083 25.0827 25.4008 25.0902 25.3918 25.0956C24.8928 25.3866 24.3701 25.6349 23.8293 25.8378C23.8208 25.841 23.8132 25.8459 23.8068 25.8523C23.8004 25.8586 23.7954 25.8663 23.7922 25.8747C23.789 25.8831 23.7876 25.8921 23.7882 25.9011C23.7887 25.9101 23.7911 25.9189 23.7953 25.9269C24.0945 26.5047 24.4356 27.0599 24.816 27.5878C24.8237 27.5987 24.8347 27.6068 24.8473 27.6111C24.8599 27.6154 24.8736 27.6156 24.8863 27.6116C26.6844 27.0607 28.3754 26.2069 29.8863 25.087C29.8937 25.0817 29.8999 25.0748 29.9044 25.0668C29.9089 25.0589 29.9116 25.05 29.9125 25.0409C30.3297 20.7269 29.214 16.9792 26.9554 13.6573C26.9504 13.6465 26.9417 13.6378 26.9308 13.6327ZM16.6832 22.7675C15.6976 22.7675 14.8863 21.8628 14.8863 20.7519C14.8863 19.6409 15.6824 18.7362 16.6832 18.7362C17.6922 18.7362 18.4965 19.6487 18.48 20.7519C18.4808 21.8628 17.6843 22.7675 16.6832 22.7675ZM23.3289 22.7675C22.3433 22.7675 21.532 21.8628 21.532 20.7519C21.532 19.6409 22.3281 18.7362 23.3289 18.7362C24.3379 18.7362 25.1422 19.6487 25.1257 20.7519C25.1261 21.8628 24.3379 22.7675 23.3289 22.7675Z" fill="#FAFAFA"></path>
</g>
<defs>
<clipPath id="clip0_80_7622">
<rect width="40" height="40" fill="white"></rect>
</clipPath>
</defs>
</svg>
