<svg width="60" height="60" fill="none" xmlns="http://www.w3.org/2000/svg"><path d="M32.063 30c0-4.834 3.82-8.748 8.53-8.748 4.714 0 8.532 3.91 8.532 8.748 0 4.834-3.818 8.749-8.531 8.749-4.706 0-8.532-3.911-8.532-8.749Z" fill="#1ABCFE"/><path d="M15 47.501c0-4.834 3.821-8.752 8.531-8.752h8.532V47.5c0 4.83-3.822 8.749-8.532 8.749S15 52.33 15 47.5Z" fill="#0ACF83"/><path d="M32.063 3.75v17.501h8.53c4.714 0 8.532-3.919 8.532-8.752 0-4.83-3.818-8.749-8.531-8.749h-8.532Z" fill="#FF7262"/><path d="M15 12.499c0 4.833 3.821 8.752 8.531 8.752h8.532V3.75H23.53C18.821 3.75 15 7.669 15 12.499Z" fill="#F24E1E"/><path d="M15 30c0 4.834 3.821 8.749 8.531 8.749h8.532V21.251H23.53c-4.71 0-8.531 3.912-8.531 8.75Z" fill="#A259FF"/></svg>