<svg width="60" height="60" fill="none" xmlns="http://www.w3.org/2000/svg"><path fill-rule="evenodd" clip-rule="evenodd" d="M17.106 14.588c-.207-1.793 1.407-1.033 1.2.048-.302.288-.861.052-1.2-.048Zm1.921-.336c.406-.042.794-.103.913-.432-.563-.347-1.403.508-1.057.912.192-.016.022-.394.144-.48Zm-5.378 1.104c.338-.157.894-.098 1.056-.432-1.007-.35-2.821-.092-3.121.576.768-.047 1.41-.656 2.065-.144Zm-2.257.193c-.219-.046-.303.202-.192.335.17-.005.193-.158.192-.335Zm-.529.96c-.03-.458-1.139-.824-1.248-.192.096.359.99.59 1.248.192Zm-1.872-.432c-.23.01-.347.134-.48.24.173.101.56.065.48-.24Zm-.576 1.296c.845-.06 1.103.719 1.824.624.134-.837-1.586-1.988-1.824-.624Zm11.428 4.178c-.252-.837.52-1.555.048-2.21-.653.053-1.219 3.087-.288 3.075.669-.01.904-1.845.96-2.45-.489.279-.276 1.26-.72 1.585Zm-8.02-.336c.015-.127-.066-.158-.191-.144.003.13.11.23.192.144Zm2.354 1.393c.01-.298-.002-.574-.24-.625-.18-.02-.17.15-.288.193.066.254.2.44.528.432Zm-2.305 1.537c.92.103 1.537.767 2.401.768-.689-.464-1.405-.9-2.497-.96-.035.13.095.096.096.192Zm7.251.72a2.096 2.096 0 0 0-.384-.817c.063.338.149.652.384.817Zm-5.282 1.056c-.603-.806-1.563-1.51-2.641-1.68.152 1.288 1.584 1.297 2.64 1.68Zm-1.633.288c-.411-.693-1.117-1.092-1.969-1.344.479.595.917 1.482 1.97 1.344ZM10 25.537c.164.285.576.576.48.96-.42-.123-.625-.462-1.056-.576.229.318 1.102 1.726 1.632 1.681.34-.03.492-.403.433-1.008-.26-.558-1.086-.803-1.489-1.057Zm2.45 1.248c.106.294.143.657.527.673-.065-.335-.26-.54-.528-.672Zm-.337.145c-.18-.02-.282.038-.288.192.054.01.075.053.096.096.153-.006.212-.11.192-.288Zm8.212 1.104c.05-.271.1-.794 0-1.056-.062.27-.294.876 0 1.056Zm-3.362-1.008c.037.283-.1.74.144.816.01-.21.06-.683-.144-.816Zm2.257 1.104c-.14-.123-.34.063-.432-.048-.098-.318-.058-.774-.336-.912h-.096c-.396.819-.357 2.579.336 3.025.13.221.143.56.48.576.277-.22.345-.647.384-1.104-.6-.127-.04-1.163-.336-1.537Zm1.44.528c.06-.425.424-1.044.145-1.488-.092.42-.266 1.014-.144 1.488Zm-8.45.385c.076-.22.016-.592-.145-.72-.112.21-.177.694.144.72Zm.863.192c.194.126.21.43.48.48.339-.431-.302-1.192-.48-.48Zm8.212.96c0 .147-.192.348-.048.48.028-.119.174-.367.048-.48Zm.432 1.873c-.002-.222.027-.475-.096-.576-.021.17-.148.55.096.576Zm-6.098 1.969c.028.179.057.358.24.384.117-.165.03-.457-.24-.384Zm2.16.24c.067.127.26.379.385.288-.112-.082-.24-.399-.384-.288Zm4.562.529c-.134.571.185 1.092.433 1.44.101-.557.092-1.356-.433-1.44Zm1.201 3.696c.073-.145.098-.592-.048-.671-.126.173-.239.589.048.671Zm2.16 2.306c-.069-.353-.345-.734-.623-.72.097.35.114.782.624.72Zm.433.672c.002.222-.026.476.096.576.006-.23.003-.45-.096-.576Zm-15.847.048c0 .176.095.258.192.336-.019-.157-.041-.31-.192-.336Zm17.576 2.641c-.118-.905-.594-1.454-1.2-1.872.086.937.546 1.503 1.2 1.872Zm7.732 4.754c-.03-.027-.228-.112-.24 0 .072.056.202.17.24 0Zm24.347 3.554v.528c-.078.163-.104.377-.145.576-1.335.858-3.844.542-4.946 1.633-1.933-1.041-3.73.6-5.762.769-.336.028-.71-.028-1.057 0-1.2.097-2.373.378-3.601.48-1.26.105-2.521.182-3.842.24h-1.44c-5.957-.313-11.846-1.114-16.232-3.073a29.745 29.745 0 0 1-6.05-3.602c-1.802-1.387-3.65-2.929-4.947-4.658-1.38-1.841-2.761-3.631-3.986-5.666-1.181-1.964-2.286-4.033-3.265-6.34-.967-2.274-1.655-4.524-2.306-7.299-.425-1.814-.873-3.869-1.632-5.57-.296-.663-.64-1.205-.672-1.825v-.432c.236-2.017 1.805-3.188 3.65-3.746.46-.14.91-.273 1.344-.528.028-.017.305-.045.192-.192-.822-.198-1.497 1.012-2.401.672-.802-.302-.34-1.544.528-1.92.406-.177 1.21-.223 1.585-.433.645-.362.937-1.128.816-1.825-.071-.412-.499-.628-.48-.96.026-.463.854-.865 1.249-1.153.482-.351 1.054-.79 1.008-1.344-.048-.58-.73-.764-1.057-1.2-.513-.687-.595-1.712.24-2.114.876-.421 2.507-.192 2.69.912.16.974-.53 1.344-.24 2.065.539 1.342 4.735-.782 3.697 2.017.923 1.447 4.53.21 4.61 2.497 1.505.03 2.196 1.172 3.41 1.633.325.124.713.124 1.056.24 2.049.696 4.586 1.443 5.427 3.41-.76.512-1.796.169-2.69-.144-.776-.273-1.908-.813-2.689-.48-.774.329-.732 1.652-.624 2.977.289 3.527.458 7.166.96 10.324.703 4.41 2.204 7.94 4.323 10.71 2.05 2.678 4.457 5.483 7.587 7.443 2.64 1.653 5.608 2.957 9.364 3.793.557.124 1.23.396 1.537.336.453-.087 1.43-1.406 1.777-1.728.826-.768 1.938-1.843 3.12-.913-.16 1.28-1.307 1.574-1.584 2.738.712.453 1.466.043 2.354.095 1.032.062 1.824.654 2.69.529.551-.08.828-.491 1.247-.768.955 1.395 4.633-.421 5.187 1.296ZM49.52 48.923c-.02-.154.064-.415-.095-.431-.139.07-.276.511.096.431ZM25.366 15.116c.47.282.885.62 1.297.961.248-.73-.464-1.197-1.297-1.153v.192Zm12.918 35.392c.183.039.316.075.336-.144-.171-.01-.287.032-.336.144Zm-6.627-4.226c-.017.226.44.23.528.192-.075-.15-.302-.345-.528-.192Zm-1.153-.912c.08.08.282.038.432.048.016-.176-.053-.267-.096-.385-.252-.027-.322.127-.336.337Zm-9.22-19.641c-.13-.11-.225.092-.288 0 .156-1.192.408-3.026-.096-4.034-.125-.108-.322.039-.384-.048.335-.8.562-2.47.432-3.457-.046-.349-.226-.968-.432-1.105-.517-.344-.987.185-1.345.288-.225.066-.475.019-.72.048-.968.117-1.996.405-2.641.72.336.225.813.308.96.72-.837-.059-1.49-.302-2.21-.48.078 1.084-1.251.744-2.064.817.281.006.326.142.336.336.034.638-2.064 1.393-2.785.913-1.029.83.453 1.677.384 2.737-.202.15-.295.409-.48.576-1.022.025-2.098.23-1.921 1.297-.138-.081-.356-.135-.528-.049-.262.674.177 1.404.768 1.537.15-.043.184-.2.384-.192 1.336.256 1.806 1.141 1.73 2.833-.014.292.015.672-.193.865-.758-.052-1.46-1.922-.24-1.969-.293-.43-.514-1.073-1.057-1.057-.621.019-.9 1.001-1.344 1.345.64.354 2.142 1.33.912 1.969.609.091.949.333 1.2.672.42.566.406 1.415.72 1.873.637.929.973-.833 1.73-.096.178.061-.08-.174-.097-.192-.648-.7-1.638-1.274-2.016-2.113.29-.133.681.012.96.048.11-.564-.282-1.203-.144-1.633.1-.309.282-.173.48-.288.117-.068.025-.32.24-.24 0 .66-.398 1.769.048 2.257.652.117.84-1.004 1.393-1.008.309-.003.6.54.816.816.259.33.61.736.528 1.104-.172.776-1.475.185-1.92-.144.27 1.076 1.94 1.244 2.016 2.642.01.156-.07.355-.047.528.094.737.782 1.286 1.488.816.104.265.118.62.385.72.233-.197.15-.713.287-1.008.838.175 1.276.579 1.537 1.248.13.332.096.946.624.96.081-.818-.56-1.325-.672-2.112.43.694 1.983 1.446 1.921 2.545-.041.725-.903.804-1.729.912.787.27 1.117 1.152 1.97 1.44.228.079.522.012.768.097.623.217 1.62 1.495 1.344 2.305-1.328.67-2.365-1.14-3.841-1.104.622.794 1.64 1.058 2.497 1.44.92.412 1.843.834 2.737 1.25 2.106.979 3.568 2.26 4.946 3.889-.956.521-3.855-.346-2.113-.961-.606-.02-1.247-.4-1.777-.192.281 1.833 2.692 1.535 4.515 1.825-.166.314-.4.56-.577.864.14.083.335.114.577.096-.117.188-.421.188-.433.48.233.311.696.394 1.009.625 1.234-.885 1.372 1.122 2.16 1.152.746.028.888-1.043 1.634-1.152-.188.39-.554.599-.72 1.008.729-.176.937-.569 1.535-.72 2.145-.543 3.902 1.243 5.667 1.44.635.072 1.265.428 1.825.53.724.13 1.169-.109 1.729-.385-.853-.796-2.811-.486-3.506-1.44.027-.166.14-.245.24-.337-2.247.494-3.662-.853-4.61-2.113-2.773-.716-5.205-1.773-6.387-4.081-.056-.218.213-.108.145-.337-.975-1.085-1.95-2.186-2.738-3.457-.272-.44-.458-.991-.768-1.345-.196-.224-.526-.348-.72-.577-.214-.25-.243-.565-.577-.671-.128.191-.042.597-.144.816-.23-.928-.745-1.808-1.728-1.825-.019-.675.526-.786.816-1.153-.382-.458-.473-1.036-.672-1.728-.484-1.683-.884-3.44-1.297-4.995-.548.205-.693.812-.96 1.297.026-.694.058-1.382.432-1.73.17.022.19.196.288.29.09-.328.4-.633.24-1.057-.124-.192-.487-.102-.576-.096.237-.58.436-1.633.144-2.305ZM40.59 54.206c.415-.177.789-.396.96-.817-.452.113-1.088.284-.96.817Zm.048-.96c-.278.153-.59.274-.768.528.398.024.864-.376.768-.529Zm-1.489.72c.272-.073.563-.354.528-.577-.315.032-.803.257-.528.577Zm.192-1.105c-.432-.136-.785.202-.817.625a1.23 1.23 0 0 0 .817-.625Zm-1.345.097c-.422.073-.737.253-.864.623.516.205.78-.238.864-.623Zm-.672 1.248c.12.007.233.009.24-.096-.072-.077-.273-.07-.24.096Zm.769-2.065c-.672-.052-1.476.384-1.057.96.448-.225.9-.444 1.057-.96Zm-3.314.913c.42.058.53-.422.817-.337.166.105.065.479.336.48.628-.127.854-.985.48-1.584-.847.149-1.621.614-1.633 1.44Zm.192-1.25c-.255.13-.526.242-.672.48.314-.013.782-.36.672-.48Zm-1.344.241c.027.128-.198.244-.049.336.04-.06.293-.298.049-.336Zm-.865 1.152c-.015.066-.068.092-.047.192h.192c.013-.125-.018-.206-.145-.192Zm-.72-.24c-.242.014-.334.178-.336.432.209-.046.4-.112.336-.431Zm-4.85-2.449c-.296-.013-.387.033-.048.097.322.06.89.09 1.104 0-.253-.003-.908-.09-1.057-.097Zm1.44-.768c-.25-.19-.756-.053-1.008.048.145.4.86.222 1.008-.048Zm-1.536 3.602c1.198.627 2.847 1.312 4.562 1.104-1.247-.61-3.1-.87-4.562-1.104Zm-1.777-.529c.115.158.386.159.576.24.355-.342-.425-.535-.576-.24Zm-4.514-3.89c-.324.029-.677.028-.768.289.308.114.755.043.768-.289Zm-.913 1.249c.113.102.32.224.385 0-.05-.05-.343-.099-.385 0Zm.577-4.082c.043-.2-.34-.277-.384-.096.105.055.196.124.384.096Zm.624 1.633a.225.225 0 0 1 .048-.144c-.143-.148-.432-.174-.672-.096.038.23.423.327.624.24Zm.048 3.074c.062.065.227.065.288 0 .023-.151-.06-.197-.144-.241-.043.085-.116.14-.144.24Zm1.489-5.523c-.157-.452-.667-.333-1.009-.48-.55-.237-1.019-.802-1.729-.816h-.095c.617.727 1.434 1.509 2.833 1.296Zm-2.498-1.776c-.448-.305-.939-.567-1.584-.673.205.515 1.004.693 1.584.672Zm1.49 2.256c.336.352.758.618 1.488.576-.28-.376-.95-.618-1.489-.576Zm1.824 2.161c-.494-.343-1.272-.898-1.92-.768.374.489 1.129.855 1.92.768ZM21.62 49.74c-.011.068-.079.08-.096.143.118.155.297-.11.096-.143Zm1.105 1.44c.04.184.217.232.384.289.065-.111.193-.16.144-.384-.117-.07-.537-.11-.528.096Zm.912-2.112c-.149-.091-.69-.193-.816 0 .233.094.69.339.816 0Zm.144-1.633c.048-.358-.356-.36-.528-.24.016.24.334.178.528.24Zm.528-2.593c-.216-.328-.819-.27-1.248-.384-.314-.395-1.066-.538-1.729-.433.76.506 1.623.907 2.977.817Zm-.096 4.61c.207.178.53.238.817.336.015-.113.075-.18.048-.336-.14-.162-.747-.245-.865 0Zm-4.082-7.78c.049-.224-.083-.268-.288-.24-.072.249.168.185.288.24Zm1.153.577c-.14-.036-.093-.26-.288-.24-.177.162.142.409.288.24Zm-3.313.336c-.16-.353-.519-.506-.769-.769.469-.678-.576-.956-.768-1.44-.002-.146.101-.187.144-.289-.404-.236-.87-.41-1.105-.816.186-.134.681.04.865-.096-.291-.125-.605-.227-.72-.528.168-.392.852-.267 1.008-.672-.828-.183-1.65-.623-2.546-.577.01.342.315.39.433.624-.266-.118-.481-.288-.865-.288-.028.237.125.292.097.529-.262.021-.395-.086-.673-.048.198.442.706.574.865 1.056-.197.05-.463-.078-.529 0 .507.422 1.248.865 1.537 1.344-.472-.087-.742-.378-1.2-.48.384.76 1.318.92 2.016 1.297.715.387 1.355 1.011 2.21 1.153Zm-1.057.576c.2.11.6.458.864.192-.222-.098-.572-.322-.864-.192Zm-.384-.24c-.135-.22-.825-.336-1.008-.193.313.09.608.334 1.008.192Zm-.865.144c-.015.065-.068.091-.047.192.084-.027.282.058.288-.048-.075-.053-.1-.156-.24-.144Zm-.624-6.387c-.13-.451-.306-.946-.672-1.296-.197-.19-.388-.186-.528-.433-.371-.653-.193-1.575-.672-2.257-.114-.036-.332-.095-.433 0 .01.315.74 1.062.24 1.441-1.104.044-1.529-.835-2.593-.673-.239.62.608.94.384 1.393 1.528.49 2.741 1.553 4.274 1.825Zm-3.457 1.44c.282.215.69.559 1.056.529-.29-.206-.557-.69-1.056-.529Zm-.529-.431c-.124-.388-.34-.684-.816-.72.097.415.548.476.816.72Zm-.816 1.248c.257.176.512.607.768.624-.187-.245-.415-.704-.768-.624Zm.336-3.314c.025-.07.071-.12.096-.192-.123-.17-.426-.077-.48.097.095.065.274.046.384.095Zm7.444 1.921a.53.53 0 0 0-.817-.431c.111.305.446.386.817.431Zm-4.515-6.29c.008-.08-.295-.08-.288 0 .066.015.29.217.288 0Zm-1.872-.192h-.192c-.066.061-.048.209-.048.335.087.013.269.174.336.049-.119-.042.014-.334-.096-.384ZM8.03 31.01c.16.362.803.335.912-.047-.273-.106-.675-.033-.912.047Zm.144-1.344c-.185-.01-.354-.002-.48.048.037.21.479.172.48-.048Zm.432-7.732c-.247.114-.761-.114-1.008 0 .219.866 1.838.4 1.729-.288-.093-.583-1.634-.439-2.161-.384.409.295 1.059.35 1.44.672Zm-1.92.913c.09.134.338.11.48.192.028-.1.119-.137.096-.288-.126-.067-.58-.12-.576.096Zm2.449-.192c-.026.105-.117.31.047.336.115-.08.09-.267-.047-.336Zm1.344-2.882c-.012-.14.109-.147.096-.288-.195-.019-.334.018-.336.192.091.021.12.104.24.096Zm-.048-10.66c-.19 1.171.865 2.589 2.113 2.16.058-.442-.144-.624-.144-1.008.319-.077.506.229.672.144-.467-.845-1.71-.915-2.64-1.296Zm-.528-1.105c.422.084 1.084.041 1.249-.288-.32-.213-1.276-.27-1.25.288ZM8.75 4.647c.093-.932-1.047-1.448-1.728-.816-.426.395-.61 1.348.048 1.681-.075-.246-.293-.347-.24-.72.5-.286 1.418.14 1.92-.145Zm-.335 3.074c.122-.07.305-.078.288-.288-.148.015-.4.174-.288.288Zm-1.01 3.553c.6.015 1.051-.323 1.634-.336.504-.01.984.14 1.584.096-.428-1.257-2.51-.159-3.217.24Zm-.912 2.21c1.134-.145 2.712-.89 4.226-.72.572.063 1.072.384 1.393.623-.164-.174-.358-.891 0-1.008.788.15.814 1.64 1.777 1.44.49-.1.64-1.051.384-1.632.366.258.555.693 1.056.817-.114-.463-.446-.706-.672-1.057.142-.178.327-.313.288-.673-1.374-.132-2.594.61-3.89.865-1.005.198-1.753.394-2.64.624-.667.173-1.41.294-1.922.72Zm-4.033 9.94c-.066.061-.084.287.048.288.04-.035.128-.332-.048-.288Zm1.68-5.714c-2.106.334.139 2.573 1.393 2.017.159-.244.11-.468.096-.817.73.071 1.28-.285 1.921-.144.103.223-.092.412-.144.624 2.179-.138 3.258-1.85 5.618-2.113.294-.032.628.02.96 0 .995-.058 2.096-.242 3.122-.432 1.007-.186 1.928-.556 2.785-.768 1.077-.266 2.715-.97 2.498-2.401-.025-.163-.138-.31-.24-.48-5.723-.554-10.002 1.69-14.503 2.593-.54.108-1.198.036-1.633.48.158.387.71.378.96.672-.125.147-.434.11-.48.336.106.406.709.316.769.769-.956.674-2.96-.186-2.497-1.537-1.445.317-3.548.631-3.554 2.257-.003.717.424 1.38.912 1.777-.33-1.513.232-3.75 2.017-2.833Zm1.777 8.98c.044-.326-.49-.553-.672-.336.177.159.454.217.672.336Zm-1.68.624c.339 1.18.45 2.591 1.344 3.217-.135-1.386-.627-2.415-1.345-3.217Zm2.016-1.249c.15-.678-.845-.943-.912-.48-.059.403.577.356.912.48Zm.192-1.297c-.216-.237-.76-.384-1.152-.288.138.34.988.843 1.152.288Zm-.576-2.112c.217-.136.447-.258.48-.577-.278-.208-.946-.238-1.008.097-.047.253.292.355.528.48Zm.624.816c.021-.165-.019-.269-.048-.384-.246-.006-.36.119-.384.336.12.04.258.063.432.048Zm-3.361-.24c-.037-.123-.048-.272-.144-.336-.12.13-.124.361.144.336Zm.48-3.265c-.215-.084-.534.005-.624.192.1.09.246.138.384.191.049-.159.266-.15.24-.383Zm.528 6.194c-.124-.276-.14-.66-.384-.816-.657.094-.006 1.038.384.816Zm.913 5.186c.469 1.134.963 2.36 1.969 2.882-.752-.837-.93-2.22-1.441-3.218-.177-.344-.46-.611-.624-.96-.389-.82-.568-1.778-1.345-2.161.307 1.208.963 2.3 1.44 3.457Zm13.206 18.009c-.29-.99-1.07-1.491-2.161-1.681-.27-.643-1.048-.777-1.2-1.537-.025-.156.297-.21.192-.288-1.462.277-1.514-1.272-2.21-1.92-1.756.031-1.429-2.142-2.4-3.266-.278-.321-.553-.396-.865-.72-.48-1.487-1.732-2.242-2.45-3.553-.636-1.166-.77-2.481-1.824-3.314.834 2.823 2.62 5.21 4.226 7.587 1.285 1.902 2.159 3.714 3.602 5.234.49.516 1.043.862 1.633 1.345 1.001.821 1.691 2.345 3.457 2.113Zm-.192-3.266c-.052-.206-.422-.344-.625-.24.186.103.391.186.625.24Zm1.776-1.248c-.325-.38-1.006-.524-1.632-.769-.777-.304-1.885-.592-2.45-.24.057.471.433.624.673.913.667.102 1.049.428 1.68.48.745.061 1.44.028 1.73-.384ZM42.75 55.79c-1.453-.663-3.585.083-5.139-.289-.293-.07-.552-.272-.816-.288-.262-.016-.567.123-.816.145-1.331.118-2.546-.014-3.794-.193-.875-.126-1.807-.175-2.593-.384-.753-.2-1.532-.66-2.305-.96-.785-.304-1.602-.607-2.353-.913-1.482-.603-3.057-1.648-4.61-2.065 1.047 1.114 2.851 1.471 4.082 2.401-1.74-.486-3.051-1.399-4.61-2.064 1.214 1.087 2.91 1.746 4.61 2.448 1.693.7 3.532 1.292 5.522 1.585 3.951.582 8.586 1.447 12.822.577Zm1.248-.144c-.246.01-.553-.042-.576.192.21.179.56.16.576-.192Zm2.593-5.667c.069.355.584.249.529-.144-.262-.037-.375.074-.529.144Zm3.986 2.497c-1.29-.031-2.883-.477-4.226-.432-.515.017-1.141.14-1.296.672.396.16.82.064 1.296.048 1.557-.052 3.46.648 4.226-.288Zm1.297-.096c-.225 0-.291.158-.336.336.061.066.208.048.336.048-.023-.212.066-.239 0-.384Zm2.833-.192c-.234-.035-.321.256-.24.385.151.022.188-.07.288-.097.035-.147-.083-.141-.048-.288Zm3.986.288c-.983-.105-2.131-.04-3.025.097.526.495 2.416.179 3.025-.097ZM12.496 23.28c.474.263.911.817 1.537.768-.17-.23-.409-.391-.577-.624.179-.014.33-.054.385-.192-.584-.409-1.333-.908-1.633-1.441.198.383.5.993.288 1.489Zm6.147.384c-.103-.105-.056-.36-.192-.432-.03.209.104.501.192.432Zm-4.418 4.178c.074.791.579 1.15.624 1.97-.561-.64-.874-1.527-1.248-2.354-.037 1 .265 1.62.528 2.305.202.527.392 1.145.912 1.297.243-.046.23-.348.48-.385.268.038.407.458.577.433-.128-.144-.168-.376-.192-.625.046-.177.3-.147.384-.288a5.798 5.798 0 0 0-2.065-2.353Z" fill="#FAFAFA"/></svg>