<svg width="60" height="60" viewBox="0 0 60 60" fill="none" xmlns="http://www.w3.org/2000/svg">
<path fill-rule="evenodd" clip-rule="evenodd" d="M30 0C46.5689 0 59.9999 13.7698 59.9999 30.7588C59.9999 44.3457 51.4139 55.8718 39.501 59.9428C37.98 60.2458 37.44 59.2852 37.44 58.4662C37.44 57.4522 37.4759 54.1404 37.4759 50.0244C37.4759 47.1564 36.516 45.2845 35.439 44.3305C42.12 43.5685 49.1399 40.9673 49.1399 29.1533C49.1399 25.7933 47.9759 23.0514 46.0499 20.8974C46.3619 20.1204 47.3909 16.9918 45.7559 12.7558C45.7559 12.7558 43.2419 11.9317 37.515 15.9097C35.118 15.2287 32.55 14.886 30 14.874C27.45 14.886 24.885 15.2287 22.491 15.9097C16.758 11.9317 14.238 12.7558 14.238 12.7558C12.609 16.9918 13.638 20.1204 13.947 20.8974C12.03 23.0514 10.857 25.7933 10.857 29.1533C10.857 40.9373 17.862 43.5784 24.525 44.3554C23.667 45.1234 22.89 46.4782 22.62 48.4672C20.91 49.2532 16.566 50.6135 13.89 45.9125C13.89 45.9125 12.303 42.9572 9.29099 42.7412C9.29099 42.7412 6.36599 42.7023 9.08699 44.6103C9.08699 44.6103 11.052 45.5553 12.417 49.1103C12.417 49.1103 14.178 54.6002 22.524 52.7402C22.539 55.3112 22.566 57.7342 22.566 58.4662C22.566 59.2792 22.014 60.2307 20.517 59.9457C8.59498 55.8807 0 44.3487 0 30.7588C0 13.7698 13.434 0 30 0Z" fill="#060606"></path>
</svg>
