<svg width="60" height="60" viewBox="0 0 60 60" fill="none" xmlns="http://www.w3.org/2000/svg">
<path d="M55.875 30.604C55.875 28.819 55.7287 27.0265 55.4212 25.2715H30.5212V35.3777H44.7787C44.4846 36.995 43.8653 38.5358 42.9584 39.9068C42.0515 41.2778 40.8758 42.4505 39.5025 43.354V49.9165H48.0112C53.0062 45.3415 55.875 38.5915 55.875 30.604Z" fill="#4285F4"></path>
<path d="M30.525 56.2502C37.6425 56.2502 43.6463 53.9252 48.0188 49.9127L39.5137 43.354C37.1475 44.9552 34.0913 45.8627 30.5325 45.8627C23.6475 45.8627 17.8088 41.2427 15.7125 35.0327H6.9375V41.794C9.1485 46.1486 12.5234 49.805 16.6874 52.357C20.8513 54.9089 25.6412 56.2566 30.525 56.2502Z" fill="#34A853"></path>
<path d="M15.7013 35.0324C14.5954 31.7737 14.5954 28.2412 15.7013 24.9824V18.2212H6.93375C5.08742 21.8758 4.12549 25.913 4.12549 30.0074C4.12549 34.1019 5.08742 38.1391 6.93375 41.7937L15.7013 35.0324Z" fill="#FBBC04"></path>
<path d="M30.525 14.1377C34.2849 14.0767 37.9192 15.4901 40.65 18.0752L48.1875 10.5789C43.3971 6.11666 37.0712 3.67227 30.525 3.75394C25.6399 3.74775 20.8488 5.09673 16.6846 7.65087C12.5204 10.205 9.14627 13.8642 6.9375 18.2214L15.6975 24.9752C17.7825 18.7577 23.6325 14.1377 30.5175 14.1377H30.525Z" fill="#EA4335"></path>
</svg>
