<svg width="40" height="40" viewBox="0 0 40 40" fill="none" xmlns="http://www.w3.org/2000/svg">
<path d="M37.2499 20.4027C37.2499 19.2127 37.1524 18.0177 36.9474 16.8477H20.3474V23.5852H29.8524C29.6563 24.6634 29.2435 25.6905 28.6388 26.6045C28.0342 27.5185 27.2504 28.3004 26.3349 28.9027V33.2777H32.0074C35.3374 30.2277 37.2499 25.7277 37.2499 20.4027Z" fill="#4285F4"></path>
<path d="M20.35 37.5C25.095 37.5 29.0975 35.95 32.0125 33.275L26.3425 28.9025C24.765 29.97 22.7275 30.575 20.355 30.575C15.765 30.575 11.8725 27.495 10.475 23.355H4.625V27.8625C6.099 30.7656 8.34896 33.2031 11.1249 34.9045C13.9009 36.6058 17.0942 37.5042 20.35 37.5Z" fill="#34A853"></path>
<path d="M10.4674 23.355C9.7302 21.1825 9.7302 18.8275 10.4674 16.655V12.1475H4.62242C3.39153 14.5838 2.75024 17.2753 2.75024 20.005C2.75024 22.7346 3.39153 25.4261 4.62242 27.8625L10.4674 23.355Z" fill="#FBBC04"></path>
<path d="M20.35 9.4248C22.8566 9.38416 25.2794 10.3264 27.1 12.0498L32.125 7.0523C28.9314 4.07745 24.7142 2.44786 20.35 2.5023C17.0933 2.49817 13.8992 3.3975 11.1231 5.10026C8.34693 6.80302 6.09751 9.24247 4.625 12.1473L10.465 16.6498C11.855 12.5048 15.755 9.4248 20.345 9.4248H20.35Z" fill="#EA4335"></path>
</svg>
