<svg width="40" height="40" fill="none" xmlns="http://www.w3.org/2000/svg"><path d="M37.25 20.403c0-1.19-.098-2.385-.303-3.555h-16.6v6.737h9.505a8.098 8.098 0 0 1-3.517 5.318v4.375h5.672c3.33-3.05 5.243-7.55 5.243-12.875Z" fill="#4285F4"/><path d="M20.35 37.5c4.745 0 8.747-1.55 11.663-4.225l-5.67-4.372c-1.578 1.067-3.616 1.672-5.988 1.672-4.59 0-8.482-3.08-9.88-7.22h-5.85v4.508A17.61 17.61 0 0 0 20.35 37.5Z" fill="#34A853"/><path d="M10.467 23.355a10.425 10.425 0 0 1 0-6.7v-4.508H4.622a17.425 17.425 0 0 0 0 15.716l5.845-4.508Z" fill="#FBBC04"/><path d="M20.35 9.425a9.593 9.593 0 0 1 6.75 2.625l5.025-4.998a16.965 16.965 0 0 0-11.775-4.55 17.605 17.605 0 0 0-15.725 9.645l5.84 4.503c1.39-4.145 5.29-7.225 9.88-7.225h.005Z" fill="#EA4335"/></svg>