<svg width="60" height="60" viewBox="0 0 60 60" fill="none" xmlns="http://www.w3.org/2000/svg">
<path d="M28.0687 51.0795C27.9673 51.4852 27.7333 51.8453 27.4037 52.1026C27.0742 52.36 26.6681 52.4998 26.25 52.4998C26.092 52.5006 25.9345 52.4817 25.7812 52.4436L18.2812 50.5686C18.0724 50.5161 17.8742 50.4281 17.6953 50.3084L12.0703 46.5584C11.6566 46.2824 11.3695 45.8534 11.2722 45.3657C11.1748 44.8781 11.2752 44.3717 11.5511 43.958C11.8271 43.5444 12.2562 43.2573 12.7438 43.1599C13.2315 43.0625 13.7379 43.1629 14.1515 43.4389L19.5047 47.0084L26.6906 48.8061C26.9307 48.8643 27.1569 48.9694 27.3563 49.1153C27.5556 49.2612 27.7242 49.4451 27.8522 49.6563C27.9803 49.8676 28.0653 50.1021 28.1025 50.3463C28.1397 50.5906 28.1282 50.8397 28.0687 51.0795ZM59.1679 28.4717C59.0141 28.939 58.7692 29.3712 58.4474 29.7433C58.1255 30.1154 57.7332 30.4201 57.2929 30.6397L51.7429 33.4147L38.8336 46.3264C38.6044 46.5553 38.32 46.7209 38.0078 46.8072C37.6956 46.8934 37.3664 46.8974 37.0523 46.8186L22.0523 43.0686C21.8242 43.0113 21.6088 42.912 21.4172 42.7756L8.40466 33.485L2.71403 30.6397C1.82466 30.1951 1.14827 29.4155 0.833581 28.4723C0.51889 27.5291 0.591667 26.4995 1.03591 25.61L6.86013 13.9639C7.30472 13.0745 8.08433 12.3981 9.02752 12.0834C9.97071 11.7688 11.0003 11.8415 11.8898 12.2858L17.0601 14.8639L29.482 11.3155C29.819 11.2191 30.1763 11.2191 30.5133 11.3155L42.9351 14.8639L48.1054 12.2858C48.995 11.8415 50.0245 11.7688 50.9677 12.0834C51.9109 12.3981 52.6905 13.0745 53.1351 13.9639L58.9593 25.61C59.1815 26.0495 59.3143 26.5288 59.3501 27.02C59.3859 27.5112 59.324 28.0046 59.1679 28.4717ZM48.3445 31.5045L41.9672 18.7498H34.5093L24.375 28.5936C27.3422 30.4897 31.9945 31.0123 36.1687 26.8053C36.4947 26.4767 36.9307 26.2803 37.3929 26.2539C37.855 26.2275 38.3106 26.373 38.6718 26.6623L46.7367 33.1241L48.3445 31.5045ZM4.38982 27.2858L8.53591 29.36L14.3601 17.7139L10.214 15.6397L4.38982 27.2858ZM44.0625 35.7795L37.5679 30.5787C32.9883 34.3287 27.1734 34.8233 22.3547 31.7506C21.8806 31.4491 21.4804 31.0449 21.1836 30.568C20.8868 30.091 20.7009 29.5535 20.6397 28.995C20.5785 28.4366 20.6435 27.8715 20.83 27.3416C21.0165 26.8117 21.3197 26.3304 21.7172 25.9334C21.7228 25.9266 21.7291 25.9203 21.7359 25.9147L32.25 15.717L30 15.0748L18.1828 18.4522L11.7679 31.2795L23.2992 39.5178L36.9258 42.9233L44.0625 35.7795ZM55.6031 27.2858L49.7859 15.6397L45.6398 17.7139L51.464 29.36L55.6031 27.2858Z" fill="#CBCBCB"></path>
</svg>
