<svg width="60" height="60" fill="none" xmlns="http://www.w3.org/2000/svg"><path d="M28.069 51.08a1.874 1.874 0 0 1-1.819 1.42c-.158 0-.316-.018-.469-.056l-7.5-1.875a1.876 1.876 0 0 1-.586-.26l-5.625-3.75a1.875 1.875 0 1 1 2.082-3.12l5.353 3.57 7.186 1.797a1.876 1.876 0 0 1 1.378 2.274Zm31.099-22.608a3.724 3.724 0 0 1-1.875 2.168l-5.55 2.775-12.91 12.911a1.876 1.876 0 0 1-1.78.493l-15-3.75a1.888 1.888 0 0 1-.636-.293L8.405 33.485 2.714 30.64a3.75 3.75 0 0 1-1.678-5.03L6.86 13.964a3.75 3.75 0 0 1 5.03-1.678l5.17 2.578 12.422-3.549a1.875 1.875 0 0 1 1.031 0l12.422 3.549 5.17-2.578a3.75 3.75 0 0 1 5.03 1.678L58.96 25.61a3.725 3.725 0 0 1 .209 2.862Zm-10.824 3.032L41.967 18.75H34.51l-10.134 9.844c2.967 1.896 7.62 2.418 11.794-1.789a1.875 1.875 0 0 1 2.503-.143l8.065 6.462 1.607-1.62ZM4.39 27.287l4.146 2.074 5.824-11.646-4.146-2.074L4.39 27.286Zm39.672 8.493-6.494-5.2c-4.58 3.75-10.395 4.244-15.213 1.172a3.749 3.749 0 0 1-.62-5.836L32.25 15.717 30 15.075l-11.817 3.377-6.415 12.827 11.531 8.239 13.627 3.405 7.136-7.144Zm11.541-8.493L49.786 15.64l-4.146 2.074 5.824 11.646 4.14-2.074Z" fill="#CBCBCB"/></svg>