<svg width="700" height="466" fill="none" xmlns="http://www.w3.org/2000/svg"><path d="m326.47 137.666 60.713-35.232-.111 39.274-60.713 35.232.111-39.274Z" fill="#666"/><path d="M246.417 91.513 307.13 56.28l80.053 46.153-60.713 35.232-80.053-46.153Z" fill="#908E92"/><path d="m375.557 205.304 60.713-35.232-.111 39.27-60.713 35.233.111-39.271Z" fill="#666"/><path d="m326.359 176.94 60.713-35.232 49.198 28.364-60.713 35.232-49.198-28.364ZM375.446 244.574l60.713-35.232 49.198 28.365-60.713 35.232-49.198-28.365Z" fill="#908E92"/><path d="m424.644 272.939 60.714-35.232-.112 39.274-60.713 35.232.111-39.274ZM473.589 340.495l60.713-35.232-.112 39.27-60.713 35.232.112-39.27Z" fill="#666"/><path d="m424.533 312.213 60.713-35.233 49.056 28.282-60.714 35.232-49.055-28.281Z" fill="#908E92"/><path d="m522.676 408.129 60.713-35.233-.137 48.089-60.713 35.232.137-48.088Z" fill="#666"/><path d="m326.47 137.666-.111 39.274 49.199 28.364-.112 39.27 49.199 28.365-.112 39.274 49.056 28.282-.112 39.27 49.199 28.364-.137 48.088L245.835 296.69l.582-205.177 80.053 46.153Z" fill="#CBCBCB"/><path d="m473.477 379.764 60.713-35.232 49.199 28.364-60.713 35.233-49.199-28.365Z" fill="#908E92"/><path d="M512.018 441.442c-.366 0-.745-.12-1.128-.355l-25.055-15.392c-1.188-.731-2.117-2.436-2.113-3.882l.082-30.636c.004-1.356.805-1.963 1.597-1.963.367 0 .747.119 1.13.354l25.055 15.393c1.188.73 2.116 2.435 2.112 3.881l-.003 1.27 3.012-1.536 3.993 7.358-7.031 3.692-.052 19.852c-.005 1.356-.806 1.964-1.599 1.964Zm-4.433-9.724a.515.515 0 0 0 .003-.059l.024-8.85-7.833 4.114 7.806 4.795Zm-17.808-11.704c-.001.399.289.941.609 1.138l5.742 3.527-6.332-11.888-.019 7.223Zm8.587-2.085 9.273-4.729.007-2.557c.001-.399-.289-.941-.61-1.138l-17.199-10.566a.954.954 0 0 0-.002.058l-.013 4.789.813-.493 7.731 14.636Z" fill="#D9D9D9"/><path d="m493.833 421.442 3.888-2.405 10.09-5.144-3.889 2.405-10.089 5.144Z" fill="#487732"/><path d="M489.686 421.981c-.49-.301-.885-1.031-.883-1.628l.025-9.51-3.889 2.405-.025 9.51c-.002.598.393 1.327.883 1.628l7.543 4.634 3.889-2.405-7.543-4.634Z" fill="#FAFAFA"/><path d="m486.121 406.845 3.889-2.405 7.711 14.597-3.888 2.405-7.712-14.597Z" fill="#89E260"/><path d="M488.858 399.337c.001-.298.1-.507.259-.606l-3.889 2.405c-.16.099-.258.308-.259.606l-.015 5.811 3.889-2.405.015-5.811Zm18.015 33.204-8.653-5.317-3.889 2.405 8.653 5.317c.247.151.47.165.631.065l3.889-2.405c-.161.1-.384.086-.631-.065Zm1.88 9.681c-.001.619-.207 1.054-.538 1.259l3.889-2.405c.331-.205.537-.64.538-1.259l.054-20.197-3.889 2.405-.054 20.197Z" fill="#FAFAFA"/><path d="m510.884 405.789-25.054-15.392c-.514-.316-.979-.345-1.314-.138l-3.889 2.406c.335-.208.8-.179 1.314.137l25.054 15.392c1.019.627 1.843 2.145 1.84 3.391l-.006 2.21 3.889-2.405.006-2.21c.003-1.247-.82-2.765-1.84-3.391Z" fill="#FAFAFA"/><path d="M506.995 408.195c1.02.626 1.843 2.144 1.84 3.391l-.006 2.209-4.907 2.503.008-2.908c.001-.599-.394-1.327-.884-1.628l-17.187-10.559c-.49-.301-.888-.06-.889.539l-.016 5.811-2.304 1.398 2.289 4.297-.025 9.51c-.002.598.393 1.327.883 1.628l7.543 4.634.47.883.522-.273 8.653 5.316c.49.301.887.059.889-.539l.026-9.803 4.907-2.578-.053 20.196c-.004 1.246-.833 1.749-1.852 1.123l-25.054-15.393c-1.02-.626-1.844-2.145-1.841-3.391l.082-30.636c.003-1.246.832-1.749 1.852-1.122l25.054 15.392Z" fill="#E6E6E6"/><path d="m512.18 412.087 3.449 6.356-6.822 3.583-4.907 2.578-9.569 5.025-.521.274-.47-.883-8.401-15.772-2.289-4.297 2.304-1.398 1.167-.707 7.712 14.596 10.089-5.144 4.907-2.503 3.351-1.708Z" fill="#568E3C"/><path d="m508.829 413.795 3.889-2.405 3.351-1.708-3.889 2.404-3.351 1.709Z" fill="#53873A"/><path d="m512.18 412.086 3.889-2.404 3.449 6.355-3.889 2.405-3.449-6.356Z" fill="#89E260"/><path d="M462.767 374.344c-.366 0-.746-.119-1.129-.355l-25.054-15.392c-1.189-.731-2.118-2.436-2.114-3.881l.082-30.636c.004-1.357.805-1.964 1.598-1.964.367 0 .746.12 1.13.355l25.054 15.393c1.189.73 2.117 2.435 2.113 3.88l-.004 1.27 3.012-1.535 3.993 7.358-7.031 3.692-.052 19.851c-.004 1.356-.806 1.964-1.598 1.964Zm-4.433-9.723.002-.06.024-8.85-7.832 4.114 7.806 4.796Zm-17.809-11.705c-.001.399.29.942.61 1.138l5.742 3.528-6.333-11.889-.019 7.223Zm8.588-2.085 9.273-4.729.007-2.557c.001-.399-.29-.941-.61-1.138l-17.199-10.566c-.001.017-.003.036-.003.058l-.012 4.789.812-.492 7.732 14.635Z" fill="#D9D9D9"/><path d="m444.581 354.345 3.889-2.405 10.089-5.145-3.889 2.405-10.089 5.145Z" fill="#487732"/><path d="M440.434 354.883c-.49-.301-.885-1.03-.883-1.628l.026-9.51-3.889 2.405-.026 9.51c-.002.598.393 1.327.883 1.628l7.543 4.634 3.889-2.405-7.543-4.634Z" fill="#FAFAFA"/><path d="m436.869 339.748 3.889-2.405 7.712 14.597-3.889 2.405-7.712-14.597Z" fill="#89E260"/><path d="M439.607 332.238c.001-.297.1-.506.259-.605l-3.889 2.405c-.16.099-.258.308-.259.605l-.015 5.812 3.889-2.405.015-5.812Zm18.015 33.205-8.653-5.317-3.889 2.405 8.653 5.316c.247.152.47.166.631.066l3.889-2.405c-.161.1-.384.086-.631-.065Zm1.88 9.681c-.001.619-.207 1.054-.538 1.259l3.889-2.405c.331-.204.537-.64.538-1.259l.054-20.196-3.889 2.405-.054 20.196Z" fill="#FAFAFA"/><path d="M461.633 338.692 436.579 323.3c-.514-.316-.979-.345-1.315-.138l-3.889 2.405c.336-.207.801-.178 1.315.138l25.054 15.392c1.019.626 1.843 2.144 1.84 3.391l-.006 2.209 3.889-2.405.006-2.209c.003-1.247-.821-2.765-1.84-3.391Z" fill="#FAFAFA"/><path d="M457.744 341.097c1.019.626 1.843 2.144 1.84 3.39l-.006 2.21-4.907 2.502.007-2.907c.002-.599-.393-1.327-.883-1.628l-17.188-10.56c-.489-.301-.887-.06-.889.539l-.015 5.812-2.304 1.397 2.289 4.298-.026 9.51c-.001.598.394 1.327.884 1.628l7.543 4.634.47.883.521-.274 8.653 5.316c.49.301.888.059.889-.539l.027-9.803 4.907-2.578-.054 20.197c-.003 1.246-.832 1.748-1.851 1.122l-25.055-15.392c-1.02-.627-1.843-2.145-1.84-3.391l.082-30.636c.003-1.247.832-1.749 1.852-1.123l25.054 15.393Z" fill="#E6E6E6"/><path d="m462.929 344.988 3.449 6.356-6.822 3.583-4.908 2.578-9.568 5.026-.521.274-.471-.883-8.401-15.772-2.289-4.298 2.305-1.397 1.166-.707 7.712 14.596 10.09-5.145 4.907-2.502 3.351-1.709Z" fill="#568E3C"/><path d="m459.578 346.697 3.889-2.405 3.351-1.709-3.889 2.405-3.351 1.709Z" fill="#53873A"/><path d="m462.929 344.988 3.889-2.405 3.448 6.356-3.889 2.405-3.448-6.356Z" fill="#89E260"/><path d="M413.515 307.246c-.366 0-.746-.119-1.129-.355l-25.054-15.392c-1.189-.731-2.117-2.436-2.113-3.881l.081-30.636c.004-1.357.806-1.964 1.598-1.964.367 0 .747.119 1.13.354l25.055 15.393c1.188.73 2.116 2.435 2.112 3.881l-.003 1.27 3.012-1.536 3.993 7.358-7.031 3.693-.053 19.851c-.004 1.356-.805 1.964-1.598 1.964Zm-4.433-9.723a.534.534 0 0 0 .003-.06l.023-8.85-7.832 4.114 7.806 4.796Zm-17.808-11.705c-.002.399.289.942.609 1.138l5.742 3.528-6.332-11.889-.019 7.223Zm8.588-2.085 9.272-4.729.007-2.557c.001-.399-.289-.941-.61-1.138l-17.198-10.566a.497.497 0 0 0-.003.058l-.013 4.789.813-.492 7.732 14.635Z" fill="#D9D9D9"/><path d="m395.33 287.246 3.889-2.405 10.089-5.145-3.889 2.405-10.089 5.145Z" fill="#487732"/><path d="M391.183 287.785c-.49-.301-.885-1.03-.884-1.628l.026-9.51-3.889 2.405-.026 9.51c-.001.598.394 1.327.884 1.628l7.543 4.634 3.889-2.405-7.543-4.634Z" fill="#FAFAFA"/><path d="m387.618 272.649 3.888-2.404 7.713 14.596-3.889 2.405-7.712-14.597Z" fill="#89E260"/><path d="M390.356 265.14c0-.297.099-.507.258-.605l-3.889 2.405c-.159.099-.258.308-.258.605l-.016 5.812 3.889-2.405.016-5.812Zm18.015 33.204-8.654-5.316-3.889 2.405 8.654 5.316c.246.152.469.166.63.066l3.889-2.405c-.161.1-.384.086-.63-.066Zm1.879 9.681c-.001.619-.206 1.055-.538 1.26l3.889-2.405c.331-.205.537-.641.538-1.26l.054-20.196-3.889 2.405-.054 20.196Z" fill="#FAFAFA"/><path d="m412.381 271.594-25.054-15.393c-.513-.315-.978-.344-1.314-.137l-3.889 2.405c.336-.207.801-.178 1.314.137l25.054 15.393c1.02.626 1.843 2.144 1.84 3.39l-.006 2.211 3.889-2.406.006-2.209c.003-1.247-.821-2.765-1.84-3.391Z" fill="#FAFAFA"/><path d="M408.492 273.999c1.02.626 1.843 2.144 1.84 3.39l-.006 2.21-4.907 2.503.008-2.908c.001-.599-.394-1.327-.883-1.628l-17.188-10.559c-.49-.302-.888-.06-.889.539l-.016 5.811-2.304 1.397 2.289 4.298-.025 9.51c-.002.598.393 1.327.883 1.628l7.543 4.634.47.883.521-.274 8.654 5.317c.49.301.887.059.889-.539l.026-9.804 4.907-2.577-.053 20.196c-.004 1.246-.833 1.749-1.852 1.123l-25.054-15.393c-1.02-.626-1.844-2.145-1.841-3.391l.082-30.636c.003-1.246.832-1.749 1.853-1.122l25.053 15.392Z" fill="#E6E6E6"/><path d="m413.677 277.89 3.449 6.356-6.822 3.583-4.907 2.578-9.569 5.026-.521.274-.47-.883-8.401-15.772-2.289-4.298 2.304-1.397 1.167-.708 7.712 14.597 10.089-5.144 4.907-2.503 3.351-1.709Z" fill="#568E3C"/><path d="m410.326 279.599 3.889-2.405 3.351-1.709-3.889 2.405-3.351 1.709Z" fill="#53873A"/><path d="m413.677 277.89 3.889-2.405 3.449 6.356-3.889 2.405-3.449-6.356Z" fill="#89E260"/><path d="M364.264 240.148c-.366 0-.746-.12-1.129-.355l-25.054-15.392c-1.189-.731-2.118-2.436-2.114-3.882l.082-30.636c.004-1.356.805-1.963 1.598-1.963.366 0 .746.119 1.13.354l25.054 15.393c1.188.73 2.117 2.435 2.113 3.881l-.004 1.27 3.012-1.536 3.993 7.358-7.031 3.692-.052 19.851c-.004 1.357-.806 1.965-1.598 1.965Zm-4.434-9.724a.515.515 0 0 0 .003-.059l.024-8.85-7.833 4.114 7.806 4.795Zm-17.808-11.704c-.001.399.29.941.61 1.138l5.742 3.528-6.333-11.889-.019 7.223Zm8.588-2.085 9.273-4.729.007-2.557c.001-.399-.29-.941-.611-1.138l-17.198-10.566a.497.497 0 0 0-.003.058l-.013 4.789.813-.493 7.732 14.636Z" fill="#D9D9D9"/><path d="m346.078 220.148 3.889-2.405 10.089-5.145-3.889 2.405-10.089 5.145Z" fill="#487732"/><path d="M341.931 220.687c-.49-.301-.885-1.03-.883-1.628l.025-9.51-3.889 2.405-.025 9.51c-.002.597.393 1.326.883 1.627l7.543 4.635 3.889-2.405-7.543-4.634Z" fill="#FAFAFA"/><path d="m338.366 205.552 3.889-2.406 7.712 14.597-3.889 2.405-7.712-14.596Z" fill="#89E260"/><path d="M341.104 198.043c.001-.298.099-.507.258-.605l-3.889 2.405c-.159.098-.257.307-.258.605l-.016 5.811 3.889-2.405.016-5.811Zm18.015 33.204-8.653-5.317-3.889 2.405 8.653 5.317c.246.151.47.165.631.065l3.889-2.405c-.162.1-.385.086-.631-.065Zm1.88 9.681c-.002.619-.207 1.054-.539 1.259l3.889-2.405c.332-.205.537-.64.539-1.259l.054-20.197-3.889 2.405-.054 20.197Z" fill="#FAFAFA"/><path d="m363.13 204.496-25.054-15.393c-.514-.315-.979-.345-1.315-.137l-3.889 2.405c.336-.208.801-.178 1.315.137l25.054 15.393c1.019.626 1.843 2.144 1.839 3.39l-.005 2.21 3.889-2.405.005-2.209c.004-1.247-.82-2.765-1.839-3.391Z" fill="#FAFAFA"/><path d="M359.241 206.901c1.019.626 1.843 2.144 1.84 3.39l-.006 2.21-4.907 2.503.007-2.908c.002-.599-.393-1.327-.883-1.628l-17.188-10.56c-.49-.301-.887-.06-.889.54l-.015 5.811-2.305 1.397 2.29 4.298-.026 9.51c-.001.598.394 1.327.883 1.628l7.543 4.634.471.883.521-.274 8.653 5.317c.49.301.888.058.889-.539l.026-9.804 4.908-2.577-.054 20.196c-.003 1.246-.832 1.749-1.852 1.123l-25.054-15.393c-1.02-.627-1.844-2.145-1.84-3.391l.081-30.636c.004-1.246.833-1.749 1.853-1.123l25.054 15.393Z" fill="#E6E6E6"/><path d="m364.426 210.792 3.448 6.356-6.821 3.583-4.908 2.578-9.568 5.026-.521.274-.471-.883-8.4-15.772-2.29-4.298 2.305-1.397 1.166-.708 7.712 14.597 10.09-5.145 4.907-2.502 3.351-1.709Z" fill="#568E3C"/><path d="m361.075 212.501 3.889-2.405 3.351-1.709-3.889 2.405-3.351 1.709Z" fill="#53873A"/><path d="m364.426 210.792 3.889-2.405 3.448 6.356-3.889 2.405-3.448-6.356Z" fill="#89E260"/><path d="M315.013 173.05c-.367 0-.746-.12-1.129-.355l-25.055-15.392c-1.188-.732-2.117-2.436-2.113-3.882l.081-30.636c.004-1.356.806-1.963 1.598-1.963.367 0 .747.119 1.13.354l25.055 15.393c1.188.73 2.116 2.435 2.112 3.88l-.003 1.271 3.012-1.536 3.993 7.358-7.031 3.692-.053 19.851c-.003 1.357-.805 1.965-1.597 1.965Zm-4.434-9.723a.534.534 0 0 0 .003-.06l.024-8.851-7.833 4.115 7.806 4.796Zm-17.808-11.705c-.001.399.289.941.61 1.138l5.741 3.528-6.332-11.889-.019 7.223Zm8.588-2.086 9.272-4.728.007-2.557c.001-.399-.289-.941-.61-1.138l-17.198-10.566a.497.497 0 0 0-.003.058l-.013 4.789.813-.493 7.732 14.635Z" fill="#D9D9D9"/><path d="m296.827 153.05 3.889-2.405 10.089-5.145-3.889 2.405-10.089 5.145Z" fill="#487732"/><path d="M292.68 153.589c-.49-.301-.885-1.03-.883-1.628l.025-9.51-3.889 2.405-.025 9.51c-.002.598.393 1.327.883 1.628l7.543 4.634 3.889-2.405-7.543-4.634Z" fill="#FAFAFA"/><path d="m289.115 138.453 3.889-2.405 7.712 14.597-3.889 2.405-7.712-14.597Z" fill="#89E260"/><path d="M291.853 130.944c0-.297.099-.506.258-.605l-3.889 2.405c-.159.098-.258.308-.258.605l-.016 5.812 3.889-2.405.016-5.812Zm18.015 33.205-8.653-5.317-3.889 2.405 8.653 5.317c.246.151.47.165.631.065l3.889-2.405c-.162.1-.385.086-.631-.065Zm1.88 9.681c-.002.619-.207 1.054-.539 1.259l3.889-2.405c.332-.204.537-.64.539-1.259l.054-20.196-3.889 2.405-.054 20.196Z" fill="#FAFAFA"/><path d="m313.878 137.398-25.054-15.393c-.513-.315-.978-.345-1.314-.137l-3.889 2.405c.336-.208.801-.179 1.314.137l25.054 15.392c1.02.626 1.843 2.145 1.84 3.391l-.006 2.21 3.889-2.405.006-2.21c.003-1.246-.82-2.764-1.84-3.39Z" fill="#FAFAFA"/><path d="M309.99 139.802c1.019.627 1.842 2.145 1.839 3.391l-.006 2.21-4.907 2.502.008-2.907c.001-.599-.394-1.327-.883-1.628l-17.188-10.56c-.49-.301-.888-.06-.889.539l-.016 5.812-2.304 1.397 2.289 4.298-.025 9.51c-.002.598.393 1.327.883 1.628l7.543 4.634.47.883.522-.274 8.653 5.316c.49.301.887.059.889-.539l.026-9.803 4.908-2.578-.054 20.197c-.004 1.246-.833 1.748-1.852 1.122l-25.054-15.392c-1.02-.627-1.844-2.145-1.841-3.391l.082-30.636c.003-1.247.832-1.749 1.853-1.123l25.054 15.392Z" fill="#E6E6E6"/><path d="m315.174 143.694 3.449 6.356-6.822 3.583-4.907 2.578-9.569 5.026-.521.274-.47-.883-8.401-15.772-2.289-4.298 2.304-1.397 1.167-.708 7.712 14.597 10.089-5.145 4.907-2.502 3.351-1.709Z" fill="#568E3C"/><path d="m311.823 145.403 3.889-2.405 3.351-1.709-3.889 2.405-3.351 1.709Z" fill="#53873A"/><path d="m315.174 143.694 3.889-2.405 3.449 6.356-3.889 2.405-3.449-6.356Z" fill="#89E260"/><path d="m322.679 70.928-51.137 29.624-11.554-6.661 51.137-29.624 11.554 6.66Z" fill="#E6E6E6"/><path d="m294.857 85.275 5.361 8.531 4.068-2.345 30.144 17.492.187 2.895 9.436 5.476-.235-3.643 6.297.147-9.436-5.475-5.029-.119-30.13-17.485 4.067-2.344-14.73-3.13Z" fill="#E6E6E6"/><path d="M316.71 63.69c11.28-19.637 11.189-40.844-.201-47.368-11.391-6.524-29.768 4.106-41.048 23.743-11.279 19.637-11.189 40.845.202 47.369 11.391 6.524 29.768-4.107 41.047-23.744Z" fill="#C68BBC"/><path d="M304.968 56.965c4.856-8.455 4.818-17.587-.087-20.396-4.905-2.81-12.818 1.768-17.674 10.223-4.857 8.456-4.818 17.587.087 20.396 4.904 2.81 12.817-1.768 17.674-10.223Z" fill="#FAFAFA"/><path d="M296.085 43.005c-4.223 2.419-7.66 8.363-7.66 13.249 0 4.885 3.437 6.893 7.66 4.474 4.223-2.419 7.661-8.364 7.661-13.249 0-4.886-3.437-6.893-7.661-4.474Z" fill="#FAFAFA"/><path d="M299.713 49.788c0 2.314-1.627 5.13-3.628 6.276-2 1.145-3.628.194-3.628-2.12 0-2.313 1.628-5.129 3.628-6.275 2.001-1.145 3.628-.195 3.628 2.12Z" fill="#FAFAFA"/><path d="M310.982 60.41c8.147-14.183 8.082-29.5-.145-34.212-8.227-4.712-21.5 2.966-29.647 17.149-8.146 14.182-8.081 29.5.146 34.211 8.227 4.712 21.5-2.965 29.646-17.148Z" fill="#FAFAFA"/><path d="M279.558 61.333c0-10.543 7.413-23.365 16.527-28.585 9.114-5.22 16.528-.89 16.528 9.653 0 10.542-7.414 23.365-16.528 28.585-9.114 5.22-16.527.89-16.527-9.653Zm29.025-16.624c0-7.972-5.607-11.247-12.498-7.3-6.891 3.947-12.497 13.644-12.497 21.616 0 7.972 5.606 11.246 12.497 7.3 6.891-3.948 12.498-13.645 12.498-21.616Z" fill="#FAFAFA"/><path d="M301.53 54.996c2.977-5.183 2.953-10.78-.054-12.501-3.006-1.722-7.856 1.083-10.833 6.266-2.976 5.182-2.953 10.78.054 12.501 3.006 1.722 7.856-1.084 10.833-6.266Z" fill="#FF2121"/><path d="M304.967 56.965c4.857-8.456 4.818-17.587-.086-20.396-4.905-2.81-12.818 1.768-17.674 10.223-4.857 8.456-4.818 17.587.086 20.396 4.905 2.81 12.818-1.768 17.674-10.223Z" fill="#C68BBC"/><path d="M299.713 49.788c0-2.314-1.627-3.264-3.628-2.119-2 1.146-3.628 3.962-3.628 6.276 0 2.313 1.628 3.264 3.628 2.118 2.001-1.145 3.628-3.96 3.628-6.275Z" fill="#FAFAFA"/><path d="M252.045 59.924c0 9.331 3.29 15.89 8.603 18.932l15.015 8.567c-5.312-3.043-8.603-9.6-8.603-18.932 0-18.543 12.994-41.019 29.025-50.2 7.964-4.562 15.178-4.984 20.423-1.98l-15.016-8.567c-5.244-3.004-12.459-2.582-20.422 1.98-16.032 9.181-29.025 31.657-29.025 50.2Z" fill="#974A8A"/><path d="m306.892 57.807.005 1.786 4.279-2.467-.005-1.786-4.279 2.467ZM301.313 61.023l.005 1.786 4.281-2.467-.005-1.786-4.281 2.467Z" fill="#633D14"/><path d="m295.673 52.048.005 1.786 5.64 8.976-.005-1.787-5.64-8.975Z" fill="#6D3F15"/><path d="m305.594 58.556.005 1.786 31.715 18.404-.005-1.786-31.715-18.404Z" fill="#754115"/><path d="m337.309 76.96.005 1.786.197 3.046-.005-1.786-.197-3.046Z" fill="#613814"/><path d="m347.187 81.935.005 1.786 6.626.155-.005-1.786-6.626-.155Z" fill="#613C13"/><path d="m337.506 80.006.005 1.786 9.928 5.761-.005-1.786-9.928-5.761Z" fill="#754115"/><path d="m295.673 52.048 5.64 8.975 4.281-2.467 31.715 18.404.197 3.046 9.928 5.761-.247-3.832 6.626.155-9.928-5.761-5.292-.125-31.701-18.397 4.279-2.467-15.498-3.292Z" fill="#FFA22F"/><path d="M485.435 142.462c-5.29-5.679-17.645-27.987-18.874-32.062-1.125-3.731 5.112-9.512 11.257-1.117 4.601 6.285 13.688 25.891 15.158 31.586 1.167 4.518-1.552 8.023-7.541 1.593Z" fill="#C68BBC"/><path d="M497.833 156.382c.259 2.572-.269 5.004-.083 7.394.071 2.894-5.933 4.17-8.763 2.506-.575-2.392-1.508-4.823-2.108-7.392 1.888-3.793 9.829-3.846 10.954-2.508Z" fill="#C9C9C9"/><path d="M488.062 158.637c1.528 6.576 3.234 13.43 3.637 15.22 1.014 4.502 5.629 2.053 5.638-.608.004-1.206-.323-7.766-.987-14.737l-8.288.125Z" fill="#E8BFA6"/><path d="M492.859 140.502c1.616 2.206 2.954 11.743 3.678 20.047l-7.579 1.9c-1.579-6.641-3.669-16.725-3.882-19.208-.444-5.196 6.159-4.957 7.783-2.739Z" fill="#C68BBC"/><path d="M497.833 156.382c.259 2.572.046 4.933-.083 7.394-1.795-1.426-7.603.303-8.763 2.506-.575-2.392-1.508-4.823-2.108-7.392 1.888-3.793 9.829-3.846 10.954-2.508Z" fill="#FAFAFA"/><path d="M491.801 181.676c.311-.898.182-2.443.439-2.689.087-.02.773 1.235 1.038 2.984.315 2.073.336 2.787.575 3.076.903 1.891 4.54-.095 4.968-.456 1.59-1.343 1.538-5.019 1.357-6.6-.203-1.772-1.014-3.468-1.883-4.283-.572-.537-1.117-1.664-1.293-2.245-.701-2.316-6.153-2.11-5.946-.733.179 1.262.031 2.022-.577 2.892-1.136 1.622-1.124 4.406-.918 4.893.453 1.067.343 3.081.156 3.872a.387.387 0 0 0 .284.47c.646.141 1.406-.045 1.8-1.181Z" fill="#E8BFA6"/><path d="m394.515 170.616 6.257-2.885-.094.968-6.257 2.885.094-.968Z" fill="#B97F41"/><path d="m394.421 171.584 6.257-2.885 30.543 22.185-6.257 2.884-30.543-22.184Z" fill="#D08F49"/><path d="m424.964 193.768 6.257-2.884-1.783 18.339-6.257 2.884 1.783-18.339Z" fill="#A8733B"/><path d="m425.058 192.8 6.256-2.884-.094.968-6.256 2.884.094-.968Z" fill="#636363"/><path d="m394.515 170.616 6.257-2.885 30.543 22.185-6.257 2.884-30.543-22.184Z" fill="#976835"/><path d="m425.058 192.8-.094.968-30.543-22.185.094-.967 30.543 22.184Z" fill="#060606"/><path d="m425.71 186.094 6.257-2.885-.652 6.707-6.257 2.884.652-6.706Z" fill="#A8733B"/><path d="m425.71 186.094-.652 6.706-30.543-22.184-.094.968 30.543 22.184-1.783 18.339-30.542-22.184 1.782-18.339.094-.968.652-6.707 30.543 22.185Z" fill="#4F361A"/><path d="m395.167 163.909 6.257-2.885 30.542 22.185-6.256 2.884-30.543-22.184Z" fill="#D6934B"/><path d="m410.486 170.486 7.688 5.455-2.076.874-7.685-5.457 2.073-.872Z" fill="#D9D9D9"/><path d="m409.135 170.041 1.564-.721-.133 1.369-1.564.721.133-1.369Z" fill="#C5C5C5"/><path d="m409.002 171.41 1.564-.721 1.235.876-1.564.721-1.235-.876Z" fill="#DCDCDC"/><path d="m409.135 170.041 1.564-.721 1.235.876-1.564.721-1.235-.876Z" fill="#9F9F9F"/><path d="m410.37 170.917 1.564-.721-.133 1.368-1.564.721.133-1.368Z" fill="#C4BD3C"/><path d="m410.37 170.917-.133 1.369-1.235-.876.133-1.368 1.235.875Z" fill="#6E6A0D"/><path d="m410.574 168.821 1.564-.721-.204 2.096-1.564.721.204-2.096Z" fill="#7D7D7D"/><path d="m415.118 174.284 1.565-.721-.133 1.369-1.565.721.133-1.369Z" fill="#C5C5C5"/><path d="m414.985 175.653 1.565-.721 1.232.874-1.564.721-1.233-.874Z" fill="#DCDCDC"/><path d="m415.118 174.284 1.565-.721 1.232.874-1.564.721-1.233-.874Z" fill="#9F9F9F"/><path d="m416.351 175.159-.133 1.368-1.233-.874.133-1.368 1.233.874Z" fill="#6E6A0D"/><path d="m416.351 175.159 1.564-.721-.133 1.368-1.564.721.133-1.368Z" fill="#C4BD3C"/><path d="m416.685 171.716 1.564-.721-.334 3.442-1.564.722.334-3.443Z" fill="#7D7D7D"/><path d="m409.47 166.598 1.564-.721 7.216 5.117-1.564.721-7.216-5.117Z" fill="#ABABAB"/><path d="m416.686 171.716-.335 3.443-1.232-.874-.133 1.368 1.232.874-1.232-.874.336-3.464-4.748-3.368-.204 2.096-1.235-.876-.133 1.369 1.235.876-1.235-.876.468-4.811 7.216 5.117Z" fill="#2E2E2E"/><path d="m423.618 184.61 2.092 1.483 2.202-1.015c-1.303-.714-2.75-.802-4.294-.468Z" fill="#FFF750"/><path d="m427.912 185.079-2.202 1.015-.222 2.278c.961-.731 1.737-1.906 2.424-3.293Zm-.63 25.161 2.202-1.015.221-2.278c-.96.731-1.736 1.906-2.423 3.293Z" fill="#C4BD3C"/><path d="m425.489 188.372.221-2.278-2.092-1.484c.331 1.534.888 2.852 1.871 3.762Zm-32.607-.958-.221 2.278 2.092 1.484c-.331-1.535-.889-2.853-1.871-3.762Z" fill="#6E6A0D"/><path d="m429.751 184.231 2.216-1.022-1.98-1.404c-.363.828-.446 1.636-.236 2.426Z" fill="#FFF750"/><path d="m431.73 185.638.237-2.429-2.216 1.022a3.185 3.185 0 0 0 1.979 1.407Zm-8.312 24.041-.237 2.428 2.216-1.021a3.184 3.184 0 0 0-1.979-1.407Z" fill="#C4BD3C"/><path d="m403.433 162.449-2.009-1.425-2.169 1c1.263.624 2.655.769 4.178.425Zm-6.107.465-2.159.995 2.041 1.447c.363-.743.334-1.572.118-2.442Z" fill="#FFF750"/><path d="m397.208 165.356-2.041-1.447-.247 2.539c.865-.091 1.628-.455 2.288-1.092Zm23.94 45.305 2.041 1.447.237-2.428c-.864.091-1.617.344-2.278.981Z" fill="#6E6A0D"/><path d="M452.331 80.788c-.354 1.2.079 3 0 4.818-.161 3.656-.588 6.964.27 10.411.997 4 1.961 7.21 6.686 4.856 4.399-2.192 7.198-3.117 6.689-9.629-.266-3.401 11.346-.497 12.267-5.458 1.634-8.805-4.729-15.422-11.405-15.617-7.74-.226-12.042 2.253-14.507 10.62Z" fill="#FFD4B9"/><path d="m448.078 111.875 5.345.685 5.028-26.969-3.884-.358c.524 10.205-2.67 18.162-6.489 26.642Z" fill="#6E4839"/><path d="M436.755 236.181c-1.365 3.008-1.944 4.297-3.187 5.347.718.325 4.229-1.194 5.594-4.202 1.366-3.008.957-7.918.239-8.243-.719-.325-1.281 4.09-2.646 7.098Z" fill="#E8BFA6"/><path d="M440.685 131.148c.779 4.237 6.67 4.677 8.162 7.374 2.193-2.541-2.576-19.481-5.199-19-.536 3.366-3.742 7.39-2.963 11.626Z" fill="#B44134"/><path d="M479.768 180.276c-.954 5.923-1.578 11.606-13.528 12.248-12.806 5.967-18.144 6.123-23.054 8.384-4.984 2.295-8.446-4.742-7.625-10.146.745-4.912 24.093-20.82 31.995-19.488 9.159 1.544 13.299 2.245 12.212 9.002Z" fill="#E8BFA6"/><path d="M439.366 231.219c1.355-19.644-6.467-33.893-3.489-41.47 1.943-4.943 9.109 2.702 10.018 7.9 3.077 17.594-.257 17.558 1.28 33.651-3.151.55-5.274 2.113-7.809-.081Zm41.595-57.521c3.374 3.92 1.184 15.072-4.85 22.422-1.093 13.781-4.02 36.906-4.553 42.077-.562 5.452-8.104 2.245-11.527-2.019-2.271-2.829.38-57.777 5.554-63.888 5.998-7.083 10.909-3.781 15.376 1.408Z" fill="#E8BFA6"/><path d="M473.477 278.751c-6.541-18.575-15.122-36.414-13.4-43.747 1.213-5.17 8.919-1.571 11.515 3.025 5.799 10.262-.03 13.208 9.175 39.419-1.323 3.264-3.03 4.317-7.29 1.303Z" fill="#E8BFA6"/><path d="M480.961 173.698c3.374 3.92 1.184 15.072-4.85 22.422-1.094 13.781-4.02 36.906-4.553 42.077-.563 5.452-8.104 2.245-11.528-2.019-2.27-2.829.381-57.777 5.555-63.888 5.998-7.083 10.908-3.781 15.376 1.408Z" fill="#E8BFA6"/><path d="M473.477 278.751c-6.541-18.575-15.122-36.414-13.4-43.747 1.213-5.17 8.919-1.571 11.515 3.025 5.799 10.262-.03 13.208 9.175 39.419-1.323 3.264-3.03 4.317-7.29 1.303Z" fill="#E8BFA6"/><path d="M434.255 196.687c1.817 14.902 36.562 34.161 41.389 23.308-1.685-20.585 14.856-32.495 4.46-48.689-7.294-3.785-19.07-7.944-30.789-2.768 1.226 15.13-15.14 9.246-15.06 28.149Z" fill="#3B3B3B"/><path d="M449.318 168.568c3.908 4.639 23.951 6.359 30.808 2.892 3.291-3.483-4.287-4.788-3.223-18.004 1.471-18.261 8.272-42.414 5.335-45.364-6.888-6.92-36.35-3.697-39.008.626-2.641 4.293 8.954 32.035 7.833 48.66-.617 9.139-2.766 9.295-1.745 11.19Z" fill="#C68BBC"/><path d="M429.795 246.892c1.415.795 3.481 1.252 4.726.596 5.158-2.723 7.75-8.413 11.814-14.358l-7.531-3.406s-.828 9.656-5.151 11.684c-2.072.972-3.014-.465-4.911 1.318-1.249 1.174.008 3.578 1.053 4.166Z" fill="#3B3B3B"/><path d="M434.35 247.603s5.048-.817 6.195-1.651c2.622-1.906 5.317-10.068 5.317-10.068-1.752-.927-4.059-.168-5.461 1.555-3.236 3.977-3.791 7.978-6.051 10.164Z" fill="gray"/><path d="M439.949 237.471c2.607-2.095 3.832-1.956 6.041-1.651 1.448-2.854 2.542-6.352.127-8.445-1.763-1.528-4.851-.877-6.932 1.651-1.865 2.265-.91 5.57.764 8.445Z" fill="#3B3B3B"/><path d="M442.937 249.219c.509.889 1.972.698 2.417 0l.699-13.717-3.879-.127.763 13.844ZM464.804 296.674c1.414.795 3.481 1.253 4.725.596 5.159-2.722 7.75-8.412 11.815-14.357l-7.531-3.407s-.829 9.657-5.151 11.685c-2.072.971-3.014-.465-4.911 1.318-1.249 1.174.009 3.578 1.053 4.165Z" fill="#3B3B3B"/><path d="M469.36 297.386s5.047-.817 6.194-1.651c2.622-1.906 5.318-10.069 5.318-10.069-1.753-.926-4.06-.167-5.462 1.556-3.236 3.977-3.791 7.978-6.05 10.164Z" fill="gray"/><path d="M474.957 287.254c2.608-2.096 3.833-1.956 6.042-1.651 1.448-2.854 2.542-6.352.127-8.446-1.763-1.528-4.851-.876-6.932 1.651-1.865 2.266-.91 5.571.763 8.446Z" fill="#3B3B3B"/><path d="M477.947 299.002c.508.889 1.971.698 2.416 0l.7-13.717-3.879-.127.763 13.844Z" fill="#3B3B3B"/><path d="M452.545 135.313c.174 2.802 16.174 5.831 21.437 1.783 0 0 8.441-12.334 4.425-28.495-3.013-12.125 4.634-26.93.893-33.91-3.592-6.7-15.2-8.334-21.387-4.056-8.946 6.185-1.348 25.603.758 39.439 1.747 11.48-6.528 18.759-6.126 25.239Z" fill="#6E4839"/><path d="M475.006 135.006c.242 2.383 8.267.118 10.113-1.656 4.18-4.017 4.695-10.293.569-23.168-2.112-6.592-8.434-10.703-6.18-28.5l-1.917-1.068c-2.147 17.391-2.928 25.163-.256 31.51 4.034 9.581-2.649 19.747-2.329 22.882Z" fill="#6E4839"/><path d="M425.165 156.427c1.421-2.127 2.812-3.878 4.551-5.8 2.884-1.828 9.432 4.381 8.111 7.533-1.91 1.603-3.912 2.95-6.101 4.309-2.559-.11-6.723-4.807-6.561-6.042Z" fill="#A3A3A3"/><path d="M427.265 155.524c-2.796 3.107-5.322 5.896-6.437 6.821-3.554 2.949 1.357 5.817 3.561 4.322 1.148-.778 6.289-4.628 11.353-8.871l-8.477-2.272Z" fill="#E8BFA6"/><path d="M442.43 109.395c1.319-3.667 8.745-2.211 8.581 4.232-.198 7.784-3.397 28.059-4.278 32.085-.846 3.868-6.101 6.374-7.349-1.843-.222-1.463 1.849-31.146 3.046-34.474Z" fill="#C68BBC"/><path d="M426.456 156.423c3.934-4.363 10.734-11.104 12.863-12.829 4.055-3.285 8.423-.573 7.357 2.835-.862 2.891-8.637 9.604-14.814 14.539-1.088-.973-4.695-3.994-5.406-4.545Z" fill="#C68BBC"/><path d="M425.165 156.427c1.421-2.127 2.812-3.878 4.551-5.8-.897 2.731 5.284 8.549 8.111 7.533-1.91 1.603-3.912 2.95-6.101 4.309-2.559-.11-6.723-4.807-6.561-6.042Z" fill="#FAFAFA"/><path d="M409.895 168.218c.086-.931 1.537-3.424 2.644-3.098 2.346.692 3.806-1.584 5.472-1.302 1.579.267 3.931-2.377 3.931-2.377l4.331 3.678s-2.126 1.854-3.303 4.161c-.91 1.782-5.356 4.118-6.53 4.02-2.166-.179-6.627-4.201-6.545-5.082Z" fill="#E8BFA6"/><path d="M410.237 164.605a.357.357 0 0 0-.306.404c.099.6.735 1.293 1.813 1.034.952-.228 2.595-.648 3.546.374l2.91-2.315s-2.522-.519-3.086-.596c-1.06-.144-4.135.989-4.877 1.099Z" fill="#E8BFA6"/><path d="M547.038 99.622c-5.306 3.059-6.581 7.567-3.824 11.314-.73.322-1.434.673-2.102 1.059-8.09 4.663-8.132 12.227-.096 16.89 8.037 4.664 21.113 4.664 29.202.001 1.595-.92 2.871-1.953 3.84-3.051 8.235.521 16.804-1.039 23.143-4.694 1.97-1.136 3.585-2.398 4.857-3.739 5.536.117 11.145-1.045 15.384-3.489 8.089-4.663 8.132-12.226.096-16.89-3.167-1.838-7.117-2.948-11.234-3.337-.86-1.224-2.142-2.37-3.851-3.362-6.915-4.012-18.158-4.01-25.115 0-1.557.898-2.765 1.919-3.627 3.01-4.873.361-9.617 1.457-13.701 3.286-4.675-.06-9.392.938-12.972 3.002Z" fill="#CBCBCB"/><path d="M555.132 126.342c5.034 0 9.73-1.109 13.225-3.123 1.288-.743 2.345-1.577 3.141-2.479l.905-1.026 1.366.086c.967.062 1.951.092 2.925.092 7.081.001 13.704-1.569 18.646-4.418 1.685-.971 3.107-2.062 4.226-3.242l.849-.896 1.236.026c.232.005.465.008.698.008 5.039 0 9.738-1.109 13.232-3.124 2.983-1.72 4.696-3.93 4.699-6.064.003-2.112-1.678-4.3-4.611-6.002-2.717-1.577-6.207-2.604-10.093-2.971l-1.282-.121-.74-1.053c-.654-.93-1.653-1.79-2.969-2.553-2.882-1.673-6.942-2.632-11.138-2.632-4.199 0-8.274.96-11.179 2.636-1.214.7-2.166 1.48-2.83 2.32l-.76.964-1.225.09c-4.669.347-9.083 1.402-12.766 3.05l-.562.253-.617-.008a27.303 27.303 0 0 0-.362-.003c-4.203 0-8.277.96-11.177 2.632-2.119 1.221-3.458 2.714-3.771 4.203-.212 1.01.057 2.035.8 3.046l2.058 2.799-3.18 1.402c-.66.291-1.278.601-1.834.922-2.983 1.72-4.696 3.93-4.699 6.064-.003 2.113 1.678 4.3 4.611 6.002 3.467 2.012 8.147 3.12 13.178 3.12Z" fill="#FAFAFA"/><path d="M555.133 123.555c4.792 0 9.24-1.043 12.526-2.937 1.157-.667 2.096-1.405 2.791-2.193l1.358-1.539 2.049.129c.936.06 1.89.09 2.836.09 6.842 0 13.216-1.503 17.949-4.232 1.569-.904 2.884-1.911 3.91-2.993l1.275-1.344 1.854.039c.222.004.445.007.668.007 4.798 0 9.249-1.043 12.534-2.937 2.503-1.443 3.999-3.259 4.001-4.859.002-1.578-1.462-3.37-3.916-4.795-2.544-1.476-5.837-2.44-9.523-2.788l-1.924-.182-1.11-1.58c-.537-.763-1.387-1.486-2.527-2.148-2.675-1.552-6.479-2.443-10.437-2.443-3.961 0-7.781.893-10.481 2.449-1.06.611-1.878 1.276-2.432 1.977l-1.141 1.444-1.837.136c-4.508.335-8.761 1.349-12.298 2.932l-.843.378-.924-.012-.345-.002c-3.965 0-7.784.891-10.479 2.445-1.745 1.005-2.876 2.202-3.103 3.282-.129.614.054 1.247.56 1.935l3.087 4.197-4.771 2.103c-.615.272-1.187.559-1.7.855-2.503 1.443-3.998 3.26-4.001 4.859-.002 1.578 1.462 3.37 3.916 4.795 3.257 1.891 7.689 2.932 12.478 2.932Z" fill="#FAFAFA"/><path d="M425.203 38.575c3.865 2.229 4.794 5.513 2.786 8.243.532.235 1.044.49 1.531.77 5.893 3.398 5.924 8.908.07 12.306-5.855 3.398-15.381 3.398-21.275 0-1.162-.67-2.091-1.422-2.797-2.222-5.999.38-12.242-.757-16.86-3.42-1.435-.827-2.612-1.747-3.538-2.724-4.034.085-8.12-.76-11.208-2.541-5.893-3.398-5.924-8.908-.07-12.306 2.308-1.338 5.185-2.147 8.184-2.43.627-.892 1.561-1.727 2.805-2.45 5.038-2.923 13.229-2.922 18.298 0 1.134.654 2.014 1.398 2.642 2.193 3.55.263 7.006 1.062 9.981 2.394 3.407-.044 6.843.684 9.451 2.187Z" fill="#CBCBCB"/><path d="M419.306 58.042c-3.667 0-7.089-.809-9.635-2.276-.938-.541-1.708-1.15-2.288-1.806l-.659-.748-.996.063c-.704.045-1.421.067-2.13.067-5.16 0-9.984-1.143-13.585-3.218-1.227-.708-2.263-1.503-3.078-2.362l-.619-.653-.9.02c-.17.003-.339.005-.509.005-3.671 0-7.094-.809-9.64-2.276-2.173-1.253-3.421-2.863-3.423-4.418-.002-1.539 1.222-3.132 3.359-4.372 1.98-1.15 4.522-1.898 7.353-2.165l.935-.088.539-.767c.476-.678 1.204-1.304 2.162-1.86 2.1-1.219 5.057-1.918 8.115-1.918 3.059 0 6.027.7 8.144 1.92.884.51 1.578 1.08 2.062 1.692l.554.7.892.067c3.401.252 6.617 1.02 9.3 2.222l.41.183.449-.005c.088-.002.176-.002.264-.002 3.061 0 6.029.699 8.143 1.917 1.543.89 2.519 1.977 2.747 3.062.154.736-.042 1.483-.583 2.22l-1.5 2.038 2.317 1.022c.482.212.931.438 1.336.672 2.174 1.253 3.421 2.863 3.424 4.417.002 1.54-1.223 3.133-3.359 4.373-2.526 1.466-5.936 2.274-9.601 2.274Z" fill="#FAFAFA"/><path d="M419.306 56.01c-3.492 0-6.733-.76-9.126-2.14-.843-.485-1.527-1.023-2.034-1.597l-.988-1.12-1.493.093c-.682.044-1.377.065-2.067.065-4.985 0-9.627-1.094-13.076-3.082-1.143-.66-2.101-1.393-2.848-2.18l-.929-.98-1.35.028a24.71 24.71 0 0 1-.487.005c-3.496 0-6.739-.76-9.132-2.139-1.823-1.051-2.913-2.375-2.914-3.54-.002-1.15 1.064-2.455 2.853-3.493 1.853-1.076 4.252-1.778 6.937-2.032l1.402-.132.808-1.15c.392-.557 1.011-1.084 1.842-1.566 1.949-1.13 4.72-1.78 7.603-1.78 2.886 0 5.669.65 7.636 1.785.772.445 1.368.93 1.772 1.44l.831 1.053 1.338.099c3.284.243 6.383.982 8.96 2.136l.614.275.673-.009.251-.001c2.889 0 5.671.649 7.634 1.78 1.272.734 2.095 1.605 2.261 2.392.094.447-.04.909-.408 1.41l-2.249 3.058 3.476 1.532c.448.198.865.407 1.238.622 1.824 1.052 2.913 2.375 2.915 3.54.002 1.15-1.065 2.456-2.853 3.493-2.373 1.377-5.602 2.136-9.09 2.136Z" fill="#FAFAFA"/><path d="M95.172 70.858C86.915 75.62 84.93 82.635 89.22 88.467a34.092 34.092 0 0 0-3.272 1.647c-12.589 7.258-12.655 19.03-.148 26.288 12.507 7.258 32.856 7.258 45.445 0 2.483-1.431 4.469-3.039 5.976-4.747 12.815.81 26.151-1.618 36.017-7.307 3.065-1.767 5.578-3.731 7.558-5.819 8.616.182 17.345-1.626 23.942-5.43 12.589-7.257 12.655-19.029.148-26.287-4.928-2.86-11.075-4.587-17.482-5.192-1.339-1.906-3.333-3.69-5.993-5.233-10.761-6.245-28.259-6.243-39.086 0-2.423 1.397-4.302 2.985-5.644 4.683-7.583.563-14.966 2.269-21.323 5.115-7.275-.092-14.615 1.461-20.186 4.673Z" fill="#CBCBCB"/><path d="M107.769 112.445c7.833 0 15.142-1.727 20.58-4.862 2.005-1.156 3.65-2.454 4.888-3.858l1.408-1.597 2.127.134c1.504.096 3.035.144 4.551.144 11.021 0 21.327-2.442 29.019-6.877 2.622-1.512 4.834-3.209 6.576-5.045l1.323-1.394 1.923.04c.361.008.724.011 1.086.011 7.842 0 15.155-1.726 20.592-4.86 4.642-2.677 7.308-6.117 7.313-9.439.004-3.287-2.611-6.691-7.176-9.34-4.229-2.454-9.66-4.053-15.707-4.625l-1.996-.188-1.151-1.639c-1.018-1.448-2.573-2.785-4.62-3.974-4.485-2.602-10.803-4.095-17.333-4.095-6.536 0-12.877 1.495-17.398 4.102-1.89 1.089-3.372 2.304-4.405 3.612l-1.183 1.499-1.906.141c-7.266.539-14.136 2.18-19.867 4.747l-.875.392-.959-.012a40.784 40.784 0 0 0-.564-.004c-6.54 0-12.88 1.493-17.395 4.096-3.297 1.9-5.381 4.223-5.868 6.54-.33 1.574.089 3.169 1.246 4.742l3.203 4.355-4.95 2.183a29.956 29.956 0 0 0-2.854 1.435c-4.643 2.677-7.308 6.117-7.313 9.439-.005 3.287 2.61 6.691 7.175 9.34 5.396 3.132 12.68 4.857 20.51 4.857Z" fill="#FAFAFA"/><path d="M107.769 108.106c7.458 0 14.381-1.623 19.494-4.571 1.8-1.038 3.262-2.187 4.344-3.413l2.112-2.395 3.19.201c1.456.093 2.941.14 4.414.14 10.648 0 20.566-2.34 27.933-6.587 2.44-1.407 4.488-2.974 6.085-4.658l1.983-2.092 2.885.061c.346.007.693.011 1.04.011 7.467 0 14.395-1.623 19.506-4.57 3.896-2.246 6.223-5.073 6.227-7.563.003-2.456-2.275-5.245-6.095-7.462-3.959-2.298-9.084-3.798-14.82-4.34l-2.994-.282-1.727-2.458c-.836-1.19-2.16-2.315-3.934-3.345-4.163-2.416-10.083-3.802-16.241-3.802-6.166 0-12.111 1.39-16.312 3.812-1.65.95-2.924 1.986-3.785 3.077l-1.775 2.248-2.859.212c-7.017.52-13.635 2.098-19.14 4.563l-1.312.588-1.438-.019-.536-.003c-6.171 0-12.115 1.387-16.308 3.805-2.716 1.565-4.476 3.427-4.83 5.108-.2.956.085 1.941.872 3.012l4.804 6.532-7.424 3.274c-.958.422-1.848.87-2.646 1.33-3.895 2.245-6.223 5.073-6.227 7.562-.003 2.456 2.275 5.245 6.095 7.462 5.07 2.942 11.966 4.562 19.419 4.562ZM112.604 294.029c7.458 0 14.381-1.623 19.495-4.571 1.8-1.038 3.262-2.186 4.343-3.413l2.113-2.395 3.189.201c1.457.093 2.941.14 4.414.14 10.648 0 20.567-2.339 27.933-6.586 2.441-1.408 4.488-2.975 6.086-4.658l1.983-2.092 2.885.06c.345.007.693.011 1.04.011 7.467 0 14.395-1.623 19.506-4.57 3.896-2.246 6.223-5.073 6.227-7.562.003-2.456-2.275-5.245-6.095-7.462-3.959-2.298-9.084-3.799-14.821-4.341l-2.993-.282-1.727-2.458c-.836-1.19-2.16-2.315-3.934-3.345-4.163-2.415-10.083-3.801-16.241-3.801-6.166 0-12.111 1.389-16.312 3.811-1.65.951-2.924 1.987-3.785 3.077l-1.775 2.248-2.859.212c-7.017.521-13.635 2.098-19.14 4.563l-1.312.588-1.438-.018-.536-.004c-6.171 0-12.115 1.387-16.309 3.805-2.715 1.565-4.475 3.428-4.828 5.108-.201.956.084 1.942.871 3.012l4.804 6.532-7.424 3.274c-.958.422-1.848.87-2.646 1.33-3.895 2.246-6.223 5.073-6.227 7.563-.003 2.455 2.275 5.245 6.095 7.461 5.07 2.942 11.966 4.562 19.418 4.562Zm446.155 13.402c4.793 0 9.241-1.044 12.527-2.937 1.157-.667 2.096-1.405 2.791-2.194l1.357-1.538 2.05.129a45.23 45.23 0 0 0 2.836.089c6.842 0 13.215-1.502 17.949-4.231 1.568-.905 2.884-1.912 3.91-2.993l1.275-1.344 1.853.039c.222.004.445.007.669.007 4.798 0 9.249-1.043 12.534-2.937 2.503-1.443 3.999-3.26 4.001-4.859.002-1.578-1.462-3.37-3.916-4.795-2.545-1.476-5.838-2.44-9.524-2.788l-1.923-.182-1.11-1.579c-.537-.765-1.387-1.488-2.527-2.149-2.676-1.553-6.48-2.443-10.437-2.443-3.962 0-7.782.892-10.481 2.449-1.06.611-1.879 1.276-2.432 1.977l-1.141 1.444-1.837.136c-4.509.335-8.761 1.349-12.298 2.932l-.844.378-.924-.012-.344-.002c-3.965 0-7.785.891-10.48 2.445-1.745 1.005-2.875 2.202-3.102 3.282-.129.614.054 1.247.559 1.935l3.087 4.197-4.77 2.103a17.7 17.7 0 0 0-1.7.855c-2.503 1.443-3.999 3.26-4.001 4.859-.003 1.578 1.462 3.37 3.916 4.795 3.257 1.89 7.689 2.932 12.477 2.932Z" fill="#FAFAFA"/></svg>