<svg width="58" height="80" fill="none" xmlns="http://www.w3.org/2000/svg"><g clip-path="url('#clip0_111_4236')"><path d="M57.98 46.186c.012 15.913-12.9 28.813-28.813 28.813C13.252 75 .363 62.1.351 46.186.335 23.664 29.166 5 29.166 5s28.797 18.664 28.813 41.186h.001Z" fill="#FAFAFA"/><path d="M49.831 57.511H45.63l-8.972-8.963 8.782-8.783h4.21l-8.783 8.783 8.964 8.963Z" fill="#DC2328"/><path fill-rule="evenodd" clip-rule="evenodd" d="M7.102 42.676h2.679v14.755h3.176V39.688H7.102v2.989Zm19.525-2.957h-10.4v17.705h3.189v-14.78h6.433s.708-.072 1.151.381c.461.472.376 1.142.376 1.142v13.264h3.175v-13.79s.123-1.473-1.16-2.758c-1.266-1.27-2.763-1.164-2.763-1.164Zm6.843-7.998v25.74h3.175V31.72H33.47Z" fill="#060606"/></g><defs><clipPath id="clip0_111_4236"><path fill="#fff" transform="translate(.352 5)" d="M0 0h57.628v70H0z"/></clipPath></defs></svg>