<svg width="40" height="40" fill="none" xmlns="http://www.w3.org/2000/svg"><mask id="path-1-inside-1_80_7352" fill="#fff"><path d="m12.684 26.031 2.402.01.027 4.68-2.234.04-.119-1.45-.01-1.635-.066-1.645Zm17.953-.119V31l-2.015.146-.08-2.692-.247-2.486 2.342-.055ZM6.62 25.896l3.374.175-.303 2.004v1.904l.214.817-3.265.152-.02-5.052Zm15.971-.131 1.965.127-.077 3.028.286 2.405-2.094-.072-.077-5.488h-.003Zm-6.27-13.278-.067.413.311.365-.023.605.275.421-.073.512.038.055-2.884.115.03-.237-1.02-.553-.033-.538.453-.023.045-.934 2.948-.2Zm8.091-.72-.014.822.636.026-.025.5-1.233.809-.134.402-2.904.14.015-.287.174-.282.015-.24.002-.356.105-.244.049-.25v-.143l.125-.505 3.19-.392ZM38.305 2.3l-.125.062c-3.715 1.799-8.03 3.234-12.552 4.09l-.326.051c-2.896.375-7.113.752-10.878.969-1.693.103-3.387.164-5.083.183a16.307 16.307 0 0 1-3.138-.184l.092.011a31.003 31.003 0 0 1-3.965-1.216l.216.072-.394-.156.54 1.831-1.437 1.265.387.682.688.05 1.643.206.253.802.993.089.496 1.684.143.01s2.09.18 2.753.18c.57 0 1.453-.063 1.675-.079l.037.619.45.084v.492l-1.25 1.109.244.043c-.219.016-.355.03-.781.047a12.81 12.81 0 0 1-1.929-.033l.05.004a10.213 10.213 0 0 0-1.074-.133l-.035-.002H5.91l-.19.203-.071.696h.237l.087 1.735 4.58-.177-.32 5.752-.03.542-3.503-.199-.031-1.188h.84l.088-.657.725-.166.35-.487-3.298-.796-2.664.79.726.606h.259l.039.521.771.044v1.192l-.955.245.296.632.164.106v1.289h.536v5.148l-.884.134.153 1.948.521.087-.086 3.659 2.816.051-.5-3.598 3.096-.075-.218 1.698-.39 1.612 4.075.052.042-3.562 2.065-.187-.112 2.021-.099 1.547h2.551l-.082-3.593.275.042.105-2.173h-.38l-.09-.532-.205-2.015.076-2.13h.461v-1.846l-.569.043.063-1.259.671-.067.037-.55.268-.04.797-.607-2.854-.586-2.672.592.447.733.373-.031.084-.006.053.69.64-.032.006 1.053-2.384-.055.083-1.37.092-1.447v-1.895l.075-1.8 5.444-.277 6.49-.375.051 1.053-.237 3.044-.099 2.645-2.063-.036-.01-1.59.897-.032.043-.583.422-.064-.019-.088.238-.015.452-.606-3.14-.737-3.102.665.402.703.219-.017v.14h.383v.627l.82.012-.01 1.338h-.825l-.022.789.293.033-.033 1.528.614.031-.069 5.646-.818.169.026.661h.274v1.539h.452l-.109 1.883-.175 2.052 3.39.089-.109-1.831-.215-1.325-.034-.927 2.07-.037-.062 1.565-.014 2.077 1.614.128 1.956-.078.833-.245-.39-1.187-.083-1.563-.125-.911 1.927-.07-.09 1.159-.01 2.366 1.153.107.986-.025.65-.202-.292-2.224-.076-1.346.39-.042.01-1.398.125-.026-.043-.672h-.474l-.076-.823-.036-4.205.346-.01V24.54l.15.021v-.72l-.521-.042.01-1.306.89-.08-.051-.566.406-.032-.037-.182.906-.453-3.211-.645-2.937.594.361.675.35-.032.02.12h.318l.017.665.855-.01.055 1.208-2.608-.019-.331-2.276-.278-1.29-.226-2.295.117-1.165 6.009-.457.019-2.057.314-.077-.037-.594-.373-.215h-.058l-.558.078-1.238.18c-.845.124-1.691.237-2.539.338l-.296.031-.024-.277-1.226-.64.01-.43.424-.012.03-1.05c.14-.01.55-.038 1.204-.097a19.002 19.002 0 0 0 2.247-.301l-.12.02c.932-.219 2.267-.438 2.267-.438l.119-.02.638-1.73 1.257-.366.102-.287 2.78-.769.478-.394-1.12-2.442.074-.369.537-.281.464-1.415-.394-.349.003.008Z"/></mask><path d="m12.684 26.031 2.402.01.027 4.68-2.234.04-.119-1.45-.01-1.635-.066-1.645Zm17.953-.119V31l-2.015.146-.08-2.692-.247-2.486 2.342-.055ZM6.62 25.896l3.374.175-.303 2.004v1.904l.214.817-3.265.152-.02-5.052Zm15.971-.131 1.965.127-.077 3.028.286 2.405-2.094-.072-.077-5.488h-.003Zm-6.27-13.278-.067.413.311.365-.023.605.275.421-.073.512.038.055-2.884.115.03-.237-1.02-.553-.033-.538.453-.023.045-.934 2.948-.2Zm8.091-.72-.014.822.636.026-.025.5-1.233.809-.134.402-2.904.14.015-.287.174-.282.015-.24.002-.356.105-.244.049-.25v-.143l.125-.505 3.19-.392ZM38.305 2.3l-.125.062c-3.715 1.799-8.03 3.234-12.552 4.09l-.326.051c-2.896.375-7.113.752-10.878.969-1.693.103-3.387.164-5.083.183a16.307 16.307 0 0 1-3.138-.184l.092.011a31.003 31.003 0 0 1-3.965-1.216l.216.072-.394-.156.54 1.831-1.437 1.265.387.682.688.05 1.643.206.253.802.993.089.496 1.684.143.01s2.09.18 2.753.18c.57 0 1.453-.063 1.675-.079l.037.619.45.084v.492l-1.25 1.109.244.043c-.219.016-.355.03-.781.047a12.81 12.81 0 0 1-1.929-.033l.05.004a10.213 10.213 0 0 0-1.074-.133l-.035-.002H5.91l-.19.203-.071.696h.237l.087 1.735 4.58-.177-.32 5.752-.03.542-3.503-.199-.031-1.188h.84l.088-.657.725-.166.35-.487-3.298-.796-2.664.79.726.606h.259l.039.521.771.044v1.192l-.955.245.296.632.164.106v1.289h.536v5.148l-.884.134.153 1.948.521.087-.086 3.659 2.816.051-.5-3.598 3.096-.075-.218 1.698-.39 1.612 4.075.052.042-3.562 2.065-.187-.112 2.021-.099 1.547h2.551l-.082-3.593.275.042.105-2.173h-.38l-.09-.532-.205-2.015.076-2.13h.461v-1.846l-.569.043.063-1.259.671-.067.037-.55.268-.04.797-.607-2.854-.586-2.672.592.447.733.373-.031.084-.006.053.69.64-.032.006 1.053-2.384-.055.083-1.37.092-1.447v-1.895l.075-1.8 5.444-.277 6.49-.375.051 1.053-.237 3.044-.099 2.645-2.063-.036-.01-1.59.897-.032.043-.583.422-.064-.019-.088.238-.015.452-.606-3.14-.737-3.102.665.402.703.219-.017v.14h.383v.627l.82.012-.01 1.338h-.825l-.022.789.293.033-.033 1.528.614.031-.069 5.646-.818.169.026.661h.274v1.539h.452l-.109 1.883-.175 2.052 3.39.089-.109-1.831-.215-1.325-.034-.927 2.07-.037-.062 1.565-.014 2.077 1.614.128 1.956-.078.833-.245-.39-1.187-.083-1.563-.125-.911 1.927-.07-.09 1.159-.01 2.366 1.153.107.986-.025.65-.202-.292-2.224-.076-1.346.39-.042.01-1.398.125-.026-.043-.672h-.474l-.076-.823-.036-4.205.346-.01V24.54l.15.021v-.72l-.521-.042.01-1.306.89-.08-.051-.566.406-.032-.037-.182.906-.453-3.211-.645-2.937.594.361.675.35-.032.02.12h.318l.017.665.855-.01.055 1.208-2.608-.019-.331-2.276-.278-1.29-.226-2.295.117-1.165 6.009-.457.019-2.057.314-.077-.037-.594-.373-.215h-.058l-.558.078-1.238.18c-.845.124-1.691.237-2.539.338l-.296.031-.024-.277-1.226-.64.01-.43.424-.012.03-1.05c.14-.01.55-.038 1.204-.097a19.002 19.002 0 0 0 2.247-.301l-.12.02c.932-.219 2.267-.438 2.267-.438l.119-.02.638-1.73 1.257-.366.102-.287 2.78-.769.478-.394-1.12-2.442.074-.369.537-.281.464-1.415-.394-.349.003.008Z" fill="#FAFAFA" stroke="#060606" stroke-width="2" mask="url('#path-1-inside-1_80_7352')"/></svg>