<svg width="60" height="60" fill="none" xmlns="http://www.w3.org/2000/svg"><g clip-path="url('#clip0_75_18')"><path d="M60 0H0v60h60V0Z" fill="#F1DC50"/><path d="M30.59 26.666v16c0 1.753-1.055 4-4.04 4-4.818 0-5.05-4-5.05-4M48.348 31.7c-1.212-2.022-2.819-3.033-4.82-3.033-3.126 0-4.856 2-4.856 4s1.01 4 5.067 5c2.582.637 5.034 2 5.034 5s-2.658 4-5.05 4c-3.059 0-5.08-1.333-6.061-4" stroke="#333" stroke-width="4"/></g><defs><clipPath id="clip0_75_18"><rect width="60" height="60" rx="8" fill="#fff"/></clipPath></defs></svg>