<svg width="40" height="40" viewBox="0 0 40 40" fill="none" xmlns="http://www.w3.org/2000/svg">
<path d="M32 0H8C3.58172 0 0 3.58172 0 8V32C0 36.4183 3.58172 40 8 40H32C36.4183 40 40 36.4183 40 32V8C40 3.58172 36.4183 0 32 0Z" fill="#F1DC50"></path>
<path d="M20.625 18.1665C20.625 25.2903 20.625 29.2903 20.625 30.1665C20.625 31.4808 19.8407 33.1665 17.625 33.1665C14.0469 33.1665 13.875 30.1665 13.875 30.1665M33.8099 21.9406C32.9098 20.4245 31.7166 19.6665 30.2303 19.6665C27.9095 19.6665 26.625 21.1665 26.625 22.6665C26.625 24.1665 27.375 25.6665 30.3876 26.4165C32.3047 26.8938 34.125 27.9165 34.125 30.1665C34.125 32.4165 32.1518 33.1665 30.375 33.1665C28.1042 33.1665 26.6042 32.1665 25.875 30.1665" stroke="#333333" stroke-width="3"></path>
</svg>
