<svg width="250" height="80" fill="none" xmlns="http://www.w3.org/2000/svg"><g clip-path="url('#clip0_111_4241')"><path d="M87.762 29.188c-5.978 0-10.849 4.87-10.849 10.849 0 5.978 4.871 10.848 10.849 10.848s10.849-4.87 10.849-10.848c-.037-5.978-4.871-10.849-10.849-10.849Zm0 15.867c-2.767 0-5.055-2.25-5.055-5.055 0-2.768 2.25-5.056 5.055-5.056 2.768 0 5.055 2.251 5.055 5.056-.036 2.804-2.287 5.055-5.055 5.055Z" fill="#84BCE3"/><path d="M76.618 48.82a12.3 12.3 0 0 1-8.56 3.468c-6.79 0-12.289-5.498-12.289-12.288s5.499-12.288 12.288-12.288a12.3 12.3 0 0 1 8.561 3.469 13.923 13.923 0 0 1 6.31-4.539C79.275 22.583 73.961 20 68.058 20c-11.034 0-20 8.967-20 20s8.966 20 20 20c5.903 0 11.18-2.583 14.87-6.642a13.923 13.923 0 0 1-6.31-4.539ZM123.482 29.336h-9.779l1.402 1.033-2.214 9.151-2.546-10.184h-9.926l1.808 1.328v18.709l-1.808 1.328h8.708l-1.365-.996V37.122l4.797 13.58h.517l4.834-13.58v12.583l-1.366.996h8.746l-1.808-1.328V29.336ZM140.566 29.336h-12.398l1.808 1.328v18.709l-1.808 1.328h9.41l-1.809-1.328v-5.498h3.912c4.207 0 8.671-1.882 8.671-7.159 0-4.87-2.619-7.38-7.786-7.38Zm-1.66 10.148h-3.137v-5.757h3.026c1.993 0 3.801.222 3.801 2.73.037 2.51-1.402 3.026-3.69 3.026ZM162.227 29.336h-8.081l1.808 1.292-6.974 18.745-1.808 1.328h8.856l-1.107-.812.775-2.509h7.195l.775 2.546-1.107.812h8.819l-1.808-1.291-7.343-20.111Zm-5.166 13.727 2.177-7.49 2.325 7.49h-4.502ZM31.784 29.336h-8.08l1.807 1.292-6.974 18.745L16.73 50.7h8.856l-1.107-.812.775-2.509h7.233l.774 2.546-1.107.812h8.82l-1.809-1.291-7.38-20.111Zm-5.166 13.727 2.177-7.49 2.325 7.49h-4.502ZM7.984 46.052V29.336H.419l1.845 1.328v18.709L.419 50.7H13.85v-6.457l-1.329 1.808H7.984ZM215.179 29.336h-7.38l1.808 1.328v10.554l-6.937-11.882h-7.343l1.808 1.328v18.709l-1.808 1.328h8.745l-1.365-.996V39.04l6.383 10.738-1.291.922h9.225l-1.845-1.365v-20ZM248.869 33.949l.996 1.365v-5.978h-17.749l1.808 1.328v18.709l-1.808 1.328h17.712v-6.494l-1.291 1.808h-8.856V41.66h6.051l.997 1.365v-7.233l-.997 1.366h-6.051v-3.21h9.188ZM227.43 29.336h-7.565l1.809 1.328v18.709l-1.809 1.328h9.373l-1.808-1.328V29.336ZM191.747 38.782h-9.741v4.392h3.468c-1.07 2.546-3.062 2.546-3.874 2.546-3.469 0-4.687-3.026-4.687-5.83 0-3.174 2.067-5.683 4.834-5.83 1.882-.111 3.432.516 4.724 1.844l-.554 1.808 1.292-.96 4.502-3.283c-2.51-3.432-6.163-5.203-10.222-4.982-5.756.332-10.111 5.203-10.111 11.402 0 6.716 4.207 11.403 10.259 11.403 1.365 0 3.837-.296 5.756-2.62v2.03H193.113l-1.366-.997V38.783Z" fill="#FAFAFA"/></g><defs><clipPath id="clip0_111_4241"><path fill="#fff" transform="translate(.419 20)" d="M0 0h249.446v40H0z"/></clipPath></defs></svg>