<svg width="60" height="60" viewBox="0 0 60 60" fill="none" xmlns="http://www.w3.org/2000/svg">
<path d="M32.2638 27.0636V26.9707C32.2444 27.0021 32.2238 27.0334 32.2031 27.0636H32.2638Z" fill="#060606"></path>
<path d="M55.5642 0H4.43217C1.98483 0 0 1.92529 0 4.29812V55.7031C0 58.0747 1.98483 60 4.43217 60H55.5642C58.0152 60 60 58.0735 60 55.7031V4.29812C60 1.92408 58.014 0 55.5642 0ZM18.1863 50.2276H9.12413V23.1348H18.1863V50.2276ZM13.6558 19.4338H13.5951C10.5554 19.4338 8.58877 17.3529 8.58877 14.7533C8.58877 12.0958 10.6161 10.0728 13.7153 10.0728C16.8158 10.0728 18.7229 12.0958 18.7836 14.7533C18.7836 17.3529 16.8146 19.4338 13.6558 19.4338ZM50.8649 50.2276H41.8027V35.73C41.8027 32.0893 40.4917 29.6043 37.2127 29.6043C34.7096 29.6043 33.2188 31.2799 32.5621 32.8988C32.3229 33.4766 32.2646 34.2849 32.2646 35.0955V50.2264H23.2024C23.2024 50.2264 23.3214 25.6729 23.2024 23.1336H32.2646V26.9685C33.4689 25.1228 35.6225 22.4943 40.4334 22.4943C46.3951 22.4943 50.8662 26.3678 50.8662 34.6902L50.8649 50.2276Z" fill="#060606"></path>
</svg>