<svg width="178" height="80" viewBox="0 0 178 80" fill="none" xmlns="http://www.w3.org/2000/svg">
<g clip-path="url('#clip0_111_4243')">
<path d="M25.9009 6.28857H46.3102C53.0779 6.28857 56.4633 6.28857 60.1062 7.44066C64.0838 8.88881 67.2183 12.0233 68.6664 16.0008C69.8185 19.6438 69.8185 23.0292 69.8185 29.7969V50.2062C69.8185 56.9739 69.8185 60.3593 68.6664 64.0022C67.2183 67.9798 64.0838 71.1143 60.1062 72.5624C56.4633 73.7145 53.0779 73.7145 46.3102 73.7145H25.9009C19.1332 73.7145 15.7478 73.7145 12.1048 72.5624C8.12726 71.1143 4.99281 67.9798 3.54466 64.0022C2.39258 60.3593 2.39258 56.9739 2.39258 50.2062V29.7937C2.39258 23.026 2.39258 19.6405 3.54466 15.9976C4.99281 12.02 8.12726 8.88559 12.1048 7.43744C15.7478 6.28857 19.1332 6.28857 25.9009 6.28857Z" fill="#365BB0" stroke="#FAFAFA" stroke-width="3.2737" stroke-miterlimit="10"></path>
<path d="M120.028 62.2483H118.435L122.837 53.0059H122.959L127.207 62.2483H125.553L124.832 60.6553H120.764L120.028 62.2483ZM121.341 59.3777H124.272L122.821 56.0373L121.341 59.3777Z" fill="#365BB0"></path>
<path d="M130.293 62.6119H130.171L126.11 53.2954H127.783L130.284 59.1717L132.791 53.2954H134.371L130.293 62.6119Z" fill="#365BB0"></path>
<path d="M135.326 62.2484V53.2988H136.907V62.2484H135.326Z" fill="#365BB0"></path>
<path d="M139.414 62.2483H137.821L142.223 53.0059H142.345L146.593 62.2483H144.939L144.218 60.6553H140.15L139.414 62.2483ZM140.73 59.3777H143.661L142.21 56.0373L140.73 59.3777Z" fill="#365BB0"></path>
<path d="M150.094 54.6599V62.245H148.514V54.6599H145.489V53.2954H153.1V54.6599H150.094Z" fill="#365BB0"></path>
<path d="M154.284 62.2484V53.2988H155.865V62.2484H154.284Z" fill="#365BB0"></path>
<path d="M157.512 57.7719C157.512 57.2152 157.589 56.6906 157.744 56.1982C157.898 55.7059 158.127 55.2489 158.433 54.8273C158.851 54.2513 159.372 53.804 159.99 53.4854C160.608 53.1668 161.268 53.0059 161.963 53.0059C162.555 53.0059 163.125 53.1249 163.672 53.3599C164.219 53.5948 164.698 53.9327 165.11 54.3703C165.535 54.8241 165.857 55.339 166.079 55.915C166.301 56.4911 166.414 57.109 166.414 57.7719C166.414 58.4348 166.301 59.0527 166.079 59.6287C165.857 60.2048 165.535 60.7165 165.11 61.1606C164.685 61.6014 164.203 61.9393 163.659 62.1807C163.115 62.4221 162.549 62.5379 161.96 62.5379C161.368 62.5379 160.801 62.4221 160.26 62.1871C159.72 61.9522 159.24 61.6143 158.822 61.1734C158.391 60.7197 158.063 60.208 157.84 59.632C157.625 59.0591 157.512 58.438 157.512 57.7719ZM159.131 57.7719C159.131 58.6987 159.404 59.4711 159.948 60.0889C160.492 60.7068 161.165 61.019 161.963 61.019C162.764 61.019 163.44 60.71 163.987 60.0889C164.534 59.4678 164.808 58.6955 164.808 57.7719C164.808 56.8419 164.537 56.0695 163.993 55.4516C163.45 54.8338 162.774 54.5248 161.963 54.5248C161.155 54.5248 160.483 54.8338 159.942 55.4516C159.401 56.0663 159.131 56.8419 159.131 57.7719Z" fill="#365BB0"></path>
<path d="M168.019 62.2483V53.0059H168.187L173.953 58.9883V53.2955H175.485V62.5379H175.318L169.541 56.5554V62.2483H168.019Z" fill="#365BB0"></path>
<path d="M12.5972 62.0103L20.9997 19.6567H21.4792L36.1345 49.6753L50.735 19.6567H51.1888L59.5366 62.0103H52.4889L48.019 38.8399L36.4177 63.3974H35.7966L23.7447 38.8399L19.2748 62.0103H12.5972Z" fill="#FAFAFA"></path>
<path d="M74.6968 49.0282V26.6494H87.7205V30.0896H78.5231V35.599H86.4236V39.0102H78.5231V45.5526H87.875V49.025H74.6968V49.0282Z" fill="#365BB0"></path>
<path d="M92.3997 49.0281V25.9253H92.8148L107.229 40.8799V26.6494H111.055V49.7522H110.64L96.1938 34.7976V49.0249H92.3997V49.0281Z" fill="#365BB0"></path>
<path d="M114.775 49.0284L127.261 30.0319H116.336L116.877 26.6528H133.653L121.26 45.556H133.405L132.803 49.0284H114.775Z" fill="#365BB0"></path>
<path d="M137.54 49.0282V26.6494H141.492V49.025H137.54V49.0282Z" fill="#365BB0"></path>
<path d="M147.153 49.0282V26.6494H160.176V30.0896H150.979V35.599H158.879V39.0102H150.979V45.5526H160.331V49.025H147.153V49.0282Z" fill="#365BB0"></path>
<path d="M163.591 44.0564C164.804 44.8384 165.918 45.4144 166.925 45.7845C167.932 46.1546 168.891 46.3413 169.795 46.3413C170.967 46.3413 171.919 46.0516 172.65 45.4691C173.38 44.8867 173.744 44.1336 173.744 43.2068C173.744 42.4345 173.499 41.7426 173.01 41.1311C172.521 40.5197 171.672 39.8535 170.455 39.1327L168.772 38.1125C167.063 37.1053 165.853 36.1141 165.139 35.1422C164.424 34.1703 164.067 33.0569 164.067 31.8018C164.067 30.0544 164.695 28.632 165.95 27.5346C167.205 26.4404 168.84 25.8901 170.857 25.8901C171.836 25.8901 172.785 25.9996 173.705 26.2216C174.626 26.4437 175.556 26.7848 176.492 27.2482L176.37 30.8139C175.26 30.2056 174.278 29.7615 173.432 29.4783C172.582 29.1951 171.823 29.0535 171.157 29.0535C170.127 29.0535 169.316 29.282 168.727 29.739C168.135 30.196 167.839 30.8203 167.839 31.6152C167.839 32.233 168.054 32.793 168.486 33.2982C168.917 33.8035 169.721 34.3988 170.893 35.0875L172.515 36.0304C174.388 37.1407 175.72 38.2445 176.512 39.3419C177.303 40.436 177.699 41.6943 177.699 43.1135C177.699 45.1087 176.997 46.721 175.591 47.9439C174.188 49.1668 172.318 49.7814 169.982 49.7814C168.914 49.7814 167.871 49.672 166.857 49.45C165.843 49.2279 164.875 48.8964 163.948 48.4556L163.591 44.0564Z" fill="#365BB0"></path>
</g>
<defs>
<clipPath id="clip0_111_4243">
<rect width="177.283" height="70" fill="white" transform="translate(0.481934 5)"></rect>
</clipPath>
</defs>
</svg>
