<svg width="60" height="60" fill="none" xmlns="http://www.w3.org/2000/svg"><g clip-path="url('#clip0_77_15')"><path d="M3.61 2.588 36.81.136c4.078-.35 5.126-.114 7.69 1.75l10.598 7.466c1.748 1.284 2.33 1.634 2.33 3.032v40.945c0 2.567-.932 4.085-4.194 4.316L14.68 59.98c-2.448.116-3.614-.234-4.896-1.867L1.98 47.964C.58 46.096 0 44.698 0 43.064V6.668C0 4.57.932 2.82 3.61 2.588Z" fill="#FAFAFA"/><path fill-rule="evenodd" clip-rule="evenodd" d="M36.81.136 3.61 2.59C.932 2.82 0 4.57 0 6.668v36.396c0 1.634.58 3.032 1.98 4.9l7.804 10.148c1.282 1.634 2.448 1.984 4.896 1.868l38.554-2.334c3.26-.232 4.194-1.75 4.194-4.316V12.384c0-1.326-.523-1.708-2.065-2.84L44.5 1.886c-2.564-1.864-3.612-2.1-7.69-1.75ZM15.552 11.714c-3.148.212-3.862.26-5.65-1.194L5.356 6.904c-.462-.468-.23-1.051.934-1.168l31.916-2.332c2.68-.234 4.076.7 5.124 1.516l5.474 3.966c.234.118.816.816.116.816l-32.96 1.984-.408.028Zm-3.67 41.266V18.22c0-1.518.466-2.218 1.862-2.335L51.6 13.668c1.284-.116 1.864.7 1.864 2.216v34.528c0 1.518-.234 2.802-2.33 2.918l-36.226 2.1c-2.096.116-3.026-.582-3.026-2.45Zm35.76-32.896c.232 1.05 0 2.1-1.05 2.22l-1.746.346v25.664c-1.516.816-2.912 1.282-4.078 1.282-1.865 0-2.33-.584-3.726-2.332L25.624 29.3v17.38l3.612.818s0 2.1-2.915 2.1l-8.034.466c-.234-.468 0-1.634.815-1.866l2.098-.582v-22.98l-2.912-.236c-.234-1.05.348-2.566 1.98-2.683l8.62-.58 11.88 18.196V23.235l-3.028-.348c-.234-1.286.698-2.22 1.862-2.334l8.04-.469Z" fill="#060606"/></g><defs><clipPath id="clip0_77_15"><path fill="#fff" d="M0 0h60v60H0z"/></clipPath></defs></svg>