<svg width="40" height="40" viewBox="0 0 40 40" fill="none" xmlns="http://www.w3.org/2000/svg">
<g clip-path="url('#clip0_80_7660')">
<path d="M2.4068 1.72519L24.54 0.0903888C27.2588 -0.142811 27.9572 0.0143888 29.6668 1.25719L36.732 6.23439C37.8972 7.09039 38.2852 7.32359 38.2852 8.25559V35.5528C38.2852 37.2636 37.664 38.2756 35.4892 38.43L9.7868 39.9868C8.1548 40.064 7.3776 39.8308 6.5228 38.7416L1.32 31.976C0.3868 30.7308 0 29.7988 0 28.7092V4.44519C0 3.04639 0.6212 1.87999 2.4068 1.72519Z" fill="#FAFAFA"></path>
<path fill-rule="evenodd" clip-rule="evenodd" d="M24.54 0.0907888L2.4068 1.72559C0.6212 1.87999 0 3.04679 0 4.44519V28.7092C0 29.7984 0.3868 30.7304 1.32 31.976L6.5228 38.7412C7.3776 39.8304 8.1548 40.064 9.7868 39.9864L35.4896 38.4304C37.6628 38.2756 38.2856 37.2636 38.2856 35.5532V8.25599C38.2856 7.37199 37.9364 7.11719 36.9084 6.36279L29.6668 1.25719C27.9576 0.0143888 27.2588 -0.142811 24.54 0.0903888V0.0907888ZM10.368 7.80919C8.2692 7.95039 7.7932 7.98239 6.6012 7.01319L3.5708 4.60279C3.2628 4.29079 3.4176 3.90159 4.1936 3.82399L25.4708 2.26919C27.2576 2.11319 28.188 2.73599 28.8868 3.27999L32.536 5.92399C32.692 6.00279 33.08 6.46799 32.6132 6.46799L10.64 7.79079L10.368 7.80919ZM7.9212 35.32V12.1468C7.9212 11.1348 8.232 10.668 9.1624 10.5896L34.4 9.11199C35.256 9.03479 35.6428 9.57879 35.6428 10.5892V33.608C35.6428 34.62 35.4868 35.476 34.0896 35.5532L9.9388 36.9532C8.5416 37.0304 7.9216 36.5652 7.9216 35.32H7.9212ZM31.7612 13.3892C31.916 14.0892 31.7612 14.7892 31.0612 14.8692L29.8972 15.1V32.2092C28.8864 32.7532 27.956 33.064 27.1784 33.064C25.9356 33.064 25.6252 32.6748 24.6944 31.5092L17.0824 19.5332V31.12L19.4904 31.6652C19.4904 31.6652 19.4904 33.0652 17.5476 33.0652L12.1916 33.376C12.0356 33.064 12.1916 32.2868 12.7344 32.132L14.1332 31.744V16.424L12.192 16.2668C12.036 15.5668 12.424 14.556 13.512 14.4776L19.2588 14.0908L27.1788 26.2216V15.4896L25.16 15.2576C25.004 14.4004 25.6252 13.7776 26.4012 13.7016L31.7612 13.3892Z" fill="#060606"></path>
</g>
<defs>
<clipPath id="clip0_80_7660">
<rect width="40" height="40" fill="white"></rect>
</clipPath>
</defs>
</svg>
