<svg width="60" height="60" viewBox="0 0 60 60" fill="none" xmlns="http://www.w3.org/2000/svg">
<path fill-rule="evenodd" clip-rule="evenodd" d="M24.4058 3.75C20.2862 3.75 16.9467 6.98349 16.9467 10.9722V15.9722H29.8566V17.3611H11.209C7.08951 17.3611 3.75 20.5946 3.75 24.5833V35.4167C3.75 39.4054 7.08951 42.6388 11.209 42.6388H15.5123V36.5278C15.5123 32.5391 18.8518 29.3055 22.9714 29.3055H36.7417C40.2276 29.3055 43.0532 26.5695 43.0532 23.1945V10.9722C43.0532 6.98349 39.7138 3.75 35.5943 3.75H24.4058ZM22.6845 12.6389C24.1104 12.6389 25.2664 11.5196 25.2664 10.1389C25.2664 8.75818 24.1104 7.63888 22.6845 7.63888C21.2584 7.63888 20.1024 8.75818 20.1024 10.1389C20.1024 11.5196 21.2584 12.6389 22.6845 12.6389Z" fill="url('#paint0_linear_75_47')"></path>
<path fill-rule="evenodd" clip-rule="evenodd" d="M35.594 56.2502C39.7136 56.2502 43.0531 53.0167 43.0531 49.028V44.028H30.1432V42.6392H48.7908C52.9104 42.6392 56.2497 39.4056 56.2497 35.4169V24.5835C56.2497 20.5948 52.9104 17.3613 48.7908 17.3613H44.4875V23.4724C44.4875 27.4612 41.1479 30.6947 37.0286 30.6947H23.258C19.7722 30.6947 16.9465 33.4307 16.9465 36.8057V49.028C16.9465 53.0167 20.2861 56.2502 24.4055 56.2502H35.594ZM37.3154 47.3614C35.8893 47.3614 34.7334 48.4806 34.7334 49.8613C34.7334 51.2421 35.8893 52.3612 37.3154 52.3612C38.7414 52.3612 39.8973 51.2421 39.8973 49.8613C39.8973 48.4806 38.7414 47.3614 37.3154 47.3614Z" fill="url('#paint1_linear_75_47')"></path>
<defs>
<linearGradient id="paint0_linear_75_47" x1="23.4017" y1="3.75" x2="23.4017" y2="42.6388" gradientUnits="userSpaceOnUse">
<stop stop-color="#327EBD"></stop>
<stop offset="1" stop-color="#1565A7"></stop>
</linearGradient>
<linearGradient id="paint1_linear_75_47" x1="36.5982" y1="17.3613" x2="36.5982" y2="56.2502" gradientUnits="userSpaceOnUse">
<stop stop-color="#FFDA4B"></stop>
<stop offset="1" stop-color="#F9C600"></stop>
</linearGradient>
</defs>
</svg>
