<svg width="60" height="60" fill="none" xmlns="http://www.w3.org/2000/svg"><path fill-rule="evenodd" clip-rule="evenodd" d="M24.406 3.75c-4.12 0-7.46 3.233-7.46 7.222v5h12.91v1.39H11.21c-4.12 0-7.459 3.233-7.459 7.221v10.834c0 3.988 3.34 7.222 7.459 7.222h4.303v-6.111c0-3.989 3.34-7.223 7.46-7.223h13.77c3.486 0 6.311-2.735 6.311-6.11V10.972c0-3.989-3.34-7.222-7.459-7.222H24.406Zm-1.721 8.889c1.425 0 2.581-1.12 2.581-2.5s-1.156-2.5-2.581-2.5c-1.427 0-2.583 1.12-2.583 2.5s1.156 2.5 2.582 2.5Z" fill="url('#paint0_linear_75_47')"/><path fill-rule="evenodd" clip-rule="evenodd" d="M35.594 56.25c4.12 0 7.46-3.233 7.46-7.222v-5h-12.91v-1.389H48.79c4.12 0 7.459-3.233 7.459-7.222V24.583c0-3.988-3.34-7.222-7.46-7.222h-4.303v6.111c0 3.99-3.34 7.223-7.458 7.223H23.258c-3.486 0-6.311 2.736-6.311 6.11v12.223c0 3.989 3.34 7.222 7.459 7.222h11.188Zm1.721-8.889c-1.426 0-2.582 1.12-2.582 2.5 0 1.381 1.156 2.5 2.582 2.5s2.582-1.119 2.582-2.5c0-1.38-1.156-2.5-2.582-2.5Z" fill="url('#paint1_linear_75_47')"/><defs><linearGradient id="paint0_linear_75_47" x1="23.402" y1="3.75" x2="23.402" y2="42.639" gradientUnits="userSpaceOnUse"><stop stop-color="#327EBD"/><stop offset="1" stop-color="#1565A7"/></linearGradient><linearGradient id="paint1_linear_75_47" x1="36.598" y1="17.361" x2="36.598" y2="56.25" gradientUnits="userSpaceOnUse"><stop stop-color="#FFDA4B"/><stop offset="1" stop-color="#F9C600"/></linearGradient></defs></svg>