<svg width="40" height="40" fill="none" xmlns="http://www.w3.org/2000/svg"><path fill-rule="evenodd" clip-rule="evenodd" d="M6.178 28.295a3.685 3.685 0 0 0 3.674-3.678v-3.675H6.177A3.685 3.685 0 0 0 2.5 24.615a3.681 3.681 0 0 0 3.675 3.675l.003.005Zm9.204-7.355a3.686 3.686 0 0 0-3.675 3.677v9.208a3.686 3.686 0 0 0 3.675 3.675 3.684 3.684 0 0 0 3.676-3.675v-9.21a3.685 3.685 0 0 0-3.675-3.675Z" fill="#E01E5A"/><path fill-rule="evenodd" clip-rule="evenodd" d="M11.707 6.178a3.681 3.681 0 0 0 3.675 3.674h3.676V6.177A3.685 3.685 0 0 0 15.385 2.5a3.685 3.685 0 0 0-3.675 3.675l-.003.003Zm7.35 9.204a3.685 3.685 0 0 0-3.674-3.675H6.175A3.685 3.685 0 0 0 2.5 15.383a3.683 3.683 0 0 0 3.675 3.676h9.21a3.685 3.685 0 0 0 3.673-3.675Z" fill="#36C5F0"/><path fill-rule="evenodd" clip-rule="evenodd" d="M24.617 19.06a3.685 3.685 0 0 0 3.675-3.675v-9.21A3.685 3.685 0 0 0 24.62 2.5a3.685 3.685 0 0 0-3.675 3.675v9.21a3.684 3.684 0 0 0 3.672 3.675Zm9.205-7.352a3.685 3.685 0 0 0-3.675 3.675v3.675h3.675a3.685 3.685 0 0 0 3.678-3.673 3.684 3.684 0 0 0-3.675-3.675l-.003-.003Z" fill="#2EB67D"/><path fill-rule="evenodd" clip-rule="evenodd" d="M20.942 24.617a3.683 3.683 0 0 0 3.675 3.675h9.208A3.685 3.685 0 0 0 37.5 24.62a3.685 3.685 0 0 0-3.675-3.675h-9.208a3.685 3.685 0 0 0-3.675 3.672Zm7.35 9.205a3.685 3.685 0 0 0-3.675-3.675h-3.675v3.675a3.681 3.681 0 0 0 3.675 3.675 3.684 3.684 0 0 0 3.675-3.675Z" fill="#ECB22E"/></svg>