<svg width="60" height="60" fill="none" xmlns="http://www.w3.org/2000/svg"><path fill-rule="evenodd" clip-rule="evenodd" d="M9.266 42.443a5.528 5.528 0 0 0 5.513-5.517v-5.512H9.266a5.528 5.528 0 0 0-5.516 5.509 5.522 5.522 0 0 0 5.512 5.512l.004.008ZM23.074 31.41a5.527 5.527 0 0 0-5.513 5.516v13.812a5.529 5.529 0 0 0 5.513 5.512 5.528 5.528 0 0 0 5.512-5.512V36.923a5.527 5.527 0 0 0-5.512-5.513Z" fill="#E01E5A"/><path fill-rule="evenodd" clip-rule="evenodd" d="M17.561 9.266a5.521 5.521 0 0 0 5.513 5.513h5.512V9.266a5.528 5.528 0 0 0-5.508-5.516 5.528 5.528 0 0 0-5.513 5.512l-.004.004Zm11.025 13.808a5.528 5.528 0 0 0-5.512-5.513H9.262a5.528 5.528 0 0 0-5.512 5.513 5.524 5.524 0 0 0 5.512 5.512h13.816a5.524 5.524 0 0 0 5.509-5.513Z" fill="#36C5F0"/><path fill-rule="evenodd" clip-rule="evenodd" d="M36.926 28.59a5.528 5.528 0 0 0 5.513-5.512V9.261A5.527 5.527 0 0 0 36.93 3.75a5.528 5.528 0 0 0-5.512 5.512v13.816a5.525 5.525 0 0 0 5.508 5.512Zm13.808-11.029a5.527 5.527 0 0 0-5.513 5.513v5.512h5.513a5.528 5.528 0 0 0 5.516-5.508 5.528 5.528 0 0 0-5.513-5.513l-.003-.004Z" fill="#2EB67D"/><path fill-rule="evenodd" clip-rule="evenodd" d="M31.414 36.926a5.524 5.524 0 0 0 5.512 5.513h13.812a5.527 5.527 0 0 0 5.512-5.509 5.528 5.528 0 0 0-5.512-5.512H36.926a5.527 5.527 0 0 0-5.512 5.508Zm11.025 13.808a5.527 5.527 0 0 0-5.513-5.513h-5.512v5.513a5.521 5.521 0 0 0 5.512 5.512 5.528 5.528 0 0 0 5.513-5.512Z" fill="#ECB22E"/></svg>