<svg width="186" height="60" fill="none" xmlns="http://www.w3.org/2000/svg"><g clip-path="url('#clip0_103_2826')"><path d="M55.333 38.243c-1.308 0-2.41-.147-3.336-.454-.926-.308-1.676-.674-2.264-1.128-.588-.454-1.014-.907-1.307-1.362-.28-.454-.442-.834-.456-1.127-.015-.235.044-.425.206-.571a.764.764 0 0 1 .543-.205h2.587c.088 0 .161.014.22.03.059.013.147.087.265.19.279.234.573.483.896.746.309.264.691.483 1.117.659.44.19.97.278 1.632.278.852 0 1.557-.16 2.13-.498.574-.337.868-.82.868-1.435 0-.453-.118-.82-.368-1.098-.25-.278-.705-.542-1.381-.762-.677-.22-1.632-.468-2.866-.732-1.22-.278-2.22-.644-3.028-1.069-.808-.44-1.396-.966-1.792-1.625-.397-.645-.588-1.406-.588-2.27 0-.85.25-1.64.764-2.416.514-.762 1.264-1.406 2.278-1.89 1.014-.498 2.263-.747 3.762-.747 1.176 0 2.19.147 3.057.44.867.293 1.587.659 2.16 1.084.573.439 1.014.864 1.323 1.318.308.439.47.82.485 1.156.015.235-.044.425-.191.572a.697.697 0 0 1-.515.205h-2.41a.66.66 0 0 1-.294-.06 2.59 2.59 0 0 1-.264-.16c-.236-.22-.5-.44-.779-.674a4.09 4.09 0 0 0-1.029-.63c-.397-.19-.926-.278-1.572-.278-.823 0-1.455.176-1.882.542-.44.352-.646.805-.646 1.347 0 .366.103.689.308.953.206.263.618.526 1.25.76.632.235 1.587.484 2.865.748 1.455.263 2.602.644 3.469 1.157.852.512 1.47 1.098 1.822 1.742.353.66.53 1.392.53 2.182a4.32 4.32 0 0 1-.868 2.621c-.573.777-1.425 1.392-2.542 1.831-1.132.41-2.513.63-4.16.63ZM73.762 35.035c1.146 0 2.042-.366 2.66-1.083.632-.718.97-1.787 1.043-3.193a27.33 27.33 0 0 0 0-2.518c-.059-1.377-.411-2.446-1.043-3.178-.632-.733-1.514-1.099-2.66-1.099-1.147 0-2.043.366-2.66 1.099-.632.732-.97 1.786-1.044 3.178a27.33 27.33 0 0 0 0 2.518c.06 1.406.412 2.475 1.044 3.193.617.732 1.513 1.083 2.66 1.083Zm0 3.208c-1.735 0-3.19-.308-4.38-.909-1.176-.6-2.087-1.464-2.704-2.562-.617-1.099-.97-2.387-1.058-3.851a36.977 36.977 0 0 1-.03-1.421c0-.557.016-1.04.03-1.42.088-1.495.456-2.783 1.087-3.867.647-1.084 1.544-1.933 2.734-2.548 1.176-.6 2.616-.908 4.306-.908s3.13.308 4.306.908c1.176.6 2.087 1.45 2.734 2.548.632 1.099.999 2.387 1.087 3.866.019.474.029.947.03 1.42 0 .557-.015 1.04-.03 1.422-.088 1.464-.44 2.752-1.058 3.85-.617 1.1-1.514 1.963-2.704 2.563-1.161.615-2.616.909-4.35.909ZM100.965 35.035c1.146 0 2.042-.366 2.66-1.083.632-.718.97-1.787 1.043-3.193a27.12 27.12 0 0 0 0-2.518c-.059-1.377-.411-2.446-1.043-3.178-.632-.733-1.514-1.099-2.66-1.099-1.147 0-2.043.366-2.66 1.099-.632.732-.97 1.786-1.044 3.178a27.33 27.33 0 0 0 0 2.518c.059 1.406.412 2.475 1.044 3.193.617.732 1.498 1.083 2.66 1.083Zm0 3.208c-1.735 0-3.19-.308-4.38-.909-1.176-.6-2.087-1.464-2.704-2.562-.617-1.099-.97-2.387-1.058-3.851a36.977 36.977 0 0 1-.03-1.421c0-.557.015-1.04.03-1.42.088-1.495.455-2.783 1.087-3.867.647-1.084 1.544-1.933 2.734-2.548 1.176-.6 2.616-.908 4.306-.908s3.13.308 4.306.908c1.176.6 2.087 1.45 2.733 2.548.633 1.099 1 2.387 1.088 3.866a35.4 35.4 0 0 1 0 2.841c-.088 1.465-.441 2.753-1.058 3.852-.618 1.098-1.514 1.962-2.704 2.563-1.161.614-2.616.908-4.35.908ZM124.39 28.036h7.187v-.103c0-.849-.147-1.581-.426-2.196a3.44 3.44 0 0 0-1.235-1.494c-.544-.366-1.19-.557-1.954-.557-.765 0-1.411.19-1.955.557a3.307 3.307 0 0 0-1.22 1.494c-.265.63-.411 1.361-.411 2.196v.103h.014Zm3.572 10.207c-2.411 0-4.321-.69-5.717-2.08-1.411-1.377-2.175-3.353-2.278-5.902a11.818 11.818 0 0 1-.029-.82c0-.337.014-.6.029-.79.088-1.626.455-3.032 1.117-4.218a6.855 6.855 0 0 1 2.748-2.739c1.176-.644 2.542-.952 4.13-.952 1.763 0 3.233.366 4.423 1.084 1.19.718 2.087 1.728 2.704 3.017.603 1.288.912 2.767.912 4.452v.674c0 .219-.074.395-.221.556a.813.813 0 0 1-.588.22H124.39v.263c.015.761.162 1.45.441 2.094a3.495 3.495 0 0 0 1.206 1.538c.528.395 1.161.586 1.895.586.603 0 1.117-.088 1.529-.279.411-.19.749-.395 1.014-.63a3.89 3.89 0 0 0 .558-.585c.191-.263.353-.41.47-.468.118-.06.294-.089.544-.089h2.793a.77.77 0 0 1 .543.19.51.51 0 0 1 .177.484c-.03.352-.206.762-.544 1.26-.338.497-.823.98-1.441 1.464-.631.469-1.41.864-2.351 1.186-.97.337-2.043.484-3.262.484ZM147.567 35.138l-1.999.117A2.265 2.265 0 0 1 143.172 33c0-1.128.838-2.08 1.955-2.24l4.042-.543v3.222c0 .893-.706 1.64-1.602 1.699Zm5.54-10.558a5.12 5.12 0 0 0-1.234-1.978c-.559-.556-1.323-1.01-2.264-1.347-.94-.337-2.101-.498-3.468-.498-1.264 0-2.337.161-3.219.484-.896.322-1.616.717-2.174 1.186-.559.468-.971.952-1.235 1.435-.264.498-.397.922-.426 1.259 0 .22.058.396.176.513.118.131.294.19.544.19h2.572c.323 0 .573-.146.749-.425a2.883 2.883 0 0 1 1.088-1.244c.485-.308 1.117-.469 1.896-.469 1.102 0 1.881.25 2.336.747.456.498.676 1.2.676 2.109v1.083l-5.687.44a5.102 5.102 0 0 0-4.718 5.081c0 2.812 2.293 5.097 5.115 5.097h5.202a4.426 4.426 0 0 0 4.438-4.423v-6.854a6.752 6.752 0 0 0-.367-2.387ZM113.118 14.914h2.881a.69.69 0 0 1 .691.688v21.645a.683.683 0 0 1-.203.487.685.685 0 0 1-.488.2h-2.881a.692.692 0 0 1-.637-.423.683.683 0 0 1-.053-.264V15.602a.683.683 0 0 1 .202-.487.705.705 0 0 1 .488-.2ZM85.916 14.914h2.88a.687.687 0 0 1 .69.688v21.645a.69.69 0 0 1-.69.688h-2.88a.69.69 0 0 1-.691-.688V15.602a.689.689 0 0 1 .69-.688ZM157.78 38.008a.767.767 0 0 1-.528-.205.851.851 0 0 1-.25-.615V25.18a4.426 4.426 0 0 1 4.438-4.422c1.528 0 2.733 0 4.938-.03.47 0 .867.381.867.85v1.464a.848.848 0 0 1-.852.85H163.1c-.94 0-1.704.761-1.704 1.699v11.642c0 .22-.074.395-.221.542a.778.778 0 0 1-.573.22h-2.822v.014ZM168.391 27.332v9.827a.853.853 0 0 0 .853.85h2.719a.853.853 0 0 0 .852-.85v-9.885a3.575 3.575 0 0 1 3.586-3.573 3.575 3.575 0 0 1 3.586 3.573v9.885a.848.848 0 0 0 .852.85h2.719a.853.853 0 0 0 .852-.85v-9.826c0-3.632-2.954-6.59-6.613-6.59h-2.807c-3.63 0-6.599 2.958-6.599 6.59Z" fill="#CBCBCB"/><path d="M24.015 19.85a12.49 12.49 0 0 1 9.435 4.26c.779.88 2.234.28 2.116-.892a13.085 13.085 0 0 0-.44-2.314c-1.162-4.13-4.483-7.352-8.642-8.435-8.362-2.197-15.887 4.042-15.887 12.023 0 .512.03 1.025.089 1.523.147 1.157 1.705 1.45 2.263.425a12.55 12.55 0 0 1 11.066-6.59Z" fill="#FFA30F"/><path d="M8.334 23.525a12.41 12.41 0 0 1 4.277-9.401c.882-.776.28-2.226-.897-2.11-.779.074-1.558.22-2.336.426a12.198 12.198 0 0 0-8.465 8.61 12.515 12.515 0 0 0 12.08 15.846c.514 0 1.029-.03 1.528-.088 1.161-.147 1.455-1.699.426-2.255-3.938-2.11-6.613-6.254-6.613-11.027Z" fill="#149EF2"/><path d="M12.023 39.15a12.49 12.49 0 0 1-9.435-4.26c-.78-.88-2.234-.28-2.117.892.077.784.225 1.558.441 2.314 1.161 4.13 4.483 7.352 8.642 8.436 8.377 2.182 15.901-4.057 15.901-12.038 0-.513-.03-1.025-.088-1.523-.147-1.157-1.705-1.45-2.264-.425a12.575 12.575 0 0 1-11.08 6.605Z" fill="#F20057"/><path d="M27.704 35.475a12.41 12.41 0 0 1-4.277 9.402c-.882.776-.28 2.225.897 2.108.764-.073 1.543-.22 2.322-.439 4.144-1.157 7.377-4.466 8.464-8.61A12.514 12.514 0 0 0 23.03 22.09c-.51 0-1.02.029-1.528.087-1.161.147-1.455 1.7-.427 2.256 3.954 2.124 6.629 6.268 6.629 11.042Z" fill="#8252DE"/></g><defs><clipPath id="clip0_103_2826"><path fill="#fff" transform="translate(.456 12)" d="M0 0h184.032v35H0z"/></clipPath></defs></svg>