<svg width="281" height="80" fill="none" xmlns="http://www.w3.org/2000/svg"><g clip-path="url('#clip0_111_4232')"><path d="M8.568 47.711c0 1.236.42 1.99 5.031 1.99h2.88c3.858 0 4.822-.297 4.822-1.607s-.63-1.78-3.51-1.78h-7.616c-7.578 0-9.816-1.692-9.816-7.611 0-5.375 4.315-6.179 9.89-6.179h5.675c10.619 0 12.486 1.483 12.572 6.562h-8.122c-.42-1.236-1.236-1.483-6.057-1.483-4.822 0-5.588.124-5.588 1.606 0 .927.63 1.236 4.87 1.236h5.663c9.741 0 10.458 3.263 10.458 7.105 0 5.71-2.287 7.192-11.559 7.192h-7.726c-7.492 0-10.249-1.73-10.249-7.068h8.382v.037ZM33.923 41.063c0-7.105 4.785-8.55 8.926-8.55h12.153c4.153 0 8.925 1.433 8.925 8.55v5.165c0 7.106-4.784 8.551-8.925 8.551H42.849c-4.154 0-8.926-1.433-8.926-8.55v-5.166Zm8.123 3.596c0 3.09 1.817 4.016 5.55 4.016h1.954c5.254 0 6.268-.68 6.268-3.559v-2.965c0-2.88-1.014-3.56-6.268-3.56h-1.954c-3.708 0-5.55.928-5.55 4.017v2.051ZM68.971 32.858h7.615v4.103h.087c.927-3.423 4.228-4.449 7.912-4.449 5.922 0 8.258 2.533 8.258 8.502 0 .556 0 1.137-.086 1.903h-7.022c0-2.756-.63-4.066-3.894-4.066-2.794 0-4.735 1.063-4.735 3.633v11.937H68.97V32.858ZM96.825 32.858h7.739v4.226h.086c.42-3.089 3.214-4.572 7.195-4.572h3.091a8.024 8.024 0 0 1 7.998 5.03c1.36-3.893 3.091-5.03 7.702-5.03h2.473c7.417 0 10.075 3.596 10.075 9.775v12.147h-8.134V42.843c0-2.966-.767-3.98-5.502-3.98-3.894 0-5.501.841-5.501 3.708v11.887h-8.122V42.225c0-2.67-.977-3.349-5.885-3.349-3.474 0-5.118.84-5.118 4.19v11.38H96.8V32.858h.025ZM147.066 46.859c0-5.882 4.067-6.179 11.942-6.179 4.438 0 6.898.124 8.469 1.73v-1.903c0-2.113-.631-2.879-3.808-2.879h-4.784c-2.374 0-3.054.21-3.128 1.73h-7.925c0-5.845 2.881-6.809 9.742-6.809h9.445c5.588 0 8.555 2.67 8.555 7.748v14.174h-7.702v-2.472c-2.237 2.323-3.091 2.793-7.158 2.793h-5.464c-4.945 0-8.122-1.063-8.122-6.179v-1.779l-.062.025Zm14.476 2.83c5.588 0 6.095-.84 6.095-2.287 0-1.445-.47-2.2-4.945-2.2h-3.61c-3.424 0-4.153.767-4.153 2.534 0 1.396 1.1 1.953 4.277 1.953h2.336ZM179.79 42.46c0-8.169 4.067-9.886 9.988-9.886h9.149c6.008 0 9.692 2.2 9.692 7.154v1.953h-7.875c0-2.2-1.137-3.003-4.698-3.003h-3.127c-3.388 0-4.945.927-4.945 3.3v2.879c0 2.792 1.78 3.633 4.314 3.633h4.154c2.287 0 4.364-.507 4.364-2.472v-.507h7.875v1.817c0 5.795-4.822 7.414-9.482 7.414h-8.296c-5.377 0-11.052-1.013-11.052-10.244v-2.076l-.061.037Z" fill="#FAFAFA"/><path d="M253.075 32.191h27.111v-6.179h-27.111a49.984 49.984 0 0 0-12.363 1.446 40.027 40.027 0 0 0-10.557 4.338v11.677h48.547a38.9 38.9 0 0 1-10.223 3.855 47.391 47.391 0 0 1-11.201 1.236H230.13v6.179h27.111c4.165.035 8.318-.45 12.363-1.446a40.007 40.007 0 0 0 10.557-4.337V37.281h-48.523a38.84 38.84 0 0 1 10.236-3.855 47.37 47.37 0 0 1 11.201-1.236Z" fill="#FF7800"/></g><defs><clipPath id="clip0_111_4232"><path fill="#fff" transform="translate(.186 26)" d="M0 0h280v28.767H0z"/></clipPath></defs></svg>