<svg width="60" height="60" fill="none" xmlns="http://www.w3.org/2000/svg"><path d="M48.53 18.907A26.073 26.073 0 0 0 30 11.25h-.094C15.486 11.3 3.75 23.203 3.75 37.765v5.36a3.75 3.75 0 0 0 3.75 3.75h45a3.75 3.75 0 0 0 3.75-3.75V37.5a26.074 26.074 0 0 0-7.72-18.593Zm3.97 24.218H28.057l12.834-17.648a1.875 1.875 0 1 0-3.032-2.208l-14.44 19.856H7.5v-5.36c0-.722.035-1.434.1-2.14h5.525a1.875 1.875 0 1 0 0-3.75H8.266c2.42-9.108 10.313-15.994 19.859-16.795v5.545a1.875 1.875 0 1 0 3.75 0v-5.548a22.533 22.533 0 0 1 19.922 16.798h-4.922a1.875 1.875 0 1 0 0 3.75h5.548c.049.621.077 1.245.077 1.875v5.625Z" fill="#CBCBCB"/></svg>