<svg width="100" height="100" fill="none" xmlns="http://www.w3.org/2000/svg"><g clip-path="url('#clip0_41_5492')" fill="#FAFAFA"><path d="m98.796 35.238-44.252-20.37A10.785 10.785 0 0 0 50 13.873c-1.58 0-3.108.334-4.544.995L1.204 35.238A2.077 2.077 0 0 0 0 37.118c0 .805.472 1.542 1.204 1.88l44.252 20.37c1.435.661 2.964.997 4.544.997 1.58 0 3.109-.336 4.544-.997L89.47 43.293v16.188a2.784 2.784 0 0 0-2.467 2.761 2.77 2.77 0 0 0 1.993 2.66l-2.362 15.584h10.875l-2.362-15.584a2.77 2.77 0 0 0 1.993-2.66 2.784 2.784 0 0 0-2.466-2.761V40.897L98.796 39a2.077 2.077 0 0 0 1.203-1.88c0-.806-.472-1.543-1.204-1.881Z"/><path d="M50 67.74a15.03 15.03 0 0 1-6.325-1.387L22.03 56.389v19.85c0 4.359 13.169 9.888 27.97 9.888 14.801 0 27.97-5.53 27.97-9.887V56.389l-21.645 9.964A15.02 15.02 0 0 1 50 67.74Z"/></g><defs><clipPath id="clip0_41_5492"><path fill="#fff" d="M0 0h100v100H0z"/></clipPath></defs></svg>