<svg width="60" height="60" viewBox="0 0 60 60" fill="none" xmlns="http://www.w3.org/2000/svg">
<g clip-path="url('#clip0_75_65')">
<rect x="3.5" y="2.5" width="51.5" height="51.5" fill="#FAFAFA"></rect>
<path fill-rule="evenodd" clip-rule="evenodd" d="M7.5 11.25V45C7.5 47.0719 9.17813 48.75 11.25 48.75H22.5C24.5719 48.75 26.25 47.0719 26.25 45V11.25C26.25 9.17813 24.5719 7.5 22.5 7.5H11.25C9.17813 7.5 7.5 9.17813 7.5 11.25ZM33.75 11.25V30C33.75 32.0719 35.4281 33.75 37.5 33.75H48.75C50.8219 33.75 52.5 32.0719 52.5 30V11.25C52.5 9.17813 50.8219 7.5 48.75 7.5H37.5C35.4281 7.5 33.75 9.17813 33.75 11.25ZM7.5 0C3.35813 0 0 3.36 0 7.5V52.5C0 56.6419 3.36 60 7.5 60H52.5C56.6419 60 60 56.64 60 52.5V7.5C60 3.35813 56.64 0 52.5 0H7.5Z" fill="#007AC2"></path>
</g>
<defs>
<clipPath id="clip0_75_65">
<rect width="60" height="60" fill="white"></rect>
</clipPath>
</defs>
</svg>
