<svg width="40" height="40" fill="none" xmlns="http://www.w3.org/2000/svg"><g clip-path="url('#clip0_80_7643')"><path d="M0 20v20h40V0H0v20Z" fill="#007ACC"/><path d="m10.468 20.026-.01 1.45h4.605V34.565h3.259V21.476h4.606v-1.421c0-.787-.017-1.444-.04-1.461-.016-.023-2.82-.034-6.218-.028l-6.185.017-.017 1.443ZM31.158 18.912c.88.22 1.55.61 2.166 1.248.319.34.791.962.83 1.11.01.044-1.495 1.056-2.408 1.622-.033.022-.165-.12-.313-.34-.446-.65-.913-.93-1.627-.98-1.05-.07-1.727.479-1.721 1.397 0 .27.038.429.148.649.231.478.66.764 2.007 1.347 2.48 1.066 3.54 1.77 4.2 2.77.736 1.116.901 2.897.401 4.222-.55 1.44-1.913 2.419-3.832 2.743-.593.104-2 .088-2.638-.028-1.391-.247-2.71-.934-3.524-1.836-.319-.351-.94-1.27-.901-1.335.016-.022.159-.11.318-.204.154-.088.737-.423 1.287-.742l.995-.577.209.308c.291.445.929 1.055 1.313 1.259 1.105.582 2.623.5 3.37-.17.32-.292.451-.595.451-1.04 0-.401-.05-.577-.258-.88-.27-.384-.82-.708-2.38-1.385-1.787-.77-2.557-1.247-3.26-2.006-.407-.44-.792-1.143-.951-1.732-.132-.489-.165-1.715-.061-2.21.368-1.726 1.671-2.93 3.551-3.287.61-.115 2.029-.071 2.628.077Z" fill="#FAFAFA"/></g><defs><clipPath id="clip0_80_7643"><rect width="40" height="40" rx="8" fill="#fff"/></clipPath></defs></svg>