<svg width="108" height="60" viewBox="0 0 108 60" fill="none" xmlns="http://www.w3.org/2000/svg">
<g clip-path="url('#clip0_103_2780')">
<path d="M17.0734 19.5435L8.80748 14.7718L0.543945 19.5435V14.7718L8.80865 10L17.0745 14.7718L17.0734 19.5435Z" fill="#A435F0"></path>
<path d="M0.543945 23.5507H4.87336V34.0695C4.87336 36.7872 6.90277 38.1119 8.80865 38.1119C10.731 38.1119 12.7451 36.7519 12.7451 34.0331V23.5507H17.0745V34.3201C17.0745 36.8236 16.2875 38.7554 14.7134 40.0801C13.1381 41.4036 11.171 42.0483 8.77218 42.0483C6.37571 42.0483 4.40747 41.4048 2.86983 40.0801C1.331 38.7566 0.543945 36.8966 0.543945 34.4272V23.5507ZM54.5039 36.6236C53.1934 37.7907 51.7004 38.3625 49.9981 38.3625C46.8922 38.3625 44.8098 36.5931 44.5745 33.8531H58.5628C58.5628 33.8531 58.6569 32.9683 58.6569 32.1378C58.6569 29.5613 57.8334 27.4142 56.151 25.6613C54.5063 23.9083 52.3604 23.0495 49.7475 23.0495C46.9934 23.0495 44.7381 23.9083 42.9487 25.6613C41.1957 27.4142 40.3016 29.7036 40.3016 32.5672V32.7083C40.3016 35.5354 41.1957 37.7895 42.9487 39.4719C44.7016 41.1531 47.0275 42.0119 49.8545 42.0119C53.1416 42.0119 55.7569 40.7154 57.7192 38.4801L54.5039 36.6236ZM46.2757 27.8436C47.2404 27.0919 48.4228 26.6989 49.7463 26.6989C50.9981 26.6989 52.0357 27.0919 52.931 27.8801C53.7851 28.5978 54.2463 29.4789 54.2863 30.4919H44.6851C44.8239 29.4448 45.3534 28.5625 46.2769 27.8448L46.2757 27.8436ZM98.0851 44.4425C96.3287 48.5895 94.491 50.0001 91.6734 50.0001H89.7204V46.1625H91.2992C92.2687 46.1625 93.1698 45.7978 94.0287 43.8166L94.8875 41.8331L87.4804 23.5507H91.8816L97.1416 36.7178L102.545 23.5507H106.945L98.0851 44.4425ZM33.9287 16.646V25.1836C32.5098 23.9131 30.3028 23.1566 28.1687 23.1566C25.6275 23.1566 23.4816 24.0507 21.7287 25.8742C20.011 27.6636 19.1522 29.8813 19.1522 32.5648C19.1522 35.2495 20.011 37.4672 21.7287 39.2919C23.4816 41.0813 25.6287 41.9766 28.1687 41.9766C31.0981 41.9766 32.9498 40.8248 33.9287 39.9225V41.5825H38.2228V16.6472L33.9287 16.646ZM32.6404 36.5025C31.6028 37.5401 30.2792 38.0778 28.7404 38.0778C27.2016 38.0778 25.9498 37.5401 24.9122 36.5025C23.9122 35.4648 23.4098 34.1413 23.4098 32.5672C23.4098 30.9919 23.911 29.6683 24.9122 28.6307C25.9498 27.5931 27.2016 27.0566 28.7404 27.0566C30.2792 27.0566 31.6028 27.5931 32.6404 28.6307C33.7134 29.6683 34.2522 30.9919 34.2522 32.5672C34.2522 34.1413 33.7134 35.4648 32.6404 36.5025ZM80.8051 23.1931C77.5439 23.1931 75.8487 24.546 74.6875 25.8495C74.2228 24.9636 72.9145 23.1931 69.8581 23.1931C67.2745 23.1931 65.7522 24.4989 64.9922 25.4283V23.5531H60.7357V41.5848H64.9922V31.2083C64.9922 28.7754 66.4957 27.0225 68.4981 27.0225C70.5392 27.0225 71.7192 28.5613 71.7192 31.0295V41.5836H75.9769V31.2072C75.9769 28.7389 77.4428 27.0213 79.5534 27.0213C81.5934 27.0213 82.7734 28.5601 82.7734 31.0272V41.5825H87.0675V30.4201C87.0675 25.7189 84.5404 23.1942 80.8051 23.1942V23.1931Z" fill="#CBCBCB"></path>
</g>
<defs>
<clipPath id="clip0_103_2780">
<rect width="107.059" height="40" fill="white" transform="translate(0.543945 10)"></rect>
</clipPath>
</defs>
</svg>
