<svg width="108" height="60" fill="none" xmlns="http://www.w3.org/2000/svg"><g clip-path="url('#clip0_103_2780')"><path d="m17.073 19.544-8.266-4.772-8.263 4.772v-4.772L8.809 10l8.266 4.772-.002 4.772Z" fill="#A435F0"/><path d="M.544 23.55h4.33v10.52c0 2.717 2.029 4.042 3.935 4.042 1.922 0 3.936-1.36 3.936-4.079V23.551h4.33v10.77c0 2.503-.787 4.434-2.362 5.76-1.575 1.323-3.542 1.967-5.94 1.967-2.397 0-4.366-.643-5.903-1.968C1.33 38.757.544 36.897.544 34.427V23.551Zm53.96 13.074c-1.31 1.167-2.804 1.738-4.506 1.738-3.106 0-5.188-1.769-5.423-4.509h13.988s.094-.885.094-1.715c0-2.577-.824-4.724-2.506-6.477-1.645-1.753-3.79-2.612-6.404-2.612-2.754 0-5.009.86-6.798 2.612-1.753 1.753-2.647 4.043-2.647 6.906v.141c0 2.827.894 5.081 2.647 6.764 1.753 1.681 4.079 2.54 6.906 2.54 3.287 0 5.902-1.297 7.864-3.532l-3.215-1.856Zm-8.228-8.78c.964-.752 2.147-1.145 3.47-1.145 1.252 0 2.29.393 3.185 1.181.854.718 1.315 1.599 1.355 2.612h-9.6c.138-1.047.667-1.93 1.59-2.647v-.001Zm51.81 16.599C96.328 48.59 94.49 50 91.672 50H89.72v-3.837h1.58c.969 0 1.87-.365 2.729-2.346l.859-1.984-7.408-18.282h4.402l5.26 13.167 5.403-13.167h4.4l-8.86 20.892ZM33.928 16.646v8.538c-1.42-1.27-3.626-2.027-5.76-2.027-2.541 0-4.687.894-6.44 2.717-1.718 1.79-2.577 4.007-2.577 6.69 0 2.685.859 4.903 2.577 6.728 1.753 1.79 3.9 2.685 6.44 2.685 2.93 0 4.78-1.152 5.76-2.054v1.66h4.294V16.647l-4.294-.001ZM32.64 36.502c-1.037 1.038-2.36 1.576-3.9 1.576-1.538 0-2.79-.538-3.828-1.576-1-1.037-1.502-2.36-1.502-3.935 0-1.575.501-2.899 1.502-3.936 1.038-1.038 2.29-1.574 3.828-1.574 1.54 0 2.863.536 3.9 1.574 1.073 1.037 1.612 2.36 1.612 3.936 0 1.574-.539 2.898-1.612 3.935Zm48.165-13.309c-3.261 0-4.956 1.353-6.118 2.656-.464-.885-1.772-2.656-4.829-2.656-2.584 0-4.106 1.306-4.866 2.235v-1.875h-4.256v18.032h4.256V31.208c0-2.433 1.504-4.185 3.506-4.185 2.041 0 3.221 1.538 3.221 4.006v10.555h4.258V31.207c0-2.468 1.466-4.186 3.576-4.186 2.04 0 3.22 1.54 3.22 4.006v10.556h4.294V30.42c0-4.701-2.527-7.226-6.262-7.226Z" fill="#CBCBCB"/></g><defs><clipPath id="clip0_103_2780"><path fill="#fff" transform="translate(.544 10)" d="M0 0h107.059v40H0z"/></clipPath></defs></svg>