<svg width="60" height="60" fill="none" xmlns="http://www.w3.org/2000/svg"><g clip-path="url('#clip0_75_35')"><path d="M30 60c16.569 0 30-13.431 30-30C60 13.431 46.569 0 30 0 13.431 0 0 13.431 0 30c0 16.569 13.431 30 30 30Z" fill="#4353FF"/><path d="M23.412 28.98c0-.667-.648-1.375-1.772-1.375-1.26 0-2.646.925-2.857 2.77-.216 1.864.943 2.692 2.11 2.692 1.165 0 1.78-.456 2.406-1.063-.538-.676-1.23-.363-1.367-.292a1.4 1.4 0 0 1-.722.175c-.451 0-.911-.202-.911-1.044 2.892-.289 3.113-1.195 3.113-1.863Zm-1.431.11c-.018.207-.102.562-1.565.762.309-1.095.898-1.178 1.17-1.178a.382.382 0 0 1 .395.417Zm-4.897.18s-.62 1.951-.672 2.11c-.017-.163-.474-3.665-.474-3.665-1.059 0-1.625.755-1.924 1.55 0 0-.755 1.957-.82 2.122-.005-.151-.118-2.098-.118-2.098-.064-.975-.957-1.569-1.68-1.569l.875 5.306c1.109-.004 1.707-.754 2.02-1.55 0 0 .667-1.726.695-1.805.005.074.479 3.355.479 3.355 1.113 0 1.712-.703 2.033-1.472l1.56-3.833c-1.094-.002-1.674.75-1.973 1.55v-.001ZM27.5 27.598c-.686 0-1.21.372-1.653.92v-.005l.396-3.189c-.911 0-1.652.792-1.795 1.97l-.69 5.692c.527 0 1.081-.152 1.38-.538a1.529 1.529 0 0 0 1.261.62c1.537 0 2.591-1.785 2.591-3.46-.009-1.53-.747-2.01-1.49-2.01Zm-.143 2.738c-.16.934-.68 1.569-1.182 1.569-.502 0-.723-.226-.723-.226.097-.82.157-1.32.34-1.753.185-.432.622-1.122 1.078-1.122.446-.003.648.59.487 1.53v.002Zm5.472-2.614h-1.07l.005-.055c.073-.7.239-1.068.786-1.128.373-.037.539-.23.58-.441.033-.166.134-.741.134-.741-2.154-.014-2.83.916-3.005 2.333l-.005.032h-.023c-.351 0-.736.396-.8.898l-.024.184h.718l-.603 4.98-.184.894c.023 0 .05.004.074.004 1.008-.037 1.652-.833 1.795-1.988l.469-3.889h.335c.331 0 .718-.33.787-.883l.03-.2Zm5.577-.092c-1.238 0-2.407.911-2.765 2.344-.359 1.432.184 3.124 2.006 3.124 1.822 0 2.867-1.762 2.867-3.23 0-1.462-.99-2.24-2.108-2.24v.002Zm.502 2.66c-.065.649-.352 1.634-1.132 1.634-.78 0-.677-1.15-.598-1.7.082-.585.41-1.417 1.113-1.417.63-.001.69.749.616 1.48v.003Zm7.722-1.02-.672 2.11c-.018-.166-.474-3.668-.474-3.668-1.058 0-1.624.755-1.924 1.55l-.82 2.123c-.005-.152-.117-2.099-.117-2.099-.065-.975-.958-1.569-1.68-1.569l.87 5.306c1.108-.004 1.707-.754 2.02-1.55 0 0 .667-1.726.69-1.805L45 33.023c1.113 0 1.712-.703 2.033-1.472l1.56-3.833c-1.09.002-1.67.752-1.965 1.552ZM33.84 25.354l-.902 7.276-.184.897c.023 0 .05.005.074.005.97-.014 1.66-.865 1.79-1.938l.52-4.172c.157-1.276-.603-2.068-1.298-2.068Z" fill="#FAFAFA"/></g><defs><clipPath id="clip0_75_35"><path fill="#fff" d="M0 0h60v60H0z"/></clipPath></defs></svg>