<svg width="151" height="80" fill="none" xmlns="http://www.w3.org/2000/svg"><path d="M102.431 54.616c2.84 0 5.145-.903 6.951-2.38-.095 4.524-2.774 6.714-8.122 7.566-.756.114-1.18.707-.832 1.476 1.107 2.487 3.105 3.922 5.421 3.922 4.232 0 9.612-3.193 10.609-9.983l.277-28.13c0-.721-.388-1.12-1.115-1.12-2.31 0-4.396.832-5.504 2.068-1.508-1.543-4.542-2.835-7.685-2.835a14.708 14.708 0 1 0 0 29.416Zm0-22.28c4.149 0 7.337 3.398 7.337 7.567 0 4.17-3.188 7.567-7.337 7.567a7.568 7.568 0 1 1 0-15.134ZM135.711 54.616a14.71 14.71 0 0 0 14.425-17.578 14.712 14.712 0 0 0-11.557-11.555 14.708 14.708 0 0 0-17.576 14.428 14.693 14.693 0 0 0 4.306 10.4 14.702 14.702 0 0 0 10.402 4.305Zm0-22.28a7.564 7.564 0 0 1 7.029 4.635 7.566 7.566 0 0 1-5.48 10.35 7.57 7.57 0 0 1-7.784-3.208 7.565 7.565 0 0 1-1.279-4.21 7.544 7.544 0 0 1 7.514-7.567ZM9.947 51.938c.638 1.622 1.01 1.947 2.775 1.947 1.766 0 3.107-.797 4.063-3l3.784-8.732 4.253 9.785c.678 1.574 1.009 1.947 2.774 1.947 1.743 0 2.967-.757 4.003-3l10.864-23.457c.389-.83-.174-1.446-.893-1.446h-2.827c-2.505 0-4.036 1.045-5.181 3.562l-5.456 12.115-3.211-7.34a2.565 2.565 0 0 1 0-2.14l.683-1.578c1.1-2.523 2.112-3.28 3.643-3.622-.121-.757-.638-1.01-1.841-1.01h-3.95c-2.43 0-4.175 1.01-5.19 3.562l-4.792 12.12-4.207-12.107c-.845-2.464-2.626-3.567-5.133-3.567H1.283c-.737 0-1.234.596-.906 1.446l9.57 24.515ZM58.51 53.84h2.896c1.955 0 3.343-1.396 3.343-3.348V37.124c0-3.13 1.743-4.76 5.612-4.76 3.87 0 5.584 1.617 5.584 4.747v15.608c0 .724.391 1.12 1.11 1.12h2.898c1.953 0 3.345-1.395 3.345-3.347V36.233c0-7.25-5.68-11.033-12.927-11.033s-12.97 3.784-12.97 11.033V52.72c0 .732.383 1.12 1.11 1.12ZM46.09 53.84h2.891c1.952 0 3.345-1.395 3.345-3.348V27.095c0-.72-.386-1.11-1.113-1.11h-1.78a4.401 4.401 0 0 0-4.46 4.457V52.72c0 .731.389 1.12 1.117 1.12Z" fill="#A87ECE"/></svg>