<svg width="60" height="60" viewBox="0 0 60 60" fill="none" xmlns="http://www.w3.org/2000/svg">
<path d="M48.9561 32.9477C47.3074 32.9499 45.6808 33.3269 44.1992 34.0502C43.7353 33.2805 43.3771 32.4518 43.1342 31.5865C42.9946 30.9082 42.9624 30.2123 43.0386 29.524C43.1988 28.7666 43.4068 28.0201 43.6611 27.289C43.6517 27.1934 43.5467 26.7415 42.4911 26.7265C41.4355 26.7115 40.5261 26.9271 40.4286 27.2065C40.2452 27.7168 40.098 28.2393 39.9879 28.7702C39.1143 30.9256 38.0389 32.9935 36.7761 34.9465C36.0686 33.7866 35.7776 32.4202 35.9511 31.0727C36.1113 30.3154 36.3193 29.5689 36.5736 28.8377C36.5642 28.7421 36.4592 28.2902 35.4036 28.2752C34.3479 28.2602 33.4386 28.4759 33.3411 28.7552C33.2436 29.0346 33.1198 29.6927 32.9005 30.319C32.6811 30.9452 30.1198 36.6677 29.4486 38.1434C29.1036 38.8934 28.8055 39.5046 28.5955 39.9171C28.5855 39.9439 28.5729 39.9697 28.5579 39.994C28.3704 40.3484 28.2711 40.5415 28.2711 40.5415V40.5509C28.1267 40.8096 27.9729 41.0496 27.8961 41.0496C27.762 40.5139 27.7684 39.9527 27.9148 39.4202C28.2898 37.4346 29.2086 34.3484 29.1992 34.2415C29.1992 34.1834 29.3717 33.6471 28.6048 33.3696C28.427 33.285 28.2272 33.2576 28.0332 33.2911C27.8391 33.3247 27.6602 33.4176 27.5211 33.5571C27.4536 33.5571 27.4067 33.7202 27.4067 33.7202C27.4067 33.7202 28.2411 30.2496 25.8148 30.2496C24.87 30.4397 23.9727 30.8167 23.1758 31.3587C22.3788 31.9006 21.6983 32.5964 21.1742 33.4052C20.5217 33.7596 19.1323 34.5171 17.6455 35.3327C17.083 35.6496 16.4942 35.9665 15.9486 36.2702C15.9111 36.2327 15.8717 36.184 15.8342 36.1465C12.8811 33.0002 7.45295 30.7802 7.68732 26.5709C7.77357 25.0371 8.30045 21.0096 18.1105 16.1177C26.1842 12.139 32.6098 13.2415 33.7217 15.6865C35.3136 19.1777 30.2792 25.6596 21.9373 26.599C21.0145 26.7862 20.0613 26.7636 19.1484 26.5329C18.2354 26.3021 17.386 25.8691 16.6629 25.2659C16.2223 24.7859 16.1548 24.7577 15.9917 24.8534C15.7236 24.9977 15.8961 25.429 15.9917 25.6784C16.3099 26.2543 16.7404 26.7605 17.2576 27.1673C17.7748 27.574 18.3683 27.873 19.003 28.0465C22.2846 28.7556 25.7062 28.4166 28.7848 27.0771C33.8473 25.1215 37.7848 19.684 36.6298 15.1296C35.4692 10.5077 27.7986 8.98336 20.5386 11.5671C15.9912 13.0972 11.7895 15.5074 8.17295 18.6602C4.17358 22.4009 3.5417 25.6502 3.80045 27.0134C4.73795 31.8471 11.3961 34.9915 14.0604 37.3259C13.9255 37.4027 13.8017 37.4702 13.6967 37.5265C12.3636 38.1884 7.28232 40.8452 6.0092 43.654C4.57107 46.8415 6.23982 49.1196 7.34232 49.4271C9.00359 49.8248 10.7476 49.6938 12.3308 49.0524C13.914 48.4111 15.2575 47.2914 16.1736 45.8496C16.9537 44.6538 17.4332 43.2871 17.5713 41.866C17.7094 40.4448 17.502 39.0114 16.9667 37.6877C16.9577 37.6663 16.945 37.6467 16.9292 37.6296L17.9736 37.0165C18.6542 36.6134 19.3254 36.2402 19.9011 35.9327C19.5107 37.0586 19.2816 38.234 19.2205 39.424C19.0879 41.2479 19.6461 43.055 20.7842 44.4865C20.9574 44.6356 21.1584 44.7488 21.3757 44.8196C21.5929 44.8904 21.8221 44.9174 22.0498 44.899C23.1748 44.899 23.6904 43.9615 24.2548 42.8477C24.9448 41.4865 25.5673 39.904 25.5673 39.904C25.5673 39.904 24.7911 44.1809 26.9004 44.1809C27.6673 44.1809 28.4436 43.1834 28.7904 42.6809V42.6902C28.7904 42.6902 28.8092 42.6621 28.8486 42.5946L28.9723 42.394V42.3752C29.2798 41.839 29.9698 40.6202 30.9954 38.5971C32.3192 35.989 33.5942 32.7284 33.5942 32.7284C33.7172 33.4449 33.8869 34.1527 34.1023 34.8471C34.4111 35.6889 34.7764 36.5088 35.1954 37.3015C34.8879 37.7327 34.6967 37.9727 34.6967 37.9727L34.7061 37.9821C34.4567 38.3084 34.1886 38.6627 33.8905 39.0077C33.0035 39.9829 32.1805 41.0144 31.4267 42.0959C31.3147 42.2775 31.2762 42.495 31.3191 42.7041C31.3619 42.9131 31.4829 43.0979 31.6573 43.2209C32.052 43.4262 32.5019 43.5005 32.9417 43.4327C33.6044 43.3953 34.2561 43.2464 34.8692 42.9921C35.4617 42.7836 36.0207 42.4899 36.5286 42.1202C37.0521 41.7575 37.4736 41.2662 37.7524 40.6935C38.0311 40.1208 38.1579 39.4861 38.1204 38.8502C38.0615 38.0493 37.8569 37.2658 37.5167 36.5384C37.6123 36.4034 37.7042 36.2702 37.7942 36.1352C38.8602 34.5441 39.821 32.8849 40.6704 31.1684C40.7934 31.8849 40.9632 32.5927 41.1786 33.2871C41.4333 34.0145 41.7468 34.72 42.1161 35.3965C40.8897 36.34 39.9238 37.5802 39.3092 39.0002C38.7054 40.7459 39.1742 41.5315 40.0592 41.7134C40.5435 41.7467 41.0277 41.6476 41.4598 41.4265C42.0952 41.2177 42.6938 40.9102 43.2336 40.5152C43.8027 40.1793 44.2795 39.7072 44.6208 39.1413C44.9622 38.5754 45.1575 37.9335 45.1892 37.2734C45.1466 36.6144 44.9978 35.9667 44.7486 35.3552C46.3669 34.723 48.1216 34.5214 49.8411 34.7702C54.4048 35.3065 55.3067 38.1546 55.1342 39.3546C55.0533 39.78 54.8823 40.1832 54.6326 40.537C54.3829 40.8908 54.0604 41.1871 53.6867 41.4059C53.3698 41.6065 53.2648 41.674 53.2929 41.8184C53.3305 42.0302 53.4804 42.019 53.7523 41.9815C54.4402 41.7677 55.047 41.3504 55.4929 40.7847C55.9388 40.219 56.2027 39.5315 56.2498 38.8127C56.3942 36.0002 53.7092 32.9159 48.9617 32.944L48.9561 32.9477ZM13.7436 44.8127C12.2286 46.4627 10.1192 47.0852 9.20795 46.5584C8.2292 45.9959 8.61357 43.5584 10.4736 41.8109C11.5769 40.8177 12.7695 39.9283 14.0361 39.154C14.2573 39.019 14.5836 38.8277 14.9736 38.5915L15.0786 38.5334L15.3092 38.389C15.6415 39.5024 15.6716 40.6841 15.3965 41.8129C15.1214 42.9418 14.5509 43.9771 13.7436 44.8127ZM24.7705 37.3127C24.2436 38.5971 23.1411 41.8877 22.4698 41.704C21.8942 41.5502 21.5323 39.0565 22.3554 36.5927C22.771 35.4067 23.3764 34.296 24.1479 33.304C24.9729 32.3834 25.8842 32.0759 26.1036 32.4509C25.9034 34.1288 25.4541 35.7674 24.7705 37.3127ZM33.8698 41.6665C33.6486 41.7809 33.4386 41.854 33.343 41.8015C33.2755 41.764 33.4386 41.614 33.4386 41.614C33.4386 41.614 34.5805 40.3859 35.0305 39.8309C35.2892 39.5046 35.593 39.1221 35.923 38.689V38.8127C35.923 40.279 34.5036 41.2671 33.8717 41.6702L33.8698 41.6665ZM40.8898 40.0652C40.7267 39.9509 40.7548 39.5665 41.3023 38.3684C41.683 37.5989 42.2148 36.914 42.8661 36.3546C42.9659 36.6384 43.0179 36.9369 43.0198 37.2377C43.0272 37.8781 42.8225 38.5029 42.4375 39.0148C42.0525 39.5266 41.509 39.8966 40.8917 40.0671L40.8898 40.0652Z" fill="#CD6799"/>
</svg>
