<svg width="218" height="80" viewBox="0 0 218 80" fill="none" xmlns="http://www.w3.org/2000/svg">
<path d="M166.459 51.563H172.296V32.7045H172.371L183.933 51.563H191.566V25.0713H185.729V43.4809H185.655L174.392 25.0713H166.459V51.563Z" fill="#FAFAFA"/>
<mask id="mask0_111_4235" style="mask-type:luminance" maskUnits="userSpaceOnUse" x="6" y="19" width="206" height="44">
<path d="M6.27197 62.3306H211.902V19.7036H6.27197V62.3306Z" fill="white"/>
</mask>
<g mask="url(#mask0_111_4235)">
<path d="M136.103 38.3175C136.103 46.8114 142.127 52.2368 150.397 52.2368C158.666 52.2368 164.69 46.8114 164.69 38.3175C164.69 29.8235 158.666 24.3982 150.397 24.3982C142.127 24.3982 136.103 29.8235 136.103 38.3175ZM142.165 38.3175C142.165 33.3783 145.42 29.7862 150.397 29.7862C155.373 29.7862 158.629 33.3783 158.629 38.3175C158.629 43.2566 155.373 46.8491 150.397 46.8491C145.42 46.8491 142.165 43.2566 142.165 38.3175Z" fill="#FAFAFA"/>
<path d="M211.864 27.1667C209.619 25.1835 206.738 24.3977 203.745 24.3977C198.544 24.3977 193.642 27.3539 193.642 33.0039C193.642 41.8345 206.065 39.2151 206.065 44.0793C206.065 45.9505 203.932 46.8483 202.023 46.8483C200.078 46.8483 198.132 45.9131 196.935 44.3412L192.781 48.9061C195.289 51.2262 198.282 52.2363 201.687 52.2363C207.15 52.2363 211.902 49.43 211.902 43.5181C211.902 34.2386 199.704 37.3442 199.704 32.5174C199.704 30.5342 201.986 29.7857 203.633 29.7857C205.054 29.7857 206.925 30.3472 207.861 31.5446L211.864 27.1667Z" fill="#FAFAFA"/>
<path d="M38.7886 38.328C38.7886 46.822 44.8125 52.2471 53.0818 52.2471C61.3509 52.2471 67.3751 46.822 67.3751 38.328C67.3751 29.8347 61.3509 24.4093 53.0818 24.4093C44.8125 24.4093 38.7886 29.8347 38.7886 38.328ZM44.8498 38.328C44.8498 33.3892 48.1054 29.7973 53.0818 29.7973C58.058 29.7973 61.3136 33.3892 61.3136 38.328C61.3136 43.2669 58.058 46.8593 53.0818 46.8593C48.1054 46.8593 44.8498 43.2669 44.8498 38.328Z" fill="#FAFAFA" fill-opacity="0.6"/>
<path d="M68.4421 38.3175C68.4421 46.8114 74.4661 52.2368 82.7354 52.2368C91.0048 52.2368 97.0293 46.8114 97.0293 38.3175C97.0293 29.8235 91.0048 24.3982 82.7354 24.3982C74.4661 24.3982 68.4421 29.8235 68.4421 38.3175ZM74.5037 38.3175C74.5037 33.3783 77.7589 29.7862 82.7354 29.7862C87.7122 29.7862 90.9674 33.3783 90.9674 38.3175C90.9674 43.2566 87.7122 46.8491 82.7354 46.8491C77.7589 46.8491 74.5037 43.2566 74.5037 38.3175Z" fill="#FAFAFA" fill-opacity="0.6"/>
<path d="M20.4832 51.563L20.4911 30.2439C20.512 27.4552 22.7221 25.1878 25.4879 25.0752L38.5494 25.0713V30.4597L28.7122 30.4585C27.372 30.4579 26.3248 31.5048 26.3248 32.7962L26.3204 35.8477H36.3848V41.2358H26.3204V51.563H20.4832Z" fill="#FAFAFA" fill-opacity="0.6"/>
<path d="M10.5927 19.7036H9.15635C9.15635 19.7036 6.38648 25.3871 6.27447 37.2268C6.16335 48.9566 10.1882 56.5233 12.2096 60.019C15.6221 65.4564 12.914 59.5957 12.914 59.5957C12.914 59.5957 8.01101 50.6243 7.96809 38.871C7.92634 27.4537 10.5927 19.7036 10.5927 19.7036Z" fill="#D2D804"/>
<path d="M120.102 38.3173C120.102 43.2564 123.357 46.8477 128.334 46.8477C130.785 46.8477 132.819 45.9763 134.252 44.5014C134.933 46.4335 135.941 48.1391 137.223 49.5835C134.831 51.2947 131.776 52.2363 128.334 52.2363C122.372 52.2363 117.578 49.4171 115.366 44.6611C116.35 42.8854 116.91 40.7767 116.91 38.3514C116.91 35.7335 116.39 33.5581 115.459 31.7765C117.712 27.1405 122.455 24.3983 128.334 24.3983C131.776 24.3983 134.829 25.3387 137.221 27.0491C135.941 28.4943 134.932 30.1999 134.251 32.132C132.818 30.6574 130.784 29.7857 128.334 29.7857C123.357 29.7857 120.102 33.3781 120.102 38.3173Z" fill="#FAFAFA"/>
<path d="M93.8215 25.0716H101.233C109.764 25.0716 116.911 28.7014 116.911 38.3921C116.911 46.9599 109.914 51.563 102.018 51.563H93.9233C95.7659 50.146 97.2555 48.3304 98.2968 46.1743H101.345C106.771 46.1743 110.849 44.1168 110.849 38.092C110.849 32.8915 106.696 30.4591 101.757 30.4591H98.2594C97.1999 28.2983 95.6889 26.483 93.8215 25.0716Z" fill="#FAFAFA" fill-opacity="0.6"/>
</g>
</svg>
