<svg width="120" height="53" viewBox="0 0 120 53" fill="none" xmlns="http://www.w3.org/2000/svg">
<mask id="mask0_647_1059" style="mask-type:luminance" maskUnits="userSpaceOnUse" x="0" y="0" width="120" height="53">
<path d="M120 0H0V53H120V0Z" fill="white"/>
</mask>
<g mask="url(#mask0_647_1059)">
<path fill-rule="evenodd" clip-rule="evenodd" d="M39.007 23.489C38.6432 23.489 38.2935 23.6317 38.0361 23.8852C37.7786 24.1387 37.6335 24.4823 37.6335 24.841C37.6335 28.2612 37.6335 37.2275 37.6335 40.6477C37.6335 41.0064 37.7786 41.35 38.0361 41.6034C38.2935 41.857 38.6432 41.9997 39.007 41.9997C40.6766 41.9997 43.4764 41.9997 45.1454 41.9997C45.5098 41.9997 45.8589 41.857 46.117 41.6034C46.3744 41.35 46.5188 41.0064 46.5188 40.6477C46.5188 37.7525 46.5188 30.8956 46.5188 26.9455C46.5188 26.5717 46.7708 26.2438 47.1358 26.1416C47.5008 26.0394 47.8905 26.1881 48.0902 26.5063C50.6023 30.5091 55.4177 38.182 57.1623 40.9617C57.5672 41.6071 58.2826 41.9997 59.0532 41.9997C62.4705 41.9997 72.0128 41.9997 75.5856 41.9997C76.3439 41.9997 76.959 41.3941 76.959 40.6477V33.4878C76.959 33.1146 77.2109 32.7861 77.576 32.6844C77.941 32.5822 78.3306 32.731 78.5297 33.0486C80.0826 35.5227 82.3828 39.1874 83.4963 40.9617C83.9013 41.6071 84.6166 41.9997 85.3865 41.9997H93.2081C93.5159 41.9997 93.7993 41.8358 93.9492 41.5708C94.0992 41.3065 94.0918 40.9828 93.9302 40.7251C92.3736 38.2443 88.9938 32.8592 87.895 31.108C87.6879 30.7783 87.7383 30.3519 88.0166 30.0779C89.0687 29.0422 91.6331 26.5179 93.2646 24.9117C93.5074 24.6728 93.5799 24.3135 93.449 24.002C93.3181 23.6898 93.009 23.486 92.6661 23.4854C90.3739 23.4805 86.7575 23.4738 85.0707 23.4702C84.4795 23.4696 83.9129 23.7001 83.4951 24.1114C82.3508 25.2372 79.9591 27.5922 78.408 29.119C78.1653 29.358 77.8003 29.4293 77.4832 29.3005C77.1661 29.171 76.959 28.8662 76.959 28.528C76.959 24.7237 76.959 16.5831 76.959 13.3625C76.959 12.6154 76.3439 12.0105 75.5856 12.0105H69.4472C68.6889 12.0105 68.0737 12.6154 68.0737 13.3625C68.0737 17.8438 68.0737 32.2822 68.0737 38.5432C68.0737 38.917 67.8217 39.2455 67.4567 39.3471C67.0917 39.4493 66.7021 39.3005 66.503 38.9823C63.9909 34.9796 59.1749 27.3066 57.4302 24.527C57.0259 23.8815 56.31 23.489 55.54 23.489C52.1221 23.489 42.5798 23.489 39.007 23.489Z" fill="#FDFDFD"/>
<path fill-rule="evenodd" clip-rule="evenodd" d="M33.5118 23.4688C34.2702 23.4688 34.8853 24.074 34.8853 24.8205C34.8853 28.2438 34.8853 37.2243 34.8853 40.6476C34.8853 41.3941 34.2702 41.9999 33.5118 41.9999C31.8424 41.9999 29.043 41.9999 27.3735 41.9999C26.6152 41.9999 26 41.3941 26 40.6476C26 37.2243 26 28.2438 26 24.8205C26 24.074 26.6152 23.4688 27.3735 23.4688C29.043 23.4688 31.8424 23.4688 33.5118 23.4688Z" fill="#FDFDFD"/>
<path fill-rule="evenodd" clip-rule="evenodd" d="M33.5118 20.3685C34.2702 20.3685 34.8853 19.7631 34.8853 19.0165C34.8853 17.4577 34.8853 14.9108 34.8853 13.352C34.8853 12.6054 34.2702 12 33.5118 12C31.8424 12 29.043 12 27.3735 12C26.6152 12 26 12.6054 26 13.352C26 14.9108 26 17.4577 26 19.0165C26 19.7631 26.6152 20.3685 27.3735 20.3685C29.043 20.3685 31.8424 20.3685 33.5118 20.3685Z" fill="#FDFDFD"/>
</g>
</svg>
