<svg width="250" height="80" viewBox="0 0 250 80" fill="none" xmlns="http://www.w3.org/2000/svg">
<g clip-path="url(#clip0_111_4241)">
<path d="M87.762 29.188C81.7842 29.188 76.9133 34.0588 76.9133 40.0367C76.9133 46.0146 81.7842 50.8854 87.762 50.8854C93.7399 50.8854 98.6107 46.0146 98.6107 40.0367C98.5738 34.0588 93.7399 29.188 87.762 29.188ZM87.762 45.0551C84.9945 45.0551 82.7067 42.8042 82.7067 39.9998C82.7067 37.2323 84.9576 34.9444 87.762 34.9444C90.5296 34.9444 92.8174 37.1954 92.8174 39.9998C92.7805 42.8042 90.5296 45.0551 87.762 45.0551Z" fill="#84BCE3"/>
<path d="M76.6183 48.8192C74.4042 50.9594 71.3784 52.2878 68.0574 52.2878C61.2677 52.2878 55.7695 46.7897 55.7695 40C55.7695 33.2103 61.2677 27.7122 68.0574 27.7122C71.3784 27.7122 74.4042 29.0406 76.6183 31.1808C78.2419 29.1144 80.419 27.5277 82.9282 26.6421C79.2751 22.583 73.9614 20 68.0574 20C57.0242 20 48.0574 28.9668 48.0574 40C48.0574 51.0332 57.0242 60 68.0574 60C73.9614 60 79.2382 57.417 82.9282 53.3579C80.419 52.4723 78.2419 50.8856 76.6183 48.8192Z" fill="#FAFAFA"/>
<path d="M123.482 29.3359H113.703L115.105 30.3691L112.891 39.5204L110.345 29.3359H100.419L102.227 30.6644V49.3728L100.419 50.7013H109.127L107.762 49.7049V37.1219L112.559 50.7013H113.076L117.91 37.1219V49.7049L116.544 50.7013H125.29L123.482 49.3728V29.3359Z" fill="#FAFAFA"/>
<path d="M140.566 29.3359H128.168L129.976 30.6644V49.3728L128.168 50.7013H137.578L135.769 49.3728V43.8747H139.681C143.888 43.8747 148.352 41.9928 148.352 36.716C148.352 31.8452 145.733 29.3359 140.566 29.3359ZM138.906 39.4835H135.769V33.7271H138.795C140.788 33.7271 142.596 33.9485 142.596 36.4577C142.633 38.9669 141.194 39.4835 138.906 39.4835Z" fill="#FAFAFA"/>
<path d="M162.227 29.3359H154.146L155.954 30.6275L148.98 49.3728L147.172 50.7013H156.028L154.921 49.8894L155.696 47.3802H162.891L163.666 49.9263L162.559 50.7382H171.378L169.57 49.4466L162.227 29.3359ZM157.061 43.0629L159.238 35.5721L161.563 43.0629H157.061Z" fill="#FAFAFA"/>
<path d="M31.7844 29.3359H23.7032L25.5113 30.6275L18.5371 49.3728L16.729 50.7013H25.5851L24.4781 49.8894L25.253 47.3802H32.4855L33.2604 49.9263L32.1534 50.7382H40.9725L39.1644 49.4466L31.7844 29.3359ZM26.6183 43.0629L28.7954 35.5721L31.1201 43.0629H26.6183Z" fill="#FAFAFA"/>
<path d="M7.98352 46.0518V29.3359H0.418945L2.26396 30.6644V49.3728L0.418945 50.7013H13.8507V44.2437L12.5223 46.0518H7.98352Z" fill="#FAFAFA"/>
<path d="M215.179 29.3359H207.799L209.607 30.6644V41.2179L202.67 29.3359H195.327L197.135 30.6644V49.3728L195.327 50.7013H204.072L202.707 49.7049V39.0407L209.09 49.7787L207.799 50.7013H217.024L215.179 49.3359V29.3359Z" fill="#FAFAFA"/>
<path d="M248.869 33.9485L249.865 35.3138V29.3359H232.116L233.924 30.6644V49.3728L232.116 50.7013H249.828V44.2068L248.537 46.0149H239.681V41.6607H245.732L246.729 43.026V35.7935L245.732 37.1588H239.681V33.9485H248.869Z" fill="#FAFAFA"/>
<path d="M227.43 29.3359H219.865L221.674 30.6644V49.3728L219.865 50.7013H229.238L227.43 49.3728V29.3359Z" fill="#FAFAFA"/>
<path d="M191.747 38.7825H190.714H189.976H187.356H186.175H182.006V43.1736H185.474C184.404 45.7197 182.412 45.7197 181.6 45.7197C178.131 45.7197 176.913 42.6939 176.913 39.8895C176.913 36.716 178.98 34.2068 181.747 34.0592C183.629 33.9485 185.179 34.5758 186.471 35.9042L185.917 37.7123L187.209 36.7529L191.711 33.4688C189.201 30.0371 185.548 28.2659 181.489 28.4873C175.733 28.8194 171.378 33.6902 171.378 39.8895C171.378 46.6053 175.585 51.2917 181.637 51.2917C183.002 51.2917 185.474 50.9965 187.393 48.6718V50.7013H191.305H191.747H193.113L191.747 49.705V38.7825Z" fill="#FAFAFA"/>
</g>
<defs>
<clipPath id="clip0_111_4241">
<rect width="249.446" height="40" fill="white" transform="translate(0.418945 20)"/>
</clipPath>
</defs>
</svg>
