<svg width="60" height="60" viewBox="0 0 60 60" fill="none" xmlns="http://www.w3.org/2000/svg">
<g clip-path="url(#clip0_141_2815)">
<path d="M60 0V60H40.485C38.8784 60 38.3744 59.0981 38.3744 58.2759C38.3744 57.2679 38.4123 53.9523 38.4123 49.8409C38.4897 48.7979 38.3431 47.7504 37.9823 46.7687C37.6216 45.7871 37.055 44.8939 36.3206 44.1493C43.1717 43.3839 50.3638 40.7882 50.3638 28.9731C50.4103 25.9192 49.2785 22.9649 47.2035 20.7238C48.1412 18.0718 48.0314 15.1619 46.8966 12.5881C46.8966 12.5881 44.3198 11.762 38.4464 15.7408C33.4073 14.3594 28.0894 14.3594 23.0504 15.7408C17.177 11.762 14.6002 12.5881 14.6002 12.5881C13.4682 15.1627 13.3598 18.072 14.2971 20.7238C12.2234 22.9659 11.0906 25.9193 11.133 28.9731C11.133 40.7579 18.31 43.3952 25.1383 44.172C24.0191 45.2653 23.3259 46.7216 23.183 48.2797C22.4291 48.7046 21.5984 48.9756 20.739 49.0771C19.8795 49.1787 19.0085 49.1086 18.1764 48.8711C17.3442 48.6335 16.5675 48.2332 15.8912 47.6932C15.2149 47.1533 14.6524 46.4845 14.2365 45.7257C13.7441 44.8741 13.0639 44.1461 12.2477 43.5971C11.4315 43.0481 10.5007 42.6927 9.52634 42.5578C9.52634 42.5578 6.52141 42.5199 9.31413 44.4297C10.9517 45.4735 12.1615 47.0691 12.7245 48.9276C12.7245 48.9276 14.5358 54.9072 23.0883 53.0504C23.1034 55.612 23.1262 57.5445 23.1262 58.2797C23.1262 59.0906 22.5692 60 21.0307 60H0V0H60Z" fill="#060606"/>
</g>
<defs>
<clipPath id="clip0_141_2815">
<rect width="60" height="60" rx="4" fill="white"/>
</clipPath>
</defs>
</svg>