<svg width="700" height="466" viewBox="0 0 700 466" fill="none" xmlns="http://www.w3.org/2000/svg">
<path d="M326.47 137.666L387.183 102.434L387.072 141.708L326.359 176.94L326.47 137.666Z" fill="#666666"/>
<path d="M246.417 91.5129L307.13 56.2808L387.183 102.434L326.47 137.666L246.417 91.5129Z" fill="#908E92"/>
<path d="M375.557 205.304L436.27 170.072L436.159 209.342L375.446 244.575L375.557 205.304Z" fill="#666666"/>
<path d="M326.359 176.94L387.072 141.708L436.27 170.072L375.557 205.304L326.359 176.94Z" fill="#908E92"/>
<path d="M375.446 244.574L436.159 209.342L485.357 237.707L424.644 272.939L375.446 244.574Z" fill="#908E92"/>
<path d="M424.644 272.939L485.358 237.707L485.246 276.981L424.533 312.213L424.644 272.939Z" fill="#666666"/>
<path d="M473.589 340.495L534.302 305.263L534.19 344.533L473.477 379.765L473.589 340.495Z" fill="#666666"/>
<path d="M424.533 312.213L485.246 276.98L534.302 305.262L473.588 340.494L424.533 312.213Z" fill="#908E92"/>
<path d="M522.676 408.129L583.389 372.896L583.252 420.985L522.539 456.217L522.676 408.129Z" fill="#666666"/>
<path d="M326.47 137.666L326.359 176.94L375.558 205.304L375.446 244.574L424.645 272.939L424.533 312.213L473.589 340.495L473.477 379.765L522.676 408.129L522.539 456.217L245.835 296.69L246.417 91.5132L326.47 137.666Z" fill="#CBCBCB"/>
<path d="M473.477 379.764L534.19 344.532L583.389 372.896L522.676 408.129L473.477 379.764Z" fill="#908E92"/>
<path d="M512.018 441.442C511.652 441.442 511.273 441.322 510.89 441.087L485.835 425.695C484.647 424.964 483.718 423.259 483.722 421.813L483.804 391.177C483.808 389.821 484.609 389.214 485.401 389.214C485.768 389.214 486.148 389.333 486.531 389.568L511.586 404.961C512.774 405.691 513.702 407.396 513.698 408.842L513.695 410.112L516.707 408.576L520.7 415.934L513.669 419.626L513.617 439.478C513.612 440.834 512.811 441.442 512.018 441.442ZM507.585 431.718C507.587 431.701 507.588 431.681 507.588 431.659L507.612 422.809L499.779 426.923C499.779 426.923 507.582 431.716 507.585 431.718ZM489.777 420.014C489.776 420.413 490.066 420.955 490.386 421.152L496.128 424.679L489.796 412.791L489.777 420.014ZM498.364 417.929L507.637 413.2L507.644 410.643C507.645 410.244 507.355 409.702 507.034 409.505C507.034 409.505 489.839 398.941 489.835 398.939C489.834 398.956 489.833 398.975 489.833 398.997L489.82 403.786L490.633 403.293L498.364 417.929Z" fill="#D9D9D9"/>
<path d="M493.833 421.442L497.721 419.037L507.811 413.893L503.922 416.298L493.833 421.442Z" fill="#487732"/>
<path d="M489.686 421.981C489.196 421.68 488.801 420.95 488.803 420.353L488.828 410.843L484.939 413.248L484.914 422.758C484.912 423.356 485.307 424.085 485.797 424.386L493.34 429.02L497.229 426.615L489.686 421.981Z" fill="#FAFAFA"/>
<path d="M486.121 406.845L490.01 404.44L497.721 419.037L493.833 421.442L486.121 406.845Z" fill="#89E260"/>
<path d="M488.858 399.337C488.859 399.039 488.958 398.83 489.117 398.731L485.228 401.136C485.068 401.235 484.97 401.444 484.969 401.742L484.954 407.553L488.843 405.148L488.858 399.337ZM506.873 432.541L498.22 427.224L494.331 429.629L502.984 434.946C503.231 435.097 503.454 435.111 503.615 435.011L507.504 432.606C507.343 432.706 507.12 432.692 506.873 432.541ZM508.753 442.222C508.752 442.841 508.546 443.276 508.215 443.481L512.104 441.076C512.435 440.871 512.641 440.436 512.642 439.817L512.696 419.62L508.807 422.025L508.753 442.222Z" fill="#FAFAFA"/>
<path d="M510.884 405.789L485.83 390.397C485.316 390.081 484.851 390.052 484.516 390.259L480.627 392.665C480.962 392.457 481.427 392.486 481.941 392.802L506.995 408.194C508.014 408.821 508.838 410.339 508.835 411.585L508.829 413.795L512.718 411.39L512.724 409.18C512.727 407.933 511.904 406.415 510.884 405.789Z" fill="#FAFAFA"/>
<path d="M506.995 408.195C508.015 408.821 508.838 410.339 508.835 411.586L508.829 413.795L503.922 416.298L503.93 413.39C503.931 412.791 503.536 412.063 503.046 411.762L485.859 401.203C485.369 400.902 484.971 401.143 484.97 401.742L484.954 407.553L482.65 408.951L484.939 413.248L484.914 422.758C484.912 423.356 485.307 424.085 485.797 424.386L493.34 429.02L493.81 429.903L494.332 429.63L502.985 434.946C503.475 435.247 503.872 435.005 503.874 434.407L503.9 424.604L508.807 422.026L508.754 442.222C508.75 443.468 507.921 443.971 506.902 443.345L481.848 427.952C480.828 427.326 480.004 425.807 480.007 424.561L480.089 393.925C480.092 392.679 480.921 392.176 481.941 392.803L506.995 408.195Z" fill="#E6E6E6"/>
<path d="M512.18 412.087L515.629 418.443L508.807 422.026L503.9 424.604L494.331 429.629L493.81 429.903L493.34 429.02L484.939 413.248L482.65 408.951L484.954 407.553L486.121 406.846L493.833 421.442L503.922 416.298L508.829 413.795L512.18 412.087Z" fill="#568E3C"/>
<path d="M508.829 413.795L512.718 411.39L516.069 409.682L512.18 412.086L508.829 413.795Z" fill="#53873A"/>
<path d="M512.18 412.086L516.069 409.682L519.518 416.037L515.629 418.442L512.18 412.086Z" fill="#89E260"/>
<path d="M462.767 374.344C462.401 374.344 462.021 374.225 461.638 373.989L436.584 358.597C435.395 357.866 434.466 356.161 434.47 354.716L434.552 324.08C434.556 322.723 435.357 322.116 436.15 322.116C436.517 322.116 436.896 322.236 437.28 322.471L462.334 337.864C463.523 338.594 464.451 340.299 464.447 341.744L464.443 343.014L467.455 341.479L471.448 348.837L464.417 352.529L464.365 372.38C464.361 373.736 463.559 374.344 462.767 374.344ZM458.334 364.621C458.335 364.603 458.336 364.584 458.336 364.561L458.36 355.711L450.528 359.825C450.528 359.825 458.33 364.618 458.334 364.621ZM440.525 352.916C440.524 353.315 440.815 353.858 441.135 354.054L446.877 357.582L440.544 345.693L440.525 352.916ZM449.113 350.831L458.386 346.102L458.393 343.545C458.394 343.146 458.103 342.604 457.783 342.407C457.783 342.407 440.588 331.843 440.584 331.841C440.583 331.858 440.581 331.877 440.581 331.899L440.569 336.688L441.381 336.196L449.113 350.831Z" fill="#D9D9D9"/>
<path d="M444.581 354.345L448.47 351.94L458.559 346.795L454.67 349.2L444.581 354.345Z" fill="#487732"/>
<path d="M440.434 354.883C439.944 354.582 439.549 353.853 439.551 353.255L439.577 343.745L435.688 346.15L435.662 355.66C435.66 356.258 436.055 356.987 436.545 357.288L444.088 361.922L447.977 359.517L440.434 354.883Z" fill="#FAFAFA"/>
<path d="M436.869 339.748L440.758 337.343L448.47 351.94L444.581 354.345L436.869 339.748Z" fill="#89E260"/>
<path d="M439.607 332.238C439.608 331.941 439.707 331.732 439.866 331.633L435.977 334.038C435.817 334.137 435.719 334.346 435.718 334.643L435.703 340.455L439.592 338.05L439.607 332.238ZM457.622 365.443L448.969 360.126L445.08 362.531L453.733 367.847C453.98 367.999 454.203 368.013 454.364 367.913L458.253 365.508C458.092 365.608 457.869 365.594 457.622 365.443ZM459.502 375.124C459.501 375.743 459.295 376.178 458.964 376.383L462.853 373.978C463.184 373.774 463.39 373.338 463.391 372.719L463.445 352.523L459.556 354.928L459.502 375.124Z" fill="#FAFAFA"/>
<path d="M461.633 338.692L436.579 323.3C436.065 322.984 435.6 322.955 435.264 323.162L431.375 325.567C431.711 325.36 432.176 325.389 432.69 325.705L457.744 341.097C458.763 341.723 459.587 343.241 459.584 344.488L459.578 346.697L463.467 344.292L463.473 342.083C463.476 340.836 462.652 339.318 461.633 338.692Z" fill="#FAFAFA"/>
<path d="M457.744 341.097C458.763 341.723 459.587 343.241 459.584 344.487L459.578 346.697L454.671 349.199L454.678 346.292C454.68 345.693 454.285 344.965 453.795 344.664L436.607 334.104C436.118 333.803 435.72 334.044 435.718 334.643L435.703 340.455L433.399 341.852L435.688 346.15L435.662 355.66C435.661 356.258 436.056 356.987 436.546 357.288L444.089 361.922L444.559 362.805L445.08 362.531L453.733 367.847C454.223 368.148 454.621 367.906 454.622 367.308L454.649 357.505L459.556 354.927L459.502 375.124C459.499 376.37 458.67 376.872 457.651 376.246L432.596 360.854C431.576 360.227 430.753 358.709 430.756 357.463L430.838 326.827C430.841 325.58 431.67 325.078 432.69 325.704L457.744 341.097Z" fill="#E6E6E6"/>
<path d="M462.929 344.988L466.378 351.344L459.556 354.927L454.648 357.505L445.08 362.531L444.559 362.805L444.088 361.922L435.687 346.15L433.398 341.852L435.703 340.455L436.869 339.748L444.581 354.344L454.671 349.199L459.578 346.697L462.929 344.988Z" fill="#568E3C"/>
<path d="M459.578 346.697L463.467 344.292L466.818 342.583L462.929 344.988L459.578 346.697Z" fill="#53873A"/>
<path d="M462.929 344.988L466.818 342.583L470.266 348.939L466.377 351.344L462.929 344.988Z" fill="#89E260"/>
<path d="M413.515 307.246C413.149 307.246 412.769 307.127 412.386 306.891L387.332 291.499C386.143 290.768 385.215 289.063 385.219 287.618L385.3 256.982C385.304 255.625 386.106 255.018 386.898 255.018C387.265 255.018 387.645 255.137 388.028 255.372L413.083 270.765C414.271 271.495 415.199 273.2 415.195 274.646L415.192 275.916L418.204 274.38L422.197 281.738L415.166 285.431L415.113 305.282C415.109 306.638 414.308 307.246 413.515 307.246ZM409.082 297.523C409.084 297.505 409.085 297.486 409.085 297.463L409.108 288.613L401.276 292.727C401.276 292.727 409.079 297.521 409.082 297.523ZM391.274 285.818C391.272 286.217 391.563 286.76 391.883 286.956L397.625 290.484L391.293 278.595L391.274 285.818ZM399.862 283.733L409.134 279.004L409.141 276.447C409.142 276.048 408.852 275.506 408.531 275.309C408.531 275.309 391.336 264.745 391.333 264.743C391.331 264.76 391.33 264.779 391.33 264.801L391.317 269.59L392.13 269.098L399.862 283.733Z" fill="#D9D9D9"/>
<path d="M395.33 287.246L399.219 284.841L409.308 279.696L405.419 282.101L395.33 287.246Z" fill="#487732"/>
<path d="M391.183 287.785C390.693 287.484 390.298 286.755 390.299 286.157L390.325 276.647L386.436 279.052L386.41 288.562C386.409 289.16 386.804 289.889 387.294 290.19L394.837 294.824L398.726 292.419L391.183 287.785Z" fill="#FAFAFA"/>
<path d="M387.618 272.649L391.506 270.245L399.219 284.841L395.33 287.246L387.618 272.649Z" fill="#89E260"/>
<path d="M390.356 265.14C390.356 264.843 390.455 264.633 390.614 264.535L386.725 266.94C386.566 267.039 386.467 267.248 386.467 267.545L386.451 273.357L390.34 270.952L390.356 265.14ZM408.371 298.344L399.717 293.028L395.828 295.433L404.482 300.749C404.728 300.901 404.951 300.915 405.112 300.815L409.001 298.41C408.84 298.51 408.617 298.496 408.371 298.344ZM410.25 308.025C410.249 308.644 410.044 309.08 409.712 309.285L413.601 306.88C413.932 306.675 414.138 306.239 414.139 305.62L414.193 285.424L410.304 287.829L410.25 308.025Z" fill="#FAFAFA"/>
<path d="M412.381 271.594L387.327 256.201C386.814 255.886 386.349 255.857 386.013 256.064L382.124 258.469C382.46 258.262 382.925 258.291 383.438 258.606L408.492 273.999C409.512 274.625 410.335 276.143 410.332 277.389L410.326 279.6L414.215 277.194L414.221 274.985C414.224 273.738 413.4 272.22 412.381 271.594Z" fill="#FAFAFA"/>
<path d="M408.492 273.999C409.512 274.625 410.335 276.143 410.332 277.389L410.326 279.599L405.419 282.102L405.427 279.194C405.428 278.595 405.033 277.867 404.544 277.566L387.356 267.007C386.866 266.705 386.468 266.947 386.467 267.546L386.451 273.357L384.147 274.754L386.436 279.052L386.411 288.562C386.409 289.16 386.804 289.889 387.294 290.19L394.837 294.824L395.307 295.707L395.828 295.433L404.482 300.75C404.972 301.051 405.369 300.809 405.371 300.211L405.397 290.407L410.304 287.83L410.251 308.026C410.247 309.272 409.418 309.775 408.399 309.149L383.345 293.756C382.325 293.13 381.501 291.611 381.504 290.365L381.586 259.729C381.589 258.483 382.418 257.98 383.439 258.607L408.492 273.999Z" fill="#E6E6E6"/>
<path d="M413.677 277.89L417.126 284.246L410.304 287.829L405.397 290.407L395.828 295.433L395.307 295.707L394.837 294.824L386.436 279.052L384.147 274.754L386.451 273.357L387.618 272.649L395.33 287.246L405.419 282.102L410.326 279.599L413.677 277.89Z" fill="#568E3C"/>
<path d="M410.326 279.599L414.215 277.194L417.566 275.485L413.677 277.89L410.326 279.599Z" fill="#53873A"/>
<path d="M413.677 277.89L417.566 275.485L421.015 281.841L417.126 284.246L413.677 277.89Z" fill="#89E260"/>
<path d="M364.264 240.148C363.898 240.148 363.518 240.028 363.135 239.793L338.081 224.401C336.892 223.67 335.963 221.965 335.967 220.519L336.049 189.883C336.053 188.527 336.854 187.92 337.647 187.92C338.013 187.92 338.393 188.039 338.777 188.274L363.831 203.667C365.019 204.397 365.948 206.102 365.944 207.548L365.94 208.818L368.952 207.282L372.945 214.64L365.914 218.332L365.862 238.183C365.858 239.54 365.056 240.148 364.264 240.148ZM359.83 230.424C359.832 230.407 359.833 230.387 359.833 230.365L359.857 221.515L352.024 225.629C352.024 225.629 359.827 230.422 359.83 230.424ZM342.022 218.72C342.021 219.119 342.312 219.661 342.632 219.858L348.374 223.386L342.041 211.497L342.022 218.72ZM350.61 216.635L359.883 211.906L359.89 209.349C359.891 208.95 359.6 208.408 359.279 208.211C359.279 208.211 342.085 197.647 342.081 197.645C342.079 197.662 342.078 197.681 342.078 197.703L342.065 202.492L342.878 201.999L350.61 216.635Z" fill="#D9D9D9"/>
<path d="M346.078 220.148L349.967 217.743L360.056 212.598L356.167 215.003L346.078 220.148Z" fill="#487732"/>
<path d="M341.931 220.687C341.441 220.386 341.046 219.657 341.048 219.059L341.073 209.549L337.184 211.954L337.159 221.464C337.157 222.061 337.552 222.79 338.042 223.091L345.585 227.726L349.474 225.321L341.931 220.687Z" fill="#FAFAFA"/>
<path d="M338.366 205.552L342.255 203.146L349.967 217.743L346.078 220.148L338.366 205.552Z" fill="#89E260"/>
<path d="M341.104 198.043C341.105 197.745 341.203 197.536 341.362 197.438L337.473 199.843C337.314 199.941 337.216 200.15 337.215 200.448L337.199 206.259L341.088 203.854L341.104 198.043ZM359.119 231.247L350.466 225.93L346.577 228.335L355.23 233.652C355.476 233.803 355.7 233.817 355.861 233.717L359.75 231.312C359.588 231.412 359.365 231.398 359.119 231.247ZM360.999 240.928C360.997 241.547 360.792 241.982 360.46 242.187L364.349 239.782C364.681 239.577 364.886 239.142 364.888 238.523L364.942 218.326L361.053 220.731L360.999 240.928Z" fill="#FAFAFA"/>
<path d="M363.13 204.496L338.076 189.103C337.562 188.788 337.097 188.758 336.761 188.966L332.872 191.371C333.208 191.163 333.673 191.193 334.187 191.508L359.241 206.901C360.26 207.527 361.084 209.045 361.08 210.291L361.075 212.501L364.964 210.096L364.969 207.887C364.973 206.64 364.149 205.122 363.13 204.496Z" fill="#FAFAFA"/>
<path d="M359.241 206.901C360.26 207.527 361.084 209.045 361.081 210.291L361.075 212.501L356.168 215.004L356.175 212.096C356.177 211.497 355.782 210.769 355.292 210.468L338.104 199.908C337.614 199.607 337.217 199.848 337.215 200.448L337.2 206.259L334.895 207.656L337.185 211.954L337.159 221.464C337.158 222.062 337.553 222.791 338.042 223.092L345.585 227.726L346.056 228.609L346.577 228.335L355.23 233.652C355.72 233.953 356.118 233.71 356.119 233.113L356.145 223.309L361.053 220.732L360.999 240.928C360.996 242.174 360.167 242.677 359.147 242.051L334.093 226.658C333.073 226.031 332.249 224.513 332.253 223.267L332.334 192.631C332.338 191.385 333.167 190.882 334.187 191.508L359.241 206.901Z" fill="#E6E6E6"/>
<path d="M364.426 210.792L367.874 217.148L361.053 220.731L356.145 223.309L346.577 228.335L346.056 228.609L345.585 227.726L337.185 211.954L334.895 207.656L337.2 206.259L338.366 205.551L346.078 220.148L356.168 215.003L361.075 212.501L364.426 210.792Z" fill="#568E3C"/>
<path d="M361.075 212.501L364.964 210.096L368.315 208.387L364.426 210.792L361.075 212.501Z" fill="#53873A"/>
<path d="M364.426 210.792L368.315 208.387L371.763 214.743L367.874 217.148L364.426 210.792Z" fill="#89E260"/>
<path d="M315.013 173.05C314.646 173.05 314.267 172.93 313.884 172.695L288.829 157.303C287.641 156.571 286.712 154.867 286.716 153.421L286.797 122.785C286.801 121.429 287.603 120.822 288.395 120.822C288.762 120.822 289.142 120.941 289.525 121.176L314.58 136.569C315.768 137.299 316.696 139.004 316.692 140.449L316.689 141.72L319.701 140.184L323.694 147.542L316.663 151.234L316.61 171.085C316.607 172.442 315.805 173.05 315.013 173.05ZM310.579 163.327C310.581 163.309 310.582 163.29 310.582 163.267L310.606 154.416L302.773 158.531C302.773 158.531 310.576 163.324 310.579 163.327ZM292.771 151.622C292.77 152.021 293.06 152.563 293.381 152.76L299.122 156.288L292.79 144.399L292.771 151.622ZM301.359 149.536L310.631 144.808L310.638 142.251C310.639 141.852 310.349 141.31 310.028 141.113C310.028 141.113 292.833 130.549 292.83 130.547C292.828 130.564 292.827 130.583 292.827 130.605L292.814 135.394L293.627 134.901L301.359 149.536Z" fill="#D9D9D9"/>
<path d="M296.827 153.05L300.716 150.645L310.805 145.5L306.916 147.905L296.827 153.05Z" fill="#487732"/>
<path d="M292.68 153.589C292.19 153.288 291.795 152.559 291.797 151.961L291.822 142.451L287.933 144.856L287.908 154.366C287.906 154.964 288.301 155.693 288.791 155.994L296.334 160.628L300.223 158.223L292.68 153.589Z" fill="#FAFAFA"/>
<path d="M289.115 138.453L293.004 136.048L300.716 150.645L296.827 153.05L289.115 138.453Z" fill="#89E260"/>
<path d="M291.853 130.944C291.853 130.647 291.952 130.438 292.111 130.339L288.222 132.744C288.063 132.842 287.964 133.052 287.964 133.349L287.948 139.161L291.837 136.756L291.853 130.944ZM309.868 164.149L301.215 158.832L297.326 161.237L305.979 166.554C306.225 166.705 306.449 166.719 306.61 166.619L310.499 164.214C310.337 164.314 310.114 164.3 309.868 164.149ZM311.748 173.83C311.746 174.449 311.541 174.884 311.209 175.089L315.098 172.684C315.43 172.48 315.635 172.044 315.637 171.425L315.691 151.229L311.802 153.634L311.748 173.83Z" fill="#FAFAFA"/>
<path d="M313.878 137.398L288.824 122.005C288.311 121.69 287.846 121.66 287.51 121.868L283.621 124.273C283.957 124.065 284.422 124.094 284.935 124.41L309.989 139.802C311.009 140.428 311.832 141.947 311.829 143.193L311.823 145.403L315.712 142.998L315.718 140.788C315.721 139.542 314.898 138.024 313.878 137.398Z" fill="#FAFAFA"/>
<path d="M309.99 139.802C311.009 140.429 311.832 141.947 311.829 143.193L311.823 145.403L306.916 147.905L306.924 144.998C306.925 144.399 306.53 143.671 306.041 143.37L288.853 132.81C288.363 132.509 287.965 132.75 287.964 133.349L287.948 139.161L285.644 140.558L287.933 144.856L287.908 154.366C287.906 154.964 288.301 155.693 288.791 155.994L296.334 160.628L296.804 161.511L297.326 161.237L305.979 166.553C306.469 166.854 306.866 166.612 306.868 166.014L306.894 156.211L311.802 153.633L311.748 173.83C311.744 175.076 310.915 175.578 309.896 174.952L284.842 159.56C283.822 158.933 282.998 157.415 283.001 156.169L283.083 125.533C283.086 124.286 283.915 123.784 284.936 124.41L309.99 139.802Z" fill="#E6E6E6"/>
<path d="M315.174 143.694L318.623 150.05L311.801 153.633L306.894 156.211L297.325 161.237L296.804 161.511L296.334 160.628L287.933 144.856L285.644 140.558L287.948 139.161L289.115 138.453L296.827 153.05L306.916 147.905L311.823 145.403L315.174 143.694Z" fill="#568E3C"/>
<path d="M311.823 145.403L315.712 142.998L319.063 141.289L315.174 143.694L311.823 145.403Z" fill="#53873A"/>
<path d="M315.174 143.694L319.063 141.289L322.512 147.645L318.623 150.05L315.174 143.694Z" fill="#89E260"/>
<path d="M322.679 70.9276L271.542 100.552L259.988 93.8909L311.125 64.2666L322.679 70.9276Z" fill="#E6E6E6"/>
<path d="M294.857 85.2754L300.218 93.806L304.286 91.4606L334.43 108.953L334.617 111.848L344.053 117.324L343.818 113.681L350.115 113.828L340.679 108.353L335.65 108.234L305.52 90.7493L309.587 88.4046L294.857 85.2754Z" fill="#E6E6E6"/>
<path d="M316.71 63.6902C327.99 44.0532 327.899 22.8456 316.509 16.3217C305.118 9.79777 286.741 20.4281 275.461 40.0651C264.182 59.7021 264.272 80.9098 275.663 87.4337C287.054 93.9576 305.431 83.3273 316.71 63.6902Z" fill="#C68BBC"/>
<path d="M304.968 56.965C309.824 48.5096 309.786 39.3779 304.881 36.5688C299.976 33.7597 292.063 38.3369 287.207 46.7923C282.35 55.2476 282.389 64.3793 287.294 67.1884C292.198 69.9975 300.111 65.4203 304.968 56.965Z" fill="#FAFAFA"/>
<path d="M296.085 43.0049C291.862 45.4237 288.425 51.3685 288.425 56.2538C288.425 61.1391 291.862 63.1466 296.085 60.7279C300.308 58.3091 303.746 52.3643 303.746 47.479C303.746 42.5935 300.309 40.5862 296.085 43.0049Z" fill="#FAFAFA"/>
<path d="M299.713 49.7883C299.713 52.1023 298.086 54.9176 296.085 56.0635C294.085 57.2091 292.457 56.2585 292.457 53.9446C292.457 51.6307 294.085 48.8151 296.085 47.6694C298.086 46.5235 299.713 47.4744 299.713 49.7883Z" fill="#FAFAFA"/>
<path d="M310.982 60.4099C319.129 46.2271 319.064 30.9099 310.837 26.198C302.61 21.4861 289.337 29.1638 281.19 43.3466C273.044 57.5294 273.109 72.8466 281.336 77.5585C289.563 82.2704 302.836 74.5927 310.982 60.4099Z" fill="#FAFAFA"/>
<path d="M279.558 61.3329C279.558 50.7899 286.971 37.9679 296.085 32.7477C305.199 27.5276 312.613 31.8575 312.613 42.4005C312.613 52.9435 305.199 65.7657 296.085 70.9856C286.971 76.2057 279.558 71.8759 279.558 61.3329ZM308.583 44.7086C308.583 36.7369 302.976 33.4624 296.085 37.4094C289.194 41.3562 283.588 51.0534 283.588 59.025C283.588 66.9966 289.194 70.2712 296.085 66.3242C302.976 62.3772 308.583 52.6802 308.583 44.7086Z" fill="#FAFAFA"/>
<path d="M301.53 54.9959C304.507 49.8134 304.483 44.2164 301.476 42.4946C298.47 40.7728 293.62 43.5782 290.643 48.7608C287.667 53.9433 287.69 59.5403 290.697 61.2621C293.703 62.9839 298.553 60.1784 301.53 54.9959Z" fill="#FF2121"/>
<path d="M304.967 56.9647C309.824 48.5094 309.785 39.3778 304.881 36.5687C299.976 33.7597 292.063 38.3369 287.207 46.7923C282.35 55.2476 282.389 64.3792 287.293 67.1883C292.198 69.9973 300.111 65.4201 304.967 56.9647Z" fill="#C68BBC"/>
<path d="M299.713 49.7883C299.713 47.4744 298.086 46.5235 296.085 47.6694C294.085 48.8151 292.457 51.6307 292.457 53.9446C292.457 56.2585 294.085 57.2091 296.085 56.0635C298.086 54.9176 299.713 52.1023 299.713 49.7883Z" fill="#FAFAFA"/>
<path d="M252.045 59.9239C252.045 69.2551 255.335 75.8131 260.648 78.8559L275.663 87.4228C270.351 84.3801 267.06 77.8223 267.06 68.4909C267.06 49.9483 280.054 27.4721 296.085 18.2901C304.049 13.7291 311.263 13.3074 316.508 16.3112L301.492 7.74427C296.248 4.74044 289.033 5.1624 281.07 9.72314C265.038 18.9054 252.045 41.3813 252.045 59.9239Z" fill="#974A8A"/>
<path d="M306.892 57.8073L306.897 59.5933L311.176 57.1265L311.171 55.3403L306.892 57.8073Z" fill="#633D14"/>
<path d="M301.313 61.0234L301.318 62.8095L305.599 60.3416L305.594 58.5557L301.313 61.0234Z" fill="#633D14"/>
<path d="M295.673 52.0479L295.678 53.834L301.318 62.8097L301.313 61.0235L295.673 52.0479Z" fill="#6D3F15"/>
<path d="M305.594 58.5557L305.599 60.3416L337.314 78.7463L337.309 76.9603L305.594 58.5557Z" fill="#754115"/>
<path d="M337.309 76.9604L337.314 78.7464L337.511 81.7922L337.506 80.006L337.309 76.9604Z" fill="#613814"/>
<path d="M347.187 81.9346L347.192 83.7207L353.818 83.8759L353.813 82.09L347.187 81.9346Z" fill="#613C13"/>
<path d="M337.506 80.0059L337.511 81.792L347.439 87.5532L347.434 85.7673L337.506 80.0059Z" fill="#754115"/>
<path d="M295.673 52.0479L301.313 61.0235L305.594 58.5558L337.309 76.9604L337.506 80.006L347.434 85.7674L347.187 81.9345L353.813 82.0899L343.885 76.3285L338.593 76.2039L306.892 57.8074L311.171 55.3404L295.673 52.0479Z" fill="#FFA22F"/>
<path d="M485.435 142.462C480.145 136.783 467.79 114.475 466.561 110.4C465.436 106.669 471.673 100.888 477.818 109.283C482.419 115.568 491.506 135.174 492.976 140.869C494.143 145.387 491.424 148.892 485.435 142.462Z" fill="#C68BBC"/>
<path d="M497.833 156.382C498.092 158.954 497.564 161.386 497.75 163.776C497.821 166.67 491.817 167.946 488.987 166.282C488.412 163.89 487.479 161.459 486.879 158.89C488.767 155.097 496.708 155.044 497.833 156.382Z" fill="#C9C9C9"/>
<path d="M488.062 158.637C489.59 165.213 491.296 172.067 491.699 173.857C492.713 178.359 497.328 175.91 497.337 173.249C497.341 172.043 497.014 165.483 496.35 158.512L488.062 158.637Z" fill="#E8BFA6"/>
<path d="M492.859 140.502C494.475 142.708 495.813 152.245 496.537 160.549L488.958 162.449C487.379 155.808 485.289 145.724 485.076 143.241C484.632 138.045 491.235 138.284 492.859 140.502Z" fill="#C68BBC"/>
<path d="M497.833 156.382C498.092 158.954 497.879 161.315 497.75 163.776C495.955 162.35 490.147 164.079 488.987 166.282C488.412 163.89 487.479 161.459 486.879 158.89C488.767 155.097 496.708 155.044 497.833 156.382Z" fill="#FAFAFA"/>
<path d="M491.801 181.676C492.112 180.778 491.983 179.233 492.24 178.987C492.327 178.967 493.013 180.222 493.278 181.971C493.593 184.044 493.614 184.758 493.853 185.047C494.756 186.938 498.393 184.952 498.821 184.591C500.411 183.248 500.359 179.572 500.178 177.991C499.975 176.219 499.164 174.523 498.295 173.708C497.723 173.171 497.178 172.044 497.002 171.463C496.301 169.147 490.849 169.353 491.056 170.73C491.235 171.992 491.087 172.752 490.479 173.622C489.343 175.244 489.355 178.028 489.561 178.515C490.014 179.582 489.904 181.596 489.717 182.387C489.668 182.595 489.792 182.812 490.001 182.857C490.647 182.998 491.407 182.812 491.801 181.676Z" fill="#E8BFA6"/>
<path d="M394.515 170.616L400.772 167.731L400.678 168.699L394.421 171.584L394.515 170.616Z" fill="#B97F41"/>
<path d="M394.421 171.584L400.678 168.699L431.221 190.884L424.964 193.768L394.421 171.584Z" fill="#D08F49"/>
<path d="M424.964 193.768L431.221 190.884L429.438 209.223L423.181 212.107L424.964 193.768Z" fill="#A8733B"/>
<path d="M425.058 192.8L431.314 189.916L431.22 190.884L424.964 193.768L425.058 192.8Z" fill="#636363"/>
<path d="M394.515 170.616L400.772 167.731L431.315 189.916L425.058 192.8L394.515 170.616Z" fill="#976835"/>
<path d="M425.058 192.8L424.964 193.768L394.421 171.583L394.515 170.616L425.058 192.8Z" fill="#060606"/>
<path d="M425.71 186.094L431.967 183.209L431.315 189.916L425.058 192.8L425.71 186.094Z" fill="#A8733B"/>
<path d="M425.71 186.094L425.058 192.8L394.515 170.616L394.421 171.584L424.964 193.768L423.181 212.107L392.639 189.923L394.421 171.584L394.515 170.616L395.167 163.909L425.71 186.094Z" fill="#4F361A"/>
<path d="M395.167 163.909L401.424 161.024L431.966 183.209L425.71 186.093L395.167 163.909Z" fill="#D6934B"/>
<path d="M410.486 170.486L418.174 175.941L416.098 176.815L408.413 171.358L410.486 170.486Z" fill="#D9D9D9"/>
<path d="M409.135 170.041L410.699 169.32L410.566 170.689L409.002 171.41L409.135 170.041Z" fill="#C5C5C5"/>
<path d="M409.002 171.41L410.566 170.689L411.801 171.565L410.237 172.286L409.002 171.41Z" fill="#DCDCDC"/>
<path d="M409.135 170.041L410.699 169.32L411.934 170.196L410.37 170.917L409.135 170.041Z" fill="#9F9F9F"/>
<path d="M410.37 170.917L411.934 170.196L411.801 171.564L410.237 172.285L410.37 170.917Z" fill="#C4BD3C"/>
<path d="M410.37 170.917L410.237 172.286L409.002 171.41L409.135 170.042L410.37 170.917Z" fill="#6E6A0D"/>
<path d="M410.574 168.821L412.138 168.1L411.934 170.196L410.37 170.917L410.574 168.821Z" fill="#7D7D7D"/>
<path d="M415.118 174.284L416.683 173.563L416.55 174.932L414.985 175.653L415.118 174.284Z" fill="#C5C5C5"/>
<path d="M414.985 175.653L416.55 174.932L417.782 175.806L416.218 176.527L414.985 175.653Z" fill="#DCDCDC"/>
<path d="M415.118 174.284L416.683 173.563L417.915 174.437L416.351 175.158L415.118 174.284Z" fill="#9F9F9F"/>
<path d="M416.351 175.159L416.218 176.527L414.985 175.653L415.118 174.285L416.351 175.159Z" fill="#6E6A0D"/>
<path d="M416.351 175.159L417.915 174.438L417.782 175.806L416.218 176.527L416.351 175.159Z" fill="#C4BD3C"/>
<path d="M416.685 171.716L418.249 170.995L417.915 174.437L416.351 175.159L416.685 171.716Z" fill="#7D7D7D"/>
<path d="M409.47 166.598L411.034 165.877L418.25 170.994L416.686 171.715L409.47 166.598Z" fill="#ABABAB"/>
<path d="M416.686 171.716L416.351 175.159L415.119 174.285L414.986 175.653L416.218 176.527L414.986 175.653L415.322 172.189L410.574 168.821L410.37 170.917L409.135 170.041L409.002 171.41L410.237 172.286L409.002 171.41L409.47 166.599L416.686 171.716Z" fill="#2E2E2E"/>
<path d="M423.618 184.61L425.71 186.093L427.912 185.078C426.609 184.364 425.162 184.276 423.618 184.61Z" fill="#FFF750"/>
<path d="M427.912 185.079L425.71 186.094L425.488 188.372C426.449 187.641 427.225 186.466 427.912 185.079ZM427.282 210.24L429.484 209.225L429.705 206.947C428.745 207.678 427.969 208.853 427.282 210.24Z" fill="#C4BD3C"/>
<path d="M425.489 188.372L425.71 186.094L423.618 184.61C423.949 186.144 424.506 187.462 425.489 188.372ZM392.882 187.414L392.661 189.692L394.753 191.176C394.422 189.641 393.864 188.323 392.882 187.414Z" fill="#6E6A0D"/>
<path d="M429.751 184.231L431.967 183.209L429.987 181.805C429.624 182.633 429.541 183.441 429.751 184.231Z" fill="#FFF750"/>
<path d="M431.73 185.638L431.967 183.209L429.751 184.231C430.22 184.951 430.873 185.429 431.73 185.638ZM423.418 209.679L423.181 212.107L425.397 211.086C424.927 210.366 424.275 209.887 423.418 209.679Z" fill="#C4BD3C"/>
<path d="M403.433 162.449L401.424 161.024L399.255 162.024C400.518 162.648 401.91 162.793 403.433 162.449ZM397.326 162.914L395.167 163.909L397.208 165.356C397.571 164.613 397.542 163.784 397.326 162.914Z" fill="#FFF750"/>
<path d="M397.208 165.356L395.167 163.909L394.92 166.448C395.785 166.357 396.548 165.993 397.208 165.356ZM421.148 210.661L423.189 212.108L423.426 209.68C422.562 209.771 421.809 210.024 421.148 210.661Z" fill="#6E6A0D"/>
<path d="M452.331 80.7884C451.977 81.9883 452.41 83.7882 452.331 85.6061C452.17 89.2623 451.743 92.57 452.601 96.0173C453.598 100.017 454.562 103.227 459.287 100.873C463.686 98.6807 466.485 97.7561 465.976 91.2442C465.71 87.8427 477.322 90.747 478.243 85.7857C479.877 76.9811 473.514 70.3635 466.838 70.1687C459.098 69.9429 454.796 72.422 452.331 80.7884Z" fill="#FFD4B9"/>
<path d="M448.078 111.875L453.423 112.56L458.451 85.591L454.567 85.2329C455.091 95.4381 451.897 103.395 448.078 111.875Z" fill="#6E4839"/>
<path d="M436.755 236.181C435.39 239.189 434.811 240.478 433.568 241.528C434.286 241.853 437.797 240.334 439.162 237.326C440.528 234.318 440.119 229.408 439.401 229.083C438.682 228.758 438.12 233.173 436.755 236.181Z" fill="#E8BFA6"/>
<path d="M440.685 131.148C441.464 135.385 447.355 135.825 448.847 138.522C451.04 135.981 446.271 119.041 443.648 119.522C443.112 122.888 439.906 126.912 440.685 131.148Z" fill="#B44134"/>
<path d="M479.768 180.276C478.814 186.199 478.19 191.882 466.24 192.524C453.434 198.491 448.096 198.647 443.186 200.908C438.202 203.203 434.74 196.166 435.561 190.762C436.306 185.85 459.654 169.942 467.556 171.274C476.715 172.818 480.855 173.519 479.768 180.276Z" fill="#E8BFA6"/>
<path d="M439.366 231.219C440.721 211.575 432.899 197.326 435.877 189.749C437.82 184.806 444.986 192.451 445.895 197.649C448.972 215.243 445.638 215.207 447.175 231.3C444.024 231.85 441.901 233.413 439.366 231.219ZM480.961 173.698C484.335 177.618 482.145 188.77 476.111 196.12C475.018 209.901 472.091 233.026 471.558 238.197C470.996 243.649 463.454 240.442 460.031 236.178C457.76 233.349 460.411 178.401 465.585 172.29C471.583 165.207 476.494 168.509 480.961 173.698Z" fill="#E8BFA6"/>
<path d="M473.477 278.751C466.936 260.176 458.355 242.337 460.077 235.004C461.29 229.834 468.996 233.433 471.592 238.029C477.391 248.291 471.562 251.237 480.767 277.448C479.444 280.712 477.737 281.765 473.477 278.751Z" fill="#E8BFA6"/>
<path d="M480.961 173.698C484.335 177.618 482.145 188.77 476.111 196.12C475.017 209.901 472.091 233.026 471.558 238.197C470.995 243.649 463.454 240.442 460.03 236.178C457.76 233.349 460.411 178.401 465.585 172.29C471.583 165.207 476.493 168.509 480.961 173.698Z" fill="#E8BFA6"/>
<path d="M473.477 278.751C466.936 260.176 458.355 242.337 460.077 235.004C461.29 229.834 468.996 233.433 471.592 238.029C477.391 248.291 471.562 251.237 480.767 277.448C479.444 280.712 477.737 281.765 473.477 278.751Z" fill="#E8BFA6"/>
<path d="M434.255 196.687C436.072 211.589 470.817 230.848 475.644 219.995C473.959 199.41 490.5 187.5 480.104 171.306C472.81 167.521 461.034 163.362 449.315 168.538C450.541 183.668 434.175 177.784 434.255 196.687Z" fill="#3B3B3B"/>
<path d="M449.318 168.568C453.226 173.207 473.269 174.927 480.126 171.46C483.417 167.977 475.839 166.672 476.903 153.456C478.374 135.195 485.175 111.042 482.238 108.092C475.35 101.172 445.888 104.395 443.23 108.718C440.589 113.011 452.184 140.753 451.063 157.378C450.446 166.517 448.297 166.673 449.318 168.568Z" fill="#C68BBC"/>
<path d="M429.795 246.892C431.21 247.687 433.276 248.144 434.521 247.488C439.679 244.765 442.271 239.075 446.335 233.13L438.804 229.724C438.804 229.724 437.976 239.38 433.653 241.408C431.581 242.38 430.639 240.943 428.742 242.726C427.493 243.9 428.75 246.304 429.795 246.892Z" fill="#3B3B3B"/>
<path d="M434.35 247.603C434.35 247.603 439.398 246.786 440.545 245.952C443.167 244.046 445.862 235.884 445.862 235.884C444.11 234.957 441.803 235.716 440.401 237.439C437.165 241.416 436.61 245.417 434.35 247.603Z" fill="#808080"/>
<path d="M439.949 237.471C442.556 235.376 443.781 235.515 445.99 235.82C447.438 232.966 448.532 229.468 446.117 227.375C444.354 225.847 441.266 226.498 439.185 229.026C437.32 231.291 438.275 234.596 439.949 237.471Z" fill="#3B3B3B"/>
<path d="M442.937 249.219C443.446 250.108 444.909 249.917 445.354 249.219L446.053 235.502L442.174 235.375L442.937 249.219Z" fill="#3B3B3B"/>
<path d="M464.804 296.674C466.218 297.469 468.285 297.927 469.529 297.27C474.688 294.548 477.279 288.858 481.344 282.913L473.813 279.506C473.813 279.506 472.984 289.163 468.662 291.191C466.59 292.162 465.648 290.726 463.751 292.509C462.502 293.683 463.76 296.087 464.804 296.674Z" fill="#3B3B3B"/>
<path d="M469.36 297.386C469.36 297.386 474.407 296.569 475.554 295.735C478.176 293.829 480.872 285.666 480.872 285.666C479.119 284.74 476.812 285.499 475.41 287.222C472.174 291.199 471.619 295.2 469.36 297.386Z" fill="#808080"/>
<path d="M474.957 287.254C477.565 285.158 478.79 285.298 480.999 285.603C482.447 282.749 483.541 279.251 481.126 277.157C479.363 275.629 476.275 276.281 474.194 278.808C472.329 281.074 473.284 284.379 474.957 287.254Z" fill="#3B3B3B"/>
<path d="M477.947 299.002C478.455 299.891 479.918 299.7 480.363 299.002L481.063 285.285L477.184 285.158L477.947 299.002Z" fill="#3B3B3B"/>
<path d="M452.545 135.313C452.719 138.115 468.719 141.144 473.982 137.096C473.982 137.096 482.423 124.762 478.407 108.601C475.394 96.4761 483.041 81.6712 479.3 74.6913C475.708 67.9909 464.1 66.3568 457.913 70.635C448.967 76.8199 456.565 96.2379 458.671 110.074C460.418 121.554 452.143 128.833 452.545 135.313Z" fill="#6E4839"/>
<path d="M475.006 135.006C475.248 137.389 483.273 135.124 485.119 133.35C489.299 129.333 489.814 123.057 485.688 110.182C483.576 103.59 477.254 99.4786 479.508 81.6816L477.591 80.6138C475.444 98.0051 474.663 105.777 477.335 112.124C481.369 121.705 474.686 131.871 475.006 135.006Z" fill="#6E4839"/>
<path d="M425.165 156.427C426.586 154.3 427.977 152.549 429.716 150.627C432.6 148.799 439.148 155.008 437.827 158.16C435.917 159.763 433.915 161.11 431.726 162.469C429.167 162.359 425.003 157.662 425.165 156.427Z" fill="#A3A3A3"/>
<path d="M427.265 155.524C424.469 158.631 421.943 161.42 420.828 162.345C417.274 165.294 422.185 168.162 424.389 166.667C425.537 165.889 430.678 162.039 435.742 157.796L427.265 155.524Z" fill="#E8BFA6"/>
<path d="M442.43 109.395C443.749 105.728 451.175 107.184 451.011 113.627C450.813 121.411 447.614 141.686 446.733 145.712C445.887 149.58 440.632 152.086 439.384 143.869C439.162 142.406 441.233 112.723 442.43 109.395Z" fill="#C68BBC"/>
<path d="M426.456 156.423C430.39 152.06 437.19 145.319 439.319 143.594C443.374 140.309 447.742 143.021 446.676 146.429C445.814 149.32 438.039 156.033 431.862 160.968C430.774 159.995 427.167 156.974 426.456 156.423Z" fill="#C68BBC"/>
<path d="M425.165 156.427C426.586 154.3 427.977 152.549 429.716 150.627C428.819 153.358 435 159.176 437.827 158.16C435.917 159.763 433.915 161.11 431.726 162.469C429.167 162.359 425.003 157.662 425.165 156.427Z" fill="#FAFAFA"/>
<path d="M409.895 168.218C409.981 167.287 411.432 164.794 412.539 165.12C414.885 165.812 416.345 163.536 418.011 163.818C419.59 164.085 421.942 161.441 421.942 161.441L426.273 165.119C426.273 165.119 424.147 166.973 422.97 169.28C422.06 171.062 417.614 173.398 416.44 173.3C414.274 173.121 409.813 169.099 409.895 168.218Z" fill="#E8BFA6"/>
<path d="M410.237 164.605C410.042 164.635 409.898 164.814 409.931 165.009C410.03 165.609 410.666 166.302 411.744 166.043C412.696 165.815 414.339 165.395 415.29 166.417L418.2 164.102C418.2 164.102 415.678 163.583 415.114 163.506C414.054 163.362 410.979 164.495 410.237 164.605Z" fill="#E8BFA6"/>
<path d="M547.038 99.6222C541.732 102.681 540.457 107.189 543.214 110.936C542.484 111.258 541.78 111.609 541.112 111.995C533.022 116.658 532.98 124.222 541.016 128.885C549.053 133.549 562.129 133.549 570.218 128.886C571.813 127.966 573.089 126.933 574.058 125.835C582.293 126.356 590.862 124.796 597.201 121.141C599.171 120.005 600.786 118.743 602.058 117.402C607.594 117.519 613.203 116.357 617.442 113.913C625.531 109.25 625.574 101.687 617.538 97.0228C614.371 95.1851 610.421 94.0751 606.304 93.6865C605.444 92.4618 604.162 91.3162 602.453 90.3245C595.538 86.3116 584.295 86.3132 577.338 90.3245C575.781 91.2221 574.573 92.2428 573.711 93.3337C568.838 93.6951 564.094 94.7911 560.01 96.6202C555.335 96.5598 550.618 97.5585 547.038 99.6222Z" fill="#CBCBCB"/>
<path d="M555.132 126.342C560.166 126.342 564.862 125.233 568.357 123.219C569.645 122.476 570.702 121.642 571.498 120.74L572.403 119.714L573.769 119.8C574.736 119.862 575.72 119.892 576.694 119.892C583.775 119.893 590.398 118.323 595.34 115.474C597.025 114.503 598.447 113.412 599.566 112.232L600.415 111.336L601.651 111.362C601.883 111.367 602.116 111.37 602.349 111.37C607.388 111.37 612.087 110.261 615.581 108.246C618.564 106.526 620.277 104.316 620.28 102.182C620.283 100.07 618.602 97.8824 615.669 96.1801C612.952 94.6032 609.462 93.5756 605.576 93.2089L604.294 93.088L603.554 92.035C602.9 91.1042 601.901 90.2454 600.585 89.4816C597.703 87.8094 593.643 86.8501 589.447 86.8501C585.248 86.8501 581.173 87.8108 578.268 89.4856C577.054 90.1855 576.102 90.9663 575.438 91.8069L574.678 92.7697L573.453 92.8606C568.784 93.2068 564.37 94.2616 560.687 95.9108L560.125 96.1626L559.508 96.1547C559.387 96.1531 559.267 96.1524 559.146 96.1524C554.943 96.1524 550.869 97.1114 547.969 98.7839C545.85 100.005 544.511 101.498 544.198 102.987C543.986 103.997 544.255 105.022 544.998 106.033L547.056 108.832L543.876 110.234C543.216 110.525 542.598 110.835 542.042 111.156C539.059 112.876 537.346 115.086 537.343 117.22C537.34 119.333 539.021 121.52 541.954 123.222C545.421 125.234 550.101 126.342 555.132 126.342Z" fill="#FAFAFA"/>
<path d="M555.133 123.555C559.925 123.555 564.373 122.512 567.659 120.618C568.816 119.951 569.755 119.213 570.45 118.425L571.808 116.886L573.857 117.015C574.793 117.075 575.747 117.105 576.693 117.105C583.535 117.105 589.909 115.602 594.642 112.873C596.211 111.969 597.526 110.962 598.552 109.88L599.827 108.536L601.681 108.575C601.903 108.579 602.126 108.582 602.349 108.582C607.147 108.582 611.598 107.539 614.883 105.645C617.386 104.202 618.882 102.386 618.884 100.786C618.886 99.2082 617.422 97.4159 614.968 95.9914C612.424 94.5149 609.131 93.5507 605.445 93.2028L603.521 93.0213L602.411 91.4418C601.874 90.6776 601.024 89.9546 599.884 89.2929C597.209 87.7406 593.405 86.8501 589.447 86.8501C585.486 86.8501 581.666 87.7427 578.966 89.2989C577.906 89.9101 577.088 90.5753 576.534 91.2762L575.393 92.7203L573.556 92.8564C569.048 93.1907 564.795 94.2047 561.258 95.7884L560.415 96.1661L559.491 96.1543L559.146 96.1519C555.181 96.1519 551.362 97.0431 548.667 98.5966C546.922 99.6022 545.791 100.799 545.564 101.879C545.435 102.493 545.618 103.126 546.124 103.814L549.211 108.011L544.44 110.114C543.825 110.386 543.253 110.673 542.74 110.969C540.237 112.412 538.742 114.229 538.739 115.828C538.737 117.406 540.201 119.198 542.655 120.623C545.912 122.514 550.344 123.555 555.133 123.555Z" fill="#FAFAFA"/>
<path d="M425.203 38.5753C429.068 40.8037 429.997 44.0879 427.989 46.8179C428.521 47.0525 429.033 47.3084 429.52 47.5889C435.413 50.9865 435.444 56.4965 429.59 59.8941C423.735 63.2917 414.209 63.2917 408.315 59.8941C407.153 59.224 406.224 58.4716 405.518 57.672C399.519 58.0513 393.276 56.9147 388.658 54.252C387.223 53.4249 386.046 52.5052 385.12 51.5282C381.086 51.6131 377 50.7673 373.912 48.9867C368.019 45.5891 367.988 40.0791 373.842 36.6815C376.15 35.3427 379.027 34.5341 382.026 34.2508C382.653 33.3587 383.587 32.5241 384.831 31.8015C389.869 28.8781 398.06 28.8792 403.129 31.8015C404.263 32.4553 405.143 33.1991 405.771 33.9938C409.321 34.2571 412.777 35.0556 415.752 36.3881C419.159 36.3443 422.595 37.0718 425.203 38.5753Z" fill="#CBCBCB"/>
<path d="M419.306 58.0416C415.639 58.0416 412.217 57.2333 409.671 55.7656C408.733 55.2246 407.963 54.6169 407.383 53.9599L406.724 53.2124L405.728 53.2753C405.024 53.3198 404.307 53.3424 403.598 53.3424C398.438 53.3427 393.614 52.1993 390.013 50.1235C388.786 49.4159 387.75 48.6214 386.935 47.7621L386.316 47.1092L385.416 47.1281C385.246 47.1316 385.077 47.1335 384.907 47.1335C381.236 47.1335 377.813 46.3254 375.267 44.858C373.094 43.6049 371.846 41.9946 371.844 40.4401C371.842 38.9013 373.066 37.3076 375.203 36.0676C377.183 34.9187 379.725 34.1703 382.556 33.903L383.491 33.8149L384.03 33.0479C384.506 32.3699 385.234 31.744 386.192 31.1876C388.292 29.9693 391.249 29.2705 394.307 29.2705C397.366 29.2705 400.334 29.9702 402.451 31.1904C403.335 31.7002 404.029 32.2692 404.513 32.8815L405.067 33.5829L405.959 33.649C409.36 33.9012 412.576 34.6698 415.259 35.8712L415.669 36.0545L416.118 36.0487C416.206 36.0475 416.294 36.0471 416.382 36.0471C419.443 36.0471 422.411 36.7456 424.525 37.9642C426.068 38.854 427.044 39.9414 427.272 41.0261C427.426 41.7621 427.23 42.5089 426.689 43.2456L425.189 45.2841L427.506 46.3056C427.988 46.5179 428.437 46.7439 428.842 46.9776C431.016 48.2306 432.263 49.8409 432.266 51.3955C432.268 52.9342 431.043 54.5277 428.907 55.7677C426.381 57.2345 422.971 58.0416 419.306 58.0416Z" fill="#FAFAFA"/>
<path d="M419.306 56.0105C415.814 56.0105 412.573 55.2507 410.18 53.8709C409.337 53.3851 408.653 52.8473 408.146 52.2732L407.158 51.1522L405.665 51.2464C404.983 51.2897 404.288 51.3114 403.598 51.3114C398.613 51.3114 393.971 50.2165 390.522 48.2286C389.379 47.5699 388.421 46.8361 387.674 46.0481L386.745 45.0688L385.395 45.0973C385.233 45.1005 385.07 45.1024 384.908 45.1024C381.412 45.1024 378.169 44.3426 375.776 42.963C373.953 41.9117 372.863 40.5883 372.862 39.423C372.86 38.2734 373.926 36.9677 375.715 35.9299C377.568 34.8544 379.967 34.1519 382.652 33.8984L384.054 33.7662L384.862 32.6155C385.254 32.0586 385.873 31.532 386.704 31.0499C388.653 29.9192 391.424 29.2705 394.307 29.2705C397.193 29.2705 399.976 29.9208 401.943 31.0546C402.715 31.4999 403.311 31.9845 403.715 32.4952L404.546 33.5475L405.884 33.6467C409.168 33.8904 412.267 34.629 414.844 35.7829L415.458 36.058L416.131 36.0494L416.382 36.0478C419.271 36.0478 422.053 36.6969 424.016 37.8288C425.288 38.5616 426.111 39.4333 426.277 40.2199C426.371 40.6675 426.237 41.1288 425.869 41.6298L423.62 44.6877L427.096 46.2201C427.544 46.4177 427.961 46.6271 428.334 46.8424C430.158 47.8935 431.247 49.2172 431.249 50.3824C431.251 51.5318 430.184 52.8375 428.396 53.8751C426.023 55.2519 422.794 56.0105 419.306 56.0105Z" fill="#FAFAFA"/>
<path d="M95.1716 70.8583C86.9146 75.619 84.9306 82.6346 89.2199 88.4668C88.0836 88.968 86.9883 89.5144 85.9481 90.1142C73.3593 97.3723 73.2928 109.144 85.8 116.402C98.3069 123.66 118.656 123.66 131.245 116.402C133.728 114.971 135.714 113.363 137.221 111.655C150.036 112.465 163.372 110.037 173.238 104.348C176.303 102.581 178.816 100.617 180.796 98.5294C189.412 98.7107 198.141 96.9035 204.738 93.0998C217.327 85.8416 217.393 74.0705 204.886 66.8123C199.958 63.9522 193.811 62.2248 187.404 61.6197C186.065 59.7137 184.071 57.9306 181.411 56.3872C170.65 50.1418 153.152 50.1444 142.325 56.3869C139.902 57.7838 138.023 59.3724 136.681 61.0702C129.098 61.6327 121.715 63.3385 115.358 66.1853C108.083 66.0926 100.743 67.6464 95.1716 70.8583Z" fill="#CBCBCB"/>
<path d="M107.769 112.445C115.602 112.445 122.911 110.718 128.349 107.583C130.354 106.427 131.999 105.129 133.237 103.725L134.645 102.128L136.772 102.262C138.276 102.358 139.807 102.406 141.323 102.406C152.344 102.406 162.65 99.9639 170.342 95.5292C172.964 94.0172 175.176 92.3201 176.918 90.4842L178.241 89.0895L180.164 89.13C180.525 89.1375 180.888 89.1415 181.25 89.1415C189.092 89.1415 196.405 87.4152 201.842 84.2806C206.484 81.6039 209.15 78.1639 209.155 74.8425C209.159 71.5553 206.544 68.151 201.979 65.5017C197.75 63.0476 192.319 61.4485 186.272 60.8774L184.276 60.6891L183.125 59.0504C182.107 57.6017 180.552 56.2649 178.505 55.0764C174.02 52.4738 167.702 50.981 161.172 50.981C154.636 50.981 148.295 52.4759 143.774 55.0827C141.884 56.172 140.402 57.3873 139.369 58.6954L138.186 60.1938L136.28 60.335C129.014 60.8737 122.144 62.5156 116.413 65.0821L115.538 65.474L114.579 65.4617C114.391 65.4591 114.203 65.4582 114.015 65.4582C107.475 65.4582 101.135 66.9505 96.6203 69.5536C93.3229 71.4547 91.239 73.7774 90.7518 76.0949C90.4216 77.6676 90.8409 79.2627 91.998 80.8364L95.2005 85.1914L90.251 87.3737C89.2232 87.8271 88.2626 88.3101 87.3967 88.8092C82.754 91.4859 80.0889 94.9259 80.084 98.2476C80.0793 101.535 82.6948 104.939 87.2592 107.588C92.6551 110.72 99.939 112.445 107.769 112.445Z" fill="#FAFAFA"/>
<path d="M107.769 108.106C115.227 108.106 122.15 106.483 127.263 103.535C129.063 102.497 130.525 101.348 131.607 100.122L133.719 97.7268L136.909 97.9282C138.365 98.0207 139.85 98.0673 141.323 98.0673C151.971 98.0673 161.889 95.7284 169.256 91.4813C171.696 90.074 173.744 88.5066 175.341 86.8234L177.324 84.7313L180.209 84.7921C180.555 84.7991 180.902 84.803 181.249 84.803C188.716 84.803 195.644 83.1799 200.755 80.2327C204.651 77.9868 206.978 75.1596 206.982 72.6705C206.985 70.2144 204.707 67.4252 200.887 65.2082C196.928 62.9104 191.803 61.4098 186.067 60.8681L183.073 60.5857L181.346 58.1276C180.51 56.9381 179.186 55.8127 177.412 54.7831C173.249 52.3673 167.329 50.9814 161.171 50.9814C155.005 50.9814 149.06 52.3706 144.859 54.7926C143.209 55.7437 141.935 56.779 141.074 57.8701L139.299 60.1178L136.44 60.3296C129.423 60.8502 122.805 62.428 117.3 64.8929L115.988 65.4808L114.55 65.4624L114.014 65.4589C107.843 65.4589 101.899 66.8457 97.7055 69.2638C94.9902 70.8291 93.2304 72.6912 92.8769 74.3719C92.676 75.3281 92.9612 76.3134 93.7482 77.3836L98.5521 83.916L91.1279 87.1896C90.17 87.6118 89.2799 88.0592 88.4821 88.5194C84.5868 90.765 82.2591 93.5925 82.2554 96.0821C82.2519 98.5377 84.5301 101.327 88.3498 103.544C93.4197 106.486 100.316 108.106 107.769 108.106Z" fill="#FAFAFA"/>
<path d="M112.604 294.029C120.062 294.029 126.985 292.406 132.099 289.458C133.899 288.42 135.361 287.272 136.442 286.045L138.555 283.65L141.744 283.851C143.201 283.944 144.685 283.991 146.158 283.991C156.806 283.991 166.725 281.652 174.091 277.405C176.532 275.997 178.579 274.43 180.177 272.747L182.16 270.655L185.045 270.715C185.39 270.722 185.738 270.726 186.085 270.726C193.552 270.726 200.48 269.103 205.591 266.156C209.487 263.91 211.814 261.083 211.818 258.594C211.821 256.138 209.543 253.349 205.723 251.132C201.764 248.834 196.639 247.333 190.902 246.791L187.909 246.509L186.182 244.051C185.346 242.861 184.022 241.736 182.248 240.706C178.085 238.291 172.165 236.905 166.007 236.905C159.841 236.905 153.896 238.294 149.695 240.716C148.045 241.667 146.771 242.703 145.91 243.793L144.135 246.041L141.276 246.253C134.259 246.774 127.641 248.351 122.136 250.816L120.824 251.404L119.386 251.386L118.85 251.382C112.679 251.382 106.735 252.769 102.541 255.187C99.8259 256.752 98.0664 258.615 97.7129 260.295C97.512 261.251 97.7971 262.237 98.5841 263.307L103.388 269.839L95.9638 273.113C95.006 273.535 94.1158 273.983 93.318 274.443C89.4228 276.689 87.095 279.516 87.0913 282.006C87.0878 284.461 89.3661 287.251 93.1858 289.467C98.2556 292.409 105.152 294.029 112.604 294.029ZM558.759 307.431C563.552 307.431 568 306.387 571.286 304.494C572.443 303.827 573.382 303.089 574.077 302.3L575.434 300.762L577.484 300.891C578.419 300.95 579.373 300.98 580.32 300.98C587.162 300.98 593.535 299.478 598.269 296.749C599.837 295.844 601.153 294.837 602.179 293.756L603.454 292.412L605.307 292.451C605.529 292.455 605.752 292.458 605.976 292.458C610.774 292.458 615.225 291.415 618.51 289.521C621.013 288.078 622.509 286.261 622.511 284.662C622.513 283.084 621.049 281.292 618.595 279.867C616.05 278.391 612.757 277.427 609.071 277.079L607.148 276.897L606.038 275.318C605.501 274.553 604.651 273.83 603.511 273.169C600.835 271.616 597.031 270.726 593.074 270.726C589.112 270.726 585.292 271.618 582.593 273.175C581.533 273.786 580.714 274.451 580.161 275.152L579.02 276.596L577.183 276.732C572.674 277.067 568.422 278.081 564.885 279.664L564.041 280.042L563.117 280.03L562.773 280.028C558.808 280.028 554.988 280.919 552.293 282.473C550.548 283.478 549.418 284.675 549.191 285.755C549.062 286.369 549.245 287.002 549.75 287.69L552.837 291.887L548.067 293.99C547.451 294.262 546.879 294.549 546.367 294.845C543.864 296.288 542.368 298.105 542.366 299.704C542.363 301.282 543.828 303.074 546.282 304.499C549.539 306.389 553.971 307.431 558.759 307.431Z" fill="#FAFAFA"/>
</svg>
